<svg xmlns="http://www.w3.org/2000/svg" viewBox="0 0 307 199"><defs><style>.cls-1{fill:#e9e8f5;}.cls-2,.cls-4{fill:#3a4a9a;}.cls-2{opacity:0.8;}.cls-3{fill:none;stroke:#00b6ed;stroke-miterlimit:10;}.cls-5{fill:#fff;}.cls-6{fill:#e95297;}.cls-7{fill:#1d1d1b;}</style></defs><title>02-1</title><g id="Capa_2" data-name="Capa 2"><g id="Capa_1-2" data-name="Capa 1"><path class="cls-1" d="M174.23,49.85q-.18-.85-.42-1.71a4.37,4.37,0,0,0,1.59-2.62,4.33,4.33,0,0,0,1.51-7.92,5.5,5.5,0,0,0-3.67-8.47A5.51,5.51,0,0,0,168,25.29a5.41,5.41,0,0,0-1.85.32,5.5,5.5,0,0,0-9.36-1.16,5.49,5.49,0,0,0-9.45,0,4.92,4.92,0,0,0-8.93,2.27,6.31,6.31,0,0,0-10.31,4.87,6.11,6.11,0,0,0,.25,1.72,3.64,3.64,0,0,0-4.76,5.46,2.36,2.36,0,0,0-.46-.1,1.92,1.92,0,0,0-.41-.05h-.09a3.5,3.5,0,0,0-2,6.4h-.18a4.64,4.64,0,0,0-1.91,8.8A3.49,3.49,0,0,0,120,60.11a5.22,5.22,0,0,0-.46,5.57,4.22,4.22,0,0,0,4.13,2.41,1.38,1.38,0,0,0,.2,0,4.17,4.17,0,0,0-.32,1.58,4.05,4.05,0,0,0,4,4h.05a4.62,4.62,0,0,0-.05.65,4,4,0,0,0,4,4,4,4,0,0,0,1-.12,4,4,0,0,0,4,3.53l.25,0"/><path class="cls-1" d="M161.39,96.79s-2.1-5.06-.74-7,9.48-1.29,15.23-6.28a18.29,18.29,0,0,0,4.28-5,1,1,0,0,0-.76-1.52c-1.47-.2-3.78-.84-4.72-2.88a1,1,0,0,1,.93-1.44l5.51-.15a1,1,0,0,0,1-1.32c-.32-1.14-.79-2.78-1.09-3.86a1,1,0,0,1,.41-1.13c1.76-1.17,2.89-2.49,3.16-4.12.95-5.71-5.23-1.73-6.14-4-1.66-4.15.14-8.86-2.11-16.37-2.82-9.4-14.95-19.13-33.75-13.71-21.38,6.18-24.42,28-17.27,41.05,6.8,12.36,15.11,12.79,14.54,17.7s-.34,6-.34,6"/><circle class="cls-2" cx="171.26" cy="55.6" r="2.78"/><rect class="cls-3" x="0.5" y="0.5" width="306" height="198"/><circle class="cls-1" cx="35.04" cy="35.04" r="13.28"/><path class="cls-4" d="M30.36,38l.06,0h3.52a.16.16,0,0,1,.11.05.14.14,0,0,1,.05.11v1.26a.16.16,0,0,1-.05.11.15.15,0,0,1-.11,0H28.09a.15.15,0,0,1-.11,0,.16.16,0,0,1-.05-.11v-1.2a.26.26,0,0,1,.08-.19c.43-.42.86-.87,1.3-1.36l.83-.92c.25-.28.49-.56.74-.82A3.74,3.74,0,0,0,32.07,33a1,1,0,0,0-.33-.75A1.22,1.22,0,0,0,30.9,32a1.25,1.25,0,0,0-.85.29,1,1,0,0,0-.32.78v.32a.14.14,0,0,1-.05.11.13.13,0,0,1-.11.05H28a.12.12,0,0,1-.11-.05.14.14,0,0,1-.05-.11v-.61a2.24,2.24,0,0,1,.44-1.24,2.55,2.55,0,0,1,1.08-.82,3.75,3.75,0,0,1,1.5-.29,3.49,3.49,0,0,1,1.6.34,2.61,2.61,0,0,1,1.06.93,2.46,2.46,0,0,1,.37,1.3,2.61,2.61,0,0,1-.28,1.12,5.86,5.86,0,0,1-.82,1.24,12.94,12.94,0,0,1-.87,1c-.31.33-.77.8-1.39,1.43l-.19.19A.07.07,0,0,0,30.36,38Z"/><path class="cls-4" d="M35.58,39.37a1,1,0,1,1,1.76-.73,1,1,0,0,1-1,1A1,1,0,0,1,35.58,39.37Z"/><path class="cls-4" d="M40.28,30.51h1.58a.16.16,0,0,1,.11,0,.15.15,0,0,1,0,.11v8.79a.14.14,0,0,1-.15.15H40.33a.14.14,0,0,1-.15-.15V32.33a.09.09,0,0,0,0,0s0,0,0,0l-1.29.35h-.05c-.08,0-.12,0-.12-.14l0-1.12a.17.17,0,0,1,.11-.18l1.37-.64A.45.45,0,0,1,40.28,30.51Z"/><path class="cls-5" d="M122.62,38.61h.09a1.92,1.92,0,0,1,.41.05,2.36,2.36,0,0,1,.46.1,3.64,3.64,0,0,1,4.76-5.46,6.11,6.11,0,0,1-.25-1.72,6.31,6.31,0,0,1,10.31-4.87,4.89,4.89,0,0,1,2.62-3.8,14.66,14.66,0,0,0-7.32-2,14.84,14.84,0,0,0-14.13,19.44A3.49,3.49,0,0,1,122.62,38.61Z"/><path class="cls-1" d="M133.7,50.68A14.84,14.84,0,0,0,141,22.92a4.89,4.89,0,0,0-2.62,3.8,6.31,6.31,0,0,0-10.31,4.87,6.11,6.11,0,0,0,.25,1.72,3.64,3.64,0,0,0-4.76,5.46,2.36,2.36,0,0,0-.46-.1,1.92,1.92,0,0,0-.41-.05h-.09a3.49,3.49,0,0,0-3.05,1.8A14.89,14.89,0,0,0,133.7,50.68Z"/><path class="cls-6" d="M133.7,53.68a17.86,17.86,0,1,1,17.86-17.85A17.88,17.88,0,0,1,133.7,53.68Zm0-32.71a14.86,14.86,0,1,0,14.86,14.86A14.88,14.88,0,0,0,133.7,21Z"/><rect class="cls-6" x="132.07" y="24.93" width="3.25" height="15.75" rx="1.63" ry="1.63"/><rect class="cls-6" x="132.07" y="42.97" width="3.25" height="3.75" rx="1.63" ry="1.63"/><path class="cls-6" d="M112.83,56.91a1.53,1.53,0,0,1-1.07-.44,1.51,1.51,0,0,1,0-2.12l8.69-8.69a1.5,1.5,0,0,1,2.12,2.13l-8.68,8.68A1.53,1.53,0,0,1,112.83,56.91Z"/><path class="cls-7" d="M41,111.85H37.4s0,0,0,.05v3a0,0,0,0,0,0,0h2.43A.11.11,0,0,1,40,115v.5a.11.11,0,0,1-.12.12H37.4a0,0,0,0,0,0,0v3a0,0,0,0,0,0,.05H41a.11.11,0,0,1,.12.12v.5a.11.11,0,0,1-.12.12H36.62a.11.11,0,0,1-.12-.12v-8.16a.11.11,0,0,1,.12-.12H41a.11.11,0,0,1,.12.12v.51A.11.11,0,0,1,41,111.85Z"/><path class="cls-7" d="M42.8,119.12a1.41,1.41,0,0,1-.56-1.14v-.11a.11.11,0,0,1,.12-.12H43a.11.11,0,0,1,.12.12V118a.83.83,0,0,0,.34.66,1.33,1.33,0,0,0,.88.28,1.27,1.27,0,0,0,.85-.27.89.89,0,0,0,.33-.7.71.71,0,0,0-.18-.5,1.25,1.25,0,0,0-.45-.33,6.66,6.66,0,0,0-.73-.27,6.89,6.89,0,0,1-.94-.39,1.86,1.86,0,0,1-.63-.53,1.42,1.42,0,0,1-.25-.87,1.51,1.51,0,0,1,.54-1.22,2.14,2.14,0,0,1,1.42-.45,2.17,2.17,0,0,1,1.46.47,1.49,1.49,0,0,1,.55,1.2v0a.11.11,0,0,1-.12.12h-.55a.11.11,0,0,1-.12-.12v0a.83.83,0,0,0-.33-.68,1.37,1.37,0,0,0-.89-.27,1.23,1.23,0,0,0-.83.26.81.81,0,0,0-.32.66.74.74,0,0,0,.32.64,4.89,4.89,0,0,0,1,.45,6.93,6.93,0,0,1,1,.39,1.89,1.89,0,0,1,.66.53,1.38,1.38,0,0,1,.27.88,1.54,1.54,0,0,1-.55,1.23,2.27,2.27,0,0,1-1.48.45A2.32,2.32,0,0,1,42.8,119.12Z"/><path class="cls-7" d="M50.1,112.14a.68.68,0,0,1-.18-.48.67.67,0,0,1,.18-.49.71.71,0,0,1,1,0,.64.64,0,0,1,.19.49.65.65,0,0,1-.19.48.71.71,0,0,1-1,0Zm0,7.24v-5.83a.11.11,0,0,1,.12-.12h.61a.11.11,0,0,1,.12.12v5.83a.11.11,0,0,1-.12.12h-.61A.11.11,0,0,1,50.15,119.38Z"/><path class="cls-7" d="M59.6,113.88a2.23,2.23,0,0,1,.46,1.47v4a.11.11,0,0,1-.12.12h-.6a.11.11,0,0,1-.12-.12v-3.91a1.53,1.53,0,0,0-.32-1,1.06,1.06,0,0,0-.83-.37,1.1,1.1,0,0,0-.87.37,1.41,1.41,0,0,0-.33,1v3.93a.11.11,0,0,1-.12.12h-.62a.11.11,0,0,1-.12-.12v-3.91a1.52,1.52,0,0,0-.31-1,1.08,1.08,0,0,0-.84-.37,1.06,1.06,0,0,0-.86.37,1.41,1.41,0,0,0-.33,1v3.93a.11.11,0,0,1-.12.12h-.61a.11.11,0,0,1-.12-.12v-5.83a.11.11,0,0,1,.12-.12h.61a.11.11,0,0,1,.12.12V114s0,0,0,0,0,0,0,0a1.55,1.55,0,0,1,.62-.48,2.06,2.06,0,0,1,.79-.15,1.73,1.73,0,0,1,.92.24,1.45,1.45,0,0,1,.6.67s0,0,.06,0a1.54,1.54,0,0,1,.67-.69,2,2,0,0,1,.94-.22A1.61,1.61,0,0,1,59.6,113.88Z"/><path class="cls-7" d="M66.07,116.41a7.56,7.56,0,0,1-.12,1.43,2.31,2.31,0,0,1-.68,1.32,1.85,1.85,0,0,1-1.29.43,1.74,1.74,0,0,1-.81-.17,1.33,1.33,0,0,1-.51-.49s0,0,0,0,0,0,0,0v2.77a.11.11,0,0,1-.12.12h-.61a.11.11,0,0,1-.12-.12v-8.16a.11.11,0,0,1,.12-.12h.61a.11.11,0,0,1,.12.12V114s0,0,0,0,0,0,0,0a1.5,1.5,0,0,1,1.38-.68,1.73,1.73,0,0,1,1.21.4,2.45,2.45,0,0,1,.66,1.29A5.45,5.45,0,0,1,66.07,116.41Zm-.86.06A4.93,4.93,0,0,0,65,115a1.46,1.46,0,0,0-.44-.67,1,1,0,0,0-.72-.23.93.93,0,0,0-.67.23,1.44,1.44,0,0,0-.41.66,4.92,4.92,0,0,0-.18,1.51,4.55,4.55,0,0,0,.21,1.55,1.4,1.4,0,0,0,.38.62,1,1,0,0,0,.65.21,1.15,1.15,0,0,0,1.13-.8A4.63,4.63,0,0,0,65.21,116.47Z"/><path class="cls-7" d="M68.1,119.13a2,2,0,0,1-.69-1.28c0-.4-.07-.87-.07-1.39a13.1,13.1,0,0,1,.07-1.37,2,2,0,0,1,.68-1.28,2.46,2.46,0,0,1,2.89,0,2,2,0,0,1,.68,1.28,9.56,9.56,0,0,1,.07,1.37,9.87,9.87,0,0,1-.07,1.39,2,2,0,0,1-.68,1.28,2.21,2.21,0,0,1-1.44.47A2.17,2.17,0,0,1,68.1,119.13Zm2.31-.59a1.33,1.33,0,0,0,.42-.85,15,15,0,0,0,0-2.45,1.25,1.25,0,0,0-.41-.84,1.29,1.29,0,0,0-.88-.32,1.27,1.27,0,0,0-.88.32,1.36,1.36,0,0,0-.42.84c0,.29,0,.7,0,1.23s0,.93,0,1.22a1.29,1.29,0,0,0,.42.85,1.39,1.39,0,0,0,1.75,0Z"/><path class="cls-7" d="M76.12,113.52c.06,0,.08.07.07.14l-.15.62c0,.08-.06.11-.14.07a1.16,1.16,0,0,0-.42-.08h-.15a1.09,1.09,0,0,0-.87.46,1.73,1.73,0,0,0-.35,1.08v3.56a.11.11,0,0,1-.12.12h-.61a.11.11,0,0,1-.12-.12v-5.83a.11.11,0,0,1,.12-.12H74a.11.11,0,0,1,.12.12v.78s0,0,0,0,0,0,0,0a1.79,1.79,0,0,1,.54-.71,1.33,1.33,0,0,1,.81-.26A1.15,1.15,0,0,1,76.12,113.52Z"/><path class="cls-7" d="M79.6,114.1H78.46s0,0,0,.05v3.6a1.1,1.1,0,0,0,.22.79,1,1,0,0,0,.71.22h.21a.11.11,0,0,1,.12.12v.5a.11.11,0,0,1-.12.12l-.38,0A1.89,1.89,0,0,1,78,119.2a1.4,1.4,0,0,1-.41-1.18v-3.87a0,0,0,0,0,0-.05h-.6a.11.11,0,0,1-.12-.12v-.43a.11.11,0,0,1,.12-.12h.6s0,0,0-.05V112a.11.11,0,0,1,.12-.12h.59a.11.11,0,0,1,.12.12v1.36s0,.05,0,.05H79.6a.11.11,0,0,1,.12.12V114A.11.11,0,0,1,79.6,114.1Z"/><path class="cls-7" d="M84.52,113.89a2,2,0,0,1,.54,1.46v4a.11.11,0,0,1-.12.12h-.61a.11.11,0,0,1-.12-.12V119s0,0,0,0,0,0,0,0a1.6,1.6,0,0,1-.67.5,2.42,2.42,0,0,1-.91.17,2.05,2.05,0,0,1-1.29-.41,1.55,1.55,0,0,1-.54-1.33,1.77,1.77,0,0,1,.62-1.46,2.64,2.64,0,0,1,1.69-.5h1.11s0,0,0-.05v-.45a1.46,1.46,0,0,0-.3-1,1.17,1.17,0,0,0-.91-.35,1.31,1.31,0,0,0-.78.23.94.94,0,0,0-.37.62.12.12,0,0,1-.13.11l-.66,0a.12.12,0,0,1-.09,0,.1.1,0,0,1,0-.09,1.58,1.58,0,0,1,.65-1.12,2.31,2.31,0,0,1,1.41-.42A2,2,0,0,1,84.52,113.89Zm-.75,4.64a1.07,1.07,0,0,0,.44-.92v-1s0,0,0,0h-1a1.67,1.67,0,0,0-1.09.32,1.05,1.05,0,0,0-.41.9,1,1,0,0,0,.31.79,1.25,1.25,0,0,0,.82.25A1.64,1.64,0,0,0,83.77,118.53Z"/><path class="cls-7" d="M90.29,113.88a2.11,2.11,0,0,1,.49,1.46v4a.11.11,0,0,1-.12.12H90a.11.11,0,0,1-.12-.12v-3.92a1.45,1.45,0,0,0-.32-1,1.26,1.26,0,0,0-1.79,0,1.44,1.44,0,0,0-.35,1v3.9a.11.11,0,0,1-.12.12h-.61a.11.11,0,0,1-.12-.12v-5.83a.11.11,0,0,1,.12-.12h.61a.11.11,0,0,1,.12.12V114a.05.05,0,0,0,0,0,0,0,0,0,0,0,0,1.64,1.64,0,0,1,1.44-.69A1.72,1.72,0,0,1,90.29,113.88Z"/><path class="cls-7" d="M94.71,114.1H93.57a0,0,0,0,0,0,.05v3.6a1.1,1.1,0,0,0,.23.79.94.94,0,0,0,.71.22h.2a.11.11,0,0,1,.12.12v.5a.11.11,0,0,1-.12.12l-.37,0a1.94,1.94,0,0,1-1.19-.32,1.43,1.43,0,0,1-.4-1.18v-3.87a0,0,0,0,0,0-.05h-.6a.11.11,0,0,1-.12-.12v-.43a.11.11,0,0,1,.12-.12h.6s0,0,0-.05V112a.11.11,0,0,1,.12-.12h.58a.11.11,0,0,1,.12.12v1.36s0,.05,0,.05h1.14a.11.11,0,0,1,.12.12V114A.11.11,0,0,1,94.71,114.1Z"/><path class="cls-7" d="M98.93,118.62a1.2,1.2,0,0,0,.47-.63.12.12,0,0,1,.15-.08l.55.11a.08.08,0,0,1,.08,0,.14.14,0,0,1,0,.09,1.93,1.93,0,0,1-.74,1.06,2.25,2.25,0,0,1-1.31.38,2.15,2.15,0,0,1-1.43-.46,2.06,2.06,0,0,1-.68-1.26,6.32,6.32,0,0,1-.06-.7c0-.28,0-.5,0-.68v-.38a7,7,0,0,1,0-1,1.93,1.93,0,0,1,.66-1.29,2.11,2.11,0,0,1,1.44-.49,2.16,2.16,0,0,1,1.5.52,2,2,0,0,1,.64,1.4c0,.26,0,.74,0,1.45a.11.11,0,0,1-.12.12H96.85s0,0,0,0c0,.24,0,.52,0,.82a1.26,1.26,0,0,0,.42.84,1.47,1.47,0,0,0,1.69.08Zm-1.7-4.22a1.3,1.3,0,0,0-.41.83c0,.34,0,.62,0,.84a0,0,0,0,0,0,.05h2.53a0,0,0,0,0,.05-.05c0-.23,0-.51-.05-.83a1.33,1.33,0,0,0-.4-.84,1.36,1.36,0,0,0-1.75,0Z"/><path class="cls-7" d="M107.53,113.43h.61a.11.11,0,0,1,.12.12v8.16a.11.11,0,0,1-.12.12h-.61a.11.11,0,0,1-.12-.12V118.9s0,0,0,0l0,0a1.28,1.28,0,0,1-.51.52,1.66,1.66,0,0,1-.82.18,1.85,1.85,0,0,1-1.29-.43,2.24,2.24,0,0,1-.67-1.32,6.64,6.64,0,0,1-.13-1.43,6,6,0,0,1,.15-1.38,2.53,2.53,0,0,1,.67-1.29,1.73,1.73,0,0,1,1.21-.4,1.53,1.53,0,0,1,1.39.7.05.05,0,0,0,0,0s0,0,0,0v-.48A.11.11,0,0,1,107.53,113.43Zm-.15,3a4.92,4.92,0,0,0-.18-1.51,1.42,1.42,0,0,0-.39-.66.93.93,0,0,0-.67-.23,1,1,0,0,0-.73.23,1.53,1.53,0,0,0-.43.67,4.8,4.8,0,0,0-.19,1.5,4.63,4.63,0,0,0,.23,1.58,1.15,1.15,0,0,0,1.13.8,1,1,0,0,0,.65-.21,1.33,1.33,0,0,0,.39-.62A5,5,0,0,0,107.38,116.47Z"/><path class="cls-7" d="M113.36,113.43H114a.11.11,0,0,1,.12.12v5.83a.11.11,0,0,1-.12.12h-.61a.11.11,0,0,1-.12-.12v-.46s0,0,0,0l0,0a1.5,1.5,0,0,1-1.39.69,1.86,1.86,0,0,1-1.33-.48,1.8,1.8,0,0,1-.52-1.39v-4.17a.11.11,0,0,1,.12-.12h.61a.11.11,0,0,1,.12.12v4a1.5,1.5,0,0,0,.31,1,1.1,1.1,0,0,0,.88.35,1.16,1.16,0,0,0,.92-.37,1.46,1.46,0,0,0,.34-1v-3.9A.11.11,0,0,1,113.36,113.43Z"/><path class="cls-7" d="M118.61,118.62a1.2,1.2,0,0,0,.47-.63.12.12,0,0,1,.15-.08l.55.11a.08.08,0,0,1,.08,0,.14.14,0,0,1,0,.09,1.93,1.93,0,0,1-.74,1.06,2.25,2.25,0,0,1-1.31.38,2.15,2.15,0,0,1-1.43-.46,2.06,2.06,0,0,1-.68-1.26,6.32,6.32,0,0,1-.06-.7c0-.28,0-.5,0-.68v-.38a7,7,0,0,1,.05-1,1.93,1.93,0,0,1,.66-1.29,2.11,2.11,0,0,1,1.44-.49,2.16,2.16,0,0,1,1.5.52,2,2,0,0,1,.64,1.4c0,.26,0,.74,0,1.45a.11.11,0,0,1-.12.12h-3.31s0,0,0,0c0,.24,0,.52,0,.82a1.26,1.26,0,0,0,.42.84,1.47,1.47,0,0,0,1.69.08Zm-1.7-4.22a1.3,1.3,0,0,0-.41.83c0,.34,0,.62,0,.84a0,0,0,0,0,0,.05h2.53a0,0,0,0,0,0-.05c0-.23,0-.51,0-.83a1.33,1.33,0,0,0-.4-.84,1.36,1.36,0,0,0-1.75,0Z"/><path class="cls-7" d="M123.77,119.38v-8.16a.11.11,0,0,1,.12-.12h.62a.11.11,0,0,1,.12.12v8.16a.11.11,0,0,1-.12.12h-.62A.11.11,0,0,1,123.77,119.38Z"/><path class="cls-7" d="M126.88,119.13a2,2,0,0,1-.68-1.28,11.5,11.5,0,0,1-.07-1.39,10.83,10.83,0,0,1,.07-1.37,2,2,0,0,1,.68-1.28,2.46,2.46,0,0,1,2.89,0,2,2,0,0,1,.68,1.28,9.56,9.56,0,0,1,.07,1.37,9.87,9.87,0,0,1-.07,1.39,2,2,0,0,1-.68,1.28,2.46,2.46,0,0,1-2.89,0Zm2.31-.59a1.34,1.34,0,0,0,.43-.85c0-.29,0-.7,0-1.22s0-.94,0-1.23a1.25,1.25,0,0,0-1.3-1.16,1.24,1.24,0,0,0-.87.32,1.36,1.36,0,0,0-.42.84c0,.29,0,.7,0,1.23s0,.93,0,1.22a1.32,1.32,0,0,0,.41.85,1.28,1.28,0,0,0,.88.31A1.24,1.24,0,0,0,129.19,118.54Z"/><path class="cls-7" d="M132.34,119.12a1.41,1.41,0,0,1-.56-1.14v-.11a.11.11,0,0,1,.12-.12h.59a.11.11,0,0,1,.12.12V118a.83.83,0,0,0,.34.66,1.33,1.33,0,0,0,.88.28,1.27,1.27,0,0,0,.85-.27.89.89,0,0,0,.33-.7.71.71,0,0,0-.18-.5,1.25,1.25,0,0,0-.45-.33,6.66,6.66,0,0,0-.73-.27,6.21,6.21,0,0,1-.93-.39,1.8,1.8,0,0,1-.64-.53,1.42,1.42,0,0,1-.25-.87,1.51,1.51,0,0,1,.54-1.22,2.14,2.14,0,0,1,1.42-.45,2.17,2.17,0,0,1,1.46.47,1.49,1.49,0,0,1,.55,1.2v0a.11.11,0,0,1-.12.12h-.55a.11.11,0,0,1-.12-.12v0a.83.83,0,0,0-.33-.68,1.37,1.37,0,0,0-.89-.27,1.23,1.23,0,0,0-.83.26.81.81,0,0,0-.32.66.74.74,0,0,0,.32.64,4.89,4.89,0,0,0,1,.45,7.67,7.67,0,0,1,1,.39,2,2,0,0,1,.65.53,1.38,1.38,0,0,1,.27.88,1.54,1.54,0,0,1-.55,1.23,2.27,2.27,0,0,1-1.48.45A2.32,2.32,0,0,1,132.34,119.12Z"/><path class="cls-7" d="M142.42,118.62a1.26,1.26,0,0,0,.47-.63.1.1,0,0,1,.14-.08l.56.11a.07.07,0,0,1,.07,0,.1.1,0,0,1,0,.09,2,2,0,0,1-.74,1.06,2.25,2.25,0,0,1-1.31.38,2.14,2.14,0,0,1-1.43-.46,2,2,0,0,1-.68-1.26,3.58,3.58,0,0,1-.06-.7c0-.28,0-.5,0-.68v-.38a8.82,8.82,0,0,1,0-1,2,2,0,0,1,.67-1.29,2.38,2.38,0,0,1,2.93,0,2.05,2.05,0,0,1,.65,1.4c0,.26,0,.74,0,1.45a.11.11,0,0,1-.12.12h-3.32s0,0,0,0c0,.24,0,.52,0,.82a1.3,1.3,0,0,0,.41.84,1.48,1.48,0,0,0,1.7.08Zm-1.71-4.22a1.29,1.29,0,0,0-.4.83c0,.34,0,.62,0,.84,0,0,0,.05,0,.05h2.54s0,0,0-.05c0-.23,0-.51,0-.83a1.35,1.35,0,0,0-.41-.84,1.21,1.21,0,0,0-.87-.32A1.25,1.25,0,0,0,140.71,114.4Z"/><path class="cls-7" d="M145.45,119.12a1.39,1.39,0,0,1-.57-1.14v-.11a.11.11,0,0,1,.12-.12h.59a.11.11,0,0,1,.12.12V118a.83.83,0,0,0,.34.66,1.33,1.33,0,0,0,.88.28,1.3,1.3,0,0,0,.86-.27.91.91,0,0,0,.32-.7.71.71,0,0,0-.18-.5,1.31,1.31,0,0,0-.44-.33,7,7,0,0,0-.74-.27,7.26,7.26,0,0,1-.93-.39,1.69,1.69,0,0,1-.63-.53,1.43,1.43,0,0,1-.26-.87,1.51,1.51,0,0,1,.54-1.22,2.5,2.5,0,0,1,2.89,0,1.51,1.51,0,0,1,.54,1.2v0a.11.11,0,0,1-.12.12h-.55a.11.11,0,0,1-.12-.12v0a.83.83,0,0,0-.33-.68,1.34,1.34,0,0,0-.88-.27,1.26,1.26,0,0,0-.84.26.81.81,0,0,0-.31.66.73.73,0,0,0,.31.64,5,5,0,0,0,1,.45,7.47,7.47,0,0,1,1,.39,2,2,0,0,1,.65.53,1.38,1.38,0,0,1,.27.88,1.51,1.51,0,0,1-.55,1.23,2.68,2.68,0,0,1-3,0Z"/><path class="cls-7" d="M152.6,114.1h-1.14a0,0,0,0,0-.05.05v3.6a1.1,1.1,0,0,0,.22.79,1,1,0,0,0,.72.22h.2a.11.11,0,0,1,.12.12v.5a.11.11,0,0,1-.12.12l-.37,0a1.92,1.92,0,0,1-1.19-.32,1.44,1.44,0,0,1-.41-1.18v-3.87s0-.05-.05-.05h-.6a.11.11,0,0,1-.12-.12v-.43a.11.11,0,0,1,.12-.12h.6s.05,0,.05-.05V112a.11.11,0,0,1,.12-.12h.59a.11.11,0,0,1,.12.12v1.36s0,.05.05.05h1.14a.11.11,0,0,1,.12.12V114A.11.11,0,0,1,152.6,114.1Z"/><path class="cls-7" d="M157.41,113.43H158a.11.11,0,0,1,.12.12v5.83a.11.11,0,0,1-.12.12h-.61a.11.11,0,0,1-.12-.12v-.46s0,0,0,0l0,0a1.5,1.5,0,0,1-1.39.69,1.86,1.86,0,0,1-1.33-.48,1.8,1.8,0,0,1-.52-1.39v-4.17a.11.11,0,0,1,.12-.12h.61a.11.11,0,0,1,.12.12v4a1.5,1.5,0,0,0,.31,1,1.1,1.1,0,0,0,.88.35,1.16,1.16,0,0,0,.92-.37,1.46,1.46,0,0,0,.34-1v-3.9A.11.11,0,0,1,157.41,113.43Z"/><path class="cls-7" d="M163.22,111.1h.61a.11.11,0,0,1,.12.12v8.16a.11.11,0,0,1-.12.12h-.61a.11.11,0,0,1-.12-.12v-.48s0,0,0,0l0,0a1.53,1.53,0,0,1-1.39.71,1.73,1.73,0,0,1-1.21-.4,2.54,2.54,0,0,1-.67-1.28,6.23,6.23,0,0,1-.15-1.39,6.52,6.52,0,0,1,.13-1.43,2.3,2.3,0,0,1,.67-1.33,1.89,1.89,0,0,1,1.29-.42,1.78,1.78,0,0,1,.82.17,1.34,1.34,0,0,1,.51.52s0,0,0,0,0,0,0,0v-2.81A.11.11,0,0,1,163.22,111.1Zm-.15,5.37a4.94,4.94,0,0,0-.19-1.55,1.33,1.33,0,0,0-.39-.62.92.92,0,0,0-.65-.22,1.15,1.15,0,0,0-1.13.82,4.53,4.53,0,0,0-.23,1.57,4.8,4.8,0,0,0,.19,1.5,1.59,1.59,0,0,0,.43.67,1.1,1.1,0,0,0,.73.23,1,1,0,0,0,.67-.23,1.42,1.42,0,0,0,.39-.66A5,5,0,0,0,163.07,116.47Z"/><path class="cls-7" d="M165.7,112.14a.65.65,0,0,1-.19-.48.64.64,0,0,1,.19-.49.66.66,0,0,1,.48-.19.69.69,0,0,1,.48.19.64.64,0,0,1,.19.49.65.65,0,0,1-.19.48.69.69,0,0,1-.48.19A.66.66,0,0,1,165.7,112.14Zm0,7.24v-5.83a.11.11,0,0,1,.12-.12h.61a.11.11,0,0,1,.12.12v5.83a.11.11,0,0,1-.12.12h-.61A.11.11,0,0,1,165.74,119.38Z"/><path class="cls-7" d="M171.86,113.89a2,2,0,0,1,.55,1.46v4a.11.11,0,0,1-.12.12h-.61a.11.11,0,0,1-.12-.12V119s0,0,0,0a0,0,0,0,0,0,0,1.67,1.67,0,0,1-.67.5,2.47,2.47,0,0,1-.92.17,2.09,2.09,0,0,1-1.29-.41,1.57,1.57,0,0,1-.53-1.33,1.74,1.74,0,0,1,.62-1.46,2.61,2.61,0,0,1,1.68-.5h1.12s.05,0,.05-.05v-.45a1.41,1.41,0,0,0-.31-1,1.13,1.13,0,0,0-.9-.35,1.27,1.27,0,0,0-.78.23,1,1,0,0,0-.38.62c0,.07-.05.11-.13.11l-.66,0a.12.12,0,0,1-.09,0,.13.13,0,0,1,0-.09,1.62,1.62,0,0,1,.66-1.12,2.31,2.31,0,0,1,1.41-.42A2,2,0,0,1,171.86,113.89Zm-.74,4.64a1.1,1.1,0,0,0,.44-.92v-1s0,0-.05,0h-1.06a1.68,1.68,0,0,0-1.09.32,1.08,1.08,0,0,0-.41.9,1,1,0,0,0,.32.79,1.23,1.23,0,0,0,.81.25A1.67,1.67,0,0,0,171.12,118.53Z"/><path class="cls-7" d="M177.64,113.88a2.11,2.11,0,0,1,.48,1.46v4a.11.11,0,0,1-.12.12h-.61a.11.11,0,0,1-.12-.12v-3.92a1.5,1.5,0,0,0-.32-1,1.16,1.16,0,0,0-.89-.37,1.18,1.18,0,0,0-.91.38,1.44,1.44,0,0,0-.34,1v3.9a.11.11,0,0,1-.12.12h-.61a.11.11,0,0,1-.12-.12v-5.83a.11.11,0,0,1,.12-.12h.61a.11.11,0,0,1,.12.12V114a.05.05,0,0,0,0,0l0,0a1.61,1.61,0,0,1,1.44-.69A1.74,1.74,0,0,1,177.64,113.88Z"/><path class="cls-7" d="M182.06,114.1h-1.14a0,0,0,0,0,0,.05v3.6a1.1,1.1,0,0,0,.22.79,1,1,0,0,0,.72.22h.2a.11.11,0,0,1,.12.12v.5a.11.11,0,0,1-.12.12l-.37,0a1.92,1.92,0,0,1-1.19-.32A1.44,1.44,0,0,1,180,118v-3.87s0-.05,0-.05h-.6a.11.11,0,0,1-.12-.12v-.43a.11.11,0,0,1,.12-.12h.6s0,0,0-.05V112a.11.11,0,0,1,.12-.12h.59a.11.11,0,0,1,.12.12v1.36s0,.05,0,.05h1.14a.11.11,0,0,1,.12.12V114A.11.11,0,0,1,182.06,114.1Z"/><path class="cls-7" d="M186.28,118.62a1.26,1.26,0,0,0,.47-.63.1.1,0,0,1,.14-.08l.56.11a.08.08,0,0,1,.07,0,.1.1,0,0,1,0,.09,2,2,0,0,1-.74,1.06,2.25,2.25,0,0,1-1.31.38,2.14,2.14,0,0,1-1.43-.46,2,2,0,0,1-.68-1.26,3.58,3.58,0,0,1-.06-.7c0-.28,0-.5,0-.68v-.38a8.82,8.82,0,0,1,.05-1,2,2,0,0,1,.67-1.29,2.38,2.38,0,0,1,2.93,0,2.05,2.05,0,0,1,.65,1.4c0,.26,0,.74,0,1.45,0,.08,0,.12-.11.12h-3.32s0,0,0,0c0,.24,0,.52,0,.82a1.3,1.3,0,0,0,.41.84,1.48,1.48,0,0,0,1.7.08Zm-1.71-4.22a1.29,1.29,0,0,0-.4.83c0,.34,0,.62,0,.84,0,0,0,.05,0,.05h2.54s0,0,0-.05c0-.23,0-.51,0-.83a1.35,1.35,0,0,0-.41-.84,1.21,1.21,0,0,0-.87-.32A1.25,1.25,0,0,0,184.57,114.4Z"/><path class="cls-7" d="M189.31,119.12a1.39,1.39,0,0,1-.57-1.14v-.11a.11.11,0,0,1,.12-.12h.59a.11.11,0,0,1,.12.12V118a.83.83,0,0,0,.34.66,1.33,1.33,0,0,0,.88.28,1.3,1.3,0,0,0,.86-.27.91.91,0,0,0,.32-.7.71.71,0,0,0-.18-.5,1.31,1.31,0,0,0-.44-.33c-.18-.08-.43-.17-.74-.27a6.7,6.7,0,0,1-.93-.39,1.69,1.69,0,0,1-.63-.53,1.43,1.43,0,0,1-.26-.87,1.51,1.51,0,0,1,.54-1.22,2.48,2.48,0,0,1,2.88,0,1.49,1.49,0,0,1,.55,1.2v0a.11.11,0,0,1-.12.12h-.55a.11.11,0,0,1-.12-.12v0a.83.83,0,0,0-.33-.68,1.36,1.36,0,0,0-.88-.27,1.24,1.24,0,0,0-.84.26.81.81,0,0,0-.32.66.74.74,0,0,0,.32.64,4.89,4.89,0,0,0,1,.45,7.11,7.11,0,0,1,1,.39,2,2,0,0,1,.65.53,1.38,1.38,0,0,1,.27.88,1.51,1.51,0,0,1-.55,1.23,2.68,2.68,0,0,1-3,0Z"/><path class="cls-7" d="M200.94,116.41a7.56,7.56,0,0,1-.12,1.43,2.3,2.3,0,0,1-.67,1.32,1.88,1.88,0,0,1-1.29.43,1.74,1.74,0,0,1-.81-.17,1.21,1.21,0,0,1-.51-.49s0,0,0,0,0,0,0,0v2.77a.11.11,0,0,1-.12.12h-.62a.11.11,0,0,1-.12-.12v-8.16a.11.11,0,0,1,.12-.12h.62a.11.11,0,0,1,.12.12V114s0,0,0,0,0,0,0,0a1.48,1.48,0,0,1,1.38-.68,1.72,1.72,0,0,1,1.2.4,2.53,2.53,0,0,1,.67,1.29A6,6,0,0,1,200.94,116.41Zm-.86.06a4.93,4.93,0,0,0-.18-1.5,1.44,1.44,0,0,0-.43-.67,1.07,1.07,0,0,0-.72-.23,1,1,0,0,0-.68.23,1.43,1.43,0,0,0-.4.66,4.92,4.92,0,0,0-.18,1.51,4.85,4.85,0,0,0,.2,1.55,1.5,1.5,0,0,0,.39.62.93.93,0,0,0,.64.21,1.15,1.15,0,0,0,1.13-.8A4.63,4.63,0,0,0,200.08,116.47Z"/><path class="cls-7" d="M202.49,112.14a.65.65,0,0,1-.19-.48.64.64,0,0,1,.19-.49A.66.66,0,0,1,203,111a.69.69,0,0,1,.48.19.64.64,0,0,1,.19.49.65.65,0,0,1-.19.48.69.69,0,0,1-.48.19A.66.66,0,0,1,202.49,112.14Zm0,7.24v-5.83a.11.11,0,0,1,.12-.12h.61a.11.11,0,0,1,.12.12v5.83a.11.11,0,0,1-.12.12h-.61A.11.11,0,0,1,202.53,119.38Z"/><path class="cls-7" d="M208,118.62a1.27,1.27,0,0,0,.48-.63.1.1,0,0,1,.14-.08l.55.11a.08.08,0,0,1,.08,0,.28.28,0,0,1,0,.09,2,2,0,0,1-.75,1.06,2.23,2.23,0,0,1-1.31.38,2.11,2.11,0,0,1-1.42-.46,2,2,0,0,1-.69-1.26,6.32,6.32,0,0,1-.06-.7c0-.28,0-.5,0-.68v-.38a8.82,8.82,0,0,1,.05-1,1.93,1.93,0,0,1,.66-1.29,2.11,2.11,0,0,1,1.44-.49,2.16,2.16,0,0,1,1.5.52,2.1,2.1,0,0,1,.65,1.4c0,.26,0,.74,0,1.45a.11.11,0,0,1-.12.12H206s-.05,0-.05,0c0,.24,0,.52,0,.82a1.25,1.25,0,0,0,.41.84,1.32,1.32,0,0,0,.91.31A1.28,1.28,0,0,0,208,118.62Zm-1.7-4.22a1.29,1.29,0,0,0-.4.83q0,.51,0,.84a0,0,0,0,0,.05.05h2.53a0,0,0,0,0,0-.05c0-.23,0-.51,0-.83a1.33,1.33,0,0,0-.4-.84,1.36,1.36,0,0,0-1.75,0Z"/><path class="cls-7" d="M214.52,113.88a2.06,2.06,0,0,1,.49,1.46v4a.11.11,0,0,1-.12.12h-.61a.11.11,0,0,1-.12-.12v-3.92a1.45,1.45,0,0,0-.33-1,1.13,1.13,0,0,0-.89-.37,1.17,1.17,0,0,0-.9.38,1.44,1.44,0,0,0-.34,1v3.9a.11.11,0,0,1-.12.12H211a.11.11,0,0,1-.12-.12v-5.83a.11.11,0,0,1,.12-.12h.62a.11.11,0,0,1,.12.12V114s0,0,0,0a.06.06,0,0,0,0,0,1.61,1.61,0,0,1,1.44-.69A1.7,1.7,0,0,1,214.52,113.88Z"/><path class="cls-7" d="M216.93,119.12a1.39,1.39,0,0,1-.57-1.14v-.11a.11.11,0,0,1,.12-.12h.59a.11.11,0,0,1,.12.12V118a.86.86,0,0,0,.34.66,1.36,1.36,0,0,0,.89.28,1.29,1.29,0,0,0,.85-.27.91.91,0,0,0,.32-.7.71.71,0,0,0-.18-.5,1.31,1.31,0,0,0-.44-.33,7.55,7.55,0,0,0-.73-.27,6.89,6.89,0,0,1-.94-.39,1.69,1.69,0,0,1-.63-.53,1.43,1.43,0,0,1-.26-.87,1.51,1.51,0,0,1,.54-1.22,2.5,2.5,0,0,1,2.89,0,1.51,1.51,0,0,1,.54,1.2v0a.11.11,0,0,1-.12.12h-.55a.11.11,0,0,1-.12-.12v0a.83.83,0,0,0-.33-.68,1.34,1.34,0,0,0-.88-.27,1.23,1.23,0,0,0-.83.26.79.79,0,0,0-.32.66.72.72,0,0,0,.32.64,4.64,4.64,0,0,0,1,.45,7.47,7.47,0,0,1,1,.39,1.85,1.85,0,0,1,.65.53,1.38,1.38,0,0,1,.27.88,1.51,1.51,0,0,1-.55,1.23,2.26,2.26,0,0,1-1.47.45A2.3,2.3,0,0,1,216.93,119.12Z"/><path class="cls-7" d="M224.6,118.62a1.27,1.27,0,0,0,.48-.63.1.1,0,0,1,.14-.08l.55.11a.08.08,0,0,1,.08,0,.28.28,0,0,1,0,.09,2,2,0,0,1-.75,1.06,2.23,2.23,0,0,1-1.31.38,2.11,2.11,0,0,1-1.42-.46,2,2,0,0,1-.69-1.26,6.32,6.32,0,0,1-.06-.7c0-.28,0-.5,0-.68v-.38a8.82,8.82,0,0,1,0-1,1.93,1.93,0,0,1,.66-1.29,2.11,2.11,0,0,1,1.44-.49,2.16,2.16,0,0,1,1.5.52,2.1,2.1,0,0,1,.65,1.4c0,.26,0,.74,0,1.45a.11.11,0,0,1-.12.12h-3.31s-.05,0-.05,0c0,.24,0,.52,0,.82a1.25,1.25,0,0,0,.41.84,1.32,1.32,0,0,0,.91.31A1.28,1.28,0,0,0,224.6,118.62Zm-1.7-4.22a1.29,1.29,0,0,0-.4.83q0,.51,0,.84a0,0,0,0,0,.05.05h2.53a0,0,0,0,0,0-.05c0-.23,0-.51,0-.83a1.33,1.33,0,0,0-.4-.84,1.36,1.36,0,0,0-1.75,0Z"/><path class="cls-7" d="M231.08,113.88a2.06,2.06,0,0,1,.49,1.46v4a.11.11,0,0,1-.12.12h-.61a.11.11,0,0,1-.12-.12v-3.92a1.45,1.45,0,0,0-.33-1,1.13,1.13,0,0,0-.89-.37,1.17,1.17,0,0,0-.9.38,1.44,1.44,0,0,0-.34,1v3.9a.11.11,0,0,1-.12.12h-.62a.11.11,0,0,1-.12-.12v-5.83a.11.11,0,0,1,.12-.12h.62a.11.11,0,0,1,.12.12V114s0,0,0,0a.06.06,0,0,0,0,0,1.61,1.61,0,0,1,1.44-.69A1.7,1.7,0,0,1,231.08,113.88Z"/><path class="cls-7" d="M235.89,119.12a1.39,1.39,0,0,1-.57-1.14v-.11a.11.11,0,0,1,.12-.12H236a.11.11,0,0,1,.12.12V118a.86.86,0,0,0,.34.66,1.36,1.36,0,0,0,.89.28,1.29,1.29,0,0,0,.85-.27.91.91,0,0,0,.32-.7.71.71,0,0,0-.18-.5,1.31,1.31,0,0,0-.44-.33,7.55,7.55,0,0,0-.73-.27,6.89,6.89,0,0,1-.94-.39,1.69,1.69,0,0,1-.63-.53,1.43,1.43,0,0,1-.26-.87,1.51,1.51,0,0,1,.54-1.22,2.5,2.5,0,0,1,2.89,0,1.51,1.51,0,0,1,.54,1.2v0a.11.11,0,0,1-.12.12h-.55a.11.11,0,0,1-.12-.12v0a.83.83,0,0,0-.33-.68,1.34,1.34,0,0,0-.88-.27,1.23,1.23,0,0,0-.83.26.79.79,0,0,0-.32.66.72.72,0,0,0,.32.64,4.64,4.64,0,0,0,1,.45,7.47,7.47,0,0,1,1,.39,1.85,1.85,0,0,1,.65.53,1.38,1.38,0,0,1,.27.88,1.51,1.51,0,0,1-.55,1.23,2.26,2.26,0,0,1-1.47.45A2.3,2.3,0,0,1,235.89,119.12Z"/><path class="cls-7" d="M241.32,119.13a2,2,0,0,1-.68-1.28,11.5,11.5,0,0,1-.07-1.39,10.83,10.83,0,0,1,.07-1.37,2,2,0,0,1,.68-1.28,2.46,2.46,0,0,1,2.89,0,2,2,0,0,1,.68,1.28,9.56,9.56,0,0,1,.07,1.37,9.87,9.87,0,0,1-.07,1.39,2,2,0,0,1-.68,1.28,2.46,2.46,0,0,1-2.89,0Zm2.31-.59a1.34,1.34,0,0,0,.43-.85c0-.29.05-.7.05-1.22s0-.94-.05-1.23a1.25,1.25,0,0,0-1.3-1.16,1.24,1.24,0,0,0-.87.32,1.36,1.36,0,0,0-.42.84c0,.29-.05.7-.05,1.23s0,.93.05,1.22a1.32,1.32,0,0,0,.41.85,1.28,1.28,0,0,0,.88.31A1.24,1.24,0,0,0,243.63,118.54Z"/><path class="cls-7" d="M250.82,116.53a6.23,6.23,0,0,1-.16,1.39,2.47,2.47,0,0,1-.67,1.28,1.72,1.72,0,0,1-1.2.4,1.52,1.52,0,0,1-1.38-.68s0,0,0,0,0,0,0,0v.45a.11.11,0,0,1-.12.12h-.61a.11.11,0,0,1-.12-.12v-8.16a.11.11,0,0,1,.12-.12h.61a.11.11,0,0,1,.12.12V114s0,0,0,0,0,0,0,0a1.15,1.15,0,0,1,.5-.5,1.64,1.64,0,0,1,.82-.17,1.93,1.93,0,0,1,1.29.42,2.43,2.43,0,0,1,.68,1.33A7.49,7.49,0,0,1,250.82,116.53Zm-.87-.06a4.3,4.3,0,0,0-.23-1.57,1.15,1.15,0,0,0-1.12-.82.9.9,0,0,0-.65.22,1.5,1.5,0,0,0-.39.62,4.81,4.81,0,0,0-.2,1.55,5,5,0,0,0,.18,1.51,1.51,1.51,0,0,0,.4.66,1,1,0,0,0,.68.23,1.09,1.09,0,0,0,.72-.23,1.5,1.5,0,0,0,.43-.67A4.93,4.93,0,0,0,250,116.47Z"/><path class="cls-7" d="M255.16,113.52c.06,0,.08.07.06.14l-.14.62c0,.08-.06.11-.15.07a1.16,1.16,0,0,0-.42-.08h-.14a1.11,1.11,0,0,0-.88.46,1.73,1.73,0,0,0-.35,1.08v3.56a.11.11,0,0,1-.12.12h-.61a.11.11,0,0,1-.12-.12v-5.83a.11.11,0,0,1,.12-.12H253a.11.11,0,0,1,.12.12v.78s0,0,0,0,0,0,0,0a1.81,1.81,0,0,1,.55-.71,1.33,1.33,0,0,1,.81-.26A1.17,1.17,0,0,1,255.16,113.52Z"/><path class="cls-7" d="M259,118.62a1.2,1.2,0,0,0,.47-.63.11.11,0,0,1,.15-.08l.55.11a.09.09,0,0,1,.08,0,.14.14,0,0,1,0,.09,1.93,1.93,0,0,1-.74,1.06,2.25,2.25,0,0,1-1.31.38,2.15,2.15,0,0,1-1.43-.46,2,2,0,0,1-.68-1.26,6.32,6.32,0,0,1-.06-.7c0-.28,0-.5,0-.68v-.38a9.17,9.17,0,0,1,0-1,2,2,0,0,1,.67-1.29,2.38,2.38,0,0,1,2.93,0,2.05,2.05,0,0,1,.65,1.4c0,.26,0,.74,0,1.45a.11.11,0,0,1-.12.12h-3.31s-.05,0-.05,0c0,.24,0,.52,0,.82a1.26,1.26,0,0,0,.42.84,1.28,1.28,0,0,0,.9.31A1.29,1.29,0,0,0,259,118.62Zm-1.71-4.22a1.33,1.33,0,0,0-.4.83c0,.34,0,.62,0,.84,0,0,0,.05.05.05h2.53a0,0,0,0,0,0-.05c0-.23,0-.51,0-.83a1.39,1.39,0,0,0-.4-.84,1.24,1.24,0,0,0-.87-.32A1.28,1.28,0,0,0,257.31,114.4Z"/><path class="cls-7" d="M267.06,118.62a1.2,1.2,0,0,0,.47-.63.1.1,0,0,1,.14-.08l.56.11a.07.07,0,0,1,.07,0,.1.1,0,0,1,0,.09,2,2,0,0,1-.74,1.06,2.25,2.25,0,0,1-1.31.38,2.14,2.14,0,0,1-1.43-.46,2,2,0,0,1-.68-1.26,3.58,3.58,0,0,1-.06-.7c0-.28,0-.5,0-.68v-.38a8.82,8.82,0,0,1,.05-1,2,2,0,0,1,.67-1.29,2.38,2.38,0,0,1,2.93,0,2.05,2.05,0,0,1,.65,1.4c0,.26,0,.74,0,1.45a.11.11,0,0,1-.12.12H265s-.05,0-.05,0c0,.24,0,.52,0,.82a1.3,1.3,0,0,0,.41.84,1.48,1.48,0,0,0,1.7.08Zm-1.71-4.22a1.29,1.29,0,0,0-.4.83c0,.34,0,.62,0,.84,0,0,0,.05.05.05h2.53s0,0,0-.05c0-.23,0-.51,0-.83a1.35,1.35,0,0,0-.41-.84,1.21,1.21,0,0,0-.87-.32A1.27,1.27,0,0,0,265.35,114.4Z"/><path class="cls-7" d="M269.82,119.38v-8.16a.11.11,0,0,1,.12-.12h.61a.11.11,0,0,1,.12.12v8.16a.11.11,0,0,1-.12.12h-.61A.11.11,0,0,1,269.82,119.38Z"/><path class="cls-7" d="M25.22,133.52a1.41,1.41,0,0,1-.56-1.14v-.11a.11.11,0,0,1,.12-.12h.59a.11.11,0,0,1,.12.12v.08a.84.84,0,0,0,.34.67,1.33,1.33,0,0,0,.88.28,1.27,1.27,0,0,0,.85-.27.89.89,0,0,0,.33-.7.71.71,0,0,0-.18-.5,1.25,1.25,0,0,0-.45-.33,6.66,6.66,0,0,0-.73-.27,6.89,6.89,0,0,1-.94-.39,1.86,1.86,0,0,1-.63-.53,1.42,1.42,0,0,1-.25-.87,1.51,1.51,0,0,1,.54-1.22,2.14,2.14,0,0,1,1.42-.45,2.17,2.17,0,0,1,1.46.47,1.49,1.49,0,0,1,.55,1.2v0a.11.11,0,0,1-.12.12H28a.11.11,0,0,1-.12-.12v-.05a.83.83,0,0,0-.33-.67,1.37,1.37,0,0,0-.89-.27,1.23,1.23,0,0,0-.83.26.81.81,0,0,0-.32.66.74.74,0,0,0,.32.64,4.89,4.89,0,0,0,1,.45,6.93,6.93,0,0,1,1,.39,1.78,1.78,0,0,1,.66.53,1.38,1.38,0,0,1,.27.88,1.55,1.55,0,0,1-.55,1.23,2.27,2.27,0,0,1-1.48.45A2.38,2.38,0,0,1,25.22,133.52Z"/><path class="cls-7" d="M30.12,126.53a.64.64,0,0,1-.18-.47.64.64,0,0,1,.67-.68.65.65,0,0,1,.48.19.63.63,0,0,1,.19.49.61.61,0,0,1-.19.47.69.69,0,0,1-1,0Zm.05,7.25V128a.11.11,0,0,1,.12-.12h.61A.11.11,0,0,1,31,128v5.83a.11.11,0,0,1-.12.12h-.61A.11.11,0,0,1,30.17,133.78Z"/><path class="cls-7" d="M36.23,127.83h.61A.11.11,0,0,1,37,128v5.78q0,2.72-3,2.58c-.08,0-.12-.05-.12-.13l0-.54a.12.12,0,0,1,0-.09.13.13,0,0,1,.09,0,2.19,2.19,0,0,0,1.61-.41,1.89,1.89,0,0,0,.49-1.43v-.4a.05.05,0,0,0,0,0,0,0,0,0,0,0,0,1.6,1.6,0,0,1-1.4.67,1.88,1.88,0,0,1-1.28-.46,2.07,2.07,0,0,1-.64-1.26,12,12,0,0,1-.07-1.35,8.7,8.7,0,0,1,.09-1.42,2,2,0,0,1,.6-1.25,1.84,1.84,0,0,1,1.28-.47,1.63,1.63,0,0,1,1.42.67s0,0,0,0,0,0,0,0V128A.11.11,0,0,1,36.23,127.83Zm-.12,3c0-.48,0-.88,0-1.22a1.29,1.29,0,0,0-.38-.83,1.17,1.17,0,0,0-.84-.32,1.22,1.22,0,0,0-.86.32,1.38,1.38,0,0,0-.42.83c0,.29,0,.7,0,1.22s0,.8,0,1.21a1.29,1.29,0,0,0,.41.82,1.21,1.21,0,0,0,.87.33,1.14,1.14,0,0,0,.84-.33,1.26,1.26,0,0,0,.38-.82C36.09,131.74,36.11,131.34,36.11,130.85Z"/><path class="cls-7" d="M42.21,128.28a2.11,2.11,0,0,1,.48,1.46v4a.11.11,0,0,1-.12.12H42a.11.11,0,0,1-.12-.12v-3.92a1.5,1.5,0,0,0-.32-1,1.11,1.11,0,0,0-.89-.37,1.18,1.18,0,0,0-.91.38,1.48,1.48,0,0,0-.34,1v3.9a.11.11,0,0,1-.12.12h-.61a.11.11,0,0,1-.12-.12V128a.11.11,0,0,1,.12-.12h.61a.11.11,0,0,1,.12.12v.47s0,0,0,0a0,0,0,0,0,0,0,1.61,1.61,0,0,1,1.44-.69A1.74,1.74,0,0,1,42.21,128.28Z"/><path class="cls-7" d="M44.38,126.53a.65.65,0,0,1-.19-.47.66.66,0,0,1,.19-.49.64.64,0,0,1,.49-.19.65.65,0,0,1,.48.19.66.66,0,0,1,.19.49.65.65,0,0,1-.19.47.66.66,0,0,1-.48.2A.65.65,0,0,1,44.38,126.53Zm0,7.25V128a.11.11,0,0,1,.12-.12h.61a.11.11,0,0,1,.12.12v5.83a.11.11,0,0,1-.12.12h-.61A.11.11,0,0,1,44.42,133.78Z"/><path class="cls-7" d="M48.5,126.5a1.76,1.76,0,0,0-.21,1v.3s0,0,0,0h1.13a.11.11,0,0,1,.12.12v.47a.11.11,0,0,1-.12.12H48.33s0,0,0,.05v5.19a.11.11,0,0,1-.12.12h-.62a.11.11,0,0,1-.12-.12v-5.19s0-.05,0-.05h-.64a.11.11,0,0,1-.12-.12V128a.11.11,0,0,1,.12-.12h.64s0,0,0,0v-.33a2.3,2.3,0,0,1,.41-1.53,1.78,1.78,0,0,1,1.39-.45h.26a.11.11,0,0,1,.12.12v.49a.11.11,0,0,1-.12.12h-.22A.89.89,0,0,0,48.5,126.5Zm2.46,0a.61.61,0,0,1-.19-.47.63.63,0,0,1,.19-.49.62.62,0,0,1,.48-.19.65.65,0,0,1,.48.19.63.63,0,0,1,.19.49.61.61,0,0,1-.19.47.66.66,0,0,1-.48.2A.63.63,0,0,1,51,126.53Zm0,7.25V128a.11.11,0,0,1,.12-.12h.61a.11.11,0,0,1,.12.12v5.83a.11.11,0,0,1-.12.12h-.61A.11.11,0,0,1,51,133.78Z"/><path class="cls-7" d="M54.27,133.52a2,2,0,0,1-.68-1.27,11.79,11.79,0,0,1-.07-1.4c0-.4,0-.86.07-1.37a1.93,1.93,0,0,1,.68-1.27,2.22,2.22,0,0,1,1.43-.48,2.3,2.3,0,0,1,1.44.46,1.7,1.7,0,0,1,.67,1.14l0,.25v0a.13.13,0,0,1,0,.08l-.08,0-.61,0a.12.12,0,0,1-.13-.11c0-.07,0-.12,0-.14a1.13,1.13,0,0,0-.42-.72,1.28,1.28,0,0,0-.87-.3,1.24,1.24,0,0,0-.87.32,1.33,1.33,0,0,0-.4.84,11,11,0,0,0-.06,1.23,10.74,10.74,0,0,0,.06,1.23,1.29,1.29,0,0,0,.4.84,1.24,1.24,0,0,0,.87.31,1.3,1.3,0,0,0,.88-.3,1.09,1.09,0,0,0,.41-.73v-.09c0-.09.06-.13.13-.11l.6,0c.07,0,.11.05.11.11v0a.56.56,0,0,1,0,.15,1.68,1.68,0,0,1-.66,1.17,2.25,2.25,0,0,1-1.45.46A2.15,2.15,0,0,1,54.27,133.52Z"/><path class="cls-7" d="M62.66,128.29a2,2,0,0,1,.54,1.46v4a.11.11,0,0,1-.12.12h-.61a.11.11,0,0,1-.12-.12v-.43a.05.05,0,0,0,0,0l0,0a1.67,1.67,0,0,1-.67.5,2.42,2.42,0,0,1-.91.17,2.05,2.05,0,0,1-1.29-.41,1.56,1.56,0,0,1-.54-1.33,1.77,1.77,0,0,1,.62-1.46,2.62,2.62,0,0,1,1.69-.5H62.3s.05,0,.05-.05v-.45a1.41,1.41,0,0,0-.31-1,1.13,1.13,0,0,0-.9-.35,1.29,1.29,0,0,0-.78.23.92.92,0,0,0-.37.62.13.13,0,0,1-.14.11l-.66,0a.12.12,0,0,1-.09,0,.1.1,0,0,1,0-.09,1.56,1.56,0,0,1,.65-1.12,2.32,2.32,0,0,1,1.41-.43A2,2,0,0,1,62.66,128.29Zm-.75,4.64a1.11,1.11,0,0,0,.44-.92v-1s0,0-.05,0h-1a1.71,1.71,0,0,0-1.1.32,1.07,1.07,0,0,0-.4.9,1,1,0,0,0,.31.79,1.24,1.24,0,0,0,.81.25A1.67,1.67,0,0,0,61.91,132.93Z"/><path class="cls-7" d="M68.15,125.5h.61a.11.11,0,0,1,.12.12v8.16a.11.11,0,0,1-.12.12h-.61c-.09,0-.12,0-.12-.12v-.48s0,0,0,0a0,0,0,0,0,0,0,1.54,1.54,0,0,1-1.4.71,1.77,1.77,0,0,1-1.2-.4,2.54,2.54,0,0,1-.67-1.28,6.3,6.3,0,0,1-.15-1.39,6.52,6.52,0,0,1,.13-1.43,2.36,2.36,0,0,1,.66-1.33,1.93,1.93,0,0,1,1.29-.42,1.83,1.83,0,0,1,.83.17,1.34,1.34,0,0,1,.51.52s0,0,0,0,0,0,0,0v-2.81C68,125.54,68.06,125.5,68.15,125.5ZM68,130.87a4.89,4.89,0,0,0-.19-1.55,1.62,1.62,0,0,0-.39-.63,1,1,0,0,0-.65-.21,1.16,1.16,0,0,0-1.13.81,4.59,4.59,0,0,0-.23,1.58,4.52,4.52,0,0,0,.19,1.5A1.59,1.59,0,0,0,66,133a1.09,1.09,0,0,0,.72.23,1,1,0,0,0,.68-.23,1.5,1.5,0,0,0,.39-.66A5,5,0,0,0,68,130.87Z"/><path class="cls-7" d="M71.16,133.52a2,2,0,0,1-.69-1.27c0-.4-.07-.87-.07-1.4a13,13,0,0,1,.07-1.36,2,2,0,0,1,.68-1.28,2.42,2.42,0,0,1,2.89,0,2,2,0,0,1,.68,1.28,9.49,9.49,0,0,1,.07,1.36,9.94,9.94,0,0,1-.07,1.4,1.9,1.9,0,0,1-.68,1.27,2.16,2.16,0,0,1-1.44.48A2.12,2.12,0,0,1,71.16,133.52Zm2.31-.58a1.33,1.33,0,0,0,.42-.85,15,15,0,0,0,0-2.45,1.25,1.25,0,0,0-1.29-1.16,1.23,1.23,0,0,0-.88.32,1.36,1.36,0,0,0-.42.84c0,.29,0,.7,0,1.23s0,.93,0,1.22a1.29,1.29,0,0,0,.42.85,1.39,1.39,0,0,0,1.75,0Z"/><path class="cls-7" d="M82.11,125.5h.62c.07,0,.11,0,.11.12v8.16c0,.08,0,.12-.11.12h-.62a.11.11,0,0,1-.12-.12v-.48s0,0,0,0a.06.06,0,0,0,0,0,1.52,1.52,0,0,1-1.39.71,1.8,1.8,0,0,1-1.21-.4,2.53,2.53,0,0,1-.66-1.28,5.75,5.75,0,0,1-.16-1.39,6.46,6.46,0,0,1,.14-1.43,2.36,2.36,0,0,1,.66-1.33,1.89,1.89,0,0,1,1.29-.42,1.75,1.75,0,0,1,.82.17,1.34,1.34,0,0,1,.51.52s0,0,0,0,0,0,0,0v-2.81A.11.11,0,0,1,82.11,125.5ZM82,130.87a5.2,5.2,0,0,0-.19-1.55,1.62,1.62,0,0,0-.39-.63,1,1,0,0,0-.66-.21,1.17,1.17,0,0,0-1.13.81,4.62,4.62,0,0,0-.22,1.58,4.52,4.52,0,0,0,.19,1.5A1.42,1.42,0,0,0,80,133a1.07,1.07,0,0,0,.72.23,1,1,0,0,0,.67-.23,1.51,1.51,0,0,0,.4-.66A5,5,0,0,0,82,130.87Z"/><path class="cls-7" d="M87.36,133a1.37,1.37,0,0,0,.48-.63.1.1,0,0,1,.14-.08l.55.1a.1.1,0,0,1,.08.06.28.28,0,0,1,0,.09,1.93,1.93,0,0,1-.75,1.05,2.16,2.16,0,0,1-1.31.39,2.11,2.11,0,0,1-1.42-.46,2,2,0,0,1-.69-1.26,6.31,6.31,0,0,1-.06-.71c0-.27,0-.49,0-.67v-.38a8.82,8.82,0,0,1,.05-1,1.9,1.9,0,0,1,.67-1.29,2.09,2.09,0,0,1,1.43-.5,2.13,2.13,0,0,1,1.5.53,2.07,2.07,0,0,1,.65,1.39c0,.27,0,.75,0,1.46a.11.11,0,0,1-.12.12H85.28s0,0,0,0c0,.25,0,.53,0,.83a1.3,1.3,0,0,0,.41.84,1.32,1.32,0,0,0,.91.31A1.28,1.28,0,0,0,87.36,133Zm-1.7-4.22a1.29,1.29,0,0,0-.4.83q0,.51,0,.84a0,0,0,0,0,0,.05h2.53a0,0,0,0,0,0-.05c0-.23,0-.51,0-.83a1.33,1.33,0,0,0-.4-.84,1.24,1.24,0,0,0-.87-.32A1.21,1.21,0,0,0,85.66,128.8Z"/><path class="cls-7" d="M92.53,133.78v-8.16a.11.11,0,0,1,.12-.12h.61a.11.11,0,0,1,.12.12v8.16a.11.11,0,0,1-.12.12h-.61A.11.11,0,0,1,92.53,133.78Z"/><path class="cls-7" d="M98.49,128.29a2,2,0,0,1,.54,1.46v4a.11.11,0,0,1-.12.12H98.3a.11.11,0,0,1-.12-.12v-.43a.05.05,0,0,0,0,0l0,0a1.67,1.67,0,0,1-.67.5,2.42,2.42,0,0,1-.91.17,2.05,2.05,0,0,1-1.29-.41,1.56,1.56,0,0,1-.54-1.33,1.77,1.77,0,0,1,.62-1.46,2.62,2.62,0,0,1,1.69-.5h1.11s.05,0,.05-.05v-.45a1.41,1.41,0,0,0-.31-1,1.13,1.13,0,0,0-.9-.35,1.31,1.31,0,0,0-.78.23.92.92,0,0,0-.37.62.13.13,0,0,1-.14.11l-.66,0a.12.12,0,0,1-.09,0,.1.1,0,0,1,0-.09,1.56,1.56,0,0,1,.65-1.12,2.32,2.32,0,0,1,1.41-.43A2,2,0,0,1,98.49,128.29Zm-.75,4.64a1.11,1.11,0,0,0,.44-.92v-1s0,0-.05,0h-1a1.71,1.71,0,0,0-1.1.32,1.07,1.07,0,0,0-.4.9,1,1,0,0,0,.31.79,1.24,1.24,0,0,0,.81.25A1.67,1.67,0,0,0,97.74,132.93Z"/><path class="cls-7" d="M103.05,126.53a.61.61,0,0,1-.19-.47.63.63,0,0,1,.19-.49.62.62,0,0,1,.48-.19.65.65,0,0,1,.48.19.63.63,0,0,1,.19.49.61.61,0,0,1-.19.47.66.66,0,0,1-.48.2A.63.63,0,0,1,103.05,126.53Zm0,7.25V128a.11.11,0,0,1,.12-.12h.61a.11.11,0,0,1,.12.12v5.83a.11.11,0,0,1-.12.12h-.61A.11.11,0,0,1,103.09,133.78Z"/><path class="cls-7" d="M109.44,128.28a2.06,2.06,0,0,1,.49,1.46v4a.11.11,0,0,1-.12.12h-.61a.11.11,0,0,1-.12-.12v-3.92a1.45,1.45,0,0,0-.33-1,1.1,1.1,0,0,0-.89-.37,1.17,1.17,0,0,0-.9.38,1.44,1.44,0,0,0-.34,1v3.9a.11.11,0,0,1-.12.12h-.62a.11.11,0,0,1-.12-.12V128a.11.11,0,0,1,.12-.12h.62a.11.11,0,0,1,.12.12v.47s0,0,0,0,0,0,.05,0a1.61,1.61,0,0,1,1.44-.69A1.7,1.7,0,0,1,109.44,128.28Z"/><path class="cls-7" d="M113,126.5a1.76,1.76,0,0,0-.21,1v.3s0,0,0,0h1.13a.11.11,0,0,1,.12.12v.47a.11.11,0,0,1-.12.12h-1.13s0,0,0,.05v5.19a.11.11,0,0,1-.12.12H112a.11.11,0,0,1-.12-.12v-5.19s0-.05,0-.05h-.64a.11.11,0,0,1-.12-.12V128a.11.11,0,0,1,.12-.12h.64s0,0,0,0v-.33a2.3,2.3,0,0,1,.41-1.53,1.78,1.78,0,0,1,1.39-.45h.26a.11.11,0,0,1,.12.12v.49a.11.11,0,0,1-.12.12h-.22A.89.89,0,0,0,113,126.5Z"/><path class="cls-7" d="M115.68,133.52a2,2,0,0,1-.69-1.27,11.56,11.56,0,0,1-.07-1.4,10.77,10.77,0,0,1,.07-1.36,2,2,0,0,1,.68-1.28,2.42,2.42,0,0,1,2.89,0,2,2,0,0,1,.68,1.28,9.49,9.49,0,0,1,.07,1.36,9.94,9.94,0,0,1-.07,1.4,1.9,1.9,0,0,1-.68,1.27,2.16,2.16,0,0,1-1.44.48A2.12,2.12,0,0,1,115.68,133.52Zm2.31-.58a1.38,1.38,0,0,0,.42-.85c0-.29,0-.7,0-1.22s0-.94,0-1.23a1.3,1.3,0,0,0-.41-.84,1.24,1.24,0,0,0-.88-.32,1.21,1.21,0,0,0-.88.32,1.36,1.36,0,0,0-.42.84c0,.29,0,.7,0,1.23s0,.93,0,1.22a1.32,1.32,0,0,0,.41.85,1.29,1.29,0,0,0,.89.31A1.27,1.27,0,0,0,118,132.94Z"/><path class="cls-7" d="M123.7,127.91a.11.11,0,0,1,.06.15l-.14.62c0,.08-.06.11-.14.07a1.16,1.16,0,0,0-.42-.08h-.15a1.09,1.09,0,0,0-.87.46,1.65,1.65,0,0,0-.35,1.08v3.56a.11.11,0,0,1-.12.12H121a.11.11,0,0,1-.12-.12V128a.11.11,0,0,1,.12-.12h.61a.11.11,0,0,1,.12.12v.78s0,0,0,0,0,0,0,0a1.7,1.7,0,0,1,.54-.71,1.33,1.33,0,0,1,.81-.26A1.25,1.25,0,0,1,123.7,127.91Z"/><path class="cls-7" d="M131.56,128.28a2.18,2.18,0,0,1,.46,1.47v4a.11.11,0,0,1-.12.12h-.6a.11.11,0,0,1-.12-.12v-3.91a1.53,1.53,0,0,0-.32-1,1,1,0,0,0-.83-.37,1.1,1.1,0,0,0-.87.37,1.41,1.41,0,0,0-.33,1v3.93a.11.11,0,0,1-.12.12h-.61a.11.11,0,0,1-.12-.12v-3.91a1.53,1.53,0,0,0-.32-1,1,1,0,0,0-.84-.37,1.08,1.08,0,0,0-.86.37,1.41,1.41,0,0,0-.32,1v3.93a.11.11,0,0,1-.12.12h-.62a.11.11,0,0,1-.12-.12V128a.11.11,0,0,1,.12-.12h.62a.11.11,0,0,1,.12.12v.42s0,0,0,0a.06.06,0,0,0,0,0,1.52,1.52,0,0,1,.61-.48,2.09,2.09,0,0,1,.79-.15,1.73,1.73,0,0,1,.92.24,1.45,1.45,0,0,1,.6.67s0,0,.06,0a1.6,1.6,0,0,1,.67-.69,2,2,0,0,1,.94-.22A1.61,1.61,0,0,1,131.56,128.28Z"/><path class="cls-7" d="M137.08,128.29a2,2,0,0,1,.54,1.46v4a.11.11,0,0,1-.12.12h-.61a.11.11,0,0,1-.12-.12v-.43s0,0,0,0,0,0,0,0a1.6,1.6,0,0,1-.67.5,2.42,2.42,0,0,1-.91.17,2.05,2.05,0,0,1-1.29-.41,1.56,1.56,0,0,1-.54-1.33,1.77,1.77,0,0,1,.62-1.46,2.64,2.64,0,0,1,1.69-.5h1.11s.05,0,.05-.05v-.45a1.46,1.46,0,0,0-.3-1,1.17,1.17,0,0,0-.91-.35,1.31,1.31,0,0,0-.78.23.92.92,0,0,0-.37.62.12.12,0,0,1-.13.11l-.66,0a.12.12,0,0,1-.09,0,.1.1,0,0,1,0-.09,1.56,1.56,0,0,1,.65-1.12,2.32,2.32,0,0,1,1.41-.43A2,2,0,0,1,137.08,128.29Zm-.75,4.64a1.08,1.08,0,0,0,.44-.92v-1s0,0-.05,0h-1.05a1.67,1.67,0,0,0-1.09.32,1.05,1.05,0,0,0-.41.9,1,1,0,0,0,.31.79,1.25,1.25,0,0,0,.82.25A1.64,1.64,0,0,0,136.33,132.93Z"/><path class="cls-7" d="M139.77,133.52a2,2,0,0,1-.68-1.27,11.79,11.79,0,0,1-.07-1.4c0-.4,0-.86.07-1.37a1.93,1.93,0,0,1,.68-1.27,2.22,2.22,0,0,1,1.43-.48,2.25,2.25,0,0,1,1.43.46,1.68,1.68,0,0,1,.68,1.14l0,.25v0a.13.13,0,0,1,0,.08l-.08,0-.61,0a.12.12,0,0,1-.13-.11.37.37,0,0,0,0-.14,1.11,1.11,0,0,0-.41-.72,1.31,1.31,0,0,0-.87-.3,1.24,1.24,0,0,0-.87.32,1.33,1.33,0,0,0-.4.84,11,11,0,0,0-.06,1.23,10.74,10.74,0,0,0,.06,1.23,1.29,1.29,0,0,0,.4.84,1.24,1.24,0,0,0,.87.31,1.3,1.3,0,0,0,.88-.3,1,1,0,0,0,.4-.73l0-.09c0-.09.06-.13.13-.11l.6,0c.07,0,.11.05.11.11v0a.56.56,0,0,1,0,.15,1.71,1.71,0,0,1-.66,1.17,2.25,2.25,0,0,1-1.45.46A2.13,2.13,0,0,1,139.77,133.52Z"/><path class="cls-7" d="M144.77,126.53a.65.65,0,0,1-.19-.47.66.66,0,0,1,.19-.49.64.64,0,0,1,.49-.19.65.65,0,0,1,.48.19.66.66,0,0,1,.19.49.65.65,0,0,1-.19.47.66.66,0,0,1-.48.2A.65.65,0,0,1,144.77,126.53Zm0,7.25V128a.11.11,0,0,1,.12-.12h.61a.11.11,0,0,1,.12.12v5.83a.11.11,0,0,1-.12.12h-.61A.11.11,0,0,1,144.81,133.78Z"/><path class="cls-7" d="M148.09,133.52a2,2,0,0,1-.69-1.27c0-.4-.07-.87-.07-1.4a13,13,0,0,1,.07-1.36,2,2,0,0,1,.68-1.28,2.42,2.42,0,0,1,2.89,0,2,2,0,0,1,.68,1.28,9.49,9.49,0,0,1,.07,1.36,9.94,9.94,0,0,1-.07,1.4,1.9,1.9,0,0,1-.68,1.27,2.16,2.16,0,0,1-1.44.48A2.12,2.12,0,0,1,148.09,133.52Zm2.31-.58a1.33,1.33,0,0,0,.42-.85,15,15,0,0,0,0-2.45,1.25,1.25,0,0,0-1.29-1.16,1.23,1.23,0,0,0-.88.32,1.36,1.36,0,0,0-.42.84c0,.29,0,.7,0,1.23s0,.93,0,1.22a1.29,1.29,0,0,0,.42.85,1.39,1.39,0,0,0,1.75,0ZM149,127s0-.06,0-.1l.73-1.31a.18.18,0,0,1,.15-.09h.51a.1.1,0,0,1,.09,0,.11.11,0,0,1,0,.11l-.83,1.3a.18.18,0,0,1-.15.09h-.4A.13.13,0,0,1,149,127Z"/><path class="cls-7" d="M156.87,128.28a2.11,2.11,0,0,1,.48,1.46v4a.11.11,0,0,1-.12.12h-.61a.11.11,0,0,1-.12-.12v-3.92a1.5,1.5,0,0,0-.32-1,1.13,1.13,0,0,0-.89-.37,1.18,1.18,0,0,0-.91.38,1.44,1.44,0,0,0-.34,1v3.9a.11.11,0,0,1-.12.12h-.61a.11.11,0,0,1-.12-.12V128a.11.11,0,0,1,.12-.12h.61a.11.11,0,0,1,.12.12v.47s0,0,0,0,0,0,0,0a1.61,1.61,0,0,1,1.44-.69A1.74,1.74,0,0,1,156.87,128.28Z"/><path class="cls-7" d="M164.77,127.83h.61a.11.11,0,0,1,.12.12v8.16a.11.11,0,0,1-.12.12h-.61a.11.11,0,0,1-.12-.12V133.3s0,0,0,0l0,0a1.28,1.28,0,0,1-.51.52,1.66,1.66,0,0,1-.82.18,1.85,1.85,0,0,1-1.29-.43,2.27,2.27,0,0,1-.67-1.33,6.54,6.54,0,0,1-.13-1.42,6,6,0,0,1,.15-1.38,2.45,2.45,0,0,1,.67-1.29,1.74,1.74,0,0,1,1.21-.41,1.53,1.53,0,0,1,1.39.71.05.05,0,0,0,0,0s0,0,0,0V128A.11.11,0,0,1,164.77,127.83Zm-.15,3a5,5,0,0,0-.18-1.52,1.53,1.53,0,0,0-.39-.66,1,1,0,0,0-.67-.22,1.1,1.1,0,0,0-.73.22,1.63,1.63,0,0,0-.43.68,4.8,4.8,0,0,0-.19,1.5,4.63,4.63,0,0,0,.23,1.58,1.15,1.15,0,0,0,1.13.8A1,1,0,0,0,164,133a1.31,1.31,0,0,0,.39-.63A4.87,4.87,0,0,0,164.62,130.87Z"/><path class="cls-7" d="M170.6,127.83h.61a.11.11,0,0,1,.12.12v5.83a.11.11,0,0,1-.12.12h-.61a.11.11,0,0,1-.12-.12v-.47s0,0,0,0l0,0A1.5,1.5,0,0,1,169,134a1.86,1.86,0,0,1-1.33-.48,1.8,1.8,0,0,1-.52-1.4V128a.11.11,0,0,1,.12-.12h.61a.11.11,0,0,1,.12.12v4a1.45,1.45,0,0,0,.31,1,1.29,1.29,0,0,0,1.8,0,1.44,1.44,0,0,0,.34-1V128A.11.11,0,0,1,170.6,127.83Z"/><path class="cls-7" d="M175.85,133a1.29,1.29,0,0,0,.47-.63.12.12,0,0,1,.15-.08l.55.1a.12.12,0,0,1,.08.06.14.14,0,0,1,0,.09,1.87,1.87,0,0,1-.74,1.05,2.18,2.18,0,0,1-1.31.39,2.15,2.15,0,0,1-1.43-.46,2,2,0,0,1-.68-1.26,6.31,6.31,0,0,1-.06-.71c0-.27,0-.49,0-.67v-.38a7,7,0,0,1,0-1,1.93,1.93,0,0,1,.66-1.29,2.12,2.12,0,0,1,1.44-.5,2.16,2.16,0,0,1,1.5.53,2.06,2.06,0,0,1,.64,1.39c0,.27,0,.75,0,1.46a.11.11,0,0,1-.12.12h-3.31s-.05,0-.05,0c0,.25,0,.53,0,.83a1.26,1.26,0,0,0,.42.84,1.28,1.28,0,0,0,.9.31A1.29,1.29,0,0,0,175.85,133Zm-1.7-4.22a1.3,1.3,0,0,0-.41.83c0,.34,0,.62,0,.84,0,0,0,.05.05.05h2.53a0,0,0,0,0,0-.05c0-.23,0-.51,0-.83a1.39,1.39,0,0,0-.4-.84,1.24,1.24,0,0,0-.87-.32A1.19,1.19,0,0,0,174.15,128.8Z"/><path class="cls-7" d="M184.45,125.5h.61a.11.11,0,0,1,.12.12v8.16a.11.11,0,0,1-.12.12h-.61a.11.11,0,0,1-.12-.12v-.48s0,0,0,0a0,0,0,0,0,0,0,1.54,1.54,0,0,1-1.4.71,1.77,1.77,0,0,1-1.2-.4,2.54,2.54,0,0,1-.67-1.28,6.3,6.3,0,0,1-.15-1.39,6.52,6.52,0,0,1,.13-1.43,2.36,2.36,0,0,1,.66-1.33,1.93,1.93,0,0,1,1.29-.42,1.83,1.83,0,0,1,.83.17,1.34,1.34,0,0,1,.51.52s0,0,0,0,0,0,0,0v-2.81A.11.11,0,0,1,184.45,125.5Zm-.15,5.37a4.89,4.89,0,0,0-.19-1.55,1.62,1.62,0,0,0-.39-.63,1,1,0,0,0-.65-.21,1.16,1.16,0,0,0-1.13.81,4.59,4.59,0,0,0-.23,1.58,4.52,4.52,0,0,0,.19,1.5,1.59,1.59,0,0,0,.43.67,1.09,1.09,0,0,0,.72.23,1,1,0,0,0,.68-.23,1.5,1.5,0,0,0,.39-.66A5,5,0,0,0,184.3,130.87Z"/><path class="cls-7" d="M189.7,133a1.35,1.35,0,0,0,.47-.63.1.1,0,0,1,.14-.08l.56.1a.09.09,0,0,1,.07.06.1.1,0,0,1,0,.09,1.92,1.92,0,0,1-.74,1.05,2.18,2.18,0,0,1-1.31.39,2.14,2.14,0,0,1-1.43-.46,2,2,0,0,1-.68-1.26,3.62,3.62,0,0,1-.06-.71c0-.27,0-.49,0-.67v-.38a8.82,8.82,0,0,1,0-1,2,2,0,0,1,.67-1.29,2.34,2.34,0,0,1,2.93,0,2,2,0,0,1,.65,1.39c0,.27,0,.75,0,1.46a.11.11,0,0,1-.12.12h-3.32s0,0,0,0c0,.25,0,.53,0,.83a1.3,1.3,0,0,0,.41.84,1.48,1.48,0,0,0,1.7.08ZM188,128.8a1.29,1.29,0,0,0-.4.83c0,.34,0,.62,0,.84,0,0,0,.05,0,.05h2.54s0,0,0-.05c0-.23,0-.51,0-.83a1.35,1.35,0,0,0-.41-.84,1.36,1.36,0,0,0-1.75,0Z"/><path class="cls-7" d="M196.83,130.93a5.75,5.75,0,0,1-.16,1.39,2.46,2.46,0,0,1-.66,1.28,1.78,1.78,0,0,1-1.21.4,1.51,1.51,0,0,1-1.38-.69s0,0,0,0a0,0,0,0,0,0,.05v.45a.11.11,0,0,1-.12.12h-.61a.11.11,0,0,1-.12-.12v-8.16a.11.11,0,0,1,.12-.12h.61a.11.11,0,0,1,.12.12v2.79s0,0,0,0,0,0,0,0a1.23,1.23,0,0,1,.5-.51,1.79,1.79,0,0,1,.82-.16,1.89,1.89,0,0,1,1.29.42,2.37,2.37,0,0,1,.68,1.33A7.49,7.49,0,0,1,196.83,130.93Zm-.86-.06a4.59,4.59,0,0,0-.23-1.58,1.16,1.16,0,0,0-1.13-.81,1,1,0,0,0-.65.21,1.5,1.5,0,0,0-.38.63,4.51,4.51,0,0,0-.21,1.55,5,5,0,0,0,.18,1.51,1.44,1.44,0,0,0,.41.66,1,1,0,0,0,.67.23,1.09,1.09,0,0,0,.72-.23,1.51,1.51,0,0,0,.44-.67A4.93,4.93,0,0,0,196,130.87Z"/><path class="cls-7" d="M201.1,133a1.35,1.35,0,0,0,.47-.63.1.1,0,0,1,.14-.08l.56.1a.09.09,0,0,1,.07.06.1.1,0,0,1,0,.09,1.92,1.92,0,0,1-.74,1.05,2.18,2.18,0,0,1-1.31.39,2.14,2.14,0,0,1-1.43-.46,2,2,0,0,1-.68-1.26,3.62,3.62,0,0,1-.06-.71c0-.27,0-.49,0-.67v-.38a8.82,8.82,0,0,1,0-1,2,2,0,0,1,.67-1.29,2.34,2.34,0,0,1,2.93,0,2,2,0,0,1,.65,1.39c0,.27,0,.75,0,1.46a.11.11,0,0,1-.12.12H199s0,0,0,0c0,.25,0,.53,0,.83a1.3,1.3,0,0,0,.41.84,1.48,1.48,0,0,0,1.7.08Zm-1.71-4.22a1.29,1.29,0,0,0-.4.83c0,.34,0,.62,0,.84,0,0,0,.05,0,.05h2.54s0,0,0-.05c0-.23,0-.51,0-.83a1.35,1.35,0,0,0-.41-.84,1.36,1.36,0,0,0-1.75,0Z"/><path class="cls-7" d="M207.58,128.28a2.11,2.11,0,0,1,.48,1.46v4a.11.11,0,0,1-.12.12h-.61a.11.11,0,0,1-.12-.12v-3.92a1.5,1.5,0,0,0-.32-1,1.13,1.13,0,0,0-.89-.37,1.18,1.18,0,0,0-.91.38,1.44,1.44,0,0,0-.34,1v3.9a.11.11,0,0,1-.12.12H204a.11.11,0,0,1-.12-.12V128a.11.11,0,0,1,.12-.12h.61a.11.11,0,0,1,.12.12v.47s0,0,0,0,0,0,0,0a1.61,1.61,0,0,1,1.44-.69A1.74,1.74,0,0,1,207.58,128.28Z"/><path class="cls-7" d="M215,127.91a.11.11,0,0,1,.06.15l-.14.62c0,.08-.06.11-.15.07a1.16,1.16,0,0,0-.42-.08h-.14a1.11,1.11,0,0,0-.88.46,1.71,1.71,0,0,0-.35,1.08v3.56a.11.11,0,0,1-.12.12h-.61a.11.11,0,0,1-.12-.12V128a.11.11,0,0,1,.12-.12h.61a.11.11,0,0,1,.12.12v.78s0,0,0,0,0,0,0,0a1.81,1.81,0,0,1,.55-.71,1.33,1.33,0,0,1,.81-.26A1.28,1.28,0,0,1,215,127.91Z"/><path class="cls-7" d="M218.81,133a1.29,1.29,0,0,0,.47-.63.11.11,0,0,1,.15-.08l.55.1a.12.12,0,0,1,.08.06.14.14,0,0,1,0,.09,1.87,1.87,0,0,1-.74,1.05A2.18,2.18,0,0,1,218,134a2.15,2.15,0,0,1-1.43-.46,2,2,0,0,1-.68-1.26,6.31,6.31,0,0,1-.06-.71c0-.27,0-.49,0-.67v-.38a9.17,9.17,0,0,1,0-1,2,2,0,0,1,.67-1.29,2.34,2.34,0,0,1,2.93,0,2,2,0,0,1,.65,1.39c0,.27,0,.75,0,1.46a.11.11,0,0,1-.12.12h-3.31s0,0,0,0c0,.25,0,.53,0,.83a1.26,1.26,0,0,0,.42.84,1.28,1.28,0,0,0,.9.31A1.29,1.29,0,0,0,218.81,133Zm-1.71-4.22a1.33,1.33,0,0,0-.4.83c0,.34,0,.62,0,.84,0,0,0,.05,0,.05h2.53a0,0,0,0,0,.05-.05c0-.23,0-.51-.05-.83a1.39,1.39,0,0,0-.4-.84,1.37,1.37,0,0,0-1.76,0Z"/><path class="cls-7" d="M222.21,133.52a2,2,0,0,1-.68-1.27,11.64,11.64,0,0,1-.08-1.4c0-.4,0-.86.08-1.37a1.93,1.93,0,0,1,.68-1.27,2.2,2.2,0,0,1,1.43-.48,2.27,2.27,0,0,1,1.43.46,1.68,1.68,0,0,1,.68,1.14l0,.25v0a.13.13,0,0,1,0,.08l-.08,0-.61,0a.13.13,0,0,1-.14-.11.45.45,0,0,0,0-.14,1.16,1.16,0,0,0-.41-.72,1.31,1.31,0,0,0-.87-.3,1.24,1.24,0,0,0-.87.32,1.33,1.33,0,0,0-.4.84,11,11,0,0,0-.06,1.23,10.74,10.74,0,0,0,.06,1.23,1.29,1.29,0,0,0,.4.84,1.24,1.24,0,0,0,.87.31,1.32,1.32,0,0,0,.88-.3,1,1,0,0,0,.4-.73v-.09c0-.09.06-.13.14-.11l.6,0a.1.1,0,0,1,.1.11v0a.47.47,0,0,1,0,.15,1.72,1.72,0,0,1-.67,1.17,2.22,2.22,0,0,1-1.44.46A2.13,2.13,0,0,1,222.21,133.52Z"/><path class="cls-7" d="M227.73,133.52a2,2,0,0,1-.68-1.27,11.39,11.39,0,0,1-.08-1.4,10.59,10.59,0,0,1,.08-1.36,1.94,1.94,0,0,1,.67-1.28,2.43,2.43,0,0,1,2.9,0,1.94,1.94,0,0,1,.67,1.28,9.22,9.22,0,0,1,.08,1.36,9.64,9.64,0,0,1-.08,1.4,1.89,1.89,0,0,1-.67,1.27,2.19,2.19,0,0,1-1.45.48A2.16,2.16,0,0,1,227.73,133.52Zm2.31-.58a1.34,1.34,0,0,0,.43-.85c0-.29,0-.7,0-1.22s0-.94,0-1.23a1.26,1.26,0,0,0-.42-.84,1.23,1.23,0,0,0-.88-.32,1.24,1.24,0,0,0-.88.32,1.36,1.36,0,0,0-.42.84c0,.29,0,.7,0,1.23s0,.93,0,1.22a1.29,1.29,0,0,0,.42.85,1.39,1.39,0,0,0,1.75,0Z"/><path class="cls-7" d="M235.76,127.91a.14.14,0,0,1,.06.15l-.15.62c0,.08,0,.11-.14.07a1.16,1.16,0,0,0-.42-.08H235a1.1,1.1,0,0,0-.88.46,1.71,1.71,0,0,0-.35,1.08v3.56a.11.11,0,0,1-.12.12H233a.11.11,0,0,1-.12-.12V128a.11.11,0,0,1,.12-.12h.61a.11.11,0,0,1,.12.12v.78s0,0,0,0,0,0,0,0a1.81,1.81,0,0,1,.55-.71,1.39,1.39,0,0,1,1.42-.12Z"/><path class="cls-7" d="M240.17,125.5h.62a.11.11,0,0,1,.12.12v8.16a.11.11,0,0,1-.12.12h-.62a.11.11,0,0,1-.12-.12v-.48s0,0,0,0a.06.06,0,0,0,0,0,1.52,1.52,0,0,1-1.39.71,1.77,1.77,0,0,1-1.2-.4,2.47,2.47,0,0,1-.67-1.28,6.3,6.3,0,0,1-.16-1.39,6.46,6.46,0,0,1,.14-1.43,2.36,2.36,0,0,1,.66-1.33,1.93,1.93,0,0,1,1.29-.42,1.75,1.75,0,0,1,.82.17,1.22,1.22,0,0,1,.51.52s0,0,0,0,0,0,0,0v-2.81A.11.11,0,0,1,240.17,125.5Zm-.14,5.37a4.89,4.89,0,0,0-.19-1.55,1.62,1.62,0,0,0-.39-.63,1,1,0,0,0-.66-.21,1.15,1.15,0,0,0-1.12.81,4.36,4.36,0,0,0-.23,1.58,4.52,4.52,0,0,0,.19,1.5,1.5,1.5,0,0,0,.43.67,1.09,1.09,0,0,0,.72.23,1,1,0,0,0,.67-.23,1.51,1.51,0,0,0,.4-.66A5,5,0,0,0,240,130.87Z"/><path class="cls-7" d="M246,128.29a2,2,0,0,1,.54,1.46v4a.11.11,0,0,1-.12.12h-.61a.11.11,0,0,1-.12-.12v-.43a.05.05,0,0,0,0,0l0,0a1.67,1.67,0,0,1-.67.5,2.42,2.42,0,0,1-.91.17,2.05,2.05,0,0,1-1.29-.41,1.56,1.56,0,0,1-.54-1.33,1.77,1.77,0,0,1,.62-1.46,2.62,2.62,0,0,1,1.69-.5h1.11s0,0,0-.05v-.45a1.41,1.41,0,0,0-.31-1,1.13,1.13,0,0,0-.9-.35,1.31,1.31,0,0,0-.78.23.92.92,0,0,0-.37.62.13.13,0,0,1-.14.11l-.66,0a.12.12,0,0,1-.09,0,.1.1,0,0,1,0-.09,1.56,1.56,0,0,1,.65-1.12,2.32,2.32,0,0,1,1.41-.43A2,2,0,0,1,246,128.29Zm-.75,4.64a1.11,1.11,0,0,0,.44-.92v-1s0,0,0,0h-1.05a1.71,1.71,0,0,0-1.1.32,1.07,1.07,0,0,0-.4.9,1,1,0,0,0,.31.79,1.24,1.24,0,0,0,.81.25A1.67,1.67,0,0,0,245.29,132.93Z"/><path class="cls-7" d="M251,127.91a.14.14,0,0,1,.06.15l-.15.62c0,.08,0,.11-.14.07a1.16,1.16,0,0,0-.42-.08h-.14a1.1,1.1,0,0,0-.88.46,1.71,1.71,0,0,0-.35,1.08v3.56a.11.11,0,0,1-.12.12h-.61a.11.11,0,0,1-.12-.12V128a.11.11,0,0,1,.12-.12h.61a.11.11,0,0,1,.12.12v.78s0,0,0,0l0,0a1.81,1.81,0,0,1,.55-.71,1.39,1.39,0,0,1,1.42-.12Z"/><path class="cls-7" d="M251.94,133.69a.65.65,0,0,1-.19-.48.66.66,0,0,1,.19-.49.68.68,0,0,1,.49-.19.68.68,0,1,1,0,1.35A.68.68,0,0,1,251.94,133.69Z"/><path class="cls-7" d="M261.17,133.79l-.39-1.5a.06.06,0,0,0-.06,0h-2.87a.06.06,0,0,0-.06,0l-.4,1.5a.12.12,0,0,1-.13.11h-.62a.12.12,0,0,1-.09,0,.12.12,0,0,1,0-.1l2.24-8.16a.13.13,0,0,1,.14-.11h.76a.13.13,0,0,1,.14.11l2.24,8.16v0q0,.09-.12.09h-.63A.12.12,0,0,1,261.17,133.79ZM258,131.54s0,0,0,0h2.49a0,0,0,0,0,0,0s0,0,0,0l-1.27-4.83s0,0,0,0l0,0L258,131.52Z"/><path class="cls-7" d="M263.47,133.52a1.39,1.39,0,0,1-.57-1.14v-.11a.11.11,0,0,1,.12-.12h.59a.11.11,0,0,1,.12.12v.08a.84.84,0,0,0,.34.67,1.33,1.33,0,0,0,.88.28,1.3,1.3,0,0,0,.86-.27.91.91,0,0,0,.32-.7.71.71,0,0,0-.18-.5,1.31,1.31,0,0,0-.44-.33,7,7,0,0,0-.74-.27,7.26,7.26,0,0,1-.93-.39,1.69,1.69,0,0,1-.63-.53,1.43,1.43,0,0,1-.26-.87,1.51,1.51,0,0,1,.54-1.22,2.5,2.5,0,0,1,2.89,0,1.51,1.51,0,0,1,.54,1.2v0a.11.11,0,0,1-.12.12h-.55a.11.11,0,0,1-.12-.12v-.05a.83.83,0,0,0-.33-.67,1.34,1.34,0,0,0-.88-.27,1.26,1.26,0,0,0-.84.26.81.81,0,0,0-.31.66.73.73,0,0,0,.31.64,5,5,0,0,0,1,.45,7.47,7.47,0,0,1,1,.39,1.83,1.83,0,0,1,.65.53,1.38,1.38,0,0,1,.27.88,1.52,1.52,0,0,1-.55,1.23A2.27,2.27,0,0,1,265,134,2.35,2.35,0,0,1,263.47,133.52Z"/><path class="cls-7" d="M268.1,127s0-.06,0-.1l.73-1.31a.18.18,0,0,1,.15-.09h.51a.1.1,0,0,1,.09,0,.12.12,0,0,1,0,.11l-.82,1.3a.18.18,0,0,1-.15.09h-.41A.11.11,0,0,1,268.1,127Zm.08,6.78V128a.11.11,0,0,1,.12-.12h.61a.11.11,0,0,1,.12.12v5.83a.11.11,0,0,1-.12.12h-.61A.11.11,0,0,1,268.18,133.78Z"/><path class="cls-7" d="M273.28,133.52a1.38,1.38,0,0,1-.56-1.14v-.11a.11.11,0,0,1,.12-.12h.59c.07,0,.11,0,.11.12v.08a.85.85,0,0,0,.35.67,1.33,1.33,0,0,0,.88.28,1.27,1.27,0,0,0,.85-.27.89.89,0,0,0,.33-.7.71.71,0,0,0-.18-.5,1.25,1.25,0,0,0-.45-.33,6.66,6.66,0,0,0-.73-.27,6.89,6.89,0,0,1-.94-.39,1.77,1.77,0,0,1-.63-.53,1.42,1.42,0,0,1-.25-.87,1.51,1.51,0,0,1,.54-1.22,2.14,2.14,0,0,1,1.42-.45,2.17,2.17,0,0,1,1.46.47,1.49,1.49,0,0,1,.55,1.2v0a.11.11,0,0,1-.12.12h-.56c-.08,0-.11,0-.11-.12v-.05a.86.86,0,0,0-.33-.67,1.37,1.37,0,0,0-.89-.27,1.23,1.23,0,0,0-.83.26.81.81,0,0,0-.32.66.74.74,0,0,0,.32.64,4.89,4.89,0,0,0,1,.45,6.93,6.93,0,0,1,1,.39,1.78,1.78,0,0,1,.66.53,1.38,1.38,0,0,1,.27.88,1.55,1.55,0,0,1-.55,1.23,2.27,2.27,0,0,1-1.48.45A2.38,2.38,0,0,1,273.28,133.52Z"/><path class="cls-7" d="M281,133a1.42,1.42,0,0,0,.47-.63.1.1,0,0,1,.14-.08l.55.1a.1.1,0,0,1,.08.06.14.14,0,0,1,0,.09,1.93,1.93,0,0,1-.75,1.05,2.41,2.41,0,0,1-2.73-.07,2,2,0,0,1-.69-1.26,6.31,6.31,0,0,1-.06-.71c0-.27,0-.49,0-.67v-.38a8.82,8.82,0,0,1,0-1,1.94,1.94,0,0,1,.67-1.29,2.09,2.09,0,0,1,1.43-.5,2.13,2.13,0,0,1,1.5.53,2.07,2.07,0,0,1,.65,1.39c0,.27,0,.75,0,1.46,0,.08,0,.12-.11.12h-3.32s-.05,0-.05,0c0,.25,0,.53,0,.83a1.3,1.3,0,0,0,.41.84,1.48,1.48,0,0,0,1.7.08Zm-1.71-4.22a1.29,1.29,0,0,0-.4.83q0,.51,0,.84a0,0,0,0,0,.05.05h2.53s.05,0,.05-.05a6.64,6.64,0,0,0-.05-.83,1.33,1.33,0,0,0-.4-.84,1.24,1.24,0,0,0-.87-.32A1.21,1.21,0,0,0,279.25,128.8Z"/><path class="cls-7" d="M52.09,140.9a1.75,1.75,0,0,0-.22,1v.3s0,0,.05,0h1.13a.11.11,0,0,1,.12.12v.47a.11.11,0,0,1-.12.12H51.92a0,0,0,0,0-.05.05v5.19a.11.11,0,0,1-.12.12h-.61a.11.11,0,0,1-.12-.12V143s0-.05-.05-.05h-.63a.11.11,0,0,1-.12-.12v-.47a.11.11,0,0,1,.12-.12H51s.05,0,.05,0v-.33a2.38,2.38,0,0,1,.4-1.53,1.82,1.82,0,0,1,1.4-.45h.25a.11.11,0,0,1,.12.12v.49a.11.11,0,0,1-.12.12h-.21A.88.88,0,0,0,52.09,140.9Z"/><path class="cls-7" d="M57.83,142.69a2,2,0,0,1,.55,1.46v4a.11.11,0,0,1-.12.12h-.61a.11.11,0,0,1-.12-.12v-.43s0,0,0,0a0,0,0,0,0,0,0,1.63,1.63,0,0,1-.68.5,2.38,2.38,0,0,1-.91.17,2.09,2.09,0,0,1-1.29-.41,1.59,1.59,0,0,1-.53-1.33,1.74,1.74,0,0,1,.62-1.46,2.61,2.61,0,0,1,1.68-.5h1.12s.05,0,.05,0v-.45a1.46,1.46,0,0,0-.31-1,1.15,1.15,0,0,0-.91-.35,1.31,1.31,0,0,0-.78.23,1,1,0,0,0-.37.62.12.12,0,0,1-.13.11l-.66,0a.12.12,0,0,1-.09,0,.1.1,0,0,1,0-.09,1.62,1.62,0,0,1,.66-1.12,2.31,2.31,0,0,1,1.41-.42A2,2,0,0,1,57.83,142.69Zm-.74,4.64a1.11,1.11,0,0,0,.44-.92v-1s0-.05-.05-.05H56.42a1.68,1.68,0,0,0-1.09.32,1.08,1.08,0,0,0-.41.9,1,1,0,0,0,.31.79,1.25,1.25,0,0,0,.82.25A1.67,1.67,0,0,0,57.09,147.33Z"/><path class="cls-7" d="M60.53,147.93a2,2,0,0,1-.69-1.28,11.72,11.72,0,0,1-.07-1.39c0-.41,0-.87.07-1.38a1.92,1.92,0,0,1,.69-1.27,2.19,2.19,0,0,1,1.42-.47,2.29,2.29,0,0,1,1.44.45,1.74,1.74,0,0,1,.68,1.14l0,.25v0a.13.13,0,0,1,0,.08.15.15,0,0,1-.08,0l-.61,0a.13.13,0,0,1-.13-.11.45.45,0,0,0,0-.14,1.13,1.13,0,0,0-.42-.72,1.28,1.28,0,0,0-.87-.3,1.24,1.24,0,0,0-.87.32,1.39,1.39,0,0,0-.4.84,11,11,0,0,0-.06,1.23,10.74,10.74,0,0,0,.06,1.23,1.31,1.31,0,0,0,.4.84,1.24,1.24,0,0,0,.87.31,1.28,1.28,0,0,0,.89-.3,1.08,1.08,0,0,0,.4-.73v-.09c0-.09.06-.13.13-.11l.6.05c.07,0,.11.05.11.11v0a1.25,1.25,0,0,1,0,.15,1.72,1.72,0,0,1-.67,1.17,2.25,2.25,0,0,1-1.45.46A2.15,2.15,0,0,1,60.53,147.93Z"/><path class="cls-7" d="M65.52,140.94a.68.68,0,0,1-.18-.48.67.67,0,0,1,.18-.49.71.71,0,0,1,1,0,.64.64,0,0,1,.19.49.65.65,0,0,1-.19.48.71.71,0,0,1-1,0Zm0,7.24v-5.83a.11.11,0,0,1,.12-.12h.61a.11.11,0,0,1,.12.12v5.83a.11.11,0,0,1-.12.12h-.61A.11.11,0,0,1,65.57,148.18Z"/><path class="cls-7" d="M68.21,148.18V140a.11.11,0,0,1,.12-.12h.61a.11.11,0,0,1,.12.12v8.16a.11.11,0,0,1-.12.12h-.61A.11.11,0,0,1,68.21,148.18Z"/><path class="cls-7" d="M70.78,140.94a.69.69,0,0,1-.19-.48.65.65,0,0,1,.68-.68.69.69,0,0,1,.48.19.68.68,0,0,1,.19.49.65.65,0,0,1-.67.67A.68.68,0,0,1,70.78,140.94Zm0,7.24v-5.83a.11.11,0,0,1,.12-.12h.61a.11.11,0,0,1,.12.12v5.83a.11.11,0,0,1-.12.12h-.61A.11.11,0,0,1,70.82,148.18Z"/><path class="cls-7" d="M75.81,142.9H74.67s0,0,0,0v3.6a1.1,1.1,0,0,0,.22.79,1,1,0,0,0,.71.22h.21a.11.11,0,0,1,.12.12v.5a.11.11,0,0,1-.12.12h-.38a1.89,1.89,0,0,1-1.18-.31,1.41,1.41,0,0,1-.41-1.19V143a0,0,0,0,0,0,0h-.6a.11.11,0,0,1-.12-.12v-.43a.11.11,0,0,1,.12-.12h.6s0,0,0,0v-1.37a.11.11,0,0,1,.12-.12h.59a.11.11,0,0,1,.12.12v1.37s0,0,0,0h1.14a.11.11,0,0,1,.12.12v.43A.11.11,0,0,1,75.81,142.9Z"/><path class="cls-7" d="M80.73,142.69a2,2,0,0,1,.54,1.46v4a.11.11,0,0,1-.12.12h-.61a.11.11,0,0,1-.12-.12v-.43s0,0,0,0,0,0,0,0a1.6,1.6,0,0,1-.67.5,2.42,2.42,0,0,1-.91.17,2.05,2.05,0,0,1-1.29-.41,1.56,1.56,0,0,1-.54-1.33,1.77,1.77,0,0,1,.62-1.46,2.64,2.64,0,0,1,1.69-.5h1.11s0,0,0,0v-.45a1.46,1.46,0,0,0-.3-1,1.17,1.17,0,0,0-.91-.35,1.31,1.31,0,0,0-.78.23.94.94,0,0,0-.37.62.12.12,0,0,1-.13.11l-.66,0a.12.12,0,0,1-.09,0,.1.1,0,0,1,0-.09,1.58,1.58,0,0,1,.65-1.12,2.31,2.31,0,0,1,1.41-.42A2,2,0,0,1,80.73,142.69ZM80,147.33a1.08,1.08,0,0,0,.44-.92v-1s0-.05,0-.05H79.32a1.67,1.67,0,0,0-1.09.32,1.05,1.05,0,0,0-.41.9,1,1,0,0,0,.31.79,1.25,1.25,0,0,0,.82.25A1.64,1.64,0,0,0,80,147.33Z"/><path class="cls-7" d="M85.19,148.18V140a.11.11,0,0,1,.12-.12h.61A.11.11,0,0,1,86,140v8.16a.11.11,0,0,1-.12.12h-.61A.11.11,0,0,1,85.19,148.18Z"/><path class="cls-7" d="M91.14,142.69a2,2,0,0,1,.55,1.46v4a.11.11,0,0,1-.12.12H91a.11.11,0,0,1-.12-.12v-.43s0,0,0,0a0,0,0,0,0,0,0,1.63,1.63,0,0,1-.68.5,2.38,2.38,0,0,1-.91.17A2.09,2.09,0,0,1,87.9,148a1.59,1.59,0,0,1-.53-1.33A1.74,1.74,0,0,1,88,145.2a2.61,2.61,0,0,1,1.68-.5h1.12s0,0,0,0v-.45a1.46,1.46,0,0,0-.31-1,1.15,1.15,0,0,0-.91-.35,1.26,1.26,0,0,0-.77.23,1,1,0,0,0-.38.62.12.12,0,0,1-.13.11l-.66,0a.12.12,0,0,1-.09,0,.1.1,0,0,1,0-.09,1.62,1.62,0,0,1,.66-1.12,2.31,2.31,0,0,1,1.41-.42A2,2,0,0,1,91.14,142.69Zm-.74,4.64a1.11,1.11,0,0,0,.44-.92v-1s0-.05,0-.05H89.73a1.68,1.68,0,0,0-1.09.32,1.08,1.08,0,0,0-.41.9,1,1,0,0,0,.31.79,1.25,1.25,0,0,0,.82.25A1.67,1.67,0,0,0,90.4,147.33Z"/><path class="cls-7" d="M98.5,142.31a.11.11,0,0,1,.06.15l-.14.62c0,.08-.06.11-.14.07a1.16,1.16,0,0,0-.42-.08h-.15a1.09,1.09,0,0,0-.87.46,1.65,1.65,0,0,0-.35,1.08v3.56a.11.11,0,0,1-.12.12h-.61a.11.11,0,0,1-.12-.12v-5.83a.11.11,0,0,1,.12-.12h.61a.11.11,0,0,1,.12.12v.78s0,0,0,0,0,0,0,0a1.7,1.7,0,0,1,.54-.71,1.33,1.33,0,0,1,.81-.26A1.25,1.25,0,0,1,98.5,142.31Z"/><path class="cls-7" d="M102.36,147.42a1.27,1.27,0,0,0,.48-.63.1.1,0,0,1,.14-.08l.55.1a.1.1,0,0,1,.08.06.28.28,0,0,1,0,.09,2,2,0,0,1-.75,1.06,2.23,2.23,0,0,1-1.31.38,2.11,2.11,0,0,1-1.42-.46,2,2,0,0,1-.69-1.26,6.32,6.32,0,0,1-.06-.7c0-.28,0-.5,0-.68v-.38a8.82,8.82,0,0,1,.05-1,1.93,1.93,0,0,1,.66-1.29,2.11,2.11,0,0,1,1.44-.49,2.16,2.16,0,0,1,1.5.52,2.1,2.1,0,0,1,.65,1.4c0,.26,0,.74,0,1.45a.11.11,0,0,1-.12.12h-3.31s0,0,0,.05c0,.24,0,.52,0,.82a1.25,1.25,0,0,0,.41.84,1.32,1.32,0,0,0,.91.31A1.28,1.28,0,0,0,102.36,147.42Zm-1.7-4.22a1.29,1.29,0,0,0-.4.83q0,.51,0,.84a0,0,0,0,0,0,0h2.53a0,0,0,0,0,0,0c0-.23,0-.51,0-.83a1.33,1.33,0,0,0-.4-.84,1.24,1.24,0,0,0-.87-.32A1.21,1.21,0,0,0,100.66,143.2Z"/><path class="cls-7" d="M107.42,142.9h-1.14a0,0,0,0,0,0,0v3.6a1.15,1.15,0,0,0,.22.79,1,1,0,0,0,.72.22h.2a.11.11,0,0,1,.12.12v.5a.11.11,0,0,1-.12.12H107a1.92,1.92,0,0,1-1.19-.31,1.44,1.44,0,0,1-.41-1.19V143s0,0,0,0h-.6a.11.11,0,0,1-.12-.12v-.43a.11.11,0,0,1,.12-.12h.6s0,0,0,0v-1.37a.11.11,0,0,1,.12-.12h.59a.11.11,0,0,1,.12.12v1.37s0,0,0,0h1.14a.11.11,0,0,1,.12.12v.43A.11.11,0,0,1,107.42,142.9Z"/><path class="cls-7" d="M111.64,147.42a1.2,1.2,0,0,0,.47-.63.11.11,0,0,1,.15-.08l.55.1a.12.12,0,0,1,.08.06.14.14,0,0,1,0,.09,1.93,1.93,0,0,1-.74,1.06,2.25,2.25,0,0,1-1.31.38,2.15,2.15,0,0,1-1.43-.46,2,2,0,0,1-.68-1.26,6.32,6.32,0,0,1-.06-.7c0-.28,0-.5,0-.68v-.38a9.17,9.17,0,0,1,0-1,2,2,0,0,1,.67-1.29,2.38,2.38,0,0,1,2.93,0,2.05,2.05,0,0,1,.65,1.4c0,.26,0,.74,0,1.45a.11.11,0,0,1-.12.12h-3.31s0,0,0,.05c0,.24,0,.52,0,.82a1.26,1.26,0,0,0,.42.84,1.28,1.28,0,0,0,.9.31A1.29,1.29,0,0,0,111.64,147.42Zm-1.71-4.22a1.33,1.33,0,0,0-.4.83c0,.34,0,.62,0,.84,0,0,0,0,0,0h2.53a0,0,0,0,0,0,0c0-.23,0-.51,0-.83a1.39,1.39,0,0,0-.4-.84,1.37,1.37,0,0,0-1.76,0Z"/><path class="cls-7" d="M118.12,142.68a2.11,2.11,0,0,1,.48,1.46v4a.11.11,0,0,1-.12.12h-.61a.11.11,0,0,1-.12-.12v-3.92a1.5,1.5,0,0,0-.32-1,1.15,1.15,0,0,0-.89-.37,1.18,1.18,0,0,0-.91.38,1.48,1.48,0,0,0-.34,1v3.9a.11.11,0,0,1-.12.12h-.61a.11.11,0,0,1-.12-.12v-5.83a.11.11,0,0,1,.12-.12h.61a.11.11,0,0,1,.12.12v.47s0,0,0,0a0,0,0,0,0,0,0,1.61,1.61,0,0,1,1.44-.69A1.74,1.74,0,0,1,118.12,142.68Z"/><path class="cls-7" d="M120.78,147.93a2,2,0,0,1-.69-1.28,11.72,11.72,0,0,1-.07-1.39c0-.41,0-.87.07-1.38a1.92,1.92,0,0,1,.69-1.27,2.19,2.19,0,0,1,1.42-.47,2.29,2.29,0,0,1,1.44.45,1.74,1.74,0,0,1,.68,1.14l0,.25v0a.13.13,0,0,1,0,.08.15.15,0,0,1-.08,0l-.61,0a.13.13,0,0,1-.13-.11.45.45,0,0,0,0-.14,1.13,1.13,0,0,0-.42-.72,1.28,1.28,0,0,0-.87-.3,1.24,1.24,0,0,0-.87.32,1.39,1.39,0,0,0-.4.84,11,11,0,0,0-.06,1.23,10.74,10.74,0,0,0,.06,1.23,1.31,1.31,0,0,0,.4.84,1.24,1.24,0,0,0,.87.31,1.28,1.28,0,0,0,.89-.3,1.08,1.08,0,0,0,.4-.73v-.09c0-.09.06-.13.13-.11l.6.05c.07,0,.11.05.11.11v0a1.25,1.25,0,0,1,0,.15,1.72,1.72,0,0,1-.67,1.17,2.25,2.25,0,0,1-1.45.46A2.15,2.15,0,0,1,120.78,147.93Z"/><path class="cls-7" d="M125.77,140.94a.68.68,0,0,1-.18-.48.67.67,0,0,1,.18-.49.71.71,0,0,1,1,0,.64.64,0,0,1,.19.49.65.65,0,0,1-.19.48.71.71,0,0,1-1,0Zm0,7.24v-5.83a.11.11,0,0,1,.12-.12h.61a.11.11,0,0,1,.12.12v5.83a.11.11,0,0,1-.12.12h-.61A.11.11,0,0,1,125.82,148.18Z"/><path class="cls-7" d="M129.09,147.93a2,2,0,0,1-.68-1.28,11.5,11.5,0,0,1-.07-1.39,10.83,10.83,0,0,1,.07-1.37,2,2,0,0,1,.68-1.28,2.46,2.46,0,0,1,2.89,0,2,2,0,0,1,.68,1.28,11.31,11.31,0,0,1,.07,1.37,11.69,11.69,0,0,1-.07,1.39,2,2,0,0,1-.68,1.28,2.46,2.46,0,0,1-2.89,0Zm2.31-.59a1.34,1.34,0,0,0,.43-.85c0-.29,0-.7,0-1.22s0-.94,0-1.23a1.26,1.26,0,0,0-.42-.84,1.23,1.23,0,0,0-.88-.32,1.2,1.2,0,0,0-.87.32,1.26,1.26,0,0,0-.42.84,10,10,0,0,0-.05,1.23,9.78,9.78,0,0,0,.05,1.22,1.23,1.23,0,0,0,1.29,1.16A1.24,1.24,0,0,0,131.4,147.34ZM130,141.4a.1.1,0,0,1,0-.1l.73-1.31a.17.17,0,0,1,.14-.09h.52a.1.1,0,0,1,.09,0,.15.15,0,0,1,0,.11l-.83,1.3a.17.17,0,0,1-.14.09h-.41A.11.11,0,0,1,130,141.4Z"/><path class="cls-7" d="M137.87,142.68a2.11,2.11,0,0,1,.49,1.46v4a.11.11,0,0,1-.12.12h-.62a.11.11,0,0,1-.12-.12v-3.92a1.45,1.45,0,0,0-.32-1,1.26,1.26,0,0,0-1.79,0,1.44,1.44,0,0,0-.35,1v3.9a.11.11,0,0,1-.12.12h-.61a.11.11,0,0,1-.12-.12v-5.83a.11.11,0,0,1,.12-.12h.61a.11.11,0,0,1,.12.12v.47s0,0,0,0a0,0,0,0,0,0,0,1.64,1.64,0,0,1,1.44-.69A1.72,1.72,0,0,1,137.87,142.68Z"/><path class="cls-7" d="M142.06,150.7v-.6a.11.11,0,0,1,.12-.12h0a1.28,1.28,0,0,0,.65-.14,1,1,0,0,0,.4-.47,5.21,5.21,0,0,0,.33-1s0,0,0-.07l-1.79-5.91v0c0-.07,0-.1.12-.1h.65a.13.13,0,0,1,.13.11l1.31,4.79s0,0,0,0l0,0,1.3-4.79a.13.13,0,0,1,.14-.11h.63a.1.1,0,0,1,.09,0,.09.09,0,0,1,0,.09l-2,6.47a5.2,5.2,0,0,1-.47,1.19,1.3,1.3,0,0,1-.59.53,2.63,2.63,0,0,1-1,.15h-.16Z"/><path class="cls-7" d="M149.71,148.18V140a.11.11,0,0,1,.12-.12h.61a.11.11,0,0,1,.12.12v8.16a.11.11,0,0,1-.12.12h-.61A.11.11,0,0,1,149.71,148.18Z"/><path class="cls-7" d="M155.67,142.69a2,2,0,0,1,.54,1.46v4a.11.11,0,0,1-.12.12h-.61a.11.11,0,0,1-.12-.12v-.43s0,0,0,0a0,0,0,0,0,0,0,1.67,1.67,0,0,1-.67.5,2.47,2.47,0,0,1-.92.17,2.09,2.09,0,0,1-1.29-.41,1.59,1.59,0,0,1-.53-1.33,1.77,1.77,0,0,1,.62-1.46,2.61,2.61,0,0,1,1.68-.5h1.12s.05,0,.05,0v-.45a1.41,1.41,0,0,0-.31-1,1.13,1.13,0,0,0-.9-.35,1.27,1.27,0,0,0-.78.23.94.94,0,0,0-.37.62.13.13,0,0,1-.14.11l-.66,0a.12.12,0,0,1-.09,0,.09.09,0,0,1,0-.09,1.58,1.58,0,0,1,.65-1.12,2.31,2.31,0,0,1,1.41-.42A2,2,0,0,1,155.67,142.69Zm-.75,4.64a1.11,1.11,0,0,0,.44-.92v-1s0-.05-.05-.05h-1.06a1.7,1.7,0,0,0-1.09.32,1.08,1.08,0,0,0-.41.9,1,1,0,0,0,.32.79,1.23,1.23,0,0,0,.81.25A1.67,1.67,0,0,0,154.92,147.33Z"/><path class="cls-7" d="M163,142.31a.14.14,0,0,1,.06.15l-.15.62c0,.08-.05.11-.14.07a1.16,1.16,0,0,0-.42-.08h-.15a1.09,1.09,0,0,0-.87.46,1.71,1.71,0,0,0-.35,1.08v3.56a.11.11,0,0,1-.12.12h-.61a.11.11,0,0,1-.12-.12v-5.83a.11.11,0,0,1,.12-.12h.61a.11.11,0,0,1,.12.12v.78s0,0,0,0,0,0,0,0a1.79,1.79,0,0,1,.54-.71,1.34,1.34,0,0,1,.82-.26A1.31,1.31,0,0,1,163,142.31Z"/><path class="cls-7" d="M166.88,147.42a1.27,1.27,0,0,0,.48-.63.1.1,0,0,1,.14-.08l.55.1a.1.1,0,0,1,.08.06.14.14,0,0,1,0,.09,2,2,0,0,1-.75,1.06,2.22,2.22,0,0,1-1.3.38,2.14,2.14,0,0,1-1.43-.46,2,2,0,0,1-.69-1.26,6.32,6.32,0,0,1-.06-.7c0-.28,0-.5,0-.68v-.38a8.82,8.82,0,0,1,0-1,1.94,1.94,0,0,1,.67-1.29,2.09,2.09,0,0,1,1.43-.49,2.12,2.12,0,0,1,1.5.52,2.1,2.1,0,0,1,.65,1.4c0,.26,0,.74,0,1.45a.11.11,0,0,1-.12.12H164.8s-.05,0-.05.05c0,.24,0,.52,0,.82a1.3,1.3,0,0,0,.41.84,1.32,1.32,0,0,0,.91.31A1.28,1.28,0,0,0,166.88,147.42Zm-1.7-4.22a1.29,1.29,0,0,0-.4.83q0,.51,0,.84a0,0,0,0,0,.05,0h2.53s0,0,0,0a6.64,6.64,0,0,0,0-.83,1.33,1.33,0,0,0-.4-.84,1.24,1.24,0,0,0-.87-.32A1.21,1.21,0,0,0,165.18,143.2Z"/><path class="cls-7" d="M170.29,147.93a2,2,0,0,1-.69-1.28,11.72,11.72,0,0,1-.07-1.39c0-.41,0-.87.07-1.38a1.92,1.92,0,0,1,.69-1.27,2.19,2.19,0,0,1,1.42-.47,2.29,2.29,0,0,1,1.44.45,1.74,1.74,0,0,1,.68,1.14l0,.25v0a.13.13,0,0,1,0,.08l-.08,0-.61,0A.13.13,0,0,1,173,144a.45.45,0,0,0,0-.14,1.13,1.13,0,0,0-.42-.72,1.28,1.28,0,0,0-.87-.3,1.24,1.24,0,0,0-.87.32,1.39,1.39,0,0,0-.4.84,11,11,0,0,0-.06,1.23,10.74,10.74,0,0,0,.06,1.23,1.31,1.31,0,0,0,.4.84,1.24,1.24,0,0,0,.87.31,1.28,1.28,0,0,0,.89-.3,1.08,1.08,0,0,0,.4-.73v-.09c0-.09.06-.13.13-.11l.6.05c.07,0,.11.05.11.11v0a1.25,1.25,0,0,1,0,.15,1.72,1.72,0,0,1-.67,1.17,2.25,2.25,0,0,1-1.45.46A2.15,2.15,0,0,1,170.29,147.93Z"/><path class="cls-7" d="M178.57,142.23h.61a.11.11,0,0,1,.12.12v5.83a.11.11,0,0,1-.12.12h-.61a.11.11,0,0,1-.12-.12v-.46s0,0,0,0l0,0a1.51,1.51,0,0,1-1.4.69,1.89,1.89,0,0,1-1.33-.48,1.83,1.83,0,0,1-.51-1.39v-4.17a.11.11,0,0,1,.12-.12h.61a.11.11,0,0,1,.12.12v4a1.45,1.45,0,0,0,.31,1,1.13,1.13,0,0,0,.88.35,1.16,1.16,0,0,0,.92-.37,1.51,1.51,0,0,0,.34-1v-3.9A.11.11,0,0,1,178.57,142.23Z"/><path class="cls-7" d="M185.38,145.21a7.56,7.56,0,0,1-.12,1.43,2.34,2.34,0,0,1-.68,1.32,1.85,1.85,0,0,1-1.29.43,1.8,1.8,0,0,1-.81-.17,1.33,1.33,0,0,1-.51-.49s0,0,0,0,0,0,0,0v2.77a.11.11,0,0,1-.12.12h-.61a.11.11,0,0,1-.12-.12v-8.16a.11.11,0,0,1,.12-.12h.61a.11.11,0,0,1,.12.12v.46s0,0,0,0a0,0,0,0,0,0,0,1.5,1.5,0,0,1,1.38-.68,1.73,1.73,0,0,1,1.21.4,2.49,2.49,0,0,1,.67,1.29A6,6,0,0,1,185.38,145.21Zm-.86.06a4.93,4.93,0,0,0-.18-1.5,1.53,1.53,0,0,0-.43-.67,1.07,1.07,0,0,0-.72-.23,1,1,0,0,0-.68.23,1.43,1.43,0,0,0-.4.66,4.92,4.92,0,0,0-.18,1.51,4.48,4.48,0,0,0,.2,1.54,1.47,1.47,0,0,0,.38.63,1,1,0,0,0,.65.21,1.15,1.15,0,0,0,1.13-.8A4.63,4.63,0,0,0,184.52,145.27Z"/><path class="cls-7" d="M189.65,147.42a1.2,1.2,0,0,0,.47-.63.11.11,0,0,1,.15-.08l.55.1a.12.12,0,0,1,.08.06.14.14,0,0,1,0,.09,1.93,1.93,0,0,1-.74,1.06,2.25,2.25,0,0,1-1.31.38,2.15,2.15,0,0,1-1.43-.46,2,2,0,0,1-.68-1.26,6.32,6.32,0,0,1-.06-.7c0-.28,0-.5,0-.68v-.38a9.17,9.17,0,0,1,0-1,2,2,0,0,1,.67-1.29,2.38,2.38,0,0,1,2.93,0,2.05,2.05,0,0,1,.65,1.4c0,.26,0,.74,0,1.45a.11.11,0,0,1-.12.12h-3.31s0,0,0,.05c0,.24,0,.52,0,.82a1.26,1.26,0,0,0,.42.84,1.28,1.28,0,0,0,.9.31A1.29,1.29,0,0,0,189.65,147.42Zm-1.71-4.22a1.33,1.33,0,0,0-.4.83c0,.34,0,.62,0,.84,0,0,0,0,0,0h2.53a0,0,0,0,0,.05,0c0-.23,0-.51-.05-.83a1.39,1.39,0,0,0-.4-.84,1.37,1.37,0,0,0-1.76,0Z"/><path class="cls-7" d="M195.32,142.31a.14.14,0,0,1,.06.15l-.15.62c0,.08,0,.11-.14.07a1.16,1.16,0,0,0-.42-.08h-.14a1.1,1.1,0,0,0-.88.46,1.71,1.71,0,0,0-.35,1.08v3.56a.11.11,0,0,1-.12.12h-.61a.11.11,0,0,1-.12-.12v-5.83a.11.11,0,0,1,.12-.12h.61a.11.11,0,0,1,.12.12v.78s0,0,0,0,0,0,0,0a1.81,1.81,0,0,1,.55-.71,1.39,1.39,0,0,1,1.42-.12Z"/><path class="cls-7" d="M199.82,142.69a2,2,0,0,1,.55,1.46v4a.11.11,0,0,1-.12.12h-.61a.11.11,0,0,1-.12-.12v-.43s0,0,0,0a0,0,0,0,0,0,0,1.67,1.67,0,0,1-.67.5,2.47,2.47,0,0,1-.92.17,2.09,2.09,0,0,1-1.29-.41,1.59,1.59,0,0,1-.53-1.33,1.77,1.77,0,0,1,.62-1.46,2.61,2.61,0,0,1,1.68-.5h1.12s.05,0,.05,0v-.45a1.41,1.41,0,0,0-.31-1,1.13,1.13,0,0,0-.9-.35,1.27,1.27,0,0,0-.78.23,1,1,0,0,0-.38.62c0,.07-.05.11-.13.11l-.66,0a.12.12,0,0,1-.09,0,.13.13,0,0,1,0-.09,1.62,1.62,0,0,1,.66-1.12,2.31,2.31,0,0,1,1.41-.42A2,2,0,0,1,199.82,142.69Zm-.74,4.64a1.11,1.11,0,0,0,.44-.92v-1s0-.05-.05-.05h-1.06a1.68,1.68,0,0,0-1.09.32,1.08,1.08,0,0,0-.41.9,1,1,0,0,0,.32.79,1.23,1.23,0,0,0,.81.25A1.67,1.67,0,0,0,199.08,147.33Z"/><path class="cls-7" d="M202.52,147.93a2,2,0,0,1-.69-1.28c0-.41-.07-.88-.07-1.39s0-.87.07-1.38a2,2,0,0,1,.69-1.27,2.2,2.2,0,0,1,1.43-.47,2.28,2.28,0,0,1,1.43.45,1.74,1.74,0,0,1,.68,1.14l0,.25v0a.13.13,0,0,1,0,.08l-.07,0-.62,0a.13.13,0,0,1-.13-.11.45.45,0,0,0,0-.14,1.16,1.16,0,0,0-.41-.72,1.31,1.31,0,0,0-.87-.3,1.21,1.21,0,0,0-.87.32,1.35,1.35,0,0,0-.41.84,11,11,0,0,0-.06,1.23,10.74,10.74,0,0,0,.06,1.23,1.27,1.27,0,0,0,.41.84,1.2,1.2,0,0,0,.87.31,1.27,1.27,0,0,0,.88-.3,1.08,1.08,0,0,0,.4-.73v-.09c0-.09.06-.13.13-.11l.6.05c.08,0,.11.05.11.11v0a1.25,1.25,0,0,1,0,.15,1.72,1.72,0,0,1-.67,1.17,2.24,2.24,0,0,1-1.44.46A2.16,2.16,0,0,1,202.52,147.93Z"/><path class="cls-7" d="M207.52,140.94a.65.65,0,0,1-.19-.48.64.64,0,0,1,.19-.49.66.66,0,0,1,.48-.19.69.69,0,0,1,.48.19.64.64,0,0,1,.19.49.65.65,0,0,1-.19.48.69.69,0,0,1-.48.19A.66.66,0,0,1,207.52,140.94Zm0,7.24v-5.83a.11.11,0,0,1,.12-.12h.61a.11.11,0,0,1,.12.12v5.83a.11.11,0,0,1-.12.12h-.61A.11.11,0,0,1,207.56,148.18Z"/><path class="cls-7" d="M210.83,147.93a2,2,0,0,1-.68-1.28,11.5,11.5,0,0,1-.07-1.39,10.83,10.83,0,0,1,.07-1.37,2,2,0,0,1,.68-1.28,2.46,2.46,0,0,1,2.89,0,2,2,0,0,1,.68,1.28,9.56,9.56,0,0,1,.07,1.37,9.87,9.87,0,0,1-.07,1.39,2,2,0,0,1-.68,1.28,2.46,2.46,0,0,1-2.89,0Zm2.31-.59a1.34,1.34,0,0,0,.43-.85c0-.29.05-.7.05-1.22s0-.94-.05-1.23a1.3,1.3,0,0,0-.41-.84,1.25,1.25,0,0,0-.89-.32,1.2,1.2,0,0,0-.87.32,1.36,1.36,0,0,0-.42.84c0,.29,0,.7,0,1.23s0,.93,0,1.22a1.32,1.32,0,0,0,.41.85,1.28,1.28,0,0,0,.88.31A1.24,1.24,0,0,0,213.14,147.34Zm-1.39-5.94a.08.08,0,0,1,0-.1l.73-1.31a.17.17,0,0,1,.14-.09h.52a.1.1,0,0,1,.09,0,.12.12,0,0,1,0,.11l-.83,1.3a.16.16,0,0,1-.14.09h-.41C211.79,141.44,211.76,141.43,211.75,141.4Z"/><path class="cls-7" d="M219.61,142.68a2.06,2.06,0,0,1,.49,1.46v4a.11.11,0,0,1-.12.12h-.61a.11.11,0,0,1-.12-.12v-3.92a1.45,1.45,0,0,0-.33-1,1.13,1.13,0,0,0-.89-.37,1.17,1.17,0,0,0-.9.38,1.44,1.44,0,0,0-.34,1v3.9a.11.11,0,0,1-.12.12h-.62a.11.11,0,0,1-.12-.12v-5.83a.11.11,0,0,1,.12-.12h.62a.11.11,0,0,1,.12.12v.47s0,0,0,0,0,0,0,0a1.61,1.61,0,0,1,1.44-.69A1.7,1.7,0,0,1,219.61,142.68Z"/><path class="cls-7" d="M227.51,139.9h.61a.11.11,0,0,1,.12.12v8.16a.11.11,0,0,1-.12.12h-.61a.11.11,0,0,1-.12-.12v-.48s0,0,0,0l0,0a1.52,1.52,0,0,1-1.39.71,1.75,1.75,0,0,1-1.21-.4,2.53,2.53,0,0,1-.66-1.28,5.75,5.75,0,0,1-.16-1.39,7.2,7.2,0,0,1,.13-1.43,2.43,2.43,0,0,1,.67-1.33,1.89,1.89,0,0,1,1.29-.42,1.75,1.75,0,0,1,.82.17,1.34,1.34,0,0,1,.51.52s0,0,0,0,0,0,0,0V140A.11.11,0,0,1,227.51,139.9Zm-.14,5.37a5.25,5.25,0,0,0-.19-1.55,1.5,1.5,0,0,0-.39-.62,1,1,0,0,0-.66-.22,1.16,1.16,0,0,0-1.13.81,4.66,4.66,0,0,0-.22,1.58,4.52,4.52,0,0,0,.19,1.5,1.42,1.42,0,0,0,.43.67,1.07,1.07,0,0,0,.72.23,1,1,0,0,0,.67-.23,1.51,1.51,0,0,0,.4-.66A5,5,0,0,0,227.37,145.27Z"/><path class="cls-7" d="M232.76,147.42a1.27,1.27,0,0,0,.48-.63.1.1,0,0,1,.14-.08l.55.1a.1.1,0,0,1,.08.06.28.28,0,0,1,0,.09,2,2,0,0,1-.75,1.06,2.23,2.23,0,0,1-1.31.38,2.11,2.11,0,0,1-1.42-.46,2,2,0,0,1-.69-1.26,6.32,6.32,0,0,1-.06-.7c0-.28,0-.5,0-.68v-.38a8.82,8.82,0,0,1,.05-1,1.9,1.9,0,0,1,.67-1.29,2.09,2.09,0,0,1,1.43-.49,2.16,2.16,0,0,1,1.5.52,2.1,2.1,0,0,1,.65,1.4c0,.26,0,.74,0,1.45a.11.11,0,0,1-.12.12h-3.31s-.05,0-.05.05c0,.24,0,.52,0,.82a1.25,1.25,0,0,0,.41.84,1.32,1.32,0,0,0,.91.31A1.28,1.28,0,0,0,232.76,147.42Zm-1.7-4.22a1.29,1.29,0,0,0-.4.83q0,.51,0,.84a0,0,0,0,0,.05,0h2.53a0,0,0,0,0,0,0c0-.23,0-.51,0-.83a1.33,1.33,0,0,0-.4-.84,1.24,1.24,0,0,0-.87-.32A1.21,1.21,0,0,0,231.06,143.2Z"/><path class="cls-7" d="M240.8,147.42a1.27,1.27,0,0,0,.48-.63.1.1,0,0,1,.14-.08l.55.1a.1.1,0,0,1,.08.06.28.28,0,0,1,0,.09,2,2,0,0,1-.75,1.06,2.23,2.23,0,0,1-1.31.38,2.11,2.11,0,0,1-1.42-.46,2,2,0,0,1-.69-1.26,6.32,6.32,0,0,1-.06-.7c0-.28,0-.5,0-.68v-.38a8.82,8.82,0,0,1,.05-1,1.93,1.93,0,0,1,.66-1.29,2.11,2.11,0,0,1,1.44-.49,2.16,2.16,0,0,1,1.5.52,2.1,2.1,0,0,1,.65,1.4c0,.26,0,.74,0,1.45a.11.11,0,0,1-.12.12h-3.31s-.05,0-.05.05c0,.24,0,.52,0,.82a1.25,1.25,0,0,0,.41.84,1.32,1.32,0,0,0,.91.31A1.28,1.28,0,0,0,240.8,147.42Zm-1.7-4.22a1.29,1.29,0,0,0-.4.83q0,.51,0,.84a0,0,0,0,0,.05,0h2.53a0,0,0,0,0,.05,0c0-.23,0-.51-.05-.83a1.33,1.33,0,0,0-.4-.84,1.24,1.24,0,0,0-.87-.32A1.21,1.21,0,0,0,239.1,143.2Z"/><path class="cls-7" d="M243.83,147.92a1.41,1.41,0,0,1-.56-1.14v-.11a.11.11,0,0,1,.12-.12H244a.11.11,0,0,1,.12.12v.09a.83.83,0,0,0,.34.66,1.33,1.33,0,0,0,.88.28,1.27,1.27,0,0,0,.85-.27.89.89,0,0,0,.33-.7.71.71,0,0,0-.18-.5,1.25,1.25,0,0,0-.45-.33,6.66,6.66,0,0,0-.73-.27,6.89,6.89,0,0,1-.94-.39,1.86,1.86,0,0,1-.63-.53,1.42,1.42,0,0,1-.25-.87,1.51,1.51,0,0,1,.54-1.22,2.14,2.14,0,0,1,1.42-.45,2.17,2.17,0,0,1,1.46.47,1.49,1.49,0,0,1,.55,1.2v0a.11.11,0,0,1-.12.12h-.55a.11.11,0,0,1-.12-.12v-.05a.83.83,0,0,0-.33-.67,1.37,1.37,0,0,0-.89-.27,1.23,1.23,0,0,0-.83.26.81.81,0,0,0-.32.66.74.74,0,0,0,.32.64,4.89,4.89,0,0,0,1,.45,6.93,6.93,0,0,1,1,.39,1.89,1.89,0,0,1,.66.53,1.38,1.38,0,0,1,.27.88,1.55,1.55,0,0,1-.55,1.23,2.27,2.27,0,0,1-1.48.45A2.32,2.32,0,0,1,243.83,147.92Z"/><path class="cls-7" d="M251,142.9h-1.14s0,0,0,0v3.6a1.1,1.1,0,0,0,.22.79,1,1,0,0,0,.71.22h.21a.11.11,0,0,1,.12.12v.5a.11.11,0,0,1-.12.12h-.38a1.89,1.89,0,0,1-1.18-.31,1.41,1.41,0,0,1-.41-1.19V143a0,0,0,0,0-.05,0h-.6a.11.11,0,0,1-.12-.12v-.43a.11.11,0,0,1,.12-.12h.6s.05,0,.05,0v-1.37a.11.11,0,0,1,.12-.12h.59a.11.11,0,0,1,.12.12v1.37s0,0,0,0H251a.11.11,0,0,1,.12.12v.43A.11.11,0,0,1,251,142.9Z"/><path class="cls-7" d="M255.9,142.69a2,2,0,0,1,.54,1.46v4a.11.11,0,0,1-.12.12h-.61a.11.11,0,0,1-.12-.12v-.43s0,0,0,0,0,0,0,0a1.6,1.6,0,0,1-.67.5,2.42,2.42,0,0,1-.91.17,2.05,2.05,0,0,1-1.29-.41,1.56,1.56,0,0,1-.54-1.33,1.77,1.77,0,0,1,.62-1.46,2.64,2.64,0,0,1,1.69-.5h1.11s.05,0,.05,0v-.45a1.46,1.46,0,0,0-.3-1,1.17,1.17,0,0,0-.91-.35,1.31,1.31,0,0,0-.78.23.94.94,0,0,0-.37.62.12.12,0,0,1-.13.11l-.66,0a.12.12,0,0,1-.09,0,.1.1,0,0,1,0-.09,1.58,1.58,0,0,1,.65-1.12,2.31,2.31,0,0,1,1.41-.42A2,2,0,0,1,255.9,142.69Zm-.75,4.64a1.08,1.08,0,0,0,.44-.92v-1s0-.05-.05-.05h-1a1.67,1.67,0,0,0-1.09.32,1.05,1.05,0,0,0-.41.9,1,1,0,0,0,.31.79,1.25,1.25,0,0,0,.82.25A1.64,1.64,0,0,0,255.15,147.33Z"/><path class="cls-7" d="M125.11,155.33a.73.73,0,0,1,0-1,.66.66,0,0,1,.49-.19.65.65,0,0,1,.48.19.7.7,0,0,1,0,1,.69.69,0,0,1-1,0Zm0,7.25v-5.83a.11.11,0,0,1,.12-.12h.61a.11.11,0,0,1,.12.12v5.83a.11.11,0,0,1-.12.12h-.61A.11.11,0,0,1,125.16,162.58Z"/><path class="cls-7" d="M131.51,157.08a2.11,2.11,0,0,1,.49,1.46v4a.11.11,0,0,1-.12.12h-.62a.11.11,0,0,1-.12-.12v-3.92a1.45,1.45,0,0,0-.32-1,1.11,1.11,0,0,0-.89-.37,1.16,1.16,0,0,0-.9.38,1.44,1.44,0,0,0-.35,1v3.9a.11.11,0,0,1-.12.12H128a.11.11,0,0,1-.12-.12v-5.83a.11.11,0,0,1,.12-.12h.61a.11.11,0,0,1,.12.12v.47s0,0,0,0a0,0,0,0,0,0,0,1.64,1.64,0,0,1,1.44-.69A1.72,1.72,0,0,1,131.51,157.08Z"/><path class="cls-7" d="M135,155.3a1.75,1.75,0,0,0-.22,1v.3a0,0,0,0,0,0,0H136a.11.11,0,0,1,.12.12v.47a.11.11,0,0,1-.12.12h-1.13s0,0,0,0v5.19a.11.11,0,0,1-.12.12h-.61a.11.11,0,0,1-.12-.12v-5.19s0,0,0,0h-.63a.11.11,0,0,1-.12-.12v-.47a.11.11,0,0,1,.12-.12h.63s0,0,0,0v-.33a2.36,2.36,0,0,1,.4-1.53,1.82,1.82,0,0,1,1.4-.45H136a.11.11,0,0,1,.12.12v.49a.11.11,0,0,1-.12.12h-.21A.88.88,0,0,0,135,155.3Z"/><path class="cls-7" d="M137.74,162.32a2,2,0,0,1-.68-1.27,11.56,11.56,0,0,1-.07-1.4,10.77,10.77,0,0,1,.07-1.36,2,2,0,0,1,.68-1.28,2.42,2.42,0,0,1,2.89,0,2,2,0,0,1,.68,1.28,9.49,9.49,0,0,1,.07,1.36,9.94,9.94,0,0,1-.07,1.4,1.9,1.9,0,0,1-.68,1.27,2.42,2.42,0,0,1-2.89,0Zm2.31-.58a1.37,1.37,0,0,0,.43-.85c0-.29.05-.7.05-1.22s0-.94-.05-1.23a1.3,1.3,0,0,0-.41-.84,1.25,1.25,0,0,0-.89-.32,1.2,1.2,0,0,0-.87.32,1.36,1.36,0,0,0-.42.84c0,.29,0,.7,0,1.23s0,.93,0,1.22a1.35,1.35,0,0,0,.41.85,1.28,1.28,0,0,0,.88.31A1.24,1.24,0,0,0,140.05,161.74Z"/><path class="cls-7" d="M145.77,156.71a.11.11,0,0,1,.06.15l-.14.62c0,.08-.06.11-.15.07a1.08,1.08,0,0,0-.42-.08H145a1.12,1.12,0,0,0-.88.46,1.68,1.68,0,0,0-.34,1.08v3.56a.11.11,0,0,1-.12.12H143a.11.11,0,0,1-.12-.12v-5.83a.11.11,0,0,1,.12-.12h.62a.11.11,0,0,1,.12.12v.78s0,0,0,0a0,0,0,0,0,0,0,1.81,1.81,0,0,1,.55-.71,1.33,1.33,0,0,1,.81-.26A1.28,1.28,0,0,1,145.77,156.71Z"/><path class="cls-7" d="M153.63,157.08a2.23,2.23,0,0,1,.46,1.47v4a.11.11,0,0,1-.12.12h-.6a.11.11,0,0,1-.12-.12v-3.91a1.53,1.53,0,0,0-.32-1,1,1,0,0,0-.83-.37,1.1,1.1,0,0,0-.87.37,1.41,1.41,0,0,0-.33,1v3.93a.11.11,0,0,1-.12.12h-.62a.11.11,0,0,1-.12-.12v-3.91a1.52,1.52,0,0,0-.31-1,1.05,1.05,0,0,0-.84-.37,1.06,1.06,0,0,0-.86.37,1.41,1.41,0,0,0-.33,1v3.93a.11.11,0,0,1-.12.12H147a.11.11,0,0,1-.12-.12v-5.83a.11.11,0,0,1,.12-.12h.61a.11.11,0,0,1,.12.12v.42s0,0,0,0a0,0,0,0,0,0,0,1.55,1.55,0,0,1,.62-.48,2.06,2.06,0,0,1,.79-.15,1.73,1.73,0,0,1,.92.24,1.45,1.45,0,0,1,.6.67s0,0,.06,0a1.54,1.54,0,0,1,.67-.69,2,2,0,0,1,.94-.22A1.61,1.61,0,0,1,153.63,157.08Z"/><path class="cls-7" d="M159.15,157.09a2,2,0,0,1,.54,1.46v4a.11.11,0,0,1-.12.12H159a.11.11,0,0,1-.12-.12v-.43a.05.05,0,0,0,0,0l0,0a1.67,1.67,0,0,1-.67.5,2.42,2.42,0,0,1-.91.17,2.05,2.05,0,0,1-1.29-.41,1.56,1.56,0,0,1-.54-1.33,1.77,1.77,0,0,1,.62-1.46,2.62,2.62,0,0,1,1.69-.5h1.11s.05,0,.05,0v-.45a1.41,1.41,0,0,0-.31-1,1.13,1.13,0,0,0-.9-.35,1.31,1.31,0,0,0-.78.23.92.92,0,0,0-.37.62.13.13,0,0,1-.14.11l-.66,0a.12.12,0,0,1-.09,0,.1.1,0,0,1,0-.09,1.56,1.56,0,0,1,.65-1.12,2.32,2.32,0,0,1,1.41-.43A2,2,0,0,1,159.15,157.09Zm-.75,4.64a1.11,1.11,0,0,0,.44-.92v-1s0,0-.05,0h-1a1.77,1.77,0,0,0-1.1.31,1.1,1.1,0,0,0-.4.91,1,1,0,0,0,.31.79,1.24,1.24,0,0,0,.81.25A1.74,1.74,0,0,0,158.4,161.73Z"/><path class="cls-7" d="M161.84,162.32a2,2,0,0,1-.68-1.27,11.64,11.64,0,0,1-.08-1.4c0-.4,0-.86.08-1.38a1.93,1.93,0,0,1,.68-1.26,2.15,2.15,0,0,1,1.43-.48,2.27,2.27,0,0,1,1.43.46,1.68,1.68,0,0,1,.68,1.14l0,.25v0a.09.09,0,0,1,0,.07.11.11,0,0,1-.08,0l-.61,0a.13.13,0,0,1-.14-.11.45.45,0,0,0,0-.14,1.16,1.16,0,0,0-.41-.72,1.31,1.31,0,0,0-.87-.3,1.24,1.24,0,0,0-.87.32,1.33,1.33,0,0,0-.4.84,10.86,10.86,0,0,0-.06,1.23,10.74,10.74,0,0,0,.06,1.23,1.29,1.29,0,0,0,.4.84,1.24,1.24,0,0,0,.87.31,1.32,1.32,0,0,0,.88-.3,1,1,0,0,0,.4-.73v-.09c0-.09.06-.13.14-.11l.6.05a.1.1,0,0,1,.1.11v0a.47.47,0,0,1,0,.15,1.72,1.72,0,0,1-.67,1.17,2.22,2.22,0,0,1-1.44.46A2.13,2.13,0,0,1,161.84,162.32Z"/><path class="cls-7" d="M166.84,155.33a.68.68,0,0,1,1-1,.68.68,0,1,1-1,1Zm0,7.25v-5.83a.11.11,0,0,1,.12-.12h.61a.11.11,0,0,1,.12.12v5.83a.11.11,0,0,1-.12.12H167A.11.11,0,0,1,166.88,162.58Z"/><path class="cls-7" d="M170.16,162.32a2,2,0,0,1-.69-1.27,11.56,11.56,0,0,1-.07-1.4,10.77,10.77,0,0,1,.07-1.36,2,2,0,0,1,.68-1.28,2.42,2.42,0,0,1,2.89,0,2,2,0,0,1,.68,1.28,9.49,9.49,0,0,1,.07,1.36,9.94,9.94,0,0,1-.07,1.4,1.9,1.9,0,0,1-.68,1.27,2.16,2.16,0,0,1-1.44.48A2.12,2.12,0,0,1,170.16,162.32Zm2.31-.58a1.41,1.41,0,0,0,.42-.85c0-.29.05-.7.05-1.22s0-.94-.05-1.23a1.3,1.3,0,0,0-.41-.84,1.24,1.24,0,0,0-.88-.32,1.21,1.21,0,0,0-.88.32,1.36,1.36,0,0,0-.42.84c0,.29-.05.7-.05,1.23s0,.93.05,1.22a1.35,1.35,0,0,0,.41.85,1.29,1.29,0,0,0,.89.31A1.27,1.27,0,0,0,172.47,161.74Zm-1.4-5.94a.11.11,0,0,1,0-.11l.73-1.3a.18.18,0,0,1,.15-.09h.51a.1.1,0,0,1,.09,0,.12.12,0,0,1,0,.11l-.82,1.3a.18.18,0,0,1-.15.09h-.41A.11.11,0,0,1,171.07,155.8Z"/><path class="cls-7" d="M178.93,157.08a2.06,2.06,0,0,1,.49,1.46v4a.11.11,0,0,1-.12.12h-.61a.11.11,0,0,1-.12-.12v-3.92a1.45,1.45,0,0,0-.33-1,1.09,1.09,0,0,0-.88-.37,1.18,1.18,0,0,0-.91.38,1.44,1.44,0,0,0-.34,1v3.9a.11.11,0,0,1-.12.12h-.61a.11.11,0,0,1-.12-.12v-5.83a.11.11,0,0,1,.12-.12H176a.11.11,0,0,1,.12.12v.47s0,0,0,0,0,0,0,0a1.61,1.61,0,0,1,1.44-.69A1.7,1.7,0,0,1,178.93,157.08Z"/><path class="cls-7" d="M180.89,162.49a.71.71,0,0,1,0-1,.68.68,0,0,1,.49-.19.68.68,0,1,1,0,1.35A.68.68,0,0,1,180.89,162.49Z"/></g></g></svg>