<svg xmlns="http://www.w3.org/2000/svg" viewBox="0 0 307 199"><defs><style>.cls-1{fill:none;stroke:#00b6ed;stroke-miterlimit:10;}.cls-2{fill:#00b6ed;}.cls-3{fill:#fff;}</style></defs><title>02</title><g id="Capa_2" data-name="Capa 2"><g id="Capa_1-2" data-name="Capa 1"><rect class="cls-1" x="0.5" y="0.5" width="306" height="198"/><rect class="cls-2" x="0.5" y="0.5" width="306" height="198"/><path class="cls-3" d="M55.16,76.85a.23.23,0,0,1,.07.17v.64a2.62,2.62,0,0,1-.46,1.62,6.38,6.38,0,0,1-1.34,1.28,7.73,7.73,0,0,0-1.06,1,1.52,1.52,0,0,0-.34,1,1.36,1.36,0,0,0,.4,1,1.41,1.41,0,0,0,1,.39,1.54,1.54,0,0,0,1.14-.42A1.46,1.46,0,0,0,55,82.46v-.32c0-.14.08-.22.24-.22l2.34.1a.26.26,0,0,1,.17.07.23.23,0,0,1,.07.17v.2a4.08,4.08,0,0,1-.56,2.13A3.77,3.77,0,0,1,55.72,86a5.09,5.09,0,0,1-2.31.51,4.29,4.29,0,0,1-3.07-1.07,4.11,4.11,0,0,1-.87-4.34,3.6,3.6,0,0,1,.67-1,9.92,9.92,0,0,1,1-.88,5.85,5.85,0,0,0,1-.86,1.32,1.32,0,0,0,.3-.88V77a.23.23,0,0,1,.07-.17.24.24,0,0,1,.17-.07H55A.26.26,0,0,1,55.16,76.85ZM55,72.74a1.58,1.58,0,0,1,.44,1.14A1.51,1.51,0,0,1,55,75a1.54,1.54,0,0,1-1.14.44A1.49,1.49,0,0,1,52.73,75a1.51,1.51,0,0,1-.44-1.12,1.57,1.57,0,0,1,.44-1.13,1.5,1.5,0,0,1,1.12-.45A1.58,1.58,0,0,1,55,72.74Z"/><path class="cls-3" d="M60.79,82a3.8,3.8,0,0,1-1.61-1.54,4.59,4.59,0,0,1-.57-2.32V72.54a4.52,4.52,0,0,1,.57-2.29,3.84,3.84,0,0,1,1.61-1.53,5.12,5.12,0,0,1,2.4-.54,5.3,5.3,0,0,1,2.4.53A3.93,3.93,0,0,1,67.2,70.2a4.31,4.31,0,0,1,.57,2.24v.1a.29.29,0,0,1-.07.18.21.21,0,0,1-.17.08l-2.34.1c-.16,0-.24-.07-.24-.22v-.26a1.85,1.85,0,0,0-.48-1.32,1.89,1.89,0,0,0-2.56,0,1.85,1.85,0,0,0-.48,1.32v5.86a1.78,1.78,0,0,0,.48,1.31,1.92,1.92,0,0,0,2.56,0A1.78,1.78,0,0,0,65,78.28V78c0-.14.08-.22.24-.22l2.34.1a.24.24,0,0,1,.24.24v.06a4.39,4.39,0,0,1-.57,2.26A3.79,3.79,0,0,1,65.59,82a5.17,5.17,0,0,1-2.4.53A5.12,5.12,0,0,1,60.79,82Z"/><path class="cls-3" d="M70.64,81.63a3.51,3.51,0,0,1-1.33-2.39,11.73,11.73,0,0,1-.16-2.06,11.57,11.57,0,0,1,.16-2.06,3.51,3.51,0,0,1,1.33-2.35,4.48,4.48,0,0,1,2.85-.87,4.39,4.39,0,0,1,2.81.87,3.68,3.68,0,0,1,1.33,2.35,13.21,13.21,0,0,1,0,4.1,3.63,3.63,0,0,1-1.31,2.41,4.4,4.4,0,0,1-2.83.87A4.48,4.48,0,0,1,70.64,81.63Zm3.74-1.89a1.67,1.67,0,0,0,.49-.92,15.35,15.35,0,0,0,.1-1.64,14.67,14.67,0,0,0-.1-1.62,1.54,1.54,0,0,0-.47-.91,1.36,1.36,0,0,0-.93-.33,1.31,1.31,0,0,0-.91.33,1.49,1.49,0,0,0-.47.91,9.93,9.93,0,0,0-.1,1.62,12.32,12.32,0,0,0,.08,1.64,1.57,1.57,0,0,0,.5.92,1.31,1.31,0,0,0,.92.34A1.27,1.27,0,0,0,74.38,79.74Zm-2.27-9a.21.21,0,0,1,0-.2l1.14-2a.33.33,0,0,1,.3-.16h1.92a.2.2,0,0,1,.2.09.24.24,0,0,1,0,.21l-1.48,2a.31.31,0,0,1-.28.14h-1.6C72.19,70.82,72.13,70.8,72.11,70.74Z"/><path class="cls-3" d="M91.88,72.83a4,4,0,0,1,.77,2.61V82.1a.24.24,0,0,1-.07.17.23.23,0,0,1-.17.07H90.09a.24.24,0,0,1-.24-.24V75.84a1.75,1.75,0,0,0-.33-1.11,1.1,1.1,0,0,0-.89-.41,1.13,1.13,0,0,0-.92.41,1.65,1.65,0,0,0-.34,1.09V82.1a.24.24,0,0,1-.07.17.23.23,0,0,1-.17.07H84.81a.24.24,0,0,1-.24-.24V75.84a1.75,1.75,0,0,0-.34-1.11,1.21,1.21,0,0,0-1.82,0,1.65,1.65,0,0,0-.34,1.09V82.1a.24.24,0,0,1-.07.17.23.23,0,0,1-.17.07H79.51a.24.24,0,0,1-.24-.24V72.3a.23.23,0,0,1,.07-.17.24.24,0,0,1,.17-.07h2.32a.24.24,0,0,1,.24.24v.52s0,.07,0,.08,0,0,.08,0a2.58,2.58,0,0,1,1-.73,3.35,3.35,0,0,1,2.75.14,2.61,2.61,0,0,1,1,1.07,0,0,0,0,0,.06,0s.05,0,.08-.07a2.61,2.61,0,0,1,1.12-1.07,3.29,3.29,0,0,1,1.46-.33A2.74,2.74,0,0,1,91.88,72.83Z"/><path class="cls-3" d="M95.64,81.63a3.51,3.51,0,0,1-1.33-2.39,11.73,11.73,0,0,1-.16-2.06,11.57,11.57,0,0,1,.16-2.06,3.51,3.51,0,0,1,1.33-2.35,4.48,4.48,0,0,1,2.85-.87,4.39,4.39,0,0,1,2.81.87,3.68,3.68,0,0,1,1.33,2.35,13.21,13.21,0,0,1,0,4.1,3.63,3.63,0,0,1-1.31,2.41,4.4,4.4,0,0,1-2.83.87A4.48,4.48,0,0,1,95.64,81.63Zm3.74-1.89a1.67,1.67,0,0,0,.49-.92,15.35,15.35,0,0,0,.1-1.64,14.67,14.67,0,0,0-.1-1.62,1.6,1.6,0,0,0-.47-.91,1.36,1.36,0,0,0-.93-.33,1.31,1.31,0,0,0-.91.33,1.49,1.49,0,0,0-.47.91,9.93,9.93,0,0,0-.1,1.62,12.32,12.32,0,0,0,.08,1.64,1.57,1.57,0,0,0,.5.92,1.31,1.31,0,0,0,.92.34A1.27,1.27,0,0,0,99.38,79.74Z"/><path class="cls-3" d="M114.47,72.33a3.65,3.65,0,0,1,1.47,1.2,3.06,3.06,0,0,1,.53,1.75V82.1a.24.24,0,0,1-.07.17.23.23,0,0,1-.17.07h-2.34a.24.24,0,0,1-.24-.24v-.56a.1.1,0,0,0,0-.08.06.06,0,0,0-.08,0,2.78,2.78,0,0,1-2.36,1,3.57,3.57,0,0,1-2.27-.7,2.75,2.75,0,0,1-.91-2.34q0-3.25,4.08-3.26h1.48a.09.09,0,0,0,.1-.1v-.46a1.33,1.33,0,0,0-.35-1,1.27,1.27,0,0,0-1-.36,1.42,1.42,0,0,0-.8.22.92.92,0,0,0-.4.6.26.26,0,0,1-.28.2l-2.42-.14a.24.24,0,0,1-.17-.06.14.14,0,0,1,0-.16,3,3,0,0,1,1.25-2.23,4.64,4.64,0,0,1,2.85-.85A5.21,5.21,0,0,1,114.47,72.33ZM113.17,80a1.2,1.2,0,0,0,.48-1v-.84a.09.09,0,0,0-.1-.1h-1.12a1.88,1.88,0,0,0-1.16.32,1.1,1.1,0,0,0-.42.92,1,1,0,0,0,.32.8,1.2,1.2,0,0,0,.84.28A1.78,1.78,0,0,0,113.17,80Z"/><path class="cls-3" d="M126.61,77.3a10.11,10.11,0,0,1-.18,2.08,4.46,4.46,0,0,1-1.09,2.32,2.81,2.81,0,0,1-2.11.8,3.21,3.21,0,0,1-1.18-.19,2,2,0,0,1-.88-.63s-.06-.05-.08,0a.08.08,0,0,0,0,.08v4.1A.24.24,0,0,1,121,86a.23.23,0,0,1-.17.07h-2.34a.24.24,0,0,1-.24-.24V72.3a.23.23,0,0,1,.07-.17.24.24,0,0,1,.17-.07h2.34a.24.24,0,0,1,.24.24v.4s0,.07,0,.08,0,0,.08,0a2.65,2.65,0,0,1,2.12-.86c1.61,0,2.65,1.06,3.12,3.16A10.79,10.79,0,0,1,126.61,77.3Zm-2.82-.1a8.32,8.32,0,0,0-.16-1.72,1.76,1.76,0,0,0-.43-.85,1.13,1.13,0,0,0-.81-.31c-.62,0-1,.39-1.18,1.16a6.78,6.78,0,0,0-.16,1.72,8,8,0,0,0,.16,1.78c.17.74.56,1.1,1.18,1.1s1-.36,1.22-1.08A7.12,7.12,0,0,0,123.79,77.2Z"/><path class="cls-3" d="M134.17,72.16a.31.31,0,0,1,.12.32l-.4,2.3c0,.16-.11.21-.28.14a2.67,2.67,0,0,0-.58-.08,2.44,2.44,0,0,0-.52.06,1.52,1.52,0,0,0-1,.56,1.74,1.74,0,0,0-.4,1.16V82.1a.24.24,0,0,1-.07.17.23.23,0,0,1-.17.07h-2.34a.24.24,0,0,1-.24-.24V72.3a.23.23,0,0,1,.07-.17.24.24,0,0,1,.17-.07h2.34a.24.24,0,0,1,.24.24v.8q0,.09,0,.09s0,0,.07,0a2.16,2.16,0,0,1,2-1.22A2,2,0,0,1,134.17,72.16Z"/><path class="cls-3" d="M143.51,77.1l0,.78a.21.21,0,0,1-.24.24H138a.09.09,0,0,0-.1.1,5.07,5.07,0,0,0,.08.68,1.36,1.36,0,0,0,.49.88,1.44,1.44,0,0,0,1,.32,1.4,1.4,0,0,0,1.36-.9.26.26,0,0,1,.3-.16l2.12.42c.16,0,.21.14.16.3a3.94,3.94,0,0,1-1.45,2,4.2,4.2,0,0,1-2.49.71,4.51,4.51,0,0,1-2.83-.81,3.78,3.78,0,0,1-1.37-2.33,12.63,12.63,0,0,1-.18-2.5,9.25,9.25,0,0,1,.12-1.62,3.68,3.68,0,0,1,1.32-2.43,4.74,4.74,0,0,1,5.74.12,3.88,3.88,0,0,1,1.26,2.71C143.49,76.08,143.51,76.57,143.51,77.1Zm-5.15-2.46a1.47,1.47,0,0,0-.45.88,4.68,4.68,0,0,0-.06.76c0,.07,0,.1.1.1h2.6a.09.09,0,0,0,.1-.1,4.68,4.68,0,0,0-.06-.76,1.46,1.46,0,0,0-.44-.87,1.39,1.39,0,0,0-1.79,0Z"/><path class="cls-3" d="M152.4,72.83a3.78,3.78,0,0,1,.83,2.59V82.1a.24.24,0,0,1-.07.17.23.23,0,0,1-.17.07h-2.34a.24.24,0,0,1-.24-.24V75.82a1.7,1.7,0,0,0-.34-1.1,1.28,1.28,0,0,0-1.87,0,1.64,1.64,0,0,0-.35,1.11V82.1a.24.24,0,0,1-.07.17.23.23,0,0,1-.17.07h-2.34a.24.24,0,0,1-.24-.24V72.3a.23.23,0,0,1,.07-.17.24.24,0,0,1,.17-.07h2.34a.24.24,0,0,1,.24.24v.56s0,.07,0,.07.06,0,.1-.07a2.48,2.48,0,0,1,2.12-1A2.93,2.93,0,0,1,152.4,72.83Z"/><path class="cls-3" d="M160.5,68.41a.24.24,0,0,1,.17-.07H163a.24.24,0,0,1,.24.24V82.1a.24.24,0,0,1-.07.17.23.23,0,0,1-.17.07h-2.34a.24.24,0,0,1-.24-.24v-.44a.1.1,0,0,0,0-.08.06.06,0,0,0-.08,0,2.61,2.61,0,0,1-2.12.88q-2.44,0-3.14-3.18a10.77,10.77,0,0,1-.2-2.22A12.06,12.06,0,0,1,155,75c.41-2.06,1.48-3.1,3.2-3.1a3.6,3.6,0,0,1,1.2.19,2.27,2.27,0,0,1,.88.65s.05.06.08,0a.09.09,0,0,0,0-.08V68.58A.23.23,0,0,1,160.5,68.41Zm-.09,8.77a8.59,8.59,0,0,0-.16-1.76c-.18-.73-.57-1.1-1.18-1.1a1.09,1.09,0,0,0-.76.28,1.67,1.67,0,0,0-.44.8,6.49,6.49,0,0,0-.18,1.78,7.44,7.44,0,0,0,.14,1.72c.17.79.58,1.18,1.24,1.18s1-.38,1.2-1.16A8.13,8.13,0,0,0,160.41,77.18Z"/><path class="cls-3" d="M173.37,77.1l0,.78a.21.21,0,0,1-.24.24h-5.3a.09.09,0,0,0-.1.1,5.07,5.07,0,0,0,.08.68,1.36,1.36,0,0,0,.49.88,1.44,1.44,0,0,0,1,.32,1.4,1.4,0,0,0,1.36-.9.26.26,0,0,1,.3-.16l2.12.42c.16,0,.21.14.16.3a3.94,3.94,0,0,1-1.45,2,4.2,4.2,0,0,1-2.49.71,4.51,4.51,0,0,1-2.83-.81,3.78,3.78,0,0,1-1.37-2.33,12.63,12.63,0,0,1-.18-2.5,9.25,9.25,0,0,1,.12-1.62,3.68,3.68,0,0,1,1.32-2.43,4.74,4.74,0,0,1,5.74.12,3.88,3.88,0,0,1,1.26,2.71C173.35,76.08,173.37,76.57,173.37,77.1Zm-5.15-2.46a1.47,1.47,0,0,0-.45.88,4.68,4.68,0,0,0-.06.76c0,.07,0,.1.1.1h2.6a.09.09,0,0,0,.1-.1,4.68,4.68,0,0,0-.06-.76,1.46,1.46,0,0,0-.44-.87,1.39,1.39,0,0,0-1.79,0Z"/><path class="cls-3" d="M182.26,72.83a3.78,3.78,0,0,1,.83,2.59V82.1a.24.24,0,0,1-.07.17.23.23,0,0,1-.17.07h-2.34a.24.24,0,0,1-.24-.24V75.82a1.7,1.7,0,0,0-.34-1.1,1.28,1.28,0,0,0-1.87,0,1.64,1.64,0,0,0-.35,1.11V82.1a.24.24,0,0,1-.07.17.23.23,0,0,1-.17.07h-2.34a.24.24,0,0,1-.24-.24V72.3a.23.23,0,0,1,.07-.17.24.24,0,0,1,.17-.07h2.34a.24.24,0,0,1,.24.24v.56s0,.07,0,.07.06,0,.1-.07a2.48,2.48,0,0,1,2.12-1A2.93,2.93,0,0,1,182.26,72.83Z"/><path class="cls-3" d="M188.71,86.25a.29.29,0,0,1,0-.17V84.24c0-.16.07-.24.22-.24a3.24,3.24,0,0,0,1.63-.33,1.74,1.74,0,0,0,.63-1.27l0-.12-2.88-10,0-.08c0-.13.07-.2.22-.2H191a.25.25,0,0,1,.26.22l1.3,6.22c0,.06,0,.08.06.08s0,0,.06-.08l1.3-6.22a.24.24,0,0,1,.26-.22l2.48,0a.22.22,0,0,1,.17.07.29.29,0,0,1,0,.19l-3.06,10.4a8.69,8.69,0,0,1-.93,2.19A2.78,2.78,0,0,1,191.51,86a7.54,7.54,0,0,1-2.58.34h-.12A.1.1,0,0,1,188.71,86.25Z"/><path class="cls-3" d="M208,72.16a.31.31,0,0,1,.12.32l-.4,2.3c0,.16-.11.21-.28.14a2.67,2.67,0,0,0-.58-.08,2.44,2.44,0,0,0-.52.06,1.52,1.52,0,0,0-1,.56,1.74,1.74,0,0,0-.4,1.16V82.1a.24.24,0,0,1-.07.17.23.23,0,0,1-.17.07h-2.34a.24.24,0,0,1-.24-.24V72.3a.23.23,0,0,1,.07-.17.24.24,0,0,1,.17-.07h2.34a.24.24,0,0,1,.24.24v.8q0,.09,0,.09s0,0,.07,0a2.16,2.16,0,0,1,2-1.22A2,2,0,0,1,208,72.16Z"/><path class="cls-3" d="M217.31,77.1l0,.78a.21.21,0,0,1-.24.24h-5.3a.09.09,0,0,0-.1.1,5.07,5.07,0,0,0,.08.68,1.36,1.36,0,0,0,.49.88,1.44,1.44,0,0,0,1,.32,1.4,1.4,0,0,0,1.36-.9.26.26,0,0,1,.3-.16l2.12.42c.16,0,.21.14.16.3a3.94,3.94,0,0,1-1.45,2,4.2,4.2,0,0,1-2.49.71,4.51,4.51,0,0,1-2.83-.81A3.78,3.78,0,0,1,209,79.36a12.63,12.63,0,0,1-.18-2.5,9.25,9.25,0,0,1,.12-1.62,3.68,3.68,0,0,1,1.32-2.43,4.74,4.74,0,0,1,5.74.12,3.88,3.88,0,0,1,1.26,2.71C217.29,76.08,217.31,76.57,217.31,77.1Zm-5.15-2.46a1.47,1.47,0,0,0-.45.88,4.68,4.68,0,0,0-.06.76c0,.07,0,.1.1.1h2.6a.09.09,0,0,0,.1-.1,4.68,4.68,0,0,0-.06-.76,1.46,1.46,0,0,0-.44-.87,1.39,1.39,0,0,0-1.79,0Z"/><path class="cls-3" d="M223.92,74.11a.23.23,0,0,1-.17.07h-1.54a.09.09,0,0,0-.1.1v4.5a1.26,1.26,0,0,0,.25.89.91.91,0,0,0,.77.25h.4a.24.24,0,0,1,.24.24V82.1a.21.21,0,0,1-.24.24c-.23,0-.56,0-1,0a4.2,4.2,0,0,1-2.35-.52,2.18,2.18,0,0,1-.77-2v-5.6a.09.09,0,0,0-.1-.1h-.92a.24.24,0,0,1-.24-.24V72.3a.23.23,0,0,1,.07-.17.24.24,0,0,1,.17-.07h.92a.09.09,0,0,0,.1-.1v-2.3a.23.23,0,0,1,.07-.17.24.24,0,0,1,.17-.07h2.22a.24.24,0,0,1,.24.24V72c0,.07,0,.1.1.1h1.54a.24.24,0,0,1,.24.24v1.64A.24.24,0,0,1,223.92,74.11Z"/><path class="cls-3" d="M225.73,70.45a1.51,1.51,0,0,1-.44-1.13,1.57,1.57,0,0,1,.43-1.14,1.51,1.51,0,0,1,1.13-.44,1.51,1.51,0,0,1,1.58,1.58,1.52,1.52,0,0,1-.45,1.13,1.54,1.54,0,0,1-1.13.45A1.48,1.48,0,0,1,225.73,70.45Zm-.21,11.82a.21.21,0,0,1-.07-.17V72.3a.23.23,0,0,1,.07-.17.24.24,0,0,1,.17-.07H228a.24.24,0,0,1,.24.24v9.8a.24.24,0,0,1-.07.17.23.23,0,0,1-.17.07h-2.34A.21.21,0,0,1,225.52,82.27Z"/><path class="cls-3" d="M238.45,77.1l0,.78a.21.21,0,0,1-.24.24h-5.3a.09.09,0,0,0-.1.1,5.07,5.07,0,0,0,.08.68,1.36,1.36,0,0,0,.49.88,1.44,1.44,0,0,0,1,.32,1.4,1.4,0,0,0,1.36-.9A.26.26,0,0,1,236,79l2.12.42c.16,0,.21.14.16.3a3.94,3.94,0,0,1-1.45,2,4.2,4.2,0,0,1-2.49.71,4.51,4.51,0,0,1-2.83-.81,3.78,3.78,0,0,1-1.37-2.33,12.63,12.63,0,0,1-.18-2.5,9.25,9.25,0,0,1,.12-1.62,3.68,3.68,0,0,1,1.32-2.43,4.74,4.74,0,0,1,5.74.12,3.88,3.88,0,0,1,1.26,2.71C238.43,76.08,238.45,76.57,238.45,77.1Zm-5.15-2.46a1.47,1.47,0,0,0-.45.88,4.68,4.68,0,0,0-.06.76c0,.07,0,.1.1.1h2.6a.09.09,0,0,0,.1-.1,4.68,4.68,0,0,0-.06-.76,1.46,1.46,0,0,0-.44-.87,1.39,1.39,0,0,0-1.79,0Z"/><path class="cls-3" d="M247.34,72.83a3.78,3.78,0,0,1,.83,2.59V82.1a.24.24,0,0,1-.07.17.23.23,0,0,1-.17.07h-2.34a.24.24,0,0,1-.24-.24V75.82a1.7,1.7,0,0,0-.34-1.1,1.28,1.28,0,0,0-1.87,0,1.64,1.64,0,0,0-.35,1.11V82.1a.24.24,0,0,1-.07.17.23.23,0,0,1-.17.07h-2.34a.24.24,0,0,1-.24-.24V72.3a.23.23,0,0,1,.07-.17.24.24,0,0,1,.17-.07h2.34a.24.24,0,0,1,.24.24v.56s0,.07,0,.07.06,0,.1-.07a2.48,2.48,0,0,1,2.12-1A2.93,2.93,0,0,1,247.34,72.83Z"/><path class="cls-3" d="M258.21,77.1l0,.78a.21.21,0,0,1-.24.24h-5.3a.09.09,0,0,0-.1.1,5.07,5.07,0,0,0,.08.68,1.36,1.36,0,0,0,.49.88,1.44,1.44,0,0,0,1,.32,1.4,1.4,0,0,0,1.36-.9.26.26,0,0,1,.3-.16l2.12.42c.16,0,.21.14.16.3a3.94,3.94,0,0,1-1.45,2,4.2,4.2,0,0,1-2.49.71,4.51,4.51,0,0,1-2.83-.81,3.78,3.78,0,0,1-1.37-2.33,12.63,12.63,0,0,1-.18-2.5,9.25,9.25,0,0,1,.12-1.62,3.68,3.68,0,0,1,1.32-2.43,4.74,4.74,0,0,1,5.74.12,3.88,3.88,0,0,1,1.26,2.71C258.19,76.08,258.21,76.57,258.21,77.1Zm-5.15-2.46a1.47,1.47,0,0,0-.45.88,4.68,4.68,0,0,0-.06.76c0,.07,0,.1.1.1h2.6a.09.09,0,0,0,.1-.1,4.68,4.68,0,0,0-.06-.76,1.46,1.46,0,0,0-.44-.87,1.39,1.39,0,0,0-1.79,0Z"/><path class="cls-3" d="M267.1,72.83a3.78,3.78,0,0,1,.83,2.59V82.1a.24.24,0,0,1-.07.17.23.23,0,0,1-.17.07h-2.34a.24.24,0,0,1-.24-.24V75.82a1.7,1.7,0,0,0-.34-1.1,1.28,1.28,0,0,0-1.87,0,1.64,1.64,0,0,0-.35,1.11V82.1a.24.24,0,0,1-.07.17.23.23,0,0,1-.17.07H260a.24.24,0,0,1-.24-.24V72.3a.23.23,0,0,1,.07-.17.24.24,0,0,1,.17-.07h2.34a.24.24,0,0,1,.24.24v.56s0,.07,0,.07.06,0,.1-.07a2.48,2.48,0,0,1,2.12-1A2.93,2.93,0,0,1,267.1,72.83Z"/><path class="cls-3" d="M57,96.83a3.78,3.78,0,0,1,.83,2.59v6.68a.21.21,0,0,1-.07.17.22.22,0,0,1-.17.07H55.23a.24.24,0,0,1-.24-.24V99.82a1.65,1.65,0,0,0-.34-1.1,1.17,1.17,0,0,0-.92-.4,1.19,1.19,0,0,0-.95.41,1.64,1.64,0,0,0-.35,1.11v6.26a.21.21,0,0,1-.07.17.23.23,0,0,1-.17.07H49.85a.22.22,0,0,1-.17-.07.21.21,0,0,1-.07-.17V96.3a.23.23,0,0,1,.07-.17.26.26,0,0,1,.17-.07h2.34a.28.28,0,0,1,.17.07.23.23,0,0,1,.07.17v.56s0,.07,0,.07.06,0,.1-.07a2.48,2.48,0,0,1,2.12-1A2.91,2.91,0,0,1,57,96.83Z"/><path class="cls-3" d="M64.92,96.13a.24.24,0,0,1,.17-.07h2.34a.26.26,0,0,1,.17.07.23.23,0,0,1,.07.17v9.8a.21.21,0,0,1-.07.17.22.22,0,0,1-.17.07H65.09a.24.24,0,0,1-.24-.24v-.5a.07.07,0,0,0,0-.07.11.11,0,0,0-.08,0,2.48,2.48,0,0,1-2.14.92,2.94,2.94,0,0,1-3.12-3.24V96.3a.23.23,0,0,1,.07-.17.24.24,0,0,1,.17-.07h2.34a.26.26,0,0,1,.17.07.23.23,0,0,1,.07.17v6.28a1.66,1.66,0,0,0,.33,1.1,1.13,1.13,0,0,0,.93.4,1.17,1.17,0,0,0,1-.42,1.71,1.71,0,0,0,.35-1.12V96.3A.23.23,0,0,1,64.92,96.13Z"/><path class="cls-3" d="M77.79,101.1l0,.78a.21.21,0,0,1-.24.24h-5.3a.09.09,0,0,0-.1.1,5.07,5.07,0,0,0,.08.68,1.36,1.36,0,0,0,.49.88,1.44,1.44,0,0,0,1,.32,1.4,1.4,0,0,0,1.36-.9.26.26,0,0,1,.3-.16l2.12.42c.16,0,.21.14.16.3a3.94,3.94,0,0,1-1.45,2,4.2,4.2,0,0,1-2.49.71,4.51,4.51,0,0,1-2.83-.81,3.78,3.78,0,0,1-1.37-2.33,12.63,12.63,0,0,1-.18-2.5,9.25,9.25,0,0,1,.12-1.62,3.73,3.73,0,0,1,1.32-2.43,4.74,4.74,0,0,1,5.74.12,3.88,3.88,0,0,1,1.26,2.71C77.77,100.08,77.79,100.57,77.79,101.1Zm-5.15-2.46a1.47,1.47,0,0,0-.45.88,4.68,4.68,0,0,0-.06.76c0,.07,0,.1.1.1h2.6c.07,0,.1,0,.1-.1a4.68,4.68,0,0,0-.06-.76,1.46,1.46,0,0,0-.44-.87,1.39,1.39,0,0,0-1.79,0Z"/><path class="cls-3" d="M81.19,106.14l-2.8-9.84,0-.08c0-.12.07-.18.22-.18h2.56a.25.25,0,0,1,.26.22l1.3,6c0,.06,0,.08.06.08s0,0,.06-.08l1.28-6a.24.24,0,0,1,.26-.22l2.56,0c.17,0,.24.09.2.26l-2.76,9.8a.26.26,0,0,1-.28.2H81.47A.26.26,0,0,1,81.19,106.14Z"/><path class="cls-3" d="M94.09,96.33a3.58,3.58,0,0,1,1.47,1.2,3.06,3.06,0,0,1,.53,1.75v6.82a.24.24,0,0,1-.07.17.22.22,0,0,1-.17.07H93.51a.24.24,0,0,1-.24-.24v-.56a.1.1,0,0,0,0-.08.06.06,0,0,0-.08,0,2.78,2.78,0,0,1-2.36,1,3.57,3.57,0,0,1-2.27-.7,2.75,2.75,0,0,1-.91-2.34q0-3.25,4.08-3.26h1.48a.09.09,0,0,0,.1-.1v-.46a1.33,1.33,0,0,0-.35-1,1.26,1.26,0,0,0-1-.36,1.42,1.42,0,0,0-.8.22,1,1,0,0,0-.4.6.26.26,0,0,1-.28.2l-2.42-.14a.24.24,0,0,1-.17-.06.14.14,0,0,1-.05-.16,3,3,0,0,1,1.25-2.23A4.64,4.64,0,0,1,92,95.9,5.21,5.21,0,0,1,94.09,96.33ZM92.79,104a1.2,1.2,0,0,0,.48-1v-.84a.09.09,0,0,0-.1-.1H92.05a1.9,1.9,0,0,0-1.16.32,1.1,1.1,0,0,0-.42.92,1,1,0,0,0,.32.8,1.2,1.2,0,0,0,.84.28A1.78,1.78,0,0,0,92.79,104Z"/><path class="cls-3" d="M102.11,94.45a1.51,1.51,0,0,1-.44-1.13,1.57,1.57,0,0,1,.43-1.14,1.51,1.51,0,0,1,1.13-.44,1.51,1.51,0,0,1,1.58,1.58,1.52,1.52,0,0,1-.45,1.13,1.54,1.54,0,0,1-1.13.45A1.48,1.48,0,0,1,102.11,94.45Zm-.21,11.82a.21.21,0,0,1-.07-.17V96.3a.23.23,0,0,1,.07-.17.24.24,0,0,1,.17-.07h2.34a.24.24,0,0,1,.24.24v9.8a.24.24,0,0,1-.07.17.23.23,0,0,1-.17.07h-2.34A.21.21,0,0,1,101.9,106.27Z"/><path class="cls-3" d="M113.88,96.83a3.78,3.78,0,0,1,.83,2.59v6.68a.21.21,0,0,1-.07.17.22.22,0,0,1-.17.07h-2.34a.24.24,0,0,1-.24-.24V99.82a1.7,1.7,0,0,0-.34-1.1,1.17,1.17,0,0,0-.92-.4,1.19,1.19,0,0,0-.95.41,1.64,1.64,0,0,0-.35,1.11v6.26a.21.21,0,0,1-.07.17.23.23,0,0,1-.17.07h-2.34a.24.24,0,0,1-.24-.24V96.3a.23.23,0,0,1,.07-.17.24.24,0,0,1,.17-.07h2.34a.28.28,0,0,1,.17.07.23.23,0,0,1,.07.17v.56s0,.07,0,.07.06,0,.1-.07a2.48,2.48,0,0,1,2.12-1A2.91,2.91,0,0,1,113.88,96.83Z"/><path class="cls-3" d="M121.82,96.13a.28.28,0,0,1,.07.17V98a.24.24,0,0,1-.07.17.23.23,0,0,1-.17.07h-1.52a.09.09,0,0,0-.1.1v7.76a.24.24,0,0,1-.07.17.23.23,0,0,1-.17.07h-2.34a.24.24,0,0,1-.24-.24V98.34a.09.09,0,0,0-.1-.1h-.88A.24.24,0,0,1,116,98V96.3a.23.23,0,0,1,.07-.17.24.24,0,0,1,.17-.07h.88a.09.09,0,0,0,.1-.1v-.5a3.86,3.86,0,0,1,.4-1.92,2.19,2.19,0,0,1,1.25-1,7.08,7.08,0,0,1,2.25-.24h.4a.28.28,0,0,1,.17.07.23.23,0,0,1,.07.17v1.6a.21.21,0,0,1-.07.17.23.23,0,0,1-.17.07h-.36a1.2,1.2,0,0,0-.86.31,1.38,1.38,0,0,0-.26,1V96c0,.07,0,.1.1.1h1.52A.28.28,0,0,1,121.82,96.13Z"/><path class="cls-3" d="M124.28,105.63a3.51,3.51,0,0,1-1.33-2.39,11.73,11.73,0,0,1-.16-2.06,11.57,11.57,0,0,1,.16-2.06,3.51,3.51,0,0,1,1.33-2.35,4.48,4.48,0,0,1,2.85-.87,4.39,4.39,0,0,1,2.81.87,3.64,3.64,0,0,1,1.33,2.35,13.21,13.21,0,0,1,0,4.1,3.59,3.59,0,0,1-1.31,2.41,4.4,4.4,0,0,1-2.83.87A4.48,4.48,0,0,1,124.28,105.63Zm3.74-1.89a1.61,1.61,0,0,0,.49-.92,15.35,15.35,0,0,0,.1-1.64,14.67,14.67,0,0,0-.1-1.62,1.54,1.54,0,0,0-.47-.91,1.36,1.36,0,0,0-.93-.33,1.31,1.31,0,0,0-.91.33,1.49,1.49,0,0,0-.47.91,9.93,9.93,0,0,0-.1,1.62,12.32,12.32,0,0,0,.08,1.64,1.62,1.62,0,0,0,.5.92,1.31,1.31,0,0,0,.92.34A1.25,1.25,0,0,0,128,103.74Z"/><path class="cls-3" d="M138.91,96.16a.28.28,0,0,1,.12.32l-.4,2.3c0,.16-.11.21-.28.14a2.67,2.67,0,0,0-.58-.08,2.52,2.52,0,0,0-.52.06,1.54,1.54,0,0,0-1,.56,1.74,1.74,0,0,0-.4,1.16v5.48a.21.21,0,0,1-.07.17.23.23,0,0,1-.17.07h-2.34a.22.22,0,0,1-.17-.07.21.21,0,0,1-.07-.17V96.3a.23.23,0,0,1,.07-.17.26.26,0,0,1,.17-.07h2.34a.28.28,0,0,1,.17.07.23.23,0,0,1,.07.17v.8q0,.09,0,.09s0,0,.07,0a2.17,2.17,0,0,1,2-1.22A2,2,0,0,1,138.91,96.16Z"/><path class="cls-3" d="M152.74,96.83a4,4,0,0,1,.77,2.61v6.66a.24.24,0,0,1-.07.17.23.23,0,0,1-.17.07H151a.24.24,0,0,1-.24-.24V99.84a1.75,1.75,0,0,0-.33-1.11,1.1,1.1,0,0,0-.89-.41,1.13,1.13,0,0,0-.92.41,1.65,1.65,0,0,0-.34,1.09v6.28a.24.24,0,0,1-.07.17.23.23,0,0,1-.17.07h-2.32a.24.24,0,0,1-.24-.24V99.84a1.75,1.75,0,0,0-.34-1.11,1.21,1.21,0,0,0-1.82,0,1.65,1.65,0,0,0-.34,1.09v6.28a.24.24,0,0,1-.07.17.23.23,0,0,1-.17.07h-2.32a.24.24,0,0,1-.24-.24V96.3a.23.23,0,0,1,.07-.17.24.24,0,0,1,.17-.07h2.32a.24.24,0,0,1,.24.24v.52s0,.07,0,.08.05,0,.08,0a2.58,2.58,0,0,1,1-.73,3.35,3.35,0,0,1,2.75.14,2.61,2.61,0,0,1,1,1.07,0,0,0,0,0,.06,0s.05,0,.08-.07a2.61,2.61,0,0,1,1.12-1.07,3.29,3.29,0,0,1,1.46-.33A2.74,2.74,0,0,1,152.74,96.83Z"/><path class="cls-3" d="M161.29,96.33a3.65,3.65,0,0,1,1.47,1.2,3.06,3.06,0,0,1,.53,1.75v6.82a.24.24,0,0,1-.07.17.23.23,0,0,1-.17.07h-2.34a.24.24,0,0,1-.24-.24v-.56a.1.1,0,0,0,0-.08.06.06,0,0,0-.08,0,2.78,2.78,0,0,1-2.36,1,3.57,3.57,0,0,1-2.27-.7,2.75,2.75,0,0,1-.91-2.34q0-3.25,4.08-3.26h1.48a.09.09,0,0,0,.1-.1v-.46a1.33,1.33,0,0,0-.35-1,1.27,1.27,0,0,0-1-.36,1.42,1.42,0,0,0-.8.22.92.92,0,0,0-.4.6.26.26,0,0,1-.28.2l-2.42-.14a.24.24,0,0,1-.17-.06.14.14,0,0,1,0-.16,3,3,0,0,1,1.25-2.23,4.64,4.64,0,0,1,2.85-.85A5.21,5.21,0,0,1,161.29,96.33ZM160,104a1.2,1.2,0,0,0,.48-1v-.84a.09.09,0,0,0-.1-.1h-1.12a1.88,1.88,0,0,0-1.16.32,1.1,1.1,0,0,0-.42.92,1,1,0,0,0,.32.8,1.2,1.2,0,0,0,.84.28A1.78,1.78,0,0,0,160,104Z"/><path class="cls-3" d="M166.28,105.65a3.58,3.58,0,0,1-1.35-2.33,11.33,11.33,0,0,1-.16-2.16,14.64,14.64,0,0,1,.16-2.12,3.56,3.56,0,0,1,1.36-2.29,4.41,4.41,0,0,1,2.76-.85,4.51,4.51,0,0,1,2.73.82,3.45,3.45,0,0,1,1.37,2.16c0,.12,0,.32.08.58a.24.24,0,0,1-.24.26l-2.3.22h0c-.12,0-.2-.07-.22-.22a.88.88,0,0,0,0-.2c0-.1-.06-.2-.08-.28a1.3,1.3,0,0,0-1.3-.92,1.24,1.24,0,0,0-.88.32,1.51,1.51,0,0,0-.44.88,9.58,9.58,0,0,0-.12,1.66,7.72,7.72,0,0,0,.14,1.72,1.5,1.5,0,0,0,.43.86,1.17,1.17,0,0,0,.87.32,1.32,1.32,0,0,0,.93-.32,1.27,1.27,0,0,0,.41-.8l0-.24a.32.32,0,0,1,.09-.17.2.2,0,0,1,.17,0l2.32.2a.25.25,0,0,1,.22.26c0,.08,0,.22,0,.4a3.34,3.34,0,0,1-1.31,2.3,4.53,4.53,0,0,1-2.81.84A4.34,4.34,0,0,1,166.28,105.65Z"/><path class="cls-3" d="M175,94.45a1.51,1.51,0,0,1-.44-1.13,1.57,1.57,0,0,1,.43-1.14,1.51,1.51,0,0,1,1.13-.44,1.51,1.51,0,0,1,1.58,1.58,1.52,1.52,0,0,1-.45,1.13,1.54,1.54,0,0,1-1.13.45A1.48,1.48,0,0,1,175,94.45Zm-.21,11.82a.21.21,0,0,1-.07-.17V96.3a.23.23,0,0,1,.07-.17.24.24,0,0,1,.17-.07h2.34a.24.24,0,0,1,.24.24v9.8a.24.24,0,0,1-.07.17.23.23,0,0,1-.17.07H175A.21.21,0,0,1,174.82,106.27Z"/><path class="cls-3" d="M180.72,105.63a3.51,3.51,0,0,1-1.33-2.39,11.73,11.73,0,0,1-.16-2.06,11.57,11.57,0,0,1,.16-2.06,3.51,3.51,0,0,1,1.33-2.35,4.48,4.48,0,0,1,2.85-.87,4.39,4.39,0,0,1,2.81.87,3.68,3.68,0,0,1,1.33,2.35,13.21,13.21,0,0,1,0,4.1,3.63,3.63,0,0,1-1.31,2.41,4.4,4.4,0,0,1-2.83.87A4.48,4.48,0,0,1,180.72,105.63Zm3.74-1.89a1.67,1.67,0,0,0,.49-.92,15.35,15.35,0,0,0,.1-1.64,14.67,14.67,0,0,0-.1-1.62,1.6,1.6,0,0,0-.47-.91,1.36,1.36,0,0,0-.93-.33,1.31,1.31,0,0,0-.91.33,1.49,1.49,0,0,0-.47.91,9.93,9.93,0,0,0-.1,1.62,12.32,12.32,0,0,0,.08,1.64,1.57,1.57,0,0,0,.5.92,1.31,1.31,0,0,0,.92.34A1.27,1.27,0,0,0,184.46,103.74Zm-2.27-9a.21.21,0,0,1,0-.2l1.14-2a.33.33,0,0,1,.3-.16h1.92a.2.2,0,0,1,.2.09.24.24,0,0,1,0,.21l-1.48,2a.31.31,0,0,1-.28.14h-1.6C182.27,94.82,182.21,94.8,182.19,94.74Z"/><path class="cls-3" d="M196.72,96.83a3.78,3.78,0,0,1,.83,2.59v6.68a.24.24,0,0,1-.07.17.23.23,0,0,1-.17.07H195a.24.24,0,0,1-.24-.24V99.82a1.7,1.7,0,0,0-.34-1.1,1.28,1.28,0,0,0-1.87,0,1.64,1.64,0,0,0-.35,1.11v6.26a.24.24,0,0,1-.07.17.23.23,0,0,1-.17.07h-2.34a.24.24,0,0,1-.24-.24V96.3a.23.23,0,0,1,.07-.17.24.24,0,0,1,.17-.07h2.34a.24.24,0,0,1,.24.24v.56s0,.07,0,.07.06,0,.1-.07a2.48,2.48,0,0,1,2.12-1A2.93,2.93,0,0,1,196.72,96.83Z"/><path class="cls-3" d="M203.32,106.27a.21.21,0,0,1-.07-.17V92.58a.23.23,0,0,1,.07-.17.24.24,0,0,1,.17-.07h2.34a.24.24,0,0,1,.24.24V106.1a.24.24,0,0,1-.07.17.23.23,0,0,1-.17.07h-2.34A.21.21,0,0,1,203.32,106.27Z"/><path class="cls-3" d="M209.12,105.63a3.51,3.51,0,0,1-1.33-2.39,11.73,11.73,0,0,1-.16-2.06,11.57,11.57,0,0,1,.16-2.06,3.51,3.51,0,0,1,1.33-2.35A4.48,4.48,0,0,1,212,95.9a4.39,4.39,0,0,1,2.81.87,3.68,3.68,0,0,1,1.33,2.35,13.21,13.21,0,0,1,0,4.1,3.63,3.63,0,0,1-1.31,2.41,4.4,4.4,0,0,1-2.83.87A4.48,4.48,0,0,1,209.12,105.63Zm3.74-1.89a1.67,1.67,0,0,0,.49-.92,15.35,15.35,0,0,0,.1-1.64,14.67,14.67,0,0,0-.1-1.62,1.6,1.6,0,0,0-.47-.91,1.36,1.36,0,0,0-.93-.33,1.31,1.31,0,0,0-.91.33,1.49,1.49,0,0,0-.47.91,9.93,9.93,0,0,0-.1,1.62,12.32,12.32,0,0,0,.08,1.64,1.57,1.57,0,0,0,.5.92,1.31,1.31,0,0,0,.92.34A1.27,1.27,0,0,0,212.86,103.74Z"/><path class="cls-3" d="M218.69,105.66a2.53,2.53,0,0,1-1.1-2.16v-.16a.23.23,0,0,1,.07-.17.24.24,0,0,1,.17-.07H220a.24.24,0,0,1,.24.24v0a.82.82,0,0,0,.4.72,1.62,1.62,0,0,0,1,.28,1.35,1.35,0,0,0,.86-.25.76.76,0,0,0,.32-.63.65.65,0,0,0-.35-.58,8.14,8.14,0,0,0-1.13-.46,8.08,8.08,0,0,1-1-.32,5.22,5.22,0,0,1-1.95-1.08,2.5,2.5,0,0,1-.75-2,2.84,2.84,0,0,1,1.06-2.32,4.31,4.31,0,0,1,2.8-.86,4.38,4.38,0,0,1,2.87.89,3,3,0,0,1,1.07,2.37c0,.15-.08.22-.24.22h-2.16a.24.24,0,0,1-.24-.24V99.1a.9.9,0,0,0-.34-.7,1.46,1.46,0,0,0-.92-.28,1.39,1.39,0,0,0-.87.26.8.8,0,0,0-.33.64.71.71,0,0,0,.4.65,5.35,5.35,0,0,0,1.22.47l.35.11.31.11a7.51,7.51,0,0,1,2.18,1.11,2.35,2.35,0,0,1,.82,1.93,2.68,2.68,0,0,1-1.09,2.26,4.76,4.76,0,0,1-2.93.82A4.81,4.81,0,0,1,218.69,105.66Z"/><path class="cls-3" d="M57.93,125.1l0,.78a.21.21,0,0,1-.24.24h-5.3a.09.09,0,0,0-.1.1,5.07,5.07,0,0,0,.08.68,1.4,1.4,0,0,0,.49.88,1.44,1.44,0,0,0,1,.32,1.39,1.39,0,0,0,1.36-.9.26.26,0,0,1,.3-.16l2.12.42c.16,0,.21.14.16.3a3.89,3.89,0,0,1-1.45,2,4.2,4.2,0,0,1-2.49.71,4.51,4.51,0,0,1-2.83-.81,3.78,3.78,0,0,1-1.37-2.33,12.63,12.63,0,0,1-.18-2.5,9.25,9.25,0,0,1,.12-1.62,3.73,3.73,0,0,1,1.32-2.43,4.74,4.74,0,0,1,5.74.12,3.88,3.88,0,0,1,1.26,2.71C57.91,124.08,57.93,124.57,57.93,125.1Zm-5.15-2.46a1.52,1.52,0,0,0-.45.88,4.68,4.68,0,0,0-.06.76c0,.07,0,.1.1.1H55c.07,0,.1,0,.1-.1a4.68,4.68,0,0,0-.06-.76,1.4,1.4,0,0,0-.44-.87,1.39,1.39,0,0,0-1.79,0Z"/><path class="cls-3" d="M60.17,129.66a2.56,2.56,0,0,1-1.1-2.16v-.16a.23.23,0,0,1,.07-.17.26.26,0,0,1,.17-.07h2.2a.24.24,0,0,1,.24.24v0a.82.82,0,0,0,.4.72,1.64,1.64,0,0,0,1,.28,1.35,1.35,0,0,0,.86-.25.76.76,0,0,0,.32-.63.65.65,0,0,0-.35-.58,8.14,8.14,0,0,0-1.13-.46,8.08,8.08,0,0,1-1-.32,5.22,5.22,0,0,1-1.95-1.08,2.5,2.5,0,0,1-.75-2,2.84,2.84,0,0,1,1.06-2.32,5,5,0,0,1,5.67,0A3,3,0,0,1,67,123.18c0,.15-.08.22-.24.22H64.57a.24.24,0,0,1-.24-.24v-.06a.9.9,0,0,0-.34-.7,1.46,1.46,0,0,0-.92-.28,1.39,1.39,0,0,0-.87.26.8.8,0,0,0-.33.64.71.71,0,0,0,.4.65,5.35,5.35,0,0,0,1.22.47l.35.11.31.11a7.51,7.51,0,0,1,2.18,1.11,2.32,2.32,0,0,1,.82,1.93,2.68,2.68,0,0,1-1.09,2.26,4.76,4.76,0,0,1-2.93.82A4.81,4.81,0,0,1,60.17,129.66Z"/><path class="cls-3" d="M73.72,122.11a.23.23,0,0,1-.17.07H72a.09.09,0,0,0-.1.1v4.5a1.26,1.26,0,0,0,.25.89.91.91,0,0,0,.77.25h.4a.26.26,0,0,1,.17.07.28.28,0,0,1,.07.17v1.94a.21.21,0,0,1-.24.24c-.23,0-.56,0-1,0a4.2,4.2,0,0,1-2.35-.52,2.18,2.18,0,0,1-.77-2v-5.6a.09.09,0,0,0-.1-.1h-.92a.24.24,0,0,1-.24-.24V120.3a.23.23,0,0,1,.07-.17.24.24,0,0,1,.17-.07h.92a.09.09,0,0,0,.1-.1v-2.3a.23.23,0,0,1,.07-.17.24.24,0,0,1,.17-.07h2.22a.24.24,0,0,1,.24.24V120c0,.07,0,.1.1.1h1.54a.28.28,0,0,1,.17.07.23.23,0,0,1,.07.17v1.64A.21.21,0,0,1,73.72,122.11Z"/><path class="cls-3" d="M80.56,120.13a.24.24,0,0,1,.17-.07h2.34a.24.24,0,0,1,.24.24v9.8a.24.24,0,0,1-.07.17.23.23,0,0,1-.17.07H80.73a.24.24,0,0,1-.24-.24v-.5a.07.07,0,0,0,0-.07.11.11,0,0,0-.08,0,2.48,2.48,0,0,1-2.14.92,2.94,2.94,0,0,1-3.12-3.24V120.3a.23.23,0,0,1,.07-.17.24.24,0,0,1,.17-.07h2.34a.24.24,0,0,1,.24.24v6.28a1.66,1.66,0,0,0,.33,1.1,1.13,1.13,0,0,0,.93.4,1.18,1.18,0,0,0,1-.42,1.71,1.71,0,0,0,.35-1.12V120.3A.23.23,0,0,1,80.56,120.13Z"/><path class="cls-3" d="M90.66,116.41a.24.24,0,0,1,.17-.07h2.34a.24.24,0,0,1,.24.24V130.1a.24.24,0,0,1-.07.17.23.23,0,0,1-.17.07H90.83a.24.24,0,0,1-.24-.24v-.44a.1.1,0,0,0,0-.08.06.06,0,0,0-.08,0,2.61,2.61,0,0,1-2.12.88q-2.44,0-3.14-3.18a10.77,10.77,0,0,1-.2-2.22,12.06,12.06,0,0,1,.18-2.1c.41-2.06,1.48-3.1,3.2-3.1a3.6,3.6,0,0,1,1.2.19,2.27,2.27,0,0,1,.88.65s0,.06.08,0a.09.09,0,0,0,0-.08v-4.12A.23.23,0,0,1,90.66,116.41Zm-.09,8.77a8.59,8.59,0,0,0-.16-1.76c-.18-.73-.57-1.1-1.18-1.1a1.09,1.09,0,0,0-.76.28,1.67,1.67,0,0,0-.44.8,6.49,6.49,0,0,0-.18,1.78A7.44,7.44,0,0,0,88,126.9c.17.79.58,1.18,1.24,1.18s1-.38,1.2-1.16A8.13,8.13,0,0,0,90.57,125.18Z"/><path class="cls-3" d="M95.55,118.45a1.51,1.51,0,0,1-.44-1.13,1.57,1.57,0,0,1,.43-1.14,1.51,1.51,0,0,1,1.13-.44,1.51,1.51,0,0,1,1.58,1.58,1.52,1.52,0,0,1-.45,1.13,1.54,1.54,0,0,1-1.13.45A1.48,1.48,0,0,1,95.55,118.45Zm-.21,11.82a.21.21,0,0,1-.07-.17v-9.8a.23.23,0,0,1,.07-.17.24.24,0,0,1,.17-.07h2.34a.24.24,0,0,1,.24.24v9.8a.24.24,0,0,1-.07.17.23.23,0,0,1-.17.07H95.51A.21.21,0,0,1,95.34,130.27Z"/><path class="cls-3" d="M106,120.33a3.65,3.65,0,0,1,1.47,1.2,3.06,3.06,0,0,1,.53,1.75v6.82a.24.24,0,0,1-.07.17.23.23,0,0,1-.17.07h-2.34a.24.24,0,0,1-.24-.24v-.56a.1.1,0,0,0,0-.08.06.06,0,0,0-.08,0,2.78,2.78,0,0,1-2.36,1,3.57,3.57,0,0,1-2.27-.7,2.75,2.75,0,0,1-.91-2.34q0-3.25,4.08-3.26h1.48a.09.09,0,0,0,.1-.1v-.46a1.33,1.33,0,0,0-.35-1,1.27,1.27,0,0,0-1-.36,1.42,1.42,0,0,0-.8.22.92.92,0,0,0-.4.6.26.26,0,0,1-.28.2L100,123.2a.24.24,0,0,1-.17-.06.14.14,0,0,1,0-.16,3,3,0,0,1,1.25-2.23,4.64,4.64,0,0,1,2.85-.85A5.21,5.21,0,0,1,106,120.33Zm-1.3,7.65a1.2,1.2,0,0,0,.48-1v-.84a.09.09,0,0,0-.1-.1H104a1.88,1.88,0,0,0-1.16.32,1.1,1.1,0,0,0-.42.92,1,1,0,0,0,.32.8,1.2,1.2,0,0,0,.84.28A1.78,1.78,0,0,0,104.71,128Z"/><path class="cls-3" d="M117.06,120.83a3.78,3.78,0,0,1,.83,2.59v6.68a.24.24,0,0,1-.07.17.23.23,0,0,1-.17.07h-2.34a.24.24,0,0,1-.24-.24v-6.28a1.7,1.7,0,0,0-.34-1.1,1.28,1.28,0,0,0-1.87,0,1.64,1.64,0,0,0-.35,1.11v6.26a.24.24,0,0,1-.07.17.23.23,0,0,1-.17.07h-2.34a.24.24,0,0,1-.24-.24v-9.8a.23.23,0,0,1,.07-.17.24.24,0,0,1,.17-.07h2.34a.24.24,0,0,1,.24.24v.56s0,.07,0,.07.06,0,.1-.07a2.48,2.48,0,0,1,2.12-1A2.93,2.93,0,0,1,117.06,120.83Z"/><path class="cls-3" d="M124.86,122.11a.23.23,0,0,1-.17.07h-1.54a.09.09,0,0,0-.1.1v4.5a1.26,1.26,0,0,0,.25.89.91.91,0,0,0,.77.25h.4a.24.24,0,0,1,.24.24v1.94a.21.21,0,0,1-.24.24c-.23,0-.56,0-1,0a4.2,4.2,0,0,1-2.35-.52,2.18,2.18,0,0,1-.77-2v-5.6a.09.09,0,0,0-.1-.1h-.92a.24.24,0,0,1-.24-.24V120.3a.23.23,0,0,1,.07-.17.24.24,0,0,1,.17-.07h.92a.09.09,0,0,0,.1-.1v-2.3a.23.23,0,0,1,.07-.17.24.24,0,0,1,.17-.07h2.22a.24.24,0,0,1,.24.24V120c0,.07,0,.1.1.1h1.54a.24.24,0,0,1,.24.24v1.64A.24.24,0,0,1,124.86,122.11Z"/><path class="cls-3" d="M134.57,125.1l0,.78a.21.21,0,0,1-.24.24H129a.09.09,0,0,0-.1.1,5.07,5.07,0,0,0,.08.68,1.36,1.36,0,0,0,.49.88,1.44,1.44,0,0,0,1,.32,1.4,1.4,0,0,0,1.36-.9.26.26,0,0,1,.3-.16l2.12.42c.16,0,.21.14.16.3a3.94,3.94,0,0,1-1.45,2,4.2,4.2,0,0,1-2.49.71,4.51,4.51,0,0,1-2.83-.81,3.78,3.78,0,0,1-1.37-2.33,12.63,12.63,0,0,1-.18-2.5,9.25,9.25,0,0,1,.12-1.62,3.68,3.68,0,0,1,1.32-2.43,4.74,4.74,0,0,1,5.74.12,3.88,3.88,0,0,1,1.26,2.71C134.55,124.08,134.57,124.57,134.57,125.1Zm-5.15-2.46a1.47,1.47,0,0,0-.45.88,4.68,4.68,0,0,0-.06.76c0,.07,0,.1.1.1h2.6a.09.09,0,0,0,.1-.1,4.68,4.68,0,0,0-.06-.76,1.46,1.46,0,0,0-.44-.87,1.39,1.39,0,0,0-1.79,0Z"/><path class="cls-3" d="M136.81,129.66a2.53,2.53,0,0,1-1.1-2.16v-.16a.23.23,0,0,1,.07-.17.24.24,0,0,1,.17-.07h2.2a.24.24,0,0,1,.24.24v0a.82.82,0,0,0,.4.72,1.62,1.62,0,0,0,1,.28,1.35,1.35,0,0,0,.86-.25.76.76,0,0,0,.32-.63.65.65,0,0,0-.35-.58,8.14,8.14,0,0,0-1.13-.46,8.08,8.08,0,0,1-1-.32,5.22,5.22,0,0,1-1.95-1.08,2.5,2.5,0,0,1-.75-2,2.84,2.84,0,0,1,1.06-2.32,4.31,4.31,0,0,1,2.8-.86,4.38,4.38,0,0,1,2.87.89,3,3,0,0,1,1.07,2.37c0,.15-.08.22-.24.22h-2.16a.24.24,0,0,1-.24-.24v-.06a.9.9,0,0,0-.34-.7,1.46,1.46,0,0,0-.92-.28,1.39,1.39,0,0,0-.87.26.8.8,0,0,0-.33.64.71.71,0,0,0,.4.65,5.35,5.35,0,0,0,1.22.47l.35.11.31.11a7.51,7.51,0,0,1,2.18,1.11,2.35,2.35,0,0,1,.82,1.93,2.68,2.68,0,0,1-1.09,2.26,4.76,4.76,0,0,1-2.93.82A4.81,4.81,0,0,1,136.81,129.66Z"/><path class="cls-3" d="M147.38,125.83a.21.21,0,0,1-.07-.17V125a2.66,2.66,0,0,1,.46-1.62,6.39,6.39,0,0,1,1.34-1.28,6.79,6.79,0,0,0,1-1,1.61,1.61,0,0,0,.34-1,1.4,1.4,0,0,0-.39-1,1.42,1.42,0,0,0-1-.39,1.54,1.54,0,0,0-1.12.41,1.47,1.47,0,0,0-.42,1.09v.32c0,.15-.08.22-.24.22l-2.34-.1a.24.24,0,0,1-.24-.24v-.2a4,4,0,0,1,.56-2.13,3.71,3.71,0,0,1,1.57-1.44,5,5,0,0,1,2.31-.51,4.35,4.35,0,0,1,3.07,1.07,3.72,3.72,0,0,1,1.15,2.83,3.8,3.8,0,0,1-.28,1.51,3.48,3.48,0,0,1-.68,1,11.23,11.23,0,0,1-1,.88,6.35,6.35,0,0,0-1,.86,1.34,1.34,0,0,0-.3.88v.46a.24.24,0,0,1-.07.17.23.23,0,0,1-.17.07h-2.32A.21.21,0,0,1,147.38,125.83Zm.16,4.1a1.64,1.64,0,0,1,0-2.25,1.54,1.54,0,0,1,1.14-.44,1.58,1.58,0,0,1,1.14.44,1.55,1.55,0,0,1,.44,1.12,1.52,1.52,0,0,1-.45,1.13,1.54,1.54,0,0,1-1.13.45A1.52,1.52,0,0,1,147.54,129.93Z"/><path class="cls-3" d="M26.47,80.64s0,0,.09,0h5.28a.25.25,0,0,1,.18.08.26.26,0,0,1,.08.19v2.13a.27.27,0,0,1-.08.19.24.24,0,0,1-.18.07h-9a.25.25,0,0,1-.19-.07.27.27,0,0,1-.08-.19V81a.46.46,0,0,1,.13-.31c1.78-2,3.25-3.81,4.43-5.3a6.16,6.16,0,0,0,1.58-3.24,1.72,1.72,0,0,0-.42-1.22,1.61,1.61,0,0,0-2.23,0,1.62,1.62,0,0,0-.43,1.18v.72a.26.26,0,0,1-.08.19.25.25,0,0,1-.18.08H22.73a.27.27,0,0,1-.27-.27v-1a3.9,3.9,0,0,1,1.43-2.89,5,5,0,0,1,3.33-1.09,5.12,5.12,0,0,1,2.43.55,4,4,0,0,1,1.61,1.54,4.28,4.28,0,0,1,.58,2.22,5.25,5.25,0,0,1-.42,2,10.48,10.48,0,0,1-1.28,2.14c-.37.48-.81,1-1.32,1.63s-1,1.19-1.54,1.76l-.79.9S26.45,80.61,26.47,80.64Z"/><path class="cls-3" d="M34.16,82.94a1.7,1.7,0,0,1-.5-1.25,1.66,1.66,0,0,1,.49-1.25,1.87,1.87,0,0,1,2.5,0,1.66,1.66,0,0,1,.49,1.25,1.7,1.7,0,0,1-.5,1.25,1.81,1.81,0,0,1-2.48,0Z"/></g></g></svg>