<?xml version="1.0" encoding="utf-8"?>
<!-- Generator: Adobe Illustrator 22.1.0, SVG Export Plug-In . SVG Version: 6.00 Build 0)  -->
<svg version="1.1" id="Capa_1" xmlns="http://www.w3.org/2000/svg" xmlns:xlink="http://www.w3.org/1999/xlink" x="0px" y="0px"
	 viewBox="0 0 306.5 198.5" style="enable-background:new 0 0 306.5 198.5;" xml:space="preserve">
<style type="text/css">
	.st0{fill:#E9E8F5;}
	.st1{opacity:0.8;fill:#3A4A9A;enable-background:new    ;}
	.st2{fill:none;stroke:#00B6ED;stroke-width:0.5;stroke-miterlimit:10;}
	.st3{enable-background:new    ;}
	.st4{fill:#1D1D1B;}
	.st5{fill:#3A4A9A;}
	.st6{fill:#EA5297;}
</style>
<title>03-2</title>
<g id="Capa_2_1_">
	<g id="Capa_1-2">
		<path class="st0" d="M222.5,45.2c2.2-1.1,3.1-3.7,2.1-5.9c-0.7-1.5-2.2-2.5-3.9-2.5h-0.1h-0.1c1.5-1,1.9-3.1,0.9-4.7
			c-0.6-0.9-1.7-1.5-2.8-1.5h-0.1c-0.1,0-0.3,0-0.4,0c-0.1,0-0.3,0.1-0.4,0.1c0.6-0.6,0.9-1.5,0.9-2.4c0-1.9-1.6-3.5-3.5-3.5
			c-0.7,0-1.4,0.2-2,0.6c0.9-3.2-1-6.6-4.2-7.5c-1.9-0.5-4-0.1-5.5,1.1c-0.3-2.6-2.6-4.5-5.2-4.2c-1.4,0.2-2.6,0.9-3.4,2
			c-1.5-2.5-4.7-3.3-7.2-1.9c-0.8,0.5-1.4,1.1-1.9,1.9c-1.8-2.3-5.1-2.7-7.4-0.9c-0.7,0.5-1.2,1.2-1.6,2c-0.6-0.2-1.2-0.3-1.8-0.3
			c-2.3,0-4.3,1.5-5,3.7c-2.9,0.5-4.8,3.2-4.3,6.1c0.1,0.7,0.4,1.4,0.8,2.1c-1.9,1.2-2.6,3.7-1.4,5.7c0.3,0.6,0.8,1,1.4,1.4
			c-1.4,3.1-2.3,6.5-2.6,9.9l0,0c0,0.2,0,0.3-0.1,0.4l0,0c-0.1,0.8-0.1,1.6-0.4,3.3c-1.1,6.5-6.2,6.1-6.2,10.8c0,1.7,1.5,2.8,3.3,4
			c0.4,0.3,0.5,0.7,0.4,1.2c-0.3,1.1-0.8,2.8-1.1,4c-0.2,0.6,0.2,1.2,0.7,1.3c0.1,0,0.2,0,0.3,0l5.5,0.2c0.7,0,1.4,0.9,0.9,1.5
			c-0.9,1.2-3.2,0.7-4.7,0.9c-0.6,0.1-1,0.7-0.9,1.3c0,0.1,0.1,0.2,0.1,0.3c0.6,1.2,1.8,5,4.3,7.3c5.8,5.2,13.9,4.6,15.2,6.6
			s-0.7,10.5-0.7,10.5l26.1-4.2c0.1-3.2,0-6.3-0.3-9.5c-0.5-4.2,1.6-5.7,6.9-12.5s9.5-15,9.7-23.6c1.4-1.2,1.6-3.3,0.4-4.7
			C223,45.5,222.8,45.3,222.5,45.2L222.5,45.2z"/>
		<circle class="st1" cx="168.9" cy="55.1" r="2.8"/>
		<path class="st0" d="M136.4,50.4c-0.1-0.6-0.3-1.2-0.4-1.7c0.8-0.7,1.4-1.6,1.6-2.7c2.3-0.4,3.9-2.7,3.5-5c-0.2-1.2-0.9-2.2-2-2.9
			c1.7-2.5,1-6-1.5-7.6c-0.6-0.4-1.4-0.7-2.1-0.8c-0.9-2.9-4-4.5-6.9-3.6c-0.1,0-0.1,0-0.2,0.1c-1.3-2.8-4.5-4-7.3-2.7
			c-0.8,0.4-1.5,0.9-2.1,1.6c-1.6-2.6-4.9-3.5-7.6-1.9c-0.8,0.5-1.4,1.1-1.9,1.9c-1.6-2.2-4.6-2.8-6.9-1.2c-1.2,0.8-1.9,2.1-2.1,3.5
			c-2.7-2.2-6.7-1.8-8.9,0.8c-0.9,1.1-1.4,2.5-1.4,4c0,0.6,0.1,1.2,0.2,1.7c-1.7-1.1-3.9-0.7-5.1,0.9c-1,1.4-0.8,3.3,0.3,4.5
			c-0.2,0-0.3-0.1-0.5-0.1c-0.1,0-0.3,0-0.4,0h-0.1c-1.9,0-3.5,1.5-3.5,3.5c0,1.2,0.6,2.3,1.5,2.9h-0.1h-0.1
			c-2.6,0.1-4.6,2.2-4.5,4.8c0,1.7,1,3.3,2.6,4c-1.6,1.1-1.9,3.3-0.8,4.9c0.5,0.8,1.4,1.3,2.3,1.4c-1.2,1.6-1.4,3.8-0.5,5.6
			c0.7,1.6,2.4,2.5,4.1,2.4H86c-0.2,0.5-0.3,1-0.3,1.6c0,2.2,1.8,4,4,4h0.1c0,0.2-0.1,0.4-0.1,0.6c0,2.2,1.8,4,4,4.1
			c0.3,0,0.7,0,1-0.1c0.2,2,2,3.5,4,3.5H99"/>
		<path class="st0" d="M123.6,97.3c0,0-2.1-5.1-0.7-7s9.5-1.3,15.2-6.3c1.7-1.4,3.2-3.1,4.3-5c0.3-0.5,0.1-1.1-0.3-1.4
			c-0.1-0.1-0.3-0.1-0.4-0.1c-1.5-0.2-3.8-0.8-4.7-2.9c-0.2-0.5,0-1.1,0.5-1.3c0.1-0.1,0.3-0.1,0.5-0.1l5.5-0.1c0.6,0,1-0.4,1.1-0.9
			c0-0.1,0-0.3-0.1-0.4c-0.3-1.1-0.8-2.8-1.1-3.9c-0.1-0.4,0-0.9,0.4-1.1c1.6-0.9,2.7-2.4,3.2-4.1c0.9-5.7-5.2-1.7-6.1-4
			c-1.7-4.2,0.1-8.9-2.1-16.4c-2.8-9.4-15-19.1-33.8-13.7c-21.4,6.2-24.4,28-17.3,41C94.2,82,102.6,82.4,102,87.3s-0.3,6-0.3,6"/>
		<circle class="st1" cx="135" cy="56.1" r="2.8"/>
		<rect x="0.2" y="0.2" class="st2" width="306" height="198"/>
		<g class="st3">
			<path class="st4" d="M86,119.1V111c0-0.1,0-0.1,0.1-0.1h0.6c0.1,0,0.1,0,0.1,0.1v7.5c0,0,0,0,0,0h3.5c0.1,0,0.1,0,0.1,0.1v0.5
				c0,0.1,0,0.1-0.1,0.1h-4.3C86,119.2,86,119.2,86,119.1z"/>
			<path class="st4" d="M95,113.6c0.4,0.4,0.5,0.9,0.5,1.5v4c0,0.1,0,0.1-0.1,0.1h-0.6c-0.1,0-0.1,0-0.1-0.1v-0.4c0,0,0,0,0,0
				c0,0,0,0,0,0c-0.2,0.2-0.4,0.4-0.7,0.5c-0.3,0.1-0.6,0.2-0.9,0.2c-0.5,0-0.9-0.1-1.3-0.4c-0.4-0.3-0.5-0.7-0.5-1.3
				c0-0.6,0.2-1.1,0.6-1.5s1-0.5,1.7-0.5h1.1c0,0,0,0,0,0v-0.5c0-0.4-0.1-0.7-0.3-1c-0.2-0.2-0.5-0.4-0.9-0.4
				c-0.3,0-0.6,0.1-0.8,0.2c-0.2,0.2-0.3,0.4-0.4,0.6c0,0.1-0.1,0.1-0.1,0.1l-0.7,0c0,0-0.1,0-0.1,0c0,0,0-0.1,0-0.1
				c0.1-0.5,0.3-0.8,0.7-1.1c0.4-0.3,0.9-0.4,1.4-0.4C94.2,113.1,94.7,113.3,95,113.6z M94.3,118.3c0.3-0.2,0.4-0.5,0.4-0.9v-1
				c0,0,0,0,0,0h-1.1c-0.5,0-0.8,0.1-1.1,0.3s-0.4,0.5-0.4,0.9c0,0.4,0.1,0.6,0.3,0.8c0.2,0.2,0.5,0.3,0.8,0.3
				C93.7,118.6,94,118.5,94.3,118.3z"/>
		</g>
		<g class="st3">
			<path class="st4" d="M102.4,113.3c0.1,0,0.1,0.1,0.1,0.1l-0.1,0.6c0,0.1-0.1,0.1-0.1,0.1c-0.1-0.1-0.3-0.1-0.4-0.1l-0.1,0
				c-0.4,0-0.6,0.2-0.9,0.5s-0.3,0.7-0.3,1.1v3.6c0,0.1,0,0.1-0.1,0.1h-0.6c-0.1,0-0.1,0-0.1-0.1v-5.8c0-0.1,0-0.1,0.1-0.1h0.6
				c0.1,0,0.1,0,0.1,0.1v0.8c0,0,0,0,0,0c0,0,0,0,0,0c0.1-0.3,0.3-0.5,0.5-0.7s0.5-0.3,0.8-0.3C102,113.1,102.2,113.2,102.4,113.3z"
				/>
			<path class="st4" d="M106.1,118.4c0.2-0.2,0.4-0.4,0.5-0.6c0-0.1,0.1-0.1,0.1-0.1l0.6,0.1c0,0,0.1,0,0.1,0.1c0,0,0,0.1,0,0.1
				c-0.1,0.4-0.4,0.8-0.7,1.1s-0.8,0.4-1.3,0.4c-0.6,0-1.1-0.2-1.4-0.5c-0.4-0.3-0.6-0.7-0.7-1.3c0-0.2-0.1-0.4-0.1-0.7
				c0-0.3,0-0.5,0-0.7s0-0.3,0-0.4c0-0.4,0-0.7,0-1c0.1-0.5,0.3-1,0.7-1.3c0.4-0.3,0.9-0.5,1.4-0.5c0.6,0,1.1,0.2,1.5,0.5
				c0.4,0.4,0.6,0.8,0.6,1.4c0,0.3,0,0.7,0,1.5c0,0.1,0,0.1-0.1,0.1h-3.3c0,0,0,0,0,0c0,0.2,0,0.5,0,0.8c0,0.3,0.2,0.6,0.4,0.8
				s0.5,0.3,0.9,0.3C105.7,118.6,105.9,118.5,106.1,118.4z M104.4,114.1c-0.2,0.2-0.4,0.5-0.4,0.8c0,0.3,0,0.6,0,0.8c0,0,0,0,0,0
				h2.5c0,0,0,0,0,0c0-0.2,0-0.5,0-0.8c0-0.3-0.2-0.6-0.4-0.8c-0.2-0.2-0.5-0.3-0.9-0.3C105,113.8,104.7,113.9,104.4,114.1z"/>
		</g>
		<g class="st3">
			<path class="st4" d="M111.3,113.8h-1.1c0,0,0,0,0,0v3.6c0,0.4,0.1,0.6,0.2,0.8c0.1,0.1,0.4,0.2,0.7,0.2h0.2c0.1,0,0.1,0,0.1,0.1
				v0.5c0,0.1,0,0.1-0.1,0.1l-0.4,0c-0.5,0-0.9-0.1-1.2-0.3s-0.4-0.6-0.4-1.2v-3.9c0,0,0,0,0,0h-0.6c-0.1,0-0.1,0-0.1-0.1v-0.4
				c0-0.1,0-0.1,0.1-0.1h0.6c0,0,0,0,0,0v-1.4c0-0.1,0-0.1,0.1-0.1h0.6c0.1,0,0.1,0,0.1,0.1v1.4c0,0,0,0,0,0h1.1
				c0.1,0,0.1,0,0.1,0.1v0.4C111.4,113.8,111.4,113.8,111.3,113.8z"/>
		</g>
		<g class="st3">
			<path class="st4" d="M115.7,113.3c0.1,0,0.1,0.1,0.1,0.1l-0.1,0.6c0,0.1-0.1,0.1-0.1,0.1c-0.1-0.1-0.3-0.1-0.4-0.1l-0.1,0
				c-0.4,0-0.6,0.2-0.9,0.5s-0.3,0.7-0.3,1.1v3.6c0,0.1,0,0.1-0.1,0.1h-0.6c-0.1,0-0.1,0-0.1-0.1v-5.8c0-0.1,0-0.1,0.1-0.1h0.6
				c0.1,0,0.1,0,0.1,0.1v0.8c0,0,0,0,0,0c0,0,0,0,0,0c0.1-0.3,0.3-0.5,0.5-0.7s0.5-0.3,0.8-0.3C115.3,113.1,115.5,113.2,115.7,113.3
				z"/>
		</g>
		<g class="st3">
			<path class="st4" d="M117.3,118.9c-0.4-0.3-0.6-0.7-0.7-1.3c0-0.4-0.1-0.9-0.1-1.4s0-1,0.1-1.4c0.1-0.5,0.3-1,0.7-1.3
				c0.4-0.3,0.9-0.5,1.4-0.5s1.1,0.2,1.4,0.5c0.4,0.3,0.6,0.7,0.7,1.3c0,0.3,0.1,0.8,0.1,1.4c0,0.6,0,1.1-0.1,1.4
				c-0.1,0.5-0.3,1-0.7,1.3c-0.4,0.3-0.9,0.5-1.4,0.5S117.6,119.2,117.3,118.9z M119.6,118.3c0.2-0.2,0.4-0.5,0.4-0.8
				c0-0.3,0-0.7,0-1.2c0-0.5,0-0.9,0-1.2c0-0.4-0.2-0.6-0.4-0.8c-0.2-0.2-0.5-0.3-0.9-0.3s-0.6,0.1-0.9,0.3
				c-0.2,0.2-0.4,0.5-0.4,0.8c0,0.3,0,0.7,0,1.2s0,0.9,0,1.2c0,0.4,0.2,0.6,0.4,0.8c0.2,0.2,0.5,0.3,0.9,0.3
				C119.1,118.6,119.3,118.5,119.6,118.3z"/>
			<path class="st4" d="M125.9,113.6c0.4,0.4,0.5,0.9,0.5,1.5v4c0,0.1,0,0.1-0.1,0.1h-0.6c-0.1,0-0.1,0-0.1-0.1v-0.4c0,0,0,0,0,0
				c0,0,0,0,0,0c-0.2,0.2-0.4,0.4-0.7,0.5c-0.3,0.1-0.6,0.2-0.9,0.2c-0.5,0-0.9-0.1-1.3-0.4c-0.4-0.3-0.5-0.7-0.5-1.3
				c0-0.6,0.2-1.1,0.6-1.5s1-0.5,1.7-0.5h1.1c0,0,0,0,0,0v-0.5c0-0.4-0.1-0.7-0.3-1c-0.2-0.2-0.5-0.4-0.9-0.4
				c-0.3,0-0.6,0.1-0.8,0.2c-0.2,0.2-0.3,0.4-0.4,0.6c0,0.1-0.1,0.1-0.1,0.1l-0.7,0c0,0-0.1,0-0.1,0c0,0,0-0.1,0-0.1
				c0.1-0.5,0.3-0.8,0.7-1.1c0.4-0.3,0.9-0.4,1.4-0.4C125,113.1,125.5,113.3,125.9,113.6z M125.1,118.3c0.3-0.2,0.4-0.5,0.4-0.9v-1
				c0,0,0,0,0,0h-1.1c-0.5,0-0.8,0.1-1.1,0.3s-0.4,0.5-0.4,0.9c0,0.4,0.1,0.6,0.3,0.8c0.2,0.2,0.5,0.3,0.8,0.3
				C124.5,118.6,124.8,118.5,125.1,118.3z"/>
			<path class="st4" d="M127.9,119.1V111c0-0.1,0-0.1,0.1-0.1h0.6c0.1,0,0.1,0,0.1,0.1v8.2c0,0.1,0,0.1-0.1,0.1h-0.6
				C128,119.2,127.9,119.2,127.9,119.1z"/>
			<path class="st4" d="M130.5,111.9c-0.1-0.1-0.2-0.3-0.2-0.5c0-0.2,0.1-0.4,0.2-0.5s0.3-0.2,0.5-0.2c0.2,0,0.4,0.1,0.5,0.2
				s0.2,0.3,0.2,0.5c0,0.2-0.1,0.4-0.2,0.5s-0.3,0.2-0.5,0.2C130.8,112.1,130.6,112,130.5,111.9z M130.6,119.1v-5.8
				c0-0.1,0-0.1,0.1-0.1h0.6c0.1,0,0.1,0,0.1,0.1v5.8c0,0.1,0,0.1-0.1,0.1h-0.6C130.6,119.2,130.6,119.2,130.6,119.1z"/>
		</g>
		<g class="st3">
			<path class="st4" d="M140,113.6c0.3,0.4,0.5,0.8,0.5,1.5v4c0,0.1,0,0.1-0.1,0.1h-0.6c-0.1,0-0.1,0-0.1-0.1v-3.9
				c0-0.4-0.1-0.8-0.3-1s-0.5-0.4-0.8-0.4c-0.4,0-0.6,0.1-0.9,0.4s-0.3,0.6-0.3,1v3.9c0,0.1,0,0.1-0.1,0.1h-0.6
				c-0.1,0-0.1,0-0.1-0.1v-3.9c0-0.4-0.1-0.8-0.3-1s-0.5-0.4-0.8-0.4c-0.4,0-0.6,0.1-0.9,0.4c-0.2,0.2-0.3,0.6-0.3,1v3.9
				c0,0.1,0,0.1-0.1,0.1h-0.6c-0.1,0-0.1,0-0.1-0.1v-5.8c0-0.1,0-0.1,0.1-0.1h0.6c0.1,0,0.1,0,0.1,0.1v0.4c0,0,0,0,0,0c0,0,0,0,0,0
				c0.2-0.2,0.4-0.4,0.6-0.5c0.2-0.1,0.5-0.2,0.8-0.2c0.4,0,0.7,0.1,0.9,0.2s0.5,0.4,0.6,0.7c0,0,0,0,0.1,0c0.2-0.3,0.4-0.5,0.7-0.7
				c0.3-0.1,0.6-0.2,0.9-0.2C139.3,113.1,139.7,113.3,140,113.6z"/>
		</g>
		<g class="st3">
			<path class="st4" d="M144.9,118.4c0.2-0.2,0.4-0.4,0.5-0.6c0-0.1,0.1-0.1,0.1-0.1l0.6,0.1c0,0,0.1,0,0.1,0.1c0,0,0,0.1,0,0.1
				c-0.1,0.4-0.4,0.8-0.7,1.1s-0.8,0.4-1.3,0.4c-0.6,0-1.1-0.2-1.4-0.5c-0.4-0.3-0.6-0.7-0.7-1.3c0-0.2-0.1-0.4-0.1-0.7
				c0-0.3,0-0.5,0-0.7s0-0.3,0-0.4c0-0.4,0-0.7,0-1c0.1-0.5,0.3-1,0.7-1.3c0.4-0.3,0.9-0.5,1.4-0.5c0.6,0,1.1,0.2,1.5,0.5
				c0.4,0.4,0.6,0.8,0.6,1.4c0,0.3,0,0.7,0,1.5c0,0.1,0,0.1-0.1,0.1h-3.3c0,0,0,0,0,0c0,0.2,0,0.5,0,0.8c0,0.3,0.2,0.6,0.4,0.8
				s0.5,0.3,0.9,0.3C144.4,118.6,144.6,118.5,144.9,118.4z M143.2,114.1c-0.2,0.2-0.4,0.5-0.4,0.8c0,0.3,0,0.6,0,0.8c0,0,0,0,0,0
				h2.5c0,0,0,0,0,0c0-0.2,0-0.5,0-0.8c0-0.3-0.2-0.6-0.4-0.8c-0.2-0.2-0.5-0.3-0.9-0.3C143.7,113.8,143.4,113.9,143.2,114.1z"/>
			<path class="st4" d="M151.3,113.6c0.3,0.4,0.5,0.8,0.5,1.5v4c0,0.1,0,0.1-0.1,0.1h-0.6c-0.1,0-0.1,0-0.1-0.1v-3.9
				c0-0.4-0.1-0.7-0.3-1c-0.2-0.2-0.5-0.4-0.9-0.4s-0.7,0.1-0.9,0.4s-0.3,0.6-0.3,1v3.9c0,0.1,0,0.1-0.1,0.1h-0.6
				c-0.1,0-0.1,0-0.1-0.1v-5.8c0-0.1,0-0.1,0.1-0.1h0.6c0.1,0,0.1,0,0.1,0.1v0.5c0,0,0,0,0,0c0,0,0,0,0,0c0.3-0.5,0.8-0.7,1.4-0.7
				C150.6,113.1,151,113.3,151.3,113.6z"/>
			<path class="st4" d="M155.8,113.8h-1.1c0,0,0,0,0,0v3.6c0,0.4,0.1,0.6,0.2,0.8c0.1,0.1,0.4,0.2,0.7,0.2h0.2c0.1,0,0.1,0,0.1,0.1
				v0.5c0,0.1,0,0.1-0.1,0.1l-0.4,0c-0.5,0-0.9-0.1-1.2-0.3c-0.3-0.2-0.4-0.6-0.4-1.2v-3.9c0,0,0,0,0,0h-0.6c-0.1,0-0.1,0-0.1-0.1
				v-0.4c0-0.1,0-0.1,0.1-0.1h0.6c0,0,0,0,0,0v-1.4c0-0.1,0-0.1,0.1-0.1h0.6c0.1,0,0.1,0,0.1,0.1v1.4c0,0,0,0,0,0h1.1
				c0.1,0,0.1,0,0.1,0.1v0.4C155.9,113.8,155.8,113.8,155.8,113.8z"/>
			<path class="st4" d="M160.7,113.6c0.4,0.4,0.5,0.9,0.5,1.5v4c0,0.1,0,0.1-0.1,0.1h-0.6c-0.1,0-0.1,0-0.1-0.1v-0.4c0,0,0,0,0,0
				c0,0,0,0,0,0c-0.2,0.2-0.4,0.4-0.7,0.5c-0.3,0.1-0.6,0.2-0.9,0.2c-0.5,0-0.9-0.1-1.3-0.4c-0.4-0.3-0.5-0.7-0.5-1.3
				c0-0.6,0.2-1.1,0.6-1.5s1-0.5,1.7-0.5h1.1c0,0,0,0,0,0v-0.5c0-0.4-0.1-0.7-0.3-1c-0.2-0.2-0.5-0.4-0.9-0.4
				c-0.3,0-0.6,0.1-0.8,0.2c-0.2,0.2-0.3,0.4-0.4,0.6c0,0.1-0.1,0.1-0.1,0.1l-0.7,0c0,0-0.1,0-0.1,0c0,0,0-0.1,0-0.1
				c0.1-0.5,0.3-0.8,0.7-1.1c0.4-0.3,0.9-0.4,1.4-0.4C159.8,113.1,160.3,113.3,160.7,113.6z M159.9,118.3c0.3-0.2,0.4-0.5,0.4-0.9
				v-1c0,0,0,0,0,0h-1.1c-0.5,0-0.8,0.1-1.1,0.3c-0.3,0.2-0.4,0.5-0.4,0.9c0,0.4,0.1,0.6,0.3,0.8c0.2,0.2,0.5,0.3,0.8,0.3
				C159.3,118.6,159.6,118.5,159.9,118.3z"/>
			<path class="st4" d="M163.4,118.9c-0.4-0.3-0.6-0.7-0.7-1.3c0-0.4-0.1-0.9-0.1-1.4c0-0.4,0-0.9,0.1-1.4c0.1-0.5,0.3-0.9,0.7-1.3
				c0.4-0.3,0.9-0.5,1.4-0.5s1,0.2,1.4,0.5c0.4,0.3,0.6,0.7,0.7,1.1l0,0.3v0c0,0,0,0.1,0,0.1c0,0,0,0-0.1,0l-0.6,0
				c-0.1,0-0.1,0-0.1-0.1c0-0.1,0-0.1,0-0.1c0-0.3-0.2-0.5-0.4-0.7c-0.2-0.2-0.5-0.3-0.9-0.3c-0.4,0-0.6,0.1-0.9,0.3
				c-0.2,0.2-0.4,0.5-0.4,0.8c0,0.3-0.1,0.8-0.1,1.2c0,0.5,0,0.9,0.1,1.2c0,0.4,0.2,0.6,0.4,0.8c0.2,0.2,0.5,0.3,0.9,0.3
				s0.6-0.1,0.9-0.3c0.2-0.2,0.4-0.4,0.4-0.7l0-0.1c0-0.1,0.1-0.1,0.1-0.1l0.6,0c0.1,0,0.1,0.1,0.1,0.1v0c0,0,0,0.1,0,0.1
				c-0.1,0.5-0.3,0.9-0.7,1.2c-0.4,0.3-0.9,0.5-1.4,0.5S163.8,119.2,163.4,118.9z"/>
			<path class="st4" d="M168.4,111.9c-0.1-0.1-0.2-0.3-0.2-0.5c0-0.2,0.1-0.4,0.2-0.5s0.3-0.2,0.5-0.2c0.2,0,0.4,0.1,0.5,0.2
				s0.2,0.3,0.2,0.5c0,0.2-0.1,0.4-0.2,0.5s-0.3,0.2-0.5,0.2C168.7,112.1,168.5,112,168.4,111.9z M168.4,119.1v-5.8
				c0-0.1,0-0.1,0.1-0.1h0.6c0.1,0,0.1,0,0.1,0.1v5.8c0,0.1,0,0.1-0.1,0.1h-0.6C168.5,119.2,168.4,119.2,168.4,119.1z"/>
			<path class="st4" d="M171.7,118.9c-0.4-0.3-0.6-0.7-0.7-1.3c0-0.4-0.1-0.9-0.1-1.4s0-1,0.1-1.4c0.1-0.5,0.3-1,0.7-1.3
				c0.4-0.3,0.9-0.5,1.4-0.5s1.1,0.2,1.4,0.5c0.4,0.3,0.6,0.7,0.7,1.3c0,0.3,0.1,0.8,0.1,1.4c0,0.6,0,1.1-0.1,1.4
				c-0.1,0.5-0.3,1-0.7,1.3c-0.4,0.3-0.9,0.5-1.4,0.5S172.1,119.2,171.7,118.9z M174,118.3c0.2-0.2,0.4-0.5,0.4-0.8
				c0-0.3,0-0.7,0-1.2c0-0.5,0-0.9,0-1.2c0-0.4-0.2-0.6-0.4-0.8c-0.2-0.2-0.5-0.3-0.9-0.3c-0.4,0-0.6,0.1-0.9,0.3
				c-0.2,0.2-0.4,0.5-0.4,0.8c0,0.3,0,0.7,0,1.2s0,0.9,0,1.2c0,0.4,0.2,0.6,0.4,0.8c0.2,0.2,0.5,0.3,0.9,0.3
				C173.5,118.6,173.8,118.5,174,118.3z M172.6,112.3c0,0,0-0.1,0-0.1l0.7-1.3c0-0.1,0.1-0.1,0.1-0.1h0.5c0,0,0.1,0,0.1,0
				c0,0,0,0.1,0,0.1l-0.8,1.3c0,0.1-0.1,0.1-0.1,0.1L172.6,112.3C172.7,112.4,172.6,112.4,172.6,112.3z"/>
			<path class="st4" d="M180.5,113.6c0.3,0.4,0.5,0.8,0.5,1.5v4c0,0.1,0,0.1-0.1,0.1h-0.6c-0.1,0-0.1,0-0.1-0.1v-3.9
				c0-0.4-0.1-0.7-0.3-1s-0.5-0.4-0.9-0.4s-0.7,0.1-0.9,0.4c-0.2,0.3-0.3,0.6-0.3,1v3.9c0,0.1,0,0.1-0.1,0.1h-0.6
				c-0.1,0-0.1,0-0.1-0.1v-5.8c0-0.1,0-0.1,0.1-0.1h0.6c0.1,0,0.1,0,0.1,0.1v0.5c0,0,0,0,0,0c0,0,0,0,0,0c0.3-0.5,0.8-0.7,1.4-0.7
				C179.7,113.1,180.1,113.3,180.5,113.6z"/>
		</g>
		<g class="st3">
			<path class="st4" d="M187.8,118.4c0.2-0.2,0.4-0.4,0.5-0.6c0-0.1,0.1-0.1,0.1-0.1l0.6,0.1c0,0,0.1,0,0.1,0.1c0,0,0,0.1,0,0.1
				c-0.1,0.4-0.4,0.8-0.7,1.1c-0.4,0.3-0.8,0.4-1.3,0.4c-0.6,0-1.1-0.2-1.4-0.5c-0.4-0.3-0.6-0.7-0.7-1.3c0-0.2-0.1-0.4-0.1-0.7
				c0-0.3,0-0.5,0-0.7s0-0.3,0-0.4c0-0.4,0-0.7,0-1c0.1-0.5,0.3-1,0.7-1.3s0.9-0.5,1.4-0.5c0.6,0,1.1,0.2,1.5,0.5
				c0.4,0.4,0.6,0.8,0.6,1.4c0,0.3,0,0.7,0,1.5c0,0.1,0,0.1-0.1,0.1h-3.3c0,0,0,0,0,0c0,0.2,0,0.5,0,0.8c0,0.3,0.2,0.6,0.4,0.8
				c0.2,0.2,0.5,0.3,0.9,0.3C187.3,118.6,187.6,118.5,187.8,118.4z M186.1,114.1c-0.2,0.2-0.4,0.5-0.4,0.8c0,0.3,0,0.6,0,0.8
				c0,0,0,0,0,0h2.5c0,0,0,0,0,0c0-0.2,0-0.5,0-0.8c0-0.3-0.2-0.6-0.4-0.8c-0.2-0.2-0.5-0.3-0.9-0.3
				C186.6,113.8,186.3,113.9,186.1,114.1z"/>
		</g>
		<g class="st3">
			<path class="st4" d="M192,111.8c-0.1,0.2-0.2,0.5-0.2,1v0.3c0,0,0,0,0,0h1.1c0.1,0,0.1,0,0.1,0.1v0.5c0,0.1,0,0.1-0.1,0.1h-1.1
				c0,0,0,0,0,0v5.2c0,0.1,0,0.1-0.1,0.1H191c-0.1,0-0.1,0-0.1-0.1v-5.2c0,0,0,0,0,0h-0.6c-0.1,0-0.1,0-0.1-0.1v-0.5
				c0-0.1,0-0.1,0.1-0.1h0.6c0,0,0,0,0,0v-0.3c0-0.7,0.1-1.2,0.4-1.5c0.3-0.3,0.7-0.5,1.4-0.5h0.3c0.1,0,0.1,0,0.1,0.1v0.5
				c0,0.1,0,0.1-0.1,0.1h-0.2C192.4,111.5,192.1,111.6,192,111.8z"/>
		</g>
		<g class="st3">
			<path class="st4" d="M196.9,118.4c0.2-0.2,0.4-0.4,0.5-0.6c0-0.1,0.1-0.1,0.1-0.1l0.6,0.1c0,0,0.1,0,0.1,0.1c0,0,0,0.1,0,0.1
				c-0.1,0.4-0.4,0.8-0.7,1.1c-0.4,0.3-0.8,0.4-1.3,0.4c-0.6,0-1.1-0.2-1.4-0.5c-0.4-0.3-0.6-0.7-0.7-1.3c0-0.2-0.1-0.4-0.1-0.7
				c0-0.3,0-0.5,0-0.7s0-0.3,0-0.4c0-0.4,0-0.7,0-1c0.1-0.5,0.3-1,0.7-1.3c0.4-0.3,0.9-0.5,1.4-0.5c0.6,0,1.1,0.2,1.5,0.5
				c0.4,0.4,0.6,0.8,0.6,1.4c0,0.3,0,0.7,0,1.5c0,0.1,0,0.1-0.1,0.1h-3.3c0,0,0,0,0,0c0,0.2,0,0.5,0,0.8c0,0.3,0.2,0.6,0.4,0.8
				c0.2,0.2,0.5,0.3,0.9,0.3C196.4,118.6,196.7,118.5,196.9,118.4z M195.2,114.1c-0.2,0.2-0.4,0.5-0.4,0.8c0,0.3,0,0.6,0,0.8
				c0,0,0,0,0,0h2.5c0,0,0,0,0,0c0-0.2,0-0.5,0-0.8c0-0.3-0.2-0.6-0.4-0.8c-0.2-0.2-0.5-0.3-0.9-0.3
				C195.7,113.8,195.4,113.9,195.2,114.1z"/>
		</g>
		<g class="st3">
			<path class="st4" d="M200.3,118.9c-0.4-0.3-0.6-0.7-0.7-1.3c0-0.4-0.1-0.9-0.1-1.4c0-0.4,0-0.9,0.1-1.4c0.1-0.5,0.3-0.9,0.7-1.3
				c0.4-0.3,0.9-0.5,1.4-0.5s1,0.2,1.4,0.5c0.4,0.3,0.6,0.7,0.7,1.1l0,0.3v0c0,0,0,0.1,0,0.1c0,0,0,0-0.1,0l-0.6,0
				c-0.1,0-0.1,0-0.1-0.1c0-0.1,0-0.1,0-0.1c0-0.3-0.2-0.5-0.4-0.7c-0.2-0.2-0.5-0.3-0.9-0.3c-0.4,0-0.6,0.1-0.9,0.3
				c-0.2,0.2-0.4,0.5-0.4,0.8c0,0.3-0.1,0.8-0.1,1.2c0,0.5,0,0.9,0.1,1.2c0,0.4,0.2,0.6,0.4,0.8c0.2,0.2,0.5,0.3,0.9,0.3
				s0.6-0.1,0.9-0.3c0.2-0.2,0.4-0.4,0.4-0.7l0-0.1c0-0.1,0.1-0.1,0.1-0.1l0.6,0c0.1,0,0.1,0.1,0.1,0.1v0c0,0,0,0.1,0,0.1
				c-0.1,0.5-0.3,0.9-0.7,1.2c-0.4,0.3-0.9,0.5-1.4,0.5S200.7,119.2,200.3,118.9z"/>
		</g>
		<g class="st3">
			<path class="st4" d="M207.6,113.8h-1.1c0,0,0,0,0,0v3.6c0,0.4,0.1,0.6,0.2,0.8c0.1,0.1,0.4,0.2,0.7,0.2h0.2c0.1,0,0.1,0,0.1,0.1
				v0.5c0,0.1,0,0.1-0.1,0.1l-0.4,0c-0.5,0-0.9-0.1-1.2-0.3c-0.3-0.2-0.4-0.6-0.4-1.2v-3.9c0,0,0,0,0,0h-0.6c-0.1,0-0.1,0-0.1-0.1
				v-0.4c0-0.1,0-0.1,0.1-0.1h0.6c0,0,0,0,0,0v-1.4c0-0.1,0-0.1,0.1-0.1h0.6c0.1,0,0.1,0,0.1,0.1v1.4c0,0,0,0,0,0h1.1
				c0.1,0,0.1,0,0.1,0.1v0.4C207.7,113.8,207.6,113.8,207.6,113.8z"/>
			<path class="st4" d="M209.1,111.9c-0.1-0.1-0.2-0.3-0.2-0.5c0-0.2,0.1-0.4,0.2-0.5s0.3-0.2,0.5-0.2c0.2,0,0.4,0.1,0.5,0.2
				s0.2,0.3,0.2,0.5c0,0.2-0.1,0.4-0.2,0.5s-0.3,0.2-0.5,0.2C209.4,112.1,209.2,112,209.1,111.9z M209.1,119.1v-5.8
				c0-0.1,0-0.1,0.1-0.1h0.6c0.1,0,0.1,0,0.1,0.1v5.8c0,0.1,0,0.1-0.1,0.1h-0.6C209.2,119.2,209.1,119.2,209.1,119.1z"/>
		</g>
		<g class="st3">
			<path class="st4" d="M213.1,119.2l-1.7-5.8l0,0c0-0.1,0-0.1,0.1-0.1h0.7c0.1,0,0.1,0,0.1,0.1l1.3,4.7c0,0,0,0,0,0c0,0,0,0,0,0
				l1.3-4.7c0-0.1,0.1-0.1,0.1-0.1l0.7,0c0,0,0.1,0,0.1,0c0,0,0,0.1,0,0.1l-1.7,5.8c0,0.1-0.1,0.1-0.1,0.1h-0.7
				C213.1,119.2,213.1,119.2,213.1,119.2z"/>
		</g>
		<g class="st3">
			<path class="st4" d="M220.3,113.6c0.4,0.4,0.5,0.9,0.5,1.5v4c0,0.1,0,0.1-0.1,0.1h-0.6c-0.1,0-0.1,0-0.1-0.1v-0.4c0,0,0,0,0,0
				c0,0,0,0,0,0c-0.2,0.2-0.4,0.4-0.7,0.5c-0.3,0.1-0.6,0.2-0.9,0.2c-0.5,0-0.9-0.1-1.3-0.4c-0.4-0.3-0.5-0.7-0.5-1.3
				c0-0.6,0.2-1.1,0.6-1.5s1-0.5,1.7-0.5h1.1c0,0,0,0,0,0v-0.5c0-0.4-0.1-0.7-0.3-1c-0.2-0.2-0.5-0.4-0.9-0.4
				c-0.3,0-0.6,0.1-0.8,0.2c-0.2,0.2-0.3,0.4-0.4,0.6c0,0.1-0.1,0.1-0.1,0.1l-0.7,0c0,0-0.1,0-0.1,0c0,0,0-0.1,0-0.1
				c0.1-0.5,0.3-0.8,0.7-1.1c0.4-0.3,0.9-0.4,1.4-0.4C219.4,113.1,219.9,113.3,220.3,113.6z M219.5,118.3c0.3-0.2,0.4-0.5,0.4-0.9
				v-1c0,0,0,0,0,0h-1.1c-0.5,0-0.8,0.1-1.1,0.3c-0.3,0.2-0.4,0.5-0.4,0.9c0,0.4,0.1,0.6,0.3,0.8c0.2,0.2,0.5,0.3,0.8,0.3
				C218.9,118.6,219.2,118.5,219.5,118.3z"/>
		</g>
		<g class="st3">
			<path class="st4" d="M54.1,132.8c0.2-0.2,0.4-0.4,0.5-0.6c0-0.1,0.1-0.1,0.1-0.1l0.6,0.1c0,0,0.1,0,0.1,0.1c0,0,0,0.1,0,0.1
				c-0.1,0.4-0.4,0.8-0.7,1.1s-0.8,0.4-1.3,0.4c-0.6,0-1.1-0.2-1.4-0.5c-0.4-0.3-0.6-0.7-0.7-1.3c0-0.2-0.1-0.4-0.1-0.7
				c0-0.3,0-0.5,0-0.7s0-0.3,0-0.4c0-0.4,0-0.7,0-1c0.1-0.5,0.3-1,0.7-1.3c0.4-0.3,0.9-0.5,1.4-0.5c0.6,0,1.1,0.2,1.5,0.5
				c0.4,0.4,0.6,0.8,0.6,1.4c0,0.3,0,0.7,0,1.5c0,0.1,0,0.1-0.1,0.1H52c0,0,0,0,0,0c0,0.2,0,0.5,0,0.8c0,0.3,0.2,0.6,0.4,0.8
				s0.5,0.3,0.9,0.3C53.6,133,53.9,132.9,54.1,132.8z M52.4,128.5c-0.2,0.2-0.4,0.5-0.4,0.8c0,0.3,0,0.6,0,0.8c0,0,0,0,0,0h2.5
				c0,0,0,0,0,0c0-0.2,0-0.5,0-0.8c0-0.3-0.2-0.6-0.4-0.8c-0.2-0.2-0.5-0.3-0.9-0.3C52.9,128.2,52.6,128.3,52.4,128.5z"/>
		</g>
		<g class="st3">
			<path class="st4" d="M57.1,133.3c-0.4-0.3-0.6-0.7-0.6-1.1V132c0-0.1,0-0.1,0.1-0.1h0.6c0.1,0,0.1,0,0.1,0.1v0.1
				c0,0.3,0.1,0.5,0.3,0.7c0.2,0.2,0.5,0.3,0.9,0.3c0.4,0,0.6-0.1,0.9-0.3c0.2-0.2,0.3-0.4,0.3-0.7c0-0.2-0.1-0.4-0.2-0.5
				c-0.1-0.1-0.3-0.2-0.4-0.3c-0.2-0.1-0.4-0.2-0.7-0.3c-0.4-0.1-0.7-0.3-0.9-0.4c-0.2-0.1-0.5-0.3-0.6-0.5
				c-0.2-0.2-0.3-0.5-0.3-0.9c0-0.5,0.2-0.9,0.5-1.2c0.4-0.3,0.8-0.5,1.4-0.5c0.6,0,1.1,0.2,1.5,0.5c0.4,0.3,0.5,0.7,0.5,1.2v0
				c0,0.1,0,0.1-0.1,0.1h-0.6c-0.1,0-0.1,0-0.1-0.1v0c0-0.3-0.1-0.5-0.3-0.7c-0.2-0.2-0.5-0.3-0.9-0.3c-0.3,0-0.6,0.1-0.8,0.3
				s-0.3,0.4-0.3,0.7c0,0.3,0.1,0.5,0.3,0.6s0.5,0.3,1,0.5c0.4,0.1,0.7,0.3,1,0.4s0.5,0.3,0.7,0.5c0.2,0.2,0.3,0.5,0.3,0.9
				c0,0.5-0.2,0.9-0.6,1.2c-0.4,0.3-0.9,0.5-1.5,0.5S57.5,133.6,57.1,133.3z"/>
			<path class="st4" d="M67.7,127.6h0.6c0.1,0,0.1,0,0.1,0.1v5.8c0,0.1,0,0.1-0.1,0.1h-0.6c-0.1,0-0.1,0-0.1-0.1v-0.5c0,0,0,0,0,0
				c0,0,0,0,0,0c-0.3,0.5-0.7,0.7-1.4,0.7c-0.5,0-1-0.2-1.3-0.5c-0.3-0.3-0.5-0.8-0.5-1.4v-4.2c0-0.1,0-0.1,0.1-0.1H65
				c0.1,0,0.1,0,0.1,0.1v3.9c0,0.4,0.1,0.8,0.3,1c0.2,0.2,0.5,0.4,0.9,0.4c0.4,0,0.7-0.1,0.9-0.4s0.3-0.6,0.3-1v-3.9
				C67.6,127.6,67.6,127.6,67.7,127.6z"/>
			<path class="st4" d="M70.4,133.3c-0.4-0.3-0.6-0.7-0.6-1.1V132c0-0.1,0-0.1,0.1-0.1h0.6c0.1,0,0.1,0,0.1,0.1v0.1
				c0,0.3,0.1,0.5,0.3,0.7c0.2,0.2,0.5,0.3,0.9,0.3c0.4,0,0.6-0.1,0.9-0.3c0.2-0.2,0.3-0.4,0.3-0.7c0-0.2-0.1-0.4-0.2-0.5
				c-0.1-0.1-0.3-0.2-0.4-0.3c-0.2-0.1-0.4-0.2-0.7-0.3c-0.4-0.1-0.7-0.3-0.9-0.4c-0.2-0.1-0.5-0.3-0.6-0.5
				c-0.2-0.2-0.3-0.5-0.3-0.9c0-0.5,0.2-0.9,0.5-1.2c0.4-0.3,0.8-0.5,1.4-0.5c0.6,0,1.1,0.2,1.5,0.5c0.4,0.3,0.5,0.7,0.5,1.2v0
				c0,0.1,0,0.1-0.1,0.1h-0.6c-0.1,0-0.1,0-0.1-0.1v0c0-0.3-0.1-0.5-0.3-0.7c-0.2-0.2-0.5-0.3-0.9-0.3c-0.3,0-0.6,0.1-0.8,0.3
				s-0.3,0.4-0.3,0.7c0,0.3,0.1,0.5,0.3,0.6s0.5,0.3,1,0.5c0.4,0.1,0.7,0.3,1,0.4s0.5,0.3,0.7,0.5c0.2,0.2,0.3,0.5,0.3,0.9
				c0,0.5-0.2,0.9-0.6,1.2c-0.4,0.3-0.9,0.5-1.5,0.5S70.8,133.6,70.4,133.3z"/>
			<path class="st4" d="M78.6,127.6h0.6c0.1,0,0.1,0,0.1,0.1v5.8c0,0.1,0,0.1-0.1,0.1h-0.6c-0.1,0-0.1,0-0.1-0.1v-0.5c0,0,0,0,0,0
				c0,0,0,0,0,0c-0.3,0.5-0.7,0.7-1.4,0.7c-0.5,0-1-0.2-1.3-0.5c-0.3-0.3-0.5-0.8-0.5-1.4v-4.2c0-0.1,0-0.1,0.1-0.1h0.6
				c0.1,0,0.1,0,0.1,0.1v3.9c0,0.4,0.1,0.8,0.3,1c0.2,0.2,0.5,0.4,0.9,0.4c0.4,0,0.7-0.1,0.9-0.4s0.3-0.6,0.3-1v-3.9
				C78.5,127.6,78.5,127.6,78.6,127.6z"/>
			<path class="st4" d="M84.5,128c0.4,0.4,0.5,0.9,0.5,1.5v4c0,0.1,0,0.1-0.1,0.1h-0.6c-0.1,0-0.1,0-0.1-0.1v-0.4c0,0,0,0,0,0
				c0,0,0,0,0,0c-0.2,0.2-0.4,0.4-0.7,0.5c-0.3,0.1-0.6,0.2-0.9,0.2c-0.5,0-0.9-0.1-1.3-0.4c-0.4-0.3-0.5-0.7-0.5-1.3
				c0-0.6,0.2-1.1,0.6-1.5s1-0.5,1.7-0.5h1.1c0,0,0,0,0,0v-0.5c0-0.4-0.1-0.7-0.3-1c-0.2-0.2-0.5-0.4-0.9-0.4
				c-0.3,0-0.6,0.1-0.8,0.2c-0.2,0.2-0.3,0.4-0.4,0.6c0,0.1-0.1,0.1-0.1,0.1l-0.7,0c0,0-0.1,0-0.1,0c0,0,0-0.1,0-0.1
				c0.1-0.5,0.3-0.8,0.7-1.1c0.4-0.3,0.9-0.4,1.4-0.4C83.6,127.5,84.1,127.7,84.5,128z M83.7,132.7c0.3-0.2,0.4-0.5,0.4-0.9v-1
				c0,0,0,0,0,0h-1.1c-0.5,0-0.8,0.1-1.1,0.3s-0.4,0.5-0.4,0.9c0,0.4,0.1,0.6,0.3,0.8c0.2,0.2,0.5,0.3,0.8,0.3
				C83.1,133,83.4,132.9,83.7,132.7z"/>
			<path class="st4" d="M86.5,133.5v-8.2c0-0.1,0-0.1,0.1-0.1h0.6c0.1,0,0.1,0,0.1,0.1v8.2c0,0.1,0,0.1-0.1,0.1h-0.6
				C86.6,133.7,86.5,133.6,86.5,133.5z"/>
		</g>
		<g class="st3">
			<path class="st4" d="M95.8,128c0.3,0.4,0.5,0.8,0.5,1.5v4c0,0.1,0,0.1-0.1,0.1h-0.6c-0.1,0-0.1,0-0.1-0.1v-3.9
				c0-0.4-0.1-0.8-0.3-1s-0.5-0.4-0.8-0.4c-0.4,0-0.6,0.1-0.9,0.4s-0.3,0.6-0.3,1v3.9c0,0.1,0,0.1-0.1,0.1h-0.6
				c-0.1,0-0.1,0-0.1-0.1v-3.9c0-0.4-0.1-0.8-0.3-1s-0.5-0.4-0.8-0.4c-0.4,0-0.6,0.1-0.9,0.4c-0.2,0.2-0.3,0.6-0.3,1v3.9
				c0,0.1,0,0.1-0.1,0.1h-0.6c-0.1,0-0.1,0-0.1-0.1v-5.8c0-0.1,0-0.1,0.1-0.1h0.6c0.1,0,0.1,0,0.1,0.1v0.4c0,0,0,0,0,0c0,0,0,0,0,0
				c0.2-0.2,0.4-0.4,0.6-0.5c0.2-0.1,0.5-0.2,0.8-0.2c0.4,0,0.7,0.1,0.9,0.2s0.5,0.4,0.6,0.7c0,0,0,0,0.1,0c0.2-0.3,0.4-0.5,0.7-0.7
				c0.3-0.1,0.6-0.2,0.9-0.2C95.1,127.5,95.5,127.7,95.8,128z"/>
		</g>
		<g class="st3">
			<path class="st4" d="M100.7,132.8c0.2-0.2,0.4-0.4,0.5-0.6c0-0.1,0.1-0.1,0.1-0.1l0.6,0.1c0,0,0.1,0,0.1,0.1c0,0,0,0.1,0,0.1
				c-0.1,0.4-0.4,0.8-0.7,1.1s-0.8,0.4-1.3,0.4c-0.6,0-1.1-0.2-1.4-0.5c-0.4-0.3-0.6-0.7-0.7-1.3c0-0.2-0.1-0.4-0.1-0.7
				c0-0.3,0-0.5,0-0.7s0-0.3,0-0.4c0-0.4,0-0.7,0-1c0.1-0.5,0.3-1,0.7-1.3c0.4-0.3,0.9-0.5,1.4-0.5c0.6,0,1.1,0.2,1.5,0.5
				c0.4,0.4,0.6,0.8,0.6,1.4c0,0.3,0,0.7,0,1.5c0,0.1,0,0.1-0.1,0.1h-3.3c0,0,0,0,0,0c0,0.2,0,0.5,0,0.8c0,0.3,0.2,0.6,0.4,0.8
				s0.5,0.3,0.9,0.3C100.2,133,100.5,132.9,100.7,132.8z M99,128.5c-0.2,0.2-0.4,0.5-0.4,0.8c0,0.3,0,0.6,0,0.8c0,0,0,0,0,0h2.5
				c0,0,0,0,0,0c0-0.2,0-0.5,0-0.8c0-0.3-0.2-0.6-0.4-0.8c-0.2-0.2-0.5-0.3-0.9-0.3C99.5,128.2,99.2,128.3,99,128.5z"/>
			<path class="st4" d="M107.2,128c0.3,0.4,0.5,0.8,0.5,1.5v4c0,0.1,0,0.1-0.1,0.1h-0.6c-0.1,0-0.1,0-0.1-0.1v-3.9
				c0-0.4-0.1-0.7-0.3-1c-0.2-0.2-0.5-0.4-0.9-0.4s-0.7,0.1-0.9,0.4s-0.3,0.6-0.3,1v3.9c0,0.1,0,0.1-0.1,0.1h-0.6
				c-0.1,0-0.1,0-0.1-0.1v-5.8c0-0.1,0-0.1,0.1-0.1h0.6c0.1,0,0.1,0,0.1,0.1v0.5c0,0,0,0,0,0c0,0,0,0,0,0c0.3-0.5,0.8-0.7,1.4-0.7
				C106.4,127.5,106.8,127.7,107.2,128z"/>
		</g>
		<g class="st3">
			<path class="st4" d="M111.6,128.2h-1.1c0,0,0,0,0,0v3.6c0,0.4,0.1,0.6,0.2,0.8c0.1,0.1,0.4,0.2,0.7,0.2h0.2c0.1,0,0.1,0,0.1,0.1
				v0.5c0,0.1,0,0.1-0.1,0.1l-0.4,0c-0.5,0-0.9-0.1-1.2-0.3s-0.4-0.6-0.4-1.2v-3.9c0,0,0,0,0,0h-0.6c-0.1,0-0.1,0-0.1-0.1v-0.4
				c0-0.1,0-0.1,0.1-0.1h0.6c0,0,0,0,0,0v-1.4c0-0.1,0-0.1,0.1-0.1h0.6c0.1,0,0.1,0,0.1,0.1v1.4c0,0,0,0,0,0h1.1
				c0.1,0,0.1,0,0.1,0.1v0.4C111.7,128.2,111.7,128.2,111.6,128.2z"/>
		</g>
		<g class="st3">
			<path class="st4" d="M115.8,132.8c0.2-0.2,0.4-0.4,0.5-0.6c0-0.1,0.1-0.1,0.1-0.1l0.6,0.1c0,0,0.1,0,0.1,0.1c0,0,0,0.1,0,0.1
				c-0.1,0.4-0.4,0.8-0.7,1.1s-0.8,0.4-1.3,0.4c-0.6,0-1.1-0.2-1.4-0.5c-0.4-0.3-0.6-0.7-0.7-1.3c0-0.2-0.1-0.4-0.1-0.7
				c0-0.3,0-0.5,0-0.7s0-0.3,0-0.4c0-0.4,0-0.7,0-1c0.1-0.5,0.3-1,0.7-1.3c0.4-0.3,0.9-0.5,1.4-0.5c0.6,0,1.1,0.2,1.5,0.5
				c0.4,0.4,0.6,0.8,0.6,1.4c0,0.3,0,0.7,0,1.5c0,0.1,0,0.1-0.1,0.1h-3.3c0,0,0,0,0,0c0,0.2,0,0.5,0,0.8c0,0.3,0.2,0.6,0.4,0.8
				s0.5,0.3,0.9,0.3C115.3,133,115.6,132.9,115.8,132.8z M114.1,128.5c-0.2,0.2-0.4,0.5-0.4,0.8c0,0.3,0,0.6,0,0.8c0,0,0,0,0,0h2.5
				c0,0,0,0,0,0c0-0.2,0-0.5,0-0.8c0-0.3-0.2-0.6-0.4-0.8c-0.2-0.2-0.5-0.3-0.9-0.3C114.6,128.2,114.3,128.3,114.1,128.5z"/>
		</g>
		<g class="st3">
			<path class="st4" d="M123.8,132.8c0.2-0.2,0.4-0.4,0.5-0.6c0-0.1,0.1-0.1,0.1-0.1l0.6,0.1c0,0,0.1,0,0.1,0.1c0,0,0,0.1,0,0.1
				c-0.1,0.4-0.4,0.8-0.7,1.1s-0.8,0.4-1.3,0.4c-0.6,0-1.1-0.2-1.4-0.5c-0.4-0.3-0.6-0.7-0.7-1.3c0-0.2-0.1-0.4-0.1-0.7
				c0-0.3,0-0.5,0-0.7s0-0.3,0-0.4c0-0.4,0-0.7,0-1c0.1-0.5,0.3-1,0.7-1.3c0.4-0.3,0.9-0.5,1.4-0.5c0.6,0,1.1,0.2,1.5,0.5
				c0.4,0.4,0.6,0.8,0.6,1.4c0,0.3,0,0.7,0,1.5c0,0.1,0,0.1-0.1,0.1h-3.3c0,0,0,0,0,0c0,0.2,0,0.5,0,0.8c0,0.3,0.2,0.6,0.4,0.8
				s0.5,0.3,0.9,0.3C123.4,133,123.6,132.9,123.8,132.8z M122.1,128.5c-0.2,0.2-0.4,0.5-0.4,0.8c0,0.3,0,0.6,0,0.8c0,0,0,0,0,0h2.5
				c0,0,0,0,0,0c0-0.2,0-0.5,0-0.8c0-0.3-0.2-0.6-0.4-0.8c-0.2-0.2-0.5-0.3-0.9-0.3C122.7,128.2,122.4,128.3,122.1,128.5z"/>
		</g>
		<g class="st3">
			<path class="st4" d="M126.9,133.3c-0.4-0.3-0.6-0.7-0.6-1.1V132c0-0.1,0-0.1,0.1-0.1h0.6c0.1,0,0.1,0,0.1,0.1v0.1
				c0,0.3,0.1,0.5,0.3,0.7c0.2,0.2,0.5,0.3,0.9,0.3c0.4,0,0.6-0.1,0.9-0.3c0.2-0.2,0.3-0.4,0.3-0.7c0-0.2-0.1-0.4-0.2-0.5
				c-0.1-0.1-0.3-0.2-0.4-0.3c-0.2-0.1-0.4-0.2-0.7-0.3c-0.4-0.1-0.7-0.3-0.9-0.4c-0.2-0.1-0.5-0.3-0.6-0.5
				c-0.2-0.2-0.3-0.5-0.3-0.9c0-0.5,0.2-0.9,0.5-1.2c0.4-0.3,0.8-0.5,1.4-0.5c0.6,0,1.1,0.2,1.5,0.5c0.4,0.3,0.5,0.7,0.5,1.2v0
				c0,0.1,0,0.1-0.1,0.1h-0.6c-0.1,0-0.1,0-0.1-0.1v0c0-0.3-0.1-0.5-0.3-0.7c-0.2-0.2-0.5-0.3-0.9-0.3c-0.3,0-0.6,0.1-0.8,0.3
				s-0.3,0.4-0.3,0.7c0,0.3,0.1,0.5,0.3,0.6s0.5,0.3,1,0.5c0.4,0.1,0.7,0.3,1,0.4s0.5,0.3,0.7,0.5c0.2,0.2,0.3,0.5,0.3,0.9
				c0,0.5-0.2,0.9-0.6,1.2c-0.4,0.3-0.9,0.5-1.5,0.5S127.2,133.6,126.9,133.3z"/>
			<path class="st4" d="M134.5,132.8c0.2-0.2,0.4-0.4,0.5-0.6c0-0.1,0.1-0.1,0.1-0.1l0.6,0.1c0,0,0.1,0,0.1,0.1c0,0,0,0.1,0,0.1
				c-0.1,0.4-0.4,0.8-0.7,1.1s-0.8,0.4-1.3,0.4c-0.6,0-1.1-0.2-1.4-0.5c-0.4-0.3-0.6-0.7-0.7-1.3c0-0.2-0.1-0.4-0.1-0.7
				c0-0.3,0-0.5,0-0.7s0-0.3,0-0.4c0-0.4,0-0.7,0-1c0.1-0.5,0.3-1,0.7-1.3c0.4-0.3,0.9-0.5,1.4-0.5c0.6,0,1.1,0.2,1.5,0.5
				c0.4,0.4,0.6,0.8,0.6,1.4c0,0.3,0,0.7,0,1.5c0,0.1,0,0.1-0.1,0.1h-3.3c0,0,0,0,0,0c0,0.2,0,0.5,0,0.8c0,0.3,0.2,0.6,0.4,0.8
				s0.5,0.3,0.9,0.3C134.1,133,134.3,132.9,134.5,132.8z M132.8,128.5c-0.2,0.2-0.4,0.5-0.4,0.8c0,0.3,0,0.6,0,0.8c0,0,0,0,0,0h2.5
				c0,0,0,0,0,0c0-0.2,0-0.5,0-0.8c0-0.3-0.2-0.6-0.4-0.8c-0.2-0.2-0.5-0.3-0.9-0.3C133.4,128.2,133.1,128.3,132.8,128.5z"/>
		</g>
		<g class="st3">
			<path class="st4" d="M141,128c0.3,0.4,0.5,0.8,0.5,1.5v4c0,0.1,0,0.1-0.1,0.1h-0.6c-0.1,0-0.1,0-0.1-0.1v-3.9
				c0-0.4-0.1-0.7-0.3-1c-0.2-0.2-0.5-0.4-0.9-0.4s-0.7,0.1-0.9,0.4s-0.3,0.6-0.3,1v3.9c0,0.1,0,0.1-0.1,0.1h-0.6
				c-0.1,0-0.1,0-0.1-0.1v-5.8c0-0.1,0-0.1,0.1-0.1h0.6c0.1,0,0.1,0,0.1,0.1v0.5c0,0,0,0,0,0c0,0,0,0,0,0c0.3-0.5,0.8-0.7,1.4-0.7
				C140.3,127.5,140.7,127.7,141,128z"/>
		</g>
		<g class="st3">
			<path class="st4" d="M143.7,133.3c-0.4-0.3-0.6-0.7-0.7-1.3c0-0.4-0.1-0.9-0.1-1.4c0-0.4,0-0.9,0.1-1.4c0.1-0.5,0.3-0.9,0.7-1.3
				c0.4-0.3,0.9-0.5,1.4-0.5c0.6,0,1,0.2,1.4,0.5s0.6,0.7,0.7,1.1l0,0.3v0c0,0,0,0.1,0,0.1c0,0,0,0-0.1,0l-0.6,0
				c-0.1,0-0.1,0-0.1-0.1c0-0.1,0-0.1,0-0.1c0-0.3-0.2-0.5-0.4-0.7c-0.2-0.2-0.5-0.3-0.9-0.3c-0.4,0-0.6,0.1-0.9,0.3
				c-0.2,0.2-0.4,0.5-0.4,0.8s-0.1,0.8-0.1,1.2c0,0.5,0,0.9,0.1,1.2c0,0.4,0.2,0.6,0.4,0.8c0.2,0.2,0.5,0.3,0.9,0.3
				c0.4,0,0.6-0.1,0.9-0.3c0.2-0.2,0.4-0.4,0.4-0.7l0-0.1c0-0.1,0.1-0.1,0.1-0.1l0.6,0c0.1,0,0.1,0.1,0.1,0.1v0c0,0,0,0.1,0,0.1
				c-0.1,0.5-0.3,0.9-0.7,1.2c-0.4,0.3-0.9,0.5-1.4,0.5C144.5,133.7,144.1,133.6,143.7,133.3z"/>
			<path class="st4" d="M148.7,126.3c-0.1-0.1-0.2-0.3-0.2-0.5c0-0.2,0.1-0.4,0.2-0.5s0.3-0.2,0.5-0.2c0.2,0,0.4,0.1,0.5,0.2
				s0.2,0.3,0.2,0.5c0,0.2-0.1,0.4-0.2,0.5s-0.3,0.2-0.5,0.2C149,126.5,148.8,126.4,148.7,126.3z M148.7,133.5v-5.8
				c0-0.1,0-0.1,0.1-0.1h0.6c0.1,0,0.1,0,0.1,0.1v5.8c0,0.1,0,0.1-0.1,0.1h-0.6C148.8,133.7,148.7,133.6,148.7,133.5z"/>
			<path class="st4" d="M154.8,128c0.4,0.4,0.5,0.9,0.5,1.5v4c0,0.1,0,0.1-0.1,0.1h-0.6c-0.1,0-0.1,0-0.1-0.1v-0.4c0,0,0,0,0,0
				c0,0,0,0,0,0c-0.2,0.2-0.4,0.4-0.7,0.5c-0.3,0.1-0.6,0.2-0.9,0.2c-0.5,0-0.9-0.1-1.3-0.4c-0.4-0.3-0.5-0.7-0.5-1.3
				c0-0.6,0.2-1.1,0.6-1.5s1-0.5,1.7-0.5h1.1c0,0,0,0,0,0v-0.5c0-0.4-0.1-0.7-0.3-1c-0.2-0.2-0.5-0.4-0.9-0.4
				c-0.3,0-0.6,0.1-0.8,0.2c-0.2,0.2-0.3,0.4-0.4,0.6c0,0.1-0.1,0.1-0.1,0.1l-0.7,0c0,0-0.1,0-0.1,0c0,0,0-0.1,0-0.1
				c0.1-0.5,0.3-0.8,0.7-1.1c0.4-0.3,0.9-0.4,1.4-0.4C154,127.5,154.5,127.7,154.8,128z M154.1,132.7c0.3-0.2,0.4-0.5,0.4-0.9v-1
				c0,0,0,0,0,0h-1.1c-0.5,0-0.8,0.1-1.1,0.3c-0.3,0.2-0.4,0.5-0.4,0.9c0,0.4,0.1,0.6,0.3,0.8c0.2,0.2,0.5,0.3,0.8,0.3
				C153.5,133,153.8,132.9,154.1,132.7z"/>
			<path class="st4" d="M156.9,133.5v-8.2c0-0.1,0-0.1,0.1-0.1h0.6c0.1,0,0.1,0,0.1,0.1v8.2c0,0.1,0,0.1-0.1,0.1H157
				C156.9,133.7,156.9,133.6,156.9,133.5z"/>
			<path class="st4" d="M166.2,130.6c0,0.5,0,1-0.1,1.4c-0.1,0.6-0.4,1-0.7,1.3c-0.3,0.3-0.8,0.4-1.3,0.4c-0.3,0-0.6-0.1-0.8-0.2
				s-0.4-0.3-0.5-0.5c0,0,0,0,0,0c0,0,0,0,0,0v2.8c0,0.1,0,0.1-0.1,0.1H162c-0.1,0-0.1,0-0.1-0.1v-8.2c0-0.1,0-0.1,0.1-0.1h0.6
				c0.1,0,0.1,0,0.1,0.1v0.5c0,0,0,0,0,0c0,0,0,0,0,0c0.3-0.5,0.7-0.7,1.4-0.7c0.5,0,0.9,0.1,1.2,0.4c0.3,0.3,0.5,0.7,0.7,1.3
				C166.2,129.6,166.2,130.1,166.2,130.6z M165.4,130.6c0-0.6-0.1-1.1-0.2-1.5c-0.1-0.3-0.2-0.5-0.4-0.7c-0.2-0.2-0.4-0.2-0.7-0.2
				c-0.3,0-0.5,0.1-0.7,0.2c-0.2,0.2-0.3,0.4-0.4,0.7c-0.1,0.4-0.2,0.9-0.2,1.5c0,0.7,0.1,1.2,0.2,1.5c0.1,0.3,0.2,0.5,0.4,0.6
				c0.2,0.1,0.4,0.2,0.6,0.2c0.5,0,0.9-0.3,1.1-0.8C165.3,131.8,165.4,131.3,165.4,130.6z"/>
			<path class="st4" d="M171.1,128c0.4,0.4,0.5,0.9,0.5,1.5v4c0,0.1,0,0.1-0.1,0.1H171c-0.1,0-0.1,0-0.1-0.1v-0.4c0,0,0,0,0,0
				s0,0,0,0c-0.2,0.2-0.4,0.4-0.7,0.5c-0.3,0.1-0.6,0.2-0.9,0.2c-0.5,0-0.9-0.1-1.3-0.4c-0.4-0.3-0.5-0.7-0.5-1.3
				c0-0.6,0.2-1.1,0.6-1.5s1-0.5,1.7-0.5h1.1c0,0,0,0,0,0v-0.5c0-0.4-0.1-0.7-0.3-1c-0.2-0.2-0.5-0.4-0.9-0.4
				c-0.3,0-0.6,0.1-0.8,0.2c-0.2,0.2-0.3,0.4-0.4,0.6c0,0.1-0.1,0.1-0.1,0.1l-0.7,0c0,0-0.1,0-0.1,0c0,0,0-0.1,0-0.1
				c0.1-0.5,0.3-0.8,0.7-1.1c0.4-0.3,0.8-0.4,1.4-0.4C170.3,127.5,170.8,127.7,171.1,128z M170.4,132.7c0.3-0.2,0.4-0.5,0.4-0.9v-1
				c0,0,0,0,0,0h-1.1c-0.5,0-0.8,0.1-1.1,0.3c-0.3,0.2-0.4,0.5-0.4,0.9c0,0.4,0.1,0.6,0.3,0.8c0.2,0.2,0.5,0.3,0.8,0.3
				C169.8,133,170.1,132.9,170.4,132.7z"/>
		</g>
		<g class="st3">
			<path class="st4" d="M176.1,127.7c0.1,0,0.1,0.1,0.1,0.1l-0.1,0.6c0,0.1-0.1,0.1-0.1,0.1c-0.1-0.1-0.3-0.1-0.4-0.1l-0.1,0
				c-0.4,0-0.6,0.2-0.9,0.5c-0.2,0.3-0.3,0.7-0.3,1.1v3.6c0,0.1,0,0.1-0.1,0.1h-0.6c-0.1,0-0.1,0-0.1-0.1v-5.8c0-0.1,0-0.1,0.1-0.1
				h0.6c0.1,0,0.1,0,0.1,0.1v0.8c0,0,0,0,0,0c0,0,0,0,0,0c0.1-0.3,0.3-0.5,0.5-0.7c0.2-0.2,0.5-0.3,0.8-0.3
				C175.7,127.5,175.9,127.6,176.1,127.7z"/>
		</g>
		<g class="st3">
			<path class="st4" d="M180.6,128c0.4,0.4,0.5,0.9,0.5,1.5v4c0,0.1,0,0.1-0.1,0.1h-0.6c-0.1,0-0.1,0-0.1-0.1v-0.4c0,0,0,0,0,0
				s0,0,0,0c-0.2,0.2-0.4,0.4-0.7,0.5c-0.3,0.1-0.6,0.2-0.9,0.2c-0.5,0-0.9-0.1-1.3-0.4c-0.4-0.3-0.5-0.7-0.5-1.3
				c0-0.6,0.2-1.1,0.6-1.5s1-0.5,1.7-0.5h1.1c0,0,0,0,0,0v-0.5c0-0.4-0.1-0.7-0.3-1c-0.2-0.2-0.5-0.4-0.9-0.4
				c-0.3,0-0.6,0.1-0.8,0.2c-0.2,0.2-0.3,0.4-0.4,0.6c0,0.1-0.1,0.1-0.1,0.1l-0.7,0c0,0-0.1,0-0.1,0c0,0,0-0.1,0-0.1
				c0.1-0.5,0.3-0.8,0.7-1.1c0.4-0.3,0.8-0.4,1.4-0.4C179.7,127.5,180.2,127.7,180.6,128z M179.9,132.7c0.3-0.2,0.4-0.5,0.4-0.9v-1
				c0,0,0,0,0,0h-1.1c-0.5,0-0.8,0.1-1.1,0.3c-0.3,0.2-0.4,0.5-0.4,0.9c0,0.4,0.1,0.6,0.3,0.8c0.2,0.2,0.5,0.3,0.8,0.3
				C179.2,133,179.6,132.9,179.9,132.7z"/>
			<path class="st4" d="M188.6,128c0.4,0.4,0.5,0.9,0.5,1.5v4c0,0.1,0,0.1-0.1,0.1h-0.6c-0.1,0-0.1,0-0.1-0.1v-0.4c0,0,0,0,0,0
				c0,0,0,0,0,0c-0.2,0.2-0.4,0.4-0.7,0.5c-0.3,0.1-0.6,0.2-0.9,0.2c-0.5,0-0.9-0.1-1.3-0.4c-0.4-0.3-0.5-0.7-0.5-1.3
				c0-0.6,0.2-1.1,0.6-1.5s1-0.5,1.7-0.5h1.1c0,0,0,0,0,0v-0.5c0-0.4-0.1-0.7-0.3-1c-0.2-0.2-0.5-0.4-0.9-0.4
				c-0.3,0-0.6,0.1-0.8,0.2c-0.2,0.2-0.3,0.4-0.4,0.6c0,0.1-0.1,0.1-0.1,0.1l-0.7,0c0,0-0.1,0-0.1,0c0,0,0-0.1,0-0.1
				c0.1-0.5,0.3-0.8,0.7-1.1c0.4-0.3,0.9-0.4,1.4-0.4C187.7,127.5,188.2,127.7,188.6,128z M187.8,132.7c0.3-0.2,0.4-0.5,0.4-0.9v-1
				c0,0,0,0,0,0h-1.1c-0.5,0-0.8,0.1-1.1,0.3c-0.3,0.2-0.4,0.5-0.4,0.9c0,0.4,0.1,0.6,0.3,0.8c0.2,0.2,0.5,0.3,0.8,0.3
				C187.2,133,187.5,132.9,187.8,132.7z"/>
			<path class="st4" d="M194,125.2h0.6c0.1,0,0.1,0,0.1,0.1v8.2c0,0.1,0,0.1-0.1,0.1H194c-0.1,0-0.1,0-0.1-0.1v-0.5c0,0,0,0,0,0
				c0,0,0,0,0,0c-0.3,0.5-0.8,0.7-1.4,0.7c-0.5,0-0.9-0.1-1.2-0.4c-0.3-0.3-0.5-0.7-0.7-1.3c-0.1-0.4-0.2-0.9-0.2-1.4
				c0-0.6,0-1,0.1-1.4c0.1-0.6,0.3-1,0.7-1.3c0.3-0.3,0.8-0.4,1.3-0.4c0.3,0,0.6,0.1,0.8,0.2c0.2,0.1,0.4,0.3,0.5,0.5c0,0,0,0,0,0
				c0,0,0,0,0,0v-2.8C193.9,125.3,194,125.2,194,125.2z M193.9,130.6c0-0.7-0.1-1.2-0.2-1.5c-0.1-0.3-0.2-0.5-0.4-0.6
				s-0.4-0.2-0.7-0.2c-0.5,0-0.9,0.3-1.1,0.8c-0.2,0.4-0.2,0.9-0.2,1.6c0,0.6,0.1,1.1,0.2,1.5c0.1,0.3,0.2,0.5,0.4,0.7
				c0.2,0.2,0.4,0.2,0.7,0.2c0.3,0,0.5-0.1,0.7-0.2c0.2-0.2,0.3-0.4,0.4-0.7C193.8,131.8,193.9,131.3,193.9,130.6z"/>
			<path class="st4" d="M199.9,127.6h0.6c0.1,0,0.1,0,0.1,0.1v8.2c0,0.1,0,0.1-0.1,0.1h-0.6c-0.1,0-0.1,0-0.1-0.1v-2.8c0,0,0,0,0,0
				c0,0,0,0,0,0c-0.1,0.2-0.3,0.4-0.5,0.5c-0.2,0.1-0.5,0.2-0.8,0.2c-0.5,0-1-0.1-1.3-0.4s-0.5-0.7-0.7-1.3
				c-0.1-0.4-0.1-0.9-0.1-1.4c0-0.5,0.1-1,0.2-1.4c0.1-0.6,0.4-1,0.7-1.3c0.3-0.3,0.7-0.4,1.2-0.4c0.6,0,1.1,0.2,1.4,0.7
				c0,0,0,0,0,0s0,0,0,0v-0.5C199.7,127.6,199.8,127.6,199.9,127.6z M199.7,130.6c0-0.6-0.1-1.2-0.2-1.5c-0.1-0.3-0.2-0.5-0.4-0.7
				s-0.4-0.2-0.7-0.2c-0.3,0-0.5,0.1-0.7,0.2c-0.2,0.2-0.3,0.4-0.4,0.7c-0.1,0.4-0.2,0.9-0.2,1.5c0,0.6,0.1,1.2,0.2,1.6
				c0.2,0.5,0.6,0.8,1.1,0.8c0.3,0,0.5-0.1,0.7-0.2c0.2-0.1,0.3-0.4,0.4-0.6C199.6,131.8,199.7,131.3,199.7,130.6z"/>
			<path class="st4" d="M205.7,127.6h0.6c0.1,0,0.1,0,0.1,0.1v5.8c0,0.1,0,0.1-0.1,0.1h-0.6c-0.1,0-0.1,0-0.1-0.1v-0.5c0,0,0,0,0,0
				s0,0,0,0c-0.3,0.5-0.7,0.7-1.4,0.7c-0.5,0-1-0.2-1.3-0.5c-0.3-0.3-0.5-0.8-0.5-1.4v-4.2c0-0.1,0-0.1,0.1-0.1h0.6
				c0.1,0,0.1,0,0.1,0.1v3.9c0,0.4,0.1,0.8,0.3,1c0.2,0.2,0.5,0.4,0.9,0.4c0.4,0,0.7-0.1,0.9-0.4c0.2-0.3,0.3-0.6,0.3-1v-3.9
				C205.6,127.6,205.6,127.6,205.7,127.6z"/>
			<path class="st4" d="M208.2,126.3c-0.1-0.1-0.2-0.3-0.2-0.5c0-0.2,0.1-0.4,0.2-0.5s0.3-0.2,0.5-0.2c0.2,0,0.4,0.1,0.5,0.2
				s0.2,0.3,0.2,0.5c0,0.2-0.1,0.4-0.2,0.5s-0.3,0.2-0.5,0.2C208.4,126.5,208.3,126.4,208.2,126.3z M208.2,133.5v-5.8
				c0-0.1,0-0.1,0.1-0.1h0.6c0.1,0,0.1,0,0.1,0.1v5.8c0,0.1,0,0.1-0.1,0.1h-0.6C208.2,133.7,208.2,133.6,208.2,133.5z"/>
			<path class="st4" d="M213.7,127.7c0.1,0,0.1,0.1,0.1,0.1l-0.1,0.6c0,0.1-0.1,0.1-0.1,0.1c-0.1-0.1-0.3-0.1-0.4-0.1l-0.1,0
				c-0.4,0-0.6,0.2-0.9,0.5c-0.2,0.3-0.3,0.7-0.3,1.1v3.6c0,0.1,0,0.1-0.1,0.1H211c-0.1,0-0.1,0-0.1-0.1v-5.8c0-0.1,0-0.1,0.1-0.1
				h0.6c0.1,0,0.1,0,0.1,0.1v0.8c0,0,0,0,0,0c0,0,0,0,0,0c0.1-0.3,0.3-0.5,0.5-0.7c0.2-0.2,0.5-0.3,0.8-0.3
				C213.4,127.5,213.6,127.6,213.7,127.7z"/>
			<path class="st4" d="M214.9,126.3c-0.1-0.1-0.2-0.3-0.2-0.5c0-0.2,0.1-0.4,0.2-0.5s0.3-0.2,0.5-0.2c0.2,0,0.4,0.1,0.5,0.2
				s0.2,0.3,0.2,0.5c0,0.2-0.1,0.4-0.2,0.5s-0.3,0.2-0.5,0.2C215.2,126.5,215,126.4,214.9,126.3z M214.9,133.5v-5.8
				c0-0.1,0-0.1,0.1-0.1h0.6c0.1,0,0.1,0,0.1,0.1v5.8c0,0.1,0,0.1-0.1,0.1h-0.6C215,133.7,214.9,133.6,214.9,133.5z"/>
			<path class="st4" d="M220.5,127.7c0.1,0,0.1,0.1,0.1,0.1l-0.1,0.6c0,0.1-0.1,0.1-0.1,0.1c-0.1-0.1-0.3-0.1-0.4-0.1l-0.1,0
				c-0.4,0-0.6,0.2-0.9,0.5c-0.2,0.3-0.3,0.7-0.3,1.1v3.6c0,0.1,0,0.1-0.1,0.1h-0.6c-0.1,0-0.1,0-0.1-0.1v-5.8c0-0.1,0-0.1,0.1-0.1
				h0.6c0.1,0,0.1,0,0.1,0.1v0.8c0,0,0,0,0,0s0,0,0,0c0.1-0.3,0.3-0.5,0.5-0.7c0.2-0.2,0.5-0.3,0.8-0.3
				C220.1,127.5,220.3,127.6,220.5,127.7z"/>
			<path class="st4" d="M227.6,128c0.3,0.4,0.5,0.8,0.5,1.5v4c0,0.1,0,0.1-0.1,0.1h-0.6c-0.1,0-0.1,0-0.1-0.1v-3.9
				c0-0.4-0.1-0.7-0.3-1s-0.5-0.4-0.9-0.4s-0.7,0.1-0.9,0.4c-0.2,0.3-0.3,0.6-0.3,1v3.9c0,0.1,0,0.1-0.1,0.1h-0.6
				c-0.1,0-0.1,0-0.1-0.1v-5.8c0-0.1,0-0.1,0.1-0.1h0.6c0.1,0,0.1,0,0.1,0.1v0.5c0,0,0,0,0,0c0,0,0,0,0,0c0.3-0.5,0.8-0.7,1.4-0.7
				C226.9,127.5,227.3,127.7,227.6,128z"/>
			<path class="st4" d="M233.1,127.6h0.6c0.1,0,0.1,0,0.1,0.1v5.8c0,0.1,0,0.1-0.1,0.1h-0.6c-0.1,0-0.1,0-0.1-0.1v-0.5c0,0,0,0,0,0
				s0,0,0,0c-0.3,0.5-0.7,0.7-1.4,0.7c-0.5,0-1-0.2-1.3-0.5c-0.3-0.3-0.5-0.8-0.5-1.4v-4.2c0-0.1,0-0.1,0.1-0.1h0.6
				c0.1,0,0.1,0,0.1,0.1v3.9c0,0.4,0.1,0.8,0.3,1c0.2,0.2,0.5,0.4,0.9,0.4c0.4,0,0.7-0.1,0.9-0.4c0.2-0.3,0.3-0.6,0.3-1v-3.9
				C233,127.6,233,127.6,233.1,127.6z"/>
		</g>
		<g class="st3">
			<path class="st4" d="M238.3,132.8c0.2-0.2,0.4-0.4,0.5-0.6c0-0.1,0.1-0.1,0.1-0.1l0.6,0.1c0,0,0.1,0,0.1,0.1c0,0,0,0.1,0,0.1
				c-0.1,0.4-0.4,0.8-0.7,1.1c-0.4,0.3-0.8,0.4-1.3,0.4c-0.6,0-1.1-0.2-1.4-0.5c-0.4-0.3-0.6-0.7-0.7-1.3c0-0.2-0.1-0.4-0.1-0.7
				c0-0.3,0-0.5,0-0.7s0-0.3,0-0.4c0-0.4,0-0.7,0-1c0.1-0.5,0.3-1,0.7-1.3c0.4-0.3,0.9-0.5,1.4-0.5c0.6,0,1.1,0.2,1.5,0.5
				c0.4,0.4,0.6,0.8,0.6,1.4c0,0.3,0,0.7,0,1.5c0,0.1,0,0.1-0.1,0.1h-3.3c0,0,0,0,0,0c0,0.2,0,0.5,0,0.8c0,0.3,0.2,0.6,0.4,0.8
				c0.2,0.2,0.5,0.3,0.9,0.3C237.9,133,238.1,132.9,238.3,132.8z M236.6,128.5c-0.2,0.2-0.4,0.5-0.4,0.8c0,0.3,0,0.6,0,0.8
				c0,0,0,0,0,0h2.5c0,0,0,0,0,0c0-0.2,0-0.5,0-0.8c0-0.3-0.2-0.6-0.4-0.8c-0.2-0.2-0.5-0.3-0.9-0.3
				C237.2,128.2,236.9,128.3,236.6,128.5z"/>
		</g>
		<g class="st3">
			<path class="st4" d="M242.3,133.6l-1.7-5.8l0,0c0-0.1,0-0.1,0.1-0.1h0.7c0.1,0,0.1,0,0.1,0.1l1.3,4.7c0,0,0,0,0,0c0,0,0,0,0,0
				l1.3-4.7c0-0.1,0.1-0.1,0.1-0.1l0.7,0c0,0,0.1,0,0.1,0c0,0,0,0.1,0,0.1l-1.7,5.8c0,0.1-0.1,0.1-0.1,0.1h-0.7
				C242.3,133.7,242.3,133.6,242.3,133.6z"/>
		</g>
		<g class="st3">
			<path class="st4" d="M246.6,133.3c-0.4-0.3-0.6-0.7-0.7-1.3c0-0.4-0.1-0.9-0.1-1.4s0-1,0.1-1.4c0.1-0.5,0.3-1,0.7-1.3
				c0.4-0.3,0.9-0.5,1.4-0.5s1.1,0.2,1.4,0.5c0.4,0.3,0.6,0.7,0.7,1.3c0,0.3,0.1,0.8,0.1,1.4c0,0.6,0,1.1-0.1,1.4
				c-0.1,0.5-0.3,1-0.7,1.3s-0.9,0.5-1.4,0.5S247,133.6,246.6,133.3z M248.9,132.7c0.2-0.2,0.4-0.5,0.4-0.8c0-0.3,0-0.7,0-1.2
				c0-0.5,0-0.9,0-1.2c0-0.4-0.2-0.6-0.4-0.8c-0.2-0.2-0.5-0.3-0.9-0.3c-0.4,0-0.6,0.1-0.9,0.3c-0.2,0.2-0.4,0.5-0.4,0.8
				c0,0.3,0,0.7,0,1.2s0,0.9,0,1.2c0,0.4,0.2,0.6,0.4,0.8s0.5,0.3,0.9,0.3C248.4,133,248.7,132.9,248.9,132.7z"/>
			<path class="st4" d="M252.1,133.3c-0.4-0.3-0.6-0.7-0.6-1.1V132c0-0.1,0-0.1,0.1-0.1h0.6c0.1,0,0.1,0,0.1,0.1v0.1
				c0,0.3,0.1,0.5,0.3,0.7c0.2,0.2,0.5,0.3,0.9,0.3c0.4,0,0.6-0.1,0.9-0.3c0.2-0.2,0.3-0.4,0.3-0.7c0-0.2-0.1-0.4-0.2-0.5
				c-0.1-0.1-0.3-0.2-0.4-0.3c-0.2-0.1-0.4-0.2-0.7-0.3c-0.4-0.1-0.7-0.3-0.9-0.4c-0.2-0.1-0.5-0.3-0.6-0.5
				c-0.2-0.2-0.3-0.5-0.3-0.9c0-0.5,0.2-0.9,0.5-1.2c0.4-0.3,0.8-0.5,1.4-0.5c0.6,0,1.1,0.2,1.5,0.5c0.4,0.3,0.5,0.7,0.5,1.2v0
				c0,0.1,0,0.1-0.1,0.1h-0.6c-0.1,0-0.1,0-0.1-0.1v0c0-0.3-0.1-0.5-0.3-0.7c-0.2-0.2-0.5-0.3-0.9-0.3c-0.3,0-0.6,0.1-0.8,0.3
				s-0.3,0.4-0.3,0.7c0,0.3,0.1,0.5,0.3,0.6s0.5,0.3,1,0.5c0.4,0.1,0.7,0.3,1,0.4s0.5,0.3,0.7,0.5c0.2,0.2,0.3,0.5,0.3,0.9
				c0,0.5-0.2,0.9-0.6,1.2c-0.4,0.3-0.9,0.5-1.5,0.5S252.4,133.6,252.1,133.3z"/>
		</g>
		<g class="st3">
			<path class="st4" d="M87.5,147.7c-0.4-0.3-0.6-0.7-0.7-1.3c0-0.4-0.1-0.9-0.1-1.4c0-0.4,0-0.9,0.1-1.4c0.1-0.5,0.3-0.9,0.7-1.3
				c0.4-0.3,0.9-0.5,1.4-0.5c0.6,0,1,0.2,1.4,0.5c0.4,0.3,0.6,0.7,0.7,1.1l0,0.3v0c0,0,0,0.1,0,0.1c0,0,0,0-0.1,0l-0.6,0
				c-0.1,0-0.1,0-0.1-0.1c0-0.1,0-0.1,0-0.1c0-0.3-0.2-0.5-0.4-0.7s-0.5-0.3-0.9-0.3c-0.4,0-0.6,0.1-0.9,0.3
				c-0.2,0.2-0.4,0.5-0.4,0.8c0,0.3-0.1,0.8-0.1,1.2c0,0.5,0,0.9,0.1,1.2c0,0.4,0.2,0.6,0.4,0.8s0.5,0.3,0.9,0.3
				c0.4,0,0.6-0.1,0.9-0.3c0.2-0.2,0.4-0.4,0.4-0.7l0-0.1c0-0.1,0.1-0.1,0.1-0.1l0.6,0c0.1,0,0.1,0.1,0.1,0.1v0c0,0,0,0.1,0,0.1
				c-0.1,0.5-0.3,0.9-0.7,1.2c-0.4,0.3-0.9,0.5-1.4,0.5C88.4,148.1,87.9,148,87.5,147.7z"/>
		</g>
		<g class="st3">
			<path class="st4" d="M93,147.7c-0.4-0.3-0.6-0.7-0.7-1.3c0-0.4-0.1-0.9-0.1-1.4s0-1,0.1-1.4c0.1-0.5,0.3-1,0.7-1.3
				c0.4-0.3,0.9-0.5,1.4-0.5s1.1,0.2,1.4,0.5c0.4,0.3,0.6,0.7,0.7,1.3c0,0.3,0.1,0.8,0.1,1.4c0,0.6,0,1.1-0.1,1.4
				c-0.1,0.5-0.3,1-0.7,1.3c-0.4,0.3-0.9,0.5-1.4,0.5S93.4,148,93,147.7z M95.3,147.1c0.2-0.2,0.4-0.5,0.4-0.8c0-0.3,0-0.7,0-1.2
				c0-0.5,0-0.9,0-1.2c0-0.4-0.2-0.6-0.4-0.8c-0.2-0.2-0.5-0.3-0.9-0.3s-0.6,0.1-0.9,0.3c-0.2,0.2-0.4,0.5-0.4,0.8
				c0,0.3,0,0.7,0,1.2s0,0.9,0,1.2c0,0.4,0.2,0.6,0.4,0.8c0.2,0.2,0.5,0.3,0.9,0.3C94.8,147.4,95.1,147.3,95.3,147.1z"/>
		</g>
		<g class="st3">
			<path class="st4" d="M101.9,142.4c0.3,0.4,0.5,0.8,0.5,1.5v4c0,0.1,0,0.1-0.1,0.1h-0.6c-0.1,0-0.1,0-0.1-0.1V144
				c0-0.4-0.1-0.7-0.3-1c-0.2-0.2-0.5-0.4-0.9-0.4s-0.7,0.1-0.9,0.4s-0.3,0.6-0.3,1v3.9c0,0.1,0,0.1-0.1,0.1h-0.6
				c-0.1,0-0.1,0-0.1-0.1v-5.8c0-0.1,0-0.1,0.1-0.1h0.6c0.1,0,0.1,0,0.1,0.1v0.5c0,0,0,0,0,0c0,0,0,0,0,0c0.3-0.5,0.8-0.7,1.4-0.7
				C101.1,141.9,101.5,142.1,101.9,142.4z"/>
		</g>
		<g class="st3">
			<path class="st4" d="M104.5,147.7c-0.4-0.3-0.6-0.7-0.7-1.3c0-0.4-0.1-0.9-0.1-1.4s0-1,0.1-1.4c0.1-0.5,0.3-1,0.7-1.3
				c0.4-0.3,0.9-0.5,1.4-0.5s1.1,0.2,1.4,0.5c0.4,0.3,0.6,0.7,0.7,1.3c0,0.3,0.1,0.8,0.1,1.4c0,0.6,0,1.1-0.1,1.4
				c-0.1,0.5-0.3,1-0.7,1.3c-0.4,0.3-0.9,0.5-1.4,0.5S104.9,148,104.5,147.7z M106.8,147.1c0.2-0.2,0.4-0.5,0.4-0.8
				c0-0.3,0-0.7,0-1.2c0-0.5,0-0.9,0-1.2c0-0.4-0.2-0.6-0.4-0.8c-0.2-0.2-0.5-0.3-0.9-0.3s-0.6,0.1-0.9,0.3
				c-0.2,0.2-0.4,0.5-0.4,0.8c0,0.3,0,0.7,0,1.2s0,0.9,0,1.2c0,0.4,0.2,0.6,0.4,0.8c0.2,0.2,0.5,0.3,0.9,0.3
				C106.3,147.4,106.6,147.3,106.8,147.1z"/>
			<path class="st4" d="M110.3,147.7c-0.4-0.3-0.6-0.7-0.7-1.3c0-0.4-0.1-0.9-0.1-1.4c0-0.4,0-0.9,0.1-1.4c0.1-0.5,0.3-0.9,0.7-1.3
				c0.4-0.3,0.9-0.5,1.4-0.5c0.6,0,1,0.2,1.4,0.5c0.4,0.3,0.6,0.7,0.7,1.1l0,0.3v0c0,0,0,0.1,0,0.1c0,0,0,0-0.1,0l-0.6,0
				c-0.1,0-0.1,0-0.1-0.1c0-0.1,0-0.1,0-0.1c0-0.3-0.2-0.5-0.4-0.7s-0.5-0.3-0.9-0.3c-0.4,0-0.6,0.1-0.9,0.3
				c-0.2,0.2-0.4,0.5-0.4,0.8c0,0.3-0.1,0.8-0.1,1.2c0,0.5,0,0.9,0.1,1.2c0,0.4,0.2,0.6,0.4,0.8s0.5,0.3,0.9,0.3
				c0.4,0,0.6-0.1,0.9-0.3c0.2-0.2,0.4-0.4,0.4-0.7l0-0.1c0-0.1,0.1-0.1,0.1-0.1l0.6,0c0.1,0,0.1,0.1,0.1,0.1v0c0,0,0,0.1,0,0.1
				c-0.1,0.5-0.3,0.9-0.7,1.2c-0.4,0.3-0.9,0.5-1.4,0.5C111.1,148.1,110.7,148,110.3,147.7z"/>
			<path class="st4" d="M115.3,140.7c-0.1-0.1-0.2-0.3-0.2-0.5c0-0.2,0.1-0.4,0.2-0.5s0.3-0.2,0.5-0.2c0.2,0,0.4,0.1,0.5,0.2
				s0.2,0.3,0.2,0.5c0,0.2-0.1,0.4-0.2,0.5s-0.3,0.2-0.5,0.2C115.6,140.9,115.4,140.8,115.3,140.7z M115.3,147.9v-5.8
				c0-0.1,0-0.1,0.1-0.1h0.6c0.1,0,0.1,0,0.1,0.1v5.8c0,0.1,0,0.1-0.1,0.1h-0.6C115.4,148,115.3,148,115.3,147.9z"/>
			<path class="st4" d="M124.8,142.4c0.3,0.4,0.5,0.8,0.5,1.5v4c0,0.1,0,0.1-0.1,0.1h-0.6c-0.1,0-0.1,0-0.1-0.1V144
				c0-0.4-0.1-0.8-0.3-1s-0.5-0.4-0.8-0.4c-0.4,0-0.6,0.1-0.9,0.4s-0.3,0.6-0.3,1v3.9c0,0.1,0,0.1-0.1,0.1h-0.6
				c-0.1,0-0.1,0-0.1-0.1V144c0-0.4-0.1-0.8-0.3-1s-0.5-0.4-0.8-0.4c-0.4,0-0.6,0.1-0.9,0.4c-0.2,0.2-0.3,0.6-0.3,1v3.9
				c0,0.1,0,0.1-0.1,0.1h-0.6c-0.1,0-0.1,0-0.1-0.1v-5.8c0-0.1,0-0.1,0.1-0.1h0.6c0.1,0,0.1,0,0.1,0.1v0.4c0,0,0,0,0,0c0,0,0,0,0,0
				c0.2-0.2,0.4-0.4,0.6-0.5c0.2-0.1,0.5-0.2,0.8-0.2c0.4,0,0.7,0.1,0.9,0.2s0.5,0.4,0.6,0.7c0,0,0,0,0.1,0c0.2-0.3,0.4-0.5,0.7-0.7
				c0.3-0.1,0.6-0.2,0.9-0.2C124,141.9,124.5,142.1,124.8,142.4z"/>
			<path class="st4" d="M126.9,140.7c-0.1-0.1-0.2-0.3-0.2-0.5c0-0.2,0.1-0.4,0.2-0.5s0.3-0.2,0.5-0.2c0.2,0,0.4,0.1,0.5,0.2
				s0.2,0.3,0.2,0.5c0,0.2-0.1,0.4-0.2,0.5s-0.3,0.2-0.5,0.2C127.2,140.9,127,140.8,126.9,140.7z M127,147.9v-5.8
				c0-0.1,0-0.1,0.1-0.1h0.6c0.1,0,0.1,0,0.1,0.1v5.8c0,0.1,0,0.1-0.1,0.1h-0.6C127,148,127,148,127,147.9z"/>
			<path class="st4" d="M132.5,147.2c0.2-0.2,0.4-0.4,0.5-0.6c0-0.1,0.1-0.1,0.1-0.1l0.6,0.1c0,0,0.1,0,0.1,0.1c0,0,0,0.1,0,0.1
				c-0.1,0.4-0.4,0.8-0.7,1.1s-0.8,0.4-1.3,0.4c-0.6,0-1.1-0.2-1.4-0.5c-0.4-0.3-0.6-0.7-0.7-1.3c0-0.2-0.1-0.4-0.1-0.7
				c0-0.3,0-0.5,0-0.7s0-0.3,0-0.4c0-0.4,0-0.7,0-1c0.1-0.5,0.3-1,0.7-1.3c0.4-0.3,0.9-0.5,1.4-0.5c0.6,0,1.1,0.2,1.5,0.5
				c0.4,0.4,0.6,0.8,0.6,1.4c0,0.3,0,0.7,0,1.5c0,0.1,0,0.1-0.1,0.1h-3.3c0,0,0,0,0,0c0,0.2,0,0.5,0,0.8c0,0.3,0.2,0.6,0.4,0.8
				s0.5,0.3,0.9,0.3C132,147.4,132.3,147.3,132.5,147.2z M130.8,142.9c-0.2,0.2-0.4,0.5-0.4,0.8c0,0.3,0,0.6,0,0.8c0,0,0,0,0,0h2.5
				c0,0,0,0,0,0c0-0.2,0-0.5,0-0.8c0-0.3-0.2-0.6-0.4-0.8c-0.2-0.2-0.5-0.3-0.9-0.3C131.3,142.6,131,142.7,130.8,142.9z"/>
			<path class="st4" d="M139,142.4c0.3,0.4,0.5,0.8,0.5,1.5v4c0,0.1,0,0.1-0.1,0.1h-0.6c-0.1,0-0.1,0-0.1-0.1V144
				c0-0.4-0.1-0.7-0.3-1c-0.2-0.2-0.5-0.4-0.9-0.4s-0.7,0.1-0.9,0.4s-0.3,0.6-0.3,1v3.9c0,0.1,0,0.1-0.1,0.1h-0.6
				c-0.1,0-0.1,0-0.1-0.1v-5.8c0-0.1,0-0.1,0.1-0.1h0.6c0.1,0,0.1,0,0.1,0.1v0.5c0,0,0,0,0,0c0,0,0,0,0,0c0.3-0.5,0.8-0.7,1.4-0.7
				C138.2,141.9,138.6,142.1,139,142.4z"/>
		</g>
		<g class="st3">
			<path class="st4" d="M143.4,142.6h-1.1c0,0,0,0,0,0v3.6c0,0.4,0.1,0.6,0.2,0.8c0.1,0.1,0.4,0.2,0.7,0.2h0.2c0.1,0,0.1,0,0.1,0.1
				v0.5c0,0.1,0,0.1-0.1,0.1l-0.4,0c-0.5,0-0.9-0.1-1.2-0.3s-0.4-0.6-0.4-1.2v-3.9c0,0,0,0,0,0h-0.6c-0.1,0-0.1,0-0.1-0.1v-0.4
				c0-0.1,0-0.1,0.1-0.1h0.6c0,0,0,0,0,0v-1.4c0-0.1,0-0.1,0.1-0.1h0.6c0.1,0,0.1,0,0.1,0.1v1.4c0,0,0,0,0,0h1.1
				c0.1,0,0.1,0,0.1,0.1v0.4C143.5,142.6,143.5,142.6,143.4,142.6z"/>
		</g>
		<g class="st3">
			<path class="st4" d="M145.4,147.7c-0.4-0.3-0.6-0.7-0.7-1.3c0-0.4-0.1-0.9-0.1-1.4s0-1,0.1-1.4c0.1-0.5,0.3-1,0.7-1.3
				c0.4-0.3,0.9-0.5,1.4-0.5s1.1,0.2,1.4,0.5c0.4,0.3,0.6,0.7,0.7,1.3c0,0.3,0.1,0.8,0.1,1.4c0,0.6,0,1.1-0.1,1.4
				c-0.1,0.5-0.3,1-0.7,1.3c-0.4,0.3-0.9,0.5-1.4,0.5S145.7,148,145.4,147.7z M147.7,147.1c0.2-0.2,0.4-0.5,0.4-0.8
				c0-0.3,0-0.7,0-1.2c0-0.5,0-0.9,0-1.2c0-0.4-0.2-0.6-0.4-0.8c-0.2-0.2-0.5-0.3-0.9-0.3s-0.6,0.1-0.9,0.3
				c-0.2,0.2-0.4,0.5-0.4,0.8c0,0.3,0,0.7,0,1.2s0,0.9,0,1.2c0,0.4,0.2,0.6,0.4,0.8c0.2,0.2,0.5,0.3,0.9,0.3
				C147.1,147.4,147.4,147.3,147.7,147.1z"/>
			<path class="st4" d="M150.8,147.7c-0.4-0.3-0.6-0.7-0.6-1.1v-0.1c0-0.1,0-0.1,0.1-0.1h0.6c0.1,0,0.1,0,0.1,0.1v0.1
				c0,0.3,0.1,0.5,0.3,0.7c0.2,0.2,0.5,0.3,0.9,0.3c0.4,0,0.6-0.1,0.9-0.3c0.2-0.2,0.3-0.4,0.3-0.7c0-0.2-0.1-0.4-0.2-0.5
				c-0.1-0.1-0.3-0.2-0.4-0.3c-0.2-0.1-0.4-0.2-0.7-0.3c-0.4-0.1-0.7-0.3-0.9-0.4c-0.2-0.1-0.5-0.3-0.6-0.5
				c-0.2-0.2-0.3-0.5-0.3-0.9c0-0.5,0.2-0.9,0.5-1.2c0.4-0.3,0.8-0.5,1.4-0.5c0.6,0,1.1,0.2,1.5,0.5c0.4,0.3,0.5,0.7,0.5,1.2v0
				c0,0.1,0,0.1-0.1,0.1h-0.6c-0.1,0-0.1,0-0.1-0.1v0c0-0.3-0.1-0.5-0.3-0.7c-0.2-0.2-0.5-0.3-0.9-0.3c-0.3,0-0.6,0.1-0.8,0.3
				s-0.3,0.4-0.3,0.7c0,0.3,0.1,0.5,0.3,0.6s0.5,0.3,1,0.5c0.4,0.1,0.7,0.3,1,0.4s0.5,0.3,0.7,0.5c0.2,0.2,0.3,0.5,0.3,0.9
				c0,0.5-0.2,0.9-0.6,1.2c-0.4,0.3-0.9,0.5-1.5,0.5S151.2,148,150.8,147.7z"/>
			<path class="st4" d="M157.7,150.5c0,0,0,0,0-0.1v-0.5c0-0.1,0-0.1,0.1-0.1h0c0.3,0,0.5-0.1,0.7-0.1c0.2-0.1,0.3-0.2,0.4-0.5
				c0.1-0.2,0.2-0.6,0.3-1c0,0,0,0,0-0.1l-1.8-5.9l0,0c0-0.1,0-0.1,0.1-0.1h0.6c0.1,0,0.1,0,0.1,0.1l1.3,4.8c0,0,0,0,0,0
				c0,0,0,0,0,0l1.3-4.8c0-0.1,0.1-0.1,0.1-0.1h0.6c0,0,0.1,0,0.1,0c0,0,0,0.1,0,0.1l-2,6.5c-0.2,0.5-0.3,0.9-0.5,1.2
				c-0.2,0.3-0.4,0.4-0.6,0.5c-0.2,0.1-0.6,0.2-1,0.2H157.7C157.8,150.5,157.7,150.5,157.7,150.5z"/>
			<path class="st4" d="M169.1,142.4c0.3,0.4,0.5,0.8,0.5,1.5v4c0,0.1,0,0.1-0.1,0.1h-0.6c-0.1,0-0.1,0-0.1-0.1V144
				c0-0.4-0.1-0.7-0.3-1s-0.5-0.4-0.9-0.4s-0.7,0.1-0.9,0.4c-0.2,0.3-0.3,0.6-0.3,1v3.9c0,0.1,0,0.1-0.1,0.1h-0.6
				c-0.1,0-0.1,0-0.1-0.1v-8.2c0-0.1,0-0.1,0.1-0.1h0.6c0.1,0,0.1,0,0.1,0.1v2.8c0,0,0,0,0,0c0,0,0,0,0,0c0.3-0.5,0.8-0.7,1.4-0.7
				C168.3,141.9,168.8,142.1,169.1,142.4z"/>
			<path class="st4" d="M174.6,142.4c0.4,0.4,0.5,0.9,0.5,1.5v4c0,0.1,0,0.1-0.1,0.1h-0.6c-0.1,0-0.1,0-0.1-0.1v-0.4c0,0,0,0,0,0
				c0,0,0,0,0,0c-0.2,0.2-0.4,0.4-0.7,0.5c-0.3,0.1-0.6,0.2-0.9,0.2c-0.5,0-0.9-0.1-1.3-0.4c-0.4-0.3-0.5-0.7-0.5-1.3
				c0-0.6,0.2-1.1,0.6-1.5s1-0.5,1.7-0.5h1.1c0,0,0,0,0,0v-0.5c0-0.4-0.1-0.7-0.3-1c-0.2-0.2-0.5-0.4-0.9-0.4
				c-0.3,0-0.6,0.1-0.8,0.2c-0.2,0.2-0.3,0.4-0.4,0.6c0,0.1-0.1,0.1-0.1,0.1l-0.7,0c0,0-0.1,0-0.1,0c0,0,0-0.1,0-0.1
				c0.1-0.5,0.3-0.8,0.7-1.1c0.4-0.3,0.9-0.4,1.4-0.4C173.8,141.9,174.3,142.1,174.6,142.4z M173.9,147.1c0.3-0.2,0.4-0.5,0.4-0.9
				v-1c0,0,0,0,0,0h-1.1c-0.5,0-0.8,0.1-1.1,0.3c-0.3,0.2-0.4,0.5-0.4,0.9c0,0.4,0.1,0.6,0.3,0.8c0.2,0.2,0.5,0.3,0.8,0.3
				C173.3,147.4,173.6,147.3,173.9,147.1z"/>
			<path class="st4" d="M181.1,145.1c0,0.5-0.1,1-0.2,1.4c-0.1,0.6-0.4,1-0.7,1.3c-0.3,0.3-0.7,0.4-1.2,0.4c-0.6,0-1.1-0.2-1.4-0.7
				c0,0,0,0,0,0c0,0,0,0,0,0v0.5c0,0.1,0,0.1-0.1,0.1h-0.6c-0.1,0-0.1,0-0.1-0.1v-8.2c0-0.1,0-0.1,0.1-0.1h0.6c0.1,0,0.1,0,0.1,0.1
				v2.8c0,0,0,0,0,0c0,0,0,0,0,0c0.1-0.2,0.3-0.4,0.5-0.5c0.2-0.1,0.5-0.2,0.8-0.2c0.5,0,1,0.1,1.3,0.4c0.3,0.3,0.5,0.7,0.7,1.3
				C181,144.1,181.1,144.5,181.1,145.1z M180.2,145c0-0.6-0.1-1.2-0.2-1.6c-0.2-0.5-0.6-0.8-1.1-0.8c-0.3,0-0.5,0.1-0.6,0.2
				s-0.3,0.4-0.4,0.6c-0.1,0.4-0.2,0.9-0.2,1.5c0,0.6,0.1,1.2,0.2,1.5c0.1,0.3,0.2,0.5,0.4,0.7c0.2,0.2,0.4,0.2,0.7,0.2
				c0.3,0,0.5-0.1,0.7-0.2c0.2-0.2,0.3-0.4,0.4-0.7C180.1,146.2,180.2,145.7,180.2,145z"/>
			<path class="st4" d="M182.6,140.7c-0.1-0.1-0.2-0.3-0.2-0.5c0-0.2,0.1-0.4,0.2-0.5s0.3-0.2,0.5-0.2c0.2,0,0.4,0.1,0.5,0.2
				s0.2,0.3,0.2,0.5c0,0.2-0.1,0.4-0.2,0.5s-0.3,0.2-0.5,0.2C182.9,140.9,182.7,140.8,182.6,140.7z M182.7,147.9v-5.8
				c0-0.1,0-0.1,0.1-0.1h0.6c0.1,0,0.1,0,0.1,0.1v5.8c0,0.1,0,0.1-0.1,0.1h-0.6C182.7,148,182.7,148,182.7,147.9z"/>
			<path class="st4" d="M185.3,147.9v-8.2c0-0.1,0-0.1,0.1-0.1h0.6c0.1,0,0.1,0,0.1,0.1v8.2c0,0.1,0,0.1-0.1,0.1h-0.6
				C185.3,148,185.3,148,185.3,147.9z"/>
			<path class="st4" d="M187.9,140.7c-0.1-0.1-0.2-0.3-0.2-0.5c0-0.2,0.1-0.4,0.2-0.5s0.3-0.2,0.5-0.2c0.2,0,0.4,0.1,0.5,0.2
				s0.2,0.3,0.2,0.5c0,0.2-0.1,0.4-0.2,0.5s-0.3,0.2-0.5,0.2C188.2,140.9,188,140.8,187.9,140.7z M187.9,147.9v-5.8
				c0-0.1,0-0.1,0.1-0.1h0.6c0.1,0,0.1,0,0.1,0.1v5.8c0,0.1,0,0.1-0.1,0.1H188C188,148,187.9,148,187.9,147.9z"/>
			<path class="st4" d="M194,139.6h0.6c0.1,0,0.1,0,0.1,0.1v8.2c0,0.1,0,0.1-0.1,0.1H194c-0.1,0-0.1,0-0.1-0.1v-0.5c0,0,0,0,0,0
				c0,0,0,0,0,0c-0.3,0.5-0.8,0.7-1.4,0.7c-0.5,0-0.9-0.1-1.2-0.4c-0.3-0.3-0.5-0.7-0.7-1.3c-0.1-0.4-0.2-0.9-0.2-1.4
				c0-0.6,0-1,0.1-1.4c0.1-0.6,0.3-1,0.7-1.3c0.3-0.3,0.8-0.4,1.3-0.4c0.3,0,0.6,0.1,0.8,0.2c0.2,0.1,0.4,0.3,0.5,0.5c0,0,0,0,0,0
				c0,0,0,0,0,0v-2.8C193.9,139.7,193.9,139.6,194,139.6z M193.8,145c0-0.7-0.1-1.2-0.2-1.5c-0.1-0.3-0.2-0.5-0.4-0.6
				s-0.4-0.2-0.7-0.2c-0.5,0-0.9,0.3-1.1,0.8c-0.2,0.4-0.2,0.9-0.2,1.6c0,0.6,0.1,1.1,0.2,1.5c0.1,0.3,0.2,0.5,0.4,0.7
				c0.2,0.2,0.4,0.2,0.7,0.2c0.3,0,0.5-0.1,0.7-0.2c0.2-0.2,0.3-0.4,0.4-0.7C193.8,146.2,193.8,145.7,193.8,145z"/>
			<path class="st4" d="M199.8,142.4c0.4,0.4,0.5,0.9,0.5,1.5v4c0,0.1,0,0.1-0.1,0.1h-0.6c-0.1,0-0.1,0-0.1-0.1v-0.4c0,0,0,0,0,0
				c0,0,0,0,0,0c-0.2,0.2-0.4,0.4-0.7,0.5c-0.3,0.1-0.6,0.2-0.9,0.2c-0.5,0-0.9-0.1-1.3-0.4c-0.4-0.3-0.5-0.7-0.5-1.3
				c0-0.6,0.2-1.1,0.6-1.5s1-0.5,1.7-0.5h1.1c0,0,0,0,0,0v-0.5c0-0.4-0.1-0.7-0.3-1c-0.2-0.2-0.5-0.4-0.9-0.4
				c-0.3,0-0.6,0.1-0.8,0.2c-0.2,0.2-0.3,0.4-0.4,0.6c0,0.1-0.1,0.1-0.1,0.1l-0.7,0c0,0-0.1,0-0.1,0c0,0,0-0.1,0-0.1
				c0.1-0.5,0.3-0.8,0.7-1.1c0.4-0.3,0.9-0.4,1.4-0.4C199,141.9,199.5,142.1,199.8,142.4z M199.1,147.1c0.3-0.2,0.4-0.5,0.4-0.9v-1
				c0,0,0,0,0,0h-1.1c-0.5,0-0.8,0.1-1.1,0.3c-0.3,0.2-0.4,0.5-0.4,0.9c0,0.4,0.1,0.6,0.3,0.8c0.2,0.2,0.5,0.3,0.8,0.3
				C198.5,147.4,198.8,147.3,199.1,147.1z"/>
			<path class="st4" d="M205.3,139.6h0.6c0.1,0,0.1,0,0.1,0.1v8.2c0,0.1,0,0.1-0.1,0.1h-0.6c-0.1,0-0.1,0-0.1-0.1v-0.5c0,0,0,0,0,0
				c0,0,0,0,0,0c-0.3,0.5-0.8,0.7-1.4,0.7c-0.5,0-0.9-0.1-1.2-0.4c-0.3-0.3-0.5-0.7-0.7-1.3c-0.1-0.4-0.2-0.9-0.2-1.4
				c0-0.6,0-1,0.1-1.4c0.1-0.6,0.3-1,0.7-1.3c0.3-0.3,0.8-0.4,1.3-0.4c0.3,0,0.6,0.1,0.8,0.2c0.2,0.1,0.4,0.3,0.5,0.5c0,0,0,0,0,0
				c0,0,0,0,0,0v-2.8C205.2,139.7,205.3,139.6,205.3,139.6z M205.2,145c0-0.7-0.1-1.2-0.2-1.5c-0.1-0.3-0.2-0.5-0.4-0.6
				s-0.4-0.2-0.7-0.2c-0.5,0-0.9,0.3-1.1,0.8c-0.2,0.4-0.2,0.9-0.2,1.6c0,0.6,0.1,1.1,0.2,1.5c0.1,0.3,0.2,0.5,0.4,0.7
				c0.2,0.2,0.4,0.2,0.7,0.2c0.3,0,0.5-0.1,0.7-0.2c0.2-0.2,0.3-0.4,0.4-0.7C205.1,146.2,205.2,145.7,205.2,145z"/>
		</g>
		<g class="st3">
			<path class="st4" d="M210.6,147.2c0.2-0.2,0.4-0.4,0.5-0.6c0-0.1,0.1-0.1,0.1-0.1l0.6,0.1c0,0,0.1,0,0.1,0.1c0,0,0,0.1,0,0.1
				c-0.1,0.4-0.4,0.8-0.7,1.1c-0.4,0.3-0.8,0.4-1.3,0.4c-0.6,0-1.1-0.2-1.4-0.5c-0.4-0.3-0.6-0.7-0.7-1.3c0-0.2-0.1-0.4-0.1-0.7
				c0-0.3,0-0.5,0-0.7s0-0.3,0-0.4c0-0.4,0-0.7,0-1c0.1-0.5,0.3-1,0.7-1.3c0.4-0.3,0.9-0.5,1.4-0.5c0.6,0,1.1,0.2,1.5,0.5
				c0.4,0.4,0.6,0.8,0.6,1.4c0,0.3,0,0.7,0,1.5c0,0.1,0,0.1-0.1,0.1h-3.3c0,0,0,0,0,0c0,0.2,0,0.5,0,0.8c0,0.3,0.2,0.6,0.4,0.8
				c0.2,0.2,0.5,0.3,0.9,0.3C210.1,147.4,210.4,147.3,210.6,147.2z M208.9,142.9c-0.2,0.2-0.4,0.5-0.4,0.8c0,0.3,0,0.6,0,0.8
				c0,0,0,0,0,0h2.5c0,0,0,0,0,0c0-0.2,0-0.5,0-0.8c0-0.3-0.2-0.6-0.4-0.8c-0.2-0.2-0.5-0.3-0.9-0.3
				C209.4,142.6,209.1,142.7,208.9,142.9z"/>
		</g>
		<g class="st3">
			<path class="st4" d="M213.6,147.7c-0.4-0.3-0.6-0.7-0.6-1.1v-0.1c0-0.1,0-0.1,0.1-0.1h0.6c0.1,0,0.1,0,0.1,0.1v0.1
				c0,0.3,0.1,0.5,0.3,0.7c0.2,0.2,0.5,0.3,0.9,0.3c0.4,0,0.6-0.1,0.9-0.3c0.2-0.2,0.3-0.4,0.3-0.7c0-0.2-0.1-0.4-0.2-0.5
				c-0.1-0.1-0.3-0.2-0.4-0.3c-0.2-0.1-0.4-0.2-0.7-0.3c-0.4-0.1-0.7-0.3-0.9-0.4s-0.5-0.3-0.6-0.5c-0.2-0.2-0.3-0.5-0.3-0.9
				c0-0.5,0.2-0.9,0.5-1.2c0.4-0.3,0.8-0.5,1.4-0.5c0.6,0,1.1,0.2,1.5,0.5c0.4,0.3,0.5,0.7,0.5,1.2v0c0,0.1,0,0.1-0.1,0.1h-0.6
				c-0.1,0-0.1,0-0.1-0.1v0c0-0.3-0.1-0.5-0.3-0.7s-0.5-0.3-0.9-0.3c-0.3,0-0.6,0.1-0.8,0.3s-0.3,0.4-0.3,0.7c0,0.3,0.1,0.5,0.3,0.6
				s0.5,0.3,1,0.5c0.4,0.1,0.7,0.3,1,0.4s0.5,0.3,0.7,0.5c0.2,0.2,0.3,0.5,0.3,0.9c0,0.5-0.2,0.9-0.6,1.2c-0.4,0.3-0.9,0.5-1.5,0.5
				S214,148,213.6,147.7z"/>
			<path class="st4" d="M218.5,147.8c-0.1-0.1-0.2-0.3-0.2-0.5c0-0.2,0.1-0.4,0.2-0.5s0.3-0.2,0.5-0.2c0.2,0,0.4,0.1,0.5,0.2
				s0.2,0.3,0.2,0.5c0,0.2-0.1,0.4-0.2,0.5s-0.3,0.2-0.5,0.2C218.8,148,218.6,148,218.5,147.8z"/>
		</g>
		<circle class="st0" cx="34.8" cy="34.8" r="13.3"/>
		<g class="st3">
			<path class="st5" d="M32.4,36.4c0,0.5-0.1,0.9-0.2,1.3c-0.2,0.6-0.6,1-1,1.3c-0.5,0.3-1.1,0.5-1.7,0.5c-0.7,0-1.2-0.2-1.7-0.5
				c-0.5-0.3-0.9-0.8-1.1-1.3c-0.1-0.3-0.2-0.7-0.2-1.1c0-0.1,0.1-0.2,0.2-0.2H28c0.1,0,0.2,0.1,0.2,0.2c0,0.3,0.1,0.5,0.1,0.6
				c0.1,0.2,0.2,0.4,0.4,0.5c0.2,0.1,0.4,0.2,0.6,0.2c0.5,0,0.8-0.2,1-0.6c0.1-0.3,0.2-0.6,0.2-0.9c0-0.4-0.1-0.7-0.2-1
				c-0.2-0.4-0.5-0.6-1-0.6c-0.1,0-0.2,0-0.3,0.1c-0.1,0.1-0.2,0.1-0.4,0.2c0,0-0.1,0-0.1,0c-0.1,0-0.1,0-0.1-0.1l-0.8-1.1
				c0,0,0-0.1,0-0.1c0-0.1,0-0.1,0.1-0.1l2.1-1.8c0,0,0,0,0-0.1c0,0,0,0,0,0h-3.1c0,0-0.1,0-0.1,0c0,0,0-0.1,0-0.1v-1.3
				c0,0,0-0.1,0-0.1c0,0,0.1,0,0.1,0h5.4c0,0,0.1,0,0.1,0s0,0.1,0,0.1v1.4c0,0.1,0,0.1-0.1,0.2l-1.7,1.6c0,0,0,0,0,0.1s0,0,0.1,0
				c0.8,0.1,1.3,0.6,1.6,1.3C32.3,35.4,32.4,35.9,32.4,36.4z"/>
			<path class="st5" d="M33.9,39.1c-0.2-0.2-0.3-0.4-0.3-0.7c0-0.3,0.1-0.6,0.3-0.7c0.2-0.2,0.4-0.3,0.7-0.3s0.6,0.1,0.7,0.3
				c0.2,0.2,0.3,0.4,0.3,0.7c0,0.3-0.1,0.5-0.3,0.7c-0.2,0.2-0.4,0.3-0.7,0.3S34.1,39.3,33.9,39.1z"/>
			<path class="st5" d="M39.4,37.8C39.4,37.8,39.5,37.8,39.4,37.8l3.6,0c0,0,0.1,0,0.1,0c0,0,0,0.1,0,0.1v1.3c0,0,0,0.1,0,0.1
				c0,0-0.1,0-0.1,0h-5.8c0,0-0.1,0-0.1,0c0,0,0-0.1,0-0.1V38c0-0.1,0-0.1,0.1-0.2c0.4-0.4,0.9-0.9,1.3-1.4c0.4-0.5,0.7-0.8,0.8-0.9
				c0.2-0.3,0.5-0.6,0.7-0.8c0.8-0.9,1.2-1.5,1.2-2c0-0.3-0.1-0.6-0.3-0.7c-0.2-0.2-0.5-0.3-0.8-0.3s-0.6,0.1-0.8,0.3
				c-0.2,0.2-0.3,0.5-0.3,0.8v0.3c0,0,0,0.1,0,0.1c0,0-0.1,0-0.1,0h-1.5c0,0-0.1,0-0.1,0c0,0,0-0.1,0-0.1v-0.6
				c0-0.5,0.2-0.9,0.4-1.2c0.3-0.4,0.6-0.6,1.1-0.8s0.9-0.3,1.5-0.3c0.6,0,1.2,0.1,1.6,0.3c0.5,0.2,0.8,0.5,1.1,0.9
				c0.2,0.4,0.4,0.8,0.4,1.3c0,0.4-0.1,0.7-0.3,1.1c-0.2,0.4-0.5,0.8-0.8,1.2c-0.3,0.3-0.6,0.7-0.9,1c-0.3,0.3-0.8,0.8-1.4,1.4
				L39.4,37.8C39.4,37.7,39.4,37.7,39.4,37.8z"/>
		</g>
		<path class="st6" d="M187.2,30.6h10.6c1.5,0,2.8,1.2,2.8,2.7v18c0,1.5-1.2,2.8-2.8,2.8h-10.6c-1.5,0-2.8-1.2-2.8-2.8v-18
			C184.5,31.9,185.7,30.6,187.2,30.6z"/>
		<path class="st0" d="M195.4,38.9c0.3,0.4,0.4,0.9,0.4,1.3c0,0.5-0.1,0.9-0.4,1.3c-0.2,0.2-0.4,0.4-0.7,0.5c0.4,0.1,0.8,0.4,1,0.8
			c0.2,0.4,0.4,0.8,0.3,1.3c0,0.5-0.1,1-0.4,1.4c-0.2,0.3-0.4,0.5-0.6,0.7c-0.3,0.2-0.6,0.4-1,0.4c-0.4,0.1-0.8,0.1-1.2,0.1h-3.9V38
			h4.2C194,37.9,194.9,38.3,195.4,38.9z M190.7,39.5v1.9h2.1c0.3,0,0.6-0.1,0.9-0.2c0.2-0.2,0.4-0.5,0.4-0.8c0-0.3-0.2-0.7-0.5-0.8
			c-0.3-0.1-0.7-0.1-1-0.1H190.7z M190.7,42.9v2.3h2.1c0.3,0,0.6,0,0.9-0.2c0.4-0.2,0.6-0.6,0.6-1.1c0-0.4-0.2-0.8-0.6-0.9
			c-0.3-0.1-0.6-0.2-0.9-0.2H190.7z"/>
		<path class="st6" d="M115.3,59.1h-10.6c-1.5,0-2.8-1.2-2.8-2.8v-18c0-1.5,1.2-2.8,2.8-2.8h10.6c1.5,0,2.8,1.2,2.8,2.8v18
			C118,57.9,116.8,59.1,115.3,59.1z"/>
		<path class="st0" d="M109,43h2l3.1,8.8h-2l-0.6-1.8h-3.2l-0.6,1.8h-1.9L109,43z M108.9,48.5h2.2L110,45L108.9,48.5z"/>
	</g>
</g>
</svg>
