<svg xmlns="http://www.w3.org/2000/svg" viewBox="0 0 307 199"><defs><style>.cls-1{fill:none;stroke:#00b6ed;stroke-miterlimit:10;}.cls-2{fill:#00b6ed;}.cls-3{fill:#fff;}</style></defs><title>03</title><g id="Capa_2" data-name="Capa 2"><g id="Capa_1-2" data-name="Capa 1"><rect class="cls-1" x="0.5" y="0.5" width="306" height="198"/><rect class="cls-2" x="0.5" y="0.5" width="306" height="198"/><path class="cls-3" d="M55.16,89a.23.23,0,0,1,.07.17v.64a2.62,2.62,0,0,1-.46,1.62,6.64,6.64,0,0,1-1.34,1.28,7.17,7.17,0,0,0-1.06,1,1.52,1.52,0,0,0-.34,1,1.36,1.36,0,0,0,.4,1,1.41,1.41,0,0,0,1,.39,1.54,1.54,0,0,0,1.14-.42A1.46,1.46,0,0,0,55,94.61v-.32c0-.14.08-.22.24-.22l2.34.1a.28.28,0,0,1,.17.07.23.23,0,0,1,.07.17v.2a4.08,4.08,0,0,1-.56,2.13,3.77,3.77,0,0,1-1.57,1.44,5.09,5.09,0,0,1-2.31.51,4.29,4.29,0,0,1-3.07-1.07,4.11,4.11,0,0,1-.87-4.34,3.6,3.6,0,0,1,.67-1,9.92,9.92,0,0,1,1-.88,5.85,5.85,0,0,0,1-.86,1.32,1.32,0,0,0,.3-.88v-.46a.23.23,0,0,1,.07-.17.24.24,0,0,1,.17-.07H55A.28.28,0,0,1,55.16,89ZM55,84.89A1.58,1.58,0,0,1,55.43,86,1.51,1.51,0,0,1,55,87.15a1.54,1.54,0,0,1-1.14.44A1.51,1.51,0,0,1,52.29,86a1.53,1.53,0,0,1,.44-1.13,1.48,1.48,0,0,1,1.12-.45A1.58,1.58,0,0,1,55,84.89Z"/><path class="cls-3" d="M60.79,94.11a3.8,3.8,0,0,1-1.61-1.54,4.59,4.59,0,0,1-.57-2.32V84.69a4.52,4.52,0,0,1,.57-2.29,3.84,3.84,0,0,1,1.61-1.53,5.12,5.12,0,0,1,2.4-.54,5.3,5.3,0,0,1,2.4.53,3.93,3.93,0,0,1,1.61,1.49,4.31,4.31,0,0,1,.57,2.24v.1a.29.29,0,0,1-.07.18.21.21,0,0,1-.17.08l-2.34.1c-.16,0-.24-.07-.24-.22v-.26a1.85,1.85,0,0,0-.48-1.32,1.89,1.89,0,0,0-2.56,0,1.85,1.85,0,0,0-.48,1.32v5.86a1.78,1.78,0,0,0,.48,1.31,1.92,1.92,0,0,0,2.56,0A1.78,1.78,0,0,0,65,90.43v-.26c0-.14.08-.22.24-.22l2.34.1a.24.24,0,0,1,.24.24v.06a4.39,4.39,0,0,1-.57,2.26,3.79,3.79,0,0,1-1.61,1.51,5.17,5.17,0,0,1-2.4.53A5.12,5.12,0,0,1,60.79,94.11Z"/><path class="cls-3" d="M70.64,93.78a3.51,3.51,0,0,1-1.33-2.39,11.73,11.73,0,0,1-.16-2.06,11.57,11.57,0,0,1,.16-2.06,3.51,3.51,0,0,1,1.33-2.35,4.48,4.48,0,0,1,2.85-.87,4.39,4.39,0,0,1,2.81.87,3.68,3.68,0,0,1,1.33,2.35,13.21,13.21,0,0,1,0,4.1,3.63,3.63,0,0,1-1.31,2.41,4.4,4.4,0,0,1-2.83.87A4.48,4.48,0,0,1,70.64,93.78Zm3.74-1.89a1.67,1.67,0,0,0,.49-.92,15.35,15.35,0,0,0,.1-1.64,14.67,14.67,0,0,0-.1-1.62,1.6,1.6,0,0,0-.47-.91,1.36,1.36,0,0,0-.93-.33,1.31,1.31,0,0,0-.91.33,1.49,1.49,0,0,0-.47.91,9.93,9.93,0,0,0-.1,1.62A12.32,12.32,0,0,0,72.07,91a1.57,1.57,0,0,0,.5.92,1.31,1.31,0,0,0,.92.34A1.27,1.27,0,0,0,74.38,91.89Zm-2.27-9a.21.21,0,0,1,0-.2l1.14-2a.33.33,0,0,1,.3-.16h1.92a.2.2,0,0,1,.2.09.24.24,0,0,1,0,.21l-1.48,2a.31.31,0,0,1-.28.14h-1.6C72.19,83,72.13,83,72.11,82.89Z"/><path class="cls-3" d="M91.88,85a4,4,0,0,1,.77,2.61v6.66a.24.24,0,0,1-.07.17.23.23,0,0,1-.17.07H90.09a.24.24,0,0,1-.24-.24V88a1.75,1.75,0,0,0-.33-1.11,1.1,1.1,0,0,0-.89-.41,1.13,1.13,0,0,0-.92.41A1.65,1.65,0,0,0,87.37,88v6.28a.24.24,0,0,1-.07.17.23.23,0,0,1-.17.07H84.81a.24.24,0,0,1-.24-.24V88a1.75,1.75,0,0,0-.34-1.11,1.21,1.21,0,0,0-1.82,0A1.65,1.65,0,0,0,82.07,88v6.28a.24.24,0,0,1-.07.17.23.23,0,0,1-.17.07H79.51a.24.24,0,0,1-.24-.24v-9.8a.23.23,0,0,1,.07-.17.24.24,0,0,1,.17-.07h2.32a.24.24,0,0,1,.24.24V85s0,.07,0,.08,0,0,.08,0a2.58,2.58,0,0,1,1-.73,3.35,3.35,0,0,1,2.75.14,2.61,2.61,0,0,1,1,1.07,0,0,0,0,0,.06,0s.05,0,.08-.07a2.61,2.61,0,0,1,1.12-1.07,3.29,3.29,0,0,1,1.46-.33A2.74,2.74,0,0,1,91.88,85Z"/><path class="cls-3" d="M95.64,93.78a3.51,3.51,0,0,1-1.33-2.39,11.73,11.73,0,0,1-.16-2.06,11.57,11.57,0,0,1,.16-2.06,3.51,3.51,0,0,1,1.33-2.35,4.48,4.48,0,0,1,2.85-.87,4.39,4.39,0,0,1,2.81.87,3.68,3.68,0,0,1,1.33,2.35,13.21,13.21,0,0,1,0,4.1,3.63,3.63,0,0,1-1.31,2.41,4.4,4.4,0,0,1-2.83.87A4.48,4.48,0,0,1,95.64,93.78Zm3.74-1.89a1.67,1.67,0,0,0,.49-.92,15.35,15.35,0,0,0,.1-1.64,14.67,14.67,0,0,0-.1-1.62,1.6,1.6,0,0,0-.47-.91,1.36,1.36,0,0,0-.93-.33,1.31,1.31,0,0,0-.91.33,1.49,1.49,0,0,0-.47.91,9.93,9.93,0,0,0-.1,1.62A12.32,12.32,0,0,0,97.07,91a1.57,1.57,0,0,0,.5.92,1.31,1.31,0,0,0,.92.34A1.27,1.27,0,0,0,99.38,91.89Z"/><path class="cls-3" d="M114.27,84.31a.31.31,0,0,1,.12.32l-.4,2.3c0,.16-.11.21-.28.14a2.67,2.67,0,0,0-.58-.08,2.44,2.44,0,0,0-.52.06,1.52,1.52,0,0,0-1,.56,1.74,1.74,0,0,0-.4,1.16v5.48a.24.24,0,0,1-.07.17.23.23,0,0,1-.17.07h-2.34a.24.24,0,0,1-.24-.24v-9.8a.23.23,0,0,1,.07-.17.24.24,0,0,1,.17-.07H111a.24.24,0,0,1,.24.24v.8q0,.09,0,.09s0,0,.07,0a2.16,2.16,0,0,1,2-1.22A2,2,0,0,1,114.27,84.31Z"/><path class="cls-3" d="M123.61,89.25l0,.78a.21.21,0,0,1-.24.24h-5.3a.09.09,0,0,0-.1.1,5.07,5.07,0,0,0,.08.68,1.36,1.36,0,0,0,.49.88,1.44,1.44,0,0,0,1,.32,1.4,1.4,0,0,0,1.36-.9.26.26,0,0,1,.3-.16l2.12.42c.16,0,.21.14.16.3a3.94,3.94,0,0,1-1.45,2,4.2,4.2,0,0,1-2.49.71,4.51,4.51,0,0,1-2.83-.81,3.78,3.78,0,0,1-1.37-2.33,12.63,12.63,0,0,1-.18-2.5,9.25,9.25,0,0,1,.12-1.62A3.68,3.68,0,0,1,116.55,85a4.74,4.74,0,0,1,5.74.12,3.88,3.88,0,0,1,1.26,2.71C123.59,88.23,123.61,88.72,123.61,89.25Zm-5.15-2.46a1.47,1.47,0,0,0-.45.88,4.68,4.68,0,0,0-.06.76c0,.07,0,.1.1.1h2.6a.09.09,0,0,0,.1-.1,4.68,4.68,0,0,0-.06-.76,1.46,1.46,0,0,0-.44-.87,1.39,1.39,0,0,0-1.79,0Z"/><path class="cls-3" d="M125.85,93.81a2.53,2.53,0,0,1-1.1-2.16v-.16a.23.23,0,0,1,.07-.17.24.24,0,0,1,.17-.07h2.2a.24.24,0,0,1,.24.24v0a.82.82,0,0,0,.4.72,1.62,1.62,0,0,0,1,.28,1.35,1.35,0,0,0,.86-.25.76.76,0,0,0,.32-.63.65.65,0,0,0-.35-.58,8.14,8.14,0,0,0-1.13-.46,8.08,8.08,0,0,1-1-.32,5.22,5.22,0,0,1-2-1.08,2.5,2.5,0,0,1-.75-2,2.84,2.84,0,0,1,1.06-2.32,4.31,4.31,0,0,1,2.8-.86,4.38,4.38,0,0,1,2.87.89,3,3,0,0,1,1.07,2.37c0,.15-.08.22-.24.22h-2.16a.24.24,0,0,1-.24-.24v-.06a.9.9,0,0,0-.34-.7,1.46,1.46,0,0,0-.92-.28,1.39,1.39,0,0,0-.87.26.8.8,0,0,0-.33.64.71.71,0,0,0,.4.65,5.35,5.35,0,0,0,1.22.47l.35.11.31.11A7.51,7.51,0,0,1,132,89.62a2.35,2.35,0,0,1,.82,1.93,2.68,2.68,0,0,1-1.09,2.26,4.76,4.76,0,0,1-2.93.82A4.81,4.81,0,0,1,125.85,93.81Z"/><path class="cls-3" d="M139.56,84.28a.24.24,0,0,1,.17-.07h2.34a.24.24,0,0,1,.24.24v9.8a.24.24,0,0,1-.07.17.23.23,0,0,1-.17.07h-2.34a.24.24,0,0,1-.24-.24v-.5a.07.07,0,0,0,0-.07.11.11,0,0,0-.08,0,2.48,2.48,0,0,1-2.14.92,2.94,2.94,0,0,1-3.12-3.24V84.45a.23.23,0,0,1,.07-.17.24.24,0,0,1,.17-.07h2.34a.24.24,0,0,1,.24.24v6.28a1.66,1.66,0,0,0,.33,1.1,1.13,1.13,0,0,0,.93.4,1.18,1.18,0,0,0,.95-.42,1.71,1.71,0,0,0,.35-1.12V84.45A.23.23,0,0,1,139.56,84.28Z"/><path class="cls-3" d="M152.43,89.25l0,.78a.21.21,0,0,1-.24.24h-5.3a.09.09,0,0,0-.1.1,5.07,5.07,0,0,0,.08.68,1.36,1.36,0,0,0,.49.88,1.44,1.44,0,0,0,1,.32,1.4,1.4,0,0,0,1.36-.9.26.26,0,0,1,.3-.16l2.12.42c.16,0,.21.14.16.3a3.94,3.94,0,0,1-1.45,2,4.2,4.2,0,0,1-2.49.71,4.51,4.51,0,0,1-2.83-.81,3.78,3.78,0,0,1-1.37-2.33,12.63,12.63,0,0,1-.18-2.5,9.25,9.25,0,0,1,.12-1.62A3.68,3.68,0,0,1,145.37,85a4.74,4.74,0,0,1,5.74.12,3.88,3.88,0,0,1,1.26,2.71C152.41,88.23,152.43,88.72,152.43,89.25Zm-5.15-2.46a1.47,1.47,0,0,0-.45.88,4.68,4.68,0,0,0-.06.76c0,.07,0,.1.1.1h2.6a.09.09,0,0,0,.1-.1,4.68,4.68,0,0,0-.06-.76,1.46,1.46,0,0,0-.44-.87,1.39,1.39,0,0,0-1.79,0Z"/><path class="cls-3" d="M154,94.42a.21.21,0,0,1-.07-.17V80.73a.23.23,0,0,1,.07-.17.24.24,0,0,1,.17-.07h2.34a.24.24,0,0,1,.24.24V94.25a.24.24,0,0,1-.07.17.23.23,0,0,1-.17.07h-2.34A.21.21,0,0,1,154,94.42Z"/><path class="cls-3" d="M160.79,94.29,158,84.45l0-.08c0-.12.07-.18.22-.18h2.56a.25.25,0,0,1,.26.22l1.3,6c0,.06,0,.08.06.08s0,0,.06-.08l1.28-6a.24.24,0,0,1,.26-.22l2.56,0c.17,0,.24.09.2.26L164,94.29a.26.26,0,0,1-.28.2h-2.62A.26.26,0,0,1,160.79,94.29Z"/><path class="cls-3" d="M175.87,89.25l0,.78a.21.21,0,0,1-.24.24h-5.3a.09.09,0,0,0-.1.1,5.07,5.07,0,0,0,.08.68,1.36,1.36,0,0,0,.49.88,1.44,1.44,0,0,0,1,.32,1.4,1.4,0,0,0,1.36-.9.26.26,0,0,1,.3-.16l2.12.42c.16,0,.21.14.16.3a3.94,3.94,0,0,1-1.45,2,4.2,4.2,0,0,1-2.49.71,4.51,4.51,0,0,1-2.83-.81,3.78,3.78,0,0,1-1.37-2.33,12.63,12.63,0,0,1-.18-2.5,9.25,9.25,0,0,1,.12-1.62A3.68,3.68,0,0,1,168.81,85a4.74,4.74,0,0,1,5.74.12,3.88,3.88,0,0,1,1.26,2.71C175.85,88.23,175.87,88.72,175.87,89.25Zm-5.15-2.46a1.47,1.47,0,0,0-.45.88,4.68,4.68,0,0,0-.06.76c0,.07,0,.1.1.1h2.6a.09.09,0,0,0,.1-.1,4.68,4.68,0,0,0-.06-.76,1.46,1.46,0,0,0-.44-.87,1.39,1.39,0,0,0-1.79,0Z"/><path class="cls-3" d="M184.76,85a3.78,3.78,0,0,1,.83,2.59v6.68a.24.24,0,0,1-.07.17.23.23,0,0,1-.17.07H183a.24.24,0,0,1-.24-.24V88a1.7,1.7,0,0,0-.34-1.1,1.28,1.28,0,0,0-1.87,0,1.64,1.64,0,0,0-.35,1.11v6.26a.24.24,0,0,1-.07.17.23.23,0,0,1-.17.07h-2.34a.24.24,0,0,1-.24-.24v-9.8a.23.23,0,0,1,.07-.17.24.24,0,0,1,.17-.07H180a.24.24,0,0,1,.24.24V85s0,.07,0,.07.06,0,.1-.07a2.48,2.48,0,0,1,2.12-1A2.93,2.93,0,0,1,184.76,85Z"/><path class="cls-3" d="M199.79,89.45a10.11,10.11,0,0,1-.18,2.08,4.46,4.46,0,0,1-1.09,2.32,2.81,2.81,0,0,1-2.11.8,3.21,3.21,0,0,1-1.18-.19,2,2,0,0,1-.88-.63s-.06,0-.08,0a.08.08,0,0,0,0,.08V98a.24.24,0,0,1-.07.17.23.23,0,0,1-.17.07h-2.34a.24.24,0,0,1-.24-.24V84.45a.23.23,0,0,1,.07-.17.24.24,0,0,1,.17-.07H194a.24.24,0,0,1,.24.24v.4s0,.07,0,.08,0,0,.08,0a2.65,2.65,0,0,1,2.12-.86c1.61,0,2.65,1.06,3.12,3.16A10.79,10.79,0,0,1,199.79,89.45Zm-2.82-.1a8.32,8.32,0,0,0-.16-1.72,1.76,1.76,0,0,0-.43-.85,1.13,1.13,0,0,0-.81-.31c-.62,0-1,.39-1.18,1.16a6.78,6.78,0,0,0-.16,1.72,8,8,0,0,0,.16,1.78c.17.74.56,1.1,1.18,1.1s1-.36,1.22-1.08A7.12,7.12,0,0,0,197,89.35Z"/><path class="cls-3" d="M207.35,84.31a.31.31,0,0,1,.12.32l-.4,2.3c0,.16-.11.21-.28.14a2.67,2.67,0,0,0-.58-.08,2.44,2.44,0,0,0-.52.06,1.52,1.52,0,0,0-1,.56,1.74,1.74,0,0,0-.4,1.16v5.48a.24.24,0,0,1-.07.17.23.23,0,0,1-.17.07h-2.34a.24.24,0,0,1-.24-.24v-9.8a.23.23,0,0,1,.07-.17.24.24,0,0,1,.17-.07h2.34a.24.24,0,0,1,.24.24v.8q0,.09,0,.09s0,0,.07,0a2.16,2.16,0,0,1,2-1.22A2,2,0,0,1,207.35,84.31Z"/><path class="cls-3" d="M209.66,93.78a3.51,3.51,0,0,1-1.33-2.39,11.73,11.73,0,0,1-.16-2.06,11.57,11.57,0,0,1,.16-2.06,3.51,3.51,0,0,1,1.33-2.35,4.48,4.48,0,0,1,2.85-.87,4.39,4.39,0,0,1,2.81.87,3.68,3.68,0,0,1,1.33,2.35,13.21,13.21,0,0,1,0,4.1,3.63,3.63,0,0,1-1.31,2.41,4.4,4.4,0,0,1-2.83.87A4.48,4.48,0,0,1,209.66,93.78Zm3.74-1.89a1.67,1.67,0,0,0,.49-.92,15.35,15.35,0,0,0,.1-1.64,14.67,14.67,0,0,0-.1-1.62,1.6,1.6,0,0,0-.47-.91,1.36,1.36,0,0,0-.93-.33,1.31,1.31,0,0,0-.91.33,1.49,1.49,0,0,0-.47.91,9.93,9.93,0,0,0-.1,1.62,12.32,12.32,0,0,0,.08,1.64,1.57,1.57,0,0,0,.5.92,1.31,1.31,0,0,0,.92.34A1.27,1.27,0,0,0,213.4,91.89Z"/><path class="cls-3" d="M226.83,89.25a10.39,10.39,0,0,1-.2,2.22q-.66,3.18-3.12,3.18a2.62,2.62,0,0,1-2.12-.86s-.06-.05-.08,0a.08.08,0,0,0,0,.08v.42a.24.24,0,0,1-.07.17.23.23,0,0,1-.17.07h-2.34a.24.24,0,0,1-.24-.24V80.73a.23.23,0,0,1,.07-.17.24.24,0,0,1,.17-.07H221a.24.24,0,0,1,.24.24v4.1s0,.07,0,.08.05,0,.08,0a2.2,2.2,0,0,1,.89-.63,3.53,3.53,0,0,1,1.19-.19,2.87,2.87,0,0,1,2.1.8,4.34,4.34,0,0,1,1.08,2.3A10.67,10.67,0,0,1,226.83,89.25Zm-2.82.08a6.49,6.49,0,0,0-.18-1.78c-.22-.72-.62-1.08-1.22-1.08s-1,.37-1.18,1.1a7.94,7.94,0,0,0-.16,1.76,6.8,6.8,0,0,0,.16,1.74c.17.78.56,1.16,1.18,1.16s1.06-.39,1.24-1.18A7.91,7.91,0,0,0,224,89.33Z"/><path class="cls-3" d="M228.56,94.42a.21.21,0,0,1-.07-.17V80.73a.23.23,0,0,1,.07-.17.24.24,0,0,1,.17-.07h2.34a.24.24,0,0,1,.24.24V94.25a.24.24,0,0,1-.07.17.23.23,0,0,1-.17.07h-2.34A.21.21,0,0,1,228.56,94.42Z"/><path class="cls-3" d="M241.39,89.25l0,.78a.21.21,0,0,1-.24.24h-5.3a.09.09,0,0,0-.1.1,5.07,5.07,0,0,0,.08.68,1.36,1.36,0,0,0,.49.88,1.44,1.44,0,0,0,1,.32,1.4,1.4,0,0,0,1.36-.9.26.26,0,0,1,.3-.16l2.12.42c.16,0,.21.14.16.3a3.94,3.94,0,0,1-1.45,2,4.2,4.2,0,0,1-2.49.71,4.51,4.51,0,0,1-2.83-.81,3.78,3.78,0,0,1-1.37-2.33,12.63,12.63,0,0,1-.18-2.5,9.25,9.25,0,0,1,.12-1.62A3.68,3.68,0,0,1,234.33,85a4.74,4.74,0,0,1,5.74.12,3.88,3.88,0,0,1,1.26,2.71C241.37,88.23,241.39,88.72,241.39,89.25Zm-5.15-2.46a1.47,1.47,0,0,0-.45.88,4.68,4.68,0,0,0-.06.76c0,.07,0,.1.1.1h2.6a.09.09,0,0,0,.1-.1,4.68,4.68,0,0,0-.06-.76,1.46,1.46,0,0,0-.44-.87,1.39,1.39,0,0,0-1.79,0Z"/><path class="cls-3" d="M255.52,85a4,4,0,0,1,.77,2.61v6.66a.24.24,0,0,1-.07.17.23.23,0,0,1-.17.07h-2.32a.24.24,0,0,1-.24-.24V88a1.75,1.75,0,0,0-.33-1.11,1.1,1.1,0,0,0-.89-.41,1.13,1.13,0,0,0-.92.41A1.65,1.65,0,0,0,251,88v6.28a.24.24,0,0,1-.07.17.23.23,0,0,1-.17.07h-2.32a.24.24,0,0,1-.24-.24V88a1.75,1.75,0,0,0-.34-1.11,1.21,1.21,0,0,0-1.82,0,1.65,1.65,0,0,0-.34,1.09v6.28a.24.24,0,0,1-.07.17.23.23,0,0,1-.17.07h-2.32a.24.24,0,0,1-.24-.24v-9.8a.23.23,0,0,1,.07-.17.24.24,0,0,1,.17-.07h2.32a.24.24,0,0,1,.24.24V85s0,.07,0,.08.05,0,.08,0a2.58,2.58,0,0,1,1-.73,3.35,3.35,0,0,1,2.75.14,2.61,2.61,0,0,1,1,1.07,0,0,0,0,0,.06,0s.05,0,.08-.07a2.61,2.61,0,0,1,1.12-1.07,3.29,3.29,0,0,1,1.46-.33A2.74,2.74,0,0,1,255.52,85Z"/><path class="cls-3" d="M264.07,84.48a3.65,3.65,0,0,1,1.47,1.2,3.06,3.06,0,0,1,.53,1.75v6.82a.24.24,0,0,1-.07.17.23.23,0,0,1-.17.07h-2.34a.24.24,0,0,1-.24-.24v-.56a.1.1,0,0,0,0-.08s-.06,0-.09,0a2.75,2.75,0,0,1-2.35,1,3.57,3.57,0,0,1-2.27-.7,2.75,2.75,0,0,1-.92-2.34c0-2.17,1.37-3.26,4.09-3.26h1.48a.09.09,0,0,0,.1-.1v-.46a1.33,1.33,0,0,0-.35-1,1.27,1.27,0,0,0-.95-.36,1.4,1.4,0,0,0-.8.22.92.92,0,0,0-.4.6.27.27,0,0,1-.29.2L258,87.35a.23.23,0,0,1-.16-.06.14.14,0,0,1-.05-.16,3,3,0,0,1,1.25-2.23,4.63,4.63,0,0,1,2.84-.85A5.22,5.22,0,0,1,264.07,84.48Zm-1.3,7.65a1.23,1.23,0,0,0,.48-1v-.84a.09.09,0,0,0-.1-.1H262a1.88,1.88,0,0,0-1.16.32,1.07,1.07,0,0,0-.42.92,1,1,0,0,0,.32.8,1.2,1.2,0,0,0,.84.28A1.78,1.78,0,0,0,262.77,92.13Z"/><path class="cls-3" d="M268.55,93.81a2.53,2.53,0,0,1-1.1-2.16v-.16a.23.23,0,0,1,.07-.17.24.24,0,0,1,.17-.07h2.2a.28.28,0,0,1,.17.07.27.27,0,0,1,.06.17v0a.83.83,0,0,0,.41.72,1.62,1.62,0,0,0,1,.28,1.35,1.35,0,0,0,.86-.25.76.76,0,0,0,.32-.63.65.65,0,0,0-.35-.58,8.14,8.14,0,0,0-1.13-.46,8.08,8.08,0,0,1-1-.32,5.22,5.22,0,0,1-1.95-1.08,2.5,2.5,0,0,1-.75-2,2.84,2.84,0,0,1,1.06-2.32,4.31,4.31,0,0,1,2.8-.86,4.38,4.38,0,0,1,2.87.89,3,3,0,0,1,1.07,2.37c0,.15-.08.22-.24.22H273a.24.24,0,0,1-.24-.24v-.06a.9.9,0,0,0-.34-.7,1.46,1.46,0,0,0-.92-.28,1.39,1.39,0,0,0-.87.26.8.8,0,0,0-.33.64.71.71,0,0,0,.4.65,5.35,5.35,0,0,0,1.22.47l.35.11.31.11a7.51,7.51,0,0,1,2.18,1.11,2.35,2.35,0,0,1,.82,1.93,2.68,2.68,0,0,1-1.09,2.26,4.76,4.76,0,0,1-2.93.82A4.81,4.81,0,0,1,268.55,93.81Z"/><path class="cls-3" d="M49.64,118.42a.21.21,0,0,1-.07-.17V104.73a.23.23,0,0,1,.07-.17.24.24,0,0,1,.17-.07h2.34a.28.28,0,0,1,.17.07.23.23,0,0,1,.07.17v13.52a.21.21,0,0,1-.07.17.23.23,0,0,1-.17.07H49.81A.21.21,0,0,1,49.64,118.42Z"/><path class="cls-3" d="M55.44,117.78a3.51,3.51,0,0,1-1.33-2.39,11.73,11.73,0,0,1-.16-2.06,11.57,11.57,0,0,1,.16-2.06,3.51,3.51,0,0,1,1.33-2.35,4.48,4.48,0,0,1,2.85-.87,4.39,4.39,0,0,1,2.81.87,3.64,3.64,0,0,1,1.33,2.35,13.21,13.21,0,0,1,0,4.1,3.63,3.63,0,0,1-1.31,2.41,4.4,4.4,0,0,1-2.83.87A4.48,4.48,0,0,1,55.44,117.78Zm3.74-1.89a1.67,1.67,0,0,0,.49-.92,15.35,15.35,0,0,0,.1-1.64,14.67,14.67,0,0,0-.1-1.62,1.54,1.54,0,0,0-.47-.91,1.36,1.36,0,0,0-.93-.33,1.31,1.31,0,0,0-.91.33,1.54,1.54,0,0,0-.47.91,9.93,9.93,0,0,0-.1,1.62,12.32,12.32,0,0,0,.08,1.64,1.62,1.62,0,0,0,.5.92,1.31,1.31,0,0,0,.92.34A1.27,1.27,0,0,0,59.18,115.89Z"/><path class="cls-3" d="M65,117.81a2.53,2.53,0,0,1-1.1-2.16v-.16a.23.23,0,0,1,.07-.17.24.24,0,0,1,.17-.07h2.2a.24.24,0,0,1,.24.24v0a.82.82,0,0,0,.4.72,1.62,1.62,0,0,0,1,.28,1.35,1.35,0,0,0,.86-.25.76.76,0,0,0,.32-.63.65.65,0,0,0-.35-.58,8.14,8.14,0,0,0-1.13-.46,8.08,8.08,0,0,1-1-.32,5.22,5.22,0,0,1-1.95-1.08,2.5,2.5,0,0,1-.75-2,2.84,2.84,0,0,1,1.06-2.32,4.31,4.31,0,0,1,2.8-.86,4.38,4.38,0,0,1,2.87.89,3,3,0,0,1,1.07,2.37c0,.15-.08.22-.24.22H69.41a.24.24,0,0,1-.24-.24v-.06a.9.9,0,0,0-.34-.7,1.46,1.46,0,0,0-.92-.28,1.39,1.39,0,0,0-.87.26.8.8,0,0,0-.33.64.71.71,0,0,0,.4.65,5.35,5.35,0,0,0,1.22.47l.35.11.31.11a7.51,7.51,0,0,1,2.18,1.11,2.35,2.35,0,0,1,.82,1.93,2.68,2.68,0,0,1-1.09,2.26,4.76,4.76,0,0,1-2.93.82A4.81,4.81,0,0,1,65,117.81Z"/><path class="cls-3" d="M85.67,113.25l0,.78a.21.21,0,0,1-.24.24h-5.3a.09.09,0,0,0-.1.1,5.07,5.07,0,0,0,.08.68,1.36,1.36,0,0,0,.49.88,1.44,1.44,0,0,0,1,.32,1.4,1.4,0,0,0,1.36-.9.26.26,0,0,1,.3-.16l2.12.42c.16,0,.21.14.16.3a3.94,3.94,0,0,1-1.45,2,4.2,4.2,0,0,1-2.49.71,4.51,4.51,0,0,1-2.83-.81,3.78,3.78,0,0,1-1.37-2.33,12.63,12.63,0,0,1-.18-2.5,9.25,9.25,0,0,1,.12-1.62A3.68,3.68,0,0,1,78.61,109a4.74,4.74,0,0,1,5.74.12,3.88,3.88,0,0,1,1.26,2.71C85.65,112.23,85.67,112.72,85.67,113.25Zm-5.15-2.46a1.47,1.47,0,0,0-.45.88,4.68,4.68,0,0,0-.06.76c0,.07,0,.1.1.1h2.6a.09.09,0,0,0,.1-.1,4.68,4.68,0,0,0-.06-.76,1.46,1.46,0,0,0-.44-.87,1.39,1.39,0,0,0-1.79,0Z"/><path class="cls-3" d="M87.91,117.81a2.53,2.53,0,0,1-1.1-2.16v-.16a.23.23,0,0,1,.07-.17.24.24,0,0,1,.17-.07h2.2a.24.24,0,0,1,.24.24v0a.82.82,0,0,0,.4.72,1.62,1.62,0,0,0,1,.28,1.35,1.35,0,0,0,.86-.25.76.76,0,0,0,.32-.63.65.65,0,0,0-.35-.58,8.14,8.14,0,0,0-1.13-.46,8.08,8.08,0,0,1-1-.32,5.22,5.22,0,0,1-2-1.08,2.5,2.5,0,0,1-.75-2A2.84,2.84,0,0,1,88,108.93a4.31,4.31,0,0,1,2.8-.86,4.38,4.38,0,0,1,2.87.89,3,3,0,0,1,1.07,2.37c0,.15-.08.22-.24.22H92.31a.24.24,0,0,1-.24-.24v-.06a.9.9,0,0,0-.34-.7,1.46,1.46,0,0,0-.92-.28,1.39,1.39,0,0,0-.87.26.8.8,0,0,0-.33.64.71.71,0,0,0,.4.65,5.35,5.35,0,0,0,1.22.47l.35.11.31.11a7.51,7.51,0,0,1,2.18,1.11,2.35,2.35,0,0,1,.82,1.93,2.68,2.68,0,0,1-1.09,2.26,4.76,4.76,0,0,1-2.93.82A4.81,4.81,0,0,1,87.91,117.81Z"/><path class="cls-3" d="M101.46,110.26a.23.23,0,0,1-.17.07H99.75a.09.09,0,0,0-.1.1v4.5a1.26,1.26,0,0,0,.25.89.91.91,0,0,0,.77.25h.4a.24.24,0,0,1,.24.24v1.94a.21.21,0,0,1-.24.24c-.23,0-.56,0-1,0a4.2,4.2,0,0,1-2.35-.52,2.18,2.18,0,0,1-.77-2v-5.6a.09.09,0,0,0-.1-.1h-.92a.24.24,0,0,1-.24-.24v-1.64a.23.23,0,0,1,.07-.17.24.24,0,0,1,.17-.07h.92a.09.09,0,0,0,.1-.1v-2.3a.23.23,0,0,1,.07-.17.24.24,0,0,1,.17-.07h2.22a.24.24,0,0,1,.24.24v2.3c0,.07,0,.1.1.1h1.54a.24.24,0,0,1,.24.24v1.64A.24.24,0,0,1,101.46,110.26Z"/><path class="cls-3" d="M108.3,108.28a.24.24,0,0,1,.17-.07h2.34a.24.24,0,0,1,.24.24v9.8a.24.24,0,0,1-.07.17.23.23,0,0,1-.17.07h-2.34a.24.24,0,0,1-.24-.24v-.5a.07.07,0,0,0,0-.07.11.11,0,0,0-.08,0,2.48,2.48,0,0,1-2.14.92,2.94,2.94,0,0,1-3.12-3.24v-6.94a.23.23,0,0,1,.07-.17.24.24,0,0,1,.17-.07h2.34a.24.24,0,0,1,.24.24v6.28a1.66,1.66,0,0,0,.33,1.1,1.13,1.13,0,0,0,.93.4,1.18,1.18,0,0,0,.95-.42,1.71,1.71,0,0,0,.35-1.12v-6.24A.23.23,0,0,1,108.3,108.28Z"/><path class="cls-3" d="M118.4,104.56a.24.24,0,0,1,.17-.07h2.34a.24.24,0,0,1,.24.24v13.52a.24.24,0,0,1-.07.17.23.23,0,0,1-.17.07h-2.34a.24.24,0,0,1-.24-.24v-.44a.1.1,0,0,0,0-.08.06.06,0,0,0-.08,0,2.61,2.61,0,0,1-2.12.88q-2.45,0-3.14-3.18a10.77,10.77,0,0,1-.2-2.22,12.06,12.06,0,0,1,.18-2.1c.41-2.06,1.48-3.1,3.2-3.1a3.6,3.6,0,0,1,1.2.19,2.27,2.27,0,0,1,.88.65s.05.06.08,0a.09.09,0,0,0,0-.08v-4.12A.23.23,0,0,1,118.4,104.56Zm-.09,8.77a8.59,8.59,0,0,0-.16-1.76c-.18-.73-.57-1.1-1.18-1.1a1.09,1.09,0,0,0-.76.28,1.67,1.67,0,0,0-.44.8,6.49,6.49,0,0,0-.18,1.78,7.44,7.44,0,0,0,.14,1.72c.17.79.58,1.18,1.24,1.18s1-.38,1.2-1.16A8.13,8.13,0,0,0,118.31,113.33Z"/><path class="cls-3" d="M123.29,106.6a1.51,1.51,0,0,1-.44-1.13,1.57,1.57,0,0,1,.43-1.14,1.51,1.51,0,0,1,1.13-.44,1.51,1.51,0,0,1,1.58,1.58,1.52,1.52,0,0,1-.45,1.13,1.54,1.54,0,0,1-1.13.45A1.48,1.48,0,0,1,123.29,106.6Zm-.21,11.82a.21.21,0,0,1-.07-.17v-9.8a.23.23,0,0,1,.07-.17.24.24,0,0,1,.17-.07h2.34a.24.24,0,0,1,.24.24v9.8a.24.24,0,0,1-.07.17.23.23,0,0,1-.17.07h-2.34A.21.21,0,0,1,123.08,118.42Z"/><path class="cls-3" d="M133.75,108.48a3.65,3.65,0,0,1,1.47,1.2,3.06,3.06,0,0,1,.53,1.75v6.82a.24.24,0,0,1-.07.17.23.23,0,0,1-.17.07h-2.34a.24.24,0,0,1-.24-.24v-.56a.1.1,0,0,0,0-.08.06.06,0,0,0-.08,0,2.78,2.78,0,0,1-2.36,1,3.57,3.57,0,0,1-2.27-.7,2.75,2.75,0,0,1-.91-2.34q0-3.26,4.08-3.26h1.48a.09.09,0,0,0,.1-.1v-.46a1.33,1.33,0,0,0-.35-1,1.27,1.27,0,0,0-1-.36,1.42,1.42,0,0,0-.8.22.92.92,0,0,0-.4.6.26.26,0,0,1-.28.2l-2.42-.14a.24.24,0,0,1-.17-.06.14.14,0,0,1,0-.16,3,3,0,0,1,1.25-2.23,4.64,4.64,0,0,1,2.85-.85A5.21,5.21,0,0,1,133.75,108.48Zm-1.3,7.65a1.2,1.2,0,0,0,.48-1v-.84a.09.09,0,0,0-.1-.1h-1.12a1.88,1.88,0,0,0-1.16.32,1.1,1.1,0,0,0-.42.92,1,1,0,0,0,.32.8,1.2,1.2,0,0,0,.84.28A1.78,1.78,0,0,0,132.45,116.13Z"/><path class="cls-3" d="M144.8,109a3.78,3.78,0,0,1,.83,2.59v6.68a.24.24,0,0,1-.07.17.23.23,0,0,1-.17.07h-2.34a.24.24,0,0,1-.24-.24V112a1.7,1.7,0,0,0-.34-1.1,1.28,1.28,0,0,0-1.87,0,1.64,1.64,0,0,0-.35,1.11v6.26a.24.24,0,0,1-.07.17.23.23,0,0,1-.17.07h-2.34a.24.24,0,0,1-.24-.24v-9.8a.23.23,0,0,1,.07-.17.24.24,0,0,1,.17-.07H140a.24.24,0,0,1,.24.24V109s0,.07,0,.07.06,0,.1-.07a2.48,2.48,0,0,1,2.12-1A2.93,2.93,0,0,1,144.8,109Z"/><path class="cls-3" d="M152.6,110.26a.23.23,0,0,1-.17.07h-1.54a.09.09,0,0,0-.1.1v4.5a1.26,1.26,0,0,0,.25.89.91.91,0,0,0,.77.25h.4a.24.24,0,0,1,.24.24v1.94a.21.21,0,0,1-.24.24c-.23,0-.56,0-1,0a4.2,4.2,0,0,1-2.35-.52,2.18,2.18,0,0,1-.77-2v-5.6a.09.09,0,0,0-.1-.1h-.92a.24.24,0,0,1-.24-.24v-1.64a.23.23,0,0,1,.07-.17.24.24,0,0,1,.17-.07H148a.09.09,0,0,0,.1-.1v-2.3a.23.23,0,0,1,.07-.17.24.24,0,0,1,.17-.07h2.22a.24.24,0,0,1,.24.24v2.3c0,.07,0,.1.1.1h1.54a.24.24,0,0,1,.24.24v1.64A.24.24,0,0,1,152.6,110.26Z"/><path class="cls-3" d="M162.31,113.25l0,.78a.21.21,0,0,1-.24.24h-5.3a.09.09,0,0,0-.1.1,5.07,5.07,0,0,0,.08.68,1.36,1.36,0,0,0,.49.88,1.44,1.44,0,0,0,1,.32,1.4,1.4,0,0,0,1.36-.9.26.26,0,0,1,.3-.16l2.12.42c.16,0,.21.14.16.3a3.94,3.94,0,0,1-1.45,2,4.2,4.2,0,0,1-2.49.71,4.51,4.51,0,0,1-2.83-.81,3.78,3.78,0,0,1-1.37-2.33,12.63,12.63,0,0,1-.18-2.5,9.25,9.25,0,0,1,.12-1.62,3.68,3.68,0,0,1,1.32-2.43,4.74,4.74,0,0,1,5.74.12,3.88,3.88,0,0,1,1.26,2.71C162.29,112.23,162.31,112.72,162.31,113.25Zm-5.15-2.46a1.47,1.47,0,0,0-.45.88,4.68,4.68,0,0,0-.06.76c0,.07,0,.1.1.1h2.6a.09.09,0,0,0,.1-.1,4.68,4.68,0,0,0-.06-.76,1.46,1.46,0,0,0-.44-.87,1.39,1.39,0,0,0-1.79,0Z"/><path class="cls-3" d="M164.55,117.81a2.53,2.53,0,0,1-1.1-2.16v-.16a.23.23,0,0,1,.07-.17.24.24,0,0,1,.17-.07h2.2a.24.24,0,0,1,.24.24v0a.82.82,0,0,0,.4.72,1.62,1.62,0,0,0,1,.28,1.35,1.35,0,0,0,.86-.25.76.76,0,0,0,.32-.63.65.65,0,0,0-.35-.58,8.14,8.14,0,0,0-1.13-.46,8.08,8.08,0,0,1-1-.32,5.22,5.22,0,0,1-1.95-1.08,2.5,2.5,0,0,1-.75-2,2.84,2.84,0,0,1,1.06-2.32,4.31,4.31,0,0,1,2.8-.86,4.38,4.38,0,0,1,2.87.89,3,3,0,0,1,1.07,2.37c0,.15-.08.22-.24.22H169a.24.24,0,0,1-.24-.24v-.06a.9.9,0,0,0-.34-.7,1.46,1.46,0,0,0-.92-.28,1.39,1.39,0,0,0-.87.26.8.8,0,0,0-.33.64.71.71,0,0,0,.4.65,5.35,5.35,0,0,0,1.22.47l.35.11.31.11a7.51,7.51,0,0,1,2.18,1.11,2.35,2.35,0,0,1,.82,1.93,2.68,2.68,0,0,1-1.09,2.26,4.76,4.76,0,0,1-2.93.82A4.81,4.81,0,0,1,164.55,117.81Z"/><path class="cls-3" d="M175.12,114a.21.21,0,0,1-.07-.17v-.64a2.66,2.66,0,0,1,.46-1.62,6.39,6.39,0,0,1,1.34-1.28,6.79,6.79,0,0,0,1-1,1.61,1.61,0,0,0,.34-1,1.4,1.4,0,0,0-.39-1,1.42,1.42,0,0,0-1.05-.39,1.54,1.54,0,0,0-1.12.41,1.47,1.47,0,0,0-.42,1.09v.32c0,.15-.08.22-.24.22l-2.34-.1a.24.24,0,0,1-.24-.24v-.2a4,4,0,0,1,.56-2.13,3.71,3.71,0,0,1,1.57-1.44,5,5,0,0,1,2.31-.51,4.35,4.35,0,0,1,3.07,1.07,3.72,3.72,0,0,1,1.15,2.83,3.8,3.8,0,0,1-.28,1.51,3.48,3.48,0,0,1-.68,1,11.23,11.23,0,0,1-1,.88,6.35,6.35,0,0,0-1,.86,1.34,1.34,0,0,0-.3.88v.46a.24.24,0,0,1-.07.17.23.23,0,0,1-.17.07h-2.32A.21.21,0,0,1,175.12,114Zm.16,4.1a1.64,1.64,0,0,1,0-2.25,1.54,1.54,0,0,1,1.14-.44,1.58,1.58,0,0,1,1.14.44A1.55,1.55,0,0,1,178,117a1.52,1.52,0,0,1-.45,1.13,1.54,1.54,0,0,1-1.13.45A1.52,1.52,0,0,1,175.28,118.08Z"/><path class="cls-3" d="M31.66,90.54a6.29,6.29,0,0,1-.53,2.69A4,4,0,0,1,29.58,95a4.62,4.62,0,0,1-2.52.64,4.82,4.82,0,0,1-3-.92,4,4,0,0,1-1.52-2.47,8.91,8.91,0,0,1-.17-1.49c0-.18.08-.27.26-.27h2.6a.24.24,0,0,1,.26.27,4.67,4.67,0,0,0,.13,1,1.61,1.61,0,0,0,.49.93,1.37,1.37,0,0,0,.94.33,1.35,1.35,0,0,0,.89-.3,1.56,1.56,0,0,0,.52-.85,5.87,5.87,0,0,0,.18-1.54,4.79,4.79,0,0,0-.22-1.56A1.42,1.42,0,0,0,27,87.62a1.48,1.48,0,0,0-.84.31.24.24,0,0,1-.15,0,.29.29,0,0,1-.22-.09l-1.3-1.43a.41.41,0,0,1-.09-.2.26.26,0,0,1,.09-.17l3.13-3.19a.08.08,0,0,0,0-.09.1.1,0,0,0-.09,0H22.93a.27.27,0,0,1-.27-.27V80.36a.27.27,0,0,1,.08-.19.26.26,0,0,1,.19-.08h8.38a.29.29,0,0,1,.19.08.26.26,0,0,1,.07.19v2.2a.56.56,0,0,1-.13.33l-2.75,3c0,.08,0,.12,0,.13a3.19,3.19,0,0,1,1.49.68,3.56,3.56,0,0,1,1,1.35A6.46,6.46,0,0,1,31.66,90.54Z"/><path class="cls-3" d="M33.89,95.09a1.83,1.83,0,1,1,1.25.49A1.7,1.7,0,0,1,33.89,95.09Z"/></g></g></svg>