<?xml version="1.0" encoding="utf-8"?>
<!-- Generator: Adobe Illustrator 22.1.0, SVG Export Plug-In . SVG Version: 6.00 Build 0)  -->
<svg version="1.1" id="Capa_1" xmlns="http://www.w3.org/2000/svg" xmlns:xlink="http://www.w3.org/1999/xlink" x="0px" y="0px"
	 viewBox="0 0 306.5 198.5" style="enable-background:new 0 0 306.5 198.5;" xml:space="preserve">
<style type="text/css">
	.st0{fill:none;stroke:#00B6ED;stroke-width:0.5;stroke-miterlimit:10;}
	.st1{enable-background:new    ;}
	.st2{fill:#1D1D1B;}
	.st3{fill:#E9E8F5;}
	.st4{fill:#3A4A9A;}
	.st5{opacity:0.8;fill:#3A4A9A;enable-background:new    ;}
	.st6{fill:#EA5297;}
	.st7{fill:#FFFFFF;stroke:#EA5297;stroke-miterlimit:10;}
</style>
<title>04-2</title>
<g id="Capa_2_1_">
	<g id="Capa_1-2">
		<rect x="0.2" y="0.2" class="st0" width="306" height="198"/>
		<g class="st1">
			<path class="st2" d="M25.7,119.1V111c0-0.1,0-0.1,0.1-0.1h0.6c0.1,0,0.1,0,0.1,0.1v7.5c0,0,0,0,0,0H30c0.1,0,0.1,0,0.1,0.1v0.5
				c0,0.1,0,0.1-0.1,0.1h-4.3C25.7,119.2,25.7,119.2,25.7,119.1z"/>
			<path class="st2" d="M31.9,118.9c-0.4-0.3-0.6-0.7-0.7-1.3c0-0.4-0.1-0.9-0.1-1.4s0-1,0.1-1.4c0.1-0.5,0.3-1,0.7-1.3
				c0.4-0.3,0.9-0.5,1.4-0.5s1.1,0.2,1.4,0.5c0.4,0.3,0.6,0.7,0.7,1.3c0,0.3,0.1,0.8,0.1,1.4c0,0.6,0,1.1-0.1,1.4
				c-0.1,0.5-0.3,1-0.7,1.3c-0.4,0.3-0.9,0.5-1.4,0.5S32.3,119.2,31.9,118.9z M34.2,118.3c0.2-0.2,0.4-0.5,0.4-0.8
				c0-0.3,0-0.7,0-1.2c0-0.5,0-0.9,0-1.2c0-0.4-0.2-0.6-0.4-0.8c-0.2-0.2-0.5-0.3-0.9-0.3s-0.6,0.1-0.9,0.3
				c-0.2,0.2-0.4,0.5-0.4,0.8c0,0.3,0,0.7,0,1.2s0,0.9,0,1.2c0,0.4,0.2,0.6,0.4,0.8c0.2,0.2,0.5,0.3,0.9,0.3
				C33.7,118.6,34,118.5,34.2,118.3z"/>
			<path class="st2" d="M37.3,118.9c-0.4-0.3-0.6-0.7-0.6-1.1v-0.1c0-0.1,0-0.1,0.1-0.1h0.6c0.1,0,0.1,0,0.1,0.1v0.1
				c0,0.3,0.1,0.5,0.3,0.7c0.2,0.2,0.5,0.3,0.9,0.3c0.4,0,0.6-0.1,0.9-0.3c0.2-0.2,0.3-0.4,0.3-0.7c0-0.2-0.1-0.4-0.2-0.5
				c-0.1-0.1-0.3-0.2-0.4-0.3c-0.2-0.1-0.4-0.2-0.7-0.3c-0.4-0.1-0.7-0.3-0.9-0.4c-0.2-0.1-0.5-0.3-0.6-0.5
				c-0.2-0.2-0.3-0.5-0.3-0.9c0-0.5,0.2-0.9,0.5-1.2c0.4-0.3,0.8-0.5,1.4-0.5c0.6,0,1.1,0.2,1.5,0.5c0.4,0.3,0.5,0.7,0.5,1.2v0
				c0,0.1,0,0.1-0.1,0.1h-0.6c-0.1,0-0.1,0-0.1-0.1v0c0-0.3-0.1-0.5-0.3-0.7c-0.2-0.2-0.5-0.3-0.9-0.3c-0.3,0-0.6,0.1-0.8,0.3
				s-0.3,0.4-0.3,0.7c0,0.3,0.1,0.5,0.3,0.6s0.5,0.3,1,0.5c0.4,0.1,0.7,0.3,1,0.4s0.5,0.3,0.7,0.5c0.2,0.2,0.3,0.5,0.3,0.9
				c0,0.5-0.2,0.9-0.6,1.2c-0.4,0.3-0.9,0.5-1.5,0.5S37.7,119.2,37.3,118.9z"/>
			<path class="st2" d="M47.4,118.4c0.2-0.2,0.4-0.4,0.5-0.6c0-0.1,0.1-0.1,0.1-0.1l0.6,0.1c0,0,0.1,0,0.1,0.1c0,0,0,0.1,0,0.1
				c-0.1,0.4-0.4,0.8-0.7,1.1s-0.8,0.4-1.3,0.4c-0.6,0-1.1-0.2-1.4-0.5c-0.4-0.3-0.6-0.7-0.7-1.3c0-0.2-0.1-0.4-0.1-0.7
				c0-0.3,0-0.5,0-0.7s0-0.3,0-0.4c0-0.4,0-0.7,0-1c0.1-0.5,0.3-1,0.7-1.3c0.4-0.3,0.9-0.5,1.4-0.5c0.6,0,1.1,0.2,1.5,0.5
				c0.4,0.4,0.6,0.8,0.6,1.4c0,0.3,0,0.7,0,1.5c0,0.1,0,0.1-0.1,0.1h-3.3c0,0,0,0,0,0c0,0.2,0,0.5,0,0.8c0,0.3,0.2,0.6,0.4,0.8
				s0.5,0.3,0.9,0.3C46.9,118.6,47.2,118.5,47.4,118.4z M45.7,114.1c-0.2,0.2-0.4,0.5-0.4,0.8c0,0.3,0,0.6,0,0.8c0,0,0,0,0,0h2.5
				c0,0,0,0,0,0c0-0.2,0-0.5,0-0.8c0-0.3-0.2-0.6-0.4-0.8c-0.2-0.2-0.5-0.3-0.9-0.3C46.2,113.8,45.9,113.9,45.7,114.1z"/>
			<path class="st2" d="M49,121.6v-0.5c0-0.1,0-0.1,0.1-0.1c0.4,0,0.7-0.1,0.8-0.3s0.3-0.5,0.3-0.9l0-6.5c0-0.1,0-0.1,0.1-0.1H51
				c0.1,0,0.1,0,0.1,0.1v6.5c0,0.7-0.1,1.2-0.4,1.5c-0.3,0.3-0.8,0.5-1.5,0.5C49,121.7,49,121.7,49,121.6z M50.2,111.9
				c-0.1-0.1-0.2-0.3-0.2-0.5c0-0.2,0.1-0.4,0.2-0.5c0.1-0.1,0.3-0.2,0.5-0.2c0.2,0,0.4,0.1,0.5,0.2c0.1,0.1,0.2,0.3,0.2,0.5
				c0,0.2-0.1,0.4-0.2,0.5c-0.1,0.1-0.3,0.2-0.5,0.2C50.5,112.1,50.3,112,50.2,111.9z"/>
			<path class="st2" d="M55.7,118.4c0.2-0.2,0.4-0.4,0.5-0.6c0-0.1,0.1-0.1,0.1-0.1l0.6,0.1c0,0,0.1,0,0.1,0.1c0,0,0,0.1,0,0.1
				c-0.1,0.4-0.4,0.8-0.7,1.1s-0.8,0.4-1.3,0.4c-0.6,0-1.1-0.2-1.4-0.5c-0.4-0.3-0.6-0.7-0.7-1.3c0-0.2-0.1-0.4-0.1-0.7
				c0-0.3,0-0.5,0-0.7s0-0.3,0-0.4c0-0.4,0-0.7,0-1c0.1-0.5,0.3-1,0.7-1.3c0.4-0.3,0.9-0.5,1.4-0.5c0.6,0,1.1,0.2,1.5,0.5
				c0.4,0.4,0.6,0.8,0.6,1.4c0,0.3,0,0.7,0,1.5c0,0.1,0,0.1-0.1,0.1h-3.3c0,0,0,0,0,0c0,0.2,0,0.5,0,0.8c0,0.3,0.2,0.6,0.4,0.8
				s0.5,0.3,0.9,0.3C55.3,118.6,55.5,118.5,55.7,118.4z M54,114.1c-0.2,0.2-0.4,0.5-0.4,0.8c0,0.3,0,0.6,0,0.8c0,0,0,0,0,0h2.5
				c0,0,0,0,0,0c0-0.2,0-0.5,0-0.8c0-0.3-0.2-0.6-0.4-0.8c-0.2-0.2-0.5-0.3-0.9-0.3C54.6,113.8,54.3,113.9,54,114.1z"/>
			<path class="st2" d="M65.3,113.6c0.3,0.4,0.5,0.8,0.5,1.5v4c0,0.1,0,0.1-0.1,0.1h-0.6c-0.1,0-0.1,0-0.1-0.1v-3.9
				c0-0.4-0.1-0.8-0.3-1s-0.5-0.4-0.8-0.4c-0.4,0-0.6,0.1-0.9,0.4s-0.3,0.6-0.3,1v3.9c0,0.1,0,0.1-0.1,0.1h-0.6
				c-0.1,0-0.1,0-0.1-0.1v-3.9c0-0.4-0.1-0.8-0.3-1s-0.5-0.4-0.8-0.4c-0.4,0-0.6,0.1-0.9,0.4c-0.2,0.2-0.3,0.6-0.3,1v3.9
				c0,0.1,0,0.1-0.1,0.1h-0.6c-0.1,0-0.1,0-0.1-0.1v-5.8c0-0.1,0-0.1,0.1-0.1h0.6c0.1,0,0.1,0,0.1,0.1v0.4c0,0,0,0,0,0c0,0,0,0,0,0
				c0.2-0.2,0.4-0.4,0.6-0.5c0.2-0.1,0.5-0.2,0.8-0.2c0.4,0,0.7,0.1,0.9,0.2s0.5,0.4,0.6,0.7c0,0,0,0,0.1,0c0.2-0.3,0.4-0.5,0.7-0.7
				c0.3-0.1,0.6-0.2,0.9-0.2C64.6,113.1,65,113.3,65.3,113.6z"/>
			<path class="st2" d="M71.8,116.2c0,0.5,0,1-0.1,1.4c-0.1,0.6-0.4,1-0.7,1.3c-0.3,0.3-0.8,0.4-1.3,0.4c-0.3,0-0.6-0.1-0.8-0.2
				c-0.2-0.1-0.4-0.3-0.5-0.5c0,0,0,0,0,0c0,0,0,0,0,0v2.8c0,0.1,0,0.1-0.1,0.1h-0.6c-0.1,0-0.1,0-0.1-0.1v-8.2c0-0.1,0-0.1,0.1-0.1
				h0.6c0.1,0,0.1,0,0.1,0.1v0.5c0,0,0,0,0,0s0,0,0,0c0.3-0.5,0.7-0.7,1.4-0.7c0.5,0,0.9,0.1,1.2,0.4c0.3,0.3,0.5,0.7,0.7,1.3
				C71.7,115.2,71.8,115.7,71.8,116.2z M70.9,116.2c0-0.6-0.1-1.1-0.2-1.5c-0.1-0.3-0.2-0.5-0.4-0.7s-0.4-0.2-0.7-0.2
				c-0.3,0-0.5,0.1-0.7,0.2c-0.2,0.2-0.3,0.4-0.4,0.7c-0.1,0.4-0.2,0.9-0.2,1.5c0,0.7,0.1,1.2,0.2,1.5c0.1,0.3,0.2,0.5,0.4,0.6
				c0.2,0.1,0.4,0.2,0.6,0.2c0.5,0,0.9-0.3,1.1-0.8C70.8,117.4,70.9,116.9,70.9,116.2z"/>
			<path class="st2" d="M73.2,119.1V111c0-0.1,0-0.1,0.1-0.1H74c0.1,0,0.1,0,0.1,0.1v8.2c0,0.1,0,0.1-0.1,0.1h-0.6
				C73.3,119.2,73.2,119.2,73.2,119.1z"/>
			<path class="st2" d="M76.3,118.9c-0.4-0.3-0.6-0.7-0.7-1.3c0-0.4-0.1-0.9-0.1-1.4s0-1,0.1-1.4c0.1-0.5,0.3-1,0.7-1.3
				c0.4-0.3,0.9-0.5,1.4-0.5s1.1,0.2,1.4,0.5c0.4,0.3,0.6,0.7,0.7,1.3c0,0.3,0.1,0.8,0.1,1.4c0,0.6,0,1.1-0.1,1.4
				c-0.1,0.5-0.3,1-0.7,1.3c-0.4,0.3-0.9,0.5-1.4,0.5S76.7,119.2,76.3,118.9z M78.6,118.3c0.2-0.2,0.4-0.5,0.4-0.8
				c0-0.3,0-0.7,0-1.2c0-0.5,0-0.9,0-1.2c0-0.4-0.2-0.6-0.4-0.8c-0.2-0.2-0.5-0.3-0.9-0.3s-0.6,0.1-0.9,0.3
				c-0.2,0.2-0.4,0.5-0.4,0.8c0,0.3,0,0.7,0,1.2s0,0.9,0,1.2c0,0.4,0.2,0.6,0.4,0.8c0.2,0.2,0.5,0.3,0.9,0.3
				C78.1,118.6,78.4,118.5,78.6,118.3z"/>
			<path class="st2" d="M81.8,118.9c-0.4-0.3-0.6-0.7-0.6-1.1v-0.1c0-0.1,0-0.1,0.1-0.1h0.6c0.1,0,0.1,0,0.1,0.1v0.1
				c0,0.3,0.1,0.5,0.3,0.7c0.2,0.2,0.5,0.3,0.9,0.3c0.4,0,0.6-0.1,0.9-0.3c0.2-0.2,0.3-0.4,0.3-0.7c0-0.2-0.1-0.4-0.2-0.5
				c-0.1-0.1-0.3-0.2-0.4-0.3c-0.2-0.1-0.4-0.2-0.7-0.3c-0.4-0.1-0.7-0.3-0.9-0.4c-0.2-0.1-0.5-0.3-0.6-0.5
				c-0.2-0.2-0.3-0.5-0.3-0.9c0-0.5,0.2-0.9,0.5-1.2c0.4-0.3,0.8-0.5,1.4-0.5c0.6,0,1.1,0.2,1.5,0.5c0.4,0.3,0.5,0.7,0.5,1.2v0
				c0,0.1,0,0.1-0.1,0.1h-0.6c-0.1,0-0.1,0-0.1-0.1v0c0-0.3-0.1-0.5-0.3-0.7c-0.2-0.2-0.5-0.3-0.9-0.3c-0.3,0-0.6,0.1-0.8,0.3
				s-0.3,0.4-0.3,0.7c0,0.3,0.1,0.5,0.3,0.6s0.5,0.3,1,0.5c0.4,0.1,0.7,0.3,1,0.4s0.5,0.3,0.7,0.5c0.2,0.2,0.3,0.5,0.3,0.9
				c0,0.5-0.2,0.9-0.6,1.2c-0.4,0.3-0.9,0.5-1.5,0.5S82.2,119.2,81.8,118.9z"/>
		</g>
		<g class="st1">
			<path class="st2" d="M92.7,113.6c0.3,0.4,0.5,0.8,0.5,1.5v4c0,0.1,0,0.1-0.1,0.1h-0.6c-0.1,0-0.1,0-0.1-0.1v-3.9
				c0-0.4-0.1-0.7-0.3-1c-0.2-0.2-0.5-0.4-0.9-0.4s-0.7,0.1-0.9,0.4s-0.3,0.6-0.3,1v3.9c0,0.1,0,0.1-0.1,0.1h-0.6
				c-0.1,0-0.1,0-0.1-0.1v-5.8c0-0.1,0-0.1,0.1-0.1h0.6c0.1,0,0.1,0,0.1,0.1v0.5c0,0,0,0,0,0c0,0,0,0,0,0c0.3-0.5,0.8-0.7,1.4-0.7
				C91.9,113.1,92.4,113.3,92.7,113.6z"/>
		</g>
		<g class="st1">
			<path class="st2" d="M95.4,118.9c-0.4-0.3-0.6-0.7-0.7-1.3c0-0.4-0.1-0.9-0.1-1.4s0-1,0.1-1.4c0.1-0.5,0.3-1,0.7-1.3
				c0.4-0.3,0.9-0.5,1.4-0.5s1.1,0.2,1.4,0.5c0.4,0.3,0.6,0.7,0.7,1.3c0,0.3,0.1,0.8,0.1,1.4c0,0.6,0,1.1-0.1,1.4
				c-0.1,0.5-0.3,1-0.7,1.3c-0.4,0.3-0.9,0.5-1.4,0.5S95.7,119.2,95.4,118.9z M97.7,118.3c0.2-0.2,0.4-0.5,0.4-0.8
				c0-0.3,0-0.7,0-1.2c0-0.5,0-0.9,0-1.2c0-0.4-0.2-0.6-0.4-0.8c-0.2-0.2-0.5-0.3-0.9-0.3s-0.6,0.1-0.9,0.3
				c-0.2,0.2-0.4,0.5-0.4,0.8c0,0.3,0,0.7,0,1.2s0,0.9,0,1.2c0,0.4,0.2,0.6,0.4,0.8c0.2,0.2,0.5,0.3,0.9,0.3
				C97.1,118.6,97.4,118.5,97.7,118.3z"/>
			<path class="st2" d="M100.8,118.9c-0.4-0.3-0.6-0.7-0.6-1.1v-0.1c0-0.1,0-0.1,0.1-0.1h0.6c0.1,0,0.1,0,0.1,0.1v0.1
				c0,0.3,0.1,0.5,0.3,0.7c0.2,0.2,0.5,0.3,0.9,0.3c0.4,0,0.6-0.1,0.9-0.3c0.2-0.2,0.3-0.4,0.3-0.7c0-0.2-0.1-0.4-0.2-0.5
				c-0.1-0.1-0.3-0.2-0.4-0.3c-0.2-0.1-0.4-0.2-0.7-0.3c-0.4-0.1-0.7-0.3-0.9-0.4c-0.2-0.1-0.5-0.3-0.6-0.5
				c-0.2-0.2-0.3-0.5-0.3-0.9c0-0.5,0.2-0.9,0.5-1.2c0.4-0.3,0.8-0.5,1.4-0.5c0.6,0,1.1,0.2,1.5,0.5c0.4,0.3,0.5,0.7,0.5,1.2v0
				c0,0.1,0,0.1-0.1,0.1h-0.6c-0.1,0-0.1,0-0.1-0.1v0c0-0.3-0.1-0.5-0.3-0.7c-0.2-0.2-0.5-0.3-0.9-0.3c-0.3,0-0.6,0.1-0.8,0.3
				s-0.3,0.4-0.3,0.7c0,0.3,0.1,0.5,0.3,0.6s0.5,0.3,1,0.5c0.4,0.1,0.7,0.3,1,0.4s0.5,0.3,0.7,0.5c0.2,0.2,0.3,0.5,0.3,0.9
				c0,0.5-0.2,0.9-0.6,1.2c-0.4,0.3-0.9,0.5-1.5,0.5S101.2,119.2,100.8,118.9z"/>
		</g>
		<g class="st1">
			<path class="st2" d="M111.5,113.6c0.4,0.4,0.5,0.9,0.5,1.5v4c0,0.1,0,0.1-0.1,0.1h-0.6c-0.1,0-0.1,0-0.1-0.1v-0.4c0,0,0,0,0,0
				c0,0,0,0,0,0c-0.2,0.2-0.4,0.4-0.7,0.5c-0.3,0.1-0.6,0.2-0.9,0.2c-0.5,0-0.9-0.1-1.3-0.4c-0.4-0.3-0.5-0.7-0.5-1.3
				c0-0.6,0.2-1.1,0.6-1.5s1-0.5,1.7-0.5h1.1c0,0,0,0,0,0v-0.5c0-0.4-0.1-0.7-0.3-1c-0.2-0.2-0.5-0.4-0.9-0.4
				c-0.3,0-0.6,0.1-0.8,0.2c-0.2,0.2-0.3,0.4-0.4,0.6c0,0.1-0.1,0.1-0.1,0.1l-0.7,0c0,0-0.1,0-0.1,0c0,0,0-0.1,0-0.1
				c0.1-0.5,0.3-0.8,0.7-1.1c0.4-0.3,0.9-0.4,1.4-0.4C110.6,113.1,111.1,113.3,111.5,113.6z M110.8,118.3c0.3-0.2,0.4-0.5,0.4-0.9
				v-1c0,0,0,0,0,0h-1.1c-0.5,0-0.8,0.1-1.1,0.3s-0.4,0.5-0.4,0.9c0,0.4,0.1,0.6,0.3,0.8c0.2,0.2,0.5,0.3,0.8,0.3
				C110.1,118.6,110.5,118.5,110.8,118.3z"/>
		</g>
		<g class="st1">
			<path class="st2" d="M113.2,121.7c0,0,0,0,0-0.1V121c0-0.1,0-0.1,0.1-0.1h0c0.3,0,0.5-0.1,0.7-0.1c0.2-0.1,0.3-0.2,0.4-0.5
				c0.1-0.2,0.2-0.6,0.3-1c0,0,0,0,0-0.1l-1.8-5.9l0,0c0-0.1,0-0.1,0.1-0.1h0.6c0.1,0,0.1,0,0.1,0.1l1.3,4.8c0,0,0,0,0,0
				c0,0,0,0,0,0l1.3-4.8c0-0.1,0.1-0.1,0.1-0.1h0.6c0,0,0.1,0,0.1,0c0,0,0,0.1,0,0.1l-2,6.5c-0.2,0.5-0.3,0.9-0.5,1.2
				c-0.2,0.3-0.4,0.4-0.6,0.5c-0.2,0.1-0.6,0.2-1,0.2H113.2C113.2,121.7,113.2,121.7,113.2,121.7z"/>
			<path class="st2" d="M121.8,113.2h0.6c0.1,0,0.1,0,0.1,0.1v5.8c0,0.1,0,0.1-0.1,0.1h-0.6c-0.1,0-0.1,0-0.1-0.1v-0.5c0,0,0,0,0,0
				c0,0,0,0,0,0c-0.3,0.5-0.7,0.7-1.4,0.7c-0.5,0-1-0.2-1.3-0.5c-0.3-0.3-0.5-0.8-0.5-1.4v-4.2c0-0.1,0-0.1,0.1-0.1h0.6
				c0.1,0,0.1,0,0.1,0.1v3.9c0,0.4,0.1,0.8,0.3,1c0.2,0.2,0.5,0.4,0.9,0.4c0.4,0,0.7-0.1,0.9-0.4s0.3-0.6,0.3-1v-3.9
				C121.7,113.2,121.8,113.2,121.8,113.2z"/>
			<path class="st2" d="M127.7,110.8h0.6c0.1,0,0.1,0,0.1,0.1v8.2c0,0.1,0,0.1-0.1,0.1h-0.6c-0.1,0-0.1,0-0.1-0.1v-0.5c0,0,0,0,0,0
				c0,0,0,0,0,0c-0.3,0.5-0.8,0.7-1.4,0.7c-0.5,0-0.9-0.1-1.2-0.4c-0.3-0.3-0.5-0.7-0.7-1.3c-0.1-0.4-0.2-0.9-0.2-1.4
				c0-0.6,0-1,0.1-1.4c0.1-0.6,0.3-1,0.7-1.3c0.3-0.3,0.8-0.4,1.3-0.4c0.3,0,0.6,0.1,0.8,0.2c0.2,0.1,0.4,0.3,0.5,0.5c0,0,0,0,0,0
				s0,0,0,0V111C127.5,110.9,127.6,110.8,127.7,110.8z M127.5,116.2c0-0.7-0.1-1.2-0.2-1.5c-0.1-0.3-0.2-0.5-0.4-0.6
				s-0.4-0.2-0.7-0.2c-0.5,0-0.9,0.3-1.1,0.8c-0.2,0.4-0.2,0.9-0.2,1.6c0,0.6,0.1,1.1,0.2,1.5c0.1,0.3,0.2,0.5,0.4,0.7
				c0.2,0.2,0.4,0.2,0.7,0.2c0.3,0,0.5-0.1,0.7-0.2c0.2-0.2,0.3-0.4,0.4-0.7C127.4,117.4,127.5,116.9,127.5,116.2z"/>
			<path class="st2" d="M133.5,113.6c0.4,0.4,0.5,0.9,0.5,1.5v4c0,0.1,0,0.1-0.1,0.1h-0.6c-0.1,0-0.1,0-0.1-0.1v-0.4c0,0,0,0,0,0
				c0,0,0,0,0,0c-0.2,0.2-0.4,0.4-0.7,0.5c-0.3,0.1-0.6,0.2-0.9,0.2c-0.5,0-0.9-0.1-1.3-0.4c-0.4-0.3-0.5-0.7-0.5-1.3
				c0-0.6,0.2-1.1,0.6-1.5s1-0.5,1.7-0.5h1.1c0,0,0,0,0,0v-0.5c0-0.4-0.1-0.7-0.3-1c-0.2-0.2-0.5-0.4-0.9-0.4
				c-0.3,0-0.6,0.1-0.8,0.2c-0.2,0.2-0.3,0.4-0.4,0.6c0,0.1-0.1,0.1-0.1,0.1l-0.7,0c0,0-0.1,0-0.1,0c0,0,0-0.1,0-0.1
				c0.1-0.5,0.3-0.8,0.7-1.1c0.4-0.3,0.9-0.4,1.4-0.4C132.6,113.1,133.2,113.3,133.5,113.6z M132.8,118.3c0.3-0.2,0.4-0.5,0.4-0.9
				v-1c0,0,0,0,0,0h-1.1c-0.5,0-0.8,0.1-1.1,0.3s-0.4,0.5-0.4,0.9c0,0.4,0.1,0.6,0.3,0.8c0.2,0.2,0.5,0.3,0.8,0.3
				C132.1,118.6,132.5,118.5,132.8,118.3z"/>
			<path class="st2" d="M139.3,113.6c0.3,0.4,0.5,0.8,0.5,1.5v4c0,0.1,0,0.1-0.1,0.1H139c-0.1,0-0.1,0-0.1-0.1v-3.9
				c0-0.4-0.1-0.7-0.3-1c-0.2-0.2-0.5-0.4-0.9-0.4s-0.7,0.1-0.9,0.4s-0.3,0.6-0.3,1v3.9c0,0.1,0,0.1-0.1,0.1h-0.6
				c-0.1,0-0.1,0-0.1-0.1v-5.8c0-0.1,0-0.1,0.1-0.1h0.6c0.1,0,0.1,0,0.1,0.1v0.5c0,0,0,0,0,0c0,0,0,0,0,0c0.3-0.5,0.8-0.7,1.4-0.7
				C138.5,113.1,139,113.3,139.3,113.6z"/>
			<path class="st2" d="M147.2,113.6c0.4,0.4,0.5,0.9,0.5,1.5v4c0,0.1,0,0.1-0.1,0.1h-0.6c-0.1,0-0.1,0-0.1-0.1v-0.4c0,0,0,0,0,0
				c0,0,0,0,0,0c-0.2,0.2-0.4,0.4-0.7,0.5c-0.3,0.1-0.6,0.2-0.9,0.2c-0.5,0-0.9-0.1-1.3-0.4c-0.4-0.3-0.5-0.7-0.5-1.3
				c0-0.6,0.2-1.1,0.6-1.5s1-0.5,1.7-0.5h1.1c0,0,0,0,0,0v-0.5c0-0.4-0.1-0.7-0.3-1c-0.2-0.2-0.5-0.4-0.9-0.4
				c-0.3,0-0.6,0.1-0.8,0.2c-0.2,0.2-0.3,0.4-0.4,0.6c0,0.1-0.1,0.1-0.1,0.1l-0.7,0c0,0-0.1,0-0.1,0c0,0,0-0.1,0-0.1
				c0.1-0.5,0.3-0.8,0.7-1.1c0.4-0.3,0.9-0.4,1.4-0.4C146.4,113.1,146.9,113.3,147.2,113.6z M146.5,118.3c0.3-0.2,0.4-0.5,0.4-0.9
				v-1c0,0,0,0,0,0h-1.1c-0.5,0-0.8,0.1-1.1,0.3s-0.4,0.5-0.4,0.9c0,0.4,0.1,0.6,0.3,0.8c0.2,0.2,0.5,0.3,0.8,0.3
				C145.9,118.6,146.2,118.5,146.5,118.3z"/>
			<path class="st2" d="M154.6,118.4c0.2-0.2,0.4-0.4,0.5-0.6c0-0.1,0.1-0.1,0.1-0.1l0.6,0.1c0,0,0.1,0,0.1,0.1c0,0,0,0.1,0,0.1
				c-0.1,0.4-0.4,0.8-0.7,1.1c-0.4,0.3-0.8,0.4-1.3,0.4c-0.6,0-1.1-0.2-1.4-0.5c-0.4-0.3-0.6-0.7-0.7-1.3c0-0.2-0.1-0.4-0.1-0.7
				c0-0.3,0-0.5,0-0.7s0-0.3,0-0.4c0-0.4,0-0.7,0-1c0.1-0.5,0.3-1,0.7-1.3c0.4-0.3,0.9-0.5,1.4-0.5c0.6,0,1.1,0.2,1.5,0.5
				c0.4,0.4,0.6,0.8,0.6,1.4c0,0.3,0,0.7,0,1.5c0,0.1,0,0.1-0.1,0.1h-3.3c0,0,0,0,0,0c0,0.2,0,0.5,0,0.8c0,0.3,0.2,0.6,0.4,0.8
				s0.5,0.3,0.9,0.3C154.1,118.6,154.4,118.5,154.6,118.4z M152.9,114.1c-0.2,0.2-0.4,0.5-0.4,0.8c0,0.3,0,0.6,0,0.8c0,0,0,0,0,0
				h2.5c0,0,0,0,0,0c0-0.2,0-0.5,0-0.8c0-0.3-0.2-0.6-0.4-0.8c-0.2-0.2-0.5-0.3-0.9-0.3C153.4,113.8,153.1,113.9,152.9,114.1z"/>
			<path class="st2" d="M161.1,113.6c0.3,0.4,0.5,0.8,0.5,1.5v4c0,0.1,0,0.1-0.1,0.1h-0.6c-0.1,0-0.1,0-0.1-0.1v-3.9
				c0-0.4-0.1-0.7-0.3-1s-0.5-0.4-0.9-0.4s-0.7,0.1-0.9,0.4c-0.2,0.3-0.3,0.6-0.3,1v3.9c0,0.1,0,0.1-0.1,0.1h-0.6
				c-0.1,0-0.1,0-0.1-0.1v-5.8c0-0.1,0-0.1,0.1-0.1h0.6c0.1,0,0.1,0,0.1,0.1v0.5c0,0,0,0,0,0c0,0,0,0,0,0c0.3-0.5,0.8-0.7,1.4-0.7
				C160.3,113.1,160.7,113.3,161.1,113.6z"/>
		</g>
		<g class="st1">
			<path class="st2" d="M165.5,113.8h-1.1c0,0,0,0,0,0v3.6c0,0.4,0.1,0.6,0.2,0.8c0.1,0.1,0.4,0.2,0.7,0.2h0.2c0.1,0,0.1,0,0.1,0.1
				v0.5c0,0.1,0,0.1-0.1,0.1l-0.4,0c-0.5,0-0.9-0.1-1.2-0.3c-0.3-0.2-0.4-0.6-0.4-1.2v-3.9c0,0,0,0,0,0h-0.6c-0.1,0-0.1,0-0.1-0.1
				v-0.4c0-0.1,0-0.1,0.1-0.1h0.6c0,0,0,0,0,0v-1.4c0-0.1,0-0.1,0.1-0.1h0.6c0.1,0,0.1,0,0.1,0.1v1.4c0,0,0,0,0,0h1.1
				c0.1,0,0.1,0,0.1,0.1v0.4C165.6,113.8,165.6,113.8,165.5,113.8z"/>
		</g>
		<g class="st1">
			<path class="st2" d="M169.7,118.4c0.2-0.2,0.4-0.4,0.5-0.6c0-0.1,0.1-0.1,0.1-0.1l0.6,0.1c0,0,0.1,0,0.1,0.1c0,0,0,0.1,0,0.1
				c-0.1,0.4-0.4,0.8-0.7,1.1s-0.8,0.4-1.3,0.4c-0.6,0-1.1-0.2-1.4-0.5c-0.4-0.3-0.6-0.7-0.7-1.3c0-0.2-0.1-0.4-0.1-0.7
				c0-0.3,0-0.5,0-0.7s0-0.3,0-0.4c0-0.4,0-0.7,0-1c0.1-0.5,0.3-1,0.7-1.3c0.4-0.3,0.9-0.5,1.4-0.5c0.6,0,1.1,0.2,1.5,0.5
				c0.4,0.4,0.6,0.8,0.6,1.4c0,0.3,0,0.7,0,1.5c0,0.1,0,0.1-0.1,0.1h-3.3c0,0,0,0,0,0c0,0.2,0,0.5,0,0.8c0,0.3,0.2,0.6,0.4,0.8
				s0.5,0.3,0.9,0.3C169.2,118.6,169.5,118.5,169.7,118.4z M168,114.1c-0.2,0.2-0.4,0.5-0.4,0.8c0,0.3,0,0.6,0,0.8c0,0,0,0,0,0h2.5
				c0,0,0,0,0,0c0-0.2,0-0.5,0-0.8c0-0.3-0.2-0.6-0.4-0.8c-0.2-0.2-0.5-0.3-0.9-0.3C168.5,113.8,168.2,113.9,168,114.1z"/>
		</g>
		<g class="st1">
			<path class="st2" d="M176.2,113.6c0.3,0.4,0.5,0.8,0.5,1.5v4c0,0.1,0,0.1-0.1,0.1h-0.6c-0.1,0-0.1,0-0.1-0.1v-3.9
				c0-0.4-0.1-0.7-0.3-1c-0.2-0.2-0.5-0.4-0.9-0.4s-0.7,0.1-0.9,0.4c-0.2,0.3-0.3,0.6-0.3,1v3.9c0,0.1,0,0.1-0.1,0.1h-0.6
				c-0.1,0-0.1,0-0.1-0.1v-5.8c0-0.1,0-0.1,0.1-0.1h0.6c0.1,0,0.1,0,0.1,0.1v0.5c0,0,0,0,0,0c0,0,0,0,0,0c0.3-0.5,0.8-0.7,1.4-0.7
				C175.4,113.1,175.9,113.3,176.2,113.6z"/>
		</g>
		<g class="st1">
			<path class="st2" d="M181.6,110.8h0.6c0.1,0,0.1,0,0.1,0.1v8.2c0,0.1,0,0.1-0.1,0.1h-0.6c-0.1,0-0.1,0-0.1-0.1v-0.5c0,0,0,0,0,0
				c0,0,0,0,0,0c-0.3,0.5-0.8,0.7-1.4,0.7c-0.5,0-0.9-0.1-1.2-0.4c-0.3-0.3-0.5-0.7-0.7-1.3c-0.1-0.4-0.2-0.9-0.2-1.4
				c0-0.6,0-1,0.1-1.4c0.1-0.6,0.3-1,0.7-1.3c0.3-0.3,0.8-0.4,1.3-0.4c0.3,0,0.6,0.1,0.8,0.2c0.2,0.1,0.4,0.3,0.5,0.5c0,0,0,0,0,0
				c0,0,0,0,0,0V111C181.5,110.9,181.5,110.8,181.6,110.8z M181.5,116.2c0-0.7-0.1-1.2-0.2-1.5c-0.1-0.3-0.2-0.5-0.4-0.6
				s-0.4-0.2-0.7-0.2c-0.5,0-0.9,0.3-1.1,0.8c-0.2,0.4-0.2,0.9-0.2,1.6c0,0.6,0.1,1.1,0.2,1.5c0.1,0.3,0.2,0.5,0.4,0.7
				c0.2,0.2,0.4,0.2,0.7,0.2c0.3,0,0.5-0.1,0.7-0.2c0.2-0.2,0.3-0.4,0.4-0.7C181.4,117.4,181.5,116.9,181.5,116.2z"/>
			<path class="st2" d="M186.9,118.4c0.2-0.2,0.4-0.4,0.5-0.6c0-0.1,0.1-0.1,0.1-0.1l0.6,0.1c0,0,0.1,0,0.1,0.1c0,0,0,0.1,0,0.1
				c-0.1,0.4-0.4,0.8-0.7,1.1c-0.4,0.3-0.8,0.4-1.3,0.4c-0.6,0-1.1-0.2-1.4-0.5c-0.4-0.3-0.6-0.7-0.7-1.3c0-0.2-0.1-0.4-0.1-0.7
				c0-0.3,0-0.5,0-0.7s0-0.3,0-0.4c0-0.4,0-0.7,0-1c0.1-0.5,0.3-1,0.7-1.3c0.4-0.3,0.9-0.5,1.4-0.5c0.6,0,1.1,0.2,1.5,0.5
				c0.4,0.4,0.6,0.8,0.6,1.4c0,0.3,0,0.7,0,1.5c0,0.1,0,0.1-0.1,0.1h-3.3c0,0,0,0,0,0c0,0.2,0,0.5,0,0.8c0,0.3,0.2,0.6,0.4,0.8
				c0.2,0.2,0.5,0.3,0.9,0.3C186.4,118.6,186.7,118.5,186.9,118.4z M185.2,114.1c-0.2,0.2-0.4,0.5-0.4,0.8c0,0.3,0,0.6,0,0.8
				c0,0,0,0,0,0h2.5c0,0,0,0,0,0c0-0.2,0-0.5,0-0.8c0-0.3-0.2-0.6-0.4-0.8c-0.2-0.2-0.5-0.3-0.9-0.3
				C185.7,113.8,185.4,113.9,185.2,114.1z"/>
			<path class="st2" d="M192.5,113.3c0.1,0,0.1,0.1,0.1,0.1l-0.1,0.6c0,0.1-0.1,0.1-0.1,0.1c-0.1-0.1-0.3-0.1-0.4-0.1l-0.1,0
				c-0.4,0-0.6,0.2-0.9,0.5c-0.2,0.3-0.3,0.7-0.3,1.1v3.6c0,0.1,0,0.1-0.1,0.1h-0.6c-0.1,0-0.1,0-0.1-0.1v-5.8c0-0.1,0-0.1,0.1-0.1
				h0.6c0.1,0,0.1,0,0.1,0.1v0.8c0,0,0,0,0,0s0,0,0,0c0.1-0.3,0.3-0.5,0.5-0.7c0.2-0.2,0.5-0.3,0.8-0.3
				C192.2,113.1,192.4,113.2,192.5,113.3z"/>
		</g>
		<g class="st1">
			<path class="st2" d="M196.6,118.9c-0.4-0.3-0.6-0.7-0.7-1.3c0-0.4-0.1-0.9-0.1-1.4c0-0.4,0-0.9,0.1-1.4c0.1-0.5,0.3-0.9,0.7-1.3
				c0.4-0.3,0.9-0.5,1.4-0.5c0.6,0,1,0.2,1.4,0.5s0.6,0.7,0.7,1.1l0,0.3v0c0,0,0,0.1,0,0.1c0,0,0,0-0.1,0l-0.6,0
				c-0.1,0-0.1,0-0.1-0.1c0-0.1,0-0.1,0-0.1c0-0.3-0.2-0.5-0.4-0.7c-0.2-0.2-0.5-0.3-0.9-0.3c-0.4,0-0.6,0.1-0.9,0.3
				c-0.2,0.2-0.4,0.5-0.4,0.8s-0.1,0.8-0.1,1.2c0,0.5,0,0.9,0.1,1.2c0,0.4,0.2,0.6,0.4,0.8c0.2,0.2,0.5,0.3,0.9,0.3
				c0.4,0,0.6-0.1,0.9-0.3c0.2-0.2,0.4-0.4,0.4-0.7l0-0.1c0-0.1,0.1-0.1,0.1-0.1l0.6,0c0.1,0,0.1,0.1,0.1,0.1v0c0,0,0,0.1,0,0.1
				c-0.1,0.5-0.3,0.9-0.7,1.2c-0.4,0.3-0.9,0.5-1.4,0.5C197.5,119.3,197,119.2,196.6,118.9z"/>
		</g>
		<g class="st1">
			<path class="st2" d="M202.2,118.9c-0.4-0.3-0.6-0.7-0.7-1.3c0-0.4-0.1-0.9-0.1-1.4s0-1,0.1-1.4c0.1-0.5,0.3-1,0.7-1.3
				c0.4-0.3,0.9-0.5,1.4-0.5s1.1,0.2,1.4,0.5c0.4,0.3,0.6,0.7,0.7,1.3c0,0.3,0.1,0.8,0.1,1.4c0,0.6,0,1.1-0.1,1.4
				c-0.1,0.5-0.3,1-0.7,1.3s-0.9,0.5-1.4,0.5S202.5,119.2,202.2,118.9z M204.5,118.3c0.2-0.2,0.4-0.5,0.4-0.8c0-0.3,0-0.7,0-1.2
				c0-0.5,0-0.9,0-1.2c0-0.4-0.2-0.6-0.4-0.8c-0.2-0.2-0.5-0.3-0.9-0.3c-0.4,0-0.6,0.1-0.9,0.3c-0.2,0.2-0.4,0.5-0.4,0.8
				c0,0.3,0,0.7,0,1.2s0,0.9,0,1.2c0,0.4,0.2,0.6,0.4,0.8s0.5,0.3,0.9,0.3C203.9,118.6,204.2,118.5,204.5,118.3z"/>
		</g>
		<g class="st1">
			<path class="st2" d="M211,113.6c0.3,0.4,0.5,0.8,0.5,1.5v4c0,0.1,0,0.1-0.1,0.1h-0.6c-0.1,0-0.1,0-0.1-0.1v-3.9
				c0-0.4-0.1-0.7-0.3-1s-0.5-0.4-0.9-0.4s-0.7,0.1-0.9,0.4c-0.2,0.3-0.3,0.6-0.3,1v3.9c0,0.1,0,0.1-0.1,0.1h-0.6
				c-0.1,0-0.1,0-0.1-0.1v-5.8c0-0.1,0-0.1,0.1-0.1h0.6c0.1,0,0.1,0,0.1,0.1v0.5c0,0,0,0,0,0c0,0,0,0,0,0c0.3-0.5,0.8-0.7,1.4-0.7
				C210.2,113.1,210.7,113.3,211,113.6z"/>
		</g>
		<g class="st1">
			<path class="st2" d="M213.6,118.9c-0.4-0.3-0.6-0.7-0.7-1.3c0-0.4-0.1-0.9-0.1-1.4c0-0.4,0-0.9,0.1-1.4c0.1-0.5,0.3-0.9,0.7-1.3
				c0.4-0.3,0.9-0.5,1.4-0.5c0.6,0,1,0.2,1.4,0.5s0.6,0.7,0.7,1.1l0,0.3v0c0,0,0,0.1,0,0.1c0,0,0,0-0.1,0l-0.6,0
				c-0.1,0-0.1,0-0.1-0.1c0-0.1,0-0.1,0-0.1c0-0.3-0.2-0.5-0.4-0.7c-0.2-0.2-0.5-0.3-0.9-0.3c-0.4,0-0.6,0.1-0.9,0.3
				c-0.2,0.2-0.4,0.5-0.4,0.8s-0.1,0.8-0.1,1.2c0,0.5,0,0.9,0.1,1.2c0,0.4,0.2,0.6,0.4,0.8c0.2,0.2,0.5,0.3,0.9,0.3
				c0.4,0,0.6-0.1,0.9-0.3c0.2-0.2,0.4-0.4,0.4-0.7l0-0.1c0-0.1,0.1-0.1,0.1-0.1l0.6,0c0.1,0,0.1,0.1,0.1,0.1v0c0,0,0,0.1,0,0.1
				c-0.1,0.5-0.3,0.9-0.7,1.2c-0.4,0.3-0.9,0.5-1.4,0.5C214.5,119.3,214,119.2,213.6,118.9z"/>
		</g>
		<g class="st1">
			<path class="st2" d="M221.4,118.4c0.2-0.2,0.4-0.4,0.5-0.6c0-0.1,0.1-0.1,0.1-0.1l0.6,0.1c0,0,0.1,0,0.1,0.1c0,0,0,0.1,0,0.1
				c-0.1,0.4-0.4,0.8-0.7,1.1c-0.4,0.3-0.8,0.4-1.3,0.4c-0.6,0-1.1-0.2-1.4-0.5c-0.4-0.3-0.6-0.7-0.7-1.3c0-0.2-0.1-0.4-0.1-0.7
				c0-0.3,0-0.5,0-0.7s0-0.3,0-0.4c0-0.4,0-0.7,0-1c0.1-0.5,0.3-1,0.7-1.3s0.9-0.5,1.4-0.5c0.6,0,1.1,0.2,1.5,0.5
				c0.4,0.4,0.6,0.8,0.6,1.4c0,0.3,0,0.7,0,1.5c0,0.1,0,0.1-0.1,0.1h-3.3c0,0,0,0,0,0c0,0.2,0,0.5,0,0.8c0,0.3,0.2,0.6,0.4,0.8
				c0.2,0.2,0.5,0.3,0.9,0.3C220.9,118.6,221.2,118.5,221.4,118.4z M219.7,114.1c-0.2,0.2-0.4,0.5-0.4,0.8c0,0.3,0,0.6,0,0.8
				c0,0,0,0,0,0h2.5c0,0,0,0,0,0c0-0.2,0-0.5,0-0.8c0-0.3-0.2-0.6-0.4-0.8c-0.2-0.2-0.5-0.3-0.9-0.3
				C220.2,113.8,219.9,113.9,219.7,114.1z"/>
			<path class="st2" d="M228.6,116.2c0,0.5,0,1-0.1,1.4c-0.1,0.6-0.4,1-0.7,1.3s-0.8,0.4-1.3,0.4c-0.3,0-0.6-0.1-0.8-0.2
				c-0.2-0.1-0.4-0.3-0.5-0.5c0,0,0,0,0,0c0,0,0,0,0,0v2.8c0,0.1,0,0.1-0.1,0.1h-0.6c-0.1,0-0.1,0-0.1-0.1v-8.2c0-0.1,0-0.1,0.1-0.1
				h0.6c0.1,0,0.1,0,0.1,0.1v0.5c0,0,0,0,0,0c0,0,0,0,0,0c0.3-0.5,0.7-0.7,1.4-0.7c0.5,0,0.9,0.1,1.2,0.4c0.3,0.3,0.5,0.7,0.7,1.3
				C228.6,115.2,228.6,115.7,228.6,116.2z M227.7,116.2c0-0.6-0.1-1.1-0.2-1.5c-0.1-0.3-0.2-0.5-0.4-0.7c-0.2-0.2-0.4-0.2-0.7-0.2
				c-0.3,0-0.5,0.1-0.7,0.2s-0.3,0.4-0.4,0.7c-0.1,0.4-0.2,0.9-0.2,1.5c0,0.7,0.1,1.2,0.2,1.5c0.1,0.3,0.2,0.5,0.4,0.6
				c0.2,0.1,0.4,0.2,0.6,0.2c0.5,0,0.9-0.3,1.1-0.8C227.7,117.4,227.7,116.9,227.7,116.2z"/>
		</g>
		<g class="st1">
			<path class="st2" d="M232.4,113.8h-1.1c0,0,0,0,0,0v3.6c0,0.4,0.1,0.6,0.2,0.8c0.1,0.1,0.4,0.2,0.7,0.2h0.2c0.1,0,0.1,0,0.1,0.1
				v0.5c0,0.1,0,0.1-0.1,0.1l-0.4,0c-0.5,0-0.9-0.1-1.2-0.3c-0.3-0.2-0.4-0.6-0.4-1.2v-3.9c0,0,0,0,0,0h-0.6c-0.1,0-0.1,0-0.1-0.1
				v-0.4c0-0.1,0-0.1,0.1-0.1h0.6c0,0,0,0,0,0v-1.4c0-0.1,0-0.1,0.1-0.1h0.6c0.1,0,0.1,0,0.1,0.1v1.4c0,0,0,0,0,0h1.1
				c0.1,0,0.1,0,0.1,0.1v0.4C232.5,113.8,232.5,113.8,232.4,113.8z"/>
		</g>
		<g class="st1">
			<path class="st2" d="M234.4,118.9c-0.4-0.3-0.6-0.7-0.7-1.3c0-0.4-0.1-0.9-0.1-1.4s0-1,0.1-1.4c0.1-0.5,0.3-1,0.7-1.3
				c0.4-0.3,0.9-0.5,1.4-0.5s1.1,0.2,1.4,0.5c0.4,0.3,0.6,0.7,0.7,1.3c0,0.3,0.1,0.8,0.1,1.4c0,0.6,0,1.1-0.1,1.4
				c-0.1,0.5-0.3,1-0.7,1.3c-0.4,0.3-0.9,0.5-1.4,0.5S234.8,119.2,234.4,118.9z M236.7,118.3c0.2-0.2,0.4-0.5,0.4-0.8
				c0-0.3,0-0.7,0-1.2c0-0.5,0-0.9,0-1.2c0-0.4-0.2-0.6-0.4-0.8c-0.2-0.2-0.5-0.3-0.9-0.3c-0.4,0-0.6,0.1-0.9,0.3
				c-0.2,0.2-0.4,0.5-0.4,0.8c0,0.3,0,0.7,0,1.2s0,0.9,0,1.2c0,0.4,0.2,0.6,0.4,0.8c0.2,0.2,0.5,0.3,0.9,0.3
				C236.2,118.6,236.5,118.5,236.7,118.3z"/>
			<path class="st2" d="M239.8,118.9c-0.4-0.3-0.6-0.7-0.6-1.1v-0.1c0-0.1,0-0.1,0.1-0.1h0.6c0.1,0,0.1,0,0.1,0.1v0.1
				c0,0.3,0.1,0.5,0.3,0.7c0.2,0.2,0.5,0.3,0.9,0.3c0.4,0,0.6-0.1,0.9-0.3c0.2-0.2,0.3-0.4,0.3-0.7c0-0.2-0.1-0.4-0.2-0.5
				c-0.1-0.1-0.3-0.2-0.4-0.3c-0.2-0.1-0.4-0.2-0.7-0.3c-0.4-0.1-0.7-0.3-0.9-0.4s-0.5-0.3-0.6-0.5c-0.2-0.2-0.3-0.5-0.3-0.9
				c0-0.5,0.2-0.9,0.5-1.2c0.4-0.3,0.8-0.5,1.4-0.5c0.6,0,1.1,0.2,1.5,0.5c0.4,0.3,0.5,0.7,0.5,1.2v0c0,0.1,0,0.1-0.1,0.1h-0.6
				c-0.1,0-0.1,0-0.1-0.1v0c0-0.3-0.1-0.5-0.3-0.7s-0.5-0.3-0.9-0.3c-0.3,0-0.6,0.1-0.8,0.3s-0.3,0.4-0.3,0.7c0,0.3,0.1,0.5,0.3,0.6
				s0.5,0.3,1,0.5c0.4,0.1,0.7,0.3,1,0.4s0.5,0.3,0.7,0.5c0.2,0.2,0.3,0.5,0.3,0.9c0,0.5-0.2,0.9-0.6,1.2c-0.4,0.3-0.9,0.5-1.5,0.5
				S240.2,119.2,239.8,118.9z"/>
			<path class="st2" d="M250.8,113.6c0.3,0.4,0.5,0.8,0.5,1.5v4c0,0.1,0,0.1-0.1,0.1h-0.6c-0.1,0-0.1,0-0.1-0.1v-3.9
				c0-0.4-0.1-0.7-0.3-1c-0.2-0.2-0.5-0.4-0.9-0.4s-0.7,0.1-0.9,0.4c-0.2,0.3-0.3,0.6-0.3,1v3.9c0,0.1,0,0.1-0.1,0.1h-0.6
				c-0.1,0-0.1,0-0.1-0.1v-5.8c0-0.1,0-0.1,0.1-0.1h0.6c0.1,0,0.1,0,0.1,0.1v0.5c0,0,0,0,0,0c0,0,0,0,0,0c0.3-0.5,0.8-0.7,1.4-0.7
				C250,113.1,250.4,113.3,250.8,113.6z"/>
			<path class="st2" d="M256.2,113.2h0.6c0.1,0,0.1,0,0.1,0.1v5.8c0,0.1,0,0.1-0.1,0.1h-0.6c-0.1,0-0.1,0-0.1-0.1v-0.5c0,0,0,0,0,0
				c0,0,0,0,0,0c-0.3,0.5-0.7,0.7-1.4,0.7c-0.5,0-1-0.2-1.3-0.5c-0.3-0.3-0.5-0.8-0.5-1.4v-4.2c0-0.1,0-0.1,0.1-0.1h0.6
				c0.1,0,0.1,0,0.1,0.1v3.9c0,0.4,0.1,0.8,0.3,1c0.2,0.2,0.5,0.4,0.9,0.4c0.4,0,0.7-0.1,0.9-0.4c0.2-0.3,0.3-0.6,0.3-1v-3.9
				C256.1,113.2,256.1,113.2,256.2,113.2z"/>
		</g>
		<g class="st1">
			<path class="st2" d="M261.5,118.4c0.2-0.2,0.4-0.4,0.5-0.6c0-0.1,0.1-0.1,0.1-0.1l0.6,0.1c0,0,0.1,0,0.1,0.1c0,0,0,0.1,0,0.1
				c-0.1,0.4-0.4,0.8-0.7,1.1c-0.4,0.3-0.8,0.4-1.3,0.4c-0.6,0-1.1-0.2-1.4-0.5c-0.4-0.3-0.6-0.7-0.7-1.3c0-0.2-0.1-0.4-0.1-0.7
				c0-0.3,0-0.5,0-0.7s0-0.3,0-0.4c0-0.4,0-0.7,0-1c0.1-0.5,0.3-1,0.7-1.3c0.4-0.3,0.9-0.5,1.4-0.5c0.6,0,1.1,0.2,1.5,0.5
				c0.4,0.4,0.6,0.8,0.6,1.4c0,0.3,0,0.7,0,1.5c0,0.1,0,0.1-0.1,0.1h-3.3c0,0,0,0,0,0c0,0.2,0,0.5,0,0.8c0,0.3,0.2,0.6,0.4,0.8
				c0.2,0.2,0.5,0.3,0.9,0.3C261,118.6,261.2,118.5,261.5,118.4z M259.8,114.1c-0.2,0.2-0.4,0.5-0.4,0.8c0,0.3,0,0.6,0,0.8
				c0,0,0,0,0,0h2.5c0,0,0,0,0,0c0-0.2,0-0.5,0-0.8c0-0.3-0.2-0.6-0.4-0.8c-0.2-0.2-0.5-0.3-0.9-0.3
				C260.3,113.8,260,113.9,259.8,114.1z"/>
		</g>
		<g class="st1">
			<path class="st2" d="M265.4,119.2l-1.7-5.8l0,0c0-0.1,0-0.1,0.1-0.1h0.7c0.1,0,0.1,0,0.1,0.1l1.3,4.7c0,0,0,0,0,0c0,0,0,0,0,0
				l1.3-4.7c0-0.1,0.1-0.1,0.1-0.1l0.7,0c0,0,0.1,0,0.1,0c0,0,0,0.1,0,0.1l-1.7,5.8c0,0.1-0.1,0.1-0.1,0.1h-0.7
				C265.5,119.2,265.4,119.2,265.4,119.2z"/>
		</g>
		<g class="st1">
			<path class="st2" d="M269.7,118.9c-0.4-0.3-0.6-0.7-0.7-1.3c0-0.4-0.1-0.9-0.1-1.4s0-1,0.1-1.4c0.1-0.5,0.3-1,0.7-1.3
				c0.4-0.3,0.9-0.5,1.4-0.5s1.1,0.2,1.4,0.5c0.4,0.3,0.6,0.7,0.7,1.3c0,0.3,0.1,0.8,0.1,1.4c0,0.6,0,1.1-0.1,1.4
				c-0.1,0.5-0.3,1-0.7,1.3c-0.4,0.3-0.9,0.5-1.4,0.5S270.1,119.2,269.7,118.9z M272,118.3c0.2-0.2,0.4-0.5,0.4-0.8
				c0-0.3,0-0.7,0-1.2c0-0.5,0-0.9,0-1.2c0-0.4-0.2-0.6-0.4-0.8c-0.2-0.2-0.5-0.3-0.9-0.3c-0.4,0-0.6,0.1-0.9,0.3
				c-0.2,0.2-0.4,0.5-0.4,0.8c0,0.3,0,0.7,0,1.2s0,0.9,0,1.2c0,0.4,0.2,0.6,0.4,0.8c0.2,0.2,0.5,0.3,0.9,0.3
				C271.5,118.6,271.8,118.5,272,118.3z"/>
			<path class="st2" d="M275.2,118.9c-0.4-0.3-0.6-0.7-0.6-1.1v-0.1c0-0.1,0-0.1,0.1-0.1h0.6c0.1,0,0.1,0,0.1,0.1v0.1
				c0,0.3,0.1,0.5,0.3,0.7c0.2,0.2,0.5,0.3,0.9,0.3c0.4,0,0.6-0.1,0.9-0.3c0.2-0.2,0.3-0.4,0.3-0.7c0-0.2-0.1-0.4-0.2-0.5
				c-0.1-0.1-0.3-0.2-0.4-0.3c-0.2-0.1-0.4-0.2-0.7-0.3c-0.4-0.1-0.7-0.3-0.9-0.4s-0.5-0.3-0.6-0.5c-0.2-0.2-0.3-0.5-0.3-0.9
				c0-0.5,0.2-0.9,0.5-1.2c0.4-0.3,0.8-0.5,1.4-0.5c0.6,0,1.1,0.2,1.5,0.5c0.4,0.3,0.5,0.7,0.5,1.2v0c0,0.1,0,0.1-0.1,0.1H278
				c-0.1,0-0.1,0-0.1-0.1v0c0-0.3-0.1-0.5-0.3-0.7s-0.5-0.3-0.9-0.3c-0.3,0-0.6,0.1-0.8,0.3s-0.3,0.4-0.3,0.7c0,0.3,0.1,0.5,0.3,0.6
				s0.5,0.3,1,0.5c0.4,0.1,0.7,0.3,1,0.4s0.5,0.3,0.7,0.5c0.2,0.2,0.3,0.5,0.3,0.9c0,0.5-0.2,0.9-0.6,1.2c-0.4,0.3-0.9,0.5-1.5,0.5
				S275.6,119.2,275.2,118.9z"/>
			<path class="st2" d="M279.8,120.2C279.8,120.1,279.8,120.1,279.8,120.2l0.4-2.7c0-0.1,0.1-0.1,0.1-0.1h0.5c0,0,0.1,0,0.1,0
				c0,0,0,0.1,0,0.1l-0.6,2.6c0,0.1-0.1,0.1-0.1,0.1L279.8,120.2C279.9,120.2,279.9,120.2,279.8,120.2z"/>
		</g>
		<g class="st1">
			<path class="st2" d="M46.9,130.6c0,0.5,0,1-0.1,1.4c-0.1,0.6-0.4,1-0.7,1.3c-0.3,0.3-0.8,0.4-1.3,0.4c-0.3,0-0.6-0.1-0.8-0.2
				c-0.2-0.1-0.4-0.3-0.5-0.5c0,0,0,0,0,0c0,0,0,0,0,0v2.8c0,0.1,0,0.1-0.1,0.1h-0.6c-0.1,0-0.1,0-0.1-0.1v-8.2c0-0.1,0-0.1,0.1-0.1
				h0.6c0.1,0,0.1,0,0.1,0.1v0.5c0,0,0,0,0,0s0,0,0,0c0.3-0.5,0.7-0.7,1.4-0.7c0.5,0,0.9,0.1,1.2,0.4c0.3,0.3,0.5,0.7,0.7,1.3
				C46.9,129.6,46.9,130.1,46.9,130.6z M46,130.6c0-0.6-0.1-1.1-0.2-1.5c-0.1-0.3-0.2-0.5-0.4-0.7s-0.4-0.2-0.7-0.2
				c-0.3,0-0.5,0.1-0.7,0.2c-0.2,0.2-0.3,0.4-0.4,0.7c-0.1,0.4-0.2,0.9-0.2,1.5c0,0.7,0.1,1.2,0.2,1.5c0.1,0.3,0.2,0.5,0.4,0.6
				c0.2,0.1,0.4,0.2,0.6,0.2c0.5,0,0.9-0.3,1.1-0.8C46,131.8,46,131.3,46,130.6z"/>
		</g>
		<g class="st1">
			<path class="st2" d="M51.2,132.8c0.2-0.2,0.4-0.4,0.5-0.6c0-0.1,0.1-0.1,0.1-0.1l0.6,0.1c0,0,0.1,0,0.1,0.1c0,0,0,0.1,0,0.1
				c-0.1,0.4-0.4,0.8-0.7,1.1c-0.4,0.3-0.8,0.4-1.3,0.4c-0.6,0-1.1-0.2-1.4-0.5c-0.4-0.3-0.6-0.7-0.7-1.3c0-0.2-0.1-0.4-0.1-0.7
				c0-0.3,0-0.5,0-0.7s0-0.3,0-0.4c0-0.4,0-0.7,0-1c0.1-0.5,0.3-1,0.7-1.3c0.4-0.3,0.9-0.5,1.4-0.5c0.6,0,1.1,0.2,1.5,0.5
				c0.4,0.4,0.6,0.8,0.6,1.4c0,0.3,0,0.7,0,1.5c0,0.1,0,0.1-0.1,0.1h-3.3c0,0,0,0,0,0c0,0.2,0,0.5,0,0.8c0,0.3,0.2,0.6,0.4,0.8
				c0.2,0.2,0.5,0.3,0.9,0.3C50.7,133,50.9,132.9,51.2,132.8z M49.5,128.5c-0.2,0.2-0.4,0.5-0.4,0.8c0,0.3,0,0.6,0,0.8c0,0,0,0,0,0
				h2.5c0,0,0,0,0,0c0-0.2,0-0.5,0-0.8c0-0.3-0.2-0.6-0.4-0.8c-0.2-0.2-0.5-0.3-0.9-0.3C50,128.2,49.7,128.3,49.5,128.5z"/>
		</g>
		<g class="st1">
			<path class="st2" d="M56.8,127.7c0.1,0,0.1,0.1,0.1,0.1l-0.1,0.6c0,0.1-0.1,0.1-0.1,0.1c-0.1-0.1-0.3-0.1-0.4-0.1l-0.1,0
				c-0.4,0-0.6,0.2-0.9,0.5s-0.3,0.7-0.3,1.1v3.6c0,0.1,0,0.1-0.1,0.1h-0.6c-0.1,0-0.1,0-0.1-0.1v-5.8c0-0.1,0-0.1,0.1-0.1h0.6
				c0.1,0,0.1,0,0.1,0.1v0.8c0,0,0,0,0,0c0,0,0,0,0,0c0.1-0.3,0.3-0.5,0.5-0.7s0.5-0.3,0.8-0.3C56.5,127.5,56.7,127.6,56.8,127.7z"
				/>
		</g>
		<g class="st1">
			<path class="st2" d="M58.5,133.3c-0.4-0.3-0.6-0.7-0.7-1.3c0-0.4-0.1-0.9-0.1-1.4s0-1,0.1-1.4c0.1-0.5,0.3-1,0.7-1.3
				c0.4-0.3,0.9-0.5,1.4-0.5s1.1,0.2,1.4,0.5c0.4,0.3,0.6,0.7,0.7,1.3c0,0.3,0.1,0.8,0.1,1.4c0,0.6,0,1.1-0.1,1.4
				c-0.1,0.5-0.3,1-0.7,1.3c-0.4,0.3-0.9,0.5-1.4,0.5S58.8,133.6,58.5,133.3z M60.8,132.7c0.2-0.2,0.4-0.5,0.4-0.8
				c0-0.3,0-0.7,0-1.2c0-0.5,0-0.9,0-1.2c0-0.4-0.2-0.6-0.4-0.8c-0.2-0.2-0.5-0.3-0.9-0.3s-0.6,0.1-0.9,0.3
				c-0.2,0.2-0.4,0.5-0.4,0.8c0,0.3,0,0.7,0,1.2s0,0.9,0,1.2c0,0.4,0.2,0.6,0.4,0.8c0.2,0.2,0.5,0.3,0.9,0.3
				C60.2,133,60.5,132.9,60.8,132.7z"/>
			<path class="st2" d="M69.5,128c0.4,0.4,0.5,0.9,0.5,1.5v4c0,0.1,0,0.1-0.1,0.1h-0.6c-0.1,0-0.1,0-0.1-0.1v-0.4c0,0,0,0,0,0
				c0,0,0,0,0,0c-0.2,0.2-0.4,0.4-0.7,0.5c-0.3,0.1-0.6,0.2-0.9,0.2c-0.5,0-0.9-0.1-1.3-0.4c-0.4-0.3-0.5-0.7-0.5-1.3
				c0-0.6,0.2-1.1,0.6-1.5s1-0.5,1.7-0.5h1.1c0,0,0,0,0,0v-0.5c0-0.4-0.1-0.7-0.3-1c-0.2-0.2-0.5-0.4-0.9-0.4
				c-0.3,0-0.6,0.1-0.8,0.2c-0.2,0.2-0.3,0.4-0.4,0.6c0,0.1-0.1,0.1-0.1,0.1l-0.7,0c0,0-0.1,0-0.1,0c0,0,0-0.1,0-0.1
				c0.1-0.5,0.3-0.8,0.7-1.1c0.4-0.3,0.9-0.4,1.4-0.4C68.6,127.5,69.1,127.7,69.5,128z M68.7,132.7c0.3-0.2,0.4-0.5,0.4-0.9v-1
				c0,0,0,0,0,0h-1.1c-0.5,0-0.8,0.1-1.1,0.3s-0.4,0.5-0.4,0.9c0,0.4,0.1,0.6,0.3,0.8c0.2,0.2,0.5,0.3,0.8,0.3
				C68.1,133,68.4,132.9,68.7,132.7z"/>
		</g>
		<g class="st1">
			<path class="st2" d="M80.7,128c0.3,0.4,0.5,0.8,0.5,1.5v4c0,0.1,0,0.1-0.1,0.1h-0.6c-0.1,0-0.1,0-0.1-0.1v-3.9
				c0-0.4-0.1-0.8-0.3-1s-0.5-0.4-0.8-0.4c-0.4,0-0.6,0.1-0.9,0.4s-0.3,0.6-0.3,1v3.9c0,0.1,0,0.1-0.1,0.1h-0.6
				c-0.1,0-0.1,0-0.1-0.1v-3.9c0-0.4-0.1-0.8-0.3-1s-0.5-0.4-0.8-0.4c-0.4,0-0.6,0.1-0.9,0.4c-0.2,0.2-0.3,0.6-0.3,1v3.9
				c0,0.1,0,0.1-0.1,0.1h-0.6c-0.1,0-0.1,0-0.1-0.1v-5.8c0-0.1,0-0.1,0.1-0.1h0.6c0.1,0,0.1,0,0.1,0.1v0.4c0,0,0,0,0,0c0,0,0,0,0,0
				c0.2-0.2,0.4-0.4,0.6-0.5c0.2-0.1,0.5-0.2,0.8-0.2c0.4,0,0.7,0.1,0.9,0.2s0.5,0.4,0.6,0.7c0,0,0,0,0.1,0c0.2-0.3,0.4-0.5,0.7-0.7
				c0.3-0.1,0.6-0.2,0.9-0.2C80,127.5,80.4,127.7,80.7,128z"/>
		</g>
		<g class="st1">
			<path class="st2" d="M85.6,132.8c0.2-0.2,0.4-0.4,0.5-0.6c0-0.1,0.1-0.1,0.1-0.1l0.6,0.1c0,0,0.1,0,0.1,0.1c0,0,0,0.1,0,0.1
				c-0.1,0.4-0.4,0.8-0.7,1.1s-0.8,0.4-1.3,0.4c-0.6,0-1.1-0.2-1.4-0.5c-0.4-0.3-0.6-0.7-0.7-1.3c0-0.2-0.1-0.4-0.1-0.7
				c0-0.3,0-0.5,0-0.7s0-0.3,0-0.4c0-0.4,0-0.7,0-1c0.1-0.5,0.3-1,0.7-1.3c0.4-0.3,0.9-0.5,1.4-0.5c0.6,0,1.1,0.2,1.5,0.5
				c0.4,0.4,0.6,0.8,0.6,1.4c0,0.3,0,0.7,0,1.5c0,0.1,0,0.1-0.1,0.1h-3.3c0,0,0,0,0,0c0,0.2,0,0.5,0,0.8c0,0.3,0.2,0.6,0.4,0.8
				s0.5,0.3,0.9,0.3C85.1,133,85.4,132.9,85.6,132.8z M83.9,128.5c-0.2,0.2-0.4,0.5-0.4,0.8c0,0.3,0,0.6,0,0.8c0,0,0,0,0,0H86
				c0,0,0,0,0,0c0-0.2,0-0.5,0-0.8c0-0.3-0.2-0.6-0.4-0.8c-0.2-0.2-0.5-0.3-0.9-0.3C84.4,128.2,84.1,128.3,83.9,128.5z"/>
			<path class="st2" d="M92.1,128c0.3,0.4,0.5,0.8,0.5,1.5v4c0,0.1,0,0.1-0.1,0.1h-0.6c-0.1,0-0.1,0-0.1-0.1v-3.9
				c0-0.4-0.1-0.7-0.3-1c-0.2-0.2-0.5-0.4-0.9-0.4s-0.7,0.1-0.9,0.4s-0.3,0.6-0.3,1v3.9c0,0.1,0,0.1-0.1,0.1h-0.6
				c-0.1,0-0.1,0-0.1-0.1v-5.8c0-0.1,0-0.1,0.1-0.1h0.6c0.1,0,0.1,0,0.1,0.1v0.5c0,0,0,0,0,0c0,0,0,0,0,0c0.3-0.5,0.8-0.7,1.4-0.7
				C91.3,127.5,91.8,127.7,92.1,128z"/>
			<path class="st2" d="M97.5,127.6h0.6c0.1,0,0.1,0,0.1,0.1v5.8c0,0.1,0,0.1-0.1,0.1h-0.6c-0.1,0-0.1,0-0.1-0.1v-0.5c0,0,0,0,0,0
				c0,0,0,0,0,0c-0.3,0.5-0.7,0.7-1.4,0.7c-0.5,0-1-0.2-1.3-0.5c-0.3-0.3-0.5-0.8-0.5-1.4v-4.2c0-0.1,0-0.1,0.1-0.1h0.6
				c0.1,0,0.1,0,0.1,0.1v3.9c0,0.4,0.1,0.8,0.3,1c0.2,0.2,0.5,0.4,0.9,0.4c0.4,0,0.7-0.1,0.9-0.4s0.3-0.6,0.3-1v-3.9
				C97.4,127.6,97.5,127.6,97.5,127.6z"/>
			<path class="st2" d="M103.3,125.2h0.6c0.1,0,0.1,0,0.1,0.1v8.2c0,0.1,0,0.1-0.1,0.1h-0.6c-0.1,0-0.1,0-0.1-0.1v-0.5c0,0,0,0,0,0
				c0,0,0,0,0,0c-0.3,0.5-0.8,0.7-1.4,0.7c-0.5,0-0.9-0.1-1.2-0.4c-0.3-0.3-0.5-0.7-0.7-1.3c-0.1-0.4-0.2-0.9-0.2-1.4
				c0-0.6,0-1,0.1-1.4c0.1-0.6,0.3-1,0.7-1.3c0.3-0.3,0.8-0.4,1.3-0.4c0.3,0,0.6,0.1,0.8,0.2c0.2,0.1,0.4,0.3,0.5,0.5c0,0,0,0,0,0
				s0,0,0,0v-2.8C103.2,125.3,103.3,125.2,103.3,125.2z M103.2,130.6c0-0.7-0.1-1.2-0.2-1.5c-0.1-0.3-0.2-0.5-0.4-0.6
				s-0.4-0.2-0.7-0.2c-0.5,0-0.9,0.3-1.1,0.8c-0.2,0.4-0.2,0.9-0.2,1.6c0,0.6,0.1,1.1,0.2,1.5c0.1,0.3,0.2,0.5,0.4,0.7
				c0.2,0.2,0.4,0.2,0.7,0.2c0.3,0,0.5-0.1,0.7-0.2c0.2-0.2,0.3-0.4,0.4-0.7C103.1,131.8,103.2,131.3,103.2,130.6z"/>
			<path class="st2" d="M106.4,133.3c-0.4-0.3-0.6-0.7-0.7-1.3c0-0.4-0.1-0.9-0.1-1.4s0-1,0.1-1.4c0.1-0.5,0.3-1,0.7-1.3
				c0.4-0.3,0.9-0.5,1.4-0.5s1.1,0.2,1.4,0.5c0.4,0.3,0.6,0.7,0.7,1.3c0,0.3,0.1,0.8,0.1,1.4c0,0.6,0,1.1-0.1,1.4
				c-0.1,0.5-0.3,1-0.7,1.3c-0.4,0.3-0.9,0.5-1.4,0.5S106.7,133.6,106.4,133.3z M108.7,132.7c0.2-0.2,0.4-0.5,0.4-0.8
				c0-0.3,0-0.7,0-1.2c0-0.5,0-0.9,0-1.2c0-0.4-0.2-0.6-0.4-0.8c-0.2-0.2-0.5-0.3-0.9-0.3s-0.6,0.1-0.9,0.3
				c-0.2,0.2-0.4,0.5-0.4,0.8c0,0.3,0,0.7,0,1.2s0,0.9,0,1.2c0,0.4,0.2,0.6,0.4,0.8c0.2,0.2,0.5,0.3,0.9,0.3
				C108.1,133,108.4,132.9,108.7,132.7z"/>
		</g>
		<g class="st1">
			<path class="st2" d="M117.6,128c0.3,0.4,0.5,0.8,0.5,1.5v4c0,0.1,0,0.1-0.1,0.1h-0.6c-0.1,0-0.1,0-0.1-0.1v-3.9
				c0-0.4-0.1-0.7-0.3-1c-0.2-0.2-0.5-0.4-0.9-0.4s-0.7,0.1-0.9,0.4s-0.3,0.6-0.3,1v3.9c0,0.1,0,0.1-0.1,0.1H114
				c-0.1,0-0.1,0-0.1-0.1v-5.8c0-0.1,0-0.1,0.1-0.1h0.6c0.1,0,0.1,0,0.1,0.1v0.5c0,0,0,0,0,0c0,0,0,0,0,0c0.3-0.5,0.8-0.7,1.4-0.7
				C116.8,127.5,117.3,127.7,117.6,128z"/>
		</g>
		<g class="st1">
			<path class="st2" d="M120.2,133.3c-0.4-0.3-0.6-0.7-0.7-1.3c0-0.4-0.1-0.9-0.1-1.4s0-1,0.1-1.4c0.1-0.5,0.3-1,0.7-1.3
				c0.4-0.3,0.9-0.5,1.4-0.5s1.1,0.2,1.4,0.5c0.4,0.3,0.6,0.7,0.7,1.3c0,0.3,0.1,0.8,0.1,1.4c0,0.6,0,1.1-0.1,1.4
				c-0.1,0.5-0.3,1-0.7,1.3c-0.4,0.3-0.9,0.5-1.4,0.5S120.6,133.6,120.2,133.3z M122.5,132.7c0.2-0.2,0.4-0.5,0.4-0.8
				c0-0.3,0-0.7,0-1.2c0-0.5,0-0.9,0-1.2c0-0.4-0.2-0.6-0.4-0.8c-0.2-0.2-0.5-0.3-0.9-0.3s-0.6,0.1-0.9,0.3
				c-0.2,0.2-0.4,0.5-0.4,0.8c0,0.3,0,0.7,0,1.2s0,0.9,0,1.2c0,0.4,0.2,0.6,0.4,0.8c0.2,0.2,0.5,0.3,0.9,0.3
				C122,133,122.3,132.9,122.5,132.7z"/>
			<path class="st2" d="M125.7,133.3c-0.4-0.3-0.6-0.7-0.6-1.1V132c0-0.1,0-0.1,0.1-0.1h0.6c0.1,0,0.1,0,0.1,0.1v0.1
				c0,0.3,0.1,0.5,0.3,0.7c0.2,0.2,0.5,0.3,0.9,0.3c0.4,0,0.6-0.1,0.9-0.3c0.2-0.2,0.3-0.4,0.3-0.7c0-0.2-0.1-0.4-0.2-0.5
				c-0.1-0.1-0.3-0.2-0.4-0.3c-0.2-0.1-0.4-0.2-0.7-0.3c-0.4-0.1-0.7-0.3-0.9-0.4c-0.2-0.1-0.5-0.3-0.6-0.5
				c-0.2-0.2-0.3-0.5-0.3-0.9c0-0.5,0.2-0.9,0.5-1.2c0.4-0.3,0.8-0.5,1.4-0.5c0.6,0,1.1,0.2,1.5,0.5c0.4,0.3,0.5,0.7,0.5,1.2v0
				c0,0.1,0,0.1-0.1,0.1h-0.6c-0.1,0-0.1,0-0.1-0.1v0c0-0.3-0.1-0.5-0.3-0.7c-0.2-0.2-0.5-0.3-0.9-0.3c-0.3,0-0.6,0.1-0.8,0.3
				s-0.3,0.4-0.3,0.7c0,0.3,0.1,0.5,0.3,0.6s0.5,0.3,1,0.5c0.4,0.1,0.7,0.3,1,0.4s0.5,0.3,0.7,0.5c0.2,0.2,0.3,0.5,0.3,0.9
				c0,0.5-0.2,0.9-0.6,1.2c-0.4,0.3-0.9,0.5-1.5,0.5S126.1,133.6,125.7,133.3z"/>
		</g>
		<g class="st1">
			<path class="st2" d="M135.8,132.8c0.2-0.2,0.4-0.4,0.5-0.6c0-0.1,0.1-0.1,0.1-0.1l0.6,0.1c0,0,0.1,0,0.1,0.1c0,0,0,0.1,0,0.1
				c-0.1,0.4-0.4,0.8-0.7,1.1s-0.8,0.4-1.3,0.4c-0.6,0-1.1-0.2-1.4-0.5c-0.4-0.3-0.6-0.7-0.7-1.3c0-0.2-0.1-0.4-0.1-0.7
				c0-0.3,0-0.5,0-0.7s0-0.3,0-0.4c0-0.4,0-0.7,0-1c0.1-0.5,0.3-1,0.7-1.3c0.4-0.3,0.9-0.5,1.4-0.5c0.6,0,1.1,0.2,1.5,0.5
				c0.4,0.4,0.6,0.8,0.6,1.4c0,0.3,0,0.7,0,1.5c0,0.1,0,0.1-0.1,0.1h-3.3c0,0,0,0,0,0c0,0.2,0,0.5,0,0.8c0,0.3,0.2,0.6,0.4,0.8
				s0.5,0.3,0.9,0.3C135.3,133,135.6,132.9,135.8,132.8z M134.1,128.5c-0.2,0.2-0.4,0.5-0.4,0.8c0,0.3,0,0.6,0,0.8c0,0,0,0,0,0h2.5
				c0,0,0,0,0,0c0-0.2,0-0.5,0-0.8c0-0.3-0.2-0.6-0.4-0.8c-0.2-0.2-0.5-0.3-0.9-0.3C134.6,128.2,134.3,128.3,134.1,128.5z"/>
		</g>
		<g class="st1">
			<path class="st2" d="M138.8,133.3c-0.4-0.3-0.6-0.7-0.6-1.1V132c0-0.1,0-0.1,0.1-0.1h0.6c0.1,0,0.1,0,0.1,0.1v0.1
				c0,0.3,0.1,0.5,0.3,0.7c0.2,0.2,0.5,0.3,0.9,0.3c0.4,0,0.6-0.1,0.9-0.3c0.2-0.2,0.3-0.4,0.3-0.7c0-0.2-0.1-0.4-0.2-0.5
				c-0.1-0.1-0.3-0.2-0.4-0.3c-0.2-0.1-0.4-0.2-0.7-0.3c-0.4-0.1-0.7-0.3-0.9-0.4c-0.2-0.1-0.5-0.3-0.6-0.5
				c-0.2-0.2-0.3-0.5-0.3-0.9c0-0.5,0.2-0.9,0.5-1.2c0.4-0.3,0.8-0.5,1.4-0.5c0.6,0,1.1,0.2,1.5,0.5c0.4,0.3,0.5,0.7,0.5,1.2v0
				c0,0.1,0,0.1-0.1,0.1h-0.6c-0.1,0-0.1,0-0.1-0.1v0c0-0.3-0.1-0.5-0.3-0.7c-0.2-0.2-0.5-0.3-0.9-0.3c-0.3,0-0.6,0.1-0.8,0.3
				s-0.3,0.4-0.3,0.7c0,0.3,0.1,0.5,0.3,0.6s0.5,0.3,1,0.5c0.4,0.1,0.7,0.3,1,0.4s0.5,0.3,0.7,0.5c0.2,0.2,0.3,0.5,0.3,0.9
				c0,0.5-0.2,0.9-0.6,1.2c-0.4,0.3-0.9,0.5-1.5,0.5S139.2,133.6,138.8,133.3z"/>
			<path class="st2" d="M149.4,125.2h0.6c0.1,0,0.1,0,0.1,0.1v8.2c0,0.1,0,0.1-0.1,0.1h-0.6c-0.1,0-0.1,0-0.1-0.1v-0.5c0,0,0,0,0,0
				c0,0,0,0,0,0c-0.3,0.5-0.8,0.7-1.4,0.7c-0.5,0-0.9-0.1-1.2-0.4c-0.3-0.3-0.5-0.7-0.7-1.3c-0.1-0.4-0.2-0.9-0.2-1.4
				c0-0.6,0-1,0.1-1.4c0.1-0.6,0.3-1,0.7-1.3c0.3-0.3,0.8-0.4,1.3-0.4c0.3,0,0.6,0.1,0.8,0.2c0.2,0.1,0.4,0.3,0.5,0.5c0,0,0,0,0,0
				s0,0,0,0v-2.8C149.3,125.3,149.4,125.2,149.4,125.2z M149.3,130.6c0-0.7-0.1-1.2-0.2-1.5c-0.1-0.3-0.2-0.5-0.4-0.6
				s-0.4-0.2-0.7-0.2c-0.5,0-0.9,0.3-1.1,0.8c-0.2,0.4-0.2,0.9-0.2,1.6c0,0.6,0.1,1.1,0.2,1.5c0.1,0.3,0.2,0.5,0.4,0.7
				c0.2,0.2,0.4,0.2,0.7,0.2c0.3,0,0.5-0.1,0.7-0.2c0.2-0.2,0.3-0.4,0.4-0.7C149.2,131.8,149.3,131.3,149.3,130.6z"/>
			<path class="st2" d="M151.9,126.3c-0.1-0.1-0.2-0.3-0.2-0.5c0-0.2,0.1-0.4,0.2-0.5s0.3-0.2,0.5-0.2c0.2,0,0.4,0.1,0.5,0.2
				s0.2,0.3,0.2,0.5c0,0.2-0.1,0.4-0.2,0.5s-0.3,0.2-0.5,0.2C152.2,126.5,152,126.4,151.9,126.3z M152,133.5v-5.8
				c0-0.1,0-0.1,0.1-0.1h0.6c0.1,0,0.1,0,0.1,0.1v5.8c0,0.1,0,0.1-0.1,0.1h-0.6C152,133.7,152,133.6,152,133.5z"/>
			<path class="st2" d="M156,126.2c-0.1,0.2-0.2,0.5-0.2,1v0.3c0,0,0,0,0,0h1.1c0.1,0,0.1,0,0.1,0.1v0.5c0,0.1,0,0.1-0.1,0.1h-1.1
				c0,0,0,0,0,0v5.2c0,0.1,0,0.1-0.1,0.1h-0.6c-0.1,0-0.1,0-0.1-0.1v-5.2c0,0,0,0,0,0h-0.6c-0.1,0-0.1,0-0.1-0.1v-0.5
				c0-0.1,0-0.1,0.1-0.1h0.6c0,0,0,0,0,0v-0.3c0-0.7,0.1-1.2,0.4-1.5c0.3-0.3,0.7-0.5,1.4-0.5h0.3c0.1,0,0.1,0,0.1,0.1v0.5
				c0,0.1,0,0.1-0.1,0.1h-0.2C156.4,125.9,156.2,126,156,126.2z"/>
			<path class="st2" d="M158.2,126.7c0,0,0-0.1,0-0.1l0.7-1.3c0-0.1,0.1-0.1,0.1-0.1h0.5c0,0,0.1,0,0.1,0c0,0,0,0.1,0,0.1l-0.8,1.3
				c0,0.1-0.1,0.1-0.1,0.1L158.2,126.7C158.3,126.8,158.3,126.8,158.2,126.7z M158.3,133.5v-5.8c0-0.1,0-0.1,0.1-0.1h0.6
				c0.1,0,0.1,0,0.1,0.1v5.8c0,0.1,0,0.1-0.1,0.1h-0.6C158.4,133.7,158.3,133.6,158.3,133.5z"/>
			<path class="st2" d="M161.3,133.3c-0.4-0.3-0.6-0.7-0.7-1.3c0-0.4-0.1-0.9-0.1-1.4c0-0.4,0-0.9,0.1-1.4c0.1-0.5,0.3-0.9,0.7-1.3
				c0.4-0.3,0.9-0.5,1.4-0.5c0.6,0,1,0.2,1.4,0.5s0.6,0.7,0.7,1.1l0,0.3v0c0,0,0,0.1,0,0.1c0,0,0,0-0.1,0l-0.6,0
				c-0.1,0-0.1,0-0.1-0.1c0-0.1,0-0.1,0-0.1c0-0.3-0.2-0.5-0.4-0.7c-0.2-0.2-0.5-0.3-0.9-0.3c-0.4,0-0.6,0.1-0.9,0.3
				c-0.2,0.2-0.4,0.5-0.4,0.8s-0.1,0.8-0.1,1.2c0,0.5,0,0.9,0.1,1.2c0,0.4,0.2,0.6,0.4,0.8c0.2,0.2,0.5,0.3,0.9,0.3
				c0.4,0,0.6-0.1,0.9-0.3c0.2-0.2,0.4-0.4,0.4-0.7l0-0.1c0-0.1,0.1-0.1,0.1-0.1l0.6,0c0.1,0,0.1,0.1,0.1,0.1v0c0,0,0,0.1,0,0.1
				c-0.1,0.5-0.3,0.9-0.7,1.2c-0.4,0.3-0.9,0.5-1.4,0.5C162.2,133.7,161.7,133.6,161.3,133.3z"/>
			<path class="st2" d="M166.3,126.3c-0.1-0.1-0.2-0.3-0.2-0.5c0-0.2,0.1-0.4,0.2-0.5s0.3-0.2,0.5-0.2c0.2,0,0.4,0.1,0.5,0.2
				s0.2,0.3,0.2,0.5c0,0.2-0.1,0.4-0.2,0.5s-0.3,0.2-0.5,0.2C166.6,126.5,166.4,126.4,166.3,126.3z M166.4,133.5v-5.8
				c0-0.1,0-0.1,0.1-0.1h0.6c0.1,0,0.1,0,0.1,0.1v5.8c0,0.1,0,0.1-0.1,0.1h-0.6C166.4,133.7,166.4,133.6,166.4,133.5z"/>
			<path class="st2" d="M169,133.5v-8.2c0-0.1,0-0.1,0.1-0.1h0.6c0.1,0,0.1,0,0.1,0.1v8.2c0,0.1,0,0.1-0.1,0.1h-0.6
				C169,133.7,169,133.6,169,133.5z"/>
		</g>
		<g class="st1">
			<path class="st2" d="M175.2,133.6l-1.7-5.8l0,0c0-0.1,0-0.1,0.1-0.1h0.7c0.1,0,0.1,0,0.1,0.1l1.3,4.7c0,0,0,0,0,0c0,0,0,0,0,0
				l1.3-4.7c0-0.1,0.1-0.1,0.1-0.1l0.7,0c0,0,0.1,0,0.1,0c0,0,0,0.1,0,0.1l-1.7,5.8c0,0.1-0.1,0.1-0.1,0.1h-0.7
				C175.2,133.7,175.2,133.6,175.2,133.6z"/>
		</g>
		<g class="st1">
			<path class="st2" d="M181.7,132.8c0.2-0.2,0.4-0.4,0.5-0.6c0-0.1,0.1-0.1,0.1-0.1l0.6,0.1c0,0,0.1,0,0.1,0.1c0,0,0,0.1,0,0.1
				c-0.1,0.4-0.4,0.8-0.7,1.1c-0.4,0.3-0.8,0.4-1.3,0.4c-0.6,0-1.1-0.2-1.4-0.5c-0.4-0.3-0.6-0.7-0.7-1.3c0-0.2-0.1-0.4-0.1-0.7
				c0-0.3,0-0.5,0-0.7s0-0.3,0-0.4c0-0.4,0-0.7,0-1c0.1-0.5,0.3-1,0.7-1.3s0.9-0.5,1.4-0.5c0.6,0,1.1,0.2,1.5,0.5
				c0.4,0.4,0.6,0.8,0.6,1.4c0,0.3,0,0.7,0,1.5c0,0.1,0,0.1-0.1,0.1h-3.3c0,0,0,0,0,0c0,0.2,0,0.5,0,0.8c0,0.3,0.2,0.6,0.4,0.8
				c0.2,0.2,0.5,0.3,0.9,0.3C181.2,133,181.5,132.9,181.7,132.8z M180,128.5c-0.2,0.2-0.4,0.5-0.4,0.8c0,0.3,0,0.6,0,0.8
				c0,0,0,0,0,0h2.5c0,0,0,0,0,0c0-0.2,0-0.5,0-0.8c0-0.3-0.2-0.6-0.4-0.8c-0.2-0.2-0.5-0.3-0.9-0.3
				C180.5,128.2,180.3,128.3,180,128.5z"/>
			<path class="st2" d="M187.4,127.7c0.1,0,0.1,0.1,0.1,0.1l-0.1,0.6c0,0.1-0.1,0.1-0.1,0.1c-0.1-0.1-0.3-0.1-0.4-0.1l-0.1,0
				c-0.4,0-0.6,0.2-0.9,0.5c-0.2,0.3-0.3,0.7-0.3,1.1v3.6c0,0.1,0,0.1-0.1,0.1h-0.6c-0.1,0-0.1,0-0.1-0.1v-5.8c0-0.1,0-0.1,0.1-0.1
				h0.6c0.1,0,0.1,0,0.1,0.1v0.8c0,0,0,0,0,0c0,0,0,0,0,0c0.1-0.3,0.3-0.5,0.5-0.7c0.2-0.2,0.5-0.3,0.8-0.3
				C187,127.5,187.2,127.6,187.4,127.7z"/>
			<path class="st2" d="M190.8,133.5v-8.2c0-0.1,0-0.1,0.1-0.1h0.6c0.1,0,0.1,0,0.1,0.1v8.2c0,0.1,0,0.1-0.1,0.1H191
				C190.9,133.7,190.8,133.6,190.8,133.5z"/>
			<path class="st2" d="M196.8,128c0.4,0.4,0.5,0.9,0.5,1.5v4c0,0.1,0,0.1-0.1,0.1h-0.6c-0.1,0-0.1,0-0.1-0.1v-0.4c0,0,0,0,0,0
				s0,0,0,0c-0.2,0.2-0.4,0.4-0.7,0.5c-0.3,0.1-0.6,0.2-0.9,0.2c-0.5,0-0.9-0.1-1.3-0.4c-0.4-0.3-0.5-0.7-0.5-1.3
				c0-0.6,0.2-1.1,0.6-1.5s1-0.5,1.7-0.5h1.1c0,0,0,0,0,0v-0.5c0-0.4-0.1-0.7-0.3-1c-0.2-0.2-0.5-0.4-0.9-0.4
				c-0.3,0-0.6,0.1-0.8,0.2c-0.2,0.2-0.3,0.4-0.4,0.6c0,0.1-0.1,0.1-0.1,0.1l-0.7,0c0,0-0.1,0-0.1,0c0,0,0-0.1,0-0.1
				c0.1-0.5,0.3-0.8,0.7-1.1c0.4-0.3,0.8-0.4,1.4-0.4C195.9,127.5,196.4,127.7,196.8,128z M196.1,132.7c0.3-0.2,0.4-0.5,0.4-0.9v-1
				c0,0,0,0,0,0h-1.1c-0.5,0-0.8,0.1-1.1,0.3c-0.3,0.2-0.4,0.5-0.4,0.9c0,0.4,0.1,0.6,0.3,0.8c0.2,0.2,0.5,0.3,0.8,0.3
				C195.4,133,195.8,132.9,196.1,132.7z"/>
			<path class="st2" d="M201.6,133.3c-0.4-0.3-0.6-0.7-0.6-1.1V132c0-0.1,0-0.1,0.1-0.1h0.6c0.1,0,0.1,0,0.1,0.1v0.1
				c0,0.3,0.1,0.5,0.3,0.7c0.2,0.2,0.5,0.3,0.9,0.3c0.4,0,0.6-0.1,0.9-0.3c0.2-0.2,0.3-0.4,0.3-0.7c0-0.2-0.1-0.4-0.2-0.5
				c-0.1-0.1-0.3-0.2-0.4-0.3c-0.2-0.1-0.4-0.2-0.7-0.3c-0.4-0.1-0.7-0.3-0.9-0.4c-0.2-0.1-0.5-0.3-0.6-0.5
				c-0.2-0.2-0.3-0.5-0.3-0.9c0-0.5,0.2-0.9,0.5-1.2c0.4-0.3,0.8-0.5,1.4-0.5c0.6,0,1.1,0.2,1.5,0.5c0.4,0.3,0.5,0.7,0.5,1.2v0
				c0,0.1,0,0.1-0.1,0.1h-0.6c-0.1,0-0.1,0-0.1-0.1v0c0-0.3-0.1-0.5-0.3-0.7c-0.2-0.2-0.5-0.3-0.9-0.3c-0.3,0-0.6,0.1-0.8,0.3
				s-0.3,0.4-0.3,0.7c0,0.3,0.1,0.5,0.3,0.6s0.5,0.3,1,0.5c0.4,0.1,0.7,0.3,1,0.4s0.5,0.3,0.7,0.5c0.2,0.2,0.3,0.5,0.3,0.9
				c0,0.5-0.2,0.9-0.6,1.2c-0.4,0.3-0.9,0.5-1.5,0.5S202,133.6,201.6,133.3z"/>
			<path class="st2" d="M206.5,126.3c-0.1-0.1-0.2-0.3-0.2-0.5c0-0.2,0.1-0.4,0.2-0.5s0.3-0.2,0.5-0.2c0.2,0,0.4,0.1,0.5,0.2
				s0.2,0.3,0.2,0.5c0,0.2-0.1,0.4-0.2,0.5s-0.3,0.2-0.5,0.2C206.8,126.5,206.6,126.4,206.5,126.3z M206.5,133.5v-5.8
				c0-0.1,0-0.1,0.1-0.1h0.6c0.1,0,0.1,0,0.1,0.1v5.8c0,0.1,0,0.1-0.1,0.1h-0.6C206.6,133.7,206.5,133.6,206.5,133.5z"/>
			<path class="st2" d="M216,128c0.3,0.4,0.5,0.8,0.5,1.5v4c0,0.1,0,0.1-0.1,0.1h-0.6c-0.1,0-0.1,0-0.1-0.1v-3.9
				c0-0.4-0.1-0.8-0.3-1s-0.5-0.4-0.8-0.4c-0.4,0-0.6,0.1-0.9,0.4c-0.2,0.2-0.3,0.6-0.3,1v3.9c0,0.1,0,0.1-0.1,0.1h-0.6
				c-0.1,0-0.1,0-0.1-0.1v-3.9c0-0.4-0.1-0.8-0.3-1s-0.5-0.4-0.8-0.4c-0.4,0-0.6,0.1-0.9,0.4c-0.2,0.2-0.3,0.6-0.3,1v3.9
				c0,0.1,0,0.1-0.1,0.1h-0.6c-0.1,0-0.1,0-0.1-0.1v-5.8c0-0.1,0-0.1,0.1-0.1h0.6c0.1,0,0.1,0,0.1,0.1v0.4c0,0,0,0,0,0c0,0,0,0,0,0
				c0.2-0.2,0.4-0.4,0.6-0.5c0.2-0.1,0.5-0.2,0.8-0.2c0.4,0,0.7,0.1,0.9,0.2c0.3,0.2,0.5,0.4,0.6,0.7c0,0,0,0,0.1,0
				c0.2-0.3,0.4-0.5,0.7-0.7c0.3-0.1,0.6-0.2,0.9-0.2C215.3,127.5,215.7,127.7,216,128z"/>
			<path class="st2" d="M218.1,126.3c-0.1-0.1-0.2-0.3-0.2-0.5c0-0.2,0.1-0.4,0.2-0.5s0.3-0.2,0.5-0.2c0.2,0,0.4,0.1,0.5,0.2
				s0.2,0.3,0.2,0.5c0,0.2-0.1,0.4-0.2,0.5s-0.3,0.2-0.5,0.2C218.4,126.5,218.2,126.4,218.1,126.3z M218.2,133.5v-5.8
				c0-0.1,0-0.1,0.1-0.1h0.6c0.1,0,0.1,0,0.1,0.1v5.8c0,0.1,0,0.1-0.1,0.1h-0.6C218.2,133.7,218.2,133.6,218.2,133.5z"/>
			<path class="st2" d="M220.8,133.5v-8.2c0-0.1,0-0.1,0.1-0.1h0.6c0.1,0,0.1,0,0.1,0.1v8.2c0,0.1,0,0.1-0.1,0.1h-0.6
				C220.8,133.7,220.8,133.6,220.8,133.5z"/>
			<path class="st2" d="M223.4,126.3c-0.1-0.1-0.2-0.3-0.2-0.5c0-0.2,0.1-0.4,0.2-0.5s0.3-0.2,0.5-0.2c0.2,0,0.4,0.1,0.5,0.2
				s0.2,0.3,0.2,0.5c0,0.2-0.1,0.4-0.2,0.5s-0.3,0.2-0.5,0.2C223.7,126.5,223.5,126.4,223.4,126.3z M223.4,133.5v-5.8
				c0-0.1,0-0.1,0.1-0.1h0.6c0.1,0,0.1,0,0.1,0.1v5.8c0,0.1,0,0.1-0.1,0.1h-0.6C223.5,133.7,223.4,133.6,223.4,133.5z"/>
			<path class="st2" d="M228.4,128.2h-1.1c0,0,0,0,0,0v3.6c0,0.4,0.1,0.6,0.2,0.8c0.1,0.1,0.4,0.2,0.7,0.2h0.2c0.1,0,0.1,0,0.1,0.1
				v0.5c0,0.1,0,0.1-0.1,0.1l-0.4,0c-0.5,0-0.9-0.1-1.2-0.3c-0.3-0.2-0.4-0.6-0.4-1.2v-3.9c0,0,0,0,0,0h-0.6c-0.1,0-0.1,0-0.1-0.1
				v-0.4c0-0.1,0-0.1,0.1-0.1h0.6c0,0,0,0,0,0v-1.4c0-0.1,0-0.1,0.1-0.1h0.6c0.1,0,0.1,0,0.1,0.1v1.4c0,0,0,0,0,0h1.1
				c0.1,0,0.1,0,0.1,0.1v0.4C228.5,128.2,228.5,128.2,228.4,128.2z"/>
			<path class="st2" d="M233.2,127.6h0.6c0.1,0,0.1,0,0.1,0.1v5.8c0,0.1,0,0.1-0.1,0.1h-0.6c-0.1,0-0.1,0-0.1-0.1v-0.5c0,0,0,0,0,0
				s0,0,0,0c-0.3,0.5-0.7,0.7-1.4,0.7c-0.5,0-1-0.2-1.3-0.5c-0.3-0.3-0.5-0.8-0.5-1.4v-4.2c0-0.1,0-0.1,0.1-0.1h0.6
				c0.1,0,0.1,0,0.1,0.1v3.9c0,0.4,0.1,0.8,0.3,1c0.2,0.2,0.5,0.4,0.9,0.4c0.4,0,0.7-0.1,0.9-0.4c0.2-0.3,0.3-0.6,0.3-1v-3.9
				C233.1,127.6,233.1,127.6,233.2,127.6z"/>
			<path class="st2" d="M239,125.2h0.6c0.1,0,0.1,0,0.1,0.1v8.2c0,0.1,0,0.1-0.1,0.1H239c-0.1,0-0.1,0-0.1-0.1v-0.5c0,0,0,0,0,0
				c0,0,0,0,0,0c-0.3,0.5-0.8,0.7-1.4,0.7c-0.5,0-0.9-0.1-1.2-0.4c-0.3-0.3-0.5-0.7-0.7-1.3c-0.1-0.4-0.2-0.9-0.2-1.4
				c0-0.6,0-1,0.1-1.4c0.1-0.6,0.3-1,0.7-1.3c0.3-0.3,0.8-0.4,1.3-0.4c0.3,0,0.6,0.1,0.8,0.2c0.2,0.1,0.4,0.3,0.5,0.5c0,0,0,0,0,0
				c0,0,0,0,0,0v-2.8C238.9,125.3,239,125.2,239,125.2z M238.9,130.6c0-0.7-0.1-1.2-0.2-1.5c-0.1-0.3-0.2-0.5-0.4-0.6
				s-0.4-0.2-0.7-0.2c-0.5,0-0.9,0.3-1.1,0.8c-0.2,0.4-0.2,0.9-0.2,1.6c0,0.6,0.1,1.1,0.2,1.5c0.1,0.3,0.2,0.5,0.4,0.7
				c0.2,0.2,0.4,0.2,0.7,0.2c0.3,0,0.5-0.1,0.7-0.2c0.2-0.2,0.3-0.4,0.4-0.7C238.8,131.8,238.9,131.3,238.9,130.6z"/>
			<path class="st2" d="M246.7,132.8c0.2-0.2,0.4-0.4,0.5-0.6c0-0.1,0.1-0.1,0.1-0.1l0.6,0.1c0,0,0.1,0,0.1,0.1c0,0,0,0.1,0,0.1
				c-0.1,0.4-0.4,0.8-0.7,1.1c-0.4,0.3-0.8,0.4-1.3,0.4c-0.6,0-1.1-0.2-1.4-0.5c-0.4-0.3-0.6-0.7-0.7-1.3c0-0.2-0.1-0.4-0.1-0.7
				c0-0.3,0-0.5,0-0.7s0-0.3,0-0.4c0-0.4,0-0.7,0-1c0.1-0.5,0.3-1,0.7-1.3s0.9-0.5,1.4-0.5c0.6,0,1.1,0.2,1.5,0.5
				c0.4,0.4,0.6,0.8,0.6,1.4c0,0.3,0,0.7,0,1.5c0,0.1,0,0.1-0.1,0.1h-3.3c0,0,0,0,0,0c0,0.2,0,0.5,0,0.8c0,0.3,0.2,0.6,0.4,0.8
				c0.2,0.2,0.5,0.3,0.9,0.3C246.2,133,246.5,132.9,246.7,132.8z M245,128.5c-0.2,0.2-0.4,0.5-0.4,0.8c0,0.3,0,0.6,0,0.8
				c0,0,0,0,0,0h2.5c0,0,0,0,0,0c0-0.2,0-0.5,0-0.8c0-0.3-0.2-0.6-0.4-0.8c-0.2-0.2-0.5-0.3-0.9-0.3
				C245.5,128.2,245.2,128.3,245,128.5z"/>
			<path class="st2" d="M253.2,128c0.3,0.4,0.5,0.8,0.5,1.5v4c0,0.1,0,0.1-0.1,0.1h-0.6c-0.1,0-0.1,0-0.1-0.1v-3.9
				c0-0.4-0.1-0.7-0.3-1s-0.5-0.4-0.9-0.4s-0.7,0.1-0.9,0.4c-0.2,0.3-0.3,0.6-0.3,1v3.9c0,0.1,0,0.1-0.1,0.1h-0.6
				c-0.1,0-0.1,0-0.1-0.1v-5.8c0-0.1,0-0.1,0.1-0.1h0.6c0.1,0,0.1,0,0.1,0.1v0.5c0,0,0,0,0,0c0,0,0,0,0,0c0.3-0.5,0.8-0.7,1.4-0.7
				C252.4,127.5,252.8,127.7,253.2,128z"/>
			<path class="st2" d="M257.6,133.5v-8.2c0-0.1,0-0.1,0.1-0.1h0.6c0.1,0,0.1,0,0.1,0.1v8.2c0,0.1,0,0.1-0.1,0.1h-0.6
				C257.7,133.7,257.6,133.6,257.6,133.5z"/>
			<path class="st2" d="M263.6,128c0.4,0.4,0.5,0.9,0.5,1.5v4c0,0.1,0,0.1-0.1,0.1h-0.6c-0.1,0-0.1,0-0.1-0.1v-0.4c0,0,0,0,0,0
				s0,0,0,0c-0.2,0.2-0.4,0.4-0.7,0.5c-0.3,0.1-0.6,0.2-0.9,0.2c-0.5,0-0.9-0.1-1.3-0.4c-0.4-0.3-0.5-0.7-0.5-1.3
				c0-0.6,0.2-1.1,0.6-1.5s1-0.5,1.7-0.5h1.1c0,0,0,0,0,0v-0.5c0-0.4-0.1-0.7-0.3-1c-0.2-0.2-0.5-0.4-0.9-0.4
				c-0.3,0-0.6,0.1-0.8,0.2c-0.2,0.2-0.3,0.4-0.4,0.6c0,0.1-0.1,0.1-0.1,0.1l-0.7,0c0,0-0.1,0-0.1,0c0,0,0-0.1,0-0.1
				c0.1-0.5,0.3-0.8,0.7-1.1c0.4-0.3,0.8-0.4,1.4-0.4C262.7,127.5,263.2,127.7,263.6,128z M262.8,132.7c0.3-0.2,0.4-0.5,0.4-0.9v-1
				c0,0,0,0,0,0h-1.1c-0.5,0-0.8,0.1-1.1,0.3c-0.3,0.2-0.4,0.5-0.4,0.9c0,0.4,0.1,0.6,0.3,0.8c0.2,0.2,0.5,0.3,0.8,0.3
				C262.2,133,262.6,132.9,262.8,132.7z"/>
		</g>
		<g class="st1">
			<path class="st2" d="M58.2,147.2c0.2-0.2,0.4-0.4,0.5-0.6c0-0.1,0.1-0.1,0.1-0.1l0.6,0.1c0,0,0.1,0,0.1,0.1c0,0,0,0.1,0,0.1
				c-0.1,0.4-0.4,0.8-0.7,1.1s-0.8,0.4-1.3,0.4c-0.6,0-1.1-0.2-1.4-0.5c-0.4-0.3-0.6-0.7-0.7-1.3c0-0.2-0.1-0.4-0.1-0.7
				c0-0.3,0-0.5,0-0.7s0-0.3,0-0.4c0-0.4,0-0.7,0-1c0.1-0.5,0.3-1,0.7-1.3c0.4-0.3,0.9-0.5,1.4-0.5c0.6,0,1.1,0.2,1.5,0.5
				c0.4,0.4,0.6,0.8,0.6,1.4c0,0.3,0,0.7,0,1.5c0,0.1,0,0.1-0.1,0.1h-3.3c0,0,0,0,0,0c0,0.2,0,0.5,0,0.8c0,0.3,0.2,0.6,0.4,0.8
				s0.5,0.3,0.9,0.3C57.7,147.4,58,147.3,58.2,147.2z M56.5,142.9c-0.2,0.2-0.4,0.5-0.4,0.8c0,0.3,0,0.6,0,0.8c0,0,0,0,0,0h2.5
				c0,0,0,0,0,0c0-0.2,0-0.5,0-0.8c0-0.3-0.2-0.6-0.4-0.8c-0.2-0.2-0.5-0.3-0.9-0.3C57,142.6,56.7,142.7,56.5,142.9z"/>
		</g>
		<g class="st1">
			<path class="st2" d="M61.2,147.7c-0.4-0.3-0.6-0.7-0.6-1.1v-0.1c0-0.1,0-0.1,0.1-0.1h0.6c0.1,0,0.1,0,0.1,0.1v0.1
				c0,0.3,0.1,0.5,0.3,0.7c0.2,0.2,0.5,0.3,0.9,0.3c0.4,0,0.6-0.1,0.9-0.3c0.2-0.2,0.3-0.4,0.3-0.7c0-0.2-0.1-0.4-0.2-0.5
				c-0.1-0.1-0.3-0.2-0.4-0.3c-0.2-0.1-0.4-0.2-0.7-0.3c-0.4-0.1-0.7-0.3-0.9-0.4c-0.2-0.1-0.5-0.3-0.6-0.5
				c-0.2-0.2-0.3-0.5-0.3-0.9c0-0.5,0.2-0.9,0.5-1.2c0.4-0.3,0.8-0.5,1.4-0.5c0.6,0,1.1,0.2,1.5,0.5c0.4,0.3,0.5,0.7,0.5,1.2v0
				c0,0.1,0,0.1-0.1,0.1H64c-0.1,0-0.1,0-0.1-0.1v0c0-0.3-0.1-0.5-0.3-0.7c-0.2-0.2-0.5-0.3-0.9-0.3c-0.3,0-0.6,0.1-0.8,0.3
				s-0.3,0.4-0.3,0.7c0,0.3,0.1,0.5,0.3,0.6s0.5,0.3,1,0.5c0.4,0.1,0.7,0.3,1,0.4s0.5,0.3,0.7,0.5c0.2,0.2,0.3,0.5,0.3,0.9
				c0,0.5-0.2,0.9-0.6,1.2c-0.4,0.3-0.9,0.5-1.5,0.5S61.6,148,61.2,147.7z"/>
			<path class="st2" d="M68.4,142.6h-1.1c0,0,0,0,0,0v3.6c0,0.4,0.1,0.6,0.2,0.8c0.1,0.1,0.4,0.2,0.7,0.2h0.2c0.1,0,0.1,0,0.1,0.1
				v0.5c0,0.1,0,0.1-0.1,0.1l-0.4,0c-0.5,0-0.9-0.1-1.2-0.3s-0.4-0.6-0.4-1.2v-3.9c0,0,0,0,0,0h-0.6c-0.1,0-0.1,0-0.1-0.1v-0.4
				c0-0.1,0-0.1,0.1-0.1h0.6c0,0,0,0,0,0v-1.4c0-0.1,0-0.1,0.1-0.1h0.6c0.1,0,0.1,0,0.1,0.1v1.4c0,0,0,0,0,0h1.1
				c0.1,0,0.1,0,0.1,0.1v0.4C68.5,142.6,68.5,142.6,68.4,142.6z"/>
			<path class="st2" d="M72.7,142.1c0.1,0,0.1,0.1,0.1,0.1l-0.1,0.6c0,0.1-0.1,0.1-0.1,0.1c-0.1-0.1-0.3-0.1-0.4-0.1l-0.1,0
				c-0.4,0-0.6,0.2-0.9,0.5s-0.3,0.7-0.3,1.1v3.6c0,0.1,0,0.1-0.1,0.1H70c-0.1,0-0.1,0-0.1-0.1v-5.8c0-0.1,0-0.1,0.1-0.1h0.6
				c0.1,0,0.1,0,0.1,0.1v0.8c0,0,0,0,0,0c0,0,0,0,0,0c0.1-0.3,0.3-0.5,0.5-0.7s0.5-0.3,0.8-0.3C72.4,141.9,72.6,142,72.7,142.1z"/>
			<path class="st2" d="M77.2,142h0.6c0.1,0,0.1,0,0.1,0.1v5.8c0,0.1,0,0.1-0.1,0.1h-0.6c-0.1,0-0.1,0-0.1-0.1v-0.5c0,0,0,0,0,0
				c0,0,0,0,0,0c-0.3,0.5-0.7,0.7-1.4,0.7c-0.5,0-1-0.2-1.3-0.5c-0.3-0.3-0.5-0.8-0.5-1.4v-4.2c0-0.1,0-0.1,0.1-0.1h0.6
				c0.1,0,0.1,0,0.1,0.1v3.9c0,0.4,0.1,0.8,0.3,1c0.2,0.2,0.5,0.4,0.9,0.4c0.4,0,0.7-0.1,0.9-0.4s0.3-0.6,0.3-1v-3.9
				C77,142,77.1,142,77.2,142z"/>
		</g>
		<g class="st1">
			<path class="st2" d="M80.2,147.7c-0.4-0.3-0.6-0.7-0.7-1.3c0-0.4-0.1-0.9-0.1-1.4c0-0.4,0-0.9,0.1-1.4c0.1-0.5,0.3-0.9,0.7-1.3
				c0.4-0.3,0.9-0.5,1.4-0.5c0.6,0,1,0.2,1.4,0.5c0.4,0.3,0.6,0.7,0.7,1.1l0,0.3v0c0,0,0,0.1,0,0.1c0,0,0,0-0.1,0l-0.6,0
				c-0.1,0-0.1,0-0.1-0.1c0-0.1,0-0.1,0-0.1c0-0.3-0.2-0.5-0.4-0.7s-0.5-0.3-0.9-0.3c-0.4,0-0.6,0.1-0.9,0.3
				c-0.2,0.2-0.4,0.5-0.4,0.8c0,0.3-0.1,0.8-0.1,1.2c0,0.5,0,0.9,0.1,1.2c0,0.4,0.2,0.6,0.4,0.8s0.5,0.3,0.9,0.3
				c0.4,0,0.6-0.1,0.9-0.3c0.2-0.2,0.4-0.4,0.4-0.7l0-0.1c0-0.1,0.1-0.1,0.1-0.1l0.6,0c0.1,0,0.1,0.1,0.1,0.1v0c0,0,0,0.1,0,0.1
				c-0.1,0.5-0.3,0.9-0.7,1.2c-0.4,0.3-0.9,0.5-1.4,0.5C81,148.1,80.5,148,80.2,147.7z"/>
		</g>
		<g class="st1">
			<path class="st2" d="M87.4,142.6h-1.1c0,0,0,0,0,0v3.6c0,0.4,0.1,0.6,0.2,0.8c0.1,0.1,0.4,0.2,0.7,0.2h0.2c0.1,0,0.1,0,0.1,0.1
				v0.5c0,0.1,0,0.1-0.1,0.1l-0.4,0c-0.5,0-0.9-0.1-1.2-0.3s-0.4-0.6-0.4-1.2v-3.9c0,0,0,0,0,0h-0.6c-0.1,0-0.1,0-0.1-0.1v-0.4
				c0-0.1,0-0.1,0.1-0.1h0.6c0,0,0,0,0,0v-1.4c0-0.1,0-0.1,0.1-0.1h0.6c0.1,0,0.1,0,0.1,0.1v1.4c0,0,0,0,0,0h1.1
				c0.1,0,0.1,0,0.1,0.1v0.4C87.5,142.6,87.5,142.6,87.4,142.6z"/>
			<path class="st2" d="M92.2,142h0.6c0.1,0,0.1,0,0.1,0.1v5.8c0,0.1,0,0.1-0.1,0.1h-0.6c-0.1,0-0.1,0-0.1-0.1v-0.5c0,0,0,0,0,0
				c0,0,0,0,0,0c-0.3,0.5-0.7,0.7-1.4,0.7c-0.5,0-1-0.2-1.3-0.5c-0.3-0.3-0.5-0.8-0.5-1.4v-4.2c0-0.1,0-0.1,0.1-0.1h0.6
				c0.1,0,0.1,0,0.1,0.1v3.9c0,0.4,0.1,0.8,0.3,1c0.2,0.2,0.5,0.4,0.9,0.4c0.4,0,0.7-0.1,0.9-0.4s0.3-0.6,0.3-1v-3.9
				C92.1,142,92.1,142,92.2,142z"/>
		</g>
		<g class="st1">
			<path class="st2" d="M97.5,142.1c0.1,0,0.1,0.1,0.1,0.1l-0.1,0.6c0,0.1-0.1,0.1-0.1,0.1c-0.1-0.1-0.3-0.1-0.4-0.1l-0.1,0
				c-0.4,0-0.6,0.2-0.9,0.5s-0.3,0.7-0.3,1.1v3.6c0,0.1,0,0.1-0.1,0.1h-0.6c-0.1,0-0.1,0-0.1-0.1v-5.8c0-0.1,0-0.1,0.1-0.1h0.6
				c0.1,0,0.1,0,0.1,0.1v0.8c0,0,0,0,0,0c0,0,0,0,0,0c0.1-0.3,0.3-0.5,0.5-0.7s0.5-0.3,0.8-0.3C97.1,141.9,97.3,142,97.5,142.1z"/>
		</g>
		<g class="st1">
			<path class="st2" d="M102,142.4c0.4,0.4,0.5,0.9,0.5,1.5v4c0,0.1,0,0.1-0.1,0.1h-0.6c-0.1,0-0.1,0-0.1-0.1v-0.4c0,0,0,0,0,0
				c0,0,0,0,0,0c-0.2,0.2-0.4,0.4-0.7,0.5c-0.3,0.1-0.6,0.2-0.9,0.2c-0.5,0-0.9-0.1-1.3-0.4c-0.4-0.3-0.5-0.7-0.5-1.3
				c0-0.6,0.2-1.1,0.6-1.5s1-0.5,1.7-0.5h1.1c0,0,0,0,0,0v-0.5c0-0.4-0.1-0.7-0.3-1c-0.2-0.2-0.5-0.4-0.9-0.4
				c-0.3,0-0.6,0.1-0.8,0.2c-0.2,0.2-0.3,0.4-0.4,0.6c0,0.1-0.1,0.1-0.1,0.1l-0.7,0c0,0-0.1,0-0.1,0c0,0,0-0.1,0-0.1
				c0.1-0.5,0.3-0.8,0.7-1.1c0.4-0.3,0.9-0.4,1.4-0.4C101.1,141.9,101.6,142.1,102,142.4z M101.3,147.1c0.3-0.2,0.4-0.5,0.4-0.9v-1
				c0,0,0,0,0,0h-1.1c-0.5,0-0.8,0.1-1.1,0.3s-0.4,0.5-0.4,0.9c0,0.4,0.1,0.6,0.3,0.8c0.2,0.2,0.5,0.3,0.8,0.3
				C100.6,147.4,101,147.3,101.3,147.1z"/>
			<path class="st2" d="M110.9,145c0,0.5,0,1-0.1,1.4c-0.1,0.6-0.4,1-0.7,1.3c-0.3,0.3-0.8,0.4-1.3,0.4c-0.3,0-0.6-0.1-0.8-0.2
				c-0.2-0.1-0.4-0.3-0.5-0.5c0,0,0,0,0,0c0,0,0,0,0,0v2.8c0,0.1,0,0.1-0.1,0.1h-0.6c-0.1,0-0.1,0-0.1-0.1v-8.2c0-0.1,0-0.1,0.1-0.1
				h0.6c0.1,0,0.1,0,0.1,0.1v0.5c0,0,0,0,0,0s0,0,0,0c0.3-0.5,0.7-0.7,1.4-0.7c0.5,0,0.9,0.1,1.2,0.4c0.3,0.3,0.5,0.7,0.7,1.3
				C110.8,144,110.9,144.5,110.9,145z M110,145c0-0.6-0.1-1.1-0.2-1.5c-0.1-0.3-0.2-0.5-0.4-0.7s-0.4-0.2-0.7-0.2
				c-0.3,0-0.5,0.1-0.7,0.2c-0.2,0.2-0.3,0.4-0.4,0.7c-0.1,0.4-0.2,0.9-0.2,1.5c0,0.7,0.1,1.2,0.2,1.5c0.1,0.3,0.2,0.5,0.4,0.6
				c0.2,0.1,0.4,0.2,0.6,0.2c0.5,0,0.9-0.3,1.1-0.8C110,146.2,110,145.7,110,145z"/>
		</g>
		<g class="st1">
			<path class="st2" d="M115.2,142.1c0.1,0,0.1,0.1,0.1,0.1l-0.1,0.6c0,0.1-0.1,0.1-0.1,0.1c-0.1-0.1-0.3-0.1-0.4-0.1l-0.1,0
				c-0.4,0-0.6,0.2-0.9,0.5s-0.3,0.7-0.3,1.1v3.6c0,0.1,0,0.1-0.1,0.1h-0.6c-0.1,0-0.1,0-0.1-0.1v-5.8c0-0.1,0-0.1,0.1-0.1h0.6
				c0.1,0,0.1,0,0.1,0.1v0.8c0,0,0,0,0,0c0,0,0,0,0,0c0.1-0.3,0.3-0.5,0.5-0.7s0.5-0.3,0.8-0.3C114.9,141.9,115.1,142,115.2,142.1z"
				/>
		</g>
		<g class="st1">
			<path class="st2" d="M116.9,147.7c-0.4-0.3-0.6-0.7-0.7-1.3c0-0.4-0.1-0.9-0.1-1.4s0-1,0.1-1.4c0.1-0.5,0.3-1,0.7-1.3
				c0.4-0.3,0.9-0.5,1.4-0.5s1.1,0.2,1.4,0.5c0.4,0.3,0.6,0.7,0.7,1.3c0,0.3,0.1,0.8,0.1,1.4c0,0.6,0,1.1-0.1,1.4
				c-0.1,0.5-0.3,1-0.7,1.3c-0.4,0.3-0.9,0.5-1.4,0.5S117.2,148,116.9,147.7z M119.2,147.1c0.2-0.2,0.4-0.5,0.4-0.8
				c0-0.3,0-0.7,0-1.2c0-0.5,0-0.9,0-1.2c0-0.4-0.2-0.6-0.4-0.8c-0.2-0.2-0.5-0.3-0.9-0.3s-0.6,0.1-0.9,0.3
				c-0.2,0.2-0.4,0.5-0.4,0.8c0,0.3,0,0.7,0,1.2s0,0.9,0,1.2c0,0.4,0.2,0.6,0.4,0.8c0.2,0.2,0.5,0.3,0.9,0.3
				C118.6,147.4,118.9,147.3,119.2,147.1z"/>
		</g>
		<g class="st1">
			<path class="st2" d="M123.4,140.6c-0.1,0.2-0.2,0.5-0.2,1v0.3c0,0,0,0,0,0h1.1c0.1,0,0.1,0,0.1,0.1v0.5c0,0.1,0,0.1-0.1,0.1h-1.1
				c0,0,0,0,0,0v5.2c0,0.1,0,0.1-0.1,0.1h-0.6c-0.1,0-0.1,0-0.1-0.1v-5.2c0,0,0,0,0,0h-0.6c-0.1,0-0.1,0-0.1-0.1v-0.5
				c0-0.1,0-0.1,0.1-0.1h0.6c0,0,0,0,0,0v-0.3c0-0.7,0.1-1.2,0.4-1.5c0.3-0.3,0.7-0.5,1.4-0.5h0.3c0.1,0,0.1,0,0.1,0.1v0.5
				c0,0.1,0,0.1-0.1,0.1h-0.2C123.8,140.3,123.5,140.4,123.4,140.6z"/>
			<path class="st2" d="M129.1,142h0.6c0.1,0,0.1,0,0.1,0.1v5.8c0,0.1,0,0.1-0.1,0.1h-0.6c-0.1,0-0.1,0-0.1-0.1v-0.5c0,0,0,0,0,0
				c0,0,0,0,0,0c-0.3,0.5-0.7,0.7-1.4,0.7c-0.5,0-1-0.2-1.3-0.5c-0.3-0.3-0.5-0.8-0.5-1.4v-4.2c0-0.1,0-0.1,0.1-0.1h0.6
				c0.1,0,0.1,0,0.1,0.1v3.9c0,0.4,0.1,0.8,0.3,1c0.2,0.2,0.5,0.4,0.9,0.4c0.4,0,0.7-0.1,0.9-0.4s0.3-0.6,0.3-1v-3.9
				C129,142,129.1,142,129.1,142z"/>
		</g>
		<g class="st1">
			<path class="st2" d="M135.2,142.4c0.3,0.4,0.5,0.8,0.5,1.5v4c0,0.1,0,0.1-0.1,0.1H135c-0.1,0-0.1,0-0.1-0.1V144
				c0-0.4-0.1-0.7-0.3-1c-0.2-0.2-0.5-0.4-0.9-0.4s-0.7,0.1-0.9,0.4s-0.3,0.6-0.3,1v3.9c0,0.1,0,0.1-0.1,0.1h-0.6
				c-0.1,0-0.1,0-0.1-0.1v-5.8c0-0.1,0-0.1,0.1-0.1h0.6c0.1,0,0.1,0,0.1,0.1v0.5c0,0,0,0,0,0c0,0,0,0,0,0c0.3-0.5,0.8-0.7,1.4-0.7
				C134.5,141.9,134.9,142.1,135.2,142.4z"/>
		</g>
		<g class="st1">
			<path class="st2" d="M140.7,139.6h0.6c0.1,0,0.1,0,0.1,0.1v8.2c0,0.1,0,0.1-0.1,0.1h-0.6c-0.1,0-0.1,0-0.1-0.1v-0.5c0,0,0,0,0,0
				c0,0,0,0,0,0c-0.3,0.5-0.8,0.7-1.4,0.7c-0.5,0-0.9-0.1-1.2-0.4c-0.3-0.3-0.5-0.7-0.7-1.3c-0.1-0.4-0.2-0.9-0.2-1.4
				c0-0.6,0-1,0.1-1.4c0.1-0.6,0.3-1,0.7-1.3c0.3-0.3,0.8-0.4,1.3-0.4c0.3,0,0.6,0.1,0.8,0.2c0.2,0.1,0.4,0.3,0.5,0.5c0,0,0,0,0,0
				s0,0,0,0v-2.8C140.6,139.7,140.6,139.6,140.7,139.6z M140.5,145c0-0.7-0.1-1.2-0.2-1.5c-0.1-0.3-0.2-0.5-0.4-0.6
				s-0.4-0.2-0.7-0.2c-0.5,0-0.9,0.3-1.1,0.8c-0.2,0.4-0.2,0.9-0.2,1.6c0,0.6,0.1,1.1,0.2,1.5c0.1,0.3,0.2,0.5,0.4,0.7
				c0.2,0.2,0.4,0.2,0.7,0.2c0.3,0,0.5-0.1,0.7-0.2c0.2-0.2,0.3-0.4,0.4-0.7C140.5,146.2,140.5,145.7,140.5,145z"/>
			<path class="st2" d="M146.5,142.4c0.4,0.4,0.5,0.9,0.5,1.5v4c0,0.1,0,0.1-0.1,0.1h-0.6c-0.1,0-0.1,0-0.1-0.1v-0.4c0,0,0,0,0,0
				c0,0,0,0,0,0c-0.2,0.2-0.4,0.4-0.7,0.5c-0.3,0.1-0.6,0.2-0.9,0.2c-0.5,0-0.9-0.1-1.3-0.4c-0.4-0.3-0.5-0.7-0.5-1.3
				c0-0.6,0.2-1.1,0.6-1.5s1-0.5,1.7-0.5h1.1c0,0,0,0,0,0v-0.5c0-0.4-0.1-0.7-0.3-1c-0.2-0.2-0.5-0.4-0.9-0.4
				c-0.3,0-0.6,0.1-0.8,0.2c-0.2,0.2-0.3,0.4-0.4,0.6c0,0.1-0.1,0.1-0.1,0.1l-0.7,0c0,0-0.1,0-0.1,0c0,0,0-0.1,0-0.1
				c0.1-0.5,0.3-0.8,0.7-1.1c0.4-0.3,0.9-0.4,1.4-0.4C145.7,141.9,146.2,142.1,146.5,142.4z M145.8,147.1c0.3-0.2,0.4-0.5,0.4-0.9
				v-1c0,0,0,0,0,0h-1.1c-0.5,0-0.8,0.1-1.1,0.3s-0.4,0.5-0.4,0.9c0,0.4,0.1,0.6,0.3,0.8c0.2,0.2,0.5,0.3,0.8,0.3
				C145.2,147.4,145.5,147.3,145.8,147.1z"/>
			<path class="st2" d="M154.4,139.6h0.6c0.1,0,0.1,0,0.1,0.1v8.2c0,0.1,0,0.1-0.1,0.1h-0.6c-0.1,0-0.1,0-0.1-0.1v-0.5c0,0,0,0,0,0
				s0,0,0,0c-0.3,0.5-0.8,0.7-1.4,0.7c-0.5,0-0.9-0.1-1.2-0.4c-0.3-0.3-0.5-0.7-0.7-1.3c-0.1-0.4-0.2-0.9-0.2-1.4c0-0.6,0-1,0.1-1.4
				c0.1-0.6,0.3-1,0.7-1.3c0.3-0.3,0.8-0.4,1.3-0.4c0.3,0,0.6,0.1,0.8,0.2c0.2,0.1,0.4,0.3,0.5,0.5c0,0,0,0,0,0c0,0,0,0,0,0v-2.8
				C154.3,139.7,154.3,139.6,154.4,139.6z M154.3,145c0-0.7-0.1-1.2-0.2-1.5c-0.1-0.3-0.2-0.5-0.4-0.6s-0.4-0.2-0.7-0.2
				c-0.5,0-0.9,0.3-1.1,0.8c-0.2,0.4-0.2,0.9-0.2,1.6c0,0.6,0.1,1.1,0.2,1.5c0.1,0.3,0.2,0.5,0.4,0.7c0.2,0.2,0.4,0.2,0.7,0.2
				c0.3,0,0.5-0.1,0.7-0.2c0.2-0.2,0.3-0.4,0.4-0.7C154.2,146.2,154.3,145.7,154.3,145z"/>
			<path class="st2" d="M159.7,147.2c0.2-0.2,0.4-0.4,0.5-0.6c0-0.1,0.1-0.1,0.1-0.1l0.6,0.1c0,0,0.1,0,0.1,0.1c0,0,0,0.1,0,0.1
				c-0.1,0.4-0.4,0.8-0.7,1.1c-0.4,0.3-0.8,0.4-1.3,0.4c-0.6,0-1.1-0.2-1.4-0.5c-0.4-0.3-0.6-0.7-0.7-1.3c0-0.2-0.1-0.4-0.1-0.7
				c0-0.3,0-0.5,0-0.7s0-0.3,0-0.4c0-0.4,0-0.7,0-1c0.1-0.5,0.3-1,0.7-1.3c0.4-0.3,0.9-0.5,1.4-0.5c0.6,0,1.1,0.2,1.5,0.5
				c0.4,0.4,0.6,0.8,0.6,1.4c0,0.3,0,0.7,0,1.5c0,0.1,0,0.1-0.1,0.1h-3.3c0,0,0,0,0,0c0,0.2,0,0.5,0,0.8c0,0.3,0.2,0.6,0.4,0.8
				c0.2,0.2,0.5,0.3,0.9,0.3C159.2,147.4,159.5,147.3,159.7,147.2z M158,142.9c-0.2,0.2-0.4,0.5-0.4,0.8c0,0.3,0,0.6,0,0.8
				c0,0,0,0,0,0h2.5c0,0,0,0,0,0c0-0.2,0-0.5,0-0.8c0-0.3-0.2-0.6-0.4-0.8c-0.2-0.2-0.5-0.3-0.9-0.3
				C158.5,142.6,158.2,142.7,158,142.9z"/>
			<path class="st2" d="M168.3,139.6h0.6c0.1,0,0.1,0,0.1,0.1v8.2c0,0.1,0,0.1-0.1,0.1h-0.6c-0.1,0-0.1,0-0.1-0.1v-0.5c0,0,0,0,0,0
				s0,0,0,0c-0.3,0.5-0.8,0.7-1.4,0.7c-0.5,0-0.9-0.1-1.2-0.4c-0.3-0.3-0.5-0.7-0.7-1.3c-0.1-0.4-0.2-0.9-0.2-1.4c0-0.6,0-1,0.1-1.4
				c0.1-0.6,0.3-1,0.7-1.3c0.3-0.3,0.8-0.4,1.3-0.4c0.3,0,0.6,0.1,0.8,0.2c0.2,0.1,0.4,0.3,0.5,0.5c0,0,0,0,0,0c0,0,0,0,0,0v-2.8
				C168.2,139.7,168.2,139.6,168.3,139.6z M168.1,145c0-0.7-0.1-1.2-0.2-1.5c-0.1-0.3-0.2-0.5-0.4-0.6s-0.4-0.2-0.7-0.2
				c-0.5,0-0.9,0.3-1.1,0.8c-0.2,0.4-0.2,0.9-0.2,1.6c0,0.6,0.1,1.1,0.2,1.5c0.1,0.3,0.2,0.5,0.4,0.7c0.2,0.2,0.4,0.2,0.7,0.2
				c0.3,0,0.5-0.1,0.7-0.2c0.2-0.2,0.3-0.4,0.4-0.7C168.1,146.2,168.1,145.7,168.1,145z"/>
			<path class="st2" d="M170.8,140.7c-0.1-0.1-0.2-0.3-0.2-0.5c0-0.2,0.1-0.4,0.2-0.5s0.3-0.2,0.5-0.2c0.2,0,0.4,0.1,0.5,0.2
				s0.2,0.3,0.2,0.5c0,0.2-0.1,0.4-0.2,0.5s-0.3,0.2-0.5,0.2C171,140.9,170.9,140.8,170.8,140.7z M170.8,147.9v-5.8
				c0-0.1,0-0.1,0.1-0.1h0.6c0.1,0,0.1,0,0.1,0.1v5.8c0,0.1,0,0.1-0.1,0.1h-0.6C170.8,148,170.8,148,170.8,147.9z"/>
			<path class="st2" d="M173.8,147.7c-0.4-0.3-0.6-0.7-0.6-1.1v-0.1c0-0.1,0-0.1,0.1-0.1h0.6c0.1,0,0.1,0,0.1,0.1v0.1
				c0,0.3,0.1,0.5,0.3,0.7c0.2,0.2,0.5,0.3,0.9,0.3c0.4,0,0.6-0.1,0.9-0.3c0.2-0.2,0.3-0.4,0.3-0.7c0-0.2-0.1-0.4-0.2-0.5
				c-0.1-0.1-0.3-0.2-0.4-0.3c-0.2-0.1-0.4-0.2-0.7-0.3c-0.4-0.1-0.7-0.3-0.9-0.4s-0.5-0.3-0.6-0.5c-0.2-0.2-0.3-0.5-0.3-0.9
				c0-0.5,0.2-0.9,0.5-1.2c0.4-0.3,0.8-0.5,1.4-0.5c0.6,0,1.1,0.2,1.5,0.5c0.4,0.3,0.5,0.7,0.5,1.2v0c0,0.1,0,0.1-0.1,0.1h-0.6
				c-0.1,0-0.1,0-0.1-0.1v0c0-0.3-0.1-0.5-0.3-0.7s-0.5-0.3-0.9-0.3c-0.3,0-0.6,0.1-0.8,0.3s-0.3,0.4-0.3,0.7c0,0.3,0.1,0.5,0.3,0.6
				s0.5,0.3,1,0.5c0.4,0.1,0.7,0.3,1,0.4s0.5,0.3,0.7,0.5c0.2,0.2,0.3,0.5,0.3,0.9c0,0.5-0.2,0.9-0.6,1.2c-0.4,0.3-0.9,0.5-1.5,0.5
				S174.1,148,173.8,147.7z"/>
			<path class="st2" d="M180.9,142.6h-1.1c0,0,0,0,0,0v3.6c0,0.4,0.1,0.6,0.2,0.8c0.1,0.1,0.4,0.2,0.7,0.2h0.2c0.1,0,0.1,0,0.1,0.1
				v0.5c0,0.1,0,0.1-0.1,0.1l-0.4,0c-0.5,0-0.9-0.1-1.2-0.3c-0.3-0.2-0.4-0.6-0.4-1.2v-3.9c0,0,0,0,0,0h-0.6c-0.1,0-0.1,0-0.1-0.1
				v-0.4c0-0.1,0-0.1,0.1-0.1h0.6c0,0,0,0,0,0v-1.4c0-0.1,0-0.1,0.1-0.1h0.6c0.1,0,0.1,0,0.1,0.1v1.4c0,0,0,0,0,0h1.1
				c0.1,0,0.1,0,0.1,0.1v0.4C181,142.6,181,142.6,180.9,142.6z"/>
			<path class="st2" d="M182.5,140.7c-0.1-0.1-0.2-0.3-0.2-0.5c0-0.2,0.1-0.4,0.2-0.5s0.3-0.2,0.5-0.2c0.2,0,0.4,0.1,0.5,0.2
				s0.2,0.3,0.2,0.5c0,0.2-0.1,0.4-0.2,0.5s-0.3,0.2-0.5,0.2C182.7,140.9,182.6,140.8,182.5,140.7z M182.5,147.9v-5.8
				c0-0.1,0-0.1,0.1-0.1h0.6c0.1,0,0.1,0,0.1,0.1v5.8c0,0.1,0,0.1-0.1,0.1h-0.6C182.5,148,182.5,148,182.5,147.9z"/>
			<path class="st2" d="M188.8,142.4c0.3,0.4,0.5,0.8,0.5,1.5v4c0,0.1,0,0.1-0.1,0.1h-0.6c-0.1,0-0.1,0-0.1-0.1V144
				c0-0.4-0.1-0.7-0.3-1s-0.5-0.4-0.9-0.4s-0.7,0.1-0.9,0.4c-0.2,0.3-0.3,0.6-0.3,1v3.9c0,0.1,0,0.1-0.1,0.1h-0.6
				c-0.1,0-0.1,0-0.1-0.1v-5.8c0-0.1,0-0.1,0.1-0.1h0.6c0.1,0,0.1,0,0.1,0.1v0.5c0,0,0,0,0,0c0,0,0,0,0,0c0.3-0.5,0.8-0.7,1.4-0.7
				C188.1,141.9,188.5,142.1,188.8,142.4z"/>
		</g>
		<g class="st1">
			<path class="st2" d="M193.3,142.6h-1.1c0,0,0,0,0,0v3.6c0,0.4,0.1,0.6,0.2,0.8c0.1,0.1,0.4,0.2,0.7,0.2h0.2c0.1,0,0.1,0,0.1,0.1
				v0.5c0,0.1,0,0.1-0.1,0.1l-0.4,0c-0.5,0-0.9-0.1-1.2-0.3c-0.3-0.2-0.4-0.6-0.4-1.2v-3.9c0,0,0,0,0,0h-0.6c-0.1,0-0.1,0-0.1-0.1
				v-0.4c0-0.1,0-0.1,0.1-0.1h0.6c0,0,0,0,0,0v-1.4c0-0.1,0-0.1,0.1-0.1h0.6c0.1,0,0.1,0,0.1,0.1v1.4c0,0,0,0,0,0h1.1
				c0.1,0,0.1,0,0.1,0.1v0.4C193.4,142.6,193.4,142.6,193.3,142.6z"/>
		</g>
		<g class="st1">
			<path class="st2" d="M195.2,147.7c-0.4-0.3-0.6-0.7-0.7-1.3c0-0.4-0.1-0.9-0.1-1.4s0-1,0.1-1.4c0.1-0.5,0.3-1,0.7-1.3
				c0.4-0.3,0.9-0.5,1.4-0.5s1.1,0.2,1.4,0.5c0.4,0.3,0.6,0.7,0.7,1.3c0,0.3,0.1,0.8,0.1,1.4c0,0.6,0,1.1-0.1,1.4
				c-0.1,0.5-0.3,1-0.7,1.3s-0.9,0.5-1.4,0.5S195.6,148,195.2,147.7z M197.6,147.1c0.2-0.2,0.4-0.5,0.4-0.8c0-0.3,0-0.7,0-1.2
				c0-0.5,0-0.9,0-1.2c0-0.4-0.2-0.6-0.4-0.8c-0.2-0.2-0.5-0.3-0.9-0.3c-0.4,0-0.6,0.1-0.9,0.3c-0.2,0.2-0.4,0.5-0.4,0.8
				c0,0.3,0,0.7,0,1.2s0,0.9,0,1.2c0,0.4,0.2,0.6,0.4,0.8s0.5,0.3,0.9,0.3C197,147.4,197.3,147.3,197.6,147.1z"/>
			<path class="st2" d="M200.7,147.7c-0.4-0.3-0.6-0.7-0.6-1.1v-0.1c0-0.1,0-0.1,0.1-0.1h0.6c0.1,0,0.1,0,0.1,0.1v0.1
				c0,0.3,0.1,0.5,0.3,0.7c0.2,0.2,0.5,0.3,0.9,0.3c0.4,0,0.6-0.1,0.9-0.3c0.2-0.2,0.3-0.4,0.3-0.7c0-0.2-0.1-0.4-0.2-0.5
				c-0.1-0.1-0.3-0.2-0.4-0.3c-0.2-0.1-0.4-0.2-0.7-0.3c-0.4-0.1-0.7-0.3-0.9-0.4c-0.2-0.1-0.5-0.3-0.6-0.5
				c-0.2-0.2-0.3-0.5-0.3-0.9c0-0.5,0.2-0.9,0.5-1.2c0.4-0.3,0.8-0.5,1.4-0.5c0.6,0,1.1,0.2,1.5,0.5c0.4,0.3,0.5,0.7,0.5,1.2v0
				c0,0.1,0,0.1-0.1,0.1h-0.6c-0.1,0-0.1,0-0.1-0.1v0c0-0.3-0.1-0.5-0.3-0.7c-0.2-0.2-0.5-0.3-0.9-0.3c-0.3,0-0.6,0.1-0.8,0.3
				s-0.3,0.4-0.3,0.7c0,0.3,0.1,0.5,0.3,0.6s0.5,0.3,1,0.5c0.4,0.1,0.7,0.3,1,0.4s0.5,0.3,0.7,0.5c0.2,0.2,0.3,0.5,0.3,0.9
				c0,0.5-0.2,0.9-0.6,1.2c-0.4,0.3-0.9,0.5-1.5,0.5S201.1,148,200.7,147.7z"/>
			<path class="st2" d="M210.8,147.2c0.2-0.2,0.4-0.4,0.5-0.6c0-0.1,0.1-0.1,0.1-0.1l0.6,0.1c0,0,0.1,0,0.1,0.1c0,0,0,0.1,0,0.1
				c-0.1,0.4-0.4,0.8-0.7,1.1c-0.4,0.3-0.8,0.4-1.3,0.4c-0.6,0-1.1-0.2-1.4-0.5c-0.4-0.3-0.6-0.7-0.7-1.3c0-0.2-0.1-0.4-0.1-0.7
				c0-0.3,0-0.5,0-0.7s0-0.3,0-0.4c0-0.4,0-0.7,0-1c0.1-0.5,0.3-1,0.7-1.3s0.9-0.5,1.4-0.5c0.6,0,1.1,0.2,1.5,0.5
				c0.4,0.4,0.6,0.8,0.6,1.4c0,0.3,0,0.7,0,1.5c0,0.1,0,0.1-0.1,0.1h-3.3c0,0,0,0,0,0c0,0.2,0,0.5,0,0.8c0,0.3,0.2,0.6,0.4,0.8
				c0.2,0.2,0.5,0.3,0.9,0.3C210.3,147.4,210.6,147.3,210.8,147.2z M209.1,142.9c-0.2,0.2-0.4,0.5-0.4,0.8c0,0.3,0,0.6,0,0.8
				c0,0,0,0,0,0h2.5c0,0,0,0,0,0c0-0.2,0-0.5,0-0.8c0-0.3-0.2-0.6-0.4-0.8c-0.2-0.2-0.5-0.3-0.9-0.3
				C209.6,142.6,209.3,142.7,209.1,142.9z"/>
			<path class="st2" d="M212.4,150.4v-0.5c0-0.1,0-0.1,0.1-0.1c0.4,0,0.7-0.1,0.8-0.3c0.2-0.2,0.3-0.5,0.3-0.9l0-6.5
				c0-0.1,0-0.1,0.1-0.1h0.6c0.1,0,0.1,0,0.1,0.1v6.5c0,0.7-0.1,1.2-0.4,1.5c-0.3,0.3-0.8,0.5-1.5,0.5
				C212.4,150.5,212.4,150.5,212.4,150.4z M213.5,140.7c-0.1-0.1-0.2-0.3-0.2-0.5c0-0.2,0.1-0.4,0.2-0.5c0.1-0.1,0.3-0.2,0.5-0.2
				s0.4,0.1,0.5,0.2c0.1,0.1,0.2,0.3,0.2,0.5c0,0.2-0.1,0.4-0.2,0.5c-0.1,0.1-0.3,0.2-0.5,0.2S213.7,140.8,213.5,140.7z"/>
			<path class="st2" d="M219.1,147.2c0.2-0.2,0.4-0.4,0.5-0.6c0-0.1,0.1-0.1,0.1-0.1l0.6,0.1c0,0,0.1,0,0.1,0.1c0,0,0,0.1,0,0.1
				c-0.1,0.4-0.4,0.8-0.7,1.1c-0.4,0.3-0.8,0.4-1.3,0.4c-0.6,0-1.1-0.2-1.4-0.5c-0.4-0.3-0.6-0.7-0.7-1.3c0-0.2-0.1-0.4-0.1-0.7
				c0-0.3,0-0.5,0-0.7s0-0.3,0-0.4c0-0.4,0-0.7,0-1c0.1-0.5,0.3-1,0.7-1.3s0.9-0.5,1.4-0.5c0.6,0,1.1,0.2,1.5,0.5
				c0.4,0.4,0.6,0.8,0.6,1.4c0,0.3,0,0.7,0,1.5c0,0.1,0,0.1-0.1,0.1H217c0,0,0,0,0,0c0,0.2,0,0.5,0,0.8c0,0.3,0.2,0.6,0.4,0.8
				c0.2,0.2,0.5,0.3,0.9,0.3C218.6,147.4,218.9,147.3,219.1,147.2z M217.4,142.9c-0.2,0.2-0.4,0.5-0.4,0.8c0,0.3,0,0.6,0,0.8
				c0,0,0,0,0,0h2.5c0,0,0,0,0,0c0-0.2,0-0.5,0-0.8c0-0.3-0.2-0.6-0.4-0.8c-0.2-0.2-0.5-0.3-0.9-0.3
				C217.9,142.6,217.6,142.7,217.4,142.9z"/>
			<path class="st2" d="M228.7,142.4c0.3,0.4,0.5,0.8,0.5,1.5v4c0,0.1,0,0.1-0.1,0.1h-0.6c-0.1,0-0.1,0-0.1-0.1V144
				c0-0.4-0.1-0.8-0.3-1s-0.5-0.4-0.8-0.4c-0.4,0-0.7,0.1-0.9,0.4c-0.2,0.2-0.3,0.6-0.3,1v3.9c0,0.1,0,0.1-0.1,0.1h-0.6
				c-0.1,0-0.1,0-0.1-0.1V144c0-0.4-0.1-0.8-0.3-1s-0.5-0.4-0.8-0.4c-0.4,0-0.6,0.1-0.9,0.4s-0.3,0.6-0.3,1v3.9c0,0.1,0,0.1-0.1,0.1
				H222c-0.1,0-0.1,0-0.1-0.1v-5.8c0-0.1,0-0.1,0.1-0.1h0.6c0.1,0,0.1,0,0.1,0.1v0.4c0,0,0,0,0,0s0,0,0,0c0.2-0.2,0.4-0.4,0.6-0.5
				c0.2-0.1,0.5-0.2,0.8-0.2c0.4,0,0.7,0.1,0.9,0.2c0.3,0.2,0.5,0.4,0.6,0.7c0,0,0,0,0.1,0c0.2-0.3,0.4-0.5,0.7-0.7
				c0.3-0.1,0.6-0.2,0.9-0.2C227.9,141.9,228.4,142.1,228.7,142.4z"/>
			<path class="st2" d="M235.1,145c0,0.5,0,1-0.1,1.4c-0.1,0.6-0.4,1-0.7,1.3c-0.3,0.3-0.8,0.4-1.3,0.4c-0.3,0-0.6-0.1-0.8-0.2
				s-0.4-0.3-0.5-0.5c0,0,0,0,0,0c0,0,0,0,0,0v2.8c0,0.1,0,0.1-0.1,0.1h-0.6c-0.1,0-0.1,0-0.1-0.1v-8.2c0-0.1,0-0.1,0.1-0.1h0.6
				c0.1,0,0.1,0,0.1,0.1v0.5c0,0,0,0,0,0c0,0,0,0,0,0c0.3-0.5,0.7-0.7,1.4-0.7c0.5,0,0.9,0.1,1.2,0.4c0.3,0.3,0.5,0.7,0.7,1.3
				C235.1,144,235.1,144.5,235.1,145z M234.3,145c0-0.6-0.1-1.1-0.2-1.5c-0.1-0.3-0.2-0.5-0.4-0.7c-0.2-0.2-0.4-0.2-0.7-0.2
				c-0.3,0-0.5,0.1-0.7,0.2c-0.2,0.2-0.3,0.4-0.4,0.7c-0.1,0.4-0.2,0.9-0.2,1.5c0,0.7,0.1,1.2,0.2,1.5c0.1,0.3,0.2,0.5,0.4,0.6
				c0.2,0.1,0.4,0.2,0.6,0.2c0.5,0,0.9-0.3,1.1-0.8C234.2,146.2,234.3,145.7,234.3,145z"/>
			<path class="st2" d="M236.6,147.9v-8.2c0-0.1,0-0.1,0.1-0.1h0.6c0.1,0,0.1,0,0.1,0.1v8.2c0,0.1,0,0.1-0.1,0.1h-0.6
				C236.6,148,236.6,148,236.6,147.9z"/>
			<path class="st2" d="M239.7,147.7c-0.4-0.3-0.6-0.7-0.7-1.3c0-0.4-0.1-0.9-0.1-1.4s0-1,0.1-1.4c0.1-0.5,0.3-1,0.7-1.3
				c0.4-0.3,0.9-0.5,1.4-0.5s1.1,0.2,1.4,0.5c0.4,0.3,0.6,0.7,0.7,1.3c0,0.3,0.1,0.8,0.1,1.4c0,0.6,0,1.1-0.1,1.4
				c-0.1,0.5-0.3,1-0.7,1.3s-0.9,0.5-1.4,0.5S240.1,148,239.7,147.7z M242,147.1c0.2-0.2,0.4-0.5,0.4-0.8c0-0.3,0-0.7,0-1.2
				c0-0.5,0-0.9,0-1.2c0-0.4-0.2-0.6-0.4-0.8c-0.2-0.2-0.5-0.3-0.9-0.3c-0.4,0-0.6,0.1-0.9,0.3c-0.2,0.2-0.4,0.5-0.4,0.8
				c0,0.3,0,0.7,0,1.2s0,0.9,0,1.2c0,0.4,0.2,0.6,0.4,0.8s0.5,0.3,0.9,0.3C241.5,147.4,241.8,147.3,242,147.1z"/>
			<path class="st2" d="M245.2,147.7c-0.4-0.3-0.6-0.7-0.6-1.1v-0.1c0-0.1,0-0.1,0.1-0.1h0.6c0.1,0,0.1,0,0.1,0.1v0.1
				c0,0.3,0.1,0.5,0.3,0.7c0.2,0.2,0.5,0.3,0.9,0.3c0.4,0,0.6-0.1,0.9-0.3c0.2-0.2,0.3-0.4,0.3-0.7c0-0.2-0.1-0.4-0.2-0.5
				c-0.1-0.1-0.3-0.2-0.4-0.3c-0.2-0.1-0.4-0.2-0.7-0.3c-0.4-0.1-0.7-0.3-0.9-0.4c-0.2-0.1-0.5-0.3-0.6-0.5
				c-0.2-0.2-0.3-0.5-0.3-0.9c0-0.5,0.2-0.9,0.5-1.2c0.4-0.3,0.8-0.5,1.4-0.5c0.6,0,1.1,0.2,1.5,0.5c0.4,0.3,0.5,0.7,0.5,1.2v0
				c0,0.1,0,0.1-0.1,0.1h-0.6c-0.1,0-0.1,0-0.1-0.1v0c0-0.3-0.1-0.5-0.3-0.7c-0.2-0.2-0.5-0.3-0.9-0.3c-0.3,0-0.6,0.1-0.8,0.3
				s-0.3,0.4-0.3,0.7c0,0.3,0.1,0.5,0.3,0.6s0.5,0.3,1,0.5c0.4,0.1,0.7,0.3,1,0.4s0.5,0.3,0.7,0.5c0.2,0.2,0.3,0.5,0.3,0.9
				c0,0.5-0.2,0.9-0.6,1.2c-0.4,0.3-0.9,0.5-1.5,0.5S245.5,148,245.2,147.7z"/>
			<path class="st2" d="M250.1,147.8c-0.1-0.1-0.2-0.3-0.2-0.5c0-0.2,0.1-0.4,0.2-0.5s0.3-0.2,0.5-0.2c0.2,0,0.4,0.1,0.5,0.2
				s0.2,0.3,0.2,0.5c0,0.2-0.1,0.4-0.2,0.5s-0.3,0.2-0.5,0.2C250.3,148,250.2,148,250.1,147.8z"/>
		</g>
		<circle class="st3" cx="34.8" cy="34.8" r="13.3"/>
		<g class="st1">
			<path class="st4" d="M32.7,35.4c0,0,0,0.1,0,0.1v1.3c0,0,0,0.1,0,0.1s-0.1,0-0.1,0H32c0,0-0.1,0-0.1,0.1v2.1c0,0,0,0.1,0,0.1
				c0,0-0.1,0-0.1,0h-1.5c0,0-0.1,0-0.1,0c0,0,0-0.1,0-0.1v-2.1c0,0,0-0.1-0.1-0.1h-4c0,0-0.1,0-0.1,0c0,0,0-0.1,0-0.1v-1
				c0-0.1,0-0.1,0-0.2l2.3-5.3c0-0.1,0.1-0.1,0.2-0.1h1.6c0.1,0,0.1,0,0.1,0c0,0,0,0.1,0,0.1L28,35.3c0,0,0,0,0,0.1c0,0,0,0,0,0h2
				c0,0,0.1,0,0.1-0.1v-1.6c0,0,0-0.1,0-0.1c0,0,0.1,0,0.1,0h1.5c0,0,0.1,0,0.1,0c0,0,0,0.1,0,0.1v1.6c0,0,0,0.1,0.1,0.1h0.6
				C32.6,35.4,32.6,35.4,32.7,35.4z"/>
			<path class="st4" d="M34.3,39.1c-0.2-0.2-0.3-0.4-0.3-0.7c0-0.3,0.1-0.6,0.3-0.7c0.2-0.2,0.4-0.3,0.7-0.3s0.6,0.1,0.7,0.3
				c0.2,0.2,0.3,0.4,0.3,0.7c0,0.3-0.1,0.5-0.3,0.7c-0.2,0.2-0.4,0.3-0.7,0.3S34.5,39.3,34.3,39.1z"/>
			<path class="st4" d="M39.9,37.8C39.9,37.8,39.9,37.8,39.9,37.8l3.6,0c0,0,0.1,0,0.1,0c0,0,0,0.1,0,0.1v1.3c0,0,0,0.1,0,0.1
				c0,0-0.1,0-0.1,0h-5.8c0,0-0.1,0-0.1,0c0,0,0-0.1,0-0.1V38c0-0.1,0-0.1,0.1-0.2c0.4-0.4,0.9-0.9,1.3-1.4c0.4-0.5,0.7-0.8,0.8-0.9
				c0.2-0.3,0.5-0.6,0.7-0.8c0.8-0.9,1.2-1.5,1.2-2c0-0.3-0.1-0.6-0.3-0.7c-0.2-0.2-0.5-0.3-0.8-0.3s-0.6,0.1-0.8,0.3
				c-0.2,0.2-0.3,0.5-0.3,0.8v0.3c0,0,0,0.1,0,0.1c0,0-0.1,0-0.1,0h-1.5c0,0-0.1,0-0.1,0c0,0,0-0.1,0-0.1v-0.6
				c0-0.5,0.2-0.9,0.4-1.2c0.3-0.4,0.6-0.6,1.1-0.8s0.9-0.3,1.5-0.3c0.6,0,1.2,0.1,1.6,0.3c0.5,0.2,0.8,0.5,1.1,0.9
				c0.2,0.4,0.4,0.8,0.4,1.3c0,0.4-0.1,0.7-0.3,1.1c-0.2,0.4-0.5,0.8-0.8,1.2c-0.3,0.3-0.6,0.7-0.9,1c-0.3,0.3-0.8,0.8-1.4,1.4
				L39.9,37.8C39.9,37.7,39.9,37.7,39.9,37.8z"/>
		</g>
		<path class="st3" d="M175.7,49.6c-0.1-0.6-0.3-1.1-0.4-1.7c0.8-0.7,1.4-1.6,1.6-2.6c2.3-0.4,3.9-2.7,3.5-5c-0.2-1.2-0.9-2.3-2-2.9
			c1.7-2.5,1-5.9-1.5-7.6c-0.6-0.4-1.4-0.7-2.1-0.8c-0.7-2.3-2.8-3.9-5.3-3.9c-0.6,0-1.3,0.1-1.8,0.3c-1.2-2.8-4.5-4-7.3-2.8
			c-0.8,0.4-1.5,0.9-2.1,1.6c-1.5-2.6-4.9-3.5-7.5-1.9c-0.8,0.5-1.5,1.1-1.9,1.9c-1.6-2.2-4.6-2.8-6.9-1.2c-1.2,0.8-1.9,2.1-2.1,3.5
			c-1.1-0.9-2.5-1.4-4-1.4c-3.5,0-6.3,2.8-6.3,6.3v0c0,0.6,0.1,1.2,0.2,1.7c-1.5-1.3-3.8-1.2-5.1,0.4s-1.2,3.8,0.4,5.1l0,0
			c-0.1,0-0.3-0.1-0.5-0.1c-0.1,0-0.3,0-0.4,0H124c-1.9,0-3.5,1.6-3.5,3.5c0,1.2,0.6,2.2,1.5,2.9h-0.2c-2.6,0.1-4.6,2.2-4.5,4.7
			c0,1.7,1.1,3.3,2.6,4.1c-1.6,1.1-1.9,3.3-0.8,4.8c0.5,0.8,1.4,1.3,2.3,1.4c-1.2,1.6-1.4,3.8-0.5,5.6c0.7,1.6,2.4,2.5,4.1,2.4
			c0.1,0,0.1,0,0.2,0c-0.2,0.5-0.3,1-0.3,1.6c0,2.2,1.8,4,4,4h0.1c0,0.2-0.1,0.4-0.1,0.7c0,2.2,1.8,4,4,4c0,0,0,0,0.1,0
			c0.3,0,0.7,0,1-0.1c0.2,2,2,3.5,4,3.5h0.2"/>
		<path class="st3" d="M162.8,96.5c0,0-2.1-5.1-0.7-7s9.5-1.3,15.2-6.3c1.7-1.4,3.2-3.1,4.3-5c0.3-0.5,0.1-1.1-0.3-1.4
			c-0.1-0.1-0.3-0.1-0.4-0.1c-1.5-0.2-3.8-0.8-4.7-2.9c-0.2-0.5,0-1.1,0.5-1.3c0.1-0.1,0.3-0.1,0.5-0.1l5.5-0.2c0.6,0,1-0.4,1.1-0.9
			c0-0.1,0-0.3-0.1-0.4c-0.3-1.1-0.8-2.8-1.1-3.9c-0.1-0.4,0-0.9,0.4-1.1c1.8-1.2,2.9-2.5,3.2-4.1c1-5.7-5.2-1.7-6.1-4
			c-1.6-4.2,0.1-8.9-2.1-16.4c-2.8-9.4-15-19.1-33.8-13.7c-21.4,6.2-24.4,28-17.3,41.1c6.8,12.4,15.1,12.8,14.5,17.7s-0.3,6-0.3,6"
			/>
		<circle class="st5" cx="172.7" cy="55.3" r="2.8"/>
		<path class="st6" d="M149,46.8L149,46.8c0,0.4-0.3,0.8-0.8,0.8c0,0,0,0,0,0h-5c-0.4,0-0.8-0.4-0.8-0.8l0,0c0-0.4,0.4-0.8,0.8-0.8
			c0,0,0,0,0,0h5C148.6,46,149,46.4,149,46.8C149,46.8,149,46.8,149,46.8z M149,49.7L149,49.7c0,0.4-0.4,0.8-0.8,0.8l0,0h-5
			c-0.4,0-0.8-0.3-0.8-0.8c0,0,0,0,0,0l0,0c0-0.4,0.4-0.8,0.8-0.8c0,0,0,0,0,0h5C148.6,48.9,149,49.3,149,49.7
			C149,49.7,149,49.7,149,49.7z"/>
		<path class="st6" d="M138.2,57.4h-6.9c-1.5,0-2.8-1.2-2.8-2.8V42.1c0-1.5,1.2-2.8,2.8-2.8h6.9c1.5,0,2.8,1.2,2.8,2.8v12.5
			C141,56.2,139.7,57.4,138.2,57.4z"/>
		<path class="st7" d="M159.9,57.4H153c-1.5,0-2.8-1.2-2.8-2.8V42.1c0-1.5,1.2-2.8,2.8-2.8h6.9c1.5,0,2.8,1.2,2.8,2.8v12.5
			C162.7,56.2,161.5,57.4,159.9,57.4z"/>
		<path class="st3" d="M136.7,48.9c-0.5,0.4-1.1,0.5-1.7,0.5h-1.4v2.5h-1.4V45h2.9c0.6,0,1.2,0.2,1.6,0.5c0.4,0.4,0.6,1,0.6,1.6
			C137.4,47.8,137.2,48.5,136.7,48.9z M135.7,46.5c-0.2-0.2-0.5-0.2-0.8-0.2h-1.3v2h1.3c0.3,0,0.5-0.1,0.8-0.2
			c0.2-0.2,0.3-0.5,0.3-0.8C136,46.9,135.9,46.6,135.7,46.5L135.7,46.5z"/>
		<path class="st6" d="M158.5,48.9c-0.5,0.4-1.1,0.5-1.7,0.5h-1.4v2.5h-1.4V45h2.9c0.6,0,1.2,0.2,1.6,0.5c0.4,0.4,0.7,1,0.6,1.6
			C159.1,47.8,158.9,48.5,158.5,48.9z M157.4,46.5c-0.2-0.2-0.5-0.2-0.8-0.2h-1.3v2h1.3c0.3,0,0.5-0.1,0.8-0.2
			c0.2-0.2,0.3-0.5,0.3-0.8C157.7,46.9,157.6,46.6,157.4,46.5L157.4,46.5z"/>
	</g>
</g>
</svg>
