<svg xmlns="http://www.w3.org/2000/svg" viewBox="0 0 307 199"><defs><style>.cls-1{fill:none;stroke:#00b6ed;stroke-miterlimit:10;}.cls-2{fill:#00b6ed;}.cls-3{fill:#fff;}</style></defs><title>04</title><g id="Capa_2" data-name="Capa 2"><g id="Capa_1-2" data-name="Capa 1"><rect class="cls-1" x="0.5" y="0.5" width="306" height="198"/><rect class="cls-2" x="0.5" y="0.5" width="306" height="198"/><path class="cls-3" d="M55.16,64.87a.28.28,0,0,1,.07.17v.64a2.68,2.68,0,0,1-.46,1.62,6.64,6.64,0,0,1-1.34,1.28,7.17,7.17,0,0,0-1.06,1,1.52,1.52,0,0,0-.34,1,1.36,1.36,0,0,0,.4,1,1.41,1.41,0,0,0,1,.39,1.54,1.54,0,0,0,1.14-.42A1.46,1.46,0,0,0,55,70.48v-.32c0-.14.08-.22.24-.22l2.34.1a.24.24,0,0,1,.24.24v.2a4.08,4.08,0,0,1-.56,2.13,3.83,3.83,0,0,1-1.57,1.44,5.09,5.09,0,0,1-2.31.51,4.29,4.29,0,0,1-3.07-1.07,4.11,4.11,0,0,1-.87-4.34,3.4,3.4,0,0,1,.67-1,9.92,9.92,0,0,1,1-.88,5.85,5.85,0,0,0,1-.86,1.32,1.32,0,0,0,.3-.88V65a.23.23,0,0,1,.07-.17.24.24,0,0,1,.17-.07H55A.28.28,0,0,1,55.16,64.87ZM55,60.76a1.58,1.58,0,0,1,.44,1.14A1.51,1.51,0,0,1,55,63a1.54,1.54,0,0,1-1.14.44,1.51,1.51,0,0,1-1.56-1.56,1.53,1.53,0,0,1,.44-1.13,1.48,1.48,0,0,1,1.12-.45A1.58,1.58,0,0,1,55,60.76Z"/><path class="cls-3" d="M60.79,70a3.8,3.8,0,0,1-1.61-1.54,4.59,4.59,0,0,1-.57-2.32V60.56a4.52,4.52,0,0,1,.57-2.29,3.84,3.84,0,0,1,1.61-1.53,5.12,5.12,0,0,1,2.4-.54,5.3,5.3,0,0,1,2.4.53,3.93,3.93,0,0,1,1.61,1.49,4.31,4.31,0,0,1,.57,2.24v.1a.29.29,0,0,1-.07.18.21.21,0,0,1-.17.08l-2.34.1c-.16,0-.24-.07-.24-.22v-.26a1.85,1.85,0,0,0-.48-1.32,1.89,1.89,0,0,0-2.56,0,1.85,1.85,0,0,0-.48,1.32V66.3a1.78,1.78,0,0,0,.48,1.31,1.92,1.92,0,0,0,2.56,0A1.78,1.78,0,0,0,65,66.3V66c0-.14.08-.22.24-.22l2.34.1a.24.24,0,0,1,.24.24v.06a4.39,4.39,0,0,1-.57,2.26A3.79,3.79,0,0,1,65.59,70a5.17,5.17,0,0,1-2.4.53A5.12,5.12,0,0,1,60.79,70Z"/><path class="cls-3" d="M70.64,69.65a3.51,3.51,0,0,1-1.33-2.39,11.73,11.73,0,0,1-.16-2.06,11.57,11.57,0,0,1,.16-2.06,3.51,3.51,0,0,1,1.33-2.35,4.48,4.48,0,0,1,2.85-.87,4.39,4.39,0,0,1,2.81.87,3.68,3.68,0,0,1,1.33,2.35,13.21,13.21,0,0,1,0,4.1,3.63,3.63,0,0,1-1.31,2.41,4.4,4.4,0,0,1-2.83.87A4.48,4.48,0,0,1,70.64,69.65Zm3.74-1.89a1.67,1.67,0,0,0,.49-.92A15.35,15.35,0,0,0,75,65.2a14.67,14.67,0,0,0-.1-1.62,1.6,1.6,0,0,0-.47-.91,1.36,1.36,0,0,0-.93-.33,1.31,1.31,0,0,0-.91.33,1.49,1.49,0,0,0-.47.91A9.93,9.93,0,0,0,72,65.2a12.32,12.32,0,0,0,.08,1.64,1.57,1.57,0,0,0,.5.92,1.31,1.31,0,0,0,.92.34A1.27,1.27,0,0,0,74.38,67.76Zm-2.27-9a.21.21,0,0,1,0-.2l1.14-2a.33.33,0,0,1,.3-.16h1.92a.2.2,0,0,1,.2.09.24.24,0,0,1,0,.21l-1.48,2a.31.31,0,0,1-.28.14h-1.6C72.19,58.84,72.13,58.82,72.11,58.76Z"/><path class="cls-3" d="M91.88,60.85a4,4,0,0,1,.77,2.61v6.66a.24.24,0,0,1-.07.17.23.23,0,0,1-.17.07H90.09a.24.24,0,0,1-.24-.24V63.86a1.75,1.75,0,0,0-.33-1.11,1.1,1.1,0,0,0-.89-.41,1.13,1.13,0,0,0-.92.41,1.65,1.65,0,0,0-.34,1.09v6.28a.24.24,0,0,1-.07.17.23.23,0,0,1-.17.07H84.81a.24.24,0,0,1-.24-.24V63.86a1.75,1.75,0,0,0-.34-1.11,1.21,1.21,0,0,0-1.82,0,1.65,1.65,0,0,0-.34,1.09v6.28a.24.24,0,0,1-.07.17.23.23,0,0,1-.17.07H79.51a.24.24,0,0,1-.24-.24v-9.8a.23.23,0,0,1,.07-.17.24.24,0,0,1,.17-.07h2.32a.24.24,0,0,1,.24.24v.52s0,.07,0,.08,0,0,.08,0a2.58,2.58,0,0,1,1-.73,3.35,3.35,0,0,1,2.75.14,2.61,2.61,0,0,1,1,1.07,0,0,0,0,0,.06,0s.05,0,.08-.07a2.61,2.61,0,0,1,1.12-1.07,3.29,3.29,0,0,1,1.46-.33A2.74,2.74,0,0,1,91.88,60.85Z"/><path class="cls-3" d="M95.64,69.65a3.51,3.51,0,0,1-1.33-2.39,11.73,11.73,0,0,1-.16-2.06,11.57,11.57,0,0,1,.16-2.06,3.51,3.51,0,0,1,1.33-2.35,4.48,4.48,0,0,1,2.85-.87,4.39,4.39,0,0,1,2.81.87,3.68,3.68,0,0,1,1.33,2.35,13.21,13.21,0,0,1,0,4.1,3.63,3.63,0,0,1-1.31,2.41,4.4,4.4,0,0,1-2.83.87A4.48,4.48,0,0,1,95.64,69.65Zm3.74-1.89a1.67,1.67,0,0,0,.49-.92,15.35,15.35,0,0,0,.1-1.64,14.67,14.67,0,0,0-.1-1.62,1.6,1.6,0,0,0-.47-.91,1.36,1.36,0,0,0-.93-.33,1.31,1.31,0,0,0-.91.33,1.49,1.49,0,0,0-.47.91A9.93,9.93,0,0,0,97,65.2a12.32,12.32,0,0,0,.08,1.64,1.57,1.57,0,0,0,.5.92,1.31,1.31,0,0,0,.92.34A1.27,1.27,0,0,0,99.38,67.76Z"/><path class="cls-3" d="M109.21,69.68a2.53,2.53,0,0,1-1.1-2.16v-.16a.23.23,0,0,1,.07-.17.24.24,0,0,1,.17-.07h2.2a.24.24,0,0,1,.24.24v0a.82.82,0,0,0,.4.72,1.62,1.62,0,0,0,1,.28,1.35,1.35,0,0,0,.86-.25.76.76,0,0,0,.32-.63.65.65,0,0,0-.35-.58,8.14,8.14,0,0,0-1.13-.46,8.08,8.08,0,0,1-1-.32,5.22,5.22,0,0,1-2-1.08,2.5,2.5,0,0,1-.75-2,2.84,2.84,0,0,1,1.06-2.32,4.31,4.31,0,0,1,2.8-.86,4.38,4.38,0,0,1,2.87.89A3,3,0,0,1,116,63.2c0,.15-.08.22-.24.22h-2.16a.24.24,0,0,1-.24-.24v-.06a.9.9,0,0,0-.34-.7,1.46,1.46,0,0,0-.92-.28,1.39,1.39,0,0,0-.87.26.8.8,0,0,0-.33.64.71.71,0,0,0,.4.65,5.35,5.35,0,0,0,1.22.47l.35.11.31.11a7.51,7.51,0,0,1,2.18,1.11,2.35,2.35,0,0,1,.82,1.93,2.68,2.68,0,0,1-1.09,2.26,4.76,4.76,0,0,1-2.93.82A4.81,4.81,0,0,1,109.21,69.68Z"/><path class="cls-3" d="M125.87,65.12l0,.78a.21.21,0,0,1-.24.24h-5.3a.09.09,0,0,0-.1.1,5.07,5.07,0,0,0,.08.68,1.36,1.36,0,0,0,.49.88,1.44,1.44,0,0,0,1,.32,1.4,1.4,0,0,0,1.36-.9.26.26,0,0,1,.3-.16l2.12.42c.16,0,.21.14.16.3a3.94,3.94,0,0,1-1.45,2,4.2,4.2,0,0,1-2.49.71,4.51,4.51,0,0,1-2.83-.81,3.78,3.78,0,0,1-1.37-2.33,12.63,12.63,0,0,1-.18-2.5,9.25,9.25,0,0,1,.12-1.62,3.68,3.68,0,0,1,1.32-2.43,4.74,4.74,0,0,1,5.74.12,3.88,3.88,0,0,1,1.26,2.71C125.85,64.1,125.87,64.59,125.87,65.12Zm-5.15-2.46a1.47,1.47,0,0,0-.45.88,4.68,4.68,0,0,0-.06.76c0,.07,0,.1.1.1h2.6a.09.09,0,0,0,.1-.1,4.68,4.68,0,0,0-.06-.76,1.46,1.46,0,0,0-.44-.87,1.39,1.39,0,0,0-1.79,0Z"/><path class="cls-3" d="M136.62,62.13a.23.23,0,0,1-.17.07h-1.54a.09.09,0,0,0-.1.1v4.5a1.26,1.26,0,0,0,.25.89.91.91,0,0,0,.77.25h.4a.24.24,0,0,1,.24.24v1.94a.21.21,0,0,1-.24.24c-.23,0-.56,0-1,0a4.2,4.2,0,0,1-2.35-.52,2.18,2.18,0,0,1-.77-2V62.3a.09.09,0,0,0-.1-.1h-.92a.24.24,0,0,1-.24-.24V60.32a.23.23,0,0,1,.07-.17.24.24,0,0,1,.17-.07H132a.09.09,0,0,0,.1-.1v-2.3a.23.23,0,0,1,.07-.17.24.24,0,0,1,.17-.07h2.22a.24.24,0,0,1,.24.24V60c0,.07,0,.1.1.1h1.54a.24.24,0,0,1,.24.24V62A.24.24,0,0,1,136.62,62.13Z"/><path class="cls-3" d="M144,60.18a.31.31,0,0,1,.12.32l-.4,2.3c0,.16-.11.21-.28.14a2.67,2.67,0,0,0-.58-.08,2.44,2.44,0,0,0-.52.06,1.52,1.52,0,0,0-1,.56,1.74,1.74,0,0,0-.4,1.16v5.48a.24.24,0,0,1-.07.17.23.23,0,0,1-.17.07h-2.34a.24.24,0,0,1-.24-.24v-9.8a.23.23,0,0,1,.07-.17.24.24,0,0,1,.17-.07h2.34a.24.24,0,0,1,.24.24v.8q0,.09,0,.09s0,0,.07-.05a2.16,2.16,0,0,1,2-1.22A2,2,0,0,1,144,60.18Z"/><path class="cls-3" d="M151.13,60.35a3.65,3.65,0,0,1,1.47,1.2,3.06,3.06,0,0,1,.53,1.75v6.82a.24.24,0,0,1-.07.17.23.23,0,0,1-.17.07h-2.34a.24.24,0,0,1-.24-.24v-.56a.1.1,0,0,0,0-.08.06.06,0,0,0-.08,0,2.78,2.78,0,0,1-2.36,1,3.57,3.57,0,0,1-2.27-.7,2.75,2.75,0,0,1-.91-2.34q0-3.26,4.08-3.26h1.48a.09.09,0,0,0,.1-.1v-.46a1.33,1.33,0,0,0-.35-1,1.27,1.27,0,0,0-1-.36,1.42,1.42,0,0,0-.8.22.92.92,0,0,0-.4.6.26.26,0,0,1-.28.2l-2.42-.14a.24.24,0,0,1-.17-.06.14.14,0,0,1-.05-.16,3,3,0,0,1,1.25-2.23,4.64,4.64,0,0,1,2.85-.85A5.21,5.21,0,0,1,151.13,60.35ZM149.83,68a1.2,1.2,0,0,0,.48-1v-.84a.09.09,0,0,0-.1-.1h-1.12a1.88,1.88,0,0,0-1.16.32,1.1,1.1,0,0,0-.42.92,1,1,0,0,0,.32.8,1.2,1.2,0,0,0,.84.28A1.78,1.78,0,0,0,149.83,68Z"/><path class="cls-3" d="M162.18,60.85a3.78,3.78,0,0,1,.83,2.59v6.68a.24.24,0,0,1-.07.17.23.23,0,0,1-.17.07h-2.34a.24.24,0,0,1-.24-.24V63.84a1.7,1.7,0,0,0-.34-1.1,1.28,1.28,0,0,0-1.87,0,1.64,1.64,0,0,0-.35,1.11v6.26a.24.24,0,0,1-.07.17.23.23,0,0,1-.17.07h-2.34a.24.24,0,0,1-.24-.24v-9.8a.23.23,0,0,1,.07-.17.24.24,0,0,1,.17-.07h2.34a.24.24,0,0,1,.24.24v.56s0,.07,0,.07.06,0,.1-.07a2.48,2.48,0,0,1,2.12-1A2.93,2.93,0,0,1,162.18,60.85Z"/><path class="cls-3" d="M165.55,69.68a2.53,2.53,0,0,1-1.1-2.16v-.16a.23.23,0,0,1,.07-.17.24.24,0,0,1,.17-.07h2.2a.24.24,0,0,1,.24.24v0a.82.82,0,0,0,.4.72,1.62,1.62,0,0,0,1,.28,1.35,1.35,0,0,0,.86-.25.76.76,0,0,0,.32-.63.65.65,0,0,0-.35-.58,8.14,8.14,0,0,0-1.13-.46,8.08,8.08,0,0,1-1-.32,5.22,5.22,0,0,1-1.95-1.08,2.5,2.5,0,0,1-.75-2,2.84,2.84,0,0,1,1.06-2.32,4.31,4.31,0,0,1,2.8-.86,4.38,4.38,0,0,1,2.87.89,3,3,0,0,1,1.07,2.37c0,.15-.08.22-.24.22H170a.24.24,0,0,1-.24-.24v-.06a.9.9,0,0,0-.34-.7,1.46,1.46,0,0,0-.92-.28,1.39,1.39,0,0,0-.87.26.8.8,0,0,0-.33.64.71.71,0,0,0,.4.65,5.35,5.35,0,0,0,1.22.47l.35.11.31.11a7.51,7.51,0,0,1,2.18,1.11,2.35,2.35,0,0,1,.82,1.93,2.68,2.68,0,0,1-1.09,2.26,4.76,4.76,0,0,1-2.93.82A4.81,4.81,0,0,1,165.55,69.68Z"/><path class="cls-3" d="M179.26,60.15a.28.28,0,0,1,.07.17V62a.24.24,0,0,1-.07.17.23.23,0,0,1-.17.07h-1.52a.09.09,0,0,0-.1.1v7.76a.24.24,0,0,1-.07.17.23.23,0,0,1-.17.07h-2.34a.24.24,0,0,1-.24-.24V62.36a.09.09,0,0,0-.1-.1h-.88a.24.24,0,0,1-.24-.24v-1.7a.23.23,0,0,1,.07-.17.24.24,0,0,1,.17-.07h.88a.09.09,0,0,0,.1-.1v-.5a3.86,3.86,0,0,1,.4-1.92,2.16,2.16,0,0,1,1.25-1,7.08,7.08,0,0,1,2.25-.24h.4a.24.24,0,0,1,.24.24v1.6a.24.24,0,0,1-.07.17.23.23,0,0,1-.17.07h-.36a1.2,1.2,0,0,0-.86.31,1.38,1.38,0,0,0-.26,1V60c0,.07,0,.1.1.1h1.52A.28.28,0,0,1,179.26,60.15Zm1.81-1.68a1.51,1.51,0,0,1-.44-1.13,1.57,1.57,0,0,1,.43-1.14,1.51,1.51,0,0,1,1.13-.44,1.51,1.51,0,0,1,1.58,1.58,1.52,1.52,0,0,1-.45,1.13,1.54,1.54,0,0,1-1.13.45A1.48,1.48,0,0,1,181.07,58.47Zm-.21,11.82a.21.21,0,0,1-.07-.17v-9.8a.23.23,0,0,1,.07-.17.24.24,0,0,1,.17-.07h2.34a.24.24,0,0,1,.24.24v9.8a.24.24,0,0,1-.07.17.23.23,0,0,1-.17.07H181A.21.21,0,0,1,180.86,70.29Z"/><path class="cls-3" d="M193.77,65.12l0,.78a.21.21,0,0,1-.24.24h-5.3a.09.09,0,0,0-.1.1,5.07,5.07,0,0,0,.08.68,1.36,1.36,0,0,0,.49.88,1.44,1.44,0,0,0,1,.32,1.4,1.4,0,0,0,1.36-.9.26.26,0,0,1,.3-.16l2.12.42c.16,0,.21.14.16.3a3.94,3.94,0,0,1-1.45,2,4.2,4.2,0,0,1-2.49.71,4.51,4.51,0,0,1-2.83-.81,3.78,3.78,0,0,1-1.37-2.33,12.63,12.63,0,0,1-.18-2.5,9.25,9.25,0,0,1,.12-1.62,3.68,3.68,0,0,1,1.32-2.43,4.74,4.74,0,0,1,5.74.12,3.88,3.88,0,0,1,1.26,2.71C193.75,64.1,193.77,64.59,193.77,65.12Zm-5.15-2.46a1.47,1.47,0,0,0-.45.88,4.68,4.68,0,0,0-.06.76c0,.07,0,.1.1.1h2.6a.09.09,0,0,0,.1-.1,4.68,4.68,0,0,0-.06-.76,1.46,1.46,0,0,0-.44-.87,1.39,1.39,0,0,0-1.79,0Z"/><path class="cls-3" d="M201.15,60.18a.31.31,0,0,1,.12.32l-.4,2.3c0,.16-.11.21-.28.14a2.67,2.67,0,0,0-.58-.08,2.44,2.44,0,0,0-.52.06,1.52,1.52,0,0,0-1,.56,1.74,1.74,0,0,0-.4,1.16v5.48a.24.24,0,0,1-.07.17.23.23,0,0,1-.17.07h-2.34a.24.24,0,0,1-.24-.24v-9.8a.23.23,0,0,1,.07-.17.24.24,0,0,1,.17-.07h2.34a.24.24,0,0,1,.24.24v.8q0,.09,0,.09s0,0,.07-.05a2.16,2.16,0,0,1,2-1.22A2,2,0,0,1,201.15,60.18Z"/><path class="cls-3" d="M210.49,65.12l0,.78a.21.21,0,0,1-.24.24h-5.3c-.06,0-.09,0-.09.1a5.07,5.07,0,0,0,.08.68,1.35,1.35,0,0,0,.48.88,1.48,1.48,0,0,0,1,.32,1.38,1.38,0,0,0,1.35-.9.27.27,0,0,1,.3-.16l2.12.42a.2.2,0,0,1,.16.3,3.83,3.83,0,0,1-1.45,2,4.15,4.15,0,0,1-2.48.71,4.51,4.51,0,0,1-2.83-.81,3.73,3.73,0,0,1-1.37-2.33,11.9,11.9,0,0,1-.18-2.5,9.35,9.35,0,0,1,.11-1.62,3.77,3.77,0,0,1,1.32-2.43,4.75,4.75,0,0,1,5.75.12,3.91,3.91,0,0,1,1.25,2.71C210.46,64.1,210.49,64.59,210.49,65.12Zm-5.16-2.46a1.58,1.58,0,0,0-.45.88,4.7,4.7,0,0,0,0,.76c0,.07,0,.1.09.1h2.6c.07,0,.1,0,.1-.1a4.68,4.68,0,0,0-.06-.76,1.36,1.36,0,0,0-.44-.87,1.28,1.28,0,0,0-.9-.33A1.31,1.31,0,0,0,205.33,62.66Z"/><path class="cls-3" d="M224.33,65.12l0,.78a.21.21,0,0,1-.24.24h-5.3c-.06,0-.09,0-.09.1a5.07,5.07,0,0,0,.08.68,1.35,1.35,0,0,0,.48.88,1.48,1.48,0,0,0,1,.32,1.38,1.38,0,0,0,1.35-.9.27.27,0,0,1,.3-.16l2.12.42a.2.2,0,0,1,.16.3,3.83,3.83,0,0,1-1.45,2,4.15,4.15,0,0,1-2.48.71,4.51,4.51,0,0,1-2.83-.81A3.79,3.79,0,0,1,216,67.38a12.81,12.81,0,0,1-.17-2.5,9.35,9.35,0,0,1,.11-1.62,3.77,3.77,0,0,1,1.32-2.43A4.74,4.74,0,0,1,223,61a3.88,3.88,0,0,1,1.26,2.71C224.3,64.1,224.33,64.59,224.33,65.12Zm-5.16-2.46a1.58,1.58,0,0,0-.45.88,4.7,4.7,0,0,0-.05.76c0,.07,0,.1.09.1h2.6c.07,0,.1,0,.1-.1a4.68,4.68,0,0,0-.06-.76,1.36,1.36,0,0,0-.44-.87,1.28,1.28,0,0,0-.9-.33A1.31,1.31,0,0,0,219.17,62.66Z"/><path class="cls-3" d="M225.88,70.29a.21.21,0,0,1-.08-.17V56.6a.25.25,0,0,1,.08-.17.24.24,0,0,1,.16-.07h2.34a.24.24,0,0,1,.17.07.23.23,0,0,1,.07.17V70.12a.24.24,0,0,1-.24.24H226A.2.2,0,0,1,225.88,70.29Z"/><path class="cls-3" d="M55.67,84.35a3.65,3.65,0,0,1,1.47,1.2,3.06,3.06,0,0,1,.53,1.75v6.82a.24.24,0,0,1-.07.17.23.23,0,0,1-.17.07H55.09a.24.24,0,0,1-.24-.24v-.56a.1.1,0,0,0,0-.08.06.06,0,0,0-.08,0,2.78,2.78,0,0,1-2.36,1,3.57,3.57,0,0,1-2.27-.7,2.75,2.75,0,0,1-.91-2.34q0-3.26,4.08-3.26h1.48a.09.09,0,0,0,.1-.1v-.46a1.33,1.33,0,0,0-.35-1,1.27,1.27,0,0,0-1-.36,1.42,1.42,0,0,0-.8.22.92.92,0,0,0-.4.6.26.26,0,0,1-.28.2l-2.42-.14a.24.24,0,0,1-.17-.06.14.14,0,0,1,0-.16,3,3,0,0,1,1.25-2.23,4.64,4.64,0,0,1,2.85-.85A5.21,5.21,0,0,1,55.67,84.35ZM54.37,92a1.2,1.2,0,0,0,.48-1v-.84a.09.09,0,0,0-.1-.1H53.63a1.88,1.88,0,0,0-1.16.32,1.1,1.1,0,0,0-.42.92,1,1,0,0,0,.32.8,1.2,1.2,0,0,0,.84.28A1.78,1.78,0,0,0,54.37,92Z"/><path class="cls-3" d="M67.81,89.32a10.11,10.11,0,0,1-.18,2.08,4.46,4.46,0,0,1-1.09,2.32,2.81,2.81,0,0,1-2.11.8,3.21,3.21,0,0,1-1.18-.19,2.06,2.06,0,0,1-.88-.63s-.06,0-.08,0a.08.08,0,0,0,0,.08v4.1a.26.26,0,0,1-.07.17.23.23,0,0,1-.17.07H59.67A.21.21,0,0,1,59.5,98a.22.22,0,0,1-.07-.17V84.32a.23.23,0,0,1,.07-.17.24.24,0,0,1,.17-.07H62a.24.24,0,0,1,.24.24v.4s0,.07,0,.08.05,0,.08,0a2.65,2.65,0,0,1,2.12-.86c1.61,0,2.65,1.06,3.12,3.16A10.79,10.79,0,0,1,67.81,89.32ZM65,89.22a8.32,8.32,0,0,0-.16-1.72,1.76,1.76,0,0,0-.43-.85,1.13,1.13,0,0,0-.81-.31c-.62,0-1,.39-1.18,1.16a6.78,6.78,0,0,0-.16,1.72A8,8,0,0,0,62.41,91c.17.74.56,1.1,1.18,1.1s1-.36,1.22-1.08A7.12,7.12,0,0,0,65,89.22Z"/><path class="cls-3" d="M75.37,84.18a.31.31,0,0,1,.12.32l-.4,2.3c0,.16-.11.21-.28.14a2.67,2.67,0,0,0-.58-.08,2.44,2.44,0,0,0-.52.06,1.54,1.54,0,0,0-1,.56,1.74,1.74,0,0,0-.4,1.16v5.48a.24.24,0,0,1-.07.17.23.23,0,0,1-.17.07H69.75a.24.24,0,0,1-.24-.24v-9.8a.23.23,0,0,1,.07-.17.24.24,0,0,1,.17-.07h2.34a.24.24,0,0,1,.24.24v.8q0,.09,0,.09s0,0,.07,0a2.16,2.16,0,0,1,2-1.22A2,2,0,0,1,75.37,84.18Z"/><path class="cls-3" d="M84.71,89.12l0,.78a.21.21,0,0,1-.24.24h-5.3a.09.09,0,0,0-.1.1,5.07,5.07,0,0,0,.08.68,1.36,1.36,0,0,0,.49.88,1.44,1.44,0,0,0,1,.32,1.4,1.4,0,0,0,1.36-.9.26.26,0,0,1,.3-.16l2.12.42c.16,0,.21.14.16.3a3.94,3.94,0,0,1-1.45,2,4.2,4.2,0,0,1-2.49.71,4.51,4.51,0,0,1-2.83-.81,3.78,3.78,0,0,1-1.37-2.33,12.63,12.63,0,0,1-.18-2.5,9.25,9.25,0,0,1,.12-1.62,3.73,3.73,0,0,1,1.32-2.43,4.74,4.74,0,0,1,5.74.12,3.88,3.88,0,0,1,1.26,2.71C84.69,88.1,84.71,88.59,84.71,89.12Zm-5.15-2.46a1.47,1.47,0,0,0-.45.88,4.68,4.68,0,0,0-.06.76c0,.07,0,.1.1.1h2.6a.09.09,0,0,0,.1-.1,4.68,4.68,0,0,0-.06-.76,1.46,1.46,0,0,0-.44-.87,1.39,1.39,0,0,0-1.79,0Z"/><path class="cls-3" d="M93.6,84.85a3.78,3.78,0,0,1,.83,2.59v6.68a.24.24,0,0,1-.07.17.23.23,0,0,1-.17.07H91.85a.24.24,0,0,1-.24-.24V87.84a1.7,1.7,0,0,0-.34-1.1,1.28,1.28,0,0,0-1.87,0,1.64,1.64,0,0,0-.35,1.11v6.26a.24.24,0,0,1-.07.17.23.23,0,0,1-.17.07H86.47a.24.24,0,0,1-.24-.24v-9.8a.23.23,0,0,1,.07-.17.24.24,0,0,1,.17-.07h2.34a.24.24,0,0,1,.24.24v.56s0,.07,0,.07.06,0,.1-.07a2.48,2.48,0,0,1,2.12-1A2.93,2.93,0,0,1,93.6,84.85Z"/><path class="cls-3" d="M101.7,80.43a.24.24,0,0,1,.17-.07h2.34a.24.24,0,0,1,.24.24V94.12a.24.24,0,0,1-.07.17.23.23,0,0,1-.17.07h-2.34a.24.24,0,0,1-.24-.24v-.44a.1.1,0,0,0,0-.08.06.06,0,0,0-.08,0,2.61,2.61,0,0,1-2.12.88q-2.44,0-3.14-3.18a10.77,10.77,0,0,1-.2-2.22,12.06,12.06,0,0,1,.18-2.1c.41-2.06,1.48-3.1,3.2-3.1a3.6,3.6,0,0,1,1.2.19,2.27,2.27,0,0,1,.88.65s0,.06.08,0a.09.09,0,0,0,0-.08V80.6A.23.23,0,0,1,101.7,80.43Zm-.09,8.77a8.59,8.59,0,0,0-.16-1.76c-.18-.73-.57-1.1-1.18-1.1a1.09,1.09,0,0,0-.76.28,1.67,1.67,0,0,0-.44.8,6.49,6.49,0,0,0-.18,1.78A7.44,7.44,0,0,0,99,90.92c.17.79.58,1.18,1.24,1.18s1-.38,1.2-1.16A8.13,8.13,0,0,0,101.61,89.2Z"/><path class="cls-3" d="M106.59,82.47a1.51,1.51,0,0,1-.44-1.13,1.57,1.57,0,0,1,.43-1.14,1.51,1.51,0,0,1,1.13-.44,1.51,1.51,0,0,1,1.58,1.58,1.52,1.52,0,0,1-.45,1.13,1.54,1.54,0,0,1-1.13.45A1.48,1.48,0,0,1,106.59,82.47Zm-.21,11.82a.21.21,0,0,1-.07-.17v-9.8a.23.23,0,0,1,.07-.17.24.24,0,0,1,.17-.07h2.34a.24.24,0,0,1,.24.24v9.8a.24.24,0,0,1-.07.17.23.23,0,0,1-.17.07h-2.34A.21.21,0,0,1,106.38,94.29Z"/><path class="cls-3" d="M110.58,94.29a.21.21,0,0,1-.07-.17V92a.51.51,0,0,1,.1-.3l3.8-4.92a.08.08,0,0,0,0-.08.1.1,0,0,0-.08,0h-3.48a.24.24,0,0,1-.24-.24V84.32a.23.23,0,0,1,.07-.17.24.24,0,0,1,.17-.07h6.76a.24.24,0,0,1,.24.24v2.14a.54.54,0,0,1-.1.3l-3.94,4.92s0,.06,0,.08,0,0,.08,0h3.84A.24.24,0,0,1,118,92v2.08a.24.24,0,0,1-.07.17.23.23,0,0,1-.17.07h-7A.21.21,0,0,1,110.58,94.29Z"/><path class="cls-3" d="M125.37,84.35a3.65,3.65,0,0,1,1.47,1.2,3.06,3.06,0,0,1,.53,1.75v6.82a.24.24,0,0,1-.07.17.23.23,0,0,1-.17.07h-2.34a.24.24,0,0,1-.24-.24v-.56a.1.1,0,0,0,0-.08.06.06,0,0,0-.08,0,2.78,2.78,0,0,1-2.36,1,3.57,3.57,0,0,1-2.27-.7,2.75,2.75,0,0,1-.91-2.34q0-3.26,4.08-3.26h1.48a.09.09,0,0,0,.1-.1v-.46a1.33,1.33,0,0,0-.35-1,1.27,1.27,0,0,0-1-.36,1.42,1.42,0,0,0-.8.22.92.92,0,0,0-.4.6.26.26,0,0,1-.28.2l-2.42-.14a.24.24,0,0,1-.17-.06.14.14,0,0,1-.05-.16,3,3,0,0,1,1.25-2.23,4.64,4.64,0,0,1,2.85-.85A5.21,5.21,0,0,1,125.37,84.35ZM124.07,92a1.2,1.2,0,0,0,.48-1v-.84a.09.09,0,0,0-.1-.1h-1.12a1.88,1.88,0,0,0-1.16.32,1.1,1.1,0,0,0-.42.92,1,1,0,0,0,.32.8,1.2,1.2,0,0,0,.84.28A1.78,1.78,0,0,0,124.07,92Z"/><path class="cls-3" d="M127,98.2V96.28c0-.17.08-.24.26-.22a2,2,0,0,0,1.45-.38,1.76,1.76,0,0,0,.41-1.3l0-10.06a.23.23,0,0,1,.07-.17.24.24,0,0,1,.17-.07h2.34a.24.24,0,0,1,.24.24v10a6.71,6.71,0,0,1-.35,2.41,2.33,2.33,0,0,1-1.36,1.28,8,8,0,0,1-3,.39A.21.21,0,0,1,127,98.2Zm2.39-15.73a1.67,1.67,0,0,1,0-2.27,1.68,1.68,0,0,1,2.27,0,1.61,1.61,0,0,1,.43,1.14,1.55,1.55,0,0,1-.44,1.13,1.63,1.63,0,0,1-2.25,0Z"/><path class="cls-3" d="M142.07,89.12l0,.78a.21.21,0,0,1-.24.24h-5.3a.09.09,0,0,0-.1.1,5.07,5.07,0,0,0,.08.68,1.36,1.36,0,0,0,.49.88,1.44,1.44,0,0,0,1,.32,1.4,1.4,0,0,0,1.36-.9.26.26,0,0,1,.3-.16l2.12.42c.16,0,.21.14.16.3a3.94,3.94,0,0,1-1.45,2,4.2,4.2,0,0,1-2.49.71,4.51,4.51,0,0,1-2.83-.81,3.78,3.78,0,0,1-1.37-2.33,12.63,12.63,0,0,1-.18-2.5,9.25,9.25,0,0,1,.12-1.62A3.68,3.68,0,0,1,135,84.83a4.74,4.74,0,0,1,5.74.12A3.88,3.88,0,0,1,142,87.66C142.05,88.1,142.07,88.59,142.07,89.12Zm-5.15-2.46a1.47,1.47,0,0,0-.45.88,4.68,4.68,0,0,0-.06.76c0,.07,0,.1.1.1h2.6a.09.09,0,0,0,.1-.1,4.68,4.68,0,0,0-.06-.76,1.46,1.46,0,0,0-.44-.87,1.39,1.39,0,0,0-1.79,0Z"/><path class="cls-3" d="M153.65,84.35a3.65,3.65,0,0,1,1.47,1.2,3.06,3.06,0,0,1,.53,1.75v6.82a.24.24,0,0,1-.07.17.23.23,0,0,1-.17.07h-2.34a.24.24,0,0,1-.24-.24v-.56a.1.1,0,0,0,0-.08.06.06,0,0,0-.08,0,2.78,2.78,0,0,1-2.36,1,3.57,3.57,0,0,1-2.27-.7,2.75,2.75,0,0,1-.91-2.34q0-3.26,4.08-3.26h1.48a.09.09,0,0,0,.1-.1v-.46a1.33,1.33,0,0,0-.35-1,1.27,1.27,0,0,0-.95-.36,1.42,1.42,0,0,0-.8.22.92.92,0,0,0-.4.6.26.26,0,0,1-.28.2l-2.42-.14a.24.24,0,0,1-.17-.06.14.14,0,0,1-.05-.16,3,3,0,0,1,1.25-2.23,4.64,4.64,0,0,1,2.85-.85A5.21,5.21,0,0,1,153.65,84.35ZM152.35,92a1.2,1.2,0,0,0,.48-1v-.84a.09.09,0,0,0-.1-.1h-1.12a1.88,1.88,0,0,0-1.16.32,1.1,1.1,0,0,0-.42.92,1,1,0,0,0,.32.8,1.2,1.2,0,0,0,.84.28A1.78,1.78,0,0,0,152.35,92Z"/><path class="cls-3" d="M162.13,93.68a2.53,2.53,0,0,1-1.1-2.16v-.16a.23.23,0,0,1,.07-.17.24.24,0,0,1,.17-.07h2.2a.24.24,0,0,1,.24.24v0a.82.82,0,0,0,.4.72,1.62,1.62,0,0,0,1,.28,1.35,1.35,0,0,0,.86-.25.76.76,0,0,0,.32-.63.65.65,0,0,0-.35-.58,8.14,8.14,0,0,0-1.13-.46,8.08,8.08,0,0,1-1-.32,5.22,5.22,0,0,1-2-1.08,2.5,2.5,0,0,1-.75-2,2.84,2.84,0,0,1,1.06-2.32,4.31,4.31,0,0,1,2.8-.86,4.38,4.38,0,0,1,2.87.89,3,3,0,0,1,1.07,2.37c0,.15-.08.22-.24.22h-2.16a.24.24,0,0,1-.24-.24v-.06a.9.9,0,0,0-.34-.7,1.46,1.46,0,0,0-.92-.28,1.39,1.39,0,0,0-.87.26.8.8,0,0,0-.33.64.71.71,0,0,0,.4.65,5.35,5.35,0,0,0,1.22.47l.35.11.31.11a7.51,7.51,0,0,1,2.18,1.11,2.35,2.35,0,0,1,.82,1.93A2.68,2.68,0,0,1,168,93.68a4.76,4.76,0,0,1-2.93.82A4.81,4.81,0,0,1,162.13,93.68Z"/><path class="cls-3" d="M170.81,82.47a1.51,1.51,0,0,1-.44-1.13,1.57,1.57,0,0,1,.43-1.14,1.51,1.51,0,0,1,1.13-.44,1.51,1.51,0,0,1,1.58,1.58,1.52,1.52,0,0,1-.45,1.13,1.54,1.54,0,0,1-1.13.45A1.48,1.48,0,0,1,170.81,82.47Zm-.21,11.82a.21.21,0,0,1-.07-.17v-9.8a.23.23,0,0,1,.07-.17.24.24,0,0,1,.17-.07h2.34a.24.24,0,0,1,.24.24v9.8a.24.24,0,0,1-.07.17.23.23,0,0,1-.17.07h-2.34A.21.21,0,0,1,170.6,94.29Z"/><path class="cls-3" d="M180.44,86.13a.23.23,0,0,1-.17.07h-1.54a.09.09,0,0,0-.1.1v4.5a1.26,1.26,0,0,0,.25.89.91.91,0,0,0,.77.25h.4a.24.24,0,0,1,.24.24v1.94a.21.21,0,0,1-.24.24c-.23,0-.56,0-1,0a4.2,4.2,0,0,1-2.35-.52,2.18,2.18,0,0,1-.77-2V86.3a.09.09,0,0,0-.1-.1h-.92a.24.24,0,0,1-.24-.24V84.32a.23.23,0,0,1,.07-.17.24.24,0,0,1,.17-.07h.92a.09.09,0,0,0,.1-.1v-2.3a.23.23,0,0,1,.07-.17.24.24,0,0,1,.17-.07h2.22a.24.24,0,0,1,.24.24V84c0,.07,0,.1.1.1h1.54a.24.24,0,0,1,.24.24V86A.24.24,0,0,1,180.44,86.13Z"/><path class="cls-3" d="M187.28,84.15a.24.24,0,0,1,.17-.07h2.34a.24.24,0,0,1,.24.24v9.8a.24.24,0,0,1-.07.17.23.23,0,0,1-.17.07h-2.34a.24.24,0,0,1-.24-.24v-.5a.07.07,0,0,0,0-.07.11.11,0,0,0-.08,0,2.48,2.48,0,0,1-2.14.92,2.94,2.94,0,0,1-3.12-3.24V84.32a.23.23,0,0,1,.07-.17.24.24,0,0,1,.17-.07h2.34a.24.24,0,0,1,.24.24V90.6a1.66,1.66,0,0,0,.33,1.1,1.13,1.13,0,0,0,.93.4,1.18,1.18,0,0,0,1-.42,1.71,1.71,0,0,0,.35-1.12V84.32A.23.23,0,0,1,187.28,84.15Z"/><path class="cls-3" d="M197.89,84.35a3.65,3.65,0,0,1,1.47,1.2,3.06,3.06,0,0,1,.53,1.75v6.82a.24.24,0,0,1-.07.17.23.23,0,0,1-.17.07h-2.34a.24.24,0,0,1-.24-.24v-.56a.1.1,0,0,0,0-.08.06.06,0,0,0-.08,0,2.78,2.78,0,0,1-2.36,1,3.57,3.57,0,0,1-2.27-.7,2.75,2.75,0,0,1-.91-2.34q0-3.26,4.08-3.26H197a.09.09,0,0,0,.1-.1v-.46a1.33,1.33,0,0,0-.35-1,1.27,1.27,0,0,0-.95-.36,1.42,1.42,0,0,0-.8.22.92.92,0,0,0-.4.6.26.26,0,0,1-.28.2l-2.42-.14a.24.24,0,0,1-.17-.06.14.14,0,0,1,0-.16,3,3,0,0,1,1.25-2.23,4.64,4.64,0,0,1,2.85-.85A5.21,5.21,0,0,1,197.89,84.35ZM196.59,92a1.2,1.2,0,0,0,.48-1v-.84a.09.09,0,0,0-.1-.1h-1.12a1.88,1.88,0,0,0-1.16.32,1.1,1.1,0,0,0-.42.92,1,1,0,0,0,.32.8,1.2,1.2,0,0,0,.84.28A1.78,1.78,0,0,0,196.59,92Z"/><path class="cls-3" d="M202.88,93.67a3.58,3.58,0,0,1-1.35-2.33,11.33,11.33,0,0,1-.16-2.16,14.64,14.64,0,0,1,.16-2.12,3.56,3.56,0,0,1,1.36-2.29,4.41,4.41,0,0,1,2.76-.85,4.51,4.51,0,0,1,2.73.82,3.45,3.45,0,0,1,1.37,2.16c0,.12.05.32.08.58a.24.24,0,0,1-.24.26l-2.3.22h0c-.12,0-.2-.07-.22-.22a.88.88,0,0,0,0-.2c0-.1-.06-.2-.08-.28a1.3,1.3,0,0,0-1.3-.92,1.24,1.24,0,0,0-.88.32,1.51,1.51,0,0,0-.44.88,9.58,9.58,0,0,0-.12,1.66,7.72,7.72,0,0,0,.14,1.72,1.5,1.5,0,0,0,.43.86,1.17,1.17,0,0,0,.87.32,1.32,1.32,0,0,0,.93-.32A1.27,1.27,0,0,0,207,91l0-.24a.32.32,0,0,1,.09-.17.2.2,0,0,1,.17,0l2.32.2a.25.25,0,0,1,.22.26c0,.08,0,.22,0,.4a3.34,3.34,0,0,1-1.31,2.3,4.53,4.53,0,0,1-2.81.84A4.34,4.34,0,0,1,202.88,93.67Z"/><path class="cls-3" d="M211.63,82.47a1.51,1.51,0,0,1-.44-1.13,1.57,1.57,0,0,1,.43-1.14,1.51,1.51,0,0,1,1.13-.44,1.51,1.51,0,0,1,1.58,1.58,1.52,1.52,0,0,1-.45,1.13,1.54,1.54,0,0,1-1.13.45A1.48,1.48,0,0,1,211.63,82.47Zm-.21,11.82a.21.21,0,0,1-.07-.17v-9.8a.23.23,0,0,1,.07-.17.24.24,0,0,1,.17-.07h2.34a.24.24,0,0,1,.24.24v9.8a.24.24,0,0,1-.07.17.23.23,0,0,1-.17.07h-2.34A.21.21,0,0,1,211.42,94.29Z"/><path class="cls-3" d="M217.32,93.65A3.51,3.51,0,0,1,216,91.26a11.73,11.73,0,0,1-.16-2.06,11.57,11.57,0,0,1,.16-2.06,3.51,3.51,0,0,1,1.33-2.35,4.48,4.48,0,0,1,2.85-.87,4.39,4.39,0,0,1,2.81.87,3.68,3.68,0,0,1,1.33,2.35,13.21,13.21,0,0,1,0,4.1A3.63,3.63,0,0,1,223,93.65a4.4,4.4,0,0,1-2.83.87A4.48,4.48,0,0,1,217.32,93.65Zm3.74-1.89a1.67,1.67,0,0,0,.49-.92,15.35,15.35,0,0,0,.1-1.64,14.67,14.67,0,0,0-.1-1.62,1.6,1.6,0,0,0-.47-.91,1.36,1.36,0,0,0-.93-.33,1.31,1.31,0,0,0-.91.33,1.49,1.49,0,0,0-.47.91,9.93,9.93,0,0,0-.1,1.62,12.32,12.32,0,0,0,.08,1.64,1.57,1.57,0,0,0,.5.92,1.31,1.31,0,0,0,.92.34A1.27,1.27,0,0,0,221.06,91.76Z"/><path class="cls-3" d="M233.46,84.85a3.78,3.78,0,0,1,.83,2.59v6.68a.21.21,0,0,1-.08.17.21.21,0,0,1-.17.07h-2.33a.21.21,0,0,1-.17-.07.21.21,0,0,1-.08-.17V87.84a1.65,1.65,0,0,0-.34-1.1,1.14,1.14,0,0,0-.91-.4,1.22,1.22,0,0,0-1,.41,1.69,1.69,0,0,0-.34,1.11v6.26a.21.21,0,0,1-.08.17.2.2,0,0,1-.16.07h-2.34a.21.21,0,0,1-.17-.07.21.21,0,0,1-.08-.17v-9.8a.25.25,0,0,1,.08-.17.24.24,0,0,1,.17-.07h2.34a.24.24,0,0,1,.16.07.25.25,0,0,1,.08.17v.56s0,.07,0,.07.05,0,.09-.07a2.51,2.51,0,0,1,2.13-1A2.93,2.93,0,0,1,233.46,84.85Z"/><path class="cls-3" d="M244.33,89.12l0,.78a.21.21,0,0,1-.24.24h-5.3a.09.09,0,0,0-.1.1,5.07,5.07,0,0,0,.08.68,1.36,1.36,0,0,0,.49.88,1.44,1.44,0,0,0,1,.32,1.4,1.4,0,0,0,1.36-.9.26.26,0,0,1,.3-.16l2.12.42c.16,0,.21.14.16.3a3.94,3.94,0,0,1-1.45,2,4.2,4.2,0,0,1-2.49.71,4.51,4.51,0,0,1-2.83-.81A3.79,3.79,0,0,1,236,91.38a12.81,12.81,0,0,1-.17-2.5,9.25,9.25,0,0,1,.12-1.62,3.68,3.68,0,0,1,1.32-2.43A4.72,4.72,0,0,1,243,85a3.85,3.85,0,0,1,1.27,2.71C244.31,88.1,244.33,88.59,244.33,89.12Zm-5.16-2.46a1.51,1.51,0,0,0-.44.88,4.68,4.68,0,0,0-.06.76c0,.07,0,.1.1.1h2.6c.06,0,.09,0,.09-.1a4.7,4.7,0,0,0-.05-.76,1.41,1.41,0,0,0-.45-.87,1.26,1.26,0,0,0-.89-.33A1.32,1.32,0,0,0,239.17,86.66Z"/><path class="cls-3" d="M246.57,93.68a2.53,2.53,0,0,1-1.1-2.16v-.16a.23.23,0,0,1,.07-.17.24.24,0,0,1,.17-.07h2.2a.24.24,0,0,1,.24.24v0a.82.82,0,0,0,.4.72,1.62,1.62,0,0,0,1,.28,1.35,1.35,0,0,0,.86-.25.76.76,0,0,0,.32-.63.65.65,0,0,0-.35-.58,8.14,8.14,0,0,0-1.13-.46,8.08,8.08,0,0,1-1-.32,5.22,5.22,0,0,1-2-1.08,2.5,2.5,0,0,1-.75-2,2.86,2.86,0,0,1,1.05-2.32,5,5,0,0,1,5.68,0,3,3,0,0,1,1.07,2.37c0,.15-.08.22-.25.22H251a.24.24,0,0,1-.24-.24v-.06a.9.9,0,0,0-.34-.7,1.46,1.46,0,0,0-.92-.28,1.39,1.39,0,0,0-.87.26.8.8,0,0,0-.33.64.71.71,0,0,0,.4.65,5.35,5.35,0,0,0,1.22.47l.35.11.31.11a7.51,7.51,0,0,1,2.18,1.11,2.35,2.35,0,0,1,.82,1.93,2.68,2.68,0,0,1-1.09,2.26,4.76,4.76,0,0,1-2.93.82A4.81,4.81,0,0,1,246.57,93.68Z"/><path class="cls-3" d="M57,108.85a3.78,3.78,0,0,1,.83,2.59v6.68a.24.24,0,0,1-.07.17.23.23,0,0,1-.17.07H55.23a.24.24,0,0,1-.24-.24v-6.28a1.7,1.7,0,0,0-.34-1.1,1.28,1.28,0,0,0-1.87,0,1.64,1.64,0,0,0-.35,1.11v6.26a.24.24,0,0,1-.07.17.23.23,0,0,1-.17.07H49.85a.24.24,0,0,1-.24-.24v-9.8a.23.23,0,0,1,.07-.17.24.24,0,0,1,.17-.07h2.34a.24.24,0,0,1,.24.24v.56s0,.07,0,.07.06,0,.1-.07a2.48,2.48,0,0,1,2.12-1A2.93,2.93,0,0,1,57,108.85Z"/><path class="cls-3" d="M64.92,108.15a.24.24,0,0,1,.17-.07h2.34a.24.24,0,0,1,.24.24v9.8a.24.24,0,0,1-.07.17.23.23,0,0,1-.17.07H65.09a.24.24,0,0,1-.24-.24v-.5a.07.07,0,0,0,0-.07.11.11,0,0,0-.08,0,2.48,2.48,0,0,1-2.14.92,2.94,2.94,0,0,1-3.12-3.24v-6.94a.23.23,0,0,1,.07-.17.24.24,0,0,1,.17-.07h2.34a.24.24,0,0,1,.24.24v6.28a1.66,1.66,0,0,0,.33,1.1,1.13,1.13,0,0,0,.93.4,1.18,1.18,0,0,0,1-.42,1.71,1.71,0,0,0,.35-1.12v-6.24A.23.23,0,0,1,64.92,108.15Z"/><path class="cls-3" d="M77.79,113.12l0,.78a.21.21,0,0,1-.24.24h-5.3a.09.09,0,0,0-.1.1,5.07,5.07,0,0,0,.08.68,1.36,1.36,0,0,0,.49.88,1.44,1.44,0,0,0,1,.32,1.4,1.4,0,0,0,1.36-.9.26.26,0,0,1,.3-.16l2.12.42c.16,0,.21.14.16.3a3.94,3.94,0,0,1-1.45,2,4.2,4.2,0,0,1-2.49.71,4.51,4.51,0,0,1-2.83-.81,3.78,3.78,0,0,1-1.37-2.33,12.63,12.63,0,0,1-.18-2.5,9.25,9.25,0,0,1,.12-1.62,3.68,3.68,0,0,1,1.32-2.43,4.74,4.74,0,0,1,5.74.12,3.88,3.88,0,0,1,1.26,2.71C77.77,112.1,77.79,112.59,77.79,113.12Zm-5.15-2.46a1.47,1.47,0,0,0-.45.88,4.68,4.68,0,0,0-.06.76c0,.07,0,.1.1.1h2.6a.09.09,0,0,0,.1-.1,4.68,4.68,0,0,0-.06-.76,1.46,1.46,0,0,0-.44-.87,1.39,1.39,0,0,0-1.79,0Z"/><path class="cls-3" d="M81.19,118.16l-2.8-9.84,0-.08c0-.12.07-.18.22-.18h2.56a.25.25,0,0,1,.26.22l1.3,6c0,.06,0,.08.06.08s0,0,.06-.08l1.28-6a.24.24,0,0,1,.26-.22l2.56,0c.17,0,.24.09.2.26l-2.76,9.8a.26.26,0,0,1-.28.2H81.47A.26.26,0,0,1,81.19,118.16Z"/><path class="cls-3" d="M94.09,108.35a3.65,3.65,0,0,1,1.47,1.2,3.06,3.06,0,0,1,.53,1.75v6.82a.24.24,0,0,1-.07.17.23.23,0,0,1-.17.07H93.51a.24.24,0,0,1-.24-.24v-.56a.1.1,0,0,0,0-.08.06.06,0,0,0-.08,0,2.78,2.78,0,0,1-2.36,1,3.57,3.57,0,0,1-2.27-.7,2.75,2.75,0,0,1-.91-2.34q0-3.26,4.08-3.26h1.48a.09.09,0,0,0,.1-.1v-.46a1.33,1.33,0,0,0-.35-1,1.27,1.27,0,0,0-1-.36,1.42,1.42,0,0,0-.8.22.92.92,0,0,0-.4.6.26.26,0,0,1-.28.2l-2.42-.14a.24.24,0,0,1-.17-.06.14.14,0,0,1-.05-.16,3,3,0,0,1,1.25-2.23,4.64,4.64,0,0,1,2.85-.85A5.21,5.21,0,0,1,94.09,108.35ZM92.79,116a1.2,1.2,0,0,0,.48-1v-.84a.09.09,0,0,0-.1-.1H92.05a1.88,1.88,0,0,0-1.16.32,1.1,1.1,0,0,0-.42.92,1,1,0,0,0,.32.8,1.2,1.2,0,0,0,.84.28A1.78,1.78,0,0,0,92.79,116Z"/><path class="cls-3" d="M98.57,117.68a2.53,2.53,0,0,1-1.1-2.16v-.16a.23.23,0,0,1,.07-.17.24.24,0,0,1,.17-.07h2.2a.24.24,0,0,1,.24.24v0a.82.82,0,0,0,.4.72,1.62,1.62,0,0,0,1,.28,1.35,1.35,0,0,0,.86-.25.76.76,0,0,0,.32-.63.65.65,0,0,0-.35-.58,8.14,8.14,0,0,0-1.13-.46,8.08,8.08,0,0,1-1-.32,5.22,5.22,0,0,1-2-1.08,2.5,2.5,0,0,1-.75-2,2.84,2.84,0,0,1,1.06-2.32,4.31,4.31,0,0,1,2.8-.86,4.38,4.38,0,0,1,2.87.89,3,3,0,0,1,1.07,2.37c0,.15-.08.22-.24.22H103a.24.24,0,0,1-.24-.24v-.06a.9.9,0,0,0-.34-.7,1.46,1.46,0,0,0-.92-.28,1.39,1.39,0,0,0-.87.26.8.8,0,0,0-.33.64.71.71,0,0,0,.4.65,5.35,5.35,0,0,0,1.22.47l.35.11.31.11a7.51,7.51,0,0,1,2.18,1.11,2.35,2.35,0,0,1,.82,1.93,2.68,2.68,0,0,1-1.09,2.26,4.76,4.76,0,0,1-2.93.82A4.81,4.81,0,0,1,98.57,117.68Z"/><path class="cls-3" d="M116.46,104.43a.24.24,0,0,1,.17-.07H119a.24.24,0,0,1,.24.24v13.52a.24.24,0,0,1-.07.17.23.23,0,0,1-.17.07h-2.34a.24.24,0,0,1-.24-.24v-.44a.1.1,0,0,0,0-.08.06.06,0,0,0-.08,0,2.61,2.61,0,0,1-2.12.88q-2.45,0-3.14-3.18a10.77,10.77,0,0,1-.2-2.22A12.06,12.06,0,0,1,111,111c.41-2.06,1.48-3.1,3.2-3.1a3.6,3.6,0,0,1,1.2.19,2.27,2.27,0,0,1,.88.65s0,.06.08,0a.09.09,0,0,0,0-.08V104.6A.23.23,0,0,1,116.46,104.43Zm-.09,8.77a8.59,8.59,0,0,0-.16-1.76c-.18-.73-.57-1.1-1.18-1.1a1.09,1.09,0,0,0-.76.28,1.67,1.67,0,0,0-.44.8,6.49,6.49,0,0,0-.18,1.78,7.44,7.44,0,0,0,.14,1.72c.17.79.58,1.18,1.24,1.18s1-.38,1.2-1.16A8.13,8.13,0,0,0,116.37,113.2Z"/><path class="cls-3" d="M129.33,113.12l0,.78a.21.21,0,0,1-.24.24h-5.3a.09.09,0,0,0-.1.1,5.07,5.07,0,0,0,.08.68,1.36,1.36,0,0,0,.49.88,1.44,1.44,0,0,0,1,.32,1.4,1.4,0,0,0,1.36-.9.26.26,0,0,1,.3-.16l2.12.42c.16,0,.21.14.16.3a3.94,3.94,0,0,1-1.45,2,4.2,4.2,0,0,1-2.49.71,4.51,4.51,0,0,1-2.83-.81,3.78,3.78,0,0,1-1.37-2.33,12.63,12.63,0,0,1-.18-2.5,9.25,9.25,0,0,1,.12-1.62,3.68,3.68,0,0,1,1.32-2.43A4.74,4.74,0,0,1,128,109a3.88,3.88,0,0,1,1.26,2.71C129.31,112.1,129.33,112.59,129.33,113.12Zm-5.15-2.46a1.47,1.47,0,0,0-.45.88,4.68,4.68,0,0,0-.06.76c0,.07,0,.1.1.1h2.6a.09.09,0,0,0,.1-.1,4.68,4.68,0,0,0-.06-.76,1.46,1.46,0,0,0-.44-.87,1.39,1.39,0,0,0-1.79,0Z"/><path class="cls-3" d="M138.22,108.85a3.78,3.78,0,0,1,.83,2.59v6.68a.24.24,0,0,1-.07.17.23.23,0,0,1-.17.07h-2.34a.24.24,0,0,1-.24-.24v-6.28a1.7,1.7,0,0,0-.34-1.1,1.28,1.28,0,0,0-1.87,0,1.64,1.64,0,0,0-.35,1.11v6.26a.24.24,0,0,1-.07.17.23.23,0,0,1-.17.07h-2.34a.24.24,0,0,1-.24-.24v-9.8a.23.23,0,0,1,.07-.17.24.24,0,0,1,.17-.07h2.34a.24.24,0,0,1,.24.24v.56s0,.07,0,.07.06,0,.1-.07a2.48,2.48,0,0,1,2.12-1A2.93,2.93,0,0,1,138.22,108.85Z"/><path class="cls-3" d="M146,110.13a.23.23,0,0,1-.17.07h-1.54a.09.09,0,0,0-.1.1v4.5a1.26,1.26,0,0,0,.25.89.91.91,0,0,0,.77.25h.4a.24.24,0,0,1,.24.24v1.94a.21.21,0,0,1-.24.24c-.23,0-.56,0-1,0a4.2,4.2,0,0,1-2.35-.52,2.18,2.18,0,0,1-.77-2v-5.6a.09.09,0,0,0-.1-.1h-.92a.24.24,0,0,1-.24-.24v-1.64a.23.23,0,0,1,.07-.17.24.24,0,0,1,.17-.07h.92a.09.09,0,0,0,.1-.1v-2.3a.23.23,0,0,1,.07-.17.24.24,0,0,1,.17-.07H144a.24.24,0,0,1,.24.24V108c0,.07,0,.1.1.1h1.54a.24.24,0,0,1,.24.24V110A.24.24,0,0,1,146,110.13Z"/><path class="cls-3" d="M153.35,108.18a.31.31,0,0,1,.12.32l-.4,2.3c0,.16-.11.21-.28.14a2.67,2.67,0,0,0-.58-.08,2.44,2.44,0,0,0-.52.06,1.52,1.52,0,0,0-1,.56,1.74,1.74,0,0,0-.4,1.16v5.48a.24.24,0,0,1-.07.17.23.23,0,0,1-.17.07h-2.34a.24.24,0,0,1-.24-.24v-9.8a.23.23,0,0,1,.07-.17.24.24,0,0,1,.17-.07h2.34a.24.24,0,0,1,.24.24v.8q0,.09,0,.09s0,0,.07,0a2.16,2.16,0,0,1,2-1.22A2,2,0,0,1,153.35,108.18Z"/><path class="cls-3" d="M155.66,117.65a3.51,3.51,0,0,1-1.33-2.39,11.73,11.73,0,0,1-.16-2.06,11.57,11.57,0,0,1,.16-2.06,3.51,3.51,0,0,1,1.33-2.35,4.48,4.48,0,0,1,2.85-.87,4.39,4.39,0,0,1,2.81.87,3.68,3.68,0,0,1,1.33,2.35,13.21,13.21,0,0,1,0,4.1,3.63,3.63,0,0,1-1.31,2.41,4.4,4.4,0,0,1-2.83.87A4.48,4.48,0,0,1,155.66,117.65Zm3.74-1.89a1.67,1.67,0,0,0,.49-.92,15.35,15.35,0,0,0,.1-1.64,14.67,14.67,0,0,0-.1-1.62,1.6,1.6,0,0,0-.47-.91,1.36,1.36,0,0,0-.93-.33,1.31,1.31,0,0,0-.91.33,1.49,1.49,0,0,0-.47.91,9.93,9.93,0,0,0-.1,1.62,12.32,12.32,0,0,0,.08,1.64,1.57,1.57,0,0,0,.5.92,1.31,1.31,0,0,0,.92.34A1.27,1.27,0,0,0,159.4,115.76Z"/><path class="cls-3" d="M169.72,117.65a3.51,3.51,0,0,1-1.33-2.39,11.73,11.73,0,0,1-.16-2.06,11.57,11.57,0,0,1,.16-2.06,3.51,3.51,0,0,1,1.33-2.35,4.48,4.48,0,0,1,2.85-.87,4.39,4.39,0,0,1,2.81.87,3.68,3.68,0,0,1,1.33,2.35,13.21,13.21,0,0,1,0,4.1,3.63,3.63,0,0,1-1.31,2.41,4.4,4.4,0,0,1-2.83.87A4.48,4.48,0,0,1,169.72,117.65Zm3.74-1.89a1.67,1.67,0,0,0,.49-.92,15.35,15.35,0,0,0,.1-1.64,14.67,14.67,0,0,0-.1-1.62,1.6,1.6,0,0,0-.47-.91,1.36,1.36,0,0,0-.93-.33,1.31,1.31,0,0,0-.91.33,1.49,1.49,0,0,0-.47.91,9.93,9.93,0,0,0-.1,1.62,12.32,12.32,0,0,0,.08,1.64,1.57,1.57,0,0,0,.5.92,1.31,1.31,0,0,0,.92.34A1.27,1.27,0,0,0,173.46,115.76Z"/><path class="cls-3" d="M187.86,108.15a.28.28,0,0,1,.07.17V110a.24.24,0,0,1-.07.17.23.23,0,0,1-.17.07h-1.52a.09.09,0,0,0-.1.1v7.76a.24.24,0,0,1-.07.17.23.23,0,0,1-.17.07h-2.34a.24.24,0,0,1-.24-.24v-7.76a.09.09,0,0,0-.1-.1h-.88A.24.24,0,0,1,182,110v-1.7a.23.23,0,0,1,.07-.17.24.24,0,0,1,.17-.07h.88a.09.09,0,0,0,.1-.1v-.5a3.86,3.86,0,0,1,.4-1.92,2.16,2.16,0,0,1,1.25-1,7.08,7.08,0,0,1,2.25-.24h.4a.24.24,0,0,1,.24.24v1.6a.24.24,0,0,1-.07.17.23.23,0,0,1-.17.07h-.36a1.2,1.2,0,0,0-.86.31,1.38,1.38,0,0,0-.26,1v.3c0,.07,0,.1.1.1h1.52A.28.28,0,0,1,187.86,108.15Z"/><path class="cls-3" d="M194.7,108.15a.24.24,0,0,1,.17-.07h2.34a.24.24,0,0,1,.24.24v9.8a.24.24,0,0,1-.07.17.23.23,0,0,1-.17.07h-2.34a.24.24,0,0,1-.24-.24v-.5a.07.07,0,0,0,0-.07.11.11,0,0,0-.08,0,2.48,2.48,0,0,1-2.14.92,2.94,2.94,0,0,1-3.12-3.24v-6.94a.23.23,0,0,1,.07-.17.24.24,0,0,1,.17-.07h2.34a.24.24,0,0,1,.24.24v6.28a1.66,1.66,0,0,0,.33,1.1,1.13,1.13,0,0,0,.93.4,1.18,1.18,0,0,0,.95-.42,1.71,1.71,0,0,0,.35-1.12v-6.24A.23.23,0,0,1,194.7,108.15Z"/><path class="cls-3" d="M207.57,113.12l0,.78a.21.21,0,0,1-.24.24H202a.09.09,0,0,0-.1.1,5.07,5.07,0,0,0,.08.68,1.36,1.36,0,0,0,.49.88,1.44,1.44,0,0,0,1,.32,1.4,1.4,0,0,0,1.36-.9.26.26,0,0,1,.3-.16l2.12.42c.16,0,.21.14.16.3a3.94,3.94,0,0,1-1.45,2,4.2,4.2,0,0,1-2.49.71,4.51,4.51,0,0,1-2.83-.81,3.78,3.78,0,0,1-1.37-2.33,12.63,12.63,0,0,1-.18-2.5,9.25,9.25,0,0,1,.12-1.62,3.68,3.68,0,0,1,1.32-2.43,4.74,4.74,0,0,1,5.74.12,3.88,3.88,0,0,1,1.26,2.71C207.55,112.1,207.57,112.59,207.57,113.12Zm-5.15-2.46a1.47,1.47,0,0,0-.45.88,4.68,4.68,0,0,0-.06.76c0,.07,0,.1.1.1h2.6a.09.09,0,0,0,.1-.1,4.68,4.68,0,0,0-.06-.76,1.46,1.46,0,0,0-.44-.87,1.39,1.39,0,0,0-1.79,0Z"/><path class="cls-3" d="M215,108.18a.31.31,0,0,1,.12.32l-.4,2.3c0,.16-.11.21-.28.14a2.67,2.67,0,0,0-.58-.08,2.44,2.44,0,0,0-.52.06,1.52,1.52,0,0,0-1,.56,1.74,1.74,0,0,0-.4,1.16v5.48a.24.24,0,0,1-.07.17.23.23,0,0,1-.17.07h-2.34a.24.24,0,0,1-.24-.24v-9.8a.23.23,0,0,1,.07-.17.24.24,0,0,1,.17-.07h2.34a.24.24,0,0,1,.24.24v.8q0,.09,0,.09s0,0,.07,0a2.16,2.16,0,0,1,2-1.22A2,2,0,0,1,215,108.18Z"/><path class="cls-3" d="M222.12,108.35a3.61,3.61,0,0,1,1.48,1.2,3.05,3.05,0,0,1,.52,1.75v6.82a.22.22,0,0,1-.23.24h-2.35a.2.2,0,0,1-.16-.07.21.21,0,0,1-.07-.17v-.56a.1.1,0,0,0,0-.08.06.06,0,0,0-.08,0,2.78,2.78,0,0,1-2.36,1,3.57,3.57,0,0,1-2.27-.7,2.75,2.75,0,0,1-.91-2.34c0-2.17,1.35-3.26,4.08-3.26h1.48a.09.09,0,0,0,.1-.1v-.46a1.33,1.33,0,0,0-.35-1,1.28,1.28,0,0,0-1-.36,1.41,1.41,0,0,0-.79.22.92.92,0,0,0-.4.6.26.26,0,0,1-.28.2l-2.42-.14a.24.24,0,0,1-.17-.06.14.14,0,0,1-.05-.16,3,3,0,0,1,1.25-2.23,4.64,4.64,0,0,1,2.85-.85A5.13,5.13,0,0,1,222.12,108.35ZM220.83,116a1.2,1.2,0,0,0,.48-1v-.84a.09.09,0,0,0-.1-.1h-1.13a1.92,1.92,0,0,0-1.16.32,1.12,1.12,0,0,0-.42.92,1,1,0,0,0,.33.8,1.2,1.2,0,0,0,.84.28A1.8,1.8,0,0,0,220.83,116Z"/><path class="cls-3" d="M55.16,128.43a.24.24,0,0,1,.17-.07h2.34a.24.24,0,0,1,.24.24v13.52a.24.24,0,0,1-.07.17.23.23,0,0,1-.17.07H55.33a.24.24,0,0,1-.24-.24v-.44a.1.1,0,0,0,0-.08.06.06,0,0,0-.08,0,2.61,2.61,0,0,1-2.12.88q-2.45,0-3.14-3.18a10.77,10.77,0,0,1-.2-2.22,12.06,12.06,0,0,1,.18-2.1c.41-2.06,1.48-3.1,3.2-3.1a3.6,3.6,0,0,1,1.2.19,2.27,2.27,0,0,1,.88.65s.05.06.08,0a.09.09,0,0,0,0-.08V128.6A.23.23,0,0,1,55.16,128.43Zm-.09,8.77a8.59,8.59,0,0,0-.16-1.76c-.18-.73-.57-1.1-1.18-1.1a1.09,1.09,0,0,0-.76.28,1.67,1.67,0,0,0-.44.8,6.49,6.49,0,0,0-.18,1.78,7.44,7.44,0,0,0,.14,1.72c.17.79.58,1.18,1.24,1.18s1-.38,1.2-1.16A8.13,8.13,0,0,0,55.07,137.2Z"/><path class="cls-3" d="M68,137.12l0,.78a.21.21,0,0,1-.24.24h-5.3a.09.09,0,0,0-.1.1,5.07,5.07,0,0,0,.08.68,1.36,1.36,0,0,0,.49.88,1.44,1.44,0,0,0,1,.32,1.4,1.4,0,0,0,1.36-.9.26.26,0,0,1,.3-.16l2.12.42c.16,0,.21.14.16.3a3.94,3.94,0,0,1-1.45,2,4.2,4.2,0,0,1-2.49.71,4.51,4.51,0,0,1-2.83-.81,3.78,3.78,0,0,1-1.37-2.33,12.63,12.63,0,0,1-.18-2.5,9.25,9.25,0,0,1,.12-1.62A3.68,3.68,0,0,1,61,132.83a4.74,4.74,0,0,1,5.74.12A3.88,3.88,0,0,1,68,135.66C68,136.1,68,136.59,68,137.12Zm-5.15-2.46a1.47,1.47,0,0,0-.45.88,4.68,4.68,0,0,0-.06.76c0,.07,0,.1.1.1h2.6a.09.09,0,0,0,.1-.1,4.68,4.68,0,0,0-.06-.76,1.46,1.46,0,0,0-.44-.87,1.39,1.39,0,0,0-1.79,0Z"/><path class="cls-3" d="M69.58,142.29a.21.21,0,0,1-.07-.17V128.6a.23.23,0,0,1,.07-.17.24.24,0,0,1,.17-.07h2.34a.24.24,0,0,1,.24.24v13.52a.24.24,0,0,1-.07.17.23.23,0,0,1-.17.07H69.75A.21.21,0,0,1,69.58,142.29Z"/><path class="cls-3" d="M84.15,132.35a3.65,3.65,0,0,1,1.47,1.2,3.06,3.06,0,0,1,.53,1.75v6.82a.24.24,0,0,1-.07.17.23.23,0,0,1-.17.07H83.57a.24.24,0,0,1-.24-.24v-.56a.1.1,0,0,0,0-.08.06.06,0,0,0-.08,0,2.78,2.78,0,0,1-2.36,1,3.57,3.57,0,0,1-2.27-.7,2.75,2.75,0,0,1-.91-2.34q0-3.25,4.08-3.26h1.48a.09.09,0,0,0,.1-.1v-.46a1.33,1.33,0,0,0-.35-1,1.27,1.27,0,0,0-1-.36,1.42,1.42,0,0,0-.8.22.92.92,0,0,0-.4.6.26.26,0,0,1-.28.2l-2.42-.14a.24.24,0,0,1-.17-.06.14.14,0,0,1,0-.16,3,3,0,0,1,1.25-2.23,4.64,4.64,0,0,1,2.85-.85A5.21,5.21,0,0,1,84.15,132.35ZM82.85,140a1.2,1.2,0,0,0,.48-1v-.84a.09.09,0,0,0-.1-.1H82.11a1.88,1.88,0,0,0-1.16.32,1.1,1.1,0,0,0-.42.92,1,1,0,0,0,.32.8,1.2,1.2,0,0,0,.84.28A1.78,1.78,0,0,0,82.85,140Z"/><path class="cls-3" d="M93.2,132.15a.24.24,0,0,1,.17-.07h2.34a.24.24,0,0,1,.24.24v9.8a.24.24,0,0,1-.07.17.23.23,0,0,1-.17.07H93.37a.24.24,0,0,1-.24-.24v-.5a.07.07,0,0,0,0-.07.11.11,0,0,0-.08,0,2.48,2.48,0,0,1-2.14.92,2.94,2.94,0,0,1-3.12-3.24v-6.94a.23.23,0,0,1,.07-.17.24.24,0,0,1,.17-.07h2.34a.24.24,0,0,1,.24.24v6.28a1.66,1.66,0,0,0,.33,1.1,1.13,1.13,0,0,0,.93.4,1.18,1.18,0,0,0,1-.42,1.71,1.71,0,0,0,.35-1.12v-6.24A.23.23,0,0,1,93.2,132.15Z"/><path class="cls-3" d="M97.78,142.29a.21.21,0,0,1-.07-.17V128.6a.23.23,0,0,1,.07-.17.24.24,0,0,1,.17-.07h2.34a.24.24,0,0,1,.24.24v13.52a.24.24,0,0,1-.07.17.23.23,0,0,1-.17.07H98A.21.21,0,0,1,97.78,142.29Z"/><path class="cls-3" d="M108.35,132.35a3.65,3.65,0,0,1,1.47,1.2,3.06,3.06,0,0,1,.53,1.75v6.82a.24.24,0,0,1-.07.17.23.23,0,0,1-.17.07h-2.34a.24.24,0,0,1-.24-.24v-.56a.1.1,0,0,0,0-.08.06.06,0,0,0-.08,0,2.78,2.78,0,0,1-2.36,1,3.57,3.57,0,0,1-2.27-.7,2.75,2.75,0,0,1-.91-2.34q0-3.25,4.08-3.26h1.48a.09.09,0,0,0,.1-.1v-.46a1.33,1.33,0,0,0-.35-1,1.27,1.27,0,0,0-1-.36,1.42,1.42,0,0,0-.8.22.92.92,0,0,0-.4.6.26.26,0,0,1-.28.2l-2.42-.14a.24.24,0,0,1-.17-.06.14.14,0,0,1,0-.16,3,3,0,0,1,1.25-2.23,4.64,4.64,0,0,1,2.85-.85A5.21,5.21,0,0,1,108.35,132.35Zm-1.3,7.65a1.2,1.2,0,0,0,.48-1v-.84a.09.09,0,0,0-.1-.1h-1.12a1.88,1.88,0,0,0-1.16.32,1.1,1.1,0,0,0-.42.92,1,1,0,0,0,.32.8,1.2,1.2,0,0,0,.84.28A1.78,1.78,0,0,0,107.05,140Z"/><path class="cls-3" d="M114.28,137.85a.21.21,0,0,1-.07-.17V137a2.66,2.66,0,0,1,.46-1.62,6.39,6.39,0,0,1,1.34-1.28,6.79,6.79,0,0,0,1-1,1.61,1.61,0,0,0,.34-1,1.4,1.4,0,0,0-.39-1,1.42,1.42,0,0,0-1-.39,1.54,1.54,0,0,0-1.12.41,1.47,1.47,0,0,0-.42,1.09v.32c0,.15-.08.22-.24.22l-2.34-.1a.24.24,0,0,1-.24-.24v-.2a4,4,0,0,1,.56-2.13,3.71,3.71,0,0,1,1.57-1.44,5,5,0,0,1,2.31-.51,4.35,4.35,0,0,1,3.07,1.07,3.72,3.72,0,0,1,1.15,2.83,3.8,3.8,0,0,1-.28,1.51,3.48,3.48,0,0,1-.68,1,11.23,11.23,0,0,1-1,.88,6.35,6.35,0,0,0-1,.86,1.34,1.34,0,0,0-.3.88v.46a.24.24,0,0,1-.07.17.23.23,0,0,1-.17.07h-2.32A.21.21,0,0,1,114.28,137.85Zm.16,4.1a1.64,1.64,0,0,1,0-2.25,1.54,1.54,0,0,1,1.14-.44,1.58,1.58,0,0,1,1.14.44,1.55,1.55,0,0,1,.44,1.12,1.52,1.52,0,0,1-.45,1.13,1.54,1.54,0,0,1-1.13.45A1.52,1.52,0,0,1,114.44,142Z"/><path class="cls-3" d="M33,64.73a.26.26,0,0,1,.08.19v2.26a.27.27,0,0,1-.27.27H32a.1.1,0,0,0-.11.11V71.1a.25.25,0,0,1-.08.18.22.22,0,0,1-.18.08H29a.27.27,0,0,1-.26-.26V67.56a.1.1,0,0,0-.11-.11H22.53a.27.27,0,0,1-.19-.08.25.25,0,0,1-.07-.19V65.4a1.16,1.16,0,0,1,.06-.33l3.43-8.91a.3.3,0,0,1,.31-.2h2.75c.22,0,.3.1.22.31l-3.17,8.25c0,.09,0,.13.09.13h2.71a.1.1,0,0,0,.11-.11V62a.22.22,0,0,1,.08-.18.25.25,0,0,1,.18-.08h2.58a.27.27,0,0,1,.26.26v2.51a.1.1,0,0,0,.11.11h.81A.26.26,0,0,1,33,64.73Z"/><path class="cls-3" d="M35.15,71a1.81,1.81,0,0,1,0-2.49,1.84,1.84,0,0,1,2.5,0A1.76,1.76,0,0,1,35.15,71Z"/></g></g></svg>