<?xml version="1.0" encoding="utf-8"?>
<!-- Generator: Adobe Illustrator 22.1.0, SVG Export Plug-In . SVG Version: 6.00 Build 0)  -->
<svg version="1.1" id="Capa_1" xmlns="http://www.w3.org/2000/svg" xmlns:xlink="http://www.w3.org/1999/xlink" x="0px" y="0px"
	 viewBox="0 0 306.5 198.5" style="enable-background:new 0 0 306.5 198.5;" xml:space="preserve">
<style type="text/css">
	.st0{fill:#E9E8F5;}
	.st1{opacity:0.8;fill:#3A4A9A;enable-background:new    ;}
	.st2{fill:none;stroke:#00B6ED;stroke-width:0.5;stroke-miterlimit:10;}
	.st3{enable-background:new    ;}
	.st4{fill:#1D1D1B;}
	.st5{fill:#EA5297;}
	.st6{fill:#3A4A9A;}
</style>
<title>05-4</title>
<g id="Capa_2_1_">
	<g id="Capa_1-2">
		<path class="st0" d="M174,49.6c-0.1-0.6-0.3-1.1-0.4-1.7c0.8-0.7,1.4-1.6,1.6-2.6c2.4-0.4,3.9-2.7,3.5-5.1
			c-0.2-1.2-0.9-2.2-1.9-2.9c1.7-2.5,1-5.9-1.5-7.6c-0.6-0.4-1.4-0.7-2.1-0.8c-0.7-2.3-2.8-3.9-5.3-3.9c-0.6,0-1.3,0.1-1.9,0.3
			c-1.2-2.8-4.5-4-7.3-2.8c-0.8,0.4-1.5,0.9-2.1,1.6c-1.5-2.6-4.9-3.5-7.5-1.9c-0.8,0.5-1.5,1.1-1.9,1.9c-1.6-2.2-4.6-2.8-6.8-1.2
			c-1.2,0.8-1.9,2.1-2.1,3.5c-2.7-2.2-6.7-1.8-8.9,0.9c-0.9,1.1-1.4,2.5-1.4,4c0,0.6,0.1,1.2,0.2,1.7c-1.6-1.2-3.9-0.8-5.1,0.9
			c-1,1.4-0.9,3.3,0.3,4.6c-0.1,0-0.3-0.1-0.5-0.1c-0.1,0-0.3,0-0.4,0h-0.1c-1.9,0-3.5,1.5-3.5,3.5c0,1.2,0.6,2.3,1.5,2.9h-0.2
			c-2.6,0.1-4.6,2.2-4.5,4.8c0.1,1.7,1,3.3,2.6,4c-1.6,1.1-1.9,3.3-0.8,4.9c0.5,0.8,1.3,1.3,2.3,1.4c-1.2,1.6-1.4,3.8-0.5,5.6
			c0.7,1.6,2.4,2.5,4.1,2.4c0.1,0,0.1,0,0.2,0c-0.2,0.5-0.3,1-0.3,1.6c0,2.2,1.8,4,4,4h0.1c0,0.2,0,0.4-0.1,0.7c0,2.2,1.8,4,4,4
			c0.3,0,0.7,0,1-0.1c0.2,2,2,3.5,4,3.5h0.2"/>
		<path class="st0" d="M161.1,96.5c0,0-2.1-5.1-0.7-7s9.5-1.3,15.2-6.3c1.7-1.4,3.2-3.1,4.3-5c0.3-0.5,0.1-1.1-0.3-1.4
			c-0.1-0.1-0.3-0.1-0.4-0.1c-1.5-0.2-3.8-0.8-4.7-2.9c-0.2-0.5,0-1.1,0.5-1.3c0.1-0.1,0.3-0.1,0.5-0.1l5.5-0.2c0.6,0,1-0.4,1.1-0.9
			c0-0.1,0-0.3-0.1-0.4c-0.3-1.1-0.8-2.8-1.1-3.9c-0.1-0.4,0-0.9,0.4-1.1c1.8-1.2,2.9-2.5,3.2-4.1c0.9-5.7-5.2-1.7-6.1-4
			c-1.7-4.2,0.1-8.9-2.1-16.4c-2.8-9.4-14.9-19.1-33.8-13.7C120.9,34,117.9,55.8,125,68.9c6.8,12.4,15.1,12.8,14.5,17.7
			s-0.3,6-0.3,6"/>
		<circle class="st1" cx="171" cy="55.3" r="2.8"/>
		<rect x="0.2" y="0.2" class="st2" width="306" height="198"/>
		<g class="st3">
			<path class="st4" d="M28.4,119.1V111c0-0.1,0-0.1,0.1-0.1h0.6c0.1,0,0.1,0,0.1,0.1v7.5c0,0,0,0,0,0h3.5c0.1,0,0.1,0,0.1,0.1v0.5
				c0,0.1,0,0.1-0.1,0.1h-4.3C28.4,119.2,28.4,119.2,28.4,119.1z"/>
			<path class="st4" d="M34.6,118.9c-0.4-0.3-0.6-0.7-0.7-1.3c0-0.4-0.1-0.9-0.1-1.4s0-1,0.1-1.4c0.1-0.5,0.3-1,0.7-1.3
				c0.4-0.3,0.9-0.5,1.4-0.5s1.1,0.2,1.4,0.5c0.4,0.3,0.6,0.7,0.7,1.3c0,0.3,0.1,0.8,0.1,1.4c0,0.6,0,1.1-0.1,1.4
				c-0.1,0.5-0.3,1-0.7,1.3c-0.4,0.3-0.9,0.5-1.4,0.5S35,119.2,34.6,118.9z M36.9,118.3c0.2-0.2,0.4-0.5,0.4-0.8c0-0.3,0-0.7,0-1.2
				c0-0.5,0-0.9,0-1.2c0-0.4-0.2-0.6-0.4-0.8c-0.2-0.2-0.5-0.3-0.9-0.3s-0.6,0.1-0.9,0.3c-0.2,0.2-0.4,0.5-0.4,0.8
				c0,0.3,0,0.7,0,1.2s0,0.9,0,1.2c0,0.4,0.2,0.6,0.4,0.8c0.2,0.2,0.5,0.3,0.9,0.3C36.4,118.6,36.7,118.5,36.9,118.3z"/>
			<path class="st4" d="M40.1,118.9c-0.4-0.3-0.6-0.7-0.6-1.1v-0.1c0-0.1,0-0.1,0.1-0.1h0.6c0.1,0,0.1,0,0.1,0.1v0.1
				c0,0.3,0.1,0.5,0.3,0.7c0.2,0.2,0.5,0.3,0.9,0.3c0.4,0,0.6-0.1,0.9-0.3c0.2-0.2,0.3-0.4,0.3-0.7c0-0.2-0.1-0.4-0.2-0.5
				c-0.1-0.1-0.3-0.2-0.4-0.3c-0.2-0.1-0.4-0.2-0.7-0.3c-0.4-0.1-0.7-0.3-0.9-0.4c-0.2-0.1-0.5-0.3-0.6-0.5
				c-0.2-0.2-0.3-0.5-0.3-0.9c0-0.5,0.2-0.9,0.5-1.2c0.4-0.3,0.8-0.5,1.4-0.5c0.6,0,1.1,0.2,1.5,0.5c0.4,0.3,0.5,0.7,0.5,1.2v0
				c0,0.1,0,0.1-0.1,0.1h-0.6c-0.1,0-0.1,0-0.1-0.1v0c0-0.3-0.1-0.5-0.3-0.7c-0.2-0.2-0.5-0.3-0.9-0.3c-0.3,0-0.6,0.1-0.8,0.3
				s-0.3,0.4-0.3,0.7c0,0.3,0.1,0.5,0.3,0.6s0.5,0.3,1,0.5c0.4,0.1,0.7,0.3,1,0.4s0.5,0.3,0.7,0.5c0.2,0.2,0.3,0.5,0.3,0.9
				c0,0.5-0.2,0.9-0.6,1.2c-0.4,0.3-0.9,0.5-1.5,0.5S40.4,119.2,40.1,118.9z"/>
		</g>
		<g class="st3">
			<path class="st4" d="M50.1,118.4c0.2-0.2,0.4-0.4,0.5-0.6c0-0.1,0.1-0.1,0.1-0.1l0.6,0.1c0,0,0.1,0,0.1,0.1c0,0,0,0.1,0,0.1
				c-0.1,0.4-0.4,0.8-0.7,1.1s-0.8,0.4-1.3,0.4c-0.6,0-1.1-0.2-1.4-0.5c-0.4-0.3-0.6-0.7-0.7-1.3c0-0.2-0.1-0.4-0.1-0.7
				c0-0.3,0-0.5,0-0.7s0-0.3,0-0.4c0-0.4,0-0.7,0-1c0.1-0.5,0.3-1,0.7-1.3c0.4-0.3,0.9-0.5,1.4-0.5c0.6,0,1.1,0.2,1.5,0.5
				c0.4,0.4,0.6,0.8,0.6,1.4c0,0.3,0,0.7,0,1.5c0,0.1,0,0.1-0.1,0.1H48c0,0,0,0,0,0c0,0.2,0,0.5,0,0.8c0,0.3,0.2,0.6,0.4,0.8
				s0.5,0.3,0.9,0.3C49.6,118.6,49.9,118.5,50.1,118.4z M48.4,114.1c-0.2,0.2-0.4,0.5-0.4,0.8c0,0.3,0,0.6,0,0.8c0,0,0,0,0,0h2.5
				c0,0,0,0,0,0c0-0.2,0-0.5,0-0.8c0-0.3-0.2-0.6-0.4-0.8c-0.2-0.2-0.5-0.3-0.9-0.3C48.9,113.8,48.7,113.9,48.4,114.1z"/>
		</g>
		<g class="st3">
			<path class="st4" d="M53.2,118.9c-0.4-0.3-0.6-0.7-0.6-1.1v-0.1c0-0.1,0-0.1,0.1-0.1h0.6c0.1,0,0.1,0,0.1,0.1v0.1
				c0,0.3,0.1,0.5,0.3,0.7c0.2,0.2,0.5,0.3,0.9,0.3c0.4,0,0.6-0.1,0.9-0.3c0.2-0.2,0.3-0.4,0.3-0.7c0-0.2-0.1-0.4-0.2-0.5
				c-0.1-0.1-0.3-0.2-0.4-0.3c-0.2-0.1-0.4-0.2-0.7-0.3c-0.4-0.1-0.7-0.3-0.9-0.4c-0.2-0.1-0.5-0.3-0.6-0.5
				c-0.2-0.2-0.3-0.5-0.3-0.9c0-0.5,0.2-0.9,0.5-1.2c0.4-0.3,0.8-0.5,1.4-0.5c0.6,0,1.1,0.2,1.5,0.5c0.4,0.3,0.5,0.7,0.5,1.2v0
				c0,0.1,0,0.1-0.1,0.1h-0.6c-0.1,0-0.1,0-0.1-0.1v0c0-0.3-0.1-0.5-0.3-0.7c-0.2-0.2-0.5-0.3-0.9-0.3c-0.3,0-0.6,0.1-0.8,0.3
				s-0.3,0.4-0.3,0.7c0,0.3,0.1,0.5,0.3,0.6s0.5,0.3,1,0.5c0.4,0.1,0.7,0.3,1,0.4s0.5,0.3,0.7,0.5c0.2,0.2,0.3,0.5,0.3,0.9
				c0,0.5-0.2,0.9-0.6,1.2c-0.4,0.3-0.9,0.5-1.5,0.5S53.5,119.2,53.2,118.9z"/>
			<path class="st4" d="M60.3,113.8h-1.1c0,0,0,0,0,0v3.6c0,0.4,0.1,0.6,0.2,0.8c0.1,0.1,0.4,0.2,0.7,0.2h0.2c0.1,0,0.1,0,0.1,0.1
				v0.5c0,0.1,0,0.1-0.1,0.1l-0.4,0c-0.5,0-0.9-0.1-1.2-0.3s-0.4-0.6-0.4-1.2v-3.9c0,0,0,0,0,0h-0.6c-0.1,0-0.1,0-0.1-0.1v-0.4
				c0-0.1,0-0.1,0.1-0.1h0.6c0,0,0,0,0,0v-1.4c0-0.1,0-0.1,0.1-0.1H59c0.1,0,0.1,0,0.1,0.1v1.4c0,0,0,0,0,0h1.1c0.1,0,0.1,0,0.1,0.1
				v0.4C60.4,113.8,60.4,113.8,60.3,113.8z"/>
			<path class="st4" d="M65.1,113.2h0.6c0.1,0,0.1,0,0.1,0.1v5.8c0,0.1,0,0.1-0.1,0.1h-0.6c-0.1,0-0.1,0-0.1-0.1v-0.5c0,0,0,0,0,0
				c0,0,0,0,0,0c-0.3,0.5-0.7,0.7-1.4,0.7c-0.5,0-1-0.2-1.3-0.5c-0.3-0.3-0.5-0.8-0.5-1.4v-4.2c0-0.1,0-0.1,0.1-0.1h0.6
				c0.1,0,0.1,0,0.1,0.1v3.9c0,0.4,0.1,0.8,0.3,1c0.2,0.2,0.5,0.4,0.9,0.4c0.4,0,0.7-0.1,0.9-0.4s0.3-0.6,0.3-1v-3.9
				C65,113.2,65,113.2,65.1,113.2z"/>
			<path class="st4" d="M70.9,110.8h0.6c0.1,0,0.1,0,0.1,0.1v8.2c0,0.1,0,0.1-0.1,0.1h-0.6c-0.1,0-0.1,0-0.1-0.1v-0.5c0,0,0,0,0,0
				c0,0,0,0,0,0c-0.3,0.5-0.8,0.7-1.4,0.7c-0.5,0-0.9-0.1-1.2-0.4c-0.3-0.3-0.5-0.7-0.7-1.3c-0.1-0.4-0.2-0.9-0.2-1.4
				c0-0.6,0-1,0.1-1.4c0.1-0.6,0.3-1,0.7-1.3c0.3-0.3,0.8-0.4,1.3-0.4c0.3,0,0.6,0.1,0.8,0.2c0.2,0.1,0.4,0.3,0.5,0.5c0,0,0,0,0,0
				s0,0,0,0V111C70.8,110.9,70.9,110.8,70.9,110.8z M70.8,116.2c0-0.7-0.1-1.2-0.2-1.5c-0.1-0.3-0.2-0.5-0.4-0.6s-0.4-0.2-0.7-0.2
				c-0.5,0-0.9,0.3-1.1,0.8c-0.2,0.4-0.2,0.9-0.2,1.6c0,0.6,0.1,1.1,0.2,1.5c0.1,0.3,0.2,0.5,0.4,0.7c0.2,0.2,0.4,0.2,0.7,0.2
				c0.3,0,0.5-0.1,0.7-0.2c0.2-0.2,0.3-0.4,0.4-0.7C70.7,117.4,70.8,116.9,70.8,116.2z"/>
			<path class="st4" d="M73.4,111.9c-0.1-0.1-0.2-0.3-0.2-0.5c0-0.2,0.1-0.4,0.2-0.5s0.3-0.2,0.5-0.2c0.2,0,0.4,0.1,0.5,0.2
				s0.2,0.3,0.2,0.5c0,0.2-0.1,0.4-0.2,0.5s-0.3,0.2-0.5,0.2C73.7,112.1,73.5,112,73.4,111.9z M73.5,119.1v-5.8c0-0.1,0-0.1,0.1-0.1
				h0.6c0.1,0,0.1,0,0.1,0.1v5.8c0,0.1,0,0.1-0.1,0.1h-0.6C73.5,119.2,73.5,119.2,73.5,119.1z"/>
			<path class="st4" d="M79.6,113.6c0.4,0.4,0.5,0.9,0.5,1.5v4c0,0.1,0,0.1-0.1,0.1h-0.6c-0.1,0-0.1,0-0.1-0.1v-0.4c0,0,0,0,0,0
				c0,0,0,0,0,0c-0.2,0.2-0.4,0.4-0.7,0.5c-0.3,0.1-0.6,0.2-0.9,0.2c-0.5,0-0.9-0.1-1.3-0.4c-0.4-0.3-0.5-0.7-0.5-1.3
				c0-0.6,0.2-1.1,0.6-1.5s1-0.5,1.7-0.5h1.1c0,0,0,0,0,0v-0.5c0-0.4-0.1-0.7-0.3-1c-0.2-0.2-0.5-0.4-0.9-0.4
				c-0.3,0-0.6,0.1-0.8,0.2c-0.2,0.2-0.3,0.4-0.4,0.6c0,0.1-0.1,0.1-0.1,0.1l-0.7,0c0,0-0.1,0-0.1,0c0,0,0-0.1,0-0.1
				c0.1-0.5,0.3-0.8,0.7-1.1c0.4-0.3,0.9-0.4,1.4-0.4C78.7,113.1,79.2,113.3,79.6,113.6z M78.8,118.3c0.3-0.2,0.4-0.5,0.4-0.9v-1
				c0,0,0,0,0,0h-1.1c-0.5,0-0.8,0.1-1.1,0.3s-0.4,0.5-0.4,0.9c0,0.4,0.1,0.6,0.3,0.8c0.2,0.2,0.5,0.3,0.8,0.3
				C78.2,118.6,78.5,118.5,78.8,118.3z"/>
			<path class="st4" d="M85.3,113.6c0.3,0.4,0.5,0.8,0.5,1.5v4c0,0.1,0,0.1-0.1,0.1h-0.6c-0.1,0-0.1,0-0.1-0.1v-3.9
				c0-0.4-0.1-0.7-0.3-1c-0.2-0.2-0.5-0.4-0.9-0.4s-0.7,0.1-0.9,0.4s-0.3,0.6-0.3,1v3.9c0,0.1,0,0.1-0.1,0.1h-0.6
				c-0.1,0-0.1,0-0.1-0.1v-5.8c0-0.1,0-0.1,0.1-0.1h0.6c0.1,0,0.1,0,0.1,0.1v0.5c0,0,0,0,0,0c0,0,0,0,0,0c0.3-0.5,0.8-0.7,1.4-0.7
				C84.6,113.1,85,113.3,85.3,113.6z"/>
		</g>
		<g class="st3">
			<path class="st4" d="M89.8,113.8h-1.1c0,0,0,0,0,0v3.6c0,0.4,0.1,0.6,0.2,0.8c0.1,0.1,0.4,0.2,0.7,0.2h0.2c0.1,0,0.1,0,0.1,0.1
				v0.5c0,0.1,0,0.1-0.1,0.1l-0.4,0c-0.5,0-0.9-0.1-1.2-0.3s-0.4-0.6-0.4-1.2v-3.9c0,0,0,0,0,0h-0.6c-0.1,0-0.1,0-0.1-0.1v-0.4
				c0-0.1,0-0.1,0.1-0.1h0.6c0,0,0,0,0,0v-1.4c0-0.1,0-0.1,0.1-0.1h0.6c0.1,0,0.1,0,0.1,0.1v1.4c0,0,0,0,0,0h1.1
				c0.1,0,0.1,0,0.1,0.1v0.4C89.9,113.8,89.8,113.8,89.8,113.8z"/>
		</g>
		<g class="st3">
			<path class="st4" d="M94,118.4c0.2-0.2,0.4-0.4,0.5-0.6c0-0.1,0.1-0.1,0.1-0.1l0.6,0.1c0,0,0.1,0,0.1,0.1c0,0,0,0.1,0,0.1
				c-0.1,0.4-0.4,0.8-0.7,1.1s-0.8,0.4-1.3,0.4c-0.6,0-1.1-0.2-1.4-0.5c-0.4-0.3-0.6-0.7-0.7-1.3c0-0.2-0.1-0.4-0.1-0.7
				c0-0.3,0-0.5,0-0.7s0-0.3,0-0.4c0-0.4,0-0.7,0-1c0.1-0.5,0.3-1,0.7-1.3c0.4-0.3,0.9-0.5,1.4-0.5c0.6,0,1.1,0.2,1.5,0.5
				c0.4,0.4,0.6,0.8,0.6,1.4c0,0.3,0,0.7,0,1.5c0,0.1,0,0.1-0.1,0.1h-3.3c0,0,0,0,0,0c0,0.2,0,0.5,0,0.8c0,0.3,0.2,0.6,0.4,0.8
				s0.5,0.3,0.9,0.3C93.5,118.6,93.8,118.5,94,118.4z M92.3,114.1c-0.2,0.2-0.4,0.5-0.4,0.8c0,0.3,0,0.6,0,0.8c0,0,0,0,0,0h2.5
				c0,0,0,0,0,0c0-0.2,0-0.5,0-0.8c0-0.3-0.2-0.6-0.4-0.8c-0.2-0.2-0.5-0.3-0.9-0.3C92.8,113.8,92.5,113.9,92.3,114.1z"/>
		</g>
		<g class="st3">
			<path class="st4" d="M97,118.9c-0.4-0.3-0.6-0.7-0.6-1.1v-0.1c0-0.1,0-0.1,0.1-0.1h0.6c0.1,0,0.1,0,0.1,0.1v0.1
				c0,0.3,0.1,0.5,0.3,0.7c0.2,0.2,0.5,0.3,0.9,0.3c0.4,0,0.6-0.1,0.9-0.3c0.2-0.2,0.3-0.4,0.3-0.7c0-0.2-0.1-0.4-0.2-0.5
				c-0.1-0.1-0.3-0.2-0.4-0.3c-0.2-0.1-0.4-0.2-0.7-0.3c-0.4-0.1-0.7-0.3-0.9-0.4c-0.2-0.1-0.5-0.3-0.6-0.5
				c-0.2-0.2-0.3-0.5-0.3-0.9c0-0.5,0.2-0.9,0.5-1.2c0.4-0.3,0.8-0.5,1.4-0.5c0.6,0,1.1,0.2,1.5,0.5c0.4,0.3,0.5,0.7,0.5,1.2v0
				c0,0.1,0,0.1-0.1,0.1h-0.6c-0.1,0-0.1,0-0.1-0.1v0c0-0.3-0.1-0.5-0.3-0.7c-0.2-0.2-0.5-0.3-0.9-0.3c-0.3,0-0.6,0.1-0.8,0.3
				s-0.3,0.4-0.3,0.7c0,0.3,0.1,0.5,0.3,0.6s0.5,0.3,1,0.5c0.4,0.1,0.7,0.3,1,0.4s0.5,0.3,0.7,0.5c0.2,0.2,0.3,0.5,0.3,0.9
				c0,0.5-0.2,0.9-0.6,1.2c-0.4,0.3-0.9,0.5-1.5,0.5S97.4,119.2,97,118.9z"/>
		</g>
		<g class="st3">
			<path class="st4" d="M107.1,118.4c0.2-0.2,0.4-0.4,0.5-0.6c0-0.1,0.1-0.1,0.1-0.1l0.6,0.1c0,0,0.1,0,0.1,0.1c0,0,0,0.1,0,0.1
				c-0.1,0.4-0.4,0.8-0.7,1.1s-0.8,0.4-1.3,0.4c-0.6,0-1.1-0.2-1.4-0.5c-0.4-0.3-0.6-0.7-0.7-1.3c0-0.2-0.1-0.4-0.1-0.7
				c0-0.3,0-0.5,0-0.7s0-0.3,0-0.4c0-0.4,0-0.7,0-1c0.1-0.5,0.3-1,0.7-1.3c0.4-0.3,0.9-0.5,1.4-0.5c0.6,0,1.1,0.2,1.5,0.5
				c0.4,0.4,0.6,0.8,0.6,1.4c0,0.3,0,0.7,0,1.5c0,0.1,0,0.1-0.1,0.1H105c0,0,0,0,0,0c0,0.2,0,0.5,0,0.8c0,0.3,0.2,0.6,0.4,0.8
				s0.5,0.3,0.9,0.3C106.6,118.6,106.9,118.5,107.1,118.4z M105.4,114.1c-0.2,0.2-0.4,0.5-0.4,0.8c0,0.3,0,0.6,0,0.8c0,0,0,0,0,0
				h2.5c0,0,0,0,0,0c0-0.2,0-0.5,0-0.8c0-0.3-0.2-0.6-0.4-0.8c-0.2-0.2-0.5-0.3-0.9-0.3C105.9,113.8,105.6,113.9,105.4,114.1z"/>
		</g>
		<g class="st3">
			<path class="st4" d="M110.1,118.9c-0.4-0.3-0.6-0.7-0.6-1.1v-0.1c0-0.1,0-0.1,0.1-0.1h0.6c0.1,0,0.1,0,0.1,0.1v0.1
				c0,0.3,0.1,0.5,0.3,0.7c0.2,0.2,0.5,0.3,0.9,0.3c0.4,0,0.6-0.1,0.9-0.3c0.2-0.2,0.3-0.4,0.3-0.7c0-0.2-0.1-0.4-0.2-0.5
				c-0.1-0.1-0.3-0.2-0.4-0.3c-0.2-0.1-0.4-0.2-0.7-0.3c-0.4-0.1-0.7-0.3-0.9-0.4c-0.2-0.1-0.5-0.3-0.6-0.5
				c-0.2-0.2-0.3-0.5-0.3-0.9c0-0.5,0.2-0.9,0.5-1.2c0.4-0.3,0.8-0.5,1.4-0.5c0.6,0,1.1,0.2,1.5,0.5c0.4,0.3,0.5,0.7,0.5,1.2v0
				c0,0.1,0,0.1-0.1,0.1h-0.6c-0.1,0-0.1,0-0.1-0.1v0c0-0.3-0.1-0.5-0.3-0.7c-0.2-0.2-0.5-0.3-0.9-0.3c-0.3,0-0.6,0.1-0.8,0.3
				s-0.3,0.4-0.3,0.7c0,0.3,0.1,0.5,0.3,0.6s0.5,0.3,1,0.5c0.4,0.1,0.7,0.3,1,0.4s0.5,0.3,0.7,0.5c0.2,0.2,0.3,0.5,0.3,0.9
				c0,0.5-0.2,0.9-0.6,1.2c-0.4,0.3-0.9,0.5-1.5,0.5S110.5,119.2,110.1,118.9z"/>
			<path class="st4" d="M117.3,113.8h-1.1c0,0,0,0,0,0v3.6c0,0.4,0.1,0.6,0.2,0.8c0.1,0.1,0.4,0.2,0.7,0.2h0.2c0.1,0,0.1,0,0.1,0.1
				v0.5c0,0.1,0,0.1-0.1,0.1l-0.4,0c-0.5,0-0.9-0.1-1.2-0.3s-0.4-0.6-0.4-1.2v-3.9c0,0,0,0,0,0h-0.6c-0.1,0-0.1,0-0.1-0.1v-0.4
				c0-0.1,0-0.1,0.1-0.1h0.6c0,0,0,0,0,0v-1.4c0-0.1,0-0.1,0.1-0.1h0.6c0.1,0,0.1,0,0.1,0.1v1.4c0,0,0,0,0,0h1.1
				c0.1,0,0.1,0,0.1,0.1v0.4C117.4,113.8,117.4,113.8,117.3,113.8z"/>
			<path class="st4" d="M122.2,113.6c0.4,0.4,0.5,0.9,0.5,1.5v4c0,0.1,0,0.1-0.1,0.1H122c-0.1,0-0.1,0-0.1-0.1v-0.4c0,0,0,0,0,0
				c0,0,0,0,0,0c-0.2,0.2-0.4,0.4-0.7,0.5c-0.3,0.1-0.6,0.2-0.9,0.2c-0.5,0-0.9-0.1-1.3-0.4c-0.4-0.3-0.5-0.7-0.5-1.3
				c0-0.6,0.2-1.1,0.6-1.5s1-0.5,1.7-0.5h1.1c0,0,0,0,0,0v-0.5c0-0.4-0.1-0.7-0.3-1c-0.2-0.2-0.5-0.4-0.9-0.4
				c-0.3,0-0.6,0.1-0.8,0.2c-0.2,0.2-0.3,0.4-0.4,0.6c0,0.1-0.1,0.1-0.1,0.1l-0.7,0c0,0-0.1,0-0.1,0c0,0,0-0.1,0-0.1
				c0.1-0.5,0.3-0.8,0.7-1.1c0.4-0.3,0.9-0.4,1.4-0.4C121.3,113.1,121.8,113.3,122.2,113.6z M121.4,118.3c0.3-0.2,0.4-0.5,0.4-0.9
				v-1c0,0,0,0,0,0h-1.1c-0.5,0-0.8,0.1-1.1,0.3s-0.4,0.5-0.4,0.9c0,0.4,0.1,0.6,0.3,0.8c0.2,0.2,0.5,0.3,0.8,0.3
				C120.8,118.6,121.1,118.5,121.4,118.3z"/>
		</g>
		<g class="st3">
			<path class="st4" d="M127.1,113.3c0.1,0,0.1,0.1,0.1,0.1l-0.1,0.6c0,0.1-0.1,0.1-0.1,0.1c-0.1-0.1-0.3-0.1-0.4-0.1l-0.1,0
				c-0.4,0-0.6,0.2-0.9,0.5s-0.3,0.7-0.3,1.1v3.6c0,0.1,0,0.1-0.1,0.1h-0.6c-0.1,0-0.1,0-0.1-0.1v-5.8c0-0.1,0-0.1,0.1-0.1h0.6
				c0.1,0,0.1,0,0.1,0.1v0.8c0,0,0,0,0,0c0,0,0,0,0,0c0.1-0.3,0.3-0.5,0.5-0.7s0.5-0.3,0.8-0.3C126.8,113.1,127,113.2,127.1,113.3z"
				/>
		</g>
		<g class="st3">
			<path class="st4" d="M131.6,113.6c0.4,0.4,0.5,0.9,0.5,1.5v4c0,0.1,0,0.1-0.1,0.1h-0.6c-0.1,0-0.1,0-0.1-0.1v-0.4c0,0,0,0,0,0
				c0,0,0,0,0,0c-0.2,0.2-0.4,0.4-0.7,0.5c-0.3,0.1-0.6,0.2-0.9,0.2c-0.5,0-0.9-0.1-1.3-0.4c-0.4-0.3-0.5-0.7-0.5-1.3
				c0-0.6,0.2-1.1,0.6-1.5s1-0.5,1.7-0.5h1.1c0,0,0,0,0,0v-0.5c0-0.4-0.1-0.7-0.3-1c-0.2-0.2-0.5-0.4-0.9-0.4
				c-0.3,0-0.6,0.1-0.8,0.2c-0.2,0.2-0.3,0.4-0.4,0.6c0,0.1-0.1,0.1-0.1,0.1l-0.7,0c0,0-0.1,0-0.1,0c0,0,0-0.1,0-0.1
				c0.1-0.5,0.3-0.8,0.7-1.1c0.4-0.3,0.9-0.4,1.4-0.4C130.8,113.1,131.3,113.3,131.6,113.6z M130.9,118.3c0.3-0.2,0.4-0.5,0.4-0.9
				v-1c0,0,0,0,0,0h-1.1c-0.5,0-0.8,0.1-1.1,0.3s-0.4,0.5-0.4,0.9c0,0.4,0.1,0.6,0.3,0.8c0.2,0.2,0.5,0.3,0.8,0.3
				C130.3,118.6,130.6,118.5,130.9,118.3z M129.6,112.3c0,0,0-0.1,0-0.1l0.7-1.3c0-0.1,0.1-0.1,0.1-0.1h0.5c0,0,0.1,0,0.1,0
				c0,0,0,0.1,0,0.1l-0.8,1.3c0,0.1-0.1,0.1-0.1,0.1L129.6,112.3C129.7,112.4,129.6,112.4,129.6,112.3z"/>
			<path class="st4" d="M137.4,113.6c0.3,0.4,0.5,0.8,0.5,1.5v4c0,0.1,0,0.1-0.1,0.1h-0.6c-0.1,0-0.1,0-0.1-0.1v-3.9
				c0-0.4-0.1-0.7-0.3-1c-0.2-0.2-0.5-0.4-0.9-0.4s-0.7,0.1-0.9,0.4s-0.3,0.6-0.3,1v3.9c0,0.1,0,0.1-0.1,0.1h-0.6
				c-0.1,0-0.1,0-0.1-0.1v-5.8c0-0.1,0-0.1,0.1-0.1h0.6c0.1,0,0.1,0,0.1,0.1v0.5c0,0,0,0,0,0c0,0,0,0,0,0c0.3-0.5,0.8-0.7,1.4-0.7
				C136.6,113.1,137.1,113.3,137.4,113.6z"/>
			<path class="st4" d="M148.7,113.6c0.3,0.4,0.5,0.8,0.5,1.5v4c0,0.1,0,0.1-0.1,0.1h-0.6c-0.1,0-0.1,0-0.1-0.1v-3.9
				c0-0.4-0.1-0.8-0.3-1s-0.5-0.4-0.8-0.4c-0.4,0-0.6,0.1-0.9,0.4s-0.3,0.6-0.3,1v3.9c0,0.1,0,0.1-0.1,0.1h-0.6
				c-0.1,0-0.1,0-0.1-0.1v-3.9c0-0.4-0.1-0.8-0.3-1s-0.5-0.4-0.8-0.4c-0.4,0-0.6,0.1-0.9,0.4c-0.2,0.2-0.3,0.6-0.3,1v3.9
				c0,0.1,0,0.1-0.1,0.1H142c-0.1,0-0.1,0-0.1-0.1v-5.8c0-0.1,0-0.1,0.1-0.1h0.6c0.1,0,0.1,0,0.1,0.1v0.4c0,0,0,0,0,0c0,0,0,0,0,0
				c0.2-0.2,0.4-0.4,0.6-0.5c0.2-0.1,0.5-0.2,0.8-0.2c0.4,0,0.7,0.1,0.9,0.2s0.5,0.4,0.6,0.7c0,0,0,0,0.1,0c0.2-0.3,0.4-0.5,0.7-0.7
				c0.3-0.1,0.6-0.2,0.9-0.2C148,113.1,148.4,113.3,148.7,113.6z"/>
			<path class="st4" d="M154.2,113.6c0.4,0.4,0.5,0.9,0.5,1.5v4c0,0.1,0,0.1-0.1,0.1H154c-0.1,0-0.1,0-0.1-0.1v-0.4c0,0,0,0,0,0
				c0,0,0,0,0,0c-0.2,0.2-0.4,0.4-0.7,0.5c-0.3,0.1-0.6,0.2-0.9,0.2c-0.5,0-0.9-0.1-1.3-0.4c-0.4-0.3-0.5-0.7-0.5-1.3
				c0-0.6,0.2-1.1,0.6-1.5s1-0.5,1.7-0.5h1.1c0,0,0,0,0,0v-0.5c0-0.4-0.1-0.7-0.3-1c-0.2-0.2-0.5-0.4-0.9-0.4
				c-0.3,0-0.6,0.1-0.8,0.2c-0.2,0.2-0.3,0.4-0.4,0.6c0,0.1-0.1,0.1-0.1,0.1l-0.7,0c0,0-0.1,0-0.1,0c0,0,0-0.1,0-0.1
				c0.1-0.5,0.3-0.8,0.7-1.1c0.4-0.3,0.9-0.4,1.4-0.4C153.3,113.1,153.8,113.3,154.2,113.6z M153.5,118.3c0.3-0.2,0.4-0.5,0.4-0.9
				v-1c0,0,0,0,0,0h-1.1c-0.5,0-0.8,0.1-1.1,0.3s-0.4,0.5-0.4,0.9c0,0.4,0.1,0.6,0.3,0.8c0.2,0.2,0.5,0.3,0.8,0.3
				C152.8,118.6,153.2,118.5,153.5,118.3z M152.2,112.3c0,0,0-0.1,0-0.1l0.7-1.3c0-0.1,0.1-0.1,0.1-0.1h0.5c0,0,0.1,0,0.1,0
				c0,0,0,0.1,0,0.1l-0.8,1.3c0,0.1-0.1,0.1-0.1,0.1L152.2,112.3C152.2,112.4,152.2,112.4,152.2,112.3z"/>
			<path class="st4" d="M156.6,118.9c-0.4-0.3-0.6-0.7-0.6-1.1v-0.1c0-0.1,0-0.1,0.1-0.1h0.6c0.1,0,0.1,0,0.1,0.1v0.1
				c0,0.3,0.1,0.5,0.3,0.7c0.2,0.2,0.5,0.3,0.9,0.3c0.4,0,0.6-0.1,0.9-0.3c0.2-0.2,0.3-0.4,0.3-0.7c0-0.2-0.1-0.4-0.2-0.5
				c-0.1-0.1-0.3-0.2-0.4-0.3c-0.2-0.1-0.4-0.2-0.7-0.3c-0.4-0.1-0.7-0.3-0.9-0.4s-0.5-0.3-0.6-0.5c-0.2-0.2-0.3-0.5-0.3-0.9
				c0-0.5,0.2-0.9,0.5-1.2c0.4-0.3,0.8-0.5,1.4-0.5c0.6,0,1.1,0.2,1.5,0.5c0.4,0.3,0.5,0.7,0.5,1.2v0c0,0.1,0,0.1-0.1,0.1h-0.6
				c-0.1,0-0.1,0-0.1-0.1v0c0-0.3-0.1-0.5-0.3-0.7s-0.5-0.3-0.9-0.3c-0.3,0-0.6,0.1-0.8,0.3s-0.3,0.4-0.3,0.7c0,0.3,0.1,0.5,0.3,0.6
				s0.5,0.3,1,0.5c0.4,0.1,0.7,0.3,1,0.4s0.5,0.3,0.7,0.5c0.2,0.2,0.3,0.5,0.3,0.9c0,0.5-0.2,0.9-0.6,1.2c-0.4,0.3-0.9,0.5-1.5,0.5
				S157,119.2,156.6,118.9z"/>
		</g>
		<g class="st3">
			<path class="st4" d="M170.6,113.6c0.3,0.4,0.5,0.8,0.5,1.5v4c0,0.1,0,0.1-0.1,0.1h-0.6c-0.1,0-0.1,0-0.1-0.1v-3.9
				c0-0.4-0.1-0.8-0.3-1s-0.5-0.4-0.8-0.4c-0.4,0-0.7,0.1-0.9,0.4c-0.2,0.2-0.3,0.6-0.3,1v3.9c0,0.1,0,0.1-0.1,0.1h-0.6
				c-0.1,0-0.1,0-0.1-0.1v-3.9c0-0.4-0.1-0.8-0.3-1s-0.5-0.4-0.8-0.4c-0.4,0-0.6,0.1-0.9,0.4s-0.3,0.6-0.3,1v3.9
				c0,0.1,0,0.1-0.1,0.1H164c-0.1,0-0.1,0-0.1-0.1v-5.8c0-0.1,0-0.1,0.1-0.1h0.6c0.1,0,0.1,0,0.1,0.1v0.4c0,0,0,0,0,0s0,0,0,0
				c0.2-0.2,0.4-0.4,0.6-0.5c0.2-0.1,0.5-0.2,0.8-0.2c0.4,0,0.7,0.1,0.9,0.2c0.3,0.2,0.5,0.4,0.6,0.7c0,0,0,0,0.1,0
				c0.2-0.3,0.4-0.5,0.7-0.7c0.3-0.1,0.6-0.2,0.9-0.2C169.9,113.1,170.3,113.3,170.6,113.6z"/>
		</g>
		<g class="st3">
			<path class="st4" d="M173.2,118.9c-0.4-0.3-0.6-0.7-0.7-1.3c0-0.4-0.1-0.9-0.1-1.4s0-1,0.1-1.4c0.1-0.5,0.3-1,0.7-1.3
				c0.4-0.3,0.9-0.5,1.4-0.5s1.1,0.2,1.4,0.5c0.4,0.3,0.6,0.7,0.7,1.3c0,0.3,0.1,0.8,0.1,1.4c0,0.6,0,1.1-0.1,1.4
				c-0.1,0.5-0.3,1-0.7,1.3c-0.4,0.3-0.9,0.5-1.4,0.5S173.6,119.2,173.2,118.9z M175.5,118.3c0.2-0.2,0.4-0.5,0.4-0.8
				c0-0.3,0-0.7,0-1.2c0-0.5,0-0.9,0-1.2c0-0.4-0.2-0.6-0.4-0.8c-0.2-0.2-0.5-0.3-0.9-0.3c-0.4,0-0.6,0.1-0.9,0.3
				c-0.2,0.2-0.4,0.5-0.4,0.8c0,0.3,0,0.7,0,1.2s0,0.9,0,1.2c0,0.4,0.2,0.6,0.4,0.8c0.2,0.2,0.5,0.3,0.9,0.3
				C175,118.6,175.3,118.5,175.5,118.3z"/>
		</g>
		<g class="st3">
			<path class="st4" d="M180.7,113.8h-1.1c0,0,0,0,0,0v3.6c0,0.4,0.1,0.6,0.2,0.8c0.1,0.1,0.4,0.2,0.7,0.2h0.2c0.1,0,0.1,0,0.1,0.1
				v0.5c0,0.1,0,0.1-0.1,0.1l-0.4,0c-0.5,0-0.9-0.1-1.2-0.3c-0.3-0.2-0.4-0.6-0.4-1.2v-3.9c0,0,0,0,0,0H178c-0.1,0-0.1,0-0.1-0.1
				v-0.4c0-0.1,0-0.1,0.1-0.1h0.6c0,0,0,0,0,0v-1.4c0-0.1,0-0.1,0.1-0.1h0.6c0.1,0,0.1,0,0.1,0.1v1.4c0,0,0,0,0,0h1.1
				c0.1,0,0.1,0,0.1,0.1v0.4C180.8,113.8,180.7,113.8,180.7,113.8z"/>
			<path class="st4" d="M182.2,111.9c-0.1-0.1-0.2-0.3-0.2-0.5c0-0.2,0.1-0.4,0.2-0.5s0.3-0.2,0.5-0.2c0.2,0,0.4,0.1,0.5,0.2
				s0.2,0.3,0.2,0.5c0,0.2-0.1,0.4-0.2,0.5s-0.3,0.2-0.5,0.2C182.5,112.1,182.3,112,182.2,111.9z M182.2,119.1v-5.8
				c0-0.1,0-0.1,0.1-0.1h0.6c0.1,0,0.1,0,0.1,0.1v5.8c0,0.1,0,0.1-0.1,0.1h-0.6C182.3,119.2,182.2,119.2,182.2,119.1z"/>
		</g>
		<g class="st3">
			<path class="st4" d="M186.2,119.2l-1.7-5.8l0,0c0-0.1,0-0.1,0.1-0.1h0.7c0.1,0,0.1,0,0.1,0.1l1.3,4.7c0,0,0,0,0,0c0,0,0,0,0,0
				l1.3-4.7c0-0.1,0.1-0.1,0.1-0.1l0.7,0c0,0,0.1,0,0.1,0c0,0,0,0.1,0,0.1l-1.7,5.8c0,0.1-0.1,0.1-0.1,0.1h-0.7
				C186.2,119.2,186.2,119.2,186.2,119.2z"/>
		</g>
		<g class="st3">
			<path class="st4" d="M193.4,113.6c0.4,0.4,0.5,0.9,0.5,1.5v4c0,0.1,0,0.1-0.1,0.1h-0.6c-0.1,0-0.1,0-0.1-0.1v-0.4c0,0,0,0,0,0
				c0,0,0,0,0,0c-0.2,0.2-0.4,0.4-0.7,0.5c-0.3,0.1-0.6,0.2-0.9,0.2c-0.5,0-0.9-0.1-1.3-0.4c-0.4-0.3-0.5-0.7-0.5-1.3
				c0-0.6,0.2-1.1,0.6-1.5s1-0.5,1.7-0.5h1.1c0,0,0,0,0,0v-0.5c0-0.4-0.1-0.7-0.3-1c-0.2-0.2-0.5-0.4-0.9-0.4
				c-0.3,0-0.6,0.1-0.8,0.2c-0.2,0.2-0.3,0.4-0.4,0.6c0,0.1-0.1,0.1-0.1,0.1l-0.7,0c0,0-0.1,0-0.1,0c0,0,0-0.1,0-0.1
				c0.1-0.5,0.3-0.8,0.7-1.1c0.4-0.3,0.9-0.4,1.4-0.4C192.5,113.1,193,113.3,193.4,113.6z M192.6,118.3c0.3-0.2,0.4-0.5,0.4-0.9v-1
				c0,0,0,0,0,0H192c-0.5,0-0.8,0.1-1.1,0.3c-0.3,0.2-0.4,0.5-0.4,0.9c0,0.4,0.1,0.6,0.3,0.8c0.2,0.2,0.5,0.3,0.8,0.3
				C192,118.6,192.3,118.5,192.6,118.3z"/>
			<path class="st4" d="M198.9,110.8h0.6c0.1,0,0.1,0,0.1,0.1v8.2c0,0.1,0,0.1-0.1,0.1h-0.6c-0.1,0-0.1,0-0.1-0.1v-0.5c0,0,0,0,0,0
				c0,0,0,0,0,0c-0.3,0.5-0.8,0.7-1.4,0.7c-0.5,0-0.9-0.1-1.2-0.4c-0.3-0.3-0.5-0.7-0.7-1.3c-0.1-0.4-0.2-0.9-0.2-1.4
				c0-0.6,0-1,0.1-1.4c0.1-0.6,0.3-1,0.7-1.3c0.3-0.3,0.8-0.4,1.3-0.4c0.3,0,0.6,0.1,0.8,0.2c0.2,0.1,0.4,0.3,0.5,0.5c0,0,0,0,0,0
				c0,0,0,0,0,0V111C198.8,110.9,198.8,110.8,198.9,110.8z M198.7,116.2c0-0.7-0.1-1.2-0.2-1.5c-0.1-0.3-0.2-0.5-0.4-0.6
				s-0.4-0.2-0.7-0.2c-0.5,0-0.9,0.3-1.1,0.8c-0.2,0.4-0.2,0.9-0.2,1.6c0,0.6,0.1,1.1,0.2,1.5c0.1,0.3,0.2,0.5,0.4,0.7
				c0.2,0.2,0.4,0.2,0.7,0.2c0.3,0,0.5-0.1,0.7-0.2c0.2-0.2,0.3-0.4,0.4-0.7C198.7,117.4,198.7,116.9,198.7,116.2z"/>
			<path class="st4" d="M201.9,118.9c-0.4-0.3-0.6-0.7-0.7-1.3c0-0.4-0.1-0.9-0.1-1.4s0-1,0.1-1.4c0.1-0.5,0.3-1,0.7-1.3
				c0.4-0.3,0.9-0.5,1.4-0.5s1.1,0.2,1.4,0.5c0.4,0.3,0.6,0.7,0.7,1.3c0,0.3,0.1,0.8,0.1,1.4c0,0.6,0,1.1-0.1,1.4
				c-0.1,0.5-0.3,1-0.7,1.3s-0.9,0.5-1.4,0.5S202.3,119.2,201.9,118.9z M204.2,118.3c0.2-0.2,0.4-0.5,0.4-0.8c0-0.3,0-0.7,0-1.2
				c0-0.5,0-0.9,0-1.2c0-0.4-0.2-0.6-0.4-0.8c-0.2-0.2-0.5-0.3-0.9-0.3c-0.4,0-0.6,0.1-0.9,0.3c-0.2,0.2-0.4,0.5-0.4,0.8
				c0,0.3,0,0.7,0,1.2s0,0.9,0,1.2c0,0.4,0.2,0.6,0.4,0.8s0.5,0.3,0.9,0.3C203.7,118.6,204,118.5,204.2,118.3z"/>
			<path class="st4" d="M207.3,118.9c-0.4-0.3-0.6-0.7-0.6-1.1v-0.1c0-0.1,0-0.1,0.1-0.1h0.6c0.1,0,0.1,0,0.1,0.1v0.1
				c0,0.3,0.1,0.5,0.3,0.7c0.2,0.2,0.5,0.3,0.9,0.3c0.4,0,0.6-0.1,0.9-0.3c0.2-0.2,0.3-0.4,0.3-0.7c0-0.2-0.1-0.4-0.2-0.5
				c-0.1-0.1-0.3-0.2-0.4-0.3c-0.2-0.1-0.4-0.2-0.7-0.3c-0.4-0.1-0.7-0.3-0.9-0.4s-0.5-0.3-0.6-0.5c-0.2-0.2-0.3-0.5-0.3-0.9
				c0-0.5,0.2-0.9,0.5-1.2c0.4-0.3,0.8-0.5,1.4-0.5c0.6,0,1.1,0.2,1.5,0.5c0.4,0.3,0.5,0.7,0.5,1.2v0c0,0.1,0,0.1-0.1,0.1h-0.6
				c-0.1,0-0.1,0-0.1-0.1v0c0-0.3-0.1-0.5-0.3-0.7s-0.5-0.3-0.9-0.3c-0.3,0-0.6,0.1-0.8,0.3s-0.3,0.4-0.3,0.7c0,0.3,0.1,0.5,0.3,0.6
				s0.5,0.3,1,0.5c0.4,0.1,0.7,0.3,1,0.4s0.5,0.3,0.7,0.5c0.2,0.2,0.3,0.5,0.3,0.9c0,0.5-0.2,0.9-0.6,1.2c-0.4,0.3-0.9,0.5-1.5,0.5
				S207.7,119.2,207.3,118.9z"/>
			<path class="st4" d="M214.3,121.7c0,0,0,0,0-0.1V121c0-0.1,0-0.1,0.1-0.1h0c0.3,0,0.5-0.1,0.7-0.1s0.3-0.2,0.4-0.5
				c0.1-0.2,0.2-0.6,0.3-1c0,0,0,0,0-0.1l-1.8-5.9l0,0c0-0.1,0-0.1,0.1-0.1h0.6c0.1,0,0.1,0,0.1,0.1l1.3,4.8c0,0,0,0,0,0s0,0,0,0
				l1.3-4.8c0-0.1,0.1-0.1,0.1-0.1h0.6c0,0,0.1,0,0.1,0c0,0,0,0.1,0,0.1l-2,6.5c-0.2,0.5-0.3,0.9-0.5,1.2s-0.4,0.4-0.6,0.5
				c-0.2,0.1-0.6,0.2-1,0.2H214.3C214.3,121.7,214.3,121.7,214.3,121.7z"/>
		</g>
		<g class="st3">
			<path class="st4" d="M224.3,113.8h-1.1c0,0,0,0,0,0v3.6c0,0.4,0.1,0.6,0.2,0.8c0.1,0.1,0.4,0.2,0.7,0.2h0.2c0.1,0,0.1,0,0.1,0.1
				v0.5c0,0.1,0,0.1-0.1,0.1l-0.4,0c-0.5,0-0.9-0.1-1.2-0.3c-0.3-0.2-0.4-0.6-0.4-1.2v-3.9c0,0,0,0,0,0h-0.6c-0.1,0-0.1,0-0.1-0.1
				v-0.4c0-0.1,0-0.1,0.1-0.1h0.6c0,0,0,0,0,0v-1.4c0-0.1,0-0.1,0.1-0.1h0.6c0.1,0,0.1,0,0.1,0.1v1.4c0,0,0,0,0,0h1.1
				c0.1,0,0.1,0,0.1,0.1v0.4C224.4,113.8,224.3,113.8,224.3,113.8z"/>
		</g>
		<g class="st3">
			<path class="st4" d="M228.5,118.4c0.2-0.2,0.4-0.4,0.5-0.6c0-0.1,0.1-0.1,0.1-0.1l0.6,0.1c0,0,0.1,0,0.1,0.1c0,0,0,0.1,0,0.1
				c-0.1,0.4-0.4,0.8-0.7,1.1c-0.4,0.3-0.8,0.4-1.3,0.4c-0.6,0-1.1-0.2-1.4-0.5c-0.4-0.3-0.6-0.7-0.7-1.3c0-0.2-0.1-0.4-0.1-0.7
				c0-0.3,0-0.5,0-0.7s0-0.3,0-0.4c0-0.4,0-0.7,0-1c0.1-0.5,0.3-1,0.7-1.3s0.9-0.5,1.4-0.5c0.6,0,1.1,0.2,1.5,0.5
				c0.4,0.4,0.6,0.8,0.6,1.4c0,0.3,0,0.7,0,1.5c0,0.1,0,0.1-0.1,0.1h-3.3c0,0,0,0,0,0c0,0.2,0,0.5,0,0.8c0,0.3,0.2,0.6,0.4,0.8
				c0.2,0.2,0.5,0.3,0.9,0.3C228,118.6,228.3,118.5,228.5,118.4z M226.8,114.1c-0.2,0.2-0.4,0.5-0.4,0.8c0,0.3,0,0.6,0,0.8
				c0,0,0,0,0,0h2.5c0,0,0,0,0,0c0-0.2,0-0.5,0-0.8c0-0.3-0.2-0.6-0.4-0.8c-0.2-0.2-0.5-0.3-0.9-0.3
				C227.3,113.8,227,113.9,226.8,114.1z"/>
		</g>
		<g class="st3">
			<path class="st4" d="M235,113.6c0.3,0.4,0.5,0.8,0.5,1.5v4c0,0.1,0,0.1-0.1,0.1h-0.6c-0.1,0-0.1,0-0.1-0.1v-3.9
				c0-0.4-0.1-0.7-0.3-1c-0.2-0.2-0.5-0.4-0.9-0.4s-0.7,0.1-0.9,0.4c-0.2,0.3-0.3,0.6-0.3,1v3.9c0,0.1,0,0.1-0.1,0.1h-0.6
				c-0.1,0-0.1,0-0.1-0.1v-5.8c0-0.1,0-0.1,0.1-0.1h0.6c0.1,0,0.1,0,0.1,0.1v0.5c0,0,0,0,0,0c0,0,0,0,0,0c0.3-0.5,0.8-0.7,1.4-0.7
				C234.2,113.1,234.6,113.3,235,113.6z"/>
		</g>
		<g class="st3">
			<path class="st4" d="M240.4,110.8h0.6c0.1,0,0.1,0,0.1,0.1v8.2c0,0.1,0,0.1-0.1,0.1h-0.6c-0.1,0-0.1,0-0.1-0.1v-0.5c0,0,0,0,0,0
				c0,0,0,0,0,0c-0.3,0.5-0.8,0.7-1.4,0.7c-0.5,0-0.9-0.1-1.2-0.4c-0.3-0.3-0.5-0.7-0.7-1.3c-0.1-0.4-0.2-0.9-0.2-1.4
				c0-0.6,0-1,0.1-1.4c0.1-0.6,0.3-1,0.7-1.3c0.3-0.3,0.8-0.4,1.3-0.4c0.3,0,0.6,0.1,0.8,0.2c0.2,0.1,0.4,0.3,0.5,0.5c0,0,0,0,0,0
				c0,0,0,0,0,0V111C240.3,110.9,240.3,110.8,240.4,110.8z M240.3,116.2c0-0.7-0.1-1.2-0.2-1.5c-0.1-0.3-0.2-0.5-0.4-0.6
				s-0.4-0.2-0.7-0.2c-0.5,0-0.9,0.3-1.1,0.8c-0.2,0.4-0.2,0.9-0.2,1.6c0,0.6,0.1,1.1,0.2,1.5c0.1,0.3,0.2,0.5,0.4,0.7
				c0.2,0.2,0.4,0.2,0.7,0.2c0.3,0,0.5-0.1,0.7-0.2c0.2-0.2,0.3-0.4,0.4-0.7C240.2,117.4,240.3,116.9,240.3,116.2z"/>
		</g>
		<g class="st3">
			<path class="st4" d="M245.7,113.3c0.1,0,0.1,0.1,0.1,0.1l-0.1,0.6c0,0.1-0.1,0.1-0.1,0.1c-0.1-0.1-0.3-0.1-0.4-0.1l-0.1,0
				c-0.4,0-0.6,0.2-0.9,0.5c-0.2,0.3-0.3,0.7-0.3,1.1v3.6c0,0.1,0,0.1-0.1,0.1H243c-0.1,0-0.1,0-0.1-0.1v-5.8c0-0.1,0-0.1,0.1-0.1
				h0.6c0.1,0,0.1,0,0.1,0.1v0.8c0,0,0,0,0,0s0,0,0,0c0.1-0.3,0.3-0.5,0.5-0.7c0.2-0.2,0.5-0.3,0.8-0.3
				C245.3,113.1,245.5,113.2,245.7,113.3z"/>
		</g>
		<g class="st3">
			<path class="st4" d="M250.2,113.6c0.4,0.4,0.5,0.9,0.5,1.5v4c0,0.1,0,0.1-0.1,0.1H250c-0.1,0-0.1,0-0.1-0.1v-0.4c0,0,0,0,0,0
				s0,0,0,0c-0.2,0.2-0.4,0.4-0.7,0.5c-0.3,0.1-0.6,0.2-0.9,0.2c-0.5,0-0.9-0.1-1.3-0.4c-0.4-0.3-0.5-0.7-0.5-1.3
				c0-0.6,0.2-1.1,0.6-1.5s1-0.5,1.7-0.5h1.1c0,0,0,0,0,0v-0.5c0-0.4-0.1-0.7-0.3-1c-0.2-0.2-0.5-0.4-0.9-0.4
				c-0.3,0-0.6,0.1-0.8,0.2c-0.2,0.2-0.3,0.4-0.4,0.6c0,0.1-0.1,0.1-0.1,0.1l-0.7,0c0,0-0.1,0-0.1,0c0,0,0-0.1,0-0.1
				c0.1-0.5,0.3-0.8,0.7-1.1c0.4-0.3,0.8-0.4,1.4-0.4C249.3,113.1,249.8,113.3,250.2,113.6z M249.5,118.3c0.3-0.2,0.4-0.5,0.4-0.9
				v-1c0,0,0,0,0,0h-1.1c-0.5,0-0.8,0.1-1.1,0.3c-0.3,0.2-0.4,0.5-0.4,0.9c0,0.4,0.1,0.6,0.3,0.8c0.2,0.2,0.5,0.3,0.8,0.3
				C248.8,118.6,249.2,118.5,249.5,118.3z M248.2,112.3c0,0,0-0.1,0-0.1l0.7-1.3c0-0.1,0.1-0.1,0.1-0.1h0.5c0,0,0.1,0,0.1,0
				c0,0,0,0.1,0,0.1l-0.8,1.3c0,0.1-0.1,0.1-0.1,0.1L248.2,112.3C248.2,112.4,248.2,112.4,248.2,112.3z"/>
			<path class="st4" d="M256,113.6c0.3,0.4,0.5,0.8,0.5,1.5v4c0,0.1,0,0.1-0.1,0.1h-0.6c-0.1,0-0.1,0-0.1-0.1v-3.9
				c0-0.4-0.1-0.7-0.3-1c-0.2-0.2-0.5-0.4-0.9-0.4s-0.7,0.1-0.9,0.4c-0.2,0.3-0.3,0.6-0.3,1v3.9c0,0.1,0,0.1-0.1,0.1h-0.6
				c-0.1,0-0.1,0-0.1-0.1v-5.8c0-0.1,0-0.1,0.1-0.1h0.6c0.1,0,0.1,0,0.1,0.1v0.5c0,0,0,0,0,0c0,0,0,0,0,0c0.3-0.5,0.8-0.7,1.4-0.7
				C255.2,113.1,255.6,113.3,256,113.6z"/>
			<path class="st4" d="M267.2,113.6c0.3,0.4,0.5,0.8,0.5,1.5v4c0,0.1,0,0.1-0.1,0.1H267c-0.1,0-0.1,0-0.1-0.1v-3.9
				c0-0.4-0.1-0.8-0.3-1s-0.5-0.4-0.8-0.4c-0.4,0-0.7,0.1-0.9,0.4c-0.2,0.2-0.3,0.6-0.3,1v3.9c0,0.1,0,0.1-0.1,0.1h-0.6
				c-0.1,0-0.1,0-0.1-0.1v-3.9c0-0.4-0.1-0.8-0.3-1s-0.5-0.4-0.8-0.4c-0.4,0-0.6,0.1-0.9,0.4s-0.3,0.6-0.3,1v3.9
				c0,0.1,0,0.1-0.1,0.1h-0.6c-0.1,0-0.1,0-0.1-0.1v-5.8c0-0.1,0-0.1,0.1-0.1h0.6c0.1,0,0.1,0,0.1,0.1v0.4c0,0,0,0,0,0s0,0,0,0
				c0.2-0.2,0.4-0.4,0.6-0.5c0.2-0.1,0.5-0.2,0.8-0.2c0.4,0,0.7,0.1,0.9,0.2c0.3,0.2,0.5,0.4,0.6,0.7c0,0,0,0,0.1,0
				c0.2-0.3,0.4-0.5,0.7-0.7c0.3-0.1,0.6-0.2,0.9-0.2C266.5,113.1,266.9,113.3,267.2,113.6z"/>
			<path class="st4" d="M272.8,113.6c0.4,0.4,0.5,0.9,0.5,1.5v4c0,0.1,0,0.1-0.1,0.1h-0.6c-0.1,0-0.1,0-0.1-0.1v-0.4c0,0,0,0,0,0
				c0,0,0,0,0,0c-0.2,0.2-0.4,0.4-0.7,0.5c-0.3,0.1-0.6,0.2-0.9,0.2c-0.5,0-0.9-0.1-1.3-0.4c-0.4-0.3-0.5-0.7-0.5-1.3
				c0-0.6,0.2-1.1,0.6-1.5s1-0.5,1.7-0.5h1.1c0,0,0,0,0,0v-0.5c0-0.4-0.1-0.7-0.3-1c-0.2-0.2-0.5-0.4-0.9-0.4
				c-0.3,0-0.6,0.1-0.8,0.2c-0.2,0.2-0.3,0.4-0.4,0.6c0,0.1-0.1,0.1-0.1,0.1l-0.7,0c0,0-0.1,0-0.1,0c0,0,0-0.1,0-0.1
				c0.1-0.5,0.3-0.8,0.7-1.1c0.4-0.3,0.9-0.4,1.4-0.4C271.9,113.1,272.4,113.3,272.8,113.6z M272,118.3c0.3-0.2,0.4-0.5,0.4-0.9v-1
				c0,0,0,0,0,0h-1.1c-0.5,0-0.8,0.1-1.1,0.3c-0.3,0.2-0.4,0.5-0.4,0.9c0,0.4,0.1,0.6,0.3,0.8c0.2,0.2,0.5,0.3,0.8,0.3
				C271.4,118.6,271.7,118.5,272,118.3z M270.7,112.3c0,0,0-0.1,0-0.1l0.7-1.3c0-0.1,0.1-0.1,0.1-0.1h0.5c0,0,0.1,0,0.1,0
				c0,0,0,0.1,0,0.1l-0.8,1.3c0,0.1-0.1,0.1-0.1,0.1L270.7,112.3C270.8,112.4,270.8,112.4,270.7,112.3z"/>
			<path class="st4" d="M275.1,118.9c-0.4-0.3-0.6-0.7-0.6-1.1v-0.1c0-0.1,0-0.1,0.1-0.1h0.6c0.1,0,0.1,0,0.1,0.1v0.1
				c0,0.3,0.1,0.5,0.3,0.7c0.2,0.2,0.5,0.3,0.9,0.3c0.4,0,0.6-0.1,0.9-0.3c0.2-0.2,0.3-0.4,0.3-0.7c0-0.2-0.1-0.4-0.2-0.5
				c-0.1-0.1-0.3-0.2-0.4-0.3c-0.2-0.1-0.4-0.2-0.7-0.3c-0.4-0.1-0.7-0.3-0.9-0.4s-0.5-0.3-0.6-0.5c-0.2-0.2-0.3-0.5-0.3-0.9
				c0-0.5,0.2-0.9,0.5-1.2c0.4-0.3,0.8-0.5,1.4-0.5c0.6,0,1.1,0.2,1.5,0.5c0.4,0.3,0.5,0.7,0.5,1.2v0c0,0.1,0,0.1-0.1,0.1h-0.6
				c-0.1,0-0.1,0-0.1-0.1v0c0-0.3-0.1-0.5-0.3-0.7s-0.5-0.3-0.9-0.3c-0.3,0-0.6,0.1-0.8,0.3s-0.3,0.4-0.3,0.7c0,0.3,0.1,0.5,0.3,0.6
				s0.5,0.3,1,0.5c0.4,0.1,0.7,0.3,1,0.4s0.5,0.3,0.7,0.5c0.2,0.2,0.3,0.5,0.3,0.9c0,0.5-0.2,0.9-0.6,1.2c-0.4,0.3-0.9,0.5-1.5,0.5
				S275.5,119.2,275.1,118.9z"/>
		</g>
		<g class="st3">
			<path class="st4" d="M44.9,132.8c0.2-0.2,0.4-0.4,0.5-0.6c0-0.1,0.1-0.1,0.1-0.1l0.6,0.1c0,0,0.1,0,0.1,0.1c0,0,0,0.1,0,0.1
				c-0.1,0.4-0.4,0.8-0.7,1.1s-0.8,0.4-1.3,0.4c-0.6,0-1.1-0.2-1.4-0.5c-0.4-0.3-0.6-0.7-0.7-1.3c0-0.2-0.1-0.4-0.1-0.7
				c0-0.3,0-0.5,0-0.7s0-0.3,0-0.4c0-0.4,0-0.7,0-1c0.1-0.5,0.3-1,0.7-1.3c0.4-0.3,0.9-0.5,1.4-0.5c0.6,0,1.1,0.2,1.5,0.5
				c0.4,0.4,0.6,0.8,0.6,1.4c0,0.3,0,0.7,0,1.5c0,0.1,0,0.1-0.1,0.1h-3.3c0,0,0,0,0,0c0,0.2,0,0.5,0,0.8c0,0.3,0.2,0.6,0.4,0.8
				s0.5,0.3,0.9,0.3C44.4,133,44.7,132.9,44.9,132.8z M43.2,128.5c-0.2,0.2-0.4,0.5-0.4,0.8c0,0.3,0,0.6,0,0.8c0,0,0,0,0,0h2.5
				c0,0,0,0,0,0c0-0.2,0-0.5,0-0.8c0-0.3-0.2-0.6-0.4-0.8c-0.2-0.2-0.5-0.3-0.9-0.3C43.7,128.2,43.4,128.3,43.2,128.5z M43.5,126.7
				c0,0,0-0.1,0-0.1l0.7-1.3c0-0.1,0.1-0.1,0.1-0.1h0.5c0,0,0.1,0,0.1,0c0,0,0,0.1,0,0.1l-0.8,1.3c0,0.1-0.1,0.1-0.1,0.1L43.5,126.7
				C43.6,126.8,43.6,126.8,43.5,126.7z"/>
		</g>
		<g class="st3">
			<path class="st4" d="M47.1,133.6c0,0,0-0.1,0-0.1l1.7-2.9c0,0,0,0,0-0.1l-1.7-2.9c0,0,0-0.1,0-0.1c0,0,0-0.1,0.1-0.1h0.7
				c0.1,0,0.1,0,0.1,0.1l1.3,2.2c0,0,0,0,0,0c0,0,0,0,0,0l1.3-2.2c0-0.1,0.1-0.1,0.1-0.1h0.7c0,0,0.1,0,0.1,0c0,0,0,0.1,0,0.1
				l-1.7,2.9c0,0,0,0,0,0.1l1.7,2.9c0,0,0,0.1,0,0.1c0,0,0,0.1-0.1,0.1h-0.7c-0.1,0-0.1,0-0.1-0.1l-1.3-2.2c0,0,0,0,0,0s0,0,0,0
				l-1.3,2.2c0,0.1-0.1,0.1-0.1,0.1L47.1,133.6C47.1,133.7,47.1,133.6,47.1,133.6z"/>
			<path class="st4" d="M52.8,126.3c-0.1-0.1-0.2-0.3-0.2-0.5c0-0.2,0.1-0.4,0.2-0.5s0.3-0.2,0.5-0.2c0.2,0,0.4,0.1,0.5,0.2
				s0.2,0.3,0.2,0.5c0,0.2-0.1,0.4-0.2,0.5s-0.3,0.2-0.5,0.2C53.1,126.5,52.9,126.4,52.8,126.3z M52.8,133.5v-5.8
				c0-0.1,0-0.1,0.1-0.1h0.6c0.1,0,0.1,0,0.1,0.1v5.8c0,0.1,0,0.1-0.1,0.1H53C52.9,133.7,52.8,133.6,52.8,133.5z"/>
		</g>
		<g class="st3">
			<path class="st4" d="M57.8,128.2h-1.1c0,0,0,0,0,0v3.6c0,0.4,0.1,0.6,0.2,0.8c0.1,0.1,0.4,0.2,0.7,0.2h0.2c0.1,0,0.1,0,0.1,0.1
				v0.5c0,0.1,0,0.1-0.1,0.1l-0.4,0c-0.5,0-0.9-0.1-1.2-0.3s-0.4-0.6-0.4-1.2v-3.9c0,0,0,0,0,0h-0.6c-0.1,0-0.1,0-0.1-0.1v-0.4
				c0-0.1,0-0.1,0.1-0.1h0.6c0,0,0,0,0,0v-1.4c0-0.1,0-0.1,0.1-0.1h0.6c0.1,0,0.1,0,0.1,0.1v1.4c0,0,0,0,0,0h1.1
				c0.1,0,0.1,0,0.1,0.1v0.4C58,128.2,57.9,128.2,57.8,128.2z"/>
		</g>
		<g class="st3">
			<path class="st4" d="M59.8,133.3c-0.4-0.3-0.6-0.7-0.7-1.3c0-0.4-0.1-0.9-0.1-1.4s0-1,0.1-1.4c0.1-0.5,0.3-1,0.7-1.3
				c0.4-0.3,0.9-0.5,1.4-0.5s1.1,0.2,1.4,0.5c0.4,0.3,0.6,0.7,0.7,1.3c0,0.3,0.1,0.8,0.1,1.4c0,0.6,0,1.1-0.1,1.4
				c-0.1,0.5-0.3,1-0.7,1.3c-0.4,0.3-0.9,0.5-1.4,0.5S60.2,133.6,59.8,133.3z M62.1,132.7c0.2-0.2,0.4-0.5,0.4-0.8
				c0-0.3,0-0.7,0-1.2c0-0.5,0-0.9,0-1.2c0-0.4-0.2-0.6-0.4-0.8c-0.2-0.2-0.5-0.3-0.9-0.3s-0.6,0.1-0.9,0.3
				c-0.2,0.2-0.4,0.5-0.4,0.8c0,0.3,0,0.7,0,1.2s0,0.9,0,1.2c0,0.4,0.2,0.6,0.4,0.8c0.2,0.2,0.5,0.3,0.9,0.3
				C61.6,133,61.9,132.9,62.1,132.7z"/>
			<path class="st4" d="M70.2,132.8c0.2-0.2,0.4-0.4,0.5-0.6c0-0.1,0.1-0.1,0.1-0.1l0.6,0.1c0,0,0.1,0,0.1,0.1c0,0,0,0.1,0,0.1
				c-0.1,0.4-0.4,0.8-0.7,1.1s-0.8,0.4-1.3,0.4c-0.6,0-1.1-0.2-1.4-0.5c-0.4-0.3-0.6-0.7-0.7-1.3c0-0.2-0.1-0.4-0.1-0.7
				c0-0.3,0-0.5,0-0.7s0-0.3,0-0.4c0-0.4,0-0.7,0-1c0.1-0.5,0.3-1,0.7-1.3c0.4-0.3,0.9-0.5,1.4-0.5c0.6,0,1.1,0.2,1.5,0.5
				c0.4,0.4,0.6,0.8,0.6,1.4c0,0.3,0,0.7,0,1.5c0,0.1,0,0.1-0.1,0.1h-3.3c0,0,0,0,0,0c0,0.2,0,0.5,0,0.8c0,0.3,0.2,0.6,0.4,0.8
				s0.5,0.3,0.9,0.3C69.7,133,70,132.9,70.2,132.8z M68.5,128.5c-0.2,0.2-0.4,0.5-0.4,0.8c0,0.3,0,0.6,0,0.8c0,0,0,0,0,0h2.5
				c0,0,0,0,0,0c0-0.2,0-0.5,0-0.8c0-0.3-0.2-0.6-0.4-0.8c-0.2-0.2-0.5-0.3-0.9-0.3C69,128.2,68.7,128.3,68.5,128.5z"/>
			<path class="st4" d="M76.7,128c0.3,0.4,0.5,0.8,0.5,1.5v4c0,0.1,0,0.1-0.1,0.1h-0.6c-0.1,0-0.1,0-0.1-0.1v-3.9
				c0-0.4-0.1-0.7-0.3-1c-0.2-0.2-0.5-0.4-0.9-0.4s-0.7,0.1-0.9,0.4s-0.3,0.6-0.3,1v3.9c0,0.1,0,0.1-0.1,0.1h-0.6
				c-0.1,0-0.1,0-0.1-0.1v-5.8c0-0.1,0-0.1,0.1-0.1h0.6c0.1,0,0.1,0,0.1,0.1v0.5c0,0,0,0,0,0c0,0,0,0,0,0c0.3-0.5,0.8-0.7,1.4-0.7
				C75.9,127.5,76.4,127.7,76.7,128z"/>
			<path class="st4" d="M84,132.8c0.2-0.2,0.4-0.4,0.5-0.6c0-0.1,0.1-0.1,0.1-0.1l0.6,0.1c0,0,0.1,0,0.1,0.1c0,0,0,0.1,0,0.1
				c-0.1,0.4-0.4,0.8-0.7,1.1s-0.8,0.4-1.3,0.4c-0.6,0-1.1-0.2-1.4-0.5c-0.4-0.3-0.6-0.7-0.7-1.3c0-0.2-0.1-0.4-0.1-0.7
				c0-0.3,0-0.5,0-0.7s0-0.3,0-0.4c0-0.4,0-0.7,0-1c0.1-0.5,0.3-1,0.7-1.3c0.4-0.3,0.9-0.5,1.4-0.5c0.6,0,1.1,0.2,1.5,0.5
				c0.4,0.4,0.6,0.8,0.6,1.4c0,0.3,0,0.7,0,1.5c0,0.1,0,0.1-0.1,0.1h-3.3c0,0,0,0,0,0c0,0.2,0,0.5,0,0.8c0,0.3,0.2,0.6,0.4,0.8
				s0.5,0.3,0.9,0.3C83.5,133,83.8,132.9,84,132.8z M82.3,128.5c-0.2,0.2-0.4,0.5-0.4,0.8c0,0.3,0,0.6,0,0.8c0,0,0,0,0,0h2.5
				c0,0,0,0,0,0c0-0.2,0-0.5,0-0.8c0-0.3-0.2-0.6-0.4-0.8c-0.2-0.2-0.5-0.3-0.9-0.3C82.8,128.2,82.6,128.3,82.3,128.5z"/>
			<path class="st4" d="M90.5,128c0.3,0.4,0.5,0.8,0.5,1.5v4c0,0.1,0,0.1-0.1,0.1h-0.6c-0.1,0-0.1,0-0.1-0.1v-3.9
				c0-0.4-0.1-0.7-0.3-1c-0.2-0.2-0.5-0.4-0.9-0.4s-0.7,0.1-0.9,0.4s-0.3,0.6-0.3,1v3.9c0,0.1,0,0.1-0.1,0.1H87
				c-0.1,0-0.1,0-0.1-0.1v-5.8c0-0.1,0-0.1,0.1-0.1h0.6c0.1,0,0.1,0,0.1,0.1v0.5c0,0,0,0,0,0c0,0,0,0,0,0c0.3-0.5,0.8-0.7,1.4-0.7
				C89.7,127.5,90.2,127.7,90.5,128z"/>
		</g>
		<g class="st3">
			<path class="st4" d="M94.9,128.2h-1.1c0,0,0,0,0,0v3.6c0,0.4,0.1,0.6,0.2,0.8c0.1,0.1,0.4,0.2,0.7,0.2h0.2c0.1,0,0.1,0,0.1,0.1
				v0.5c0,0.1,0,0.1-0.1,0.1l-0.4,0c-0.5,0-0.9-0.1-1.2-0.3s-0.4-0.6-0.4-1.2v-3.9c0,0,0,0,0,0h-0.6c-0.1,0-0.1,0-0.1-0.1v-0.4
				c0-0.1,0-0.1,0.1-0.1h0.6c0,0,0,0,0,0v-1.4c0-0.1,0-0.1,0.1-0.1h0.6c0.1,0,0.1,0,0.1,0.1v1.4c0,0,0,0,0,0h1.1
				c0.1,0,0.1,0,0.1,0.1v0.4C95.1,128.2,95,128.2,94.9,128.2z"/>
		</g>
		<g class="st3">
			<path class="st4" d="M96.9,133.3c-0.4-0.3-0.6-0.7-0.7-1.3c0-0.4-0.1-0.9-0.1-1.4s0-1,0.1-1.4c0.1-0.5,0.3-1,0.7-1.3
				c0.4-0.3,0.9-0.5,1.4-0.5s1.1,0.2,1.4,0.5c0.4,0.3,0.6,0.7,0.7,1.3c0,0.3,0.1,0.8,0.1,1.4c0,0.6,0,1.1-0.1,1.4
				c-0.1,0.5-0.3,1-0.7,1.3c-0.4,0.3-0.9,0.5-1.4,0.5S97.3,133.6,96.9,133.3z M99.2,132.7c0.2-0.2,0.4-0.5,0.4-0.8
				c0-0.3,0-0.7,0-1.2c0-0.5,0-0.9,0-1.2c0-0.4-0.2-0.6-0.4-0.8c-0.2-0.2-0.5-0.3-0.9-0.3s-0.6,0.1-0.9,0.3
				c-0.2,0.2-0.4,0.5-0.4,0.8c0,0.3,0,0.7,0,1.2s0,0.9,0,1.2c0,0.4,0.2,0.6,0.4,0.8c0.2,0.2,0.5,0.3,0.9,0.3
				C98.7,133,99,132.9,99.2,132.7z"/>
			<path class="st4" d="M104.9,127.7c0.1,0,0.1,0.1,0.1,0.1l-0.1,0.6c0,0.1-0.1,0.1-0.1,0.1c-0.1-0.1-0.3-0.1-0.4-0.1l-0.1,0
				c-0.4,0-0.6,0.2-0.9,0.5s-0.3,0.7-0.3,1.1v3.6c0,0.1,0,0.1-0.1,0.1h-0.6c-0.1,0-0.1,0-0.1-0.1v-5.8c0-0.1,0-0.1,0.1-0.1h0.6
				c0.1,0,0.1,0,0.1,0.1v0.8c0,0,0,0,0,0c0,0,0,0,0,0c0.1-0.3,0.3-0.5,0.5-0.7s0.5-0.3,0.8-0.3C104.6,127.5,104.8,127.6,104.9,127.7
				z"/>
		</g>
		<g class="st3">
			<path class="st4" d="M109.7,128c0.3,0.4,0.5,0.8,0.5,1.5v4c0,0.1,0,0.1-0.1,0.1h-0.6c-0.1,0-0.1,0-0.1-0.1v-3.9
				c0-0.4-0.1-0.7-0.3-1c-0.2-0.2-0.5-0.4-0.9-0.4s-0.7,0.1-0.9,0.4s-0.3,0.6-0.3,1v3.9c0,0.1,0,0.1-0.1,0.1h-0.6
				c-0.1,0-0.1,0-0.1-0.1v-5.8c0-0.1,0-0.1,0.1-0.1h0.6c0.1,0,0.1,0,0.1,0.1v0.5c0,0,0,0,0,0c0,0,0,0,0,0c0.3-0.5,0.8-0.7,1.4-0.7
				C108.9,127.5,109.4,127.7,109.7,128z"/>
		</g>
		<g class="st3">
			<path class="st4" d="M112.4,133.3c-0.4-0.3-0.6-0.7-0.7-1.3c0-0.4-0.1-0.9-0.1-1.4s0-1,0.1-1.4c0.1-0.5,0.3-1,0.7-1.3
				c0.4-0.3,0.9-0.5,1.4-0.5s1.1,0.2,1.4,0.5c0.4,0.3,0.6,0.7,0.7,1.3c0,0.3,0.1,0.8,0.1,1.4c0,0.6,0,1.1-0.1,1.4
				c-0.1,0.5-0.3,1-0.7,1.3c-0.4,0.3-0.9,0.5-1.4,0.5S112.7,133.6,112.4,133.3z M114.7,132.7c0.2-0.2,0.4-0.5,0.4-0.8
				c0-0.3,0-0.7,0-1.2c0-0.5,0-0.9,0-1.2c0-0.4-0.2-0.6-0.4-0.8c-0.2-0.2-0.5-0.3-0.9-0.3s-0.6,0.1-0.9,0.3
				c-0.2,0.2-0.4,0.5-0.4,0.8c0,0.3,0,0.7,0,1.2s0,0.9,0,1.2c0,0.4,0.2,0.6,0.4,0.8c0.2,0.2,0.5,0.3,0.9,0.3
				C114.1,133,114.4,132.9,114.7,132.7z"/>
			<path class="st4" d="M117.8,133.3c-0.4-0.3-0.6-0.7-0.6-1.1V132c0-0.1,0-0.1,0.1-0.1h0.6c0.1,0,0.1,0,0.1,0.1v0.1
				c0,0.3,0.1,0.5,0.3,0.7c0.2,0.2,0.5,0.3,0.9,0.3c0.4,0,0.6-0.1,0.9-0.3c0.2-0.2,0.3-0.4,0.3-0.7c0-0.2-0.1-0.4-0.2-0.5
				c-0.1-0.1-0.3-0.2-0.4-0.3c-0.2-0.1-0.4-0.2-0.7-0.3c-0.4-0.1-0.7-0.3-0.9-0.4c-0.2-0.1-0.5-0.3-0.6-0.5
				c-0.2-0.2-0.3-0.5-0.3-0.9c0-0.5,0.2-0.9,0.5-1.2c0.4-0.3,0.8-0.5,1.4-0.5c0.6,0,1.1,0.2,1.5,0.5c0.4,0.3,0.5,0.7,0.5,1.2v0
				c0,0.1,0,0.1-0.1,0.1h-0.6c-0.1,0-0.1,0-0.1-0.1v0c0-0.3-0.1-0.5-0.3-0.7c-0.2-0.2-0.5-0.3-0.9-0.3c-0.3,0-0.6,0.1-0.8,0.3
				s-0.3,0.4-0.3,0.7c0,0.3,0.1,0.5,0.3,0.6s0.5,0.3,1,0.5c0.4,0.1,0.7,0.3,1,0.4s0.5,0.3,0.7,0.5c0.2,0.2,0.3,0.5,0.3,0.9
				c0,0.5-0.2,0.9-0.6,1.2c-0.4,0.3-0.9,0.5-1.5,0.5S118.2,133.6,117.8,133.3z"/>
			<path class="st4" d="M128.5,128c0.4,0.4,0.5,0.9,0.5,1.5v4c0,0.1,0,0.1-0.1,0.1h-0.6c-0.1,0-0.1,0-0.1-0.1v-0.4c0,0,0,0,0,0
				c0,0,0,0,0,0c-0.2,0.2-0.4,0.4-0.7,0.5c-0.3,0.1-0.6,0.2-0.9,0.2c-0.5,0-0.9-0.1-1.3-0.4c-0.4-0.3-0.5-0.7-0.5-1.3
				c0-0.6,0.2-1.1,0.6-1.5s1-0.5,1.7-0.5h1.1c0,0,0,0,0,0v-0.5c0-0.4-0.1-0.7-0.3-1c-0.2-0.2-0.5-0.4-0.9-0.4
				c-0.3,0-0.6,0.1-0.8,0.2c-0.2,0.2-0.3,0.4-0.4,0.6c0,0.1-0.1,0.1-0.1,0.1l-0.7,0c0,0-0.1,0-0.1,0c0,0,0-0.1,0-0.1
				c0.1-0.5,0.3-0.8,0.7-1.1c0.4-0.3,0.9-0.4,1.4-0.4C127.6,127.5,128.1,127.7,128.5,128z M127.8,132.7c0.3-0.2,0.4-0.5,0.4-0.9v-1
				c0,0,0,0,0,0h-1.1c-0.5,0-0.8,0.1-1.1,0.3s-0.4,0.5-0.4,0.9c0,0.4,0.1,0.6,0.3,0.8c0.2,0.2,0.5,0.3,0.8,0.3
				C127.1,133,127.5,132.9,127.8,132.7z"/>
			<path class="st4" d="M131.2,133.3c-0.4-0.3-0.6-0.7-0.7-1.3c0-0.4-0.1-0.9-0.1-1.4c0-0.4,0-0.9,0.1-1.4c0.1-0.5,0.3-0.9,0.7-1.3
				c0.4-0.3,0.9-0.5,1.4-0.5c0.6,0,1,0.2,1.4,0.5c0.4,0.3,0.6,0.7,0.7,1.1l0,0.3v0c0,0,0,0.1,0,0.1c0,0,0,0-0.1,0l-0.6,0
				c-0.1,0-0.1,0-0.1-0.1c0-0.1,0-0.1,0-0.1c0-0.3-0.2-0.5-0.4-0.7s-0.5-0.3-0.9-0.3c-0.4,0-0.6,0.1-0.9,0.3
				c-0.2,0.2-0.4,0.5-0.4,0.8c0,0.3-0.1,0.8-0.1,1.2c0,0.5,0,0.9,0.1,1.2c0,0.4,0.2,0.6,0.4,0.8s0.5,0.3,0.9,0.3
				c0.4,0,0.6-0.1,0.9-0.3c0.2-0.2,0.4-0.4,0.4-0.7l0-0.1c0-0.1,0.1-0.1,0.1-0.1l0.6,0c0.1,0,0.1,0.1,0.1,0.1v0c0,0,0,0.1,0,0.1
				c-0.1,0.5-0.3,0.9-0.7,1.2c-0.4,0.3-0.9,0.5-1.4,0.5C132.1,133.7,131.6,133.6,131.2,133.3z"/>
			<path class="st4" d="M139.6,128c0.4,0.4,0.5,0.9,0.5,1.5v4c0,0.1,0,0.1-0.1,0.1h-0.6c-0.1,0-0.1,0-0.1-0.1v-0.4c0,0,0,0,0,0
				c0,0,0,0,0,0c-0.2,0.2-0.4,0.4-0.7,0.5c-0.3,0.1-0.6,0.2-0.9,0.2c-0.5,0-0.9-0.1-1.3-0.4c-0.4-0.3-0.5-0.7-0.5-1.3
				c0-0.6,0.2-1.1,0.6-1.5s1-0.5,1.7-0.5h1.1c0,0,0,0,0,0v-0.5c0-0.4-0.1-0.7-0.3-1c-0.2-0.2-0.5-0.4-0.9-0.4
				c-0.3,0-0.6,0.1-0.8,0.2c-0.2,0.2-0.3,0.4-0.4,0.6c0,0.1-0.1,0.1-0.1,0.1l-0.7,0c0,0-0.1,0-0.1,0c0,0,0-0.1,0-0.1
				c0.1-0.5,0.3-0.8,0.7-1.1c0.4-0.3,0.9-0.4,1.4-0.4C138.7,127.5,139.2,127.7,139.6,128z M138.8,132.7c0.3-0.2,0.4-0.5,0.4-0.9v-1
				c0,0,0,0,0,0h-1.1c-0.5,0-0.8,0.1-1.1,0.3s-0.4,0.5-0.4,0.9c0,0.4,0.1,0.6,0.3,0.8c0.2,0.2,0.5,0.3,0.8,0.3
				C138.2,133,138.5,132.9,138.8,132.7z"/>
			<path class="st4" d="M145.1,125.2h0.6c0.1,0,0.1,0,0.1,0.1v8.2c0,0.1,0,0.1-0.1,0.1h-0.6c-0.1,0-0.1,0-0.1-0.1v-0.5c0,0,0,0,0,0
				c0,0,0,0,0,0c-0.3,0.5-0.8,0.7-1.4,0.7c-0.5,0-0.9-0.1-1.2-0.4c-0.3-0.3-0.5-0.7-0.7-1.3c-0.1-0.4-0.2-0.9-0.2-1.4
				c0-0.6,0-1,0.1-1.4c0.1-0.6,0.3-1,0.7-1.3c0.3-0.3,0.8-0.4,1.3-0.4c0.3,0,0.6,0.1,0.8,0.2c0.2,0.1,0.4,0.3,0.5,0.5c0,0,0,0,0,0
				s0,0,0,0v-2.8C145,125.3,145,125.2,145.1,125.2z M144.9,130.6c0-0.7-0.1-1.2-0.2-1.5c-0.1-0.3-0.2-0.5-0.4-0.6s-0.4-0.2-0.7-0.2
				c-0.5,0-0.9,0.3-1.1,0.8c-0.2,0.4-0.2,0.9-0.2,1.6c0,0.6,0.1,1.1,0.2,1.5c0.1,0.3,0.2,0.5,0.4,0.7c0.2,0.2,0.4,0.2,0.7,0.2
				c0.3,0,0.5-0.1,0.7-0.2c0.2-0.2,0.3-0.4,0.4-0.7C144.9,131.8,144.9,131.3,144.9,130.6z"/>
			<path class="st4" d="M150.3,132.8c0.2-0.2,0.4-0.4,0.5-0.6c0-0.1,0.1-0.1,0.1-0.1l0.6,0.1c0,0,0.1,0,0.1,0.1c0,0,0,0.1,0,0.1
				c-0.1,0.4-0.4,0.8-0.7,1.1s-0.8,0.4-1.3,0.4c-0.6,0-1.1-0.2-1.4-0.5c-0.4-0.3-0.6-0.7-0.7-1.3c0-0.2-0.1-0.4-0.1-0.7
				c0-0.3,0-0.5,0-0.7s0-0.3,0-0.4c0-0.4,0-0.7,0-1c0.1-0.5,0.3-1,0.7-1.3c0.4-0.3,0.9-0.5,1.4-0.5c0.6,0,1.1,0.2,1.5,0.5
				c0.4,0.4,0.6,0.8,0.6,1.4c0,0.3,0,0.7,0,1.5c0,0.1,0,0.1-0.1,0.1h-3.3c0,0,0,0,0,0c0,0.2,0,0.5,0,0.8c0,0.3,0.2,0.6,0.4,0.8
				s0.5,0.3,0.9,0.3C149.8,133,150.1,132.9,150.3,132.8z M148.6,128.5c-0.2,0.2-0.4,0.5-0.4,0.8c0,0.3,0,0.6,0,0.8c0,0,0,0,0,0h2.5
				c0,0,0,0,0,0c0-0.2,0-0.5,0-0.8c0-0.3-0.2-0.6-0.4-0.8c-0.2-0.2-0.5-0.3-0.9-0.3C149.1,128.2,148.8,128.3,148.6,128.5z
				 M149,126.7c0,0,0-0.1,0-0.1l0.7-1.3c0-0.1,0.1-0.1,0.1-0.1h0.5c0,0,0.1,0,0.1,0c0,0,0,0.1,0,0.1l-0.8,1.3c0,0.1-0.1,0.1-0.1,0.1
				L149,126.7C149,126.8,149,126.8,149,126.7z"/>
			<path class="st4" d="M159.9,128c0.3,0.4,0.5,0.8,0.5,1.5v4c0,0.1,0,0.1-0.1,0.1h-0.6c-0.1,0-0.1,0-0.1-0.1v-3.9
				c0-0.4-0.1-0.8-0.3-1s-0.5-0.4-0.8-0.4c-0.4,0-0.6,0.1-0.9,0.4c-0.2,0.2-0.3,0.6-0.3,1v3.9c0,0.1,0,0.1-0.1,0.1h-0.6
				c-0.1,0-0.1,0-0.1-0.1v-3.9c0-0.4-0.1-0.8-0.3-1s-0.5-0.4-0.8-0.4c-0.4,0-0.6,0.1-0.9,0.4c-0.2,0.2-0.3,0.6-0.3,1v3.9
				c0,0.1,0,0.1-0.1,0.1h-0.6c-0.1,0-0.1,0-0.1-0.1v-5.8c0-0.1,0-0.1,0.1-0.1h0.6c0.1,0,0.1,0,0.1,0.1v0.4c0,0,0,0,0,0c0,0,0,0,0,0
				c0.2-0.2,0.4-0.4,0.6-0.5c0.2-0.1,0.5-0.2,0.8-0.2c0.4,0,0.7,0.1,0.9,0.2c0.3,0.2,0.5,0.4,0.6,0.7c0,0,0,0,0.1,0
				c0.2-0.3,0.4-0.5,0.7-0.7c0.3-0.1,0.6-0.2,0.9-0.2C159.2,127.5,159.6,127.7,159.9,128z"/>
			<path class="st4" d="M162,126.3c-0.1-0.1-0.2-0.3-0.2-0.5c0-0.2,0.1-0.4,0.2-0.5s0.3-0.2,0.5-0.2c0.2,0,0.4,0.1,0.5,0.2
				s0.2,0.3,0.2,0.5c0,0.2-0.1,0.4-0.2,0.5s-0.3,0.2-0.5,0.2C162.3,126.5,162.2,126.4,162,126.3z M162.1,133.5v-5.8
				c0-0.1,0-0.1,0.1-0.1h0.6c0.1,0,0.1,0,0.1,0.1v5.8c0,0.1,0,0.1-0.1,0.1h-0.6C162.1,133.7,162.1,133.6,162.1,133.5z"/>
		</g>
		<g class="st3">
			<path class="st4" d="M165.3,133.3c-0.4-0.3-0.6-0.7-0.7-1.3c0-0.4-0.1-0.9-0.1-1.4c0-0.4,0-0.9,0.1-1.4c0.1-0.5,0.3-0.9,0.7-1.3
				c0.4-0.3,0.9-0.5,1.4-0.5c0.6,0,1,0.2,1.4,0.5s0.6,0.7,0.7,1.1l0,0.3v0c0,0,0,0.1,0,0.1c0,0,0,0-0.1,0l-0.6,0
				c-0.1,0-0.1,0-0.1-0.1c0-0.1,0-0.1,0-0.1c0-0.3-0.2-0.5-0.4-0.7c-0.2-0.2-0.5-0.3-0.9-0.3c-0.4,0-0.6,0.1-0.9,0.3
				c-0.2,0.2-0.4,0.5-0.4,0.8s-0.1,0.8-0.1,1.2c0,0.5,0,0.9,0.1,1.2c0,0.4,0.2,0.6,0.4,0.8c0.2,0.2,0.5,0.3,0.9,0.3
				c0.4,0,0.6-0.1,0.9-0.3c0.2-0.2,0.4-0.4,0.4-0.7l0-0.1c0-0.1,0.1-0.1,0.1-0.1l0.6,0c0.1,0,0.1,0.1,0.1,0.1v0c0,0,0,0.1,0,0.1
				c-0.1,0.5-0.3,0.9-0.7,1.2c-0.4,0.3-0.9,0.5-1.4,0.5C166.2,133.7,165.7,133.6,165.3,133.3z"/>
		</g>
		<g class="st3">
			<path class="st4" d="M170.9,133.3c-0.4-0.3-0.6-0.7-0.7-1.3c0-0.4-0.1-0.9-0.1-1.4s0-1,0.1-1.4c0.1-0.5,0.3-1,0.7-1.3
				c0.4-0.3,0.9-0.5,1.4-0.5s1.1,0.2,1.4,0.5c0.4,0.3,0.6,0.7,0.7,1.3c0,0.3,0.1,0.8,0.1,1.4c0,0.6,0,1.1-0.1,1.4
				c-0.1,0.5-0.3,1-0.7,1.3s-0.9,0.5-1.4,0.5S171.2,133.6,170.9,133.3z M173.2,132.7c0.2-0.2,0.4-0.5,0.4-0.8c0-0.3,0-0.7,0-1.2
				c0-0.5,0-0.9,0-1.2c0-0.4-0.2-0.6-0.4-0.8c-0.2-0.2-0.5-0.3-0.9-0.3c-0.4,0-0.6,0.1-0.9,0.3c-0.2,0.2-0.4,0.5-0.4,0.8
				c0,0.3,0,0.7,0,1.2s0,0.9,0,1.2c0,0.4,0.2,0.6,0.4,0.8s0.5,0.3,0.9,0.3C172.7,133,172.9,132.9,173.2,132.7z"/>
			<path class="st4" d="M176.3,133.3c-0.4-0.3-0.6-0.7-0.6-1.1V132c0-0.1,0-0.1,0.1-0.1h0.6c0.1,0,0.1,0,0.1,0.1v0.1
				c0,0.3,0.1,0.5,0.3,0.7c0.2,0.2,0.5,0.3,0.9,0.3c0.4,0,0.6-0.1,0.9-0.3c0.2-0.2,0.3-0.4,0.3-0.7c0-0.2-0.1-0.4-0.2-0.5
				c-0.1-0.1-0.3-0.2-0.4-0.3c-0.2-0.1-0.4-0.2-0.7-0.3c-0.4-0.1-0.7-0.3-0.9-0.4c-0.2-0.1-0.5-0.3-0.6-0.5
				c-0.2-0.2-0.3-0.5-0.3-0.9c0-0.5,0.2-0.9,0.5-1.2c0.4-0.3,0.8-0.5,1.4-0.5c0.6,0,1.1,0.2,1.5,0.5c0.4,0.3,0.5,0.7,0.5,1.2v0
				c0,0.1,0,0.1-0.1,0.1h-0.6c-0.1,0-0.1,0-0.1-0.1v0c0-0.3-0.1-0.5-0.3-0.7c-0.2-0.2-0.5-0.3-0.9-0.3c-0.3,0-0.6,0.1-0.8,0.3
				s-0.3,0.4-0.3,0.7c0,0.3,0.1,0.5,0.3,0.6s0.5,0.3,1,0.5c0.4,0.1,0.7,0.3,1,0.4s0.5,0.3,0.7,0.5c0.2,0.2,0.3,0.5,0.3,0.9
				c0,0.5-0.2,0.9-0.6,1.2c-0.4,0.3-0.9,0.5-1.5,0.5S176.7,133.6,176.3,133.3z"/>
			<path class="st4" d="M184.2,133.3c-0.4-0.3-0.6-0.7-0.7-1.3c0-0.4-0.1-0.9-0.1-1.4c0-0.4,0-0.9,0.1-1.4c0.1-0.5,0.3-0.9,0.7-1.3
				c0.4-0.3,0.9-0.5,1.4-0.5s1,0.2,1.4,0.5c0.4,0.3,0.6,0.7,0.7,1.1l0,0.3v0c0,0,0,0.1,0,0.1c0,0,0,0-0.1,0l-0.6,0
				c-0.1,0-0.1,0-0.1-0.1c0-0.1,0-0.1,0-0.1c0-0.3-0.2-0.5-0.4-0.7c-0.2-0.2-0.5-0.3-0.9-0.3c-0.4,0-0.6,0.1-0.9,0.3
				c-0.2,0.2-0.4,0.5-0.4,0.8c0,0.3-0.1,0.8-0.1,1.2c0,0.5,0,0.9,0.1,1.2c0,0.4,0.2,0.6,0.4,0.8c0.2,0.2,0.5,0.3,0.9,0.3
				s0.6-0.1,0.9-0.3c0.2-0.2,0.4-0.4,0.4-0.7l0-0.1c0-0.1,0.1-0.1,0.1-0.1l0.6,0c0.1,0,0.1,0.1,0.1,0.1v0c0,0,0,0.1,0,0.1
				c-0.1,0.5-0.3,0.9-0.7,1.2c-0.4,0.3-0.9,0.5-1.4,0.5S184.5,133.6,184.2,133.3z"/>
			<path class="st4" d="M192.4,127.6h0.6c0.1,0,0.1,0,0.1,0.1v5.8c0,0.1,0,0.1-0.1,0.1h-0.6c-0.1,0-0.1,0-0.1-0.1v-0.5c0,0,0,0,0,0
				s0,0,0,0c-0.3,0.5-0.7,0.7-1.4,0.7c-0.5,0-1-0.2-1.3-0.5c-0.3-0.3-0.5-0.8-0.5-1.4v-4.2c0-0.1,0-0.1,0.1-0.1h0.6
				c0.1,0,0.1,0,0.1,0.1v3.9c0,0.4,0.1,0.8,0.3,1c0.2,0.2,0.5,0.4,0.9,0.4c0.4,0,0.7-0.1,0.9-0.4c0.2-0.3,0.3-0.6,0.3-1v-3.9
				C192.3,127.6,192.4,127.6,192.4,127.6z"/>
			<path class="st4" d="M198.3,128c0.4,0.4,0.5,0.9,0.5,1.5v4c0,0.1,0,0.1-0.1,0.1h-0.6c-0.1,0-0.1,0-0.1-0.1v-0.4c0,0,0,0,0,0
				c0,0,0,0,0,0c-0.2,0.2-0.4,0.4-0.7,0.5c-0.3,0.1-0.6,0.2-0.9,0.2c-0.5,0-0.9-0.1-1.3-0.4c-0.4-0.3-0.5-0.7-0.5-1.3
				c0-0.6,0.2-1.1,0.6-1.5s1-0.5,1.7-0.5h1.1c0,0,0,0,0,0v-0.5c0-0.4-0.1-0.7-0.3-1c-0.2-0.2-0.5-0.4-0.9-0.4
				c-0.3,0-0.6,0.1-0.8,0.2c-0.2,0.2-0.3,0.4-0.4,0.6c0,0.1-0.1,0.1-0.1,0.1l-0.7,0c0,0-0.1,0-0.1,0c0,0,0-0.1,0-0.1
				c0.1-0.5,0.3-0.8,0.7-1.1c0.4-0.3,0.9-0.4,1.4-0.4C197.4,127.5,197.9,127.7,198.3,128z M197.6,132.7c0.3-0.2,0.4-0.5,0.4-0.9v-1
				c0,0,0,0,0,0h-1.1c-0.5,0-0.8,0.1-1.1,0.3c-0.3,0.2-0.4,0.5-0.4,0.9c0,0.4,0.1,0.6,0.3,0.8c0.2,0.2,0.5,0.3,0.8,0.3
				C196.9,133,197.3,132.9,197.6,132.7z"/>
		</g>
		<g class="st3">
			<path class="st4" d="M204.1,128c0.3,0.4,0.5,0.8,0.5,1.5v4c0,0.1,0,0.1-0.1,0.1h-0.6c-0.1,0-0.1,0-0.1-0.1v-3.9
				c0-0.4-0.1-0.7-0.3-1s-0.5-0.4-0.9-0.4s-0.7,0.1-0.9,0.4c-0.2,0.3-0.3,0.6-0.3,1v3.9c0,0.1,0,0.1-0.1,0.1h-0.6
				c-0.1,0-0.1,0-0.1-0.1v-5.8c0-0.1,0-0.1,0.1-0.1h0.6c0.1,0,0.1,0,0.1,0.1v0.5c0,0,0,0,0,0c0,0,0,0,0,0c0.3-0.5,0.8-0.7,1.4-0.7
				C203.3,127.5,203.8,127.7,204.1,128z"/>
		</g>
		<g class="st3">
			<path class="st4" d="M209.5,125.2h0.6c0.1,0,0.1,0,0.1,0.1v8.2c0,0.1,0,0.1-0.1,0.1h-0.6c-0.1,0-0.1,0-0.1-0.1v-0.5c0,0,0,0,0,0
				c0,0,0,0,0,0c-0.3,0.5-0.8,0.7-1.4,0.7c-0.5,0-0.9-0.1-1.2-0.4c-0.3-0.3-0.5-0.7-0.7-1.3c-0.1-0.4-0.2-0.9-0.2-1.4
				c0-0.6,0-1,0.1-1.4c0.1-0.6,0.3-1,0.7-1.3c0.3-0.3,0.8-0.4,1.3-0.4c0.3,0,0.6,0.1,0.8,0.2c0.2,0.1,0.4,0.3,0.5,0.5c0,0,0,0,0,0
				c0,0,0,0,0,0v-2.8C209.4,125.3,209.5,125.2,209.5,125.2z M209.4,130.6c0-0.7-0.1-1.2-0.2-1.5c-0.1-0.3-0.2-0.5-0.4-0.6
				s-0.4-0.2-0.7-0.2c-0.5,0-0.9,0.3-1.1,0.8c-0.2,0.4-0.2,0.9-0.2,1.6c0,0.6,0.1,1.1,0.2,1.5c0.1,0.3,0.2,0.5,0.4,0.7
				c0.2,0.2,0.4,0.2,0.7,0.2c0.3,0,0.5-0.1,0.7-0.2c0.2-0.2,0.3-0.4,0.4-0.7C209.3,131.8,209.4,131.3,209.4,130.6z"/>
			<path class="st4" d="M212.5,133.3c-0.4-0.3-0.6-0.7-0.7-1.3c0-0.4-0.1-0.9-0.1-1.4s0-1,0.1-1.4c0.1-0.5,0.3-1,0.7-1.3
				c0.4-0.3,0.9-0.5,1.4-0.5s1.1,0.2,1.4,0.5c0.4,0.3,0.6,0.7,0.7,1.3c0,0.3,0.1,0.8,0.1,1.4c0,0.6,0,1.1-0.1,1.4
				c-0.1,0.5-0.3,1-0.7,1.3c-0.4,0.3-0.9,0.5-1.4,0.5S212.9,133.6,212.5,133.3z M214.9,132.7c0.2-0.2,0.4-0.5,0.4-0.8
				c0-0.3,0-0.7,0-1.2c0-0.5,0-0.9,0-1.2c0-0.4-0.2-0.6-0.4-0.8c-0.2-0.2-0.5-0.3-0.9-0.3c-0.4,0-0.6,0.1-0.9,0.3
				c-0.2,0.2-0.4,0.5-0.4,0.8c0,0.3,0,0.7,0,1.2s0,0.9,0,1.2c0,0.4,0.2,0.6,0.4,0.8c0.2,0.2,0.5,0.3,0.9,0.3
				C214.3,133,214.6,132.9,214.9,132.7z"/>
			<path class="st4" d="M220.7,133.3c-0.4-0.3-0.6-0.7-0.7-1.3c0-0.4-0.1-0.9-0.1-1.4c0-0.4,0-0.9,0.1-1.4c0.1-0.5,0.3-0.9,0.7-1.3
				c0.4-0.3,0.9-0.5,1.4-0.5s1,0.2,1.4,0.5c0.4,0.3,0.6,0.7,0.7,1.1l0,0.3v0c0,0,0,0.1,0,0.1c0,0,0,0-0.1,0l-0.6,0
				c-0.1,0-0.1,0-0.1-0.1c0-0.1,0-0.1,0-0.1c0-0.3-0.2-0.5-0.4-0.7c-0.2-0.2-0.5-0.3-0.9-0.3c-0.4,0-0.6,0.1-0.9,0.3
				c-0.2,0.2-0.4,0.5-0.4,0.8c0,0.3-0.1,0.8-0.1,1.2c0,0.5,0,0.9,0.1,1.2c0,0.4,0.2,0.6,0.4,0.8c0.2,0.2,0.5,0.3,0.9,0.3
				s0.6-0.1,0.9-0.3c0.2-0.2,0.4-0.4,0.4-0.7l0-0.1c0-0.1,0.1-0.1,0.1-0.1l0.6,0c0.1,0,0.1,0.1,0.1,0.1v0c0,0,0,0.1,0,0.1
				c-0.1,0.5-0.3,0.9-0.7,1.2c-0.4,0.3-0.9,0.5-1.4,0.5S221.1,133.6,220.7,133.3z"/>
		</g>
		<g class="st3">
			<path class="st4" d="M228.5,127.7c0.1,0,0.1,0.1,0.1,0.1l-0.1,0.6c0,0.1-0.1,0.1-0.1,0.1c-0.1-0.1-0.3-0.1-0.4-0.1l-0.1,0
				c-0.4,0-0.6,0.2-0.9,0.5c-0.2,0.3-0.3,0.7-0.3,1.1v3.6c0,0.1,0,0.1-0.1,0.1h-0.6c-0.1,0-0.1,0-0.1-0.1v-5.8c0-0.1,0-0.1,0.1-0.1
				h0.6c0.1,0,0.1,0,0.1,0.1v0.8c0,0,0,0,0,0c0,0,0,0,0,0c0.1-0.3,0.3-0.5,0.5-0.7c0.2-0.2,0.5-0.3,0.8-0.3
				C228.1,127.5,228.3,127.6,228.5,127.7z"/>
		</g>
		<g class="st3">
			<path class="st4" d="M232.4,132.8c0.2-0.2,0.4-0.4,0.5-0.6c0-0.1,0.1-0.1,0.1-0.1l0.6,0.1c0,0,0.1,0,0.1,0.1c0,0,0,0.1,0,0.1
				c-0.1,0.4-0.4,0.8-0.7,1.1c-0.4,0.3-0.8,0.4-1.3,0.4c-0.6,0-1.1-0.2-1.4-0.5c-0.4-0.3-0.6-0.7-0.7-1.3c0-0.2-0.1-0.4-0.1-0.7
				c0-0.3,0-0.5,0-0.7s0-0.3,0-0.4c0-0.4,0-0.7,0-1c0.1-0.5,0.3-1,0.7-1.3s0.9-0.5,1.4-0.5c0.6,0,1.1,0.2,1.5,0.5
				c0.4,0.4,0.6,0.8,0.6,1.4c0,0.3,0,0.7,0,1.5c0,0.1,0,0.1-0.1,0.1h-3.3c0,0,0,0,0,0c0,0.2,0,0.5,0,0.8c0,0.3,0.2,0.6,0.4,0.8
				c0.2,0.2,0.5,0.3,0.9,0.3C231.9,133,232.1,132.9,232.4,132.8z M230.7,128.5c-0.2,0.2-0.4,0.5-0.4,0.8c0,0.3,0,0.6,0,0.8
				c0,0,0,0,0,0h2.5c0,0,0,0,0,0c0-0.2,0-0.5,0-0.8c0-0.3-0.2-0.6-0.4-0.8c-0.2-0.2-0.5-0.3-0.9-0.3
				C231.2,128.2,230.9,128.3,230.7,128.5z"/>
		</g>
		<g class="st3">
			<path class="st4" d="M238.6,128c0.4,0.4,0.5,0.9,0.5,1.5v4c0,0.1,0,0.1-0.1,0.1h-0.6c-0.1,0-0.1,0-0.1-0.1v-0.4c0,0,0,0,0,0
				s0,0,0,0c-0.2,0.2-0.4,0.4-0.7,0.5c-0.3,0.1-0.6,0.2-0.9,0.2c-0.5,0-0.9-0.1-1.3-0.4c-0.4-0.3-0.5-0.7-0.5-1.3
				c0-0.6,0.2-1.1,0.6-1.5s1-0.5,1.7-0.5h1.1c0,0,0,0,0,0v-0.5c0-0.4-0.1-0.7-0.3-1c-0.2-0.2-0.5-0.4-0.9-0.4
				c-0.3,0-0.6,0.1-0.8,0.2c-0.2,0.2-0.3,0.4-0.4,0.6c0,0.1-0.1,0.1-0.1,0.1l-0.7,0c0,0-0.1,0-0.1,0c0,0,0-0.1,0-0.1
				c0.1-0.5,0.3-0.8,0.7-1.1c0.4-0.3,0.8-0.4,1.4-0.4C237.7,127.5,238.2,127.7,238.6,128z M237.8,132.7c0.3-0.2,0.4-0.5,0.4-0.9v-1
				c0,0,0,0,0,0h-1.1c-0.5,0-0.8,0.1-1.1,0.3c-0.3,0.2-0.4,0.5-0.4,0.9c0,0.4,0.1,0.6,0.3,0.8c0.2,0.2,0.5,0.3,0.8,0.3
				C237.2,133,237.5,132.9,237.8,132.7z"/>
			<path class="st4" d="M244.3,128c0.3,0.4,0.5,0.8,0.5,1.5v4c0,0.1,0,0.1-0.1,0.1h-0.6c-0.1,0-0.1,0-0.1-0.1v-3.9
				c0-0.4-0.1-0.7-0.3-1c-0.2-0.2-0.5-0.4-0.9-0.4s-0.7,0.1-0.9,0.4c-0.2,0.3-0.3,0.6-0.3,1v3.9c0,0.1,0,0.1-0.1,0.1h-0.6
				c-0.1,0-0.1,0-0.1-0.1v-5.8c0-0.1,0-0.1,0.1-0.1h0.6c0.1,0,0.1,0,0.1,0.1v0.5c0,0,0,0,0,0c0,0,0,0,0,0c0.3-0.5,0.8-0.7,1.4-0.7
				C243.6,127.5,244,127.7,244.3,128z"/>
			<path class="st4" d="M252.2,127.6h0.6c0.1,0,0.1,0,0.1,0.1v8.2c0,0.1,0,0.1-0.1,0.1h-0.6c-0.1,0-0.1,0-0.1-0.1v-2.8c0,0,0,0,0,0
				c0,0,0,0,0,0c-0.1,0.2-0.3,0.4-0.5,0.5c-0.2,0.1-0.5,0.2-0.8,0.2c-0.5,0-1-0.1-1.3-0.4s-0.5-0.7-0.7-1.3
				c-0.1-0.4-0.1-0.9-0.1-1.4c0-0.5,0.1-1,0.2-1.4c0.1-0.6,0.4-1,0.7-1.3c0.3-0.3,0.7-0.4,1.2-0.4c0.6,0,1.1,0.2,1.4,0.7
				c0,0,0,0,0,0s0,0,0,0v-0.5C252.1,127.6,252.2,127.6,252.2,127.6z M252.1,130.6c0-0.6-0.1-1.2-0.2-1.5c-0.1-0.3-0.2-0.5-0.4-0.7
				s-0.4-0.2-0.7-0.2c-0.3,0-0.5,0.1-0.7,0.2c-0.2,0.2-0.3,0.4-0.4,0.7c-0.1,0.4-0.2,0.9-0.2,1.5c0,0.6,0.1,1.2,0.2,1.6
				c0.2,0.5,0.6,0.8,1.1,0.8c0.3,0,0.5-0.1,0.7-0.2c0.2-0.1,0.3-0.4,0.4-0.6C252,131.8,252.1,131.3,252.1,130.6z"/>
			<path class="st4" d="M258.1,127.6h0.6c0.1,0,0.1,0,0.1,0.1v5.8c0,0.1,0,0.1-0.1,0.1h-0.6c-0.1,0-0.1,0-0.1-0.1v-0.5c0,0,0,0,0,0
				s0,0,0,0c-0.3,0.5-0.7,0.7-1.4,0.7c-0.5,0-1-0.2-1.3-0.5c-0.3-0.3-0.5-0.8-0.5-1.4v-4.2c0-0.1,0-0.1,0.1-0.1h0.6
				c0.1,0,0.1,0,0.1,0.1v3.9c0,0.4,0.1,0.8,0.3,1c0.2,0.2,0.5,0.4,0.9,0.4c0.4,0,0.7-0.1,0.9-0.4c0.2-0.3,0.3-0.6,0.3-1v-3.9
				C258,127.6,258,127.6,258.1,127.6z"/>
			<path class="st4" d="M263.3,132.8c0.2-0.2,0.4-0.4,0.5-0.6c0-0.1,0.1-0.1,0.1-0.1l0.6,0.1c0,0,0.1,0,0.1,0.1c0,0,0,0.1,0,0.1
				c-0.1,0.4-0.4,0.8-0.7,1.1c-0.4,0.3-0.8,0.4-1.3,0.4c-0.6,0-1.1-0.2-1.4-0.5c-0.4-0.3-0.6-0.7-0.7-1.3c0-0.2-0.1-0.4-0.1-0.7
				c0-0.3,0-0.5,0-0.7s0-0.3,0-0.4c0-0.4,0-0.7,0-1c0.1-0.5,0.3-1,0.7-1.3s0.9-0.5,1.4-0.5c0.6,0,1.1,0.2,1.5,0.5
				c0.4,0.4,0.6,0.8,0.6,1.4c0,0.3,0,0.7,0,1.5c0,0.1,0,0.1-0.1,0.1h-3.3c0,0,0,0,0,0c0,0.2,0,0.5,0,0.8c0,0.3,0.2,0.6,0.4,0.8
				c0.2,0.2,0.5,0.3,0.9,0.3C262.8,133,263.1,132.9,263.3,132.8z M261.6,128.5c-0.2,0.2-0.4,0.5-0.4,0.8c0,0.3,0,0.6,0,0.8
				c0,0,0,0,0,0h2.5c0,0,0,0,0,0c0-0.2,0-0.5,0-0.8c0-0.3-0.2-0.6-0.4-0.8c-0.2-0.2-0.5-0.3-0.9-0.3
				C262.1,128.2,261.8,128.3,261.6,128.5z"/>
		</g>
		<g class="st3">
			<path class="st4" d="M46.4,145c0,0.5,0,1-0.1,1.4c-0.1,0.6-0.4,1-0.7,1.3c-0.3,0.3-0.8,0.4-1.3,0.4c-0.3,0-0.6-0.1-0.8-0.2
				c-0.2-0.1-0.4-0.3-0.5-0.5c0,0,0,0,0,0c0,0,0,0,0,0v2.8c0,0.1,0,0.1-0.1,0.1h-0.6c-0.1,0-0.1,0-0.1-0.1v-8.2c0-0.1,0-0.1,0.1-0.1
				h0.6c0.1,0,0.1,0,0.1,0.1v0.5c0,0,0,0,0,0s0,0,0,0c0.3-0.5,0.7-0.7,1.4-0.7c0.5,0,0.9,0.1,1.2,0.4c0.3,0.3,0.5,0.7,0.7,1.3
				C46.3,144,46.4,144.5,46.4,145z M45.5,145c0-0.6-0.1-1.1-0.2-1.5c-0.1-0.3-0.2-0.5-0.4-0.7s-0.4-0.2-0.7-0.2
				c-0.3,0-0.5,0.1-0.7,0.2c-0.2,0.2-0.3,0.4-0.4,0.7c-0.1,0.4-0.2,0.9-0.2,1.5c0,0.7,0.1,1.2,0.2,1.5c0.1,0.3,0.2,0.5,0.4,0.6
				c0.2,0.1,0.4,0.2,0.6,0.2c0.5,0,0.9-0.3,1.1-0.8C45.4,146.2,45.5,145.7,45.5,145z"/>
		</g>
		<g class="st3">
			<path class="st4" d="M50.6,147.2c0.2-0.2,0.4-0.4,0.5-0.6c0-0.1,0.1-0.1,0.1-0.1l0.6,0.1c0,0,0.1,0,0.1,0.1c0,0,0,0.1,0,0.1
				c-0.1,0.4-0.4,0.8-0.7,1.1s-0.8,0.4-1.3,0.4c-0.6,0-1.1-0.2-1.4-0.5c-0.4-0.3-0.6-0.7-0.7-1.3c0-0.2-0.1-0.4-0.1-0.7
				c0-0.3,0-0.5,0-0.7s0-0.3,0-0.4c0-0.4,0-0.7,0-1c0.1-0.5,0.3-1,0.7-1.3c0.4-0.3,0.9-0.5,1.4-0.5c0.6,0,1.1,0.2,1.5,0.5
				c0.4,0.4,0.6,0.8,0.6,1.4c0,0.3,0,0.7,0,1.5c0,0.1,0,0.1-0.1,0.1h-3.3c0,0,0,0,0,0c0,0.2,0,0.5,0,0.8c0,0.3,0.2,0.6,0.4,0.8
				s0.5,0.3,0.9,0.3C50.1,147.4,50.4,147.3,50.6,147.2z M48.9,142.9c-0.2,0.2-0.4,0.5-0.4,0.8c0,0.3,0,0.6,0,0.8c0,0,0,0,0,0h2.5
				c0,0,0,0,0,0c0-0.2,0-0.5,0-0.8c0-0.3-0.2-0.6-0.4-0.8c-0.2-0.2-0.5-0.3-0.9-0.3C49.4,142.6,49.2,142.7,48.9,142.9z"/>
		</g>
		<g class="st3">
			<path class="st4" d="M56.3,142.1c0.1,0,0.1,0.1,0.1,0.1l-0.1,0.6c0,0.1-0.1,0.1-0.1,0.1c-0.1-0.1-0.3-0.1-0.4-0.1l-0.1,0
				c-0.4,0-0.6,0.2-0.9,0.5s-0.3,0.7-0.3,1.1v3.6c0,0.1,0,0.1-0.1,0.1h-0.6c-0.1,0-0.1,0-0.1-0.1v-5.8c0-0.1,0-0.1,0.1-0.1h0.6
				c0.1,0,0.1,0,0.1,0.1v0.8c0,0,0,0,0,0c0,0,0,0,0,0c0.1-0.3,0.3-0.5,0.5-0.7s0.5-0.3,0.8-0.3C55.9,141.9,56.1,142,56.3,142.1z"/>
		</g>
		<g class="st3">
			<path class="st4" d="M59.8,142.6h-1.1c0,0,0,0,0,0v3.6c0,0.4,0.1,0.6,0.2,0.8c0.1,0.1,0.4,0.2,0.7,0.2h0.2c0.1,0,0.1,0,0.1,0.1
				v0.5c0,0.1,0,0.1-0.1,0.1l-0.4,0c-0.5,0-0.9-0.1-1.2-0.3s-0.4-0.6-0.4-1.2v-3.9c0,0,0,0,0,0h-0.6c-0.1,0-0.1,0-0.1-0.1v-0.4
				c0-0.1,0-0.1,0.1-0.1h0.6c0,0,0,0,0,0v-1.4c0-0.1,0-0.1,0.1-0.1h0.6c0.1,0,0.1,0,0.1,0.1v1.4c0,0,0,0,0,0h1.1
				c0.1,0,0.1,0,0.1,0.1v0.4C59.9,142.6,59.9,142.6,59.8,142.6z"/>
		</g>
		<g class="st3">
			<path class="st4" d="M64,147.2c0.2-0.2,0.4-0.4,0.5-0.6c0-0.1,0.1-0.1,0.1-0.1l0.6,0.1c0,0,0.1,0,0.1,0.1c0,0,0,0.1,0,0.1
				c-0.1,0.4-0.4,0.8-0.7,1.1s-0.8,0.4-1.3,0.4c-0.6,0-1.1-0.2-1.4-0.5c-0.4-0.3-0.6-0.7-0.7-1.3c0-0.2-0.1-0.4-0.1-0.7
				c0-0.3,0-0.5,0-0.7s0-0.3,0-0.4c0-0.4,0-0.7,0-1c0.1-0.5,0.3-1,0.7-1.3c0.4-0.3,0.9-0.5,1.4-0.5c0.6,0,1.1,0.2,1.5,0.5
				c0.4,0.4,0.6,0.8,0.6,1.4c0,0.3,0,0.7,0,1.5c0,0.1,0,0.1-0.1,0.1h-3.3c0,0,0,0,0,0c0,0.2,0,0.5,0,0.8c0,0.3,0.2,0.6,0.4,0.8
				s0.5,0.3,0.9,0.3C63.5,147.4,63.8,147.3,64,147.2z M62.3,142.9c-0.2,0.2-0.4,0.5-0.4,0.8c0,0.3,0,0.6,0,0.8c0,0,0,0,0,0h2.5
				c0,0,0,0,0,0c0-0.2,0-0.5,0-0.8c0-0.3-0.2-0.6-0.4-0.8c-0.2-0.2-0.5-0.3-0.9-0.3C62.8,142.6,62.5,142.7,62.3,142.9z"/>
		</g>
		<g class="st3">
			<path class="st4" d="M70.5,142.4c0.3,0.4,0.5,0.8,0.5,1.5v4c0,0.1,0,0.1-0.1,0.1h-0.6c-0.1,0-0.1,0-0.1-0.1V144
				c0-0.4-0.1-0.7-0.3-1c-0.2-0.2-0.5-0.4-0.9-0.4s-0.7,0.1-0.9,0.4s-0.3,0.6-0.3,1v3.9c0,0.1,0,0.1-0.1,0.1h-0.6
				c-0.1,0-0.1,0-0.1-0.1v-5.8c0-0.1,0-0.1,0.1-0.1h0.6c0.1,0,0.1,0,0.1,0.1v0.5c0,0,0,0,0,0c0,0,0,0,0,0c0.3-0.5,0.8-0.7,1.4-0.7
				C69.7,141.9,70.2,142.1,70.5,142.4z"/>
		</g>
		<g class="st3">
			<path class="st4" d="M75.4,147.2c0.2-0.2,0.4-0.4,0.5-0.6c0-0.1,0.1-0.1,0.1-0.1l0.6,0.1c0,0,0.1,0,0.1,0.1c0,0,0,0.1,0,0.1
				c-0.1,0.4-0.4,0.8-0.7,1.1s-0.8,0.4-1.3,0.4c-0.6,0-1.1-0.2-1.4-0.5c-0.4-0.3-0.6-0.7-0.7-1.3c0-0.2-0.1-0.4-0.1-0.7
				c0-0.3,0-0.5,0-0.7s0-0.3,0-0.4c0-0.4,0-0.7,0-1c0.1-0.5,0.3-1,0.7-1.3c0.4-0.3,0.9-0.5,1.4-0.5c0.6,0,1.1,0.2,1.5,0.5
				c0.4,0.4,0.6,0.8,0.6,1.4c0,0.3,0,0.7,0,1.5c0,0.1,0,0.1-0.1,0.1h-3.3c0,0,0,0,0,0c0,0.2,0,0.5,0,0.8c0,0.3,0.2,0.6,0.4,0.8
				s0.5,0.3,0.9,0.3C74.9,147.4,75.2,147.3,75.4,147.2z M73.7,142.9c-0.2,0.2-0.4,0.5-0.4,0.8c0,0.3,0,0.6,0,0.8c0,0,0,0,0,0h2.5
				c0,0,0,0,0,0c0-0.2,0-0.5,0-0.8c0-0.3-0.2-0.6-0.4-0.8c-0.2-0.2-0.5-0.3-0.9-0.3C74.2,142.6,73.9,142.7,73.7,142.9z"/>
		</g>
		<g class="st3">
			<path class="st4" d="M78.8,147.7c-0.4-0.3-0.6-0.7-0.7-1.3c0-0.4-0.1-0.9-0.1-1.4c0-0.4,0-0.9,0.1-1.4c0.1-0.5,0.3-0.9,0.7-1.3
				c0.4-0.3,0.9-0.5,1.4-0.5c0.6,0,1,0.2,1.4,0.5c0.4,0.3,0.6,0.7,0.7,1.1l0,0.3v0c0,0,0,0.1,0,0.1c0,0,0,0-0.1,0l-0.6,0
				c-0.1,0-0.1,0-0.1-0.1c0-0.1,0-0.1,0-0.1c0-0.3-0.2-0.5-0.4-0.7s-0.5-0.3-0.9-0.3c-0.4,0-0.6,0.1-0.9,0.3
				c-0.2,0.2-0.4,0.5-0.4,0.8c0,0.3-0.1,0.8-0.1,1.2c0,0.5,0,0.9,0.1,1.2c0,0.4,0.2,0.6,0.4,0.8s0.5,0.3,0.9,0.3
				c0.4,0,0.6-0.1,0.9-0.3c0.2-0.2,0.4-0.4,0.4-0.7l0-0.1c0-0.1,0.1-0.1,0.1-0.1l0.6,0c0.1,0,0.1,0.1,0.1,0.1v0c0,0,0,0.1,0,0.1
				c-0.1,0.5-0.3,0.9-0.7,1.2c-0.4,0.3-0.9,0.5-1.4,0.5C79.6,148.1,79.2,148,78.8,147.7z"/>
		</g>
		<g class="st3">
			<path class="st4" d="M86.5,147.2c0.2-0.2,0.4-0.4,0.5-0.6c0-0.1,0.1-0.1,0.1-0.1l0.6,0.1c0,0,0.1,0,0.1,0.1c0,0,0,0.1,0,0.1
				c-0.1,0.4-0.4,0.8-0.7,1.1s-0.8,0.4-1.3,0.4c-0.6,0-1.1-0.2-1.4-0.5c-0.4-0.3-0.6-0.7-0.7-1.3c0-0.2-0.1-0.4-0.1-0.7
				c0-0.3,0-0.5,0-0.7s0-0.3,0-0.4c0-0.4,0-0.7,0-1c0.1-0.5,0.3-1,0.7-1.3c0.4-0.3,0.9-0.5,1.4-0.5c0.6,0,1.1,0.2,1.5,0.5
				c0.4,0.4,0.6,0.8,0.6,1.4c0,0.3,0,0.7,0,1.5c0,0.1,0,0.1-0.1,0.1h-3.3c0,0,0,0,0,0c0,0.2,0,0.5,0,0.8c0,0.3,0.2,0.6,0.4,0.8
				s0.5,0.3,0.9,0.3C86.1,147.4,86.3,147.3,86.5,147.2z M84.8,142.9c-0.2,0.2-0.4,0.5-0.4,0.8c0,0.3,0,0.6,0,0.8c0,0,0,0,0,0H87
				c0,0,0,0,0,0c0-0.2,0-0.5,0-0.8c0-0.3-0.2-0.6-0.4-0.8c-0.2-0.2-0.5-0.3-0.9-0.3C85.4,142.6,85.1,142.7,84.8,142.9z"/>
			<path class="st4" d="M93,142.4c0.3,0.4,0.5,0.8,0.5,1.5v4c0,0.1,0,0.1-0.1,0.1h-0.6c-0.1,0-0.1,0-0.1-0.1V144
				c0-0.4-0.1-0.7-0.3-1c-0.2-0.2-0.5-0.4-0.9-0.4s-0.7,0.1-0.9,0.4s-0.3,0.6-0.3,1v3.9c0,0.1,0,0.1-0.1,0.1h-0.6
				c-0.1,0-0.1,0-0.1-0.1v-5.8c0-0.1,0-0.1,0.1-0.1h0.6c0.1,0,0.1,0,0.1,0.1v0.5c0,0,0,0,0,0c0,0,0,0,0,0c0.3-0.5,0.8-0.7,1.4-0.7
				C92.3,141.9,92.7,142.1,93,142.4z"/>
			<path class="st4" d="M97.2,150.5c0,0,0,0,0-0.1v-0.5c0-0.1,0-0.1,0.1-0.1h0c0.3,0,0.5-0.1,0.7-0.1c0.2-0.1,0.3-0.2,0.4-0.5
				c0.1-0.2,0.2-0.6,0.3-1c0,0,0,0,0-0.1l-1.8-5.9l0,0c0-0.1,0-0.1,0.1-0.1h0.6c0.1,0,0.1,0,0.1,0.1l1.3,4.8c0,0,0,0,0,0
				c0,0,0,0,0,0l1.3-4.8c0-0.1,0.1-0.1,0.1-0.1h0.6c0,0,0.1,0,0.1,0c0,0,0,0.1,0,0.1l-2,6.5c-0.2,0.5-0.3,0.9-0.5,1.2
				c-0.2,0.3-0.4,0.4-0.6,0.5c-0.2,0.1-0.6,0.2-1,0.2H97.2C97.2,150.5,97.2,150.5,97.2,150.5z"/>
			<path class="st4" d="M105.2,147.7c-0.4-0.3-0.6-0.7-0.6-1.1v-0.1c0-0.1,0-0.1,0.1-0.1h0.6c0.1,0,0.1,0,0.1,0.1v0.1
				c0,0.3,0.1,0.5,0.3,0.7c0.2,0.2,0.5,0.3,0.9,0.3c0.4,0,0.6-0.1,0.9-0.3c0.2-0.2,0.3-0.4,0.3-0.7c0-0.2-0.1-0.4-0.2-0.5
				c-0.1-0.1-0.3-0.2-0.4-0.3c-0.2-0.1-0.4-0.2-0.7-0.3c-0.4-0.1-0.7-0.3-0.9-0.4c-0.2-0.1-0.5-0.3-0.6-0.5
				c-0.2-0.2-0.3-0.5-0.3-0.9c0-0.5,0.2-0.9,0.5-1.2c0.4-0.3,0.8-0.5,1.4-0.5c0.6,0,1.1,0.2,1.5,0.5c0.4,0.3,0.5,0.7,0.5,1.2v0
				c0,0.1,0,0.1-0.1,0.1H108c-0.1,0-0.1,0-0.1-0.1v0c0-0.3-0.1-0.5-0.3-0.7c-0.2-0.2-0.5-0.3-0.9-0.3c-0.3,0-0.6,0.1-0.8,0.3
				s-0.3,0.4-0.3,0.7c0,0.3,0.1,0.5,0.3,0.6s0.5,0.3,1,0.5c0.4,0.1,0.7,0.3,1,0.4s0.5,0.3,0.7,0.5c0.2,0.2,0.3,0.5,0.3,0.9
				c0,0.5-0.2,0.9-0.6,1.2c-0.4,0.3-0.9,0.5-1.5,0.5S105.6,148,105.2,147.7z"/>
			<path class="st4" d="M110.6,147.7c-0.4-0.3-0.6-0.7-0.7-1.3c0-0.4-0.1-0.9-0.1-1.4s0-1,0.1-1.4c0.1-0.5,0.3-1,0.7-1.3
				c0.4-0.3,0.9-0.5,1.4-0.5s1.1,0.2,1.4,0.5c0.4,0.3,0.6,0.7,0.7,1.3c0,0.3,0.1,0.8,0.1,1.4c0,0.6,0,1.1-0.1,1.4
				c-0.1,0.5-0.3,1-0.7,1.3c-0.4,0.3-0.9,0.5-1.4,0.5S111,148,110.6,147.7z M112.9,147.1c0.2-0.2,0.4-0.5,0.4-0.8c0-0.3,0-0.7,0-1.2
				c0-0.5,0-0.9,0-1.2c0-0.4-0.2-0.6-0.4-0.8c-0.2-0.2-0.5-0.3-0.9-0.3s-0.6,0.1-0.9,0.3c-0.2,0.2-0.4,0.5-0.4,0.8
				c0,0.3,0,0.7,0,1.2s0,0.9,0,1.2c0,0.4,0.2,0.6,0.4,0.8c0.2,0.2,0.5,0.3,0.9,0.3C112.4,147.4,112.7,147.3,112.9,147.1z"/>
			<path class="st4" d="M119.5,142.4c0.3,0.4,0.5,0.8,0.5,1.5v4c0,0.1,0,0.1-0.1,0.1h-0.6c-0.1,0-0.1,0-0.1-0.1V144
				c0-0.4-0.1-0.7-0.3-1c-0.2-0.2-0.5-0.4-0.9-0.4s-0.7,0.1-0.9,0.4s-0.3,0.6-0.3,1v3.9c0,0.1,0,0.1-0.1,0.1h-0.6
				c-0.1,0-0.1,0-0.1-0.1v-5.8c0-0.1,0-0.1,0.1-0.1h0.6c0.1,0,0.1,0,0.1,0.1v0.5c0,0,0,0,0,0c0,0,0,0,0,0c0.3-0.5,0.8-0.7,1.4-0.7
				C118.7,141.9,119.1,142.1,119.5,142.4z"/>
			<path class="st4" d="M127.4,142.4c0.4,0.4,0.5,0.9,0.5,1.5v4c0,0.1,0,0.1-0.1,0.1h-0.6c-0.1,0-0.1,0-0.1-0.1v-0.4c0,0,0,0,0,0
				c0,0,0,0,0,0c-0.2,0.2-0.4,0.4-0.7,0.5c-0.3,0.1-0.6,0.2-0.9,0.2c-0.5,0-0.9-0.1-1.3-0.4c-0.4-0.3-0.5-0.7-0.5-1.3
				c0-0.6,0.2-1.1,0.6-1.5s1-0.5,1.7-0.5h1.1c0,0,0,0,0,0v-0.5c0-0.4-0.1-0.7-0.3-1c-0.2-0.2-0.5-0.4-0.9-0.4
				c-0.3,0-0.6,0.1-0.8,0.2c-0.2,0.2-0.3,0.4-0.4,0.6c0,0.1-0.1,0.1-0.1,0.1l-0.7,0c0,0-0.1,0-0.1,0c0,0,0-0.1,0-0.1
				c0.1-0.5,0.3-0.8,0.7-1.1c0.4-0.3,0.9-0.4,1.4-0.4C126.6,141.9,127.1,142.1,127.4,142.4z M126.7,147.1c0.3-0.2,0.4-0.5,0.4-0.9
				v-1c0,0,0,0,0,0H126c-0.5,0-0.8,0.1-1.1,0.3s-0.4,0.5-0.4,0.9c0,0.4,0.1,0.6,0.3,0.8c0.2,0.2,0.5,0.3,0.8,0.3
				C126,147.4,126.4,147.3,126.7,147.1z"/>
		</g>
		<g class="st3">
			<path class="st4" d="M130.1,147.7c-0.4-0.3-0.6-0.7-0.7-1.3c0-0.4-0.1-0.9-0.1-1.4c0-0.4,0-0.9,0.1-1.4c0.1-0.5,0.3-0.9,0.7-1.3
				c0.4-0.3,0.9-0.5,1.4-0.5c0.6,0,1,0.2,1.4,0.5c0.4,0.3,0.6,0.7,0.7,1.1l0,0.3v0c0,0,0,0.1,0,0.1c0,0,0,0-0.1,0l-0.6,0
				c-0.1,0-0.1,0-0.1-0.1c0-0.1,0-0.1,0-0.1c0-0.3-0.2-0.5-0.4-0.7s-0.5-0.3-0.9-0.3c-0.4,0-0.6,0.1-0.9,0.3
				c-0.2,0.2-0.4,0.5-0.4,0.8c0,0.3-0.1,0.8-0.1,1.2c0,0.5,0,0.9,0.1,1.2c0,0.4,0.2,0.6,0.4,0.8s0.5,0.3,0.9,0.3
				c0.4,0,0.6-0.1,0.9-0.3c0.2-0.2,0.4-0.4,0.4-0.7l0-0.1c0-0.1,0.1-0.1,0.1-0.1l0.6,0c0.1,0,0.1,0.1,0.1,0.1v0c0,0,0,0.1,0,0.1
				c-0.1,0.5-0.3,0.9-0.7,1.2c-0.4,0.3-0.9,0.5-1.4,0.5C131,148.1,130.5,148,130.1,147.7z"/>
		</g>
		<g class="st3">
			<path class="st4" d="M137.9,147.2c0.2-0.2,0.4-0.4,0.5-0.6c0-0.1,0.1-0.1,0.1-0.1l0.6,0.1c0,0,0.1,0,0.1,0.1c0,0,0,0.1,0,0.1
				c-0.1,0.4-0.4,0.8-0.7,1.1s-0.8,0.4-1.3,0.4c-0.6,0-1.1-0.2-1.4-0.5c-0.4-0.3-0.6-0.7-0.7-1.3c0-0.2-0.1-0.4-0.1-0.7
				c0-0.3,0-0.5,0-0.7s0-0.3,0-0.4c0-0.4,0-0.7,0-1c0.1-0.5,0.3-1,0.7-1.3c0.4-0.3,0.9-0.5,1.4-0.5c0.6,0,1.1,0.2,1.5,0.5
				c0.4,0.4,0.6,0.8,0.6,1.4c0,0.3,0,0.7,0,1.5c0,0.1,0,0.1-0.1,0.1h-3.3c0,0,0,0,0,0c0,0.2,0,0.5,0,0.8c0,0.3,0.2,0.6,0.4,0.8
				s0.5,0.3,0.9,0.3C137.4,147.4,137.6,147.3,137.9,147.2z M136.2,142.9c-0.2,0.2-0.4,0.5-0.4,0.8c0,0.3,0,0.6,0,0.8c0,0,0,0,0,0
				h2.5c0,0,0,0,0,0c0-0.2,0-0.5,0-0.8c0-0.3-0.2-0.6-0.4-0.8c-0.2-0.2-0.5-0.3-0.9-0.3C136.7,142.6,136.4,142.7,136.2,142.9z"/>
			<path class="st4" d="M145.1,145c0,0.5,0,1-0.1,1.4c-0.1,0.6-0.4,1-0.7,1.3c-0.3,0.3-0.8,0.4-1.3,0.4c-0.3,0-0.6-0.1-0.8-0.2
				c-0.2-0.1-0.4-0.3-0.5-0.5c0,0,0,0,0,0c0,0,0,0,0,0v2.8c0,0.1,0,0.1-0.1,0.1h-0.6c-0.1,0-0.1,0-0.1-0.1v-8.2c0-0.1,0-0.1,0.1-0.1
				h0.6c0.1,0,0.1,0,0.1,0.1v0.5c0,0,0,0,0,0s0,0,0,0c0.3-0.5,0.7-0.7,1.4-0.7c0.5,0,0.9,0.1,1.2,0.4c0.3,0.3,0.5,0.7,0.7,1.3
				C145,144,145.1,144.5,145.1,145z M144.2,145c0-0.6-0.1-1.1-0.2-1.5c-0.1-0.3-0.2-0.5-0.4-0.7s-0.4-0.2-0.7-0.2
				c-0.3,0-0.5,0.1-0.7,0.2c-0.2,0.2-0.3,0.4-0.4,0.7c-0.1,0.4-0.2,0.9-0.2,1.5c0,0.7,0.1,1.2,0.2,1.5c0.1,0.3,0.2,0.5,0.4,0.6
				c0.2,0.1,0.4,0.2,0.6,0.2c0.5,0,0.9-0.3,1.1-0.8C144.1,146.2,144.2,145.7,144.2,145z"/>
			<path class="st4" d="M148.9,142.6h-1.1c0,0,0,0,0,0v3.6c0,0.4,0.1,0.6,0.2,0.8c0.1,0.1,0.4,0.2,0.7,0.2h0.2c0.1,0,0.1,0,0.1,0.1
				v0.5c0,0.1,0,0.1-0.1,0.1l-0.4,0c-0.5,0-0.9-0.1-1.2-0.3s-0.4-0.6-0.4-1.2v-3.9c0,0,0,0,0,0h-0.6c-0.1,0-0.1,0-0.1-0.1v-0.4
				c0-0.1,0-0.1,0.1-0.1h0.6c0,0,0,0,0,0v-1.4c0-0.1,0-0.1,0.1-0.1h0.6c0.1,0,0.1,0,0.1,0.1v1.4c0,0,0,0,0,0h1.1
				c0.1,0,0.1,0,0.1,0.1v0.4C149,142.6,148.9,142.6,148.9,142.6z"/>
			<path class="st4" d="M153.8,142.4c0.4,0.4,0.5,0.9,0.5,1.5v4c0,0.1,0,0.1-0.1,0.1h-0.6c-0.1,0-0.1,0-0.1-0.1v-0.4c0,0,0,0,0,0
				c0,0,0,0,0,0c-0.2,0.2-0.4,0.4-0.7,0.5c-0.3,0.1-0.6,0.2-0.9,0.2c-0.5,0-0.9-0.1-1.3-0.4c-0.4-0.3-0.5-0.7-0.5-1.3
				c0-0.6,0.2-1.1,0.6-1.5s1-0.5,1.7-0.5h1.1c0,0,0,0,0,0v-0.5c0-0.4-0.1-0.7-0.3-1c-0.2-0.2-0.5-0.4-0.9-0.4
				c-0.3,0-0.6,0.1-0.8,0.2c-0.2,0.2-0.3,0.4-0.4,0.6c0,0.1-0.1,0.1-0.1,0.1l-0.7,0c0,0-0.1,0-0.1,0c0,0,0-0.1,0-0.1
				c0.1-0.5,0.3-0.8,0.7-1.1c0.4-0.3,0.9-0.4,1.4-0.4C152.9,141.9,153.4,142.1,153.8,142.4z M153,147.1c0.3-0.2,0.4-0.5,0.4-0.9v-1
				c0,0,0,0,0,0h-1.1c-0.5,0-0.8,0.1-1.1,0.3s-0.4,0.5-0.4,0.9c0,0.4,0.1,0.6,0.3,0.8c0.2,0.2,0.5,0.3,0.8,0.3
				C152.4,147.4,152.7,147.3,153,147.1z"/>
			<path class="st4" d="M159.3,139.6h0.6c0.1,0,0.1,0,0.1,0.1v8.2c0,0.1,0,0.1-0.1,0.1h-0.6c-0.1,0-0.1,0-0.1-0.1v-0.5c0,0,0,0,0,0
				c0,0,0,0,0,0c-0.3,0.5-0.8,0.7-1.4,0.7c-0.5,0-0.9-0.1-1.2-0.4c-0.3-0.3-0.5-0.7-0.7-1.3c-0.1-0.4-0.2-0.9-0.2-1.4
				c0-0.6,0-1,0.1-1.4c0.1-0.6,0.3-1,0.7-1.3c0.3-0.3,0.8-0.4,1.3-0.4c0.3,0,0.6,0.1,0.8,0.2c0.2,0.1,0.4,0.3,0.5,0.5c0,0,0,0,0,0
				c0,0,0,0,0,0v-2.8C159.1,139.7,159.2,139.6,159.3,139.6z M159.1,145c0-0.7-0.1-1.2-0.2-1.5c-0.1-0.3-0.2-0.5-0.4-0.6
				s-0.4-0.2-0.7-0.2c-0.5,0-0.9,0.3-1.1,0.8c-0.2,0.4-0.2,0.9-0.2,1.6c0,0.6,0.1,1.1,0.2,1.5c0.1,0.3,0.2,0.5,0.4,0.7
				c0.2,0.2,0.4,0.2,0.7,0.2c0.3,0,0.5-0.1,0.7-0.2c0.2-0.2,0.3-0.4,0.4-0.7C159.1,146.2,159.1,145.7,159.1,145z"/>
			<path class="st4" d="M162.3,147.7c-0.4-0.3-0.6-0.7-0.7-1.3c0-0.4-0.1-0.9-0.1-1.4s0-1,0.1-1.4c0.1-0.5,0.3-1,0.7-1.3
				c0.4-0.3,0.9-0.5,1.4-0.5s1.1,0.2,1.4,0.5c0.4,0.3,0.6,0.7,0.7,1.3c0,0.3,0.1,0.8,0.1,1.4c0,0.6,0,1.1-0.1,1.4
				c-0.1,0.5-0.3,1-0.7,1.3c-0.4,0.3-0.9,0.5-1.4,0.5S162.7,148,162.3,147.7z M164.6,147.1c0.2-0.2,0.4-0.5,0.4-0.8
				c0-0.3,0-0.7,0-1.2c0-0.5,0-0.9,0-1.2c0-0.4-0.2-0.6-0.4-0.8c-0.2-0.2-0.5-0.3-0.9-0.3c-0.4,0-0.6,0.1-0.9,0.3
				c-0.2,0.2-0.4,0.5-0.4,0.8c0,0.3,0,0.7,0,1.2s0,0.9,0,1.2c0,0.4,0.2,0.6,0.4,0.8c0.2,0.2,0.5,0.3,0.9,0.3
				C164.1,147.4,164.4,147.3,164.6,147.1z"/>
			<path class="st4" d="M167.7,147.7c-0.4-0.3-0.6-0.7-0.6-1.1v-0.1c0-0.1,0-0.1,0.1-0.1h0.6c0.1,0,0.1,0,0.1,0.1v0.1
				c0,0.3,0.1,0.5,0.3,0.7c0.2,0.2,0.5,0.3,0.9,0.3c0.4,0,0.6-0.1,0.9-0.3c0.2-0.2,0.3-0.4,0.3-0.7c0-0.2-0.1-0.4-0.2-0.5
				c-0.1-0.1-0.3-0.2-0.4-0.3c-0.2-0.1-0.4-0.2-0.7-0.3c-0.4-0.1-0.7-0.3-0.9-0.4s-0.5-0.3-0.6-0.5c-0.2-0.2-0.3-0.5-0.3-0.9
				c0-0.5,0.2-0.9,0.5-1.2c0.4-0.3,0.8-0.5,1.4-0.5c0.6,0,1.1,0.2,1.5,0.5c0.4,0.3,0.5,0.7,0.5,1.2v0c0,0.1,0,0.1-0.1,0.1h-0.6
				c-0.1,0-0.1,0-0.1-0.1v0c0-0.3-0.1-0.5-0.3-0.7s-0.5-0.3-0.9-0.3c-0.3,0-0.6,0.1-0.8,0.3s-0.3,0.4-0.3,0.7c0,0.3,0.1,0.5,0.3,0.6
				s0.5,0.3,1,0.5c0.4,0.1,0.7,0.3,1,0.4s0.5,0.3,0.7,0.5c0.2,0.2,0.3,0.5,0.3,0.9c0,0.5-0.2,0.9-0.6,1.2c-0.4,0.3-0.9,0.5-1.5,0.5
				S168.1,148,167.7,147.7z"/>
			<path class="st4" d="M177.8,147.2c0.2-0.2,0.4-0.4,0.5-0.6c0-0.1,0.1-0.1,0.1-0.1l0.6,0.1c0,0,0.1,0,0.1,0.1c0,0,0,0.1,0,0.1
				c-0.1,0.4-0.4,0.8-0.7,1.1c-0.4,0.3-0.8,0.4-1.3,0.4c-0.6,0-1.1-0.2-1.4-0.5c-0.4-0.3-0.6-0.7-0.7-1.3c0-0.2-0.1-0.4-0.1-0.7
				c0-0.3,0-0.5,0-0.7s0-0.3,0-0.4c0-0.4,0-0.7,0-1c0.1-0.5,0.3-1,0.7-1.3c0.4-0.3,0.9-0.5,1.4-0.5c0.6,0,1.1,0.2,1.5,0.5
				c0.4,0.4,0.6,0.8,0.6,1.4c0,0.3,0,0.7,0,1.5c0,0.1,0,0.1-0.1,0.1h-3.3c0,0,0,0,0,0c0,0.2,0,0.5,0,0.8c0,0.3,0.2,0.6,0.4,0.8
				c0.2,0.2,0.5,0.3,0.9,0.3C177.3,147.4,177.6,147.3,177.8,147.2z M176.1,142.9c-0.2,0.2-0.4,0.5-0.4,0.8c0,0.3,0,0.6,0,0.8
				c0,0,0,0,0,0h2.5c0,0,0,0,0,0c0-0.2,0-0.5,0-0.8c0-0.3-0.2-0.6-0.4-0.8c-0.2-0.2-0.5-0.3-0.9-0.3
				C176.6,142.6,176.3,142.7,176.1,142.9z"/>
			<path class="st4" d="M184.3,142.4c0.3,0.4,0.5,0.8,0.5,1.5v4c0,0.1,0,0.1-0.1,0.1H184c-0.1,0-0.1,0-0.1-0.1V144
				c0-0.4-0.1-0.7-0.3-1c-0.2-0.2-0.5-0.4-0.9-0.4s-0.7,0.1-0.9,0.4c-0.2,0.3-0.3,0.6-0.3,1v3.9c0,0.1,0,0.1-0.1,0.1h-0.6
				c-0.1,0-0.1,0-0.1-0.1v-5.8c0-0.1,0-0.1,0.1-0.1h0.6c0.1,0,0.1,0,0.1,0.1v0.5c0,0,0,0,0,0c0,0,0,0,0,0c0.3-0.5,0.8-0.7,1.4-0.7
				C183.5,141.9,184,142.1,184.3,142.4z"/>
			<path class="st4" d="M192.2,139.6h0.6c0.1,0,0.1,0,0.1,0.1v8.2c0,0.1,0,0.1-0.1,0.1h-0.6c-0.1,0-0.1,0-0.1-0.1v-0.5c0,0,0,0,0,0
				c0,0,0,0,0,0c-0.3,0.5-0.8,0.7-1.4,0.7c-0.5,0-0.9-0.1-1.2-0.4c-0.3-0.3-0.5-0.7-0.7-1.3c-0.1-0.4-0.2-0.9-0.2-1.4
				c0-0.6,0-1,0.1-1.4c0.1-0.6,0.3-1,0.7-1.3c0.3-0.3,0.8-0.4,1.3-0.4c0.3,0,0.6,0.1,0.8,0.2c0.2,0.1,0.4,0.3,0.5,0.5c0,0,0,0,0,0
				c0,0,0,0,0,0v-2.8C192.1,139.7,192.1,139.6,192.2,139.6z M192.1,145c0-0.7-0.1-1.2-0.2-1.5c-0.1-0.3-0.2-0.5-0.4-0.6
				s-0.4-0.2-0.7-0.2c-0.5,0-0.9,0.3-1.1,0.8c-0.2,0.4-0.2,0.9-0.2,1.6c0,0.6,0.1,1.1,0.2,1.5c0.1,0.3,0.2,0.5,0.4,0.7
				c0.2,0.2,0.4,0.2,0.7,0.2c0.3,0,0.5-0.1,0.7-0.2c0.2-0.2,0.3-0.4,0.4-0.7C192,146.2,192.1,145.7,192.1,145z"/>
			<path class="st4" d="M194.7,140.7c-0.1-0.1-0.2-0.3-0.2-0.5c0-0.2,0.1-0.4,0.2-0.5s0.3-0.2,0.5-0.2c0.2,0,0.4,0.1,0.5,0.2
				s0.2,0.3,0.2,0.5c0,0.2-0.1,0.4-0.2,0.5s-0.3,0.2-0.5,0.2C195,140.9,194.8,140.8,194.7,140.7z M194.7,147.9v-5.8
				c0-0.1,0-0.1,0.1-0.1h0.6c0.1,0,0.1,0,0.1,0.1v5.8c0,0.1,0,0.1-0.1,0.1h-0.6C194.8,148,194.7,148,194.7,147.9z"/>
			<path class="st4" d="M198,147.7c-0.4-0.3-0.6-0.7-0.7-1.3c0-0.4-0.1-0.9-0.1-1.4c0-0.4,0-0.9,0.1-1.4c0.1-0.5,0.3-0.9,0.7-1.3
				c0.4-0.3,0.9-0.5,1.4-0.5s1,0.2,1.4,0.5c0.4,0.3,0.6,0.7,0.7,1.1l0,0.3v0c0,0,0,0.1,0,0.1c0,0,0,0-0.1,0l-0.6,0
				c-0.1,0-0.1,0-0.1-0.1c0-0.1,0-0.1,0-0.1c0-0.3-0.2-0.5-0.4-0.7c-0.2-0.2-0.5-0.3-0.9-0.3c-0.4,0-0.6,0.1-0.9,0.3
				c-0.2,0.2-0.4,0.5-0.4,0.8c0,0.3-0.1,0.8-0.1,1.2c0,0.5,0,0.9,0.1,1.2c0,0.4,0.2,0.6,0.4,0.8c0.2,0.2,0.5,0.3,0.9,0.3
				s0.6-0.1,0.9-0.3c0.2-0.2,0.4-0.4,0.4-0.7l0-0.1c0-0.1,0.1-0.1,0.1-0.1l0.6,0c0.1,0,0.1,0.1,0.1,0.1v0c0,0,0,0.1,0,0.1
				c-0.1,0.5-0.3,0.9-0.7,1.2c-0.4,0.3-0.9,0.5-1.4,0.5S198.4,148,198,147.7z"/>
		</g>
		<g class="st3">
			<path class="st4" d="M206.6,142.4c0.3,0.4,0.5,0.8,0.5,1.5v4c0,0.1,0,0.1-0.1,0.1h-0.6c-0.1,0-0.1,0-0.1-0.1V144
				c0-0.4-0.1-0.7-0.3-1s-0.5-0.4-0.9-0.4s-0.7,0.1-0.9,0.4c-0.2,0.3-0.3,0.6-0.3,1v3.9c0,0.1,0,0.1-0.1,0.1H203
				c-0.1,0-0.1,0-0.1-0.1v-8.2c0-0.1,0-0.1,0.1-0.1h0.6c0.1,0,0.1,0,0.1,0.1v2.8c0,0,0,0,0,0c0,0,0,0,0,0c0.3-0.5,0.8-0.7,1.4-0.7
				C205.8,141.9,206.3,142.1,206.6,142.4z"/>
		</g>
		<g class="st3">
			<path class="st4" d="M209.3,147.7c-0.4-0.3-0.6-0.7-0.7-1.3c0-0.4-0.1-0.9-0.1-1.4s0-1,0.1-1.4c0.1-0.5,0.3-1,0.7-1.3
				c0.4-0.3,0.9-0.5,1.4-0.5s1.1,0.2,1.4,0.5c0.4,0.3,0.6,0.7,0.7,1.3c0,0.3,0.1,0.8,0.1,1.4c0,0.6,0,1.1-0.1,1.4
				c-0.1,0.5-0.3,1-0.7,1.3c-0.4,0.3-0.9,0.5-1.4,0.5S209.6,148,209.3,147.7z M211.6,147.1c0.2-0.2,0.4-0.5,0.4-0.8
				c0-0.3,0-0.7,0-1.2c0-0.5,0-0.9,0-1.2c0-0.4-0.2-0.6-0.4-0.8c-0.2-0.2-0.5-0.3-0.9-0.3c-0.4,0-0.6,0.1-0.9,0.3
				c-0.2,0.2-0.4,0.5-0.4,0.8c0,0.3,0,0.7,0,1.2s0,0.9,0,1.2c0,0.4,0.2,0.6,0.4,0.8c0.2,0.2,0.5,0.3,0.9,0.3
				C211,147.4,211.3,147.3,211.6,147.1z"/>
			<path class="st4" d="M214.7,147.7c-0.4-0.3-0.6-0.7-0.6-1.1v-0.1c0-0.1,0-0.1,0.1-0.1h0.6c0.1,0,0.1,0,0.1,0.1v0.1
				c0,0.3,0.1,0.5,0.3,0.7c0.2,0.2,0.5,0.3,0.9,0.3c0.4,0,0.6-0.1,0.9-0.3c0.2-0.2,0.3-0.4,0.3-0.7c0-0.2-0.1-0.4-0.2-0.5
				c-0.1-0.1-0.3-0.2-0.4-0.3c-0.2-0.1-0.4-0.2-0.7-0.3c-0.4-0.1-0.7-0.3-0.9-0.4s-0.5-0.3-0.6-0.5c-0.2-0.2-0.3-0.5-0.3-0.9
				c0-0.5,0.2-0.9,0.5-1.2c0.4-0.3,0.8-0.5,1.4-0.5c0.6,0,1.1,0.2,1.5,0.5c0.4,0.3,0.5,0.7,0.5,1.2v0c0,0.1,0,0.1-0.1,0.1h-0.6
				c-0.1,0-0.1,0-0.1-0.1v0c0-0.3-0.1-0.5-0.3-0.7s-0.5-0.3-0.9-0.3c-0.3,0-0.6,0.1-0.8,0.3s-0.3,0.4-0.3,0.7c0,0.3,0.1,0.5,0.3,0.6
				s0.5,0.3,1,0.5c0.4,0.1,0.7,0.3,1,0.4s0.5,0.3,0.7,0.5c0.2,0.2,0.3,0.5,0.3,0.9c0,0.5-0.2,0.9-0.6,1.2c-0.4,0.3-0.9,0.5-1.5,0.5
				S215.1,148,214.7,147.7z"/>
			<path class="st4" d="M224.8,147.2c0.2-0.2,0.4-0.4,0.5-0.6c0-0.1,0.1-0.1,0.1-0.1l0.6,0.1c0,0,0.1,0,0.1,0.1c0,0,0,0.1,0,0.1
				c-0.1,0.4-0.4,0.8-0.7,1.1c-0.4,0.3-0.8,0.4-1.3,0.4c-0.6,0-1.1-0.2-1.4-0.5c-0.4-0.3-0.6-0.7-0.7-1.3c0-0.2-0.1-0.4-0.1-0.7
				c0-0.3,0-0.5,0-0.7s0-0.3,0-0.4c0-0.4,0-0.7,0-1c0.1-0.5,0.3-1,0.7-1.3c0.4-0.3,0.9-0.5,1.4-0.5c0.6,0,1.1,0.2,1.5,0.5
				c0.4,0.4,0.6,0.8,0.6,1.4c0,0.3,0,0.7,0,1.5c0,0.1,0,0.1-0.1,0.1h-3.3c0,0,0,0,0,0c0,0.2,0,0.5,0,0.8c0,0.3,0.2,0.6,0.4,0.8
				c0.2,0.2,0.5,0.3,0.9,0.3C224.3,147.4,224.6,147.3,224.8,147.2z M223.1,142.9c-0.2,0.2-0.4,0.5-0.4,0.8c0,0.3,0,0.6,0,0.8
				c0,0,0,0,0,0h2.5c0,0,0,0,0,0c0-0.2,0-0.5,0-0.8c0-0.3-0.2-0.6-0.4-0.8c-0.2-0.2-0.5-0.3-0.9-0.3
				C223.6,142.6,223.3,142.7,223.1,142.9z"/>
			<path class="st4" d="M231.3,142.4c0.3,0.4,0.5,0.8,0.5,1.5v4c0,0.1,0,0.1-0.1,0.1H231c-0.1,0-0.1,0-0.1-0.1V144
				c0-0.4-0.1-0.7-0.3-1c-0.2-0.2-0.5-0.4-0.9-0.4s-0.7,0.1-0.9,0.4c-0.2,0.3-0.3,0.6-0.3,1v3.9c0,0.1,0,0.1-0.1,0.1h-0.6
				c-0.1,0-0.1,0-0.1-0.1v-5.8c0-0.1,0-0.1,0.1-0.1h0.6c0.1,0,0.1,0,0.1,0.1v0.5c0,0,0,0,0,0c0,0,0,0,0,0c0.3-0.5,0.8-0.7,1.4-0.7
				C230.5,141.9,230.9,142.1,231.3,142.4z"/>
		</g>
		<g class="st3">
			<path class="st4" d="M235.7,142.6h-1.1c0,0,0,0,0,0v3.6c0,0.4,0.1,0.6,0.2,0.8c0.1,0.1,0.4,0.2,0.7,0.2h0.2c0.1,0,0.1,0,0.1,0.1
				v0.5c0,0.1,0,0.1-0.1,0.1l-0.4,0c-0.5,0-0.9-0.1-1.2-0.3c-0.3-0.2-0.4-0.6-0.4-1.2v-3.9c0,0,0,0,0,0H233c-0.1,0-0.1,0-0.1-0.1
				v-0.4c0-0.1,0-0.1,0.1-0.1h0.6c0,0,0,0,0,0v-1.4c0-0.1,0-0.1,0.1-0.1h0.6c0.1,0,0.1,0,0.1,0.1v1.4c0,0,0,0,0,0h1.1
				c0.1,0,0.1,0,0.1,0.1v0.4C235.8,142.6,235.8,142.6,235.7,142.6z"/>
		</g>
		<g class="st3">
			<path class="st4" d="M237.7,147.7c-0.4-0.3-0.6-0.7-0.7-1.3c0-0.4-0.1-0.9-0.1-1.4s0-1,0.1-1.4c0.1-0.5,0.3-1,0.7-1.3
				c0.4-0.3,0.9-0.5,1.4-0.5s1.1,0.2,1.4,0.5c0.4,0.3,0.6,0.7,0.7,1.3c0,0.3,0.1,0.8,0.1,1.4c0,0.6,0,1.1-0.1,1.4
				c-0.1,0.5-0.3,1-0.7,1.3c-0.4,0.3-0.9,0.5-1.4,0.5S238.1,148,237.7,147.7z M240,147.1c0.2-0.2,0.4-0.5,0.4-0.8c0-0.3,0-0.7,0-1.2
				c0-0.5,0-0.9,0-1.2c0-0.4-0.2-0.6-0.4-0.8c-0.2-0.2-0.5-0.3-0.9-0.3c-0.4,0-0.6,0.1-0.9,0.3c-0.2,0.2-0.4,0.5-0.4,0.8
				c0,0.3,0,0.7,0,1.2s0,0.9,0,1.2c0,0.4,0.2,0.6,0.4,0.8c0.2,0.2,0.5,0.3,0.9,0.3C239.5,147.4,239.8,147.3,240,147.1z"/>
			<path class="st4" d="M245.7,142.1c0.1,0,0.1,0.1,0.1,0.1l-0.1,0.6c0,0.1-0.1,0.1-0.1,0.1c-0.1-0.1-0.3-0.1-0.4-0.1l-0.1,0
				c-0.4,0-0.6,0.2-0.9,0.5c-0.2,0.3-0.3,0.7-0.3,1.1v3.6c0,0.1,0,0.1-0.1,0.1H243c-0.1,0-0.1,0-0.1-0.1v-5.8c0-0.1,0-0.1,0.1-0.1
				h0.6c0.1,0,0.1,0,0.1,0.1v0.8c0,0,0,0,0,0s0,0,0,0c0.1-0.3,0.3-0.5,0.5-0.7c0.2-0.2,0.5-0.3,0.8-0.3
				C245.3,141.9,245.5,142,245.7,142.1z"/>
		</g>
		<g class="st3">
			<path class="st4" d="M250.5,142.4c0.3,0.4,0.5,0.8,0.5,1.5v4c0,0.1,0,0.1-0.1,0.1h-0.6c-0.1,0-0.1,0-0.1-0.1V144
				c0-0.4-0.1-0.7-0.3-1c-0.2-0.2-0.5-0.4-0.9-0.4s-0.7,0.1-0.9,0.4c-0.2,0.3-0.3,0.6-0.3,1v3.9c0,0.1,0,0.1-0.1,0.1h-0.6
				c-0.1,0-0.1,0-0.1-0.1v-5.8c0-0.1,0-0.1,0.1-0.1h0.6c0.1,0,0.1,0,0.1,0.1v0.5c0,0,0,0,0,0c0,0,0,0,0,0c0.3-0.5,0.8-0.7,1.4-0.7
				C249.7,141.9,250.1,142.1,250.5,142.4z"/>
		</g>
		<g class="st3">
			<path class="st4" d="M253.1,147.7c-0.4-0.3-0.6-0.7-0.7-1.3c0-0.4-0.1-0.9-0.1-1.4s0-1,0.1-1.4c0.1-0.5,0.3-1,0.7-1.3
				c0.4-0.3,0.9-0.5,1.4-0.5s1.1,0.2,1.4,0.5c0.4,0.3,0.6,0.7,0.7,1.3c0,0.3,0.1,0.8,0.1,1.4c0,0.6,0,1.1-0.1,1.4
				c-0.1,0.5-0.3,1-0.7,1.3s-0.9,0.5-1.4,0.5S253.5,148,253.1,147.7z M255.4,147.1c0.2-0.2,0.4-0.5,0.4-0.8c0-0.3,0-0.7,0-1.2
				c0-0.5,0-0.9,0-1.2c0-0.4-0.2-0.6-0.4-0.8c-0.2-0.2-0.5-0.3-0.9-0.3c-0.4,0-0.6,0.1-0.9,0.3c-0.2,0.2-0.4,0.5-0.4,0.8
				c0,0.3,0,0.7,0,1.2s0,0.9,0,1.2c0,0.4,0.2,0.6,0.4,0.8s0.5,0.3,0.9,0.3C254.9,147.4,255.2,147.3,255.4,147.1z"/>
			<path class="st4" d="M258.6,147.7c-0.4-0.3-0.6-0.7-0.6-1.1v-0.1c0-0.1,0-0.1,0.1-0.1h0.6c0.1,0,0.1,0,0.1,0.1v0.1
				c0,0.3,0.1,0.5,0.3,0.7c0.2,0.2,0.5,0.3,0.9,0.3c0.4,0,0.6-0.1,0.9-0.3c0.2-0.2,0.3-0.4,0.3-0.7c0-0.2-0.1-0.4-0.2-0.5
				c-0.1-0.1-0.3-0.2-0.4-0.3c-0.2-0.1-0.4-0.2-0.7-0.3c-0.4-0.1-0.7-0.3-0.9-0.4c-0.2-0.1-0.5-0.3-0.6-0.5
				c-0.2-0.2-0.3-0.5-0.3-0.9c0-0.5,0.2-0.9,0.5-1.2c0.4-0.3,0.8-0.5,1.4-0.5c0.6,0,1.1,0.2,1.5,0.5c0.4,0.3,0.5,0.7,0.5,1.2v0
				c0,0.1,0,0.1-0.1,0.1h-0.6c-0.1,0-0.1,0-0.1-0.1v0c0-0.3-0.1-0.5-0.3-0.7c-0.2-0.2-0.5-0.3-0.9-0.3c-0.3,0-0.6,0.1-0.8,0.3
				s-0.3,0.4-0.3,0.7c0,0.3,0.1,0.5,0.3,0.6s0.5,0.3,1,0.5c0.4,0.1,0.7,0.3,1,0.4s0.5,0.3,0.7,0.5c0.2,0.2,0.3,0.5,0.3,0.9
				c0,0.5-0.2,0.9-0.6,1.2c-0.4,0.3-0.9,0.5-1.5,0.5S259,148,258.6,147.7z"/>
			<path class="st4" d="M263.5,147.8c-0.1-0.1-0.2-0.3-0.2-0.5c0-0.2,0.1-0.4,0.2-0.5s0.3-0.2,0.5-0.2c0.2,0,0.4,0.1,0.5,0.2
				s0.2,0.3,0.2,0.5c0,0.2-0.1,0.4-0.2,0.5s-0.3,0.2-0.5,0.2C263.8,148,263.6,148,263.5,147.8z"/>
		</g>
		<circle class="st0" cx="34.8" cy="34.8" r="13.3"/>
		<path class="st5" d="M156.7,37.9l-8.1-3.6c-0.9-0.4-2-0.4-2.9,0l-8.1,3.6c-0.8,0.4-1.2,1.2-1.2,2c0.2,2.4,0.8,7.3,2.5,10.5
			c1.5,2.6,3.7,4.8,6.3,6.3c1.1,0.7,2.6,0.7,3.7,0c2.6-1.5,4.8-3.7,6.3-6.3c1.8-3.2,2.4-8.1,2.5-10.5
			C158,39.1,157.5,38.3,156.7,37.9z"/>
		<path class="st0" d="M147.7,39.9l1.1,2.2c0.1,0.2,0.2,0.3,0.4,0.3l2.4,0.3c0.3,0,0.5,0.3,0.4,0.6c0,0.1-0.1,0.2-0.1,0.3l-1.8,1.7
			c-0.1,0.1-0.2,0.3-0.1,0.5l0.4,2.4c0.1,0.3-0.1,0.6-0.4,0.6c-0.1,0-0.2,0-0.3-0.1l-2.1-1.1c-0.2-0.1-0.3-0.1-0.5,0l-2.2,1.1
			c-0.3,0.1-0.6,0-0.7-0.2c-0.1-0.1-0.1-0.2,0-0.3l0.4-2.4c0-0.2,0-0.3-0.1-0.5l-1.7-1.7c-0.2-0.2-0.2-0.5,0-0.7
			c0.1-0.1,0.2-0.1,0.3-0.2l2.4-0.3c0.2,0,0.3-0.1,0.4-0.3l1.1-2.2c0.1-0.3,0.4-0.4,0.7-0.2C147.5,39.7,147.6,39.8,147.7,39.9z"/>
		<g class="st3">
			<path class="st6" d="M32.2,36.4c0,0.4-0.1,0.8-0.2,1.2c-0.2,0.6-0.6,1-1.1,1.3s-1.1,0.5-1.8,0.5c-0.7,0-1.2-0.2-1.7-0.5
				c-0.5-0.3-0.9-0.7-1.1-1.3c-0.1-0.2-0.2-0.5-0.2-0.7v0c0-0.1,0.1-0.1,0.2-0.1h1.6c0.1,0,0.1,0,0.2,0.1c0,0.1,0,0.1,0,0.1
				c0,0,0,0.1,0,0.1c0.1,0.2,0.2,0.4,0.4,0.5s0.4,0.2,0.6,0.2c0.2,0,0.5-0.1,0.6-0.2c0.2-0.1,0.3-0.3,0.4-0.5
				c0.1-0.2,0.1-0.4,0.1-0.7c0-0.3,0-0.5-0.1-0.7c-0.1-0.2-0.2-0.4-0.4-0.5c-0.2-0.1-0.4-0.2-0.6-0.2s-0.5,0.1-0.7,0.2
				c-0.2,0.1-0.3,0.3-0.4,0.4c0,0.1-0.1,0.1-0.2,0.1h-1.6c0,0-0.1,0-0.1,0c0,0,0-0.1,0-0.1v-5.2c0,0,0-0.1,0-0.1c0,0,0.1,0,0.1,0
				h5.4c0,0,0.1,0,0.1,0s0,0.1,0,0.1v1.3c0,0,0,0.1,0,0.1s-0.1,0-0.1,0h-3.6c0,0-0.1,0-0.1,0.1l0,1.9c0,0.1,0,0.1,0.1,0
				c0.4-0.3,0.8-0.4,1.4-0.4c0.6,0,1.1,0.2,1.6,0.5s0.8,0.7,1,1.3C32.1,35.6,32.2,36,32.2,36.4z"/>
			<path class="st6" d="M33.6,39.1c-0.2-0.2-0.3-0.4-0.3-0.7c0-0.3,0.1-0.6,0.3-0.7c0.2-0.2,0.4-0.3,0.7-0.3s0.6,0.1,0.7,0.3
				c0.2,0.2,0.3,0.4,0.3,0.7c0,0.3-0.1,0.5-0.3,0.7c-0.2,0.2-0.4,0.3-0.7,0.3S33.8,39.3,33.6,39.1z"/>
			<path class="st6" d="M43.3,35.4c0,0,0,0.1,0,0.1v1.3c0,0,0,0.1,0,0.1s-0.1,0-0.1,0h-0.6c0,0-0.1,0-0.1,0.1v2.1c0,0,0,0.1,0,0.1
				c0,0-0.1,0-0.1,0h-1.5c0,0-0.1,0-0.1,0c0,0,0-0.1,0-0.1v-2.1c0,0,0-0.1-0.1-0.1h-4c0,0-0.1,0-0.1,0c0,0,0-0.1,0-0.1v-1
				c0-0.1,0-0.1,0-0.2l2.3-5.3c0-0.1,0.1-0.1,0.2-0.1h1.6c0.1,0,0.1,0,0.1,0c0,0,0,0.1,0,0.1l-2.2,4.9c0,0,0,0,0,0.1c0,0,0,0,0,0h2
				c0,0,0.1,0,0.1-0.1v-1.6c0,0,0-0.1,0-0.1c0,0,0.1,0,0.1,0h1.5c0,0,0.1,0,0.1,0c0,0,0,0.1,0,0.1v1.6c0,0,0,0.1,0.1,0.1h0.6
				C43.3,35.4,43.3,35.4,43.3,35.4z"/>
		</g>
	</g>
</g>
</svg>
