<svg xmlns="http://www.w3.org/2000/svg" viewBox="0 0 307 199"><defs><style>.cls-1{fill:none;stroke:#00b6ed;stroke-miterlimit:10;}.cls-2{fill:#00b6ed;}.cls-3{fill:#fff;}</style></defs><title>05</title><g id="Capa_2" data-name="Capa 2"><g id="Capa_1-2" data-name="Capa 1"><rect class="cls-1" x="0.5" y="0.5" width="306" height="198"/><rect class="cls-2" x="0.5" y="0.5" width="306" height="198"/><path class="cls-3" d="M55.16,89a.21.21,0,0,1,.07.17v.64a2.64,2.64,0,0,1-.46,1.62,6.64,6.64,0,0,1-1.34,1.28,7.14,7.14,0,0,0-1.06,1,1.51,1.51,0,0,0-.34,1,1.37,1.37,0,0,0,.4,1,1.43,1.43,0,0,0,1,.39,1.54,1.54,0,0,0,1.14-.42A1.46,1.46,0,0,0,55,94.57v-.32c0-.15.08-.22.24-.22l2.34.1a.24.24,0,0,1,.24.24v.2a4.08,4.08,0,0,1-.56,2.13,3.77,3.77,0,0,1-1.57,1.44,5.07,5.07,0,0,1-2.31.51,4.35,4.35,0,0,1-3.07-1.07,4.11,4.11,0,0,1-.87-4.34,3.46,3.46,0,0,1,.67-1,9.78,9.78,0,0,1,1-.88,5.85,5.85,0,0,0,1-.86,1.32,1.32,0,0,0,.3-.88v-.46a.21.21,0,0,1,.07-.17.22.22,0,0,1,.17-.07H55A.22.22,0,0,1,55.16,89ZM55,84.85A1.6,1.6,0,1,1,52.29,86a1.57,1.57,0,0,1,.44-1.13,1.66,1.66,0,0,1,2.26,0Z"/><path class="cls-3" d="M65.42,80.86a4,4,0,0,1,1.6,1.6,4.83,4.83,0,0,1,.57,2.39v5.3a4.59,4.59,0,0,1-.81,2.73,4,4,0,0,1-2.23,1.53.1.1,0,0,0-.08.1v1.66a.23.23,0,0,1-.07.17.28.28,0,0,1-.17.07H61.89a.24.24,0,0,1-.17-.07.23.23,0,0,1-.07-.17V94.51a.1.1,0,0,0-.08-.1,4,4,0,0,1-2.21-1.53,4.59,4.59,0,0,1-.81-2.73v-5.3a4.94,4.94,0,0,1,.56-2.39,3.93,3.93,0,0,1,1.58-1.6,4.77,4.77,0,0,1,2.36-.57A4.83,4.83,0,0,1,65.42,80.86Zm-.65,3.77a2,2,0,0,0-.47-1.39,1.56,1.56,0,0,0-1.25-.53,1.51,1.51,0,0,0-1.21.53,2,2,0,0,0-.47,1.39v5.64a2,2,0,0,0,.47,1.39,1.54,1.54,0,0,0,1.21.53,1.59,1.59,0,0,0,1.25-.53,2.05,2.05,0,0,0,.47-1.39Z"/><path class="cls-3" d="M74.6,84.24a.21.21,0,0,1,.17-.07h2.34a.23.23,0,0,1,.17.07.22.22,0,0,1,.07.17v9.8a.22.22,0,0,1-.07.17.23.23,0,0,1-.17.07H74.77a.21.21,0,0,1-.17-.07.22.22,0,0,1-.07-.17v-.5s0-.07,0-.07a.07.07,0,0,0-.08,0,2.49,2.49,0,0,1-2.14.92A3.19,3.19,0,0,1,70,93.77a3.14,3.14,0,0,1-.88-2.42V84.41a.22.22,0,0,1,.07-.17.21.21,0,0,1,.17-.07h2.34a.23.23,0,0,1,.17.07.22.22,0,0,1,.07.17v6.28a1.68,1.68,0,0,0,.33,1.1,1.28,1.28,0,0,0,1.88,0,1.71,1.71,0,0,0,.35-1.12V84.41A.22.22,0,0,1,74.6,84.24Z"/><path class="cls-3" d="M87.47,89.21l0,.78a.21.21,0,0,1-.24.24h-5.3c-.07,0-.1,0-.1.1a5.55,5.55,0,0,0,.08.68,1.43,1.43,0,0,0,.49.88,1.49,1.49,0,0,0,1,.32,1.4,1.4,0,0,0,1.36-.9.25.25,0,0,1,.3-.16l2.12.42c.16,0,.21.14.16.3a3.89,3.89,0,0,1-1.45,2,4.25,4.25,0,0,1-2.49.71,4.51,4.51,0,0,1-2.83-.81,3.8,3.8,0,0,1-1.37-2.33A12.7,12.7,0,0,1,79,89a9.25,9.25,0,0,1,.12-1.62,3.66,3.66,0,0,1,1.32-2.43A4.19,4.19,0,0,1,83.19,84a4.24,4.24,0,0,1,3,1,3.86,3.86,0,0,1,1.26,2.71C87.45,88.19,87.47,88.68,87.47,89.21Zm-5.15-2.46a1.41,1.41,0,0,0-.45.88,4.59,4.59,0,0,0-.06.76c0,.07,0,.1.1.1h2.6c.07,0,.1,0,.1-.1a4.59,4.59,0,0,0-.06-.76,1.4,1.4,0,0,0-.44-.87,1.39,1.39,0,0,0-1.79,0Zm-.47-3.9a.21.21,0,0,1,0-.2l1.14-2a.32.32,0,0,1,.3-.16h1.92a.2.2,0,0,1,.2.09.21.21,0,0,1,0,.21l-1.48,2a.34.34,0,0,1-.28.14H82A.18.18,0,0,1,81.85,82.85Z"/><path class="cls-3" d="M105.56,84.94a4,4,0,0,1,.77,2.61v6.66a.26.26,0,0,1-.07.17.23.23,0,0,1-.17.07h-2.32a.21.21,0,0,1-.17-.07.22.22,0,0,1-.07-.17V88a1.71,1.71,0,0,0-.33-1.11,1.07,1.07,0,0,0-.89-.41,1.1,1.1,0,0,0-.92.41,1.62,1.62,0,0,0-.34,1.09v6.28a.26.26,0,0,1-.07.17.22.22,0,0,1-.17.07H98.49a.21.21,0,0,1-.17-.07.22.22,0,0,1-.07-.17V88a1.71,1.71,0,0,0-.34-1.11,1.21,1.21,0,0,0-1.82,0,1.62,1.62,0,0,0-.34,1.09v6.28a.26.26,0,0,1-.07.17.23.23,0,0,1-.17.07H93.19a.21.21,0,0,1-.17-.07.22.22,0,0,1-.07-.17v-9.8a.22.22,0,0,1,.07-.17.21.21,0,0,1,.17-.07h2.32a.23.23,0,0,1,.17.07.26.26,0,0,1,.07.17v.52s0,.07,0,.08,0,0,.08,0a2.39,2.39,0,0,1,1-.73,3,3,0,0,1,1.2-.23,3,3,0,0,1,1.55.37,2.49,2.49,0,0,1,1,1.07,0,0,0,0,0,.06,0,.23.23,0,0,0,.08-.07,2.67,2.67,0,0,1,1.12-1.07,3.29,3.29,0,0,1,1.46-.33A2.74,2.74,0,0,1,105.56,84.94Z"/><path class="cls-3" d="M109.32,93.74A3.54,3.54,0,0,1,108,91.35a11.73,11.73,0,0,1-.16-2.06,11.57,11.57,0,0,1,.16-2.06,3.49,3.49,0,0,1,1.33-2.35,4.48,4.48,0,0,1,2.85-.87,4.39,4.39,0,0,1,2.81.87,3.61,3.61,0,0,1,1.33,2.35,13.21,13.21,0,0,1,0,4.1A3.63,3.63,0,0,1,115,93.74a4.4,4.4,0,0,1-2.83.87A4.48,4.48,0,0,1,109.32,93.74Zm3.74-1.89a1.75,1.75,0,0,0,.49-.92,15.51,15.51,0,0,0,.1-1.64,14.38,14.38,0,0,0-.1-1.62,1.51,1.51,0,0,0-.47-.91,1.36,1.36,0,0,0-.93-.33,1.31,1.31,0,0,0-.91.33,1.46,1.46,0,0,0-.47.91,9.93,9.93,0,0,0-.1,1.62,12.41,12.41,0,0,0,.08,1.64,1.69,1.69,0,0,0,.5.92,1.31,1.31,0,0,0,.92.34A1.27,1.27,0,0,0,113.06,91.85Z"/><path class="cls-3" d="M123.18,86.22a.23.23,0,0,1-.17.07h-1.54c-.07,0-.1,0-.1.1v4.5a1.28,1.28,0,0,0,.25.89,1,1,0,0,0,.77.25h.4a.23.23,0,0,1,.17.07.24.24,0,0,1,.07.17v1.94a.21.21,0,0,1-.24.24l-1,0a4.28,4.28,0,0,1-2.35-.52,2.19,2.19,0,0,1-.77-2v-5.6a.09.09,0,0,0-.1-.1h-.92a.21.21,0,0,1-.17-.07.22.22,0,0,1-.07-.17V84.41a.22.22,0,0,1,.07-.17.21.21,0,0,1,.17-.07h.92a.09.09,0,0,0,.1-.1v-2.3a.24.24,0,0,1,.24-.24h2.22a.23.23,0,0,1,.17.07.24.24,0,0,1,.07.17v2.3a.09.09,0,0,0,.1.1H123a.23.23,0,0,1,.17.07.26.26,0,0,1,.07.17v1.64A.26.26,0,0,1,123.18,86.22Z"/><path class="cls-3" d="M125,82.56a1.7,1.7,0,0,1,0-2.27,1.51,1.51,0,0,1,1.13-.44,1.58,1.58,0,0,1,1.14.44A1.59,1.59,0,0,1,126.11,83,1.48,1.48,0,0,1,125,82.56Zm-.21,11.82a.22.22,0,0,1-.07-.17v-9.8a.22.22,0,0,1,.07-.17.21.21,0,0,1,.17-.07h2.34a.23.23,0,0,1,.17.07.26.26,0,0,1,.07.17v9.8a.26.26,0,0,1-.07.17.23.23,0,0,1-.17.07H125A.21.21,0,0,1,124.78,94.38Z"/><path class="cls-3" d="M131.69,94.25l-2.8-9.84,0-.08c0-.12.07-.18.22-.18h2.56a.24.24,0,0,1,.26.22l1.3,6c0,.05,0,.08.06.08s0,0,.06-.08l1.28-6a.23.23,0,0,1,.26-.22l2.56,0c.17,0,.24.09.2.26l-2.76,9.8a.27.27,0,0,1-.28.2H132A.26.26,0,0,1,131.69,94.25Z"/><path class="cls-3" d="M144.59,84.44a3.49,3.49,0,0,1,1.47,1.2,3,3,0,0,1,.53,1.75v6.82a.26.26,0,0,1-.07.17.23.23,0,0,1-.17.07H144a.21.21,0,0,1-.17-.07.22.22,0,0,1-.07-.17v-.56a.09.09,0,0,0,0-.08s-.06,0-.08,0a2.78,2.78,0,0,1-2.36,1,3.57,3.57,0,0,1-2.27-.7,2.77,2.77,0,0,1-.91-2.34c0-2.18,1.36-3.26,4.08-3.26h1.48a.09.09,0,0,0,.1-.1v-.46a1.33,1.33,0,0,0-.35-1,1.27,1.27,0,0,0-.95-.36,1.35,1.35,0,0,0-.8.22.89.89,0,0,0-.4.6.27.27,0,0,1-.28.2l-2.42-.14a.24.24,0,0,1-.17-.06.14.14,0,0,1-.05-.16,3,3,0,0,1,1.25-2.23,4.57,4.57,0,0,1,2.85-.85A5,5,0,0,1,144.59,84.44Zm-1.3,7.65a1.23,1.23,0,0,0,.48-1v-.84a.09.09,0,0,0-.1-.1h-1.12a1.82,1.82,0,0,0-1.16.32,1.08,1.08,0,0,0-.42.92,1,1,0,0,0,.32.8,1.2,1.2,0,0,0,.84.28A1.84,1.84,0,0,0,143.29,92.09Z"/><path class="cls-3" d="M158.33,84.44a3.49,3.49,0,0,1,1.47,1.2,3,3,0,0,1,.53,1.75v6.82a.26.26,0,0,1-.07.17.23.23,0,0,1-.17.07h-2.34a.21.21,0,0,1-.17-.07.22.22,0,0,1-.07-.17v-.56a.09.09,0,0,0,0-.08s-.06,0-.08,0a2.78,2.78,0,0,1-2.36,1,3.57,3.57,0,0,1-2.27-.7,2.77,2.77,0,0,1-.91-2.34c0-2.18,1.36-3.26,4.08-3.26h1.48a.09.09,0,0,0,.1-.1v-.46a1.33,1.33,0,0,0-.35-1,1.27,1.27,0,0,0-.95-.36,1.35,1.35,0,0,0-.8.22.89.89,0,0,0-.4.6.27.27,0,0,1-.28.2l-2.42-.14a.24.24,0,0,1-.17-.06.14.14,0,0,1,0-.16,3,3,0,0,1,1.25-2.23,4.57,4.57,0,0,1,2.85-.85A5,5,0,0,1,158.33,84.44ZM157,92.09a1.23,1.23,0,0,0,.48-1v-.84a.09.09,0,0,0-.1-.1h-1.12a1.82,1.82,0,0,0-1.16.32,1.08,1.08,0,0,0-.42.92,1,1,0,0,0,.32.8,1.2,1.2,0,0,0,.84.28A1.84,1.84,0,0,0,157,92.09Z"/><path class="cls-3" d="M166,94.38a.22.22,0,0,1-.07-.17V80.69a.24.24,0,0,1,.24-.24h2.34a.23.23,0,0,1,.17.07.24.24,0,0,1,.07.17V94.21a.26.26,0,0,1-.07.17.23.23,0,0,1-.17.07h-2.34A.21.21,0,0,1,166,94.38Z"/><path class="cls-3" d="M171.84,93.74a3.54,3.54,0,0,1-1.33-2.39,11.73,11.73,0,0,1-.16-2.06,11.57,11.57,0,0,1,.16-2.06,3.49,3.49,0,0,1,1.33-2.35,4.48,4.48,0,0,1,2.85-.87,4.39,4.39,0,0,1,2.81.87,3.65,3.65,0,0,1,1.33,2.35,13.21,13.21,0,0,1,0,4.1,3.63,3.63,0,0,1-1.31,2.41,4.4,4.4,0,0,1-2.83.87A4.48,4.48,0,0,1,171.84,93.74Zm3.74-1.89a1.75,1.75,0,0,0,.49-.92,15.51,15.51,0,0,0,.1-1.64,14.38,14.38,0,0,0-.1-1.62,1.57,1.57,0,0,0-.47-.91,1.36,1.36,0,0,0-.93-.33,1.31,1.31,0,0,0-.91.33,1.46,1.46,0,0,0-.47.91,9.93,9.93,0,0,0-.1,1.62,12.41,12.41,0,0,0,.08,1.64,1.63,1.63,0,0,0,.5.92,1.31,1.31,0,0,0,.92.34A1.27,1.27,0,0,0,175.58,91.85Z"/><path class="cls-3" d="M181.41,93.77a2.56,2.56,0,0,1-1.1-2.16v-.16a.22.22,0,0,1,.07-.17.21.21,0,0,1,.17-.07h2.2a.23.23,0,0,1,.17.07.26.26,0,0,1,.07.17v0a.85.85,0,0,0,.4.72,1.69,1.69,0,0,0,1,.28,1.35,1.35,0,0,0,.86-.25.79.79,0,0,0,.32-.63.64.64,0,0,0-.35-.58,6.22,6.22,0,0,0-1.13-.46,8.08,8.08,0,0,1-1-.32,5.51,5.51,0,0,1-2-1.08,2.53,2.53,0,0,1-.75-2,2.82,2.82,0,0,1,1.06-2.32,4.26,4.26,0,0,1,2.8-.86,4.38,4.38,0,0,1,2.87.89,2.93,2.93,0,0,1,1.07,2.37c0,.15-.08.22-.24.22h-2.16a.21.21,0,0,1-.17-.07.23.23,0,0,1-.07-.17v-.06a.9.9,0,0,0-.34-.7,1.4,1.4,0,0,0-.92-.28,1.33,1.33,0,0,0-.87.26.79.79,0,0,0-.33.64.72.72,0,0,0,.4.65,5.87,5.87,0,0,0,1.22.47l.35.11.31.11a7.27,7.27,0,0,1,2.18,1.11,2.33,2.33,0,0,1,.82,1.93,2.69,2.69,0,0,1-1.09,2.26,4.83,4.83,0,0,1-2.93.82A4.88,4.88,0,0,1,181.41,93.77Z"/><path class="cls-3" d="M57.93,113.21l0,.78a.21.21,0,0,1-.24.24h-5.3c-.07,0-.1,0-.1.1a5.55,5.55,0,0,0,.08.68,1.43,1.43,0,0,0,.49.88,1.49,1.49,0,0,0,1,.32,1.4,1.4,0,0,0,1.36-.9.25.25,0,0,1,.3-.16l2.12.42c.16,0,.21.14.16.3a3.89,3.89,0,0,1-1.45,2,4.27,4.27,0,0,1-2.49.71A4.51,4.51,0,0,1,51,117.8a3.8,3.8,0,0,1-1.37-2.33,12.7,12.7,0,0,1-.18-2.5,9.25,9.25,0,0,1,.12-1.62,3.74,3.74,0,0,1,1.32-2.43,4.19,4.19,0,0,1,2.78-.91,4.24,4.24,0,0,1,3,1,3.86,3.86,0,0,1,1.26,2.71C57.91,112.19,57.93,112.68,57.93,113.21Zm-5.15-2.46a1.46,1.46,0,0,0-.45.88,4.59,4.59,0,0,0-.06.76c0,.07,0,.1.1.1H55c.07,0,.1,0,.1-.1a4.59,4.59,0,0,0-.06-.76,1.4,1.4,0,0,0-.44-.87,1.39,1.39,0,0,0-1.79,0Z"/><path class="cls-3" d="M60.17,117.77a2.58,2.58,0,0,1-1.1-2.16v-.16a.24.24,0,0,1,.24-.24h2.2a.22.22,0,0,1,.17.07.26.26,0,0,1,.07.17v0a.85.85,0,0,0,.4.72,1.72,1.72,0,0,0,1,.28,1.33,1.33,0,0,0,.86-.25.79.79,0,0,0,.32-.63A.64.64,0,0,0,64,115a6.22,6.22,0,0,0-1.13-.46,8.73,8.73,0,0,1-1-.32,5.51,5.51,0,0,1-1.95-1.08,2.53,2.53,0,0,1-.75-2,2.82,2.82,0,0,1,1.06-2.32A4.28,4.28,0,0,1,63,108a4.36,4.36,0,0,1,2.87.89A2.93,2.93,0,0,1,67,111.29c0,.15-.08.22-.24.22H64.57a.22.22,0,0,1-.17-.07.23.23,0,0,1-.07-.17v-.06a.9.9,0,0,0-.34-.7,1.39,1.39,0,0,0-.92-.28,1.33,1.33,0,0,0-.87.26.79.79,0,0,0-.33.64.72.72,0,0,0,.4.65,6.11,6.11,0,0,0,1.22.47l.35.11.31.11a7.27,7.27,0,0,1,2.18,1.11,2.3,2.3,0,0,1,.82,1.93,2.67,2.67,0,0,1-1.09,2.26,4.8,4.8,0,0,1-2.93.82A4.88,4.88,0,0,1,60.17,117.77Z"/><path class="cls-3" d="M73.72,110.22a.22.22,0,0,1-.17.07H72c-.07,0-.1,0-.1.1v4.5a1.28,1.28,0,0,0,.25.89,1,1,0,0,0,.77.25h.4a.22.22,0,0,1,.17.07.24.24,0,0,1,.07.17v1.94a.21.21,0,0,1-.24.24l-1,0A4.31,4.31,0,0,1,70,118a2.19,2.19,0,0,1-.77-2v-5.6a.09.09,0,0,0-.1-.1h-.92a.24.24,0,0,1-.24-.24v-1.64a.24.24,0,0,1,.24-.24h.92a.09.09,0,0,0,.1-.1v-2.3a.21.21,0,0,1,.07-.17.22.22,0,0,1,.17-.07h2.22a.22.22,0,0,1,.17.07.24.24,0,0,1,.07.17v2.3a.09.09,0,0,0,.1.1h1.54a.24.24,0,0,1,.24.24v1.64A.22.22,0,0,1,73.72,110.22Z"/><path class="cls-3" d="M80.56,108.24a.21.21,0,0,1,.17-.07h2.34a.23.23,0,0,1,.17.07.22.22,0,0,1,.07.17v9.8a.22.22,0,0,1-.07.17.23.23,0,0,1-.17.07H80.73a.21.21,0,0,1-.17-.07.22.22,0,0,1-.07-.17v-.5s0-.07,0-.07a.07.07,0,0,0-.08,0,2.49,2.49,0,0,1-2.14.92,3.19,3.19,0,0,1-2.24-.82,3.14,3.14,0,0,1-.88-2.42v-6.94a.22.22,0,0,1,.07-.17.21.21,0,0,1,.17-.07h2.34a.23.23,0,0,1,.17.07.22.22,0,0,1,.07.17v6.28a1.68,1.68,0,0,0,.33,1.1,1.28,1.28,0,0,0,1.88,0,1.71,1.71,0,0,0,.35-1.12v-6.24A.22.22,0,0,1,80.56,108.24Z"/><path class="cls-3" d="M90.66,104.52a.22.22,0,0,1,.17-.07h2.34a.23.23,0,0,1,.17.07.24.24,0,0,1,.07.17v13.52a.26.26,0,0,1-.07.17.23.23,0,0,1-.17.07H90.83a.24.24,0,0,1-.24-.24v-.44s0-.07,0-.08,0,0-.08,0a2.64,2.64,0,0,1-2.12.88q-2.44,0-3.14-3.18a11.67,11.67,0,0,1-.2-2.22,12.06,12.06,0,0,1,.18-2.1q.61-3.1,3.2-3.1a3.36,3.36,0,0,1,1.2.19,2.17,2.17,0,0,1,.88.65s0,.05.08,0,0,0,0-.08v-4.12A.21.21,0,0,1,90.66,104.52Zm-.09,8.77a8.52,8.52,0,0,0-.16-1.76c-.18-.74-.57-1.1-1.18-1.1a1.05,1.05,0,0,0-.76.28,1.58,1.58,0,0,0-.44.8,6.44,6.44,0,0,0-.18,1.78A7.49,7.49,0,0,0,88,115c.17.78.59,1.18,1.24,1.18s1-.39,1.2-1.16A8.26,8.26,0,0,0,90.57,113.29Z"/><path class="cls-3" d="M95.55,106.56a1.7,1.7,0,0,1,0-2.27,1.51,1.51,0,0,1,1.13-.44,1.58,1.58,0,0,1,1.14.44A1.59,1.59,0,0,1,96.67,107,1.48,1.48,0,0,1,95.55,106.56Zm-.21,11.82a.22.22,0,0,1-.07-.17v-9.8a.22.22,0,0,1,.07-.17.21.21,0,0,1,.17-.07h2.34a.23.23,0,0,1,.17.07.26.26,0,0,1,.07.17v9.8a.26.26,0,0,1-.07.17.23.23,0,0,1-.17.07H95.51A.21.21,0,0,1,95.34,118.38Z"/><path class="cls-3" d="M106,108.44a3.49,3.49,0,0,1,1.47,1.2,3,3,0,0,1,.53,1.75v6.82a.26.26,0,0,1-.07.17.23.23,0,0,1-.17.07h-2.34a.21.21,0,0,1-.17-.07.22.22,0,0,1-.07-.17v-.56a.09.09,0,0,0,0-.08s-.06,0-.08,0a2.78,2.78,0,0,1-2.36,1,3.57,3.57,0,0,1-2.27-.7,2.77,2.77,0,0,1-.91-2.34c0-2.18,1.36-3.26,4.08-3.26h1.48a.09.09,0,0,0,.1-.1v-.46a1.33,1.33,0,0,0-.35-1,1.27,1.27,0,0,0-1-.36,1.35,1.35,0,0,0-.8.22.89.89,0,0,0-.4.6.27.27,0,0,1-.28.2l-2.42-.14a.24.24,0,0,1-.17-.06.14.14,0,0,1,0-.16,3,3,0,0,1,1.25-2.23,4.57,4.57,0,0,1,2.85-.85A5,5,0,0,1,106,108.44Zm-1.3,7.65a1.23,1.23,0,0,0,.48-1v-.84a.09.09,0,0,0-.1-.1H104a1.82,1.82,0,0,0-1.16.32,1.08,1.08,0,0,0-.42.92,1,1,0,0,0,.32.8,1.2,1.2,0,0,0,.84.28A1.84,1.84,0,0,0,104.71,116.09Z"/><path class="cls-3" d="M117.06,108.94a3.77,3.77,0,0,1,.83,2.59v6.68a.26.26,0,0,1-.07.17.23.23,0,0,1-.17.07h-2.34a.21.21,0,0,1-.17-.07.22.22,0,0,1-.07-.17v-6.28a1.68,1.68,0,0,0-.34-1.1,1.28,1.28,0,0,0-1.87,0,1.61,1.61,0,0,0-.35,1.11v6.26a.26.26,0,0,1-.07.17.23.23,0,0,1-.17.07h-2.34a.21.21,0,0,1-.17-.07.22.22,0,0,1-.07-.17v-9.8a.22.22,0,0,1,.07-.17.21.21,0,0,1,.17-.07h2.34a.23.23,0,0,1,.17.07.26.26,0,0,1,.07.17V109s0,.06,0,.07a.16.16,0,0,0,.1-.07,2.48,2.48,0,0,1,2.12-1A2.93,2.93,0,0,1,117.06,108.94Z"/><path class="cls-3" d="M124.86,110.22a.23.23,0,0,1-.17.07h-1.54c-.07,0-.1,0-.1.1v4.5a1.28,1.28,0,0,0,.25.89,1,1,0,0,0,.77.25h.4a.23.23,0,0,1,.17.07.24.24,0,0,1,.07.17v1.94a.21.21,0,0,1-.24.24l-1,0a4.28,4.28,0,0,1-2.35-.52,2.19,2.19,0,0,1-.77-2v-5.6a.09.09,0,0,0-.1-.1h-.92a.21.21,0,0,1-.17-.07.22.22,0,0,1-.07-.17v-1.64a.22.22,0,0,1,.07-.17.21.21,0,0,1,.17-.07h.92a.09.09,0,0,0,.1-.1v-2.3a.24.24,0,0,1,.24-.24h2.22a.23.23,0,0,1,.17.07.24.24,0,0,1,.07.17v2.3a.09.09,0,0,0,.1.1h1.54a.23.23,0,0,1,.17.07.26.26,0,0,1,.07.17v1.64A.26.26,0,0,1,124.86,110.22Z"/><path class="cls-3" d="M134.57,113.21l0,.78a.21.21,0,0,1-.24.24H129c-.07,0-.1,0-.1.1a5.55,5.55,0,0,0,.08.68,1.38,1.38,0,0,0,.49.88,1.49,1.49,0,0,0,1,.32,1.41,1.41,0,0,0,1.36-.9.25.25,0,0,1,.3-.16l2.12.42c.16,0,.21.14.16.3a3.94,3.94,0,0,1-1.45,2,4.27,4.27,0,0,1-2.49.71,4.51,4.51,0,0,1-2.83-.81,3.8,3.8,0,0,1-1.37-2.33,12.7,12.7,0,0,1-.18-2.5,9.25,9.25,0,0,1,.12-1.62,3.66,3.66,0,0,1,1.32-2.43,4.19,4.19,0,0,1,2.78-.91,4.24,4.24,0,0,1,3,1,3.86,3.86,0,0,1,1.26,2.71C134.55,112.19,134.57,112.68,134.57,113.21Zm-5.15-2.46a1.41,1.41,0,0,0-.45.88,4.59,4.59,0,0,0-.06.76c0,.07,0,.1.1.1h2.6a.09.09,0,0,0,.1-.1,4.59,4.59,0,0,0-.06-.76,1.46,1.46,0,0,0-.44-.87,1.39,1.39,0,0,0-1.79,0Z"/><path class="cls-3" d="M136.81,117.77a2.56,2.56,0,0,1-1.1-2.16v-.16a.22.22,0,0,1,.07-.17.21.21,0,0,1,.17-.07h2.2a.23.23,0,0,1,.17.07.26.26,0,0,1,.07.17v0a.85.85,0,0,0,.4.72,1.69,1.69,0,0,0,1,.28,1.35,1.35,0,0,0,.86-.25.79.79,0,0,0,.32-.63.64.64,0,0,0-.35-.58,6.22,6.22,0,0,0-1.13-.46,8.08,8.08,0,0,1-1-.32,5.51,5.51,0,0,1-1.95-1.08,2.53,2.53,0,0,1-.75-2,2.82,2.82,0,0,1,1.06-2.32,4.26,4.26,0,0,1,2.8-.86,4.38,4.38,0,0,1,2.87.89,2.93,2.93,0,0,1,1.07,2.37c0,.15-.08.22-.24.22h-2.16a.21.21,0,0,1-.17-.07.23.23,0,0,1-.07-.17v-.06a.9.9,0,0,0-.34-.7,1.4,1.4,0,0,0-.92-.28,1.33,1.33,0,0,0-.87.26.79.79,0,0,0-.33.64.72.72,0,0,0,.4.65,5.87,5.87,0,0,0,1.22.47l.35.11.31.11a7.27,7.27,0,0,1,2.18,1.11,2.33,2.33,0,0,1,.82,1.93,2.69,2.69,0,0,1-1.09,2.26,4.83,4.83,0,0,1-2.93.82A4.88,4.88,0,0,1,136.81,117.77Z"/><path class="cls-3" d="M155.21,108.44a3.49,3.49,0,0,1,1.47,1.2,3,3,0,0,1,.53,1.75v6.82a.26.26,0,0,1-.07.17.23.23,0,0,1-.17.07h-2.34a.21.21,0,0,1-.17-.07.22.22,0,0,1-.07-.17v-.56a.09.09,0,0,0,0-.08s-.06,0-.08,0a2.78,2.78,0,0,1-2.36,1,3.57,3.57,0,0,1-2.27-.7,2.77,2.77,0,0,1-.91-2.34c0-2.18,1.36-3.26,4.08-3.26h1.48a.09.09,0,0,0,.1-.1v-.46a1.33,1.33,0,0,0-.35-1,1.27,1.27,0,0,0-.95-.36,1.35,1.35,0,0,0-.8.22.89.89,0,0,0-.4.6.27.27,0,0,1-.28.2l-2.42-.14a.24.24,0,0,1-.17-.06.14.14,0,0,1-.05-.16,3,3,0,0,1,1.25-2.23,4.57,4.57,0,0,1,2.85-.85A5,5,0,0,1,155.21,108.44Zm-1.3,7.65a1.23,1.23,0,0,0,.48-1v-.84a.09.09,0,0,0-.1-.1h-1.12a1.82,1.82,0,0,0-1.16.32,1.08,1.08,0,0,0-.42.92,1,1,0,0,0,.32.8,1.2,1.2,0,0,0,.84.28A1.84,1.84,0,0,0,153.91,116.09Z"/><path class="cls-3" d="M169,108.44a3.49,3.49,0,0,1,1.47,1.2,3,3,0,0,1,.53,1.75v6.82a.26.26,0,0,1-.07.17.23.23,0,0,1-.17.07h-2.34a.21.21,0,0,1-.17-.07.22.22,0,0,1-.07-.17v-.56a.09.09,0,0,0,0-.08s-.06,0-.08,0a2.78,2.78,0,0,1-2.36,1,3.57,3.57,0,0,1-2.27-.7,2.77,2.77,0,0,1-.91-2.34c0-2.18,1.36-3.26,4.08-3.26H168a.09.09,0,0,0,.1-.1v-.46a1.33,1.33,0,0,0-.35-1,1.27,1.27,0,0,0-.95-.36,1.35,1.35,0,0,0-.8.22.89.89,0,0,0-.4.6.27.27,0,0,1-.28.2l-2.42-.14a.24.24,0,0,1-.17-.06.14.14,0,0,1,0-.16,3,3,0,0,1,1.25-2.23,4.57,4.57,0,0,1,2.85-.85A5,5,0,0,1,169,108.44Zm-1.3,7.65a1.23,1.23,0,0,0,.48-1v-.84a.09.09,0,0,0-.1-.1h-1.12a1.82,1.82,0,0,0-1.16.32,1.08,1.08,0,0,0-.42.92,1,1,0,0,0,.32.8,1.2,1.2,0,0,0,.84.28A1.84,1.84,0,0,0,167.65,116.09Z"/><path class="cls-3" d="M181.09,113.41a10.11,10.11,0,0,1-.18,2.08,4.5,4.5,0,0,1-1.09,2.32,2.85,2.85,0,0,1-2.11.8,3.43,3.43,0,0,1-1.18-.19,2.17,2.17,0,0,1-.88-.63s-.06-.05-.08,0,0,0,0,.08v4.1a.24.24,0,0,1-.24.24H173a.24.24,0,0,1-.17-.07.23.23,0,0,1-.07-.17V108.41a.22.22,0,0,1,.07-.17.21.21,0,0,1,.17-.07h2.34a.23.23,0,0,1,.17.07.26.26,0,0,1,.07.17v.4s0,.07,0,.08a.09.09,0,0,0,.08,0,2.62,2.62,0,0,1,2.12-.86q2.41,0,3.12,3.16A10.79,10.79,0,0,1,181.09,113.41Zm-2.82-.1a8.25,8.25,0,0,0-.16-1.72,1.76,1.76,0,0,0-.43-.85,1.09,1.09,0,0,0-.81-.31c-.62,0-1,.38-1.18,1.16a6.73,6.73,0,0,0-.16,1.72,8,8,0,0,0,.16,1.78c.17.73.56,1.1,1.18,1.1s1-.36,1.22-1.08A7.12,7.12,0,0,0,178.27,113.31Z"/><path class="cls-3" d="M188.65,108.27a.3.3,0,0,1,.12.32l-.4,2.3c0,.16-.11.21-.28.14a2.17,2.17,0,0,0-.58-.08,2.44,2.44,0,0,0-.52.06,1.48,1.48,0,0,0-1,.56,1.74,1.74,0,0,0-.4,1.16v5.48a.26.26,0,0,1-.07.17.23.23,0,0,1-.17.07H183a.21.21,0,0,1-.17-.07.22.22,0,0,1-.07-.17v-9.8a.22.22,0,0,1,.07-.17.21.21,0,0,1,.17-.07h2.34a.23.23,0,0,1,.17.07.26.26,0,0,1,.07.17v.8q0,.08,0,.09s0,0,.07,0a2.16,2.16,0,0,1,2-1.22A2,2,0,0,1,188.65,108.27Z"/><path class="cls-3" d="M198,113.21l0,.78a.21.21,0,0,1-.24.24h-5.3c-.07,0-.1,0-.1.1a5.55,5.55,0,0,0,.08.68,1.38,1.38,0,0,0,.49.88,1.49,1.49,0,0,0,1,.32,1.41,1.41,0,0,0,1.36-.9.25.25,0,0,1,.3-.16l2.12.42c.16,0,.21.14.16.3a3.94,3.94,0,0,1-1.45,2,4.27,4.27,0,0,1-2.49.71,4.51,4.51,0,0,1-2.83-.81,3.8,3.8,0,0,1-1.37-2.33,12.7,12.7,0,0,1-.18-2.5,9.25,9.25,0,0,1,.12-1.62,3.66,3.66,0,0,1,1.32-2.43,4.19,4.19,0,0,1,2.78-.91,4.24,4.24,0,0,1,3,1,3.86,3.86,0,0,1,1.26,2.71C198,112.19,198,112.68,198,113.21Zm-5.15-2.46a1.41,1.41,0,0,0-.45.88,4.59,4.59,0,0,0-.06.76c0,.07,0,.1.1.1H195a.09.09,0,0,0,.1-.1,4.59,4.59,0,0,0-.06-.76,1.46,1.46,0,0,0-.44-.87,1.39,1.39,0,0,0-1.79,0Z"/><path class="cls-3" d="M206.88,108.94a3.77,3.77,0,0,1,.83,2.59v6.68a.26.26,0,0,1-.07.17.23.23,0,0,1-.17.07h-2.34a.21.21,0,0,1-.17-.07.22.22,0,0,1-.07-.17v-6.28a1.68,1.68,0,0,0-.34-1.1,1.28,1.28,0,0,0-1.87,0,1.61,1.61,0,0,0-.35,1.11v6.26a.26.26,0,0,1-.07.17.23.23,0,0,1-.17.07h-2.34a.21.21,0,0,1-.17-.07.22.22,0,0,1-.07-.17v-9.8a.22.22,0,0,1,.07-.17.21.21,0,0,1,.17-.07h2.34a.23.23,0,0,1,.17.07.26.26,0,0,1,.07.17V109s0,.06,0,.07a.16.16,0,0,0,.1-.07,2.48,2.48,0,0,1,2.12-1A2.93,2.93,0,0,1,206.88,108.94Z"/><path class="cls-3" d="M215,104.52a.21.21,0,0,1,.17-.07h2.34a.23.23,0,0,1,.17.07.24.24,0,0,1,.07.17v13.52a.26.26,0,0,1-.07.17.23.23,0,0,1-.17.07h-2.34a.21.21,0,0,1-.17-.07.22.22,0,0,1-.07-.17v-.44a.09.09,0,0,0,0-.08.06.06,0,0,0-.08,0,2.64,2.64,0,0,1-2.12.88q-2.44,0-3.14-3.18a10.9,10.9,0,0,1-.2-2.22,12.06,12.06,0,0,1,.18-2.1q.62-3.1,3.2-3.1a3.36,3.36,0,0,1,1.2.19,2.17,2.17,0,0,1,.88.65.06.06,0,0,0,.08,0,.09.09,0,0,0,0-.08v-4.12A.21.21,0,0,1,215,104.52Zm-.09,8.77a8.52,8.52,0,0,0-.16-1.76c-.18-.74-.57-1.1-1.18-1.1a1.05,1.05,0,0,0-.76.28,1.58,1.58,0,0,0-.44.8,6.44,6.44,0,0,0-.18,1.78,7.49,7.49,0,0,0,.14,1.72c.17.78.58,1.18,1.24,1.18s1-.39,1.2-1.16A8.26,8.26,0,0,0,214.89,113.29Z"/><path class="cls-3" d="M227.85,113.21l0,.78a.21.21,0,0,1-.24.24h-5.3c-.07,0-.1,0-.1.1a5.55,5.55,0,0,0,.08.68,1.38,1.38,0,0,0,.49.88,1.49,1.49,0,0,0,1,.32,1.41,1.41,0,0,0,1.36-.9.25.25,0,0,1,.3-.16l2.12.42c.16,0,.21.14.16.3a3.94,3.94,0,0,1-1.45,2,4.27,4.27,0,0,1-2.49.71,4.51,4.51,0,0,1-2.83-.81,3.8,3.8,0,0,1-1.37-2.33,12.7,12.7,0,0,1-.18-2.5,9.25,9.25,0,0,1,.12-1.62,3.66,3.66,0,0,1,1.32-2.43,4.19,4.19,0,0,1,2.78-.91,4.24,4.24,0,0,1,3,1,3.86,3.86,0,0,1,1.26,2.71C227.83,112.19,227.85,112.68,227.85,113.21Zm-5.15-2.46a1.41,1.41,0,0,0-.45.88,4.59,4.59,0,0,0-.06.76c0,.07,0,.1.1.1h2.6a.09.09,0,0,0,.1-.1,4.59,4.59,0,0,0-.06-.76,1.46,1.46,0,0,0-.44-.87,1.39,1.39,0,0,0-1.79,0Z"/><path class="cls-3" d="M235.23,108.27a.3.3,0,0,1,.12.32l-.4,2.3c0,.16-.11.21-.28.14a2.17,2.17,0,0,0-.58-.08,2.44,2.44,0,0,0-.52.06,1.48,1.48,0,0,0-1,.56,1.74,1.74,0,0,0-.4,1.16v5.48a.26.26,0,0,1-.07.17.23.23,0,0,1-.17.07h-2.34a.21.21,0,0,1-.17-.07.22.22,0,0,1-.07-.17v-9.8a.22.22,0,0,1,.07-.17.21.21,0,0,1,.17-.07H232a.23.23,0,0,1,.17.07.26.26,0,0,1,.07.17v.8q0,.08,0,.09s0,0,.07,0a2.16,2.16,0,0,1,2-1.22A2,2,0,0,1,235.23,108.27Z"/><path class="cls-3" d="M238.78,113.94a.23.23,0,0,1-.07-.17v-.64a2.62,2.62,0,0,1,.46-1.62,6.39,6.39,0,0,1,1.34-1.28,6.79,6.79,0,0,0,1-1,1.61,1.61,0,0,0,.34-1,1.39,1.39,0,0,0-.39-1,1.42,1.42,0,0,0-1.05-.39,1.5,1.5,0,0,0-1.12.41,1.45,1.45,0,0,0-.42,1.09v.32c0,.14-.08.22-.24.22l-2.34-.1a.21.21,0,0,1-.17-.07.22.22,0,0,1-.07-.17v-.2a4,4,0,0,1,.56-2.13,3.71,3.71,0,0,1,1.57-1.44,5,5,0,0,1,2.31-.51,4.35,4.35,0,0,1,3.07,1.07,3.69,3.69,0,0,1,1.15,2.83,3.8,3.8,0,0,1-.28,1.51,3.62,3.62,0,0,1-.68,1,11.23,11.23,0,0,1-1,.88,5.85,5.85,0,0,0-1,.86,1.32,1.32,0,0,0-.3.88v.46a.28.28,0,0,1-.07.17.23.23,0,0,1-.17.07H239A.21.21,0,0,1,238.78,113.94Zm.16,4.1a1.54,1.54,0,0,1-.45-1.13,1.49,1.49,0,0,1,.44-1.12,1.54,1.54,0,0,1,1.14-.44,1.58,1.58,0,0,1,1.14.44,1.6,1.6,0,0,1-2.27,2.25Z"/><path class="cls-3" d="M31.9,90.59a7.23,7.23,0,0,1-.26,2,4,4,0,0,1-1.56,2.27,4.92,4.92,0,0,1-2.86.79,4.88,4.88,0,0,1-2.89-.83,4.13,4.13,0,0,1-1.56-2.4,3.39,3.39,0,0,1-.17-1v0c0-.15.08-.22.24-.22h2.62a.25.25,0,0,1,.28.26,1.5,1.5,0,0,0,.09.36,1.57,1.57,0,0,0,.51.86,1.29,1.29,0,0,0,.88.3,1.36,1.36,0,0,0,.9-.32,1.44,1.44,0,0,0,.48-.87,3.68,3.68,0,0,0,.16-1.14,4.48,4.48,0,0,0-.16-1.23,1.51,1.51,0,0,0-.5-.8,1.48,1.48,0,0,0-.88-.26,1.4,1.4,0,0,0-1.41.86.28.28,0,0,1-.29.22H22.86a.27.27,0,0,1-.19-.08.25.25,0,0,1-.07-.19V80.31a.28.28,0,0,1,.07-.19.26.26,0,0,1,.19-.07h8.4a.25.25,0,0,1,.19.07.29.29,0,0,1,.08.19v2.14a.25.25,0,0,1-.08.18.22.22,0,0,1-.19.08H25.81a.1.1,0,0,0-.11.11l0,3.43c0,.06,0,.09,0,.1a.09.09,0,0,0,.09,0,3.3,3.3,0,0,1,2.11-.68,3.9,3.9,0,0,1,2.23.61A3.45,3.45,0,0,1,31.48,88,7.35,7.35,0,0,1,31.9,90.59Z"/><path class="cls-3" d="M33.92,95a1.64,1.64,0,0,1-.5-1.24,1.65,1.65,0,0,1,1.74-1.74,1.7,1.7,0,0,1,1.25.48,1.74,1.74,0,0,1,.49,1.26,1.75,1.75,0,0,1-3,1.24Z"/></g></g></svg>