<?xml version="1.0" encoding="utf-8"?>
<!-- Generator: Adobe Illustrator 22.1.0, SVG Export Plug-In . SVG Version: 6.00 Build 0)  -->
<svg version="1.1" id="Capa_1" xmlns="http://www.w3.org/2000/svg" xmlns:xlink="http://www.w3.org/1999/xlink" x="0px" y="0px"
	 viewBox="0 0 306.5 198.5" style="enable-background:new 0 0 306.5 198.5;" xml:space="preserve">
<style type="text/css">
	.st0{fill:#E9E8F5;}
	.st1{opacity:0.8;fill:#3A4A9A;enable-background:new    ;}
	.st2{fill:none;stroke:#00B6ED;stroke-width:0.5;stroke-miterlimit:10;}
	.st3{enable-background:new    ;}
	.st4{fill:#1D1D1B;}
	.st5{fill:#3A4A9A;}
	.st6{fill:#EA5297;}
	.st7{fill:none;stroke:#EA5297;stroke-width:1.5;stroke-linecap:round;stroke-miterlimit:10;}
	.st8{fill:none;}
</style>
<title>06-2</title>
<g id="Capa_2_1_">
	<g id="Capa_1-2">
		<path class="st0" d="M175.7,49.6c-0.1-0.6-0.3-1.1-0.4-1.7c0.8-0.7,1.4-1.6,1.6-2.6c2.3-0.4,3.9-2.7,3.5-5c-0.2-1.2-0.9-2.3-2-2.9
			c1.7-2.5,1-5.9-1.5-7.6c-0.6-0.4-1.4-0.7-2.1-0.8c-0.7-2.3-2.8-3.9-5.3-3.9c-0.6,0-1.3,0.1-1.8,0.3c-1.2-2.8-4.5-4-7.3-2.8
			c-0.8,0.4-1.5,0.9-2.1,1.6c-1.5-2.6-4.9-3.5-7.5-1.9c-0.8,0.5-1.5,1.1-1.9,1.9c-1.6-2.2-4.6-2.8-6.9-1.2c-1.2,0.8-1.9,2.1-2.1,3.5
			c-1.1-0.9-2.5-1.4-4-1.4c-3.5,0-6.3,2.8-6.3,6.3v0c0,0.6,0.1,1.2,0.2,1.7c-1.5-1.3-3.8-1.2-5.1,0.4s-1.2,3.8,0.4,5.1l0,0
			c-0.1,0-0.3-0.1-0.5-0.1c-0.1,0-0.3,0-0.4,0H124c-1.9,0-3.5,1.6-3.5,3.5c0,1.2,0.6,2.2,1.5,2.9h-0.2c-2.6,0.1-4.6,2.2-4.5,4.7
			c0,1.7,1.1,3.3,2.6,4.1c-1.6,1.1-1.9,3.3-0.8,4.8c0.5,0.8,1.4,1.3,2.3,1.4c-1.2,1.6-1.4,3.8-0.5,5.6c0.7,1.6,2.4,2.5,4.1,2.4
			c0.1,0,0.1,0,0.2,0c-0.2,0.5-0.3,1-0.3,1.6c0,2.2,1.8,4,4,4h0.1c0,0.2-0.1,0.4-0.1,0.7c0,2.2,1.8,4,4,4c0,0,0,0,0.1,0
			c0.3,0,0.7,0,1-0.1c0.2,2,2,3.5,4,3.5h0.2"/>
		<path class="st0" d="M162.8,96.5c0,0-2.1-5.1-0.7-7s9.5-1.3,15.2-6.3c1.7-1.4,3.2-3.1,4.3-5c0.3-0.5,0.1-1.1-0.3-1.4
			c-0.1-0.1-0.3-0.1-0.4-0.1c-1.5-0.2-3.8-0.8-4.7-2.9c-0.2-0.5,0-1.1,0.5-1.3c0.1-0.1,0.3-0.1,0.5-0.1l5.5-0.2c0.6,0,1-0.4,1.1-0.9
			c0-0.1,0-0.3-0.1-0.4c-0.3-1.1-0.8-2.8-1.1-3.9c-0.1-0.4,0-0.9,0.4-1.1c1.8-1.2,2.9-2.5,3.2-4.1c1-5.7-5.2-1.7-6.1-4
			c-1.6-4.2,0.1-8.9-2.1-16.4c-2.8-9.4-15-19.1-33.8-13.7c-21.4,6.2-24.4,28-17.3,41.1c6.8,12.4,15.1,12.8,14.5,17.7s-0.3,6-0.3,6"
			/>
		<circle class="st1" cx="172.7" cy="55.3" r="2.8"/>
		<rect x="0.2" y="0.2" class="st2" width="306" height="198"/>
		<g class="st3">
			<path class="st4" d="M39,119.1V111c0-0.1,0-0.1,0.1-0.1h0.6c0.1,0,0.1,0,0.1,0.1v7.5c0,0,0,0,0,0h3.5c0.1,0,0.1,0,0.1,0.1v0.5
				c0,0.1,0,0.1-0.1,0.1h-4.3C39.1,119.2,39,119.2,39,119.1z"/>
			<path class="st4" d="M45.3,118.9c-0.4-0.3-0.6-0.7-0.7-1.3c0-0.4-0.1-0.9-0.1-1.4s0-1,0.1-1.4c0.1-0.5,0.3-1,0.7-1.3
				c0.4-0.3,0.9-0.5,1.4-0.5s1.1,0.2,1.4,0.5c0.4,0.3,0.6,0.7,0.7,1.3c0,0.3,0.1,0.8,0.1,1.4c0,0.6,0,1.1-0.1,1.4
				c-0.1,0.5-0.3,1-0.7,1.3c-0.4,0.3-0.9,0.5-1.4,0.5S45.6,119.2,45.3,118.9z M47.6,118.3c0.2-0.2,0.4-0.5,0.4-0.8
				c0-0.3,0-0.7,0-1.2c0-0.5,0-0.9,0-1.2c0-0.4-0.2-0.6-0.4-0.8c-0.2-0.2-0.5-0.3-0.9-0.3s-0.6,0.1-0.9,0.3
				c-0.2,0.2-0.4,0.5-0.4,0.8c0,0.3,0,0.7,0,1.2s0,0.9,0,1.2c0,0.4,0.2,0.6,0.4,0.8c0.2,0.2,0.5,0.3,0.9,0.3
				C47,118.6,47.3,118.5,47.6,118.3z"/>
			<path class="st4" d="M50.7,118.9c-0.4-0.3-0.6-0.7-0.6-1.1v-0.1c0-0.1,0-0.1,0.1-0.1h0.6c0.1,0,0.1,0,0.1,0.1v0.1
				c0,0.3,0.1,0.5,0.3,0.7c0.2,0.2,0.5,0.3,0.9,0.3c0.4,0,0.6-0.1,0.9-0.3c0.2-0.2,0.3-0.4,0.3-0.7c0-0.2-0.1-0.4-0.2-0.5
				c-0.1-0.1-0.3-0.2-0.4-0.3c-0.2-0.1-0.4-0.2-0.7-0.3c-0.4-0.1-0.7-0.3-0.9-0.4c-0.2-0.1-0.5-0.3-0.6-0.5
				c-0.2-0.2-0.3-0.5-0.3-0.9c0-0.5,0.2-0.9,0.5-1.2c0.4-0.3,0.8-0.5,1.4-0.5c0.6,0,1.1,0.2,1.5,0.5c0.4,0.3,0.5,0.7,0.5,1.2v0
				c0,0.1,0,0.1-0.1,0.1h-0.6c-0.1,0-0.1,0-0.1-0.1v0c0-0.3-0.1-0.5-0.3-0.7c-0.2-0.2-0.5-0.3-0.9-0.3c-0.3,0-0.6,0.1-0.8,0.3
				s-0.3,0.4-0.3,0.7c0,0.3,0.1,0.5,0.3,0.6s0.5,0.3,1,0.5c0.4,0.1,0.7,0.3,1,0.4s0.5,0.3,0.7,0.5c0.2,0.2,0.3,0.5,0.3,0.9
				c0,0.5-0.2,0.9-0.6,1.2c-0.4,0.3-0.9,0.5-1.5,0.5S51.1,119.2,50.7,118.9z"/>
			<path class="st4" d="M61.6,113.6c0.3,0.4,0.5,0.8,0.5,1.5v4c0,0.1,0,0.1-0.1,0.1h-0.6c-0.1,0-0.1,0-0.1-0.1v-3.9
				c0-0.4-0.1-0.7-0.3-1c-0.2-0.2-0.5-0.4-0.9-0.4s-0.7,0.1-0.9,0.4s-0.3,0.6-0.3,1v3.9c0,0.1,0,0.1-0.1,0.1h-0.6
				c-0.1,0-0.1,0-0.1-0.1V111c0-0.1,0-0.1,0.1-0.1h0.6c0.1,0,0.1,0,0.1,0.1v2.8c0,0,0,0,0,0c0,0,0,0,0,0c0.3-0.5,0.8-0.7,1.4-0.7
				C60.9,113.1,61.3,113.3,61.6,113.6z"/>
			<path class="st4" d="M67.1,113.2h0.6c0.1,0,0.1,0,0.1,0.1v5.8c0,0.1,0,0.1-0.1,0.1h-0.6c-0.1,0-0.1,0-0.1-0.1v-0.5c0,0,0,0,0,0
				c0,0,0,0,0,0c-0.3,0.5-0.7,0.7-1.4,0.7c-0.5,0-1-0.2-1.3-0.5c-0.3-0.3-0.5-0.8-0.5-1.4v-4.2c0-0.1,0-0.1,0.1-0.1h0.6
				c0.1,0,0.1,0,0.1,0.1v3.9c0,0.4,0.1,0.8,0.3,1c0.2,0.2,0.5,0.4,0.9,0.4c0.4,0,0.7-0.1,0.9-0.4s0.3-0.6,0.3-1v-3.9
				C67,113.2,67,113.2,67.1,113.2z"/>
			<path class="st4" d="M76.3,113.6c0.3,0.4,0.5,0.8,0.5,1.5v4c0,0.1,0,0.1-0.1,0.1H76c-0.1,0-0.1,0-0.1-0.1v-3.9
				c0-0.4-0.1-0.8-0.3-1s-0.5-0.4-0.8-0.4c-0.4,0-0.6,0.1-0.9,0.4s-0.3,0.6-0.3,1v3.9c0,0.1,0,0.1-0.1,0.1h-0.6
				c-0.1,0-0.1,0-0.1-0.1v-3.9c0-0.4-0.1-0.8-0.3-1s-0.5-0.4-0.8-0.4c-0.4,0-0.6,0.1-0.9,0.4c-0.2,0.2-0.3,0.6-0.3,1v3.9
				c0,0.1,0,0.1-0.1,0.1h-0.6c-0.1,0-0.1,0-0.1-0.1v-5.8c0-0.1,0-0.1,0.1-0.1h0.6c0.1,0,0.1,0,0.1,0.1v0.4c0,0,0,0,0,0c0,0,0,0,0,0
				c0.2-0.2,0.4-0.4,0.6-0.5c0.2-0.1,0.5-0.2,0.8-0.2c0.4,0,0.7,0.1,0.9,0.2s0.5,0.4,0.6,0.7c0,0,0,0,0.1,0c0.2-0.3,0.4-0.5,0.7-0.7
				c0.3-0.1,0.6-0.2,0.9-0.2C75.5,113.1,76,113.3,76.3,113.6z"/>
			<path class="st4" d="M81.8,113.6c0.4,0.4,0.5,0.9,0.5,1.5v4c0,0.1,0,0.1-0.1,0.1h-0.6c-0.1,0-0.1,0-0.1-0.1v-0.4c0,0,0,0,0,0
				c0,0,0,0,0,0c-0.2,0.2-0.4,0.4-0.7,0.5c-0.3,0.1-0.6,0.2-0.9,0.2c-0.5,0-0.9-0.1-1.3-0.4c-0.4-0.3-0.5-0.7-0.5-1.3
				c0-0.6,0.2-1.1,0.6-1.5s1-0.5,1.7-0.5h1.1c0,0,0,0,0,0v-0.5c0-0.4-0.1-0.7-0.3-1c-0.2-0.2-0.5-0.4-0.9-0.4
				c-0.3,0-0.6,0.1-0.8,0.2c-0.2,0.2-0.3,0.4-0.4,0.6c0,0.1-0.1,0.1-0.1,0.1l-0.7,0c0,0-0.1,0-0.1,0c0,0,0-0.1,0-0.1
				c0.1-0.5,0.3-0.8,0.7-1.1c0.4-0.3,0.9-0.4,1.4-0.4C80.9,113.1,81.4,113.3,81.8,113.6z M81,118.3c0.3-0.2,0.4-0.5,0.4-0.9v-1
				c0,0,0,0,0,0h-1.1c-0.5,0-0.8,0.1-1.1,0.3s-0.4,0.5-0.4,0.9c0,0.4,0.1,0.6,0.3,0.8c0.2,0.2,0.5,0.3,0.8,0.3
				C80.4,118.6,80.8,118.5,81,118.3z"/>
		</g>
		<g class="st3">
			<path class="st4" d="M87.6,113.6c0.3,0.4,0.5,0.8,0.5,1.5v4c0,0.1,0,0.1-0.1,0.1h-0.6c-0.1,0-0.1,0-0.1-0.1v-3.9
				c0-0.4-0.1-0.7-0.3-1c-0.2-0.2-0.5-0.4-0.9-0.4s-0.7,0.1-0.9,0.4s-0.3,0.6-0.3,1v3.9c0,0.1,0,0.1-0.1,0.1H84
				c-0.1,0-0.1,0-0.1-0.1v-5.8c0-0.1,0-0.1,0.1-0.1h0.6c0.1,0,0.1,0,0.1,0.1v0.5c0,0,0,0,0,0c0,0,0,0,0,0c0.3-0.5,0.8-0.7,1.4-0.7
				C86.8,113.1,87.2,113.3,87.6,113.6z"/>
		</g>
		<g class="st3">
			<path class="st4" d="M90.2,118.9c-0.4-0.3-0.6-0.7-0.7-1.3c0-0.4-0.1-0.9-0.1-1.4s0-1,0.1-1.4c0.1-0.5,0.3-1,0.7-1.3
				c0.4-0.3,0.9-0.5,1.4-0.5s1.1,0.2,1.4,0.5c0.4,0.3,0.6,0.7,0.7,1.3c0,0.3,0.1,0.8,0.1,1.4c0,0.6,0,1.1-0.1,1.4
				c-0.1,0.5-0.3,1-0.7,1.3c-0.4,0.3-0.9,0.5-1.4,0.5S90.6,119.2,90.2,118.9z M92.5,118.3c0.2-0.2,0.4-0.5,0.4-0.8
				c0-0.3,0-0.7,0-1.2c0-0.5,0-0.9,0-1.2c0-0.4-0.2-0.6-0.4-0.8c-0.2-0.2-0.5-0.3-0.9-0.3s-0.6,0.1-0.9,0.3
				c-0.2,0.2-0.4,0.5-0.4,0.8c0,0.3,0,0.7,0,1.2s0,0.9,0,1.2c0,0.4,0.2,0.6,0.4,0.8c0.2,0.2,0.5,0.3,0.9,0.3
				C92,118.6,92.3,118.5,92.5,118.3z"/>
			<path class="st4" d="M95.7,118.9c-0.4-0.3-0.6-0.7-0.6-1.1v-0.1c0-0.1,0-0.1,0.1-0.1h0.6c0.1,0,0.1,0,0.1,0.1v0.1
				c0,0.3,0.1,0.5,0.3,0.7c0.2,0.2,0.5,0.3,0.9,0.3c0.4,0,0.6-0.1,0.9-0.3c0.2-0.2,0.3-0.4,0.3-0.7c0-0.2-0.1-0.4-0.2-0.5
				c-0.1-0.1-0.3-0.2-0.4-0.3c-0.2-0.1-0.4-0.2-0.7-0.3c-0.4-0.1-0.7-0.3-0.9-0.4c-0.2-0.1-0.5-0.3-0.6-0.5
				c-0.2-0.2-0.3-0.5-0.3-0.9c0-0.5,0.2-0.9,0.5-1.2c0.4-0.3,0.8-0.5,1.4-0.5c0.6,0,1.1,0.2,1.5,0.5c0.4,0.3,0.5,0.7,0.5,1.2v0
				c0,0.1,0,0.1-0.1,0.1h-0.6c-0.1,0-0.1,0-0.1-0.1v0c0-0.3-0.1-0.5-0.3-0.7c-0.2-0.2-0.5-0.3-0.9-0.3c-0.3,0-0.6,0.1-0.8,0.3
				s-0.3,0.4-0.3,0.7c0,0.3,0.1,0.5,0.3,0.6s0.5,0.3,1,0.5c0.4,0.1,0.7,0.3,1,0.4s0.5,0.3,0.7,0.5c0.2,0.2,0.3,0.5,0.3,0.9
				c0,0.5-0.2,0.9-0.6,1.2c-0.4,0.3-0.9,0.5-1.5,0.5S96.1,119.2,95.7,118.9z"/>
		</g>
		<g class="st3">
			<path class="st4" d="M106.6,113.6c0.3,0.4,0.5,0.8,0.5,1.5v4c0,0.1,0,0.1-0.1,0.1h-0.6c-0.1,0-0.1,0-0.1-0.1v-3.9
				c0-0.4-0.1-0.7-0.3-1c-0.2-0.2-0.5-0.4-0.9-0.4s-0.7,0.1-0.9,0.4s-0.3,0.6-0.3,1v3.9c0,0.1,0,0.1-0.1,0.1H103
				c-0.1,0-0.1,0-0.1-0.1v-5.8c0-0.1,0-0.1,0.1-0.1h0.6c0.1,0,0.1,0,0.1,0.1v0.5c0,0,0,0,0,0c0,0,0,0,0,0c0.3-0.5,0.8-0.7,1.4-0.7
				C105.8,113.1,106.3,113.3,106.6,113.6z"/>
		</g>
		<g class="st3">
			<path class="st4" d="M109.2,118.9c-0.4-0.3-0.6-0.7-0.7-1.3c0-0.4-0.1-0.9-0.1-1.4s0-1,0.1-1.4c0.1-0.5,0.3-1,0.7-1.3
				c0.4-0.3,0.9-0.5,1.4-0.5s1.1,0.2,1.4,0.5c0.4,0.3,0.6,0.7,0.7,1.3c0,0.3,0.1,0.8,0.1,1.4c0,0.6,0,1.1-0.1,1.4
				c-0.1,0.5-0.3,1-0.7,1.3c-0.4,0.3-0.9,0.5-1.4,0.5S109.6,119.2,109.2,118.9z M111.6,118.3c0.2-0.2,0.4-0.5,0.4-0.8
				c0-0.3,0-0.7,0-1.2c0-0.5,0-0.9,0-1.2c0-0.4-0.2-0.6-0.4-0.8c-0.2-0.2-0.5-0.3-0.9-0.3s-0.6,0.1-0.9,0.3
				c-0.2,0.2-0.4,0.5-0.4,0.8c0,0.3,0,0.7,0,1.2s0,0.9,0,1.2c0,0.4,0.2,0.6,0.4,0.8c0.2,0.2,0.5,0.3,0.9,0.3
				C111,118.6,111.3,118.5,111.6,118.3z"/>
			<path class="st4" d="M120.2,113.2h0.6c0.1,0,0.1,0,0.1,0.1v5.8c0,0.1,0,0.1-0.1,0.1h-0.6c-0.1,0-0.1,0-0.1-0.1v-0.5c0,0,0,0,0,0
				c0,0,0,0,0,0c-0.3,0.5-0.7,0.7-1.4,0.7c-0.5,0-1-0.2-1.3-0.5c-0.3-0.3-0.5-0.8-0.5-1.4v-4.2c0-0.1,0-0.1,0.1-0.1h0.6
				c0.1,0,0.1,0,0.1,0.1v3.9c0,0.4,0.1,0.8,0.3,1c0.2,0.2,0.5,0.4,0.9,0.4c0.4,0,0.7-0.1,0.9-0.4s0.3-0.6,0.3-1v-3.9
				C120,113.2,120.1,113.2,120.2,113.2z"/>
			<path class="st4" d="M122.9,118.9c-0.4-0.3-0.6-0.7-0.6-1.1v-0.1c0-0.1,0-0.1,0.1-0.1h0.6c0.1,0,0.1,0,0.1,0.1v0.1
				c0,0.3,0.1,0.5,0.3,0.7c0.2,0.2,0.5,0.3,0.9,0.3c0.4,0,0.6-0.1,0.9-0.3c0.2-0.2,0.3-0.4,0.3-0.7c0-0.2-0.1-0.4-0.2-0.5
				c-0.1-0.1-0.3-0.2-0.4-0.3c-0.2-0.1-0.4-0.2-0.7-0.3c-0.4-0.1-0.7-0.3-0.9-0.4c-0.2-0.1-0.5-0.3-0.6-0.5
				c-0.2-0.2-0.3-0.5-0.3-0.9c0-0.5,0.2-0.9,0.5-1.2c0.4-0.3,0.8-0.5,1.4-0.5c0.6,0,1.1,0.2,1.5,0.5c0.4,0.3,0.5,0.7,0.5,1.2v0
				c0,0.1,0,0.1-0.1,0.1h-0.6c-0.1,0-0.1,0-0.1-0.1v0c0-0.3-0.1-0.5-0.3-0.7c-0.2-0.2-0.5-0.3-0.9-0.3c-0.3,0-0.6,0.1-0.8,0.3
				s-0.3,0.4-0.3,0.7c0,0.3,0.1,0.5,0.3,0.6s0.5,0.3,1,0.5c0.4,0.1,0.7,0.3,1,0.4s0.5,0.3,0.7,0.5c0.2,0.2,0.3,0.5,0.3,0.9
				c0,0.5-0.2,0.9-0.6,1.2c-0.4,0.3-0.9,0.5-1.5,0.5S123.2,119.2,122.9,118.9z"/>
			<path class="st4" d="M131.2,113.6c0.4,0.4,0.5,0.9,0.5,1.5v4c0,0.1,0,0.1-0.1,0.1H131c-0.1,0-0.1,0-0.1-0.1v-0.4c0,0,0,0,0,0
				c0,0,0,0,0,0c-0.2,0.2-0.4,0.4-0.7,0.5c-0.3,0.1-0.6,0.2-0.9,0.2c-0.5,0-0.9-0.1-1.3-0.4c-0.4-0.3-0.5-0.7-0.5-1.3
				c0-0.6,0.2-1.1,0.6-1.5s1-0.5,1.7-0.5h1.1c0,0,0,0,0,0v-0.5c0-0.4-0.1-0.7-0.3-1c-0.2-0.2-0.5-0.4-0.9-0.4
				c-0.3,0-0.6,0.1-0.8,0.2c-0.2,0.2-0.3,0.4-0.4,0.6c0,0.1-0.1,0.1-0.1,0.1l-0.7,0c0,0-0.1,0-0.1,0c0,0,0-0.1,0-0.1
				c0.1-0.5,0.3-0.8,0.7-1.1c0.4-0.3,0.9-0.4,1.4-0.4C130.3,113.1,130.8,113.3,131.2,113.6z M130.4,118.3c0.3-0.2,0.4-0.5,0.4-0.9
				v-1c0,0,0,0,0,0h-1.1c-0.5,0-0.8,0.1-1.1,0.3s-0.4,0.5-0.4,0.9c0,0.4,0.1,0.6,0.3,0.8c0.2,0.2,0.5,0.3,0.8,0.3
				C129.8,118.6,130.1,118.5,130.4,118.3z"/>
			<path class="st4" d="M136.9,113.6c0.3,0.4,0.5,0.8,0.5,1.5v4c0,0.1,0,0.1-0.1,0.1h-0.6c-0.1,0-0.1,0-0.1-0.1v-3.9
				c0-0.4-0.1-0.7-0.3-1c-0.2-0.2-0.5-0.4-0.9-0.4s-0.7,0.1-0.9,0.4s-0.3,0.6-0.3,1v3.9c0,0.1,0,0.1-0.1,0.1h-0.6
				c-0.1,0-0.1,0-0.1-0.1v-5.8c0-0.1,0-0.1,0.1-0.1h0.6c0.1,0,0.1,0,0.1,0.1v0.5c0,0,0,0,0,0c0,0,0,0,0,0c0.3-0.5,0.8-0.7,1.4-0.7
				C136.2,113.1,136.6,113.3,136.9,113.6z"/>
			<path class="st4" d="M141.7,118.9c-0.4-0.3-0.6-0.7-0.6-1.1v-0.1c0-0.1,0-0.1,0.1-0.1h0.6c0.1,0,0.1,0,0.1,0.1v0.1
				c0,0.3,0.1,0.5,0.3,0.7c0.2,0.2,0.5,0.3,0.9,0.3c0.4,0,0.6-0.1,0.9-0.3c0.2-0.2,0.3-0.4,0.3-0.7c0-0.2-0.1-0.4-0.2-0.5
				c-0.1-0.1-0.3-0.2-0.4-0.3c-0.2-0.1-0.4-0.2-0.7-0.3c-0.4-0.1-0.7-0.3-0.9-0.4c-0.2-0.1-0.5-0.3-0.6-0.5
				c-0.2-0.2-0.3-0.5-0.3-0.9c0-0.5,0.2-0.9,0.5-1.2c0.4-0.3,0.8-0.5,1.4-0.5c0.6,0,1.1,0.2,1.5,0.5c0.4,0.3,0.5,0.7,0.5,1.2v0
				c0,0.1,0,0.1-0.1,0.1h-0.6c-0.1,0-0.1,0-0.1-0.1v0c0-0.3-0.1-0.5-0.3-0.7c-0.2-0.2-0.5-0.3-0.9-0.3c-0.3,0-0.6,0.1-0.8,0.3
				s-0.3,0.4-0.3,0.7c0,0.3,0.1,0.5,0.3,0.6s0.5,0.3,1,0.5c0.4,0.1,0.7,0.3,1,0.4s0.5,0.3,0.7,0.5c0.2,0.2,0.3,0.5,0.3,0.9
				c0,0.5-0.2,0.9-0.6,1.2c-0.4,0.3-0.9,0.5-1.5,0.5S142.1,119.2,141.7,118.9z"/>
			<path class="st4" d="M147.2,118.9c-0.4-0.3-0.6-0.7-0.7-1.3c0-0.4-0.1-0.9-0.1-1.4s0-1,0.1-1.4c0.1-0.5,0.3-1,0.7-1.3
				c0.4-0.3,0.9-0.5,1.4-0.5s1.1,0.2,1.4,0.5c0.4,0.3,0.6,0.7,0.7,1.3c0,0.3,0.1,0.8,0.1,1.4c0,0.6,0,1.1-0.1,1.4
				c-0.1,0.5-0.3,1-0.7,1.3c-0.4,0.3-0.9,0.5-1.4,0.5S147.5,119.2,147.2,118.9z M149.5,118.3c0.2-0.2,0.4-0.5,0.4-0.8
				c0-0.3,0-0.7,0-1.2c0-0.5,0-0.9,0-1.2c0-0.4-0.2-0.6-0.4-0.8c-0.2-0.2-0.5-0.3-0.9-0.3s-0.6,0.1-0.9,0.3
				c-0.2,0.2-0.4,0.5-0.4,0.8c0,0.3,0,0.7,0,1.2s0,0.9,0,1.2c0,0.4,0.2,0.6,0.4,0.8c0.2,0.2,0.5,0.3,0.9,0.3
				C149,118.6,149.2,118.5,149.5,118.3z"/>
			<path class="st4" d="M152.3,119.1V111c0-0.1,0-0.1,0.1-0.1h0.6c0.1,0,0.1,0,0.1,0.1v8.2c0,0.1,0,0.1-0.1,0.1h-0.6
				C152.3,119.2,152.3,119.2,152.3,119.1z"/>
			<path class="st4" d="M155.4,118.9c-0.4-0.3-0.6-0.7-0.7-1.3c0-0.4-0.1-0.9-0.1-1.4s0-1,0.1-1.4c0.1-0.5,0.3-1,0.7-1.3
				c0.4-0.3,0.9-0.5,1.4-0.5s1.1,0.2,1.4,0.5c0.4,0.3,0.6,0.7,0.7,1.3c0,0.3,0.1,0.8,0.1,1.4c0,0.6,0,1.1-0.1,1.4
				c-0.1,0.5-0.3,1-0.7,1.3s-0.9,0.5-1.4,0.5S155.8,119.2,155.4,118.9z M157.7,118.3c0.2-0.2,0.4-0.5,0.4-0.8c0-0.3,0-0.7,0-1.2
				c0-0.5,0-0.9,0-1.2c0-0.4-0.2-0.6-0.4-0.8c-0.2-0.2-0.5-0.3-0.9-0.3c-0.4,0-0.6,0.1-0.9,0.3c-0.2,0.2-0.4,0.5-0.4,0.8
				c0,0.3,0,0.7,0,1.2s0,0.9,0,1.2c0,0.4,0.2,0.6,0.4,0.8s0.5,0.3,0.9,0.3C157.2,118.6,157.5,118.5,157.7,118.3z"/>
			<path class="st4" d="M165.8,118.4c0.2-0.2,0.4-0.4,0.5-0.6c0-0.1,0.1-0.1,0.1-0.1l0.6,0.1c0,0,0.1,0,0.1,0.1c0,0,0,0.1,0,0.1
				c-0.1,0.4-0.4,0.8-0.7,1.1c-0.4,0.3-0.8,0.4-1.3,0.4c-0.6,0-1.1-0.2-1.4-0.5c-0.4-0.3-0.6-0.7-0.7-1.3c0-0.2-0.1-0.4-0.1-0.7
				c0-0.3,0-0.5,0-0.7s0-0.3,0-0.4c0-0.4,0-0.7,0-1c0.1-0.5,0.3-1,0.7-1.3s0.9-0.5,1.4-0.5c0.6,0,1.1,0.2,1.5,0.5
				c0.4,0.4,0.6,0.8,0.6,1.4c0,0.3,0,0.7,0,1.5c0,0.1,0,0.1-0.1,0.1h-3.3c0,0,0,0,0,0c0,0.2,0,0.5,0,0.8c0,0.3,0.2,0.6,0.4,0.8
				c0.2,0.2,0.5,0.3,0.9,0.3C165.3,118.6,165.6,118.5,165.8,118.4z M164.1,114.1c-0.2,0.2-0.4,0.5-0.4,0.8c0,0.3,0,0.6,0,0.8
				c0,0,0,0,0,0h2.5c0,0,0,0,0,0c0-0.2,0-0.5,0-0.8c0-0.3-0.2-0.6-0.4-0.8c-0.2-0.2-0.5-0.3-0.9-0.3
				C164.6,113.8,164.3,113.9,164.1,114.1z"/>
			<path class="st4" d="M168.6,119.1V111c0-0.1,0-0.1,0.1-0.1h0.6c0.1,0,0.1,0,0.1,0.1v8.2c0,0.1,0,0.1-0.1,0.1h-0.6
				C168.6,119.2,168.6,119.2,168.6,119.1z"/>
			<path class="st4" d="M174.6,110.8h0.6c0.1,0,0.1,0,0.1,0.1v8.2c0,0.1,0,0.1-0.1,0.1h-0.6c-0.1,0-0.1,0-0.1-0.1v-7.3c0,0,0,0,0,0
				c0,0,0,0,0,0l-1.2,0.4c0,0,0,0-0.1,0c0,0-0.1,0-0.1-0.1l-0.1-0.4v0c0,0,0-0.1,0.1-0.1l1.3-0.7
				C174.5,110.9,174.5,110.8,174.6,110.8z"/>
			<path class="st4" d="M177.6,118.7c-0.4-0.4-0.6-1-0.6-1.7V113c0-0.7,0.2-1.2,0.6-1.7s1-0.6,1.7-0.6c0.7,0,1.3,0.2,1.7,0.6
				s0.6,1,0.6,1.7v4.1c0,0.7-0.2,1.3-0.6,1.7s-1,0.6-1.7,0.6C178.6,119.4,178,119.2,177.6,118.7z M180.3,118.2
				c0.3-0.3,0.4-0.6,0.4-1.1V113c0-0.4-0.1-0.8-0.4-1.1c-0.3-0.3-0.6-0.4-1.1-0.4c-0.4,0-0.8,0.1-1,0.4c-0.3,0.3-0.4,0.6-0.4,1.1
				v4.2c0,0.4,0.1,0.8,0.4,1.1c0.3,0.3,0.6,0.4,1,0.4C179.7,118.6,180.1,118.5,180.3,118.2z"/>
			<path class="st4" d="M184.2,113.9c-0.3-0.2-0.5-0.4-0.6-0.6c-0.2-0.3-0.2-0.5-0.2-0.9c0-0.3,0.1-0.6,0.2-0.9
				c0.2-0.3,0.4-0.5,0.6-0.6c0.3-0.2,0.5-0.2,0.9-0.2c0.3,0,0.6,0.1,0.8,0.2c0.3,0.2,0.5,0.4,0.6,0.6s0.2,0.5,0.2,0.9
				c0,0.3-0.1,0.6-0.2,0.9c-0.2,0.3-0.4,0.5-0.6,0.6c-0.3,0.2-0.5,0.2-0.8,0.2C184.7,114.2,184.4,114.1,184.2,113.9z M185.8,113.3
				c0.2-0.2,0.3-0.5,0.3-0.8s-0.1-0.6-0.3-0.8c-0.2-0.2-0.5-0.3-0.8-0.3s-0.6,0.1-0.8,0.3c-0.2,0.2-0.3,0.5-0.3,0.8s0.1,0.6,0.3,0.8
				c0.2,0.2,0.5,0.3,0.8,0.3S185.6,113.5,185.8,113.3z M184.7,119.2c0,0,0-0.1,0-0.1l4.5-8.2c0-0.1,0.1-0.1,0.1-0.1h0.4
				c0,0,0.1,0,0.1,0c0,0,0,0.1,0,0.1l-4.5,8.2c0,0.1-0.1,0.1-0.1,0.1L184.7,119.2C184.7,119.2,184.7,119.2,184.7,119.2z
				 M188.6,119.1c-0.3-0.2-0.5-0.4-0.6-0.6c-0.2-0.3-0.2-0.6-0.2-0.9c0-0.3,0.1-0.6,0.2-0.8c0.2-0.3,0.4-0.5,0.6-0.6
				c0.3-0.2,0.5-0.2,0.9-0.2c0.3,0,0.6,0.1,0.8,0.2c0.3,0.2,0.5,0.4,0.6,0.6c0.2,0.3,0.2,0.5,0.2,0.8c0,0.3-0.1,0.6-0.2,0.9
				c-0.2,0.3-0.4,0.5-0.6,0.6c-0.3,0.2-0.5,0.2-0.8,0.2C189.1,119.4,188.8,119.3,188.6,119.1z M190.2,118.5c0.2-0.2,0.3-0.5,0.3-0.8
				c0-0.3-0.1-0.6-0.3-0.8c-0.2-0.2-0.5-0.3-0.8-0.3c-0.3,0-0.6,0.1-0.8,0.3c-0.2,0.2-0.3,0.5-0.3,0.8c0,0.3,0.1,0.6,0.3,0.8
				c0.2,0.2,0.5,0.3,0.8,0.3C189.7,118.8,190,118.7,190.2,118.5z"/>
			<path class="st4" d="M198.7,110.8h0.6c0.1,0,0.1,0,0.1,0.1v8.2c0,0.1,0,0.1-0.1,0.1h-0.6c-0.1,0-0.1,0-0.1-0.1v-0.5c0,0,0,0,0,0
				c0,0,0,0,0,0c-0.3,0.5-0.8,0.7-1.4,0.7c-0.5,0-0.9-0.1-1.2-0.4c-0.3-0.3-0.5-0.7-0.7-1.3c-0.1-0.4-0.2-0.9-0.2-1.4
				c0-0.6,0-1,0.1-1.4c0.1-0.6,0.3-1,0.7-1.3c0.3-0.3,0.8-0.4,1.3-0.4c0.3,0,0.6,0.1,0.8,0.2c0.2,0.1,0.4,0.3,0.5,0.5c0,0,0,0,0,0
				c0,0,0,0,0,0V111C198.6,110.9,198.7,110.8,198.7,110.8z M198.6,116.2c0-0.7-0.1-1.2-0.2-1.5c-0.1-0.3-0.2-0.5-0.4-0.6
				s-0.4-0.2-0.7-0.2c-0.5,0-0.9,0.3-1.1,0.8c-0.2,0.4-0.2,0.9-0.2,1.6c0,0.6,0.1,1.1,0.2,1.5c0.1,0.3,0.2,0.5,0.4,0.7
				c0.2,0.2,0.4,0.2,0.7,0.2c0.3,0,0.5-0.1,0.7-0.2c0.2-0.2,0.3-0.4,0.4-0.7C198.5,117.4,198.6,116.9,198.6,116.2z"/>
			<path class="st4" d="M204,118.4c0.2-0.2,0.4-0.4,0.5-0.6c0-0.1,0.1-0.1,0.1-0.1l0.6,0.1c0,0,0.1,0,0.1,0.1c0,0,0,0.1,0,0.1
				c-0.1,0.4-0.4,0.8-0.7,1.1c-0.4,0.3-0.8,0.4-1.3,0.4c-0.6,0-1.1-0.2-1.4-0.5c-0.4-0.3-0.6-0.7-0.7-1.3c0-0.2-0.1-0.4-0.1-0.7
				c0-0.3,0-0.5,0-0.7s0-0.3,0-0.4c0-0.4,0-0.7,0-1c0.1-0.5,0.3-1,0.7-1.3c0.4-0.3,0.9-0.5,1.4-0.5c0.6,0,1.1,0.2,1.5,0.5
				c0.4,0.4,0.6,0.8,0.6,1.4c0,0.3,0,0.7,0,1.5c0,0.1,0,0.1-0.1,0.1h-3.3c0,0,0,0,0,0c0,0.2,0,0.5,0,0.8c0,0.3,0.2,0.6,0.4,0.8
				c0.2,0.2,0.5,0.3,0.9,0.3C203.5,118.6,203.8,118.5,204,118.4z M202.3,114.1c-0.2,0.2-0.4,0.5-0.4,0.8c0,0.3,0,0.6,0,0.8
				c0,0,0,0,0,0h2.5c0,0,0,0,0,0c0-0.2,0-0.5,0-0.8c0-0.3-0.2-0.6-0.4-0.8c-0.2-0.2-0.5-0.3-0.9-0.3
				C202.8,113.8,202.5,113.9,202.3,114.1z"/>
			<path class="st4" d="M209.5,118.9c-0.4-0.3-0.6-0.7-0.6-1.1v-0.1c0-0.1,0-0.1,0.1-0.1h0.6c0.1,0,0.1,0,0.1,0.1v0.1
				c0,0.3,0.1,0.5,0.3,0.7c0.2,0.2,0.5,0.3,0.9,0.3c0.4,0,0.6-0.1,0.9-0.3c0.2-0.2,0.3-0.4,0.3-0.7c0-0.2-0.1-0.4-0.2-0.5
				c-0.1-0.1-0.3-0.2-0.4-0.3c-0.2-0.1-0.4-0.2-0.7-0.3c-0.4-0.1-0.7-0.3-0.9-0.4c-0.2-0.1-0.5-0.3-0.6-0.5
				c-0.2-0.2-0.3-0.5-0.3-0.9c0-0.5,0.2-0.9,0.5-1.2c0.4-0.3,0.8-0.5,1.4-0.5c0.6,0,1.1,0.2,1.5,0.5c0.4,0.3,0.5,0.7,0.5,1.2v0
				c0,0.1,0,0.1-0.1,0.1h-0.6c-0.1,0-0.1,0-0.1-0.1v0c0-0.3-0.1-0.5-0.3-0.7c-0.2-0.2-0.5-0.3-0.9-0.3c-0.3,0-0.6,0.1-0.8,0.3
				s-0.3,0.4-0.3,0.7c0,0.3,0.1,0.5,0.3,0.6s0.5,0.3,1,0.5c0.4,0.1,0.7,0.3,1,0.4s0.5,0.3,0.7,0.5c0.2,0.2,0.3,0.5,0.3,0.9
				c0,0.5-0.2,0.9-0.6,1.2c-0.4,0.3-0.9,0.5-1.5,0.5S209.9,119.2,209.5,118.9z"/>
			<path class="st4" d="M217.7,113.2h0.6c0.1,0,0.1,0,0.1,0.1v5.8c0,0.1,0,0.1-0.1,0.1h-0.6c-0.1,0-0.1,0-0.1-0.1v-0.5c0,0,0,0,0,0
				s0,0,0,0c-0.3,0.5-0.7,0.7-1.4,0.7c-0.5,0-1-0.2-1.3-0.5c-0.3-0.3-0.5-0.8-0.5-1.4v-4.2c0-0.1,0-0.1,0.1-0.1h0.6
				c0.1,0,0.1,0,0.1,0.1v3.9c0,0.4,0.1,0.8,0.3,1c0.2,0.2,0.5,0.4,0.9,0.4c0.4,0,0.7-0.1,0.9-0.4c0.2-0.3,0.3-0.6,0.3-1v-3.9
				C217.5,113.2,217.6,113.2,217.7,113.2z"/>
			<path class="st4" d="M220.4,118.9c-0.4-0.3-0.6-0.7-0.6-1.1v-0.1c0-0.1,0-0.1,0.1-0.1h0.6c0.1,0,0.1,0,0.1,0.1v0.1
				c0,0.3,0.1,0.5,0.3,0.7c0.2,0.2,0.5,0.3,0.9,0.3c0.4,0,0.6-0.1,0.9-0.3c0.2-0.2,0.3-0.4,0.3-0.7c0-0.2-0.1-0.4-0.2-0.5
				c-0.1-0.1-0.3-0.2-0.4-0.3c-0.2-0.1-0.4-0.2-0.7-0.3c-0.4-0.1-0.7-0.3-0.9-0.4s-0.5-0.3-0.6-0.5c-0.2-0.2-0.3-0.5-0.3-0.9
				c0-0.5,0.2-0.9,0.5-1.2c0.4-0.3,0.8-0.5,1.4-0.5c0.6,0,1.1,0.2,1.5,0.5c0.4,0.3,0.5,0.7,0.5,1.2v0c0,0.1,0,0.1-0.1,0.1h-0.6
				c-0.1,0-0.1,0-0.1-0.1v0c0-0.3-0.1-0.5-0.3-0.7s-0.5-0.3-0.9-0.3c-0.3,0-0.6,0.1-0.8,0.3s-0.3,0.4-0.3,0.7c0,0.3,0.1,0.5,0.3,0.6
				s0.5,0.3,1,0.5c0.4,0.1,0.7,0.3,1,0.4s0.5,0.3,0.7,0.5c0.2,0.2,0.3,0.5,0.3,0.9c0,0.5-0.2,0.9-0.6,1.2c-0.4,0.3-0.9,0.5-1.5,0.5
				S220.8,119.2,220.4,118.9z"/>
		</g>
		<g class="st3">
			<path class="st4" d="M228.2,118.9c-0.4-0.3-0.6-0.7-0.7-1.3c0-0.4-0.1-0.9-0.1-1.4c0-0.4,0-0.9,0.1-1.4c0.1-0.5,0.3-0.9,0.7-1.3
				c0.4-0.3,0.9-0.5,1.4-0.5c0.6,0,1,0.2,1.4,0.5c0.4,0.3,0.6,0.7,0.7,1.1l0,0.3v0c0,0,0,0.1,0,0.1c0,0,0,0-0.1,0l-0.6,0
				c-0.1,0-0.1,0-0.1-0.1c0-0.1,0-0.1,0-0.1c0-0.3-0.2-0.5-0.4-0.7s-0.5-0.3-0.9-0.3c-0.4,0-0.6,0.1-0.9,0.3
				c-0.2,0.2-0.4,0.5-0.4,0.8s-0.1,0.8-0.1,1.2c0,0.5,0,0.9,0.1,1.2c0,0.4,0.2,0.6,0.4,0.8c0.2,0.2,0.5,0.3,0.9,0.3
				c0.4,0,0.6-0.1,0.9-0.3c0.2-0.2,0.4-0.4,0.4-0.7l0-0.1c0-0.1,0.1-0.1,0.1-0.1l0.6,0c0.1,0,0.1,0.1,0.1,0.1v0c0,0,0,0.1,0,0.1
				c-0.1,0.5-0.3,0.9-0.7,1.2c-0.4,0.3-0.9,0.5-1.4,0.5C229.1,119.3,228.6,119.2,228.2,118.9z"/>
		</g>
		<g class="st3">
			<path class="st4" d="M236,118.4c0.2-0.2,0.4-0.4,0.5-0.6c0-0.1,0.1-0.1,0.1-0.1l0.6,0.1c0,0,0.1,0,0.1,0.1c0,0,0,0.1,0,0.1
				c-0.1,0.4-0.4,0.8-0.7,1.1c-0.4,0.3-0.8,0.4-1.3,0.4c-0.6,0-1.1-0.2-1.4-0.5c-0.4-0.3-0.6-0.7-0.7-1.3c0-0.2-0.1-0.4-0.1-0.7
				c0-0.3,0-0.5,0-0.7s0-0.3,0-0.4c0-0.4,0-0.7,0-1c0.1-0.5,0.3-1,0.7-1.3c0.4-0.3,0.9-0.5,1.4-0.5c0.6,0,1.1,0.2,1.5,0.5
				c0.4,0.4,0.6,0.8,0.6,1.4c0,0.3,0,0.7,0,1.5c0,0.1,0,0.1-0.1,0.1h-3.3c0,0,0,0,0,0c0,0.2,0,0.5,0,0.8c0,0.3,0.2,0.6,0.4,0.8
				c0.2,0.2,0.5,0.3,0.9,0.3C235.5,118.6,235.7,118.5,236,118.4z M234.3,114.1c-0.2,0.2-0.4,0.5-0.4,0.8c0,0.3,0,0.6,0,0.8
				c0,0,0,0,0,0h2.5c0,0,0,0,0,0c0-0.2,0-0.5,0-0.8c0-0.3-0.2-0.6-0.4-0.8c-0.2-0.2-0.5-0.3-0.9-0.3
				C234.8,113.8,234.5,113.9,234.3,114.1z"/>
		</g>
		<g class="st3">
			<path class="st4" d="M241.6,113.3c0.1,0,0.1,0.1,0.1,0.1l-0.1,0.6c0,0.1-0.1,0.1-0.1,0.1c-0.1-0.1-0.3-0.1-0.4-0.1l-0.1,0
				c-0.4,0-0.6,0.2-0.9,0.5c-0.2,0.3-0.3,0.7-0.3,1.1v3.6c0,0.1,0,0.1-0.1,0.1h-0.6c-0.1,0-0.1,0-0.1-0.1v-5.8c0-0.1,0-0.1,0.1-0.1
				h0.6c0.1,0,0.1,0,0.1,0.1v0.8c0,0,0,0,0,0c0,0,0,0,0,0c0.1-0.3,0.3-0.5,0.5-0.7c0.2-0.2,0.5-0.3,0.8-0.3
				C241.3,113.1,241.5,113.2,241.6,113.3z"/>
		</g>
		<g class="st3">
			<path class="st4" d="M245.5,118.4c0.2-0.2,0.4-0.4,0.5-0.6c0-0.1,0.1-0.1,0.1-0.1l0.6,0.1c0,0,0.1,0,0.1,0.1c0,0,0,0.1,0,0.1
				c-0.1,0.4-0.4,0.8-0.7,1.1c-0.4,0.3-0.8,0.4-1.3,0.4c-0.6,0-1.1-0.2-1.4-0.5c-0.4-0.3-0.6-0.7-0.7-1.3c0-0.2-0.1-0.4-0.1-0.7
				c0-0.3,0-0.5,0-0.7s0-0.3,0-0.4c0-0.4,0-0.7,0-1c0.1-0.5,0.3-1,0.7-1.3c0.4-0.3,0.9-0.5,1.4-0.5c0.6,0,1.1,0.2,1.5,0.5
				c0.4,0.4,0.6,0.8,0.6,1.4c0,0.3,0,0.7,0,1.5c0,0.1,0,0.1-0.1,0.1h-3.3c0,0,0,0,0,0c0,0.2,0,0.5,0,0.8c0,0.3,0.2,0.6,0.4,0.8
				c0.2,0.2,0.5,0.3,0.9,0.3C245,118.6,245.3,118.5,245.5,118.4z M243.8,114.1c-0.2,0.2-0.4,0.5-0.4,0.8c0,0.3,0,0.6,0,0.8
				c0,0,0,0,0,0h2.5c0,0,0,0,0,0c0-0.2,0-0.5,0-0.8c0-0.3-0.2-0.6-0.4-0.8c-0.2-0.2-0.5-0.3-0.9-0.3
				C244.3,113.8,244,113.9,243.8,114.1z"/>
			<path class="st4" d="M252.6,116.3c0,0.5-0.1,1-0.2,1.4c-0.1,0.6-0.4,1-0.7,1.3c-0.3,0.3-0.7,0.4-1.2,0.4c-0.6,0-1.1-0.2-1.4-0.7
				c0,0,0,0,0,0c0,0,0,0,0,0v0.5c0,0.1,0,0.1-0.1,0.1h-0.6c-0.1,0-0.1,0-0.1-0.1V111c0-0.1,0-0.1,0.1-0.1h0.6c0.1,0,0.1,0,0.1,0.1
				v2.8c0,0,0,0,0,0c0,0,0,0,0,0c0.1-0.2,0.3-0.4,0.5-0.5c0.2-0.1,0.5-0.2,0.8-0.2c0.5,0,1,0.1,1.3,0.4c0.3,0.3,0.5,0.7,0.7,1.3
				C252.6,115.3,252.6,115.7,252.6,116.3z M251.8,116.2c0-0.6-0.1-1.2-0.2-1.6c-0.2-0.5-0.6-0.8-1.1-0.8c-0.3,0-0.5,0.1-0.6,0.2
				s-0.3,0.4-0.4,0.6c-0.1,0.4-0.2,0.9-0.2,1.5c0,0.6,0.1,1.2,0.2,1.5c0.1,0.3,0.2,0.5,0.4,0.7c0.2,0.2,0.4,0.2,0.7,0.2
				c0.3,0,0.5-0.1,0.7-0.2c0.2-0.2,0.3-0.4,0.4-0.7C251.7,117.4,251.8,116.9,251.8,116.2z"/>
		</g>
		<g class="st3">
			<path class="st4" d="M257,113.3c0.1,0,0.1,0.1,0.1,0.1l-0.1,0.6c0,0.1-0.1,0.1-0.1,0.1c-0.1-0.1-0.3-0.1-0.4-0.1l-0.1,0
				c-0.4,0-0.6,0.2-0.9,0.5c-0.2,0.3-0.3,0.7-0.3,1.1v3.6c0,0.1,0,0.1-0.1,0.1h-0.6c-0.1,0-0.1,0-0.1-0.1v-5.8c0-0.1,0-0.1,0.1-0.1
				h0.6c0.1,0,0.1,0,0.1,0.1v0.8c0,0,0,0,0,0s0,0,0,0c0.1-0.3,0.3-0.5,0.5-0.7c0.2-0.2,0.5-0.3,0.8-0.3
				C256.6,113.1,256.8,113.2,257,113.3z"/>
		</g>
		<g class="st3">
			<path class="st4" d="M258.6,118.9c-0.4-0.3-0.6-0.7-0.7-1.3c0-0.4-0.1-0.9-0.1-1.4s0-1,0.1-1.4c0.1-0.5,0.3-1,0.7-1.3
				c0.4-0.3,0.9-0.5,1.4-0.5s1.1,0.2,1.4,0.5c0.4,0.3,0.6,0.7,0.7,1.3c0,0.3,0.1,0.8,0.1,1.4c0,0.6,0,1.1-0.1,1.4
				c-0.1,0.5-0.3,1-0.7,1.3c-0.4,0.3-0.9,0.5-1.4,0.5S259,119.2,258.6,118.9z M260.9,118.3c0.2-0.2,0.4-0.5,0.4-0.8
				c0-0.3,0-0.7,0-1.2c0-0.5,0-0.9,0-1.2c0-0.4-0.2-0.6-0.4-0.8c-0.2-0.2-0.5-0.3-0.9-0.3c-0.4,0-0.6,0.1-0.9,0.3
				c-0.2,0.2-0.4,0.5-0.4,0.8c0,0.3,0,0.7,0,1.2s0,0.9,0,1.2c0,0.4,0.2,0.6,0.4,0.8c0.2,0.2,0.5,0.3,0.9,0.3
				C260.4,118.6,260.7,118.5,260.9,118.3z"/>
			<path class="st4" d="M264.1,118.9c-0.4-0.3-0.6-0.7-0.6-1.1v-0.1c0-0.1,0-0.1,0.1-0.1h0.6c0.1,0,0.1,0,0.1,0.1v0.1
				c0,0.3,0.1,0.5,0.3,0.7c0.2,0.2,0.5,0.3,0.9,0.3c0.4,0,0.6-0.1,0.9-0.3c0.2-0.2,0.3-0.4,0.3-0.7c0-0.2-0.1-0.4-0.2-0.5
				c-0.1-0.1-0.3-0.2-0.4-0.3c-0.2-0.1-0.4-0.2-0.7-0.3c-0.4-0.1-0.7-0.3-0.9-0.4s-0.5-0.3-0.6-0.5c-0.2-0.2-0.3-0.5-0.3-0.9
				c0-0.5,0.2-0.9,0.5-1.2c0.4-0.3,0.8-0.5,1.4-0.5c0.6,0,1.1,0.2,1.5,0.5c0.4,0.3,0.5,0.7,0.5,1.2v0c0,0.1,0,0.1-0.1,0.1h-0.6
				c-0.1,0-0.1,0-0.1-0.1v0c0-0.3-0.1-0.5-0.3-0.7s-0.5-0.3-0.9-0.3c-0.3,0-0.6,0.1-0.8,0.3s-0.3,0.4-0.3,0.7c0,0.3,0.1,0.5,0.3,0.6
				s0.5,0.3,1,0.5c0.4,0.1,0.7,0.3,1,0.4s0.5,0.3,0.7,0.5c0.2,0.2,0.3,0.5,0.3,0.9c0,0.5-0.2,0.9-0.6,1.2c-0.4,0.3-0.9,0.5-1.5,0.5
				S264.4,119.2,264.1,118.9z"/>
			<path class="st4" d="M269,119c-0.1-0.1-0.2-0.3-0.2-0.5c0-0.2,0.1-0.4,0.2-0.5s0.3-0.2,0.5-0.2c0.2,0,0.4,0.1,0.5,0.2
				s0.2,0.3,0.2,0.5c0,0.2-0.1,0.4-0.2,0.5s-0.3,0.2-0.5,0.2C269.2,119.2,269.1,119.2,269,119z"/>
		</g>
		<circle class="st0" cx="34.8" cy="34.8" r="13.3"/>
		<g class="st3">
			<path class="st5" d="M32.5,36.4c0,0.5-0.1,1-0.2,1.4c-0.2,0.5-0.6,0.9-1.1,1.2c-0.5,0.3-1,0.4-1.7,0.4c-0.7,0-1.2-0.2-1.7-0.5
				s-0.8-0.7-1.1-1.3c-0.2-0.4-0.2-0.8-0.2-1.3v-3.9c0-0.5,0.1-0.9,0.4-1.2c0.2-0.4,0.6-0.6,1-0.8c0.4-0.2,0.9-0.3,1.5-0.3
				c0.6,0,1.1,0.1,1.5,0.3c0.4,0.2,0.8,0.5,1,0.8c0.2,0.4,0.4,0.8,0.4,1.2v0.4c0,0,0,0.1,0,0.1c0,0-0.1,0-0.1,0h-1.5
				c0,0-0.1,0-0.1,0s0-0.1,0-0.1v-0.1c0-0.3-0.1-0.5-0.3-0.7s-0.4-0.3-0.7-0.3c-0.3,0-0.6,0.1-0.8,0.3c-0.2,0.2-0.3,0.4-0.3,0.7V34
				c0,0,0,0,0,0c0,0,0,0,0.1,0c0.4-0.3,0.8-0.5,1.4-0.5c0.5,0,1,0.1,1.4,0.4s0.7,0.6,1,1C32.4,35.3,32.5,35.8,32.5,36.4z M30.6,36.5
				c0-0.3-0.1-0.6-0.2-0.9c-0.2-0.3-0.5-0.5-0.9-0.5c-0.5,0-0.8,0.2-1,0.5c-0.1,0.2-0.2,0.5-0.2,0.9c0,0.3,0.1,0.6,0.2,0.8
				c0.2,0.4,0.5,0.6,1,0.6c0.5,0,0.8-0.2,1-0.6C30.6,37.1,30.6,36.8,30.6,36.5z"/>
			<path class="st5" d="M33.8,39.1c-0.2-0.2-0.3-0.4-0.3-0.7c0-0.3,0.1-0.6,0.3-0.7c0.2-0.2,0.4-0.3,0.7-0.3s0.6,0.1,0.7,0.3
				c0.2,0.2,0.3,0.4,0.3,0.7c0,0.3-0.1,0.5-0.3,0.7c-0.2,0.2-0.4,0.3-0.7,0.3S34,39.3,33.8,39.1z"/>
			<path class="st5" d="M39.4,37.8C39.4,37.8,39.4,37.8,39.4,37.8l3.6,0c0,0,0.1,0,0.1,0c0,0,0,0.1,0,0.1v1.3c0,0,0,0.1,0,0.1
				c0,0-0.1,0-0.1,0h-5.8c0,0-0.1,0-0.1,0c0,0,0-0.1,0-0.1V38c0-0.1,0-0.1,0.1-0.2c0.4-0.4,0.9-0.9,1.3-1.4c0.4-0.5,0.7-0.8,0.8-0.9
				c0.2-0.3,0.5-0.6,0.7-0.8c0.8-0.9,1.2-1.5,1.2-2c0-0.3-0.1-0.6-0.3-0.7c-0.2-0.2-0.5-0.3-0.8-0.3s-0.6,0.1-0.8,0.3
				c-0.2,0.2-0.3,0.5-0.3,0.8v0.3c0,0,0,0.1,0,0.1c0,0-0.1,0-0.1,0h-1.5c0,0-0.1,0-0.1,0c0,0,0-0.1,0-0.1v-0.6
				c0-0.5,0.2-0.9,0.4-1.2c0.3-0.4,0.6-0.6,1.1-0.8s0.9-0.3,1.5-0.3c0.6,0,1.2,0.1,1.6,0.3c0.5,0.2,0.8,0.5,1.1,0.9
				c0.2,0.4,0.4,0.8,0.4,1.3c0,0.4-0.1,0.7-0.3,1.1c-0.2,0.4-0.5,0.8-0.8,1.2c-0.3,0.3-0.6,0.7-0.9,1c-0.3,0.3-0.8,0.8-1.4,1.4
				L39.4,37.8C39.4,37.7,39.4,37.7,39.4,37.8z"/>
		</g>
		<circle class="st6" cx="138.9" cy="52.8" r="2.6"/>
		<circle class="st6" cx="133.7" cy="43.8" r="2.6"/>
		<circle class="st6" cx="150.9" cy="40.7" r="2.6"/>
		<circle class="st6" cx="151.4" cy="32.7" r="2.6"/>
		<circle class="st6" cx="140.5" cy="34.3" r="2.6"/>
		<circle class="st6" cx="143.1" cy="42.9" r="2.6"/>
		<circle class="st6" cx="154.4" cy="46.4" r="2.6"/>
		<circle class="st6" cx="161.1" cy="40.2" r="2.6"/>
		<circle class="st6" cx="147.1" cy="50.3" r="2.6"/>
		<line class="st7" x1="144.9" y1="46.2" x2="145.3" y2="46.9"/>
		<line class="st7" x1="157.8" y1="38" x2="154.7" y2="35"/>
		<line class="st7" x1="141.9" y1="39.1" x2="141.6" y2="38"/>
		<line class="st7" x1="137" y1="49.5" x2="135.6" y2="47.1"/>
		<line class="st7" x1="139.1" y1="43.2" x2="137.6" y2="43.5"/>
		<line class="st7" x1="146.9" y1="41.8" x2="147.1" y2="41.8"/>
		<line class="st7" x1="143.3" y1="51.5" x2="142.7" y2="51.7"/>
		<line class="st7" x1="150.6" y1="48.4" x2="151" y2="48.2"/>
		<line class="st8" x1="151.1" y1="36.9" x2="151.1" y2="36.9"/>
		<line class="st7" x1="147.5" y1="33.3" x2="144.4" y2="33.8"/>
		<line class="st7" x1="157.1" y1="43.7" x2="158.1" y2="42.8"/>
		<line class="st7" x1="135.9" y1="40.7" x2="138.2" y2="37.5"/>
		<line class="st7" x1="154.8" y1="40.5" x2="157.1" y2="40.4"/>
	</g>
</g>
</svg>
