<svg xmlns="http://www.w3.org/2000/svg" viewBox="0 0 307 199"><defs><style>.cls-1{fill:#e9e8f5;}.cls-2,.cls-7{fill:#3a4a9a;}.cls-2{opacity:0.8;}.cls-3,.cls-4{fill:#ea5297;}.cls-4{stroke:#ea5297;stroke-linecap:round;stroke-width:1.5px;}.cls-4,.cls-5{stroke-miterlimit:10;}.cls-5{fill:none;stroke:#00b6ed;}.cls-6{fill:#1d1d1b;}</style></defs><title>06-4</title><g id="Capa_2" data-name="Capa 2"><g id="Capa_1-2" data-name="Capa 1"><path class="cls-1" d="M223.17,44.13a4.45,4.45,0,0,0-1.83-8.46h-.17a3.37,3.37,0,0,0-1.9-6.15h-.09a1.75,1.75,0,0,0-.4,0,3.13,3.13,0,0,0-.44.1,3.5,3.5,0,0,0-2.57-5.87,3.48,3.48,0,0,0-2,.63,5.76,5.76,0,0,0,.24-1.67,6.06,6.06,0,0,0-9.91-4.67,4.73,4.73,0,0,0-8.58-2.19,5.29,5.29,0,0,0-9.09,0,5.29,5.29,0,0,0-9,1.12,5.29,5.29,0,0,0-6.83,3.38,5.3,5.3,0,0,0-3.53,8.15,4.15,4.15,0,0,0,0,7,32.63,32.63,0,0,0-2.62,9.91v.06c0,.15,0,.29-.05.44h0c-.07.79-.13,1.64-.42,3.33-1.13,6.51-6.25,6.12-6.25,10.79,0,1.73,1.5,2.75,3.26,4a1.08,1.08,0,0,1,.41,1.18c-.29,1.13-.76,2.85-1.09,4a1.06,1.06,0,0,0,1,1.37l5.51.16c.72,0,1.37.9.93,1.5-.88,1.21-3.25.72-4.73.92a1.09,1.09,0,0,0-.75,1.59c.6,1.17,1.81,5,4.28,7.28,5.76,5.21,13.87,4.55,15.24,6.55s-.74,10.52-.74,10.52L207.15,95a64.85,64.85,0,0,0-.34-9.47c-.46-4.18,1.56-5.7,6.87-12.48s9.53-15,9.71-23.64a3.35,3.35,0,0,0-.22-5.29Z"/><circle class="cls-2" cx="169.58" cy="54" r="2.78"/><path class="cls-1" d="M137,49.27q-.18-.85-.42-1.71a4.28,4.28,0,0,0,1.59-2.62A4.32,4.32,0,0,0,139.72,37a5.5,5.5,0,0,0-3.67-8.47,5.51,5.51,0,0,0-5.25-3.84A5.41,5.41,0,0,0,129,25a5.49,5.49,0,0,0-9.35-1.16,5.49,5.49,0,0,0-9.45,0,4.93,4.93,0,0,0-8.94,2.27A6.3,6.3,0,0,0,90.91,31a6.49,6.49,0,0,0,.24,1.72,3.64,3.64,0,0,0-5.72,3,3.68,3.68,0,0,0,1,2.47,2.36,2.36,0,0,0-.46-.1,1.84,1.84,0,0,0-.41-.05h-.09a3.51,3.51,0,0,0-2,6.4h-.18a4.63,4.63,0,0,0-1.9,8.8,3.48,3.48,0,0,0,1.44,6.28,5.22,5.22,0,0,0-.46,5.57,4.22,4.22,0,0,0,4.13,2.41,1.2,1.2,0,0,0,.2,0,4.16,4.16,0,0,0-.31,1.58,4,4,0,0,0,4,4h.06a3.49,3.49,0,0,0-.06.65,4,4,0,0,0,4,4,3.91,3.91,0,0,0,1-.12,4,4,0,0,0,4,3.53h.25"/><path class="cls-1" d="M124.2,96.21s-2.09-5.06-.73-7,9.47-1.29,15.22-6.28A18.29,18.29,0,0,0,143,78a1,1,0,0,0-.75-1.52c-1.48-.2-3.79-.84-4.73-2.88a1,1,0,0,1,.93-1.44l5.51-.15a1,1,0,0,0,1-1.32c-.33-1.14-.8-2.78-1.1-3.86a1,1,0,0,1,.41-1.13,6.36,6.36,0,0,0,3.16-4.12c1-5.71-5.23-1.73-6.14-4-1.66-4.15.15-8.86-2.11-16.37-2.82-9.4-15-19.13-33.74-13.71C84,33.66,81,55.5,88.11,68.53c6.79,12.36,15.1,12.79,14.53,17.7s-.34,6-.34,6"/><circle class="cls-2" cx="135.66" cy="55.02" r="2.78"/><circle class="cls-3" cx="111.33" cy="35.89" r="2.57"/><circle class="cls-3" cx="120.34" cy="44.9" r="2.57"/><circle class="cls-3" cx="102.33" cy="44.9" r="2.57"/><path class="cls-3" d="M116.58,42.19,114,39.65a.75.75,0,0,1,0-1.06.77.77,0,0,1,1.07,0l2.54,2.54a.75.75,0,0,1,0,1.06A.74.74,0,0,1,116.58,42.19Z"/><path class="cls-3" d="M114.86,46.62h-7.6a.75.75,0,0,1,0-1.5h7.6a.75.75,0,0,1,0,1.5Z"/><path class="cls-3" d="M105,42.19a.74.74,0,0,1,0-1.06l2.54-2.54a.75.75,0,0,1,1.06,1.06l-2.54,2.54A.74.74,0,0,1,105,42.19Z"/><circle class="cls-3" cx="201.19" cy="50.76" r="2.57"/><circle class="cls-3" cx="206.39" cy="41.74" r="2.57"/><circle class="cls-3" cx="189.24" cy="38.63" r="2.57"/><circle class="cls-3" cx="188.72" cy="30.59" r="2.57"/><circle class="cls-3" cx="199.66" cy="32.22" r="2.57"/><circle class="cls-3" cx="197.09" cy="40.83" r="2.57"/><circle class="cls-3" cx="185.78" cy="44.31" r="2.57"/><circle class="cls-3" cx="179.08" cy="38.18" r="2.57"/><circle class="cls-3" cx="193" cy="48.19" r="2.57"/><line class="cls-4" x1="195.25" y1="44.13" x2="194.85" y2="44.85"/><line class="cls-4" x1="182.31" y1="35.97" x2="185.48" y2="32.98"/><line class="cls-4" x1="198.22" y1="37.05" x2="198.57" y2="35.88"/><line class="cls-4" x1="203.13" y1="47.39" x2="204.48" y2="45.05"/><line class="cls-4" x1="201.04" y1="41.17" x2="202.49" y2="41.38"/><line class="cls-4" x1="193.26" y1="39.75" x2="193.07" y2="39.7"/><line class="cls-4" x1="196.81" y1="49.38" x2="197.45" y2="49.58"/><line class="cls-4" x1="189.55" y1="46.36" x2="189.16" y2="46.15"/><line class="cls-3" x1="188.98" y1="34.8" x2="188.99" y2="34.8"/><line class="cls-4" x1="192.65" y1="31.23" x2="195.72" y2="31.76"/><line class="cls-4" x1="183.01" y1="41.65" x2="182.04" y2="40.71"/><line class="cls-4" x1="204.19" y1="38.63" x2="201.94" y2="35.44"/><line class="cls-4" x1="185.33" y1="38.45" x2="182.98" y2="38.35"/><rect class="cls-5" x="0.5" y="0.5" width="306" height="198"/><path class="cls-6" d="M68.19,119.38v-8.16a.11.11,0,0,1,.12-.12h.62c.08,0,.11,0,.11.12v7.49a0,0,0,0,0,0,.05h3.5a.11.11,0,0,1,.12.12v.5a.11.11,0,0,1-.12.12H68.31A.11.11,0,0,1,68.19,119.38Z"/><path class="cls-6" d="M74.42,119.12a2,2,0,0,1-.68-1.27,11.5,11.5,0,0,1-.07-1.39,10.83,10.83,0,0,1,.07-1.37,2,2,0,0,1,.68-1.28,2.14,2.14,0,0,1,1.44-.48,2.17,2.17,0,0,1,1.45.48,2,2,0,0,1,.68,1.28,11.31,11.31,0,0,1,.07,1.37,11.69,11.69,0,0,1-.07,1.39,2,2,0,0,1-.68,1.27,2.42,2.42,0,0,1-2.89,0Zm2.31-.58a1.37,1.37,0,0,0,.43-.85c0-.3,0-.7,0-1.22s0-.94,0-1.23a1.26,1.26,0,0,0-.42-.84,1.23,1.23,0,0,0-.88-.32,1.2,1.2,0,0,0-.87.32,1.26,1.26,0,0,0-.42.84,15,15,0,0,0,0,2.45,1.3,1.3,0,0,0,.41.85,1.26,1.26,0,0,0,.88.31A1.24,1.24,0,0,0,76.73,118.54Z"/><path class="cls-6" d="M79.88,119.12a1.38,1.38,0,0,1-.56-1.14v-.11a.11.11,0,0,1,.12-.12H80c.08,0,.11,0,.11.12V118a.85.85,0,0,0,.35.66,1.31,1.31,0,0,0,.88.28,1.27,1.27,0,0,0,.85-.27.88.88,0,0,0,.32-.7.71.71,0,0,0-.17-.5,1.25,1.25,0,0,0-.45-.33,6.66,6.66,0,0,0-.73-.27,6.89,6.89,0,0,1-.94-.39,1.88,1.88,0,0,1-.63-.53,1.42,1.42,0,0,1-.25-.87,1.48,1.48,0,0,1,.54-1.22,2.14,2.14,0,0,1,1.42-.45,2.17,2.17,0,0,1,1.46.47,1.49,1.49,0,0,1,.55,1.2v0a.11.11,0,0,1-.12.12h-.55c-.09,0-.13,0-.13-.12v0a.8.8,0,0,0-.33-.67,1.32,1.32,0,0,0-.88-.27,1.28,1.28,0,0,0-.83.25.85.85,0,0,0-.32.67.74.74,0,0,0,.32.64,4.64,4.64,0,0,0,1,.45,6.93,6.93,0,0,1,1,.39,1.78,1.78,0,0,1,.66.53,1.38,1.38,0,0,1,.27.88,1.55,1.55,0,0,1-.55,1.23,2.27,2.27,0,0,1-1.48.45A2.38,2.38,0,0,1,79.88,119.12Z"/><path class="cls-6" d="M90.79,113.88a2.06,2.06,0,0,1,.49,1.46v4a.11.11,0,0,1-.12.12h-.61a.11.11,0,0,1-.12-.12v-3.92a1.5,1.5,0,0,0-.32-1,1.13,1.13,0,0,0-.89-.37,1.18,1.18,0,0,0-.91.38,1.44,1.44,0,0,0-.34,1v3.9a.11.11,0,0,1-.12.12h-.61a.11.11,0,0,1-.12-.12v-5.83a.11.11,0,0,1,.12-.12h.61a.11.11,0,0,1,.12.12V114s0,0,0,0,0,0,0,0a1.61,1.61,0,0,1,1.44-.69A1.7,1.7,0,0,1,90.79,113.88Z"/><path class="cls-6" d="M93.45,119.12a2,2,0,0,1-.68-1.27,11.5,11.5,0,0,1-.07-1.39,10.83,10.83,0,0,1,.07-1.37,2,2,0,0,1,.68-1.28,2.42,2.42,0,0,1,2.89,0,2,2,0,0,1,.68,1.28,11.31,11.31,0,0,1,.07,1.37,11.69,11.69,0,0,1-.07,1.39,1.9,1.9,0,0,1-.68,1.27,2.42,2.42,0,0,1-2.89,0Zm2.31-.58a1.37,1.37,0,0,0,.43-.85c0-.3,0-.7,0-1.22s0-.94,0-1.23a1.3,1.3,0,0,0-.41-.84,1.27,1.27,0,0,0-.89-.32,1.2,1.2,0,0,0-.87.32,1.31,1.31,0,0,0-.42.84,15,15,0,0,0,0,2.45,1.3,1.3,0,0,0,.41.85,1.28,1.28,0,0,0,.88.31A1.24,1.24,0,0,0,95.76,118.54Z"/><path class="cls-6" d="M99.66,119.41l-1.74-5.85,0,0c0-.07,0-.1.12-.1h.68a.13.13,0,0,1,.13.11l1.27,4.68,0,0,0,0,1.26-4.68a.13.13,0,0,1,.13-.11h.69a.13.13,0,0,1,.09,0,.09.09,0,0,1,0,.09l-1.72,5.84a.14.14,0,0,1-.14.09h-.69A.12.12,0,0,1,99.66,119.41Z"/><path class="cls-6" d="M106.88,113.89a2,2,0,0,1,.54,1.46v4a.11.11,0,0,1-.12.12h-.61a.11.11,0,0,1-.12-.12V119a.05.05,0,0,0,0,0,0,0,0,0,0,0,0,1.67,1.67,0,0,1-.67.5,2.47,2.47,0,0,1-.92.17,2.09,2.09,0,0,1-1.29-.41,1.59,1.59,0,0,1-.53-1.33,1.77,1.77,0,0,1,.62-1.46,2.61,2.61,0,0,1,1.68-.5h1.12s0,0,0-.05v-.45a1.41,1.41,0,0,0-.31-1,1.13,1.13,0,0,0-.9-.35,1.27,1.27,0,0,0-.78.23.88.88,0,0,0-.37.62.13.13,0,0,1-.14.11l-.66,0a.12.12,0,0,1-.09,0,.15.15,0,0,1,0-.09,1.6,1.6,0,0,1,.66-1.12,2.32,2.32,0,0,1,1.41-.43A2,2,0,0,1,106.88,113.89Zm-.75,4.64a1.11,1.11,0,0,0,.44-.92v-1s0,0,0,0h-1.06a1.74,1.74,0,0,0-1.09.31,1.11,1.11,0,0,0-.41.91,1,1,0,0,0,.32.79,1.23,1.23,0,0,0,.81.25A1.74,1.74,0,0,0,106.13,118.53Z"/><path class="cls-6" d="M111.26,114.1h-1.14a0,0,0,0,0-.05.05v3.6a1.15,1.15,0,0,0,.22.79,1,1,0,0,0,.72.22h.2a.11.11,0,0,1,.12.12v.5a.11.11,0,0,1-.12.12h-.37a1.92,1.92,0,0,1-1.19-.31,1.46,1.46,0,0,1-.41-1.19v-3.86s0-.05,0-.05h-.6a.11.11,0,0,1-.12-.12v-.43a.11.11,0,0,1,.12-.12h.6s0,0,0-.05V112a.11.11,0,0,1,.12-.12H110a.11.11,0,0,1,.12.12v1.37a0,0,0,0,0,.05.05h1.14a.11.11,0,0,1,.12.12V114A.11.11,0,0,1,111.26,114.1Z"/><path class="cls-6" d="M113.24,119.12a2,2,0,0,1-.68-1.27,11.34,11.34,0,0,1-.08-1.39,10.64,10.64,0,0,1,.08-1.37,1.94,1.94,0,0,1,.67-1.28,2.43,2.43,0,0,1,2.9,0,1.94,1.94,0,0,1,.67,1.28,9.27,9.27,0,0,1,.08,1.37,9.59,9.59,0,0,1-.08,1.39,1.89,1.89,0,0,1-.67,1.27,2.19,2.19,0,0,1-1.45.48A2.16,2.16,0,0,1,113.24,119.12Zm2.31-.58a1.37,1.37,0,0,0,.43-.85c0-.3,0-.7,0-1.22s0-.94,0-1.23a1.26,1.26,0,0,0-.42-.84,1.23,1.23,0,0,0-.88-.32,1.24,1.24,0,0,0-.88.32,1.36,1.36,0,0,0-.42.84c0,.29,0,.7,0,1.23s0,.93,0,1.22a1.31,1.31,0,0,0,.42.85,1.39,1.39,0,0,0,1.75,0Z"/><path class="cls-6" d="M118.7,119.12a1.38,1.38,0,0,1-.56-1.14v-.11a.11.11,0,0,1,.12-.12h.58a.11.11,0,0,1,.12.12V118a.85.85,0,0,0,.35.66,1.31,1.31,0,0,0,.88.28,1.29,1.29,0,0,0,.85-.27.88.88,0,0,0,.32-.7.71.71,0,0,0-.18-.5,1.22,1.22,0,0,0-.44-.33,7.55,7.55,0,0,0-.73-.27,6.89,6.89,0,0,1-.94-.39,1.79,1.79,0,0,1-.63-.53,1.43,1.43,0,0,1-.26-.87,1.51,1.51,0,0,1,.54-1.22,2.5,2.5,0,0,1,2.89,0,1.52,1.52,0,0,1,.55,1.2v0a.11.11,0,0,1-.12.12h-.56a.11.11,0,0,1-.12-.12v0a.83.83,0,0,0-.33-.67,1.34,1.34,0,0,0-.88-.27,1.28,1.28,0,0,0-.83.25.85.85,0,0,0-.32.67.74.74,0,0,0,.32.64,4.64,4.64,0,0,0,1,.45,6.93,6.93,0,0,1,1,.39,1.78,1.78,0,0,1,.66.53,1.38,1.38,0,0,1,.27.88,1.53,1.53,0,0,1-.56,1.23,2.24,2.24,0,0,1-1.47.45A2.38,2.38,0,0,1,118.7,119.12Z"/><path class="cls-6" d="M125.62,121.9v-.6a.11.11,0,0,1,.12-.12h0a1.39,1.39,0,0,0,.65-.14,1.05,1.05,0,0,0,.4-.47,5.21,5.21,0,0,0,.33-1s0,0,0-.07l-1.79-5.91v0c0-.07,0-.1.12-.1h.65a.13.13,0,0,1,.13.11l1.31,4.79s0,0,0,0l0,0,1.3-4.79a.13.13,0,0,1,.14-.11h.63a.1.1,0,0,1,.09,0,.09.09,0,0,1,0,.09l-2,6.47a5.2,5.2,0,0,1-.47,1.19,1.3,1.3,0,0,1-.59.53,2.66,2.66,0,0,1-1,.15h-.16Z"/><path class="cls-6" d="M133.27,119.38v-8.16a.11.11,0,0,1,.12-.12H134a.11.11,0,0,1,.12.12v8.16a.11.11,0,0,1-.12.12h-.61A.11.11,0,0,1,133.27,119.38Z"/><path class="cls-6" d="M136.38,119.12a2,2,0,0,1-.69-1.27,11.5,11.5,0,0,1-.07-1.39,10.83,10.83,0,0,1,.07-1.37,2,2,0,0,1,.68-1.28,2.42,2.42,0,0,1,2.89,0,2,2,0,0,1,.68,1.28,9.56,9.56,0,0,1,.07,1.37,9.87,9.87,0,0,1-.07,1.39,1.9,1.9,0,0,1-.68,1.27,2.16,2.16,0,0,1-1.44.48A2.12,2.12,0,0,1,136.38,119.12Zm2.31-.58a1.41,1.41,0,0,0,.42-.85c0-.3,0-.7,0-1.22s0-.94,0-1.23a1.3,1.3,0,0,0-.41-.84,1.24,1.24,0,0,0-.88-.32,1.21,1.21,0,0,0-.88.32,1.36,1.36,0,0,0-.42.84c0,.29-.05.7-.05,1.23s0,.93.05,1.22a1.35,1.35,0,0,0,.41.85,1.29,1.29,0,0,0,.89.31A1.27,1.27,0,0,0,138.69,118.54Z"/><path class="cls-6" d="M141.84,119.12a1.39,1.39,0,0,1-.57-1.14v-.11a.11.11,0,0,1,.12-.12H142a.11.11,0,0,1,.12.12V118a.83.83,0,0,0,.34.66,1.33,1.33,0,0,0,.88.28,1.3,1.3,0,0,0,.86-.27.91.91,0,0,0,.32-.7.71.71,0,0,0-.18-.5,1.31,1.31,0,0,0-.44-.33,7,7,0,0,0-.74-.27,7.26,7.26,0,0,1-.93-.39,1.79,1.79,0,0,1-.63-.53,1.43,1.43,0,0,1-.26-.87,1.51,1.51,0,0,1,.54-1.22,2.17,2.17,0,0,1,1.43-.45,2.21,2.21,0,0,1,1.46.47,1.51,1.51,0,0,1,.54,1.2v0a.11.11,0,0,1-.12.12h-.55a.11.11,0,0,1-.12-.12v0a.83.83,0,0,0-.33-.67,1.34,1.34,0,0,0-.88-.27,1.31,1.31,0,0,0-.84.25.85.85,0,0,0-.32.67.74.74,0,0,0,.32.64,5,5,0,0,0,1,.45,7.47,7.47,0,0,1,1,.39,1.83,1.83,0,0,1,.65.53,1.38,1.38,0,0,1,.27.88,1.52,1.52,0,0,1-.55,1.23,2.27,2.27,0,0,1-1.48.45A2.35,2.35,0,0,1,141.84,119.12Z"/><path class="cls-6" d="M151.91,118.62a1.29,1.29,0,0,0,.47-.63.12.12,0,0,1,.15-.08l.55.1a.12.12,0,0,1,.08.06.14.14,0,0,1,0,.09,1.87,1.87,0,0,1-.74,1,2.18,2.18,0,0,1-1.31.39,2.15,2.15,0,0,1-1.43-.46,2,2,0,0,1-.68-1.26,6.31,6.31,0,0,1-.06-.71c0-.27,0-.49,0-.67v-.38a9.17,9.17,0,0,1,0-1,2,2,0,0,1,.67-1.29,2.12,2.12,0,0,1,1.44-.5,2.16,2.16,0,0,1,1.5.53,2.06,2.06,0,0,1,.64,1.39c0,.27,0,.75,0,1.46a.11.11,0,0,1-.12.12h-3.31s-.05,0-.05,0c0,.24,0,.52,0,.82a1.37,1.37,0,0,0,2.11.92Zm-1.7-4.22a1.3,1.3,0,0,0-.41.83c0,.34,0,.62,0,.84,0,0,0,.05.05.05h2.53a0,0,0,0,0,0-.05c0-.23,0-.51,0-.83a1.33,1.33,0,0,0-.4-.84,1.24,1.24,0,0,0-.87-.32A1.19,1.19,0,0,0,150.21,114.4Z"/><path class="cls-6" d="M154.09,119.46s0-.06,0-.1l1.73-2.86a.08.08,0,0,0,0-.07l-1.73-2.86a.11.11,0,0,1,0-.07s0-.07.1-.07h.68a.19.19,0,0,1,.14.08l1.31,2.2s0,0,0,0h0l1.3-2.2a.16.16,0,0,1,.14-.08h.68a.13.13,0,0,1,.1,0,.09.09,0,0,1,0,.1l-1.73,2.86a.08.08,0,0,0,0,.07l1.73,2.86a.25.25,0,0,1,0,.07s0,.07-.11.07h-.66a.19.19,0,0,1-.14-.08l-1.31-2.21,0,0,0,0L155,119.42a.19.19,0,0,1-.14.08h-.69C154.13,119.5,154.1,119.49,154.09,119.46Z"/><path class="cls-6" d="M164.14,116.41a7.38,7.38,0,0,1-.12,1.42,2.34,2.34,0,0,1-.68,1.33,1.85,1.85,0,0,1-1.29.43,1.8,1.8,0,0,1-.81-.17,1.33,1.33,0,0,1-.51-.49s0,0,0,0,0,0,0,0v2.77a.11.11,0,0,1-.12.12h-.61a.11.11,0,0,1-.12-.12v-8.16a.11.11,0,0,1,.12-.12h.61a.11.11,0,0,1,.12.12V114s0,0,0,0a0,0,0,0,0,0,0,1.51,1.51,0,0,1,1.38-.69,1.74,1.74,0,0,1,1.21.41A2.45,2.45,0,0,1,164,115,6,6,0,0,1,164.14,116.41Zm-.86.06a4.93,4.93,0,0,0-.18-1.5,1.63,1.63,0,0,0-.43-.68,1.12,1.12,0,0,0-.72-.22,1,1,0,0,0-.68.22,1.52,1.52,0,0,0-.4.67,4.92,4.92,0,0,0-.18,1.51,4.48,4.48,0,0,0,.2,1.54,1.53,1.53,0,0,0,.38.63,1,1,0,0,0,.65.21,1.15,1.15,0,0,0,1.13-.8A4.63,4.63,0,0,0,163.28,116.47Z"/><path class="cls-6" d="M168.41,118.62a1.29,1.29,0,0,0,.47-.63.12.12,0,0,1,.15-.08l.55.1a.12.12,0,0,1,.08.06.14.14,0,0,1,0,.09,1.87,1.87,0,0,1-.74,1,2.18,2.18,0,0,1-1.31.39,2.15,2.15,0,0,1-1.43-.46,2,2,0,0,1-.68-1.26,6.31,6.31,0,0,1-.06-.71c0-.27,0-.49,0-.67v-.38a9.17,9.17,0,0,1,0-1,2,2,0,0,1,.67-1.29,2.34,2.34,0,0,1,2.93,0,2,2,0,0,1,.65,1.39c0,.27,0,.75,0,1.46a.11.11,0,0,1-.12.12h-3.31s-.05,0-.05,0c0,.24,0,.52,0,.82a1.37,1.37,0,0,0,2.11.92Zm-1.7-4.22a1.3,1.3,0,0,0-.41.83c0,.34,0,.62,0,.84,0,0,0,.05.05.05h2.53a0,0,0,0,0,0-.05c0-.23,0-.51,0-.83a1.39,1.39,0,0,0-.4-.84,1.24,1.24,0,0,0-.87-.32A1.19,1.19,0,0,0,166.71,114.4Z"/><path class="cls-6" d="M174.08,113.51a.14.14,0,0,1,.06.15l-.15.62c0,.08-.05.11-.14.07a1.16,1.16,0,0,0-.42-.08h-.14a1.1,1.1,0,0,0-.88.46,1.71,1.71,0,0,0-.35,1.08v3.56a.11.11,0,0,1-.12.12h-.61a.11.11,0,0,1-.12-.12v-5.83a.11.11,0,0,1,.12-.12h.61a.11.11,0,0,1,.12.12v.78s0,0,0,0l0,0a1.81,1.81,0,0,1,.55-.71,1.39,1.39,0,0,1,1.42-.12Z"/><path class="cls-6" d="M177.56,114.1h-1.14a0,0,0,0,0,0,.05v3.6a1.1,1.1,0,0,0,.22.79,1,1,0,0,0,.72.22h.2a.11.11,0,0,1,.12.12v.5a.11.11,0,0,1-.12.12h-.37a1.92,1.92,0,0,1-1.19-.31,1.46,1.46,0,0,1-.41-1.19v-3.86s0-.05,0-.05h-.6a.11.11,0,0,1-.12-.12v-.43a.11.11,0,0,1,.12-.12h.6s0,0,0-.05V112a.11.11,0,0,1,.12-.12h.59a.11.11,0,0,1,.12.12v1.37a0,0,0,0,0,0,.05h1.14a.11.11,0,0,1,.12.12V114A.11.11,0,0,1,177.56,114.1Z"/><path class="cls-6" d="M179.54,119.12a2,2,0,0,1-.69-1.27c0-.4-.07-.87-.07-1.39a13.1,13.1,0,0,1,.07-1.37,2,2,0,0,1,.68-1.28,2.42,2.42,0,0,1,2.89,0,2,2,0,0,1,.68,1.28,9.56,9.56,0,0,1,.07,1.37,9.87,9.87,0,0,1-.07,1.39,1.9,1.9,0,0,1-.68,1.27,2.16,2.16,0,0,1-1.44.48A2.12,2.12,0,0,1,179.54,119.12Zm2.31-.58a1.36,1.36,0,0,0,.42-.85,15,15,0,0,0,0-2.45,1.25,1.25,0,0,0-1.29-1.16,1.21,1.21,0,0,0-.88.32,1.36,1.36,0,0,0-.42.84c0,.29-.05.7-.05,1.23s0,.93.05,1.22a1.31,1.31,0,0,0,.42.85,1.25,1.25,0,0,0,.88.31A1.27,1.27,0,0,0,181.85,118.54Z"/><path class="cls-6" d="M185,119.12a1.39,1.39,0,0,1-.57-1.14v-.11a.11.11,0,0,1,.12-.12h.59a.11.11,0,0,1,.12.12V118a.86.86,0,0,0,.34.66,1.34,1.34,0,0,0,.89.28,1.29,1.29,0,0,0,.85-.27.91.91,0,0,0,.32-.7.71.71,0,0,0-.18-.5,1.31,1.31,0,0,0-.44-.33,7.55,7.55,0,0,0-.73-.27,6.89,6.89,0,0,1-.94-.39,1.79,1.79,0,0,1-.63-.53,1.43,1.43,0,0,1-.26-.87,1.51,1.51,0,0,1,.54-1.22,2.5,2.5,0,0,1,2.89,0,1.51,1.51,0,0,1,.54,1.2v0a.11.11,0,0,1-.12.12h-.55a.11.11,0,0,1-.12-.12v0a.83.83,0,0,0-.33-.67,1.34,1.34,0,0,0-.88-.27,1.28,1.28,0,0,0-.83.25.82.82,0,0,0-.32.67.72.72,0,0,0,.32.64,4.64,4.64,0,0,0,1,.45,7.47,7.47,0,0,1,1,.39,1.75,1.75,0,0,1,.65.53,1.38,1.38,0,0,1,.27.88,1.52,1.52,0,0,1-.55,1.23,2.26,2.26,0,0,1-1.47.45A2.36,2.36,0,0,1,185,119.12Z"/><path class="cls-6" d="M195.91,113.88a2.11,2.11,0,0,1,.49,1.46v4a.11.11,0,0,1-.12.12h-.61c-.09,0-.13,0-.13-.12v-3.92a1.45,1.45,0,0,0-.32-1,1.11,1.11,0,0,0-.89-.37,1.17,1.17,0,0,0-.9.38,1.44,1.44,0,0,0-.35,1v3.9a.11.11,0,0,1-.12.12h-.61a.11.11,0,0,1-.12-.12v-5.83a.11.11,0,0,1,.12-.12H193a.11.11,0,0,1,.12.12V114s0,0,0,0,0,0,0,0a1.64,1.64,0,0,1,1.44-.69A1.72,1.72,0,0,1,195.91,113.88Z"/><path class="cls-6" d="M198.57,119.12a2,2,0,0,1-.69-1.27c0-.4-.07-.87-.07-1.39a13.1,13.1,0,0,1,.07-1.37,2,2,0,0,1,.68-1.28,2.17,2.17,0,0,1,1.45-.48,2.2,2.2,0,0,1,1.45.48,2,2,0,0,1,.67,1.28,9.27,9.27,0,0,1,.08,1.37,9.59,9.59,0,0,1-.08,1.39,1.94,1.94,0,0,1-.67,1.27,2.2,2.2,0,0,1-1.45.48A2.14,2.14,0,0,1,198.57,119.12Zm2.31-.58a1.31,1.31,0,0,0,.42-.85,15,15,0,0,0,0-2.45,1.32,1.32,0,0,0-2.17-.84,1.36,1.36,0,0,0-.42.84c0,.29,0,.7,0,1.23s0,.93,0,1.22a1.31,1.31,0,0,0,.42.85,1.39,1.39,0,0,0,1.75,0Z"/><path class="cls-6" d="M210.53,116.41a7.38,7.38,0,0,1-.12,1.42,2.28,2.28,0,0,1-.68,1.33,1.85,1.85,0,0,1-1.29.43,1.8,1.8,0,0,1-.81-.17,1.33,1.33,0,0,1-.51-.49s0,0,0,0,0,0,0,0v2.77a.11.11,0,0,1-.12.12h-.61a.11.11,0,0,1-.12-.12v-8.16a.11.11,0,0,1,.12-.12h.61a.11.11,0,0,1,.12.12V114s0,0,0,0a0,0,0,0,0,0,0,1.51,1.51,0,0,1,1.38-.69,1.74,1.74,0,0,1,1.21.41,2.45,2.45,0,0,1,.67,1.29A6,6,0,0,1,210.53,116.41Zm-.86.06a4.93,4.93,0,0,0-.18-1.5,1.63,1.63,0,0,0-.43-.68,1.12,1.12,0,0,0-.72-.22,1,1,0,0,0-.68.22,1.52,1.52,0,0,0-.4.67,4.92,4.92,0,0,0-.18,1.51,4.48,4.48,0,0,0,.2,1.54,1.53,1.53,0,0,0,.38.63,1,1,0,0,0,.65.21,1.15,1.15,0,0,0,1.13-.8A4.63,4.63,0,0,0,209.67,116.47Z"/><path class="cls-6" d="M215.36,113.43H216a.11.11,0,0,1,.12.12v5.83a.11.11,0,0,1-.12.12h-.61a.11.11,0,0,1-.12-.12v-.47s0,0,0,0l0,0a1.51,1.51,0,0,1-1.39.69,1.9,1.9,0,0,1-1.34-.48,1.84,1.84,0,0,1-.51-1.4v-4.16a.11.11,0,0,1,.12-.12h.61a.11.11,0,0,1,.12.12v4a1.45,1.45,0,0,0,.31,1,1.29,1.29,0,0,0,1.8,0,1.47,1.47,0,0,0,.34-1v-3.9A.11.11,0,0,1,215.36,113.43Z"/><path class="cls-6" d="M220.61,118.62a1.35,1.35,0,0,0,.47-.63.1.1,0,0,1,.14-.08l.56.1a.09.09,0,0,1,.07.06.1.1,0,0,1,0,.09,1.92,1.92,0,0,1-.74,1,2.18,2.18,0,0,1-1.31.39,2.14,2.14,0,0,1-1.43-.46,2,2,0,0,1-.68-1.26,3.62,3.62,0,0,1-.06-.71c0-.27,0-.49,0-.67v-.38a8.82,8.82,0,0,1,0-1,2,2,0,0,1,.67-1.29,2.34,2.34,0,0,1,2.93,0,2,2,0,0,1,.65,1.39c0,.27,0,.75,0,1.46a.11.11,0,0,1-.12.12h-3.32s0,0,0,0c0,.24,0,.52,0,.82a1.37,1.37,0,0,0,2.11.92Zm-1.71-4.22a1.29,1.29,0,0,0-.4.83c0,.34,0,.62,0,.84,0,0,0,.05,0,.05h2.54s0,0,0-.05c0-.23,0-.51,0-.83a1.35,1.35,0,0,0-.41-.84,1.36,1.36,0,0,0-1.75,0Z"/><path class="cls-6" d="M226.8,111.1h.62a.11.11,0,0,1,.12.12v8.16a.11.11,0,0,1-.12.12h-.62a.11.11,0,0,1-.12-.12v-.48s0,0,0,0l0,0a1.52,1.52,0,0,1-1.39.71,1.77,1.77,0,0,1-1.2-.4,2.47,2.47,0,0,1-.67-1.28,6.3,6.3,0,0,1-.16-1.39,6.46,6.46,0,0,1,.14-1.43,2.36,2.36,0,0,1,.66-1.33,1.93,1.93,0,0,1,1.29-.42,1.64,1.64,0,0,1,.82.17,1.22,1.22,0,0,1,.51.52s0,0,0,0,0,0,0,0v-2.81A.11.11,0,0,1,226.8,111.1Zm-.14,5.37a4.89,4.89,0,0,0-.19-1.55,1.62,1.62,0,0,0-.39-.63,1,1,0,0,0-.66-.21,1.15,1.15,0,0,0-1.12.81,4.36,4.36,0,0,0-.23,1.58,4.52,4.52,0,0,0,.19,1.5,1.5,1.5,0,0,0,.43.67,1.09,1.09,0,0,0,.72.23,1,1,0,0,0,.67-.23,1.51,1.51,0,0,0,.4-.66A5,5,0,0,0,226.66,116.47Z"/><path class="cls-6" d="M232.05,118.62a1.37,1.37,0,0,0,.48-.63.1.1,0,0,1,.14-.08l.55.1a.1.1,0,0,1,.08.06.14.14,0,0,1,0,.09,1.93,1.93,0,0,1-.75,1,2.41,2.41,0,0,1-2.73-.07,2,2,0,0,1-.69-1.26,6.31,6.31,0,0,1-.06-.71c0-.27,0-.49,0-.67v-.38a8.82,8.82,0,0,1,.05-1,1.92,1.92,0,0,1,.67-1.29,2.09,2.09,0,0,1,1.43-.5,2.13,2.13,0,0,1,1.5.53,2.07,2.07,0,0,1,.65,1.39c0,.27,0,.75,0,1.46a.11.11,0,0,1-.12.12H230s-.05,0-.05,0c0,.24,0,.52,0,.82a1.23,1.23,0,0,0,1.32,1.15A1.28,1.28,0,0,0,232.05,118.62Zm-1.7-4.22a1.29,1.29,0,0,0-.4.83q0,.51,0,.84a0,0,0,0,0,.05.05h2.53s.05,0,.05-.05a6.64,6.64,0,0,0-.05-.83,1.33,1.33,0,0,0-.4-.84,1.24,1.24,0,0,0-.87-.32A1.21,1.21,0,0,0,230.35,114.4Z"/><path class="cls-6" d="M238.53,113.88a2.06,2.06,0,0,1,.49,1.46v4a.11.11,0,0,1-.12.12h-.61a.11.11,0,0,1-.12-.12v-3.92a1.45,1.45,0,0,0-.33-1,1.09,1.09,0,0,0-.88-.37,1.18,1.18,0,0,0-.91.38,1.44,1.44,0,0,0-.34,1v3.9a.11.11,0,0,1-.12.12H235a.11.11,0,0,1-.12-.12v-5.83a.11.11,0,0,1,.12-.12h.61a.11.11,0,0,1,.12.12V114s0,0,0,0,0,0,0,0a1.61,1.61,0,0,1,1.44-.69A1.7,1.7,0,0,1,238.53,113.88Z"/><path class="cls-6" d="M93.7,130.81a7.38,7.38,0,0,1-.12,1.42,2.4,2.4,0,0,1-.68,1.33,1.89,1.89,0,0,1-1.29.43,1.74,1.74,0,0,1-.81-.17,1.33,1.33,0,0,1-.51-.49s0,0,0,0a.06.06,0,0,0,0,.05v2.77a.11.11,0,0,1-.12.12H89.5a.11.11,0,0,1-.12-.12V128a.11.11,0,0,1,.12-.12h.61a.11.11,0,0,1,.12.12v.46a.05.05,0,0,0,0,0s0,0,0,0a1.51,1.51,0,0,1,1.38-.69,1.74,1.74,0,0,1,1.21.41,2.38,2.38,0,0,1,.66,1.29A5.45,5.45,0,0,1,93.7,130.81Zm-.87.06a5,5,0,0,0-.17-1.5,1.55,1.55,0,0,0-.44-.68,1.09,1.09,0,0,0-.72-.22,1,1,0,0,0-.67.22,1.55,1.55,0,0,0-.41.66,5,5,0,0,0-.18,1.52,4.45,4.45,0,0,0,.21,1.54,1.44,1.44,0,0,0,.38.63,1,1,0,0,0,.65.21,1.15,1.15,0,0,0,1.13-.8A4.69,4.69,0,0,0,92.83,130.87Z"/><path class="cls-6" d="M98,133a1.31,1.31,0,0,0,.48-.63.1.1,0,0,1,.14-.08l.55.1a.1.1,0,0,1,.08.06.14.14,0,0,1,0,.09,1.93,1.93,0,0,1-.75,1.05,2.13,2.13,0,0,1-1.3.39,2.19,2.19,0,0,1-1.43-.46,2,2,0,0,1-.69-1.26,4.73,4.73,0,0,1,0-.71c0-.27,0-.49,0-.67v-.38a8.82,8.82,0,0,1,0-1,2,2,0,0,1,.67-1.29,2.09,2.09,0,0,1,1.43-.5,2.13,2.13,0,0,1,1.5.53,2,2,0,0,1,.65,1.39c0,.27,0,.75,0,1.46,0,.08,0,.12-.11.12H95.88s0,0,0,0c0,.25,0,.53,0,.83a1.23,1.23,0,0,0,1.32,1.15A1.26,1.26,0,0,0,98,133Zm-1.7-4.23a1.33,1.33,0,0,0-.4.84q0,.51,0,.84a0,0,0,0,0,0,.05h2.54s0,0,0-.05c0-.23,0-.51,0-.83a1.35,1.35,0,0,0-.41-.84,1.21,1.21,0,0,0-.87-.32A1.25,1.25,0,0,0,96.26,128.79Z"/><path class="cls-6" d="M104.45,128.28a2.11,2.11,0,0,1,.48,1.46v4a.11.11,0,0,1-.12.12h-.61a.11.11,0,0,1-.12-.12v-3.92a1.45,1.45,0,0,0-.33-1,1.09,1.09,0,0,0-.88-.37,1.18,1.18,0,0,0-.91.38,1.44,1.44,0,0,0-.34,1v3.9a.11.11,0,0,1-.12.12h-.61a.11.11,0,0,1-.12-.12V128a.11.11,0,0,1,.12-.12h.61a.11.11,0,0,1,.12.12v.47s0,0,0,0,0,0,0,0a1.61,1.61,0,0,1,1.44-.69A1.7,1.7,0,0,1,104.45,128.28Z"/><path class="cls-6" d="M106.85,133.52a1.38,1.38,0,0,1-.56-1.14v-.11a.11.11,0,0,1,.12-.12H107a.11.11,0,0,1,.12.12v.08a.84.84,0,0,0,.34.67,1.33,1.33,0,0,0,.88.28,1.29,1.29,0,0,0,.85-.27.89.89,0,0,0,.33-.7.68.68,0,0,0-.19-.5,1.22,1.22,0,0,0-.44-.33,7.55,7.55,0,0,0-.73-.27,6.89,6.89,0,0,1-.94-.39,1.79,1.79,0,0,1-.63-.53,1.43,1.43,0,0,1-.26-.87,1.52,1.52,0,0,1,.55-1.22,2.12,2.12,0,0,1,1.42-.45,2.17,2.17,0,0,1,1.46.47,1.52,1.52,0,0,1,.55,1.2v0a.11.11,0,0,1-.12.12h-.56c-.08,0-.11,0-.11-.12v-.05a.86.86,0,0,0-.33-.67,1.39,1.39,0,0,0-.89-.27,1.28,1.28,0,0,0-.83.25.85.85,0,0,0-.32.67.74.74,0,0,0,.32.64,4.89,4.89,0,0,0,1,.45,6.93,6.93,0,0,1,1,.39,1.78,1.78,0,0,1,.66.53,1.38,1.38,0,0,1,.27.88,1.53,1.53,0,0,1-.56,1.23,2.23,2.23,0,0,1-1.47.45A2.38,2.38,0,0,1,106.85,133.52Z"/><path class="cls-6" d="M115.14,128.29a2,2,0,0,1,.54,1.46v4a.11.11,0,0,1-.12.12H115a.11.11,0,0,1-.12-.12v-.43a.05.05,0,0,0,0,0l0,0a1.67,1.67,0,0,1-.67.5,2.42,2.42,0,0,1-.91.17,2.05,2.05,0,0,1-1.29-.41,1.56,1.56,0,0,1-.54-1.33,1.77,1.77,0,0,1,.62-1.46,2.64,2.64,0,0,1,1.69-.5h1.11s0,0,0-.05v-.45a1.46,1.46,0,0,0-.3-1,1.17,1.17,0,0,0-.91-.35,1.31,1.31,0,0,0-.78.23.92.92,0,0,0-.37.62.13.13,0,0,1-.14.11l-.66,0a.12.12,0,0,1-.09,0,.1.1,0,0,1,0-.09,1.56,1.56,0,0,1,.65-1.12,2.32,2.32,0,0,1,1.41-.43A2,2,0,0,1,115.14,128.29Zm-.75,4.63a1.08,1.08,0,0,0,.44-.91v-1s0,0,0,0h-1a1.77,1.77,0,0,0-1.1.31,1.1,1.1,0,0,0-.4.91,1,1,0,0,0,.31.79,1.24,1.24,0,0,0,.81.25A1.68,1.68,0,0,0,114.39,132.92Z"/><path class="cls-6" d="M120.1,127.91a.14.14,0,0,1,.06.15l-.15.62c0,.08-.05.11-.14.07a1.16,1.16,0,0,0-.42-.08h-.14a1.11,1.11,0,0,0-.88.46,1.69,1.69,0,0,0-.35,1.08v3.56a.11.11,0,0,1-.12.12h-.61a.11.11,0,0,1-.12-.12V128a.11.11,0,0,1,.12-.12H118a.11.11,0,0,1,.12.12v.78s0,0,0,0,0,0,0,0a1.81,1.81,0,0,1,.55-.71,1.39,1.39,0,0,1,1.42-.12Z"/><path class="cls-6" d="M127,125.5h.62a.11.11,0,0,1,.12.12v8.16a.11.11,0,0,1-.12.12H127a.11.11,0,0,1-.12-.12v-.48s0,0,0,0a.06.06,0,0,0,0,0,1.52,1.52,0,0,1-1.39.71,1.77,1.77,0,0,1-1.2-.4,2.47,2.47,0,0,1-.67-1.28,6.3,6.3,0,0,1-.15-1.39,6.52,6.52,0,0,1,.13-1.43,2.36,2.36,0,0,1,.66-1.33,1.93,1.93,0,0,1,1.29-.42,1.64,1.64,0,0,1,.82.17,1.22,1.22,0,0,1,.51.52s0,0,0,0,0,0,0,0v-2.81A.11.11,0,0,1,127,125.5Zm-.14,5.37a4.89,4.89,0,0,0-.19-1.55,1.62,1.62,0,0,0-.39-.63,1,1,0,0,0-.66-.21,1.15,1.15,0,0,0-1.12.81,4.36,4.36,0,0,0-.23,1.58,4.6,4.6,0,0,0,.19,1.5,1.5,1.5,0,0,0,.43.67,1.09,1.09,0,0,0,.72.23,1,1,0,0,0,.67-.23,1.51,1.51,0,0,0,.4-.66A5,5,0,0,0,126.83,130.87Z"/><path class="cls-6" d="M132.22,133a1.37,1.37,0,0,0,.48-.63.1.1,0,0,1,.14-.08l.55.1a.1.1,0,0,1,.08.06.14.14,0,0,1,0,.09,1.93,1.93,0,0,1-.75,1.05,2.13,2.13,0,0,1-1.3.39,2.19,2.19,0,0,1-1.43-.46,2,2,0,0,1-.69-1.26,6.31,6.31,0,0,1-.06-.71c0-.27,0-.49,0-.67v-.38a8.82,8.82,0,0,1,0-1,1.92,1.92,0,0,1,.67-1.29,2.09,2.09,0,0,1,1.43-.5,2.13,2.13,0,0,1,1.5.53,2.07,2.07,0,0,1,.65,1.39c0,.27,0,.75,0,1.46,0,.08,0,.12-.11.12h-3.32s0,0,0,0c0,.25,0,.53,0,.83a1.23,1.23,0,0,0,1.32,1.15A1.28,1.28,0,0,0,132.22,133Zm-1.7-4.23a1.33,1.33,0,0,0-.4.84q0,.51,0,.84a0,0,0,0,0,0,.05h2.53s.05,0,.05-.05a6.64,6.64,0,0,0-.05-.83,1.33,1.33,0,0,0-.4-.84,1.37,1.37,0,0,0-1.75,0Z"/><path class="cls-6" d="M137.39,133.78v-8.16a.11.11,0,0,1,.12-.12h.61a.11.11,0,0,1,.12.12v8.16a.11.11,0,0,1-.12.12h-.61A.11.11,0,0,1,137.39,133.78Z"/><path class="cls-6" d="M143.35,128.29a2,2,0,0,1,.54,1.46v4a.11.11,0,0,1-.12.12h-.61a.11.11,0,0,1-.12-.12v-.43s0,0,0,0l0,0a1.6,1.6,0,0,1-.67.5,2.42,2.42,0,0,1-.91.17,2.05,2.05,0,0,1-1.29-.41,1.56,1.56,0,0,1-.54-1.33,1.77,1.77,0,0,1,.62-1.46,2.64,2.64,0,0,1,1.69-.5H143s0,0,0-.05v-.45a1.46,1.46,0,0,0-.3-1,1.17,1.17,0,0,0-.91-.35,1.31,1.31,0,0,0-.78.23.92.92,0,0,0-.37.62.13.13,0,0,1-.14.11l-.65,0a.17.17,0,0,1-.1,0,.14.14,0,0,1,0-.09,1.56,1.56,0,0,1,.65-1.12,2.32,2.32,0,0,1,1.41-.43A2,2,0,0,1,143.35,128.29Zm-.75,4.63A1.05,1.05,0,0,0,143,132v-1s0,0,0,0h-1.05a1.72,1.72,0,0,0-1.09.31,1.08,1.08,0,0,0-.41.91,1,1,0,0,0,.31.79,1.25,1.25,0,0,0,.82.25A1.67,1.67,0,0,0,142.6,132.92Z"/><path class="cls-6" d="M154.62,128.28a2.21,2.21,0,0,1,.46,1.47v4a.11.11,0,0,1-.12.12h-.6a.11.11,0,0,1-.12-.12v-3.91a1.53,1.53,0,0,0-.32-1,1,1,0,0,0-.83-.37,1.13,1.13,0,0,0-.88.37,1.46,1.46,0,0,0-.33,1v3.93c0,.08,0,.12-.11.12h-.62a.11.11,0,0,1-.12-.12v-3.91a1.48,1.48,0,0,0-.32-1,1,1,0,0,0-.83-.37,1.06,1.06,0,0,0-.86.37,1.41,1.41,0,0,0-.33,1v3.93a.11.11,0,0,1-.12.12H148a.11.11,0,0,1-.12-.12V128a.11.11,0,0,1,.12-.12h.61a.11.11,0,0,1,.12.12v.42s0,0,0,0a0,0,0,0,0,0,0,1.55,1.55,0,0,1,.62-.48,2.06,2.06,0,0,1,.79-.15,1.73,1.73,0,0,1,.92.24,1.5,1.5,0,0,1,.6.67s0,0,.06,0a1.54,1.54,0,0,1,.67-.69,2,2,0,0,1,.94-.22A1.59,1.59,0,0,1,154.62,128.28Z"/><path class="cls-6" d="M156.75,126.53a.73.73,0,0,1,0-1,.66.66,0,0,1,.49-.19.65.65,0,0,1,.48.19.7.7,0,0,1,0,1,.69.69,0,0,1-1,0Zm0,7.25V128a.11.11,0,0,1,.12-.12h.62a.11.11,0,0,1,.12.12v5.83a.11.11,0,0,1-.12.12h-.62A.11.11,0,0,1,156.79,133.78Z"/><path class="cls-6" d="M159.77,133.52a1.38,1.38,0,0,1-.56-1.14v-.11a.11.11,0,0,1,.12-.12h.58a.11.11,0,0,1,.12.12v.08a.85.85,0,0,0,.35.67,1.31,1.31,0,0,0,.88.28,1.29,1.29,0,0,0,.85-.27.88.88,0,0,0,.32-.7.71.71,0,0,0-.18-.5,1.22,1.22,0,0,0-.44-.33,7.55,7.55,0,0,0-.73-.27,6.89,6.89,0,0,1-.94-.39,1.79,1.79,0,0,1-.63-.53,1.43,1.43,0,0,1-.26-.87,1.51,1.51,0,0,1,.54-1.22,2.5,2.5,0,0,1,2.89,0,1.52,1.52,0,0,1,.55,1.2v0a.11.11,0,0,1-.12.12h-.56a.11.11,0,0,1-.12-.12v-.05a.83.83,0,0,0-.33-.67,1.34,1.34,0,0,0-.88-.27,1.28,1.28,0,0,0-.83.25.85.85,0,0,0-.32.67.74.74,0,0,0,.32.64,4.64,4.64,0,0,0,1,.45,6.93,6.93,0,0,1,1,.39,1.78,1.78,0,0,1,.66.53,1.38,1.38,0,0,1,.27.88,1.53,1.53,0,0,1-.56,1.23,2.24,2.24,0,0,1-1.47.45A2.38,2.38,0,0,1,159.77,133.52Z"/><path class="cls-6" d="M171.38,128.28a2.16,2.16,0,0,1,.46,1.47v4a.11.11,0,0,1-.12.12h-.6a.11.11,0,0,1-.12-.12v-3.91a1.48,1.48,0,0,0-.32-1,1,1,0,0,0-.83-.37,1.1,1.1,0,0,0-.87.37,1.41,1.41,0,0,0-.33,1v3.93a.11.11,0,0,1-.12.12h-.61a.11.11,0,0,1-.12-.12v-3.91a1.53,1.53,0,0,0-.32-1,1,1,0,0,0-.83-.37,1.1,1.1,0,0,0-.87.37,1.45,1.45,0,0,0-.32,1v3.93a.11.11,0,0,1-.12.12h-.61a.11.11,0,0,1-.12-.12V128a.11.11,0,0,1,.12-.12h.61a.11.11,0,0,1,.12.12v.42s0,0,0,0,0,0,0,0a1.52,1.52,0,0,1,.61-.48,2.09,2.09,0,0,1,.79-.15,1.79,1.79,0,0,1,.93.24,1.56,1.56,0,0,1,.6.67s0,0,.06,0a1.58,1.58,0,0,1,.66-.69,2,2,0,0,1,.94-.22A1.58,1.58,0,0,1,171.38,128.28Z"/><path class="cls-6" d="M176.9,128.29a2,2,0,0,1,.55,1.46v4a.11.11,0,0,1-.12.12h-.62a.11.11,0,0,1-.12-.12v-.43s0,0,0,0a.06.06,0,0,0-.05,0,1.6,1.6,0,0,1-.67.5,2.38,2.38,0,0,1-.91.17,2.09,2.09,0,0,1-1.29-.41,1.56,1.56,0,0,1-.54-1.33,1.77,1.77,0,0,1,.62-1.46,2.66,2.66,0,0,1,1.69-.5h1.11s.05,0,.05-.05v-.45a1.46,1.46,0,0,0-.3-1,1.17,1.17,0,0,0-.91-.35,1.31,1.31,0,0,0-.78.23.92.92,0,0,0-.37.62.12.12,0,0,1-.13.11l-.66,0a.12.12,0,0,1-.09,0,.1.1,0,0,1,0-.09,1.56,1.56,0,0,1,.65-1.12,2.32,2.32,0,0,1,1.41-.43A2,2,0,0,1,176.9,128.29Zm-.74,4.63a1.07,1.07,0,0,0,.43-.91v-1s0,0-.05,0h-1a1.72,1.72,0,0,0-1.09.31,1.08,1.08,0,0,0-.41.91,1,1,0,0,0,.31.79,1.25,1.25,0,0,0,.82.25A1.7,1.7,0,0,0,176.16,132.92Z"/><path class="cls-6" d="M188.17,128.28a2.21,2.21,0,0,1,.46,1.47v4a.11.11,0,0,1-.12.12h-.6a.11.11,0,0,1-.12-.12v-3.91a1.53,1.53,0,0,0-.32-1,1,1,0,0,0-.83-.37,1.1,1.1,0,0,0-.87.37,1.41,1.41,0,0,0-.33,1v3.93a.11.11,0,0,1-.12.12h-.61c-.09,0-.12,0-.12-.12v-3.91a1.53,1.53,0,0,0-.32-1,1.05,1.05,0,0,0-.84-.37,1.08,1.08,0,0,0-.86.37,1.41,1.41,0,0,0-.32,1v3.93c0,.08,0,.12-.13.12h-.61a.11.11,0,0,1-.12-.12V128a.11.11,0,0,1,.12-.12h.61c.09,0,.13,0,.13.12v.42s0,0,0,0,0,0,0,0a1.55,1.55,0,0,1,.62-.48,2.09,2.09,0,0,1,.79-.15,1.73,1.73,0,0,1,.92.24,1.45,1.45,0,0,1,.6.67s0,0,.06,0A1.6,1.6,0,0,1,186,128a2,2,0,0,1,.94-.22A1.58,1.58,0,0,1,188.17,128.28Z"/><path class="cls-6" d="M193.69,128.29a2,2,0,0,1,.54,1.46v4a.11.11,0,0,1-.12.12h-.61a.11.11,0,0,1-.12-.12v-.43s0,0,0,0l0,0a1.6,1.6,0,0,1-.67.5,2.42,2.42,0,0,1-.91.17,2.05,2.05,0,0,1-1.29-.41,1.56,1.56,0,0,1-.54-1.33,1.77,1.77,0,0,1,.62-1.46,2.64,2.64,0,0,1,1.69-.5h1.11s0,0,0-.05v-.45a1.46,1.46,0,0,0-.3-1,1.17,1.17,0,0,0-.91-.35,1.31,1.31,0,0,0-.78.23.92.92,0,0,0-.37.62.13.13,0,0,1-.14.11l-.65,0a.17.17,0,0,1-.1,0,.14.14,0,0,1,0-.09,1.56,1.56,0,0,1,.65-1.12,2.32,2.32,0,0,1,1.41-.43A2,2,0,0,1,193.69,128.29Zm-.75,4.63a1.05,1.05,0,0,0,.44-.91v-1s0,0,0,0h-1.05a1.72,1.72,0,0,0-1.09.31,1.08,1.08,0,0,0-.41.91,1,1,0,0,0,.31.79,1.25,1.25,0,0,0,.82.25A1.67,1.67,0,0,0,192.94,132.92Z"/><path class="cls-6" d="M199.46,128.28a2.11,2.11,0,0,1,.49,1.46v4a.11.11,0,0,1-.12.12h-.62a.11.11,0,0,1-.12-.12v-3.92a1.45,1.45,0,0,0-.32-1,1.11,1.11,0,0,0-.89-.37,1.16,1.16,0,0,0-.9.38,1.44,1.44,0,0,0-.35,1v3.9a.11.11,0,0,1-.12.12h-.61a.11.11,0,0,1-.12-.12V128a.11.11,0,0,1,.12-.12h.61a.11.11,0,0,1,.12.12v.47s0,0,0,0a0,0,0,0,0,0,0,1.64,1.64,0,0,1,1.44-.69A1.7,1.7,0,0,1,199.46,128.28Z"/><path class="cls-6" d="M204.36,133a1.35,1.35,0,0,0,.47-.63.1.1,0,0,1,.14-.08l.56.1a.09.09,0,0,1,.07.06.1.1,0,0,1,0,.09,1.92,1.92,0,0,1-.74,1.05,2.43,2.43,0,0,1-2.74-.07,2,2,0,0,1-.68-1.26,3.62,3.62,0,0,1-.06-.71c0-.27,0-.49,0-.67v-.38a8.82,8.82,0,0,1,0-1,2,2,0,0,1,.67-1.29,2.34,2.34,0,0,1,2.93,0,2,2,0,0,1,.65,1.39c0,.27,0,.75,0,1.46a.11.11,0,0,1-.12.12h-3.32s0,0,0,0c0,.25,0,.53,0,.83a1.37,1.37,0,0,0,2.11.92Zm-1.71-4.23a1.33,1.33,0,0,0-.4.84c0,.34,0,.62,0,.84,0,0,0,.05,0,.05h2.54s0,0,0-.05c0-.23,0-.51,0-.83a1.35,1.35,0,0,0-.41-.84,1.21,1.21,0,0,0-.87-.32A1.25,1.25,0,0,0,202.65,128.79Z"/><path class="cls-6" d="M210,127.91a.14.14,0,0,1,.06.15l-.15.62c0,.08-.06.11-.14.07a1.16,1.16,0,0,0-.42-.08h-.15a1.09,1.09,0,0,0-.87.46,1.63,1.63,0,0,0-.35,1.08v3.56a.11.11,0,0,1-.12.12h-.61a.11.11,0,0,1-.12-.12V128a.11.11,0,0,1,.12-.12h.61a.11.11,0,0,1,.12.12v.78s0,0,0,0l0,0a1.79,1.79,0,0,1,.54-.71,1.41,1.41,0,0,1,1.43-.12Z"/><path class="cls-6" d="M214.53,128.29a2,2,0,0,1,.55,1.46v4a.11.11,0,0,1-.12.12h-.62a.11.11,0,0,1-.12-.12v-.43s0,0,0,0a.06.06,0,0,0-.05,0,1.6,1.6,0,0,1-.67.5,2.38,2.38,0,0,1-.91.17,2.09,2.09,0,0,1-1.29-.41,1.56,1.56,0,0,1-.53-1.33,1.74,1.74,0,0,1,.62-1.46,2.61,2.61,0,0,1,1.68-.5h1.12s0,0,0-.05v-.45a1.46,1.46,0,0,0-.3-1,1.17,1.17,0,0,0-.91-.35,1.31,1.31,0,0,0-.78.23.92.92,0,0,0-.37.62.12.12,0,0,1-.13.11l-.66,0a.12.12,0,0,1-.09,0,.1.1,0,0,1,0-.09,1.57,1.57,0,0,1,.66-1.12,2.28,2.28,0,0,1,1.41-.43A2,2,0,0,1,214.53,128.29Zm-.74,4.63a1.07,1.07,0,0,0,.43-.91v-1s0,0,0,0h-1.06a1.72,1.72,0,0,0-1.09.31,1.11,1.11,0,0,0-.41.91,1,1,0,0,0,.31.79,1.25,1.25,0,0,0,.82.25A1.7,1.7,0,0,0,213.79,132.92Z"/><path class="cls-6" d="M216.64,133.69a.68.68,0,0,1-.18-.48.67.67,0,0,1,.18-.49.71.71,0,0,1,1,0,.64.64,0,0,1,.19.49.65.65,0,0,1-.19.48.71.71,0,0,1-1,0Z"/><circle class="cls-1" cx="35.04" cy="35.04" r="13.28"/><path class="cls-7" d="M32.42,36.7a3.39,3.39,0,0,1-.25,1.35,2.63,2.63,0,0,1-1.05,1.21,3.41,3.41,0,0,1-3.42,0A2.51,2.51,0,0,1,26.65,38a3.23,3.23,0,0,1-.24-1.27V32.78a2.16,2.16,0,0,1,.37-1.24,2.36,2.36,0,0,1,1-.84,3.82,3.82,0,0,1,1.52-.29,3.67,3.67,0,0,1,1.49.29,2.37,2.37,0,0,1,1,.82,2.11,2.11,0,0,1,.36,1.22v.36a.17.17,0,0,1-.16.16H30.52a.17.17,0,0,1-.16-.16V33a1,1,0,0,0-.28-.71,1,1,0,0,0-.74-.29,1.08,1.08,0,0,0-.79.3,1,1,0,0,0-.3.74v1.22s0,0,0,0,0,0,.05,0a2.14,2.14,0,0,1,1.42-.45,2.82,2.82,0,0,1,1.4.35,2.57,2.57,0,0,1,1,1A3.26,3.26,0,0,1,32.42,36.7Zm-1.83,0a1.61,1.61,0,0,0-.21-.86,1.06,1.06,0,0,0-.95-.52,1,1,0,0,0-1,.53,1.75,1.75,0,0,0-.19.87,1.63,1.63,0,0,0,.17.8,1.13,1.13,0,0,0,2,0A1.63,1.63,0,0,0,30.59,36.73Z"/><path class="cls-7" d="M33.8,39.37a1,1,0,1,1,1.76-.73,1,1,0,0,1-1,1A1,1,0,0,1,33.8,39.37Z"/><path class="cls-7" d="M43.57,35.69a.15.15,0,0,1,0,.11v1.32a.14.14,0,0,1-.15.15H42.9s-.07,0-.07.07v2.12a.15.15,0,0,1,0,.11.17.17,0,0,1-.12,0H41.15a.14.14,0,0,1-.15-.15V37.34c0-.05,0-.07-.07-.07h-4a.14.14,0,0,1-.15-.15v-1a.58.58,0,0,1,0-.2l2.34-5.25a.17.17,0,0,1,.18-.12H41a.17.17,0,0,1,.13,0s0,.07,0,.14l-2.17,4.87a0,0,0,0,0,0,0s0,0,0,0h2s.07,0,.07-.07V34a.14.14,0,0,1,.15-.15h1.52a.17.17,0,0,1,.12,0,.15.15,0,0,1,0,.11v1.61c0,.05,0,.07.07.07h.56A.15.15,0,0,1,43.57,35.69Z"/></g></g></svg>