<?xml version="1.0" encoding="utf-8"?>
<!-- Generator: Adobe Illustrator 22.1.0, SVG Export Plug-In . SVG Version: 6.00 Build 0)  -->
<svg version="1.1" id="Capa_1" xmlns="http://www.w3.org/2000/svg" xmlns:xlink="http://www.w3.org/1999/xlink" x="0px" y="0px"
	 viewBox="0 0 306.5 198.5" style="enable-background:new 0 0 306.5 198.5;" xml:space="preserve">
<style type="text/css">
	.st0{fill:none;stroke:#00B6ED;stroke-width:0.5;stroke-miterlimit:10;}
	.st1{enable-background:new    ;}
	.st2{fill:#1D1D1B;}
	.st3{fill:#E9E8F5;}
	.st4{opacity:0.8;fill:#3A4A9A;enable-background:new    ;}
	.st5{fill:#3A4A9A;}
	.st6{fill:#EA5297;}
</style>
<title>06-5</title>
<g id="Capa_2_1_">
	<g id="Capa_1-2">
		<rect x="0.2" y="0.2" class="st0" width="306" height="198"/>
		<g class="st1">
			<path class="st2" d="M46.9,111.6h-3.6c0,0,0,0,0,0v3c0,0,0,0,0,0h2.4c0.1,0,0.1,0,0.1,0.1v0.5c0,0.1,0,0.1-0.1,0.1h-2.4
				c0,0,0,0,0,0v3c0,0,0,0,0,0h3.6c0.1,0,0.1,0,0.1,0.1v0.5c0,0.1,0,0.1-0.1,0.1h-4.4c-0.1,0-0.1,0-0.1-0.1V111c0-0.1,0-0.1,0.1-0.1
				h4.4c0.1,0,0.1,0,0.1,0.1v0.5C47,111.6,46.9,111.6,46.9,111.6z"/>
			<path class="st2" d="M48.4,119.1V111c0-0.1,0-0.1,0.1-0.1h0.6c0.1,0,0.1,0,0.1,0.1v8.2c0,0.1,0,0.1-0.1,0.1h-0.6
				C48.4,119.2,48.4,119.2,48.4,119.1z"/>
			<path class="st2" d="M56.7,110.8h0.6c0.1,0,0.1,0,0.1,0.1v8.2c0,0.1,0,0.1-0.1,0.1h-0.6c-0.1,0-0.1,0-0.1-0.1v-0.5c0,0,0,0,0,0
				c0,0,0,0,0,0c-0.3,0.5-0.8,0.7-1.4,0.7c-0.5,0-0.9-0.1-1.2-0.4c-0.3-0.3-0.5-0.7-0.7-1.3c-0.1-0.4-0.2-0.9-0.2-1.4
				c0-0.6,0-1,0.1-1.4c0.1-0.6,0.3-1,0.7-1.3c0.3-0.3,0.8-0.4,1.3-0.4c0.3,0,0.6,0.1,0.8,0.2c0.2,0.1,0.4,0.3,0.5,0.5c0,0,0,0,0,0
				s0,0,0,0V111C56.6,110.9,56.6,110.8,56.7,110.8z M56.5,116.2c0-0.7-0.1-1.2-0.2-1.5c-0.1-0.3-0.2-0.5-0.4-0.6s-0.4-0.2-0.7-0.2
				c-0.5,0-0.9,0.3-1.1,0.8c-0.2,0.4-0.2,0.9-0.2,1.6c0,0.6,0.1,1.1,0.2,1.5c0.1,0.3,0.2,0.5,0.4,0.7c0.2,0.2,0.4,0.2,0.7,0.2
				c0.3,0,0.5-0.1,0.7-0.2c0.2-0.2,0.3-0.4,0.4-0.7C56.5,117.4,56.5,116.9,56.5,116.2z"/>
		</g>
		<g class="st1">
			<path class="st2" d="M61.9,118.4c0.2-0.2,0.4-0.4,0.5-0.6c0-0.1,0.1-0.1,0.1-0.1l0.6,0.1c0,0,0.1,0,0.1,0.1c0,0,0,0.1,0,0.1
				c-0.1,0.4-0.4,0.8-0.7,1.1s-0.8,0.4-1.3,0.4c-0.6,0-1.1-0.2-1.4-0.5c-0.4-0.3-0.6-0.7-0.7-1.3c0-0.2-0.1-0.4-0.1-0.7
				c0-0.3,0-0.5,0-0.7s0-0.3,0-0.4c0-0.4,0-0.7,0-1c0.1-0.5,0.3-1,0.7-1.3c0.4-0.3,0.9-0.5,1.4-0.5c0.6,0,1.1,0.2,1.5,0.5
				c0.4,0.4,0.6,0.8,0.6,1.4c0,0.3,0,0.7,0,1.5c0,0.1,0,0.1-0.1,0.1h-3.3c0,0,0,0,0,0c0,0.2,0,0.5,0,0.8c0,0.3,0.2,0.6,0.4,0.8
				s0.5,0.3,0.9,0.3C61.4,118.6,61.7,118.5,61.9,118.4z M60.2,114.1c-0.2,0.2-0.4,0.5-0.4,0.8c0,0.3,0,0.6,0,0.8c0,0,0,0,0,0h2.5
				c0,0,0,0,0,0c0-0.2,0-0.5,0-0.8c0-0.3-0.2-0.6-0.4-0.8c-0.2-0.2-0.5-0.3-0.9-0.3C60.7,113.8,60.5,113.9,60.2,114.1z"/>
		</g>
		<g class="st1">
			<path class="st2" d="M65,118.9c-0.4-0.3-0.6-0.7-0.6-1.1v-0.1c0-0.1,0-0.1,0.1-0.1h0.6c0.1,0,0.1,0,0.1,0.1v0.1
				c0,0.3,0.1,0.5,0.3,0.7c0.2,0.2,0.5,0.3,0.9,0.3c0.4,0,0.6-0.1,0.9-0.3c0.2-0.2,0.3-0.4,0.3-0.7c0-0.2-0.1-0.4-0.2-0.5
				c-0.1-0.1-0.3-0.2-0.4-0.3c-0.2-0.1-0.4-0.2-0.7-0.3c-0.4-0.1-0.7-0.3-0.9-0.4c-0.2-0.1-0.5-0.3-0.6-0.5
				c-0.2-0.2-0.3-0.5-0.3-0.9c0-0.5,0.2-0.9,0.5-1.2c0.4-0.3,0.8-0.5,1.4-0.5c0.6,0,1.1,0.2,1.5,0.5c0.4,0.3,0.5,0.7,0.5,1.2v0
				c0,0.1,0,0.1-0.1,0.1h-0.6c-0.1,0-0.1,0-0.1-0.1v0c0-0.3-0.1-0.5-0.3-0.7c-0.2-0.2-0.5-0.3-0.9-0.3c-0.3,0-0.6,0.1-0.8,0.3
				s-0.3,0.4-0.3,0.7c0,0.3,0.1,0.5,0.3,0.6s0.5,0.3,1,0.5c0.4,0.1,0.7,0.3,1,0.4s0.5,0.3,0.7,0.5c0.2,0.2,0.3,0.5,0.3,0.9
				c0,0.5-0.2,0.9-0.6,1.2c-0.4,0.3-0.9,0.5-1.5,0.5S65.3,119.2,65,118.9z"/>
			<path class="st2" d="M73.2,113.6c0.4,0.4,0.5,0.9,0.5,1.5v4c0,0.1,0,0.1-0.1,0.1h-0.6c-0.1,0-0.1,0-0.1-0.1v-0.4c0,0,0,0,0,0
				c0,0,0,0,0,0c-0.2,0.2-0.4,0.4-0.7,0.5c-0.3,0.1-0.6,0.2-0.9,0.2c-0.5,0-0.9-0.1-1.3-0.4c-0.4-0.3-0.5-0.7-0.5-1.3
				c0-0.6,0.2-1.1,0.6-1.5s1-0.5,1.7-0.5h1.1c0,0,0,0,0,0v-0.5c0-0.4-0.1-0.7-0.3-1c-0.2-0.2-0.5-0.4-0.9-0.4
				c-0.3,0-0.6,0.1-0.8,0.2c-0.2,0.2-0.3,0.4-0.4,0.6c0,0.1-0.1,0.1-0.1,0.1l-0.7,0c0,0-0.1,0-0.1,0c0,0,0-0.1,0-0.1
				c0.1-0.5,0.3-0.8,0.7-1.1c0.4-0.3,0.9-0.4,1.4-0.4C72.4,113.1,72.9,113.3,73.2,113.6z M72.5,118.3c0.3-0.2,0.4-0.5,0.4-0.9v-1
				c0,0,0,0,0,0h-1.1c-0.5,0-0.8,0.1-1.1,0.3s-0.4,0.5-0.4,0.9c0,0.4,0.1,0.6,0.3,0.8c0.2,0.2,0.5,0.3,0.8,0.3
				C71.9,118.6,72.2,118.5,72.5,118.3z"/>
			<path class="st2" d="M78.2,113.3c0.1,0,0.1,0.1,0.1,0.1l-0.1,0.6c0,0.1-0.1,0.1-0.1,0.1c-0.1-0.1-0.3-0.1-0.4-0.1l-0.1,0
				c-0.4,0-0.6,0.2-0.9,0.5s-0.3,0.7-0.3,1.1v3.6c0,0.1,0,0.1-0.1,0.1h-0.6c-0.1,0-0.1,0-0.1-0.1v-5.8c0-0.1,0-0.1,0.1-0.1h0.6
				c0.1,0,0.1,0,0.1,0.1v0.8c0,0,0,0,0,0c0,0,0,0,0,0c0.1-0.3,0.3-0.5,0.5-0.7s0.5-0.3,0.8-0.3C77.8,113.1,78,113.2,78.2,113.3z"/>
		</g>
		<g class="st1">
			<path class="st2" d="M82.2,113.3c0.1,0,0.1,0.1,0.1,0.1l-0.1,0.6c0,0.1-0.1,0.1-0.1,0.1c-0.1-0.1-0.3-0.1-0.4-0.1l-0.1,0
				c-0.4,0-0.6,0.2-0.9,0.5s-0.3,0.7-0.3,1.1v3.6c0,0.1,0,0.1-0.1,0.1h-0.6c-0.1,0-0.1,0-0.1-0.1v-5.8c0-0.1,0-0.1,0.1-0.1H80
				c0.1,0,0.1,0,0.1,0.1v0.8c0,0,0,0,0,0c0,0,0,0,0,0c0.1-0.3,0.3-0.5,0.5-0.7s0.5-0.3,0.8-0.3C81.8,113.1,82,113.2,82.2,113.3z"/>
		</g>
		<g class="st1">
			<path class="st2" d="M83.8,118.9c-0.4-0.3-0.6-0.7-0.7-1.3c0-0.4-0.1-0.9-0.1-1.4s0-1,0.1-1.4c0.1-0.5,0.3-1,0.7-1.3
				c0.4-0.3,0.9-0.5,1.4-0.5s1.1,0.2,1.4,0.5c0.4,0.3,0.6,0.7,0.7,1.3c0,0.3,0.1,0.8,0.1,1.4c0,0.6,0,1.1-0.1,1.4
				c-0.1,0.5-0.3,1-0.7,1.3c-0.4,0.3-0.9,0.5-1.4,0.5S84.2,119.2,83.8,118.9z M86.1,118.3c0.2-0.2,0.4-0.5,0.4-0.8
				c0-0.3,0-0.7,0-1.2c0-0.5,0-0.9,0-1.2c0-0.4-0.2-0.6-0.4-0.8c-0.2-0.2-0.5-0.3-0.9-0.3s-0.6,0.1-0.9,0.3
				c-0.2,0.2-0.4,0.5-0.4,0.8c0,0.3,0,0.7,0,1.2s0,0.9,0,1.2c0,0.4,0.2,0.6,0.4,0.8c0.2,0.2,0.5,0.3,0.9,0.3
				C85.6,118.6,85.9,118.5,86.1,118.3z"/>
			<path class="st2" d="M88.9,119.1V111c0-0.1,0-0.1,0.1-0.1h0.6c0.1,0,0.1,0,0.1,0.1v8.2c0,0.1,0,0.1-0.1,0.1H89
				C88.9,119.2,88.9,119.2,88.9,119.1z"/>
			<path class="st2" d="M91.4,119.1V111c0-0.1,0-0.1,0.1-0.1h0.6c0.1,0,0.1,0,0.1,0.1v8.2c0,0.1,0,0.1-0.1,0.1h-0.6
				C91.4,119.2,91.4,119.2,91.4,119.1z"/>
			<path class="st2" d="M94.5,118.9c-0.4-0.3-0.6-0.7-0.7-1.3c0-0.4-0.1-0.9-0.1-1.4s0-1,0.1-1.4c0.1-0.5,0.3-1,0.7-1.3
				c0.4-0.3,0.9-0.5,1.4-0.5s1.1,0.2,1.4,0.5c0.4,0.3,0.6,0.7,0.7,1.3c0,0.3,0.1,0.8,0.1,1.4c0,0.6,0,1.1-0.1,1.4
				c-0.1,0.5-0.3,1-0.7,1.3c-0.4,0.3-0.9,0.5-1.4,0.5S94.9,119.2,94.5,118.9z M96.8,118.3c0.2-0.2,0.4-0.5,0.4-0.8
				c0-0.3,0-0.7,0-1.2c0-0.5,0-0.9,0-1.2c0-0.4-0.2-0.6-0.4-0.8c-0.2-0.2-0.5-0.3-0.9-0.3s-0.6,0.1-0.9,0.3
				c-0.2,0.2-0.4,0.5-0.4,0.8c0,0.3,0,0.7,0,1.2s0,0.9,0,1.2c0,0.4,0.2,0.6,0.4,0.8c0.2,0.2,0.5,0.3,0.9,0.3
				C96.3,118.6,96.6,118.5,96.8,118.3z"/>
		</g>
		<g class="st1">
			<path class="st2" d="M102.6,118.9c-0.4-0.3-0.6-0.7-0.7-1.3c0-0.4-0.1-0.9-0.1-1.4c0-0.4,0-0.9,0.1-1.4c0.1-0.5,0.3-0.9,0.7-1.3
				c0.4-0.3,0.9-0.5,1.4-0.5c0.6,0,1,0.2,1.4,0.5c0.4,0.3,0.6,0.7,0.7,1.1l0,0.3v0c0,0,0,0.1,0,0.1c0,0,0,0-0.1,0l-0.6,0
				c-0.1,0-0.1,0-0.1-0.1c0-0.1,0-0.1,0-0.1c0-0.3-0.2-0.5-0.4-0.7s-0.5-0.3-0.9-0.3c-0.4,0-0.6,0.1-0.9,0.3
				c-0.2,0.2-0.4,0.5-0.4,0.8c0,0.3-0.1,0.8-0.1,1.2c0,0.5,0,0.9,0.1,1.2c0,0.4,0.2,0.6,0.4,0.8s0.5,0.3,0.9,0.3
				c0.4,0,0.6-0.1,0.9-0.3c0.2-0.2,0.4-0.4,0.4-0.7l0-0.1c0-0.1,0.1-0.1,0.1-0.1l0.6,0c0.1,0,0.1,0.1,0.1,0.1v0c0,0,0,0.1,0,0.1
				c-0.1,0.5-0.3,0.9-0.7,1.2c-0.4,0.3-0.9,0.5-1.4,0.5C103.5,119.3,103,119.2,102.6,118.9z"/>
		</g>
		<g class="st1">
			<path class="st2" d="M108.2,118.9c-0.4-0.3-0.6-0.7-0.7-1.3c0-0.4-0.1-0.9-0.1-1.4s0-1,0.1-1.4c0.1-0.5,0.3-1,0.7-1.3
				c0.4-0.3,0.9-0.5,1.4-0.5s1.1,0.2,1.4,0.5c0.4,0.3,0.6,0.7,0.7,1.3c0,0.3,0.1,0.8,0.1,1.4c0,0.6,0,1.1-0.1,1.4
				c-0.1,0.5-0.3,1-0.7,1.3c-0.4,0.3-0.9,0.5-1.4,0.5S108.5,119.2,108.2,118.9z M110.5,118.3c0.2-0.2,0.4-0.5,0.4-0.8
				c0-0.3,0-0.7,0-1.2c0-0.5,0-0.9,0-1.2c0-0.4-0.2-0.6-0.4-0.8c-0.2-0.2-0.5-0.3-0.9-0.3s-0.6,0.1-0.9,0.3
				c-0.2,0.2-0.4,0.5-0.4,0.8c0,0.3,0,0.7,0,1.2s0,0.9,0,1.2c0,0.4,0.2,0.6,0.4,0.8c0.2,0.2,0.5,0.3,0.9,0.3
				C109.9,118.6,110.2,118.5,110.5,118.3z"/>
			<path class="st2" d="M116.7,113.2h0.6c0.1,0,0.1,0,0.1,0.1v5.8c0,1.8-1,2.7-3,2.6c-0.1,0-0.1-0.1-0.1-0.1l0-0.5c0,0,0-0.1,0-0.1
				c0,0,0.1,0,0.1,0c0.8,0,1.3-0.1,1.6-0.4c0.3-0.3,0.5-0.8,0.5-1.4v-0.4c0,0,0,0,0,0c0,0,0,0,0,0c-0.3,0.4-0.8,0.7-1.4,0.7
				c-0.5,0-0.9-0.2-1.3-0.5c-0.3-0.3-0.6-0.7-0.6-1.3c0-0.4-0.1-0.8-0.1-1.4c0-0.6,0-1.1,0.1-1.4c0.1-0.5,0.3-0.9,0.6-1.2
				c0.3-0.3,0.8-0.5,1.3-0.5c0.6,0,1.1,0.2,1.4,0.7c0,0,0,0,0,0c0,0,0,0,0,0v-0.4C116.6,113.2,116.6,113.2,116.7,113.2z
				 M116.6,116.2c0-0.5,0-0.9,0-1.2c0-0.3-0.2-0.6-0.4-0.8c-0.2-0.2-0.5-0.3-0.8-0.3c-0.3,0-0.6,0.1-0.9,0.3
				c-0.2,0.2-0.4,0.5-0.4,0.8c0,0.3,0,0.7,0,1.2c0,0.4,0,0.8,0,1.2c0,0.3,0.2,0.6,0.4,0.8c0.2,0.2,0.5,0.3,0.9,0.3
				c0.3,0,0.6-0.1,0.8-0.3c0.2-0.2,0.3-0.5,0.4-0.8C116.6,117.1,116.6,116.7,116.6,116.2z"/>
			<path class="st2" d="M122.7,113.6c0.3,0.4,0.5,0.8,0.5,1.5v4c0,0.1,0,0.1-0.1,0.1h-0.6c-0.1,0-0.1,0-0.1-0.1v-3.9
				c0-0.4-0.1-0.7-0.3-1c-0.2-0.2-0.5-0.4-0.9-0.4s-0.7,0.1-0.9,0.4s-0.3,0.6-0.3,1v3.9c0,0.1,0,0.1-0.1,0.1h-0.6
				c-0.1,0-0.1,0-0.1-0.1v-5.8c0-0.1,0-0.1,0.1-0.1h0.6c0.1,0,0.1,0,0.1,0.1v0.5c0,0,0,0,0,0c0,0,0,0,0,0c0.3-0.5,0.8-0.7,1.4-0.7
				C121.9,113.1,122.4,113.3,122.7,113.6z"/>
			<path class="st2" d="M124.9,111.9c-0.1-0.1-0.2-0.3-0.2-0.5c0-0.2,0.1-0.4,0.2-0.5s0.3-0.2,0.5-0.2c0.2,0,0.4,0.1,0.5,0.2
				s0.2,0.3,0.2,0.5c0,0.2-0.1,0.4-0.2,0.5s-0.3,0.2-0.5,0.2C125.1,112.1,125,112,124.9,111.9z M124.9,119.1v-5.8
				c0-0.1,0-0.1,0.1-0.1h0.6c0.1,0,0.1,0,0.1,0.1v5.8c0,0.1,0,0.1-0.1,0.1H125C124.9,119.2,124.9,119.2,124.9,119.1z"/>
			<path class="st2" d="M129.9,113.8h-1.1c0,0,0,0,0,0v3.6c0,0.4,0.1,0.6,0.2,0.8c0.1,0.1,0.4,0.2,0.7,0.2h0.2c0.1,0,0.1,0,0.1,0.1
				v0.5c0,0.1,0,0.1-0.1,0.1l-0.4,0c-0.5,0-0.9-0.1-1.2-0.3s-0.4-0.6-0.4-1.2v-3.9c0,0,0,0,0,0h-0.6c-0.1,0-0.1,0-0.1-0.1v-0.4
				c0-0.1,0-0.1,0.1-0.1h0.6c0,0,0,0,0,0v-1.4c0-0.1,0-0.1,0.1-0.1h0.6c0.1,0,0.1,0,0.1,0.1v1.4c0,0,0,0,0,0h1.1
				c0.1,0,0.1,0,0.1,0.1v0.4C130,113.8,130,113.8,129.9,113.8z"/>
			<path class="st2" d="M131.4,111.9c-0.1-0.1-0.2-0.3-0.2-0.5c0-0.2,0.1-0.4,0.2-0.5s0.3-0.2,0.5-0.2c0.2,0,0.4,0.1,0.5,0.2
				s0.2,0.3,0.2,0.5c0,0.2-0.1,0.4-0.2,0.5s-0.3,0.2-0.5,0.2C131.7,112.1,131.5,112,131.4,111.9z M131.5,119.1v-5.8
				c0-0.1,0-0.1,0.1-0.1h0.6c0.1,0,0.1,0,0.1,0.1v5.8c0,0.1,0,0.1-0.1,0.1h-0.6C131.5,119.2,131.5,119.2,131.5,119.1z"/>
		</g>
		<g class="st1">
			<path class="st2" d="M135.4,119.2l-1.7-5.8l0,0c0-0.1,0-0.1,0.1-0.1h0.7c0.1,0,0.1,0,0.1,0.1l1.3,4.7c0,0,0,0,0,0s0,0,0,0
				l1.3-4.7c0-0.1,0.1-0.1,0.1-0.1l0.7,0c0,0,0.1,0,0.1,0c0,0,0,0.1,0,0.1l-1.7,5.8c0,0.1-0.1,0.1-0.1,0.1h-0.7
				C135.5,119.2,135.4,119.2,135.4,119.2z"/>
		</g>
		<g class="st1">
			<path class="st2" d="M139.7,118.9c-0.4-0.3-0.6-0.7-0.7-1.3c0-0.4-0.1-0.9-0.1-1.4s0-1,0.1-1.4c0.1-0.5,0.3-1,0.7-1.3
				c0.4-0.3,0.9-0.5,1.4-0.5s1.1,0.2,1.4,0.5c0.4,0.3,0.6,0.7,0.7,1.3c0,0.3,0.1,0.8,0.1,1.4c0,0.6,0,1.1-0.1,1.4
				c-0.1,0.5-0.3,1-0.7,1.3c-0.4,0.3-0.9,0.5-1.4,0.5S140.1,119.2,139.7,118.9z M142,118.3c0.2-0.2,0.4-0.5,0.4-0.8
				c0-0.3,0-0.7,0-1.2c0-0.5,0-0.9,0-1.2c0-0.4-0.2-0.6-0.4-0.8c-0.2-0.2-0.5-0.3-0.9-0.3s-0.6,0.1-0.9,0.3
				c-0.2,0.2-0.4,0.5-0.4,0.8c0,0.3,0,0.7,0,1.2s0,0.9,0,1.2c0,0.4,0.2,0.6,0.4,0.8c0.2,0.2,0.5,0.3,0.9,0.3
				C141.5,118.6,141.8,118.5,142,118.3z"/>
		</g>
		<g class="st1">
			<path class="st2" d="M151,113.6c0.3,0.4,0.5,0.8,0.5,1.5v4c0,0.1,0,0.1-0.1,0.1h-0.6c-0.1,0-0.1,0-0.1-0.1v-3.9
				c0-0.4-0.1-0.7-0.3-1c-0.2-0.2-0.5-0.4-0.9-0.4s-0.7,0.1-0.9,0.4s-0.3,0.6-0.3,1v3.9c0,0.1,0,0.1-0.1,0.1h-0.6
				c-0.1,0-0.1,0-0.1-0.1v-5.8c0-0.1,0-0.1,0.1-0.1h0.6c0.1,0,0.1,0,0.1,0.1v0.5c0,0,0,0,0,0c0,0,0,0,0,0c0.3-0.5,0.8-0.7,1.4-0.7
				C150.2,113.1,150.6,113.3,151,113.6z"/>
		</g>
		<g class="st1">
			<path class="st2" d="M153.6,118.9c-0.4-0.3-0.6-0.7-0.7-1.3c0-0.4-0.1-0.9-0.1-1.4s0-1,0.1-1.4c0.1-0.5,0.3-1,0.7-1.3
				c0.4-0.3,0.9-0.5,1.4-0.5s1.1,0.2,1.4,0.5c0.4,0.3,0.6,0.7,0.7,1.3c0,0.3,0.1,0.8,0.1,1.4c0,0.6,0,1.1-0.1,1.4
				c-0.1,0.5-0.3,1-0.7,1.3s-0.9,0.5-1.4,0.5S154,119.2,153.6,118.9z M155.9,118.3c0.2-0.2,0.4-0.5,0.4-0.8c0-0.3,0-0.7,0-1.2
				c0-0.5,0-0.9,0-1.2c0-0.4-0.2-0.6-0.4-0.8c-0.2-0.2-0.5-0.3-0.9-0.3c-0.4,0-0.6,0.1-0.9,0.3c-0.2,0.2-0.4,0.5-0.4,0.8
				c0,0.3,0,0.7,0,1.2s0,0.9,0,1.2c0,0.4,0.2,0.6,0.4,0.8s0.5,0.3,0.9,0.3C155.4,118.6,155.7,118.5,155.9,118.3z"/>
		</g>
		<g class="st1">
			<path class="st2" d="M164.6,113.6c0.4,0.4,0.5,0.9,0.5,1.5v4c0,0.1,0,0.1-0.1,0.1h-0.6c-0.1,0-0.1,0-0.1-0.1v-0.4c0,0,0,0,0,0
				s0,0,0,0c-0.2,0.2-0.4,0.4-0.7,0.5c-0.3,0.1-0.6,0.2-0.9,0.2c-0.5,0-0.9-0.1-1.3-0.4c-0.4-0.3-0.5-0.7-0.5-1.3
				c0-0.6,0.2-1.1,0.6-1.5s1-0.5,1.7-0.5h1.1c0,0,0,0,0,0v-0.5c0-0.4-0.1-0.7-0.3-1c-0.2-0.2-0.5-0.4-0.9-0.4
				c-0.3,0-0.6,0.1-0.8,0.2c-0.2,0.2-0.3,0.4-0.4,0.6c0,0.1-0.1,0.1-0.1,0.1l-0.7,0c0,0-0.1,0-0.1,0c0,0,0-0.1,0-0.1
				c0.1-0.5,0.3-0.8,0.7-1.1c0.4-0.3,0.8-0.4,1.4-0.4C163.8,113.1,164.3,113.3,164.6,113.6z M163.9,118.3c0.3-0.2,0.4-0.5,0.4-0.9
				v-1c0,0,0,0,0,0h-1.1c-0.5,0-0.8,0.1-1.1,0.3c-0.3,0.2-0.4,0.5-0.4,0.9c0,0.4,0.1,0.6,0.3,0.8c0.2,0.2,0.5,0.3,0.8,0.3
				C163.2,118.6,163.6,118.5,163.9,118.3z"/>
		</g>
		<g class="st1">
			<path class="st2" d="M167.9,119.2l-1.7-5.8l0,0c0-0.1,0-0.1,0.1-0.1h0.7c0.1,0,0.1,0,0.1,0.1l1.3,4.7c0,0,0,0,0,0c0,0,0,0,0,0
				l1.3-4.7c0-0.1,0.1-0.1,0.1-0.1l0.7,0c0,0,0.1,0,0.1,0c0,0,0,0.1,0,0.1l-1.7,5.8c0,0.1-0.1,0.1-0.1,0.1H168
				C168,119.2,167.9,119.2,167.9,119.2z"/>
		</g>
		<g class="st1">
			<path class="st2" d="M175.1,113.6c0.4,0.4,0.5,0.9,0.5,1.5v4c0,0.1,0,0.1-0.1,0.1h-0.6c-0.1,0-0.1,0-0.1-0.1v-0.4c0,0,0,0,0,0
				s0,0,0,0c-0.2,0.2-0.4,0.4-0.7,0.5c-0.3,0.1-0.6,0.2-0.9,0.2c-0.5,0-0.9-0.1-1.3-0.4c-0.4-0.3-0.5-0.7-0.5-1.3
				c0-0.6,0.2-1.1,0.6-1.5s1-0.5,1.7-0.5h1.1c0,0,0,0,0,0v-0.5c0-0.4-0.1-0.7-0.3-1c-0.2-0.2-0.5-0.4-0.9-0.4
				c-0.3,0-0.6,0.1-0.8,0.2c-0.2,0.2-0.3,0.4-0.4,0.6c0,0.1-0.1,0.1-0.1,0.1l-0.7,0c0,0-0.1,0-0.1,0c0,0,0-0.1,0-0.1
				c0.1-0.5,0.3-0.8,0.7-1.1c0.4-0.3,0.8-0.4,1.4-0.4C174.2,113.1,174.7,113.3,175.1,113.6z M174.4,118.3c0.3-0.2,0.4-0.5,0.4-0.9
				v-1c0,0,0,0,0,0h-1.1c-0.5,0-0.8,0.1-1.1,0.3c-0.3,0.2-0.4,0.5-0.4,0.9c0,0.4,0.1,0.6,0.3,0.8c0.2,0.2,0.5,0.3,0.8,0.3
				C173.7,118.6,174.1,118.5,174.4,118.3z"/>
			<path class="st2" d="M180.9,113.6c0.3,0.4,0.5,0.8,0.5,1.5v4c0,0.1,0,0.1-0.1,0.1h-0.6c-0.1,0-0.1,0-0.1-0.1v-3.9
				c0-0.4-0.1-0.7-0.3-1c-0.2-0.2-0.5-0.4-0.9-0.4s-0.7,0.1-0.9,0.4c-0.2,0.3-0.3,0.6-0.3,1v3.9c0,0.1,0,0.1-0.1,0.1h-0.6
				c-0.1,0-0.1,0-0.1-0.1v-5.8c0-0.1,0-0.1,0.1-0.1h0.6c0.1,0,0.1,0,0.1,0.1v0.5c0,0,0,0,0,0c0,0,0,0,0,0c0.3-0.5,0.8-0.7,1.4-0.7
				C180.1,113.1,180.6,113.3,180.9,113.6z"/>
			<path class="st2" d="M182.5,119.1v-0.6c0-0.1,0-0.1,0-0.2l2.9-4.4c0,0,0,0,0,0c0,0,0,0,0,0h-2.8c-0.1,0-0.1,0-0.1-0.1v-0.5
				c0-0.1,0-0.1,0.1-0.1h3.7c0.1,0,0.1,0,0.1,0.1v0.6c0,0.1,0,0.1,0,0.2l-3,4.4c0,0,0,0,0,0c0,0,0,0,0,0h2.9c0.1,0,0.1,0,0.1,0.1
				v0.5c0,0.1,0,0.1-0.1,0.1h-3.8C182.6,119.2,182.5,119.2,182.5,119.1z"/>
			<path class="st2" d="M191.3,113.6c0.4,0.4,0.5,0.9,0.5,1.5v4c0,0.1,0,0.1-0.1,0.1h-0.6c-0.1,0-0.1,0-0.1-0.1v-0.4c0,0,0,0,0,0
				s0,0,0,0c-0.2,0.2-0.4,0.4-0.7,0.5c-0.3,0.1-0.6,0.2-0.9,0.2c-0.5,0-0.9-0.1-1.3-0.4c-0.4-0.3-0.5-0.7-0.5-1.3
				c0-0.6,0.2-1.1,0.6-1.5s1-0.5,1.7-0.5h1.1c0,0,0,0,0,0v-0.5c0-0.4-0.1-0.7-0.3-1c-0.2-0.2-0.5-0.4-0.9-0.4
				c-0.3,0-0.6,0.1-0.8,0.2c-0.2,0.2-0.3,0.4-0.4,0.6c0,0.1-0.1,0.1-0.1,0.1l-0.7,0c0,0-0.1,0-0.1,0c0,0,0-0.1,0-0.1
				c0.1-0.5,0.3-0.8,0.7-1.1c0.4-0.3,0.8-0.4,1.4-0.4C190.4,113.1,190.9,113.3,191.3,113.6z M190.5,118.3c0.3-0.2,0.4-0.5,0.4-0.9
				v-1c0,0,0,0,0,0h-1.1c-0.5,0-0.8,0.1-1.1,0.3c-0.3,0.2-0.4,0.5-0.4,0.9c0,0.4,0.1,0.6,0.3,0.8c0.2,0.2,0.5,0.3,0.8,0.3
				C189.9,118.6,190.2,118.5,190.5,118.3z"/>
			<path class="st2" d="M199.2,113.6c0.4,0.4,0.5,0.9,0.5,1.5v4c0,0.1,0,0.1-0.1,0.1H199c-0.1,0-0.1,0-0.1-0.1v-0.4c0,0,0,0,0,0
				s0,0,0,0c-0.2,0.2-0.4,0.4-0.7,0.5c-0.3,0.1-0.6,0.2-0.9,0.2c-0.5,0-0.9-0.1-1.3-0.4c-0.4-0.3-0.5-0.7-0.5-1.3
				c0-0.6,0.2-1.1,0.6-1.5s1-0.5,1.7-0.5h1.1c0,0,0,0,0,0v-0.5c0-0.4-0.1-0.7-0.3-1c-0.2-0.2-0.5-0.4-0.9-0.4
				c-0.3,0-0.6,0.1-0.8,0.2c-0.2,0.2-0.3,0.4-0.4,0.6c0,0.1-0.1,0.1-0.1,0.1l-0.7,0c0,0-0.1,0-0.1,0c0,0,0-0.1,0-0.1
				c0.1-0.5,0.3-0.8,0.7-1.1c0.4-0.3,0.8-0.4,1.4-0.4C198.4,113.1,198.9,113.3,199.2,113.6z M198.5,118.3c0.3-0.2,0.4-0.5,0.4-0.9
				v-1c0,0,0,0,0,0h-1.1c-0.5,0-0.8,0.1-1.1,0.3c-0.3,0.2-0.4,0.5-0.4,0.9c0,0.4,0.1,0.6,0.3,0.8c0.2,0.2,0.5,0.3,0.8,0.3
				C197.8,118.6,198.2,118.5,198.5,118.3z"/>
			<path class="st2" d="M206,113.8h-1.1c0,0,0,0,0,0v3.6c0,0.4,0.1,0.6,0.2,0.8c0.1,0.1,0.4,0.2,0.7,0.2h0.2c0.1,0,0.1,0,0.1,0.1
				v0.5c0,0.1,0,0.1-0.1,0.1l-0.4,0c-0.5,0-0.9-0.1-1.2-0.3c-0.3-0.2-0.4-0.6-0.4-1.2v-3.9c0,0,0,0,0,0h-0.6c-0.1,0-0.1,0-0.1-0.1
				v-0.4c0-0.1,0-0.1,0.1-0.1h0.6c0,0,0,0,0,0v-1.4c0-0.1,0-0.1,0.1-0.1h0.6c0.1,0,0.1,0,0.1,0.1v1.4c0,0,0,0,0,0h1.1
				c0.1,0,0.1,0,0.1,0.1v0.4C206.1,113.8,206.1,113.8,206,113.8z"/>
		</g>
		<g class="st1">
			<path class="st2" d="M210.4,113.3c0.1,0,0.1,0.1,0.1,0.1l-0.1,0.6c0,0.1-0.1,0.1-0.1,0.1c-0.1-0.1-0.3-0.1-0.4-0.1l-0.1,0
				c-0.4,0-0.6,0.2-0.9,0.5c-0.2,0.3-0.3,0.7-0.3,1.1v3.6c0,0.1,0,0.1-0.1,0.1h-0.6c-0.1,0-0.1,0-0.1-0.1v-5.8c0-0.1,0-0.1,0.1-0.1
				h0.6c0.1,0,0.1,0,0.1,0.1v0.8c0,0,0,0,0,0s0,0,0,0c0.1-0.3,0.3-0.5,0.5-0.7c0.2-0.2,0.5-0.3,0.8-0.3
				C210,113.1,210.2,113.2,210.4,113.3z"/>
		</g>
		<g class="st1">
			<path class="st2" d="M214.9,113.6c0.4,0.4,0.5,0.9,0.5,1.5v4c0,0.1,0,0.1-0.1,0.1h-0.6c-0.1,0-0.1,0-0.1-0.1v-0.4c0,0,0,0,0,0
				s0,0,0,0c-0.2,0.2-0.4,0.4-0.7,0.5c-0.3,0.1-0.6,0.2-0.9,0.2c-0.5,0-0.9-0.1-1.3-0.4c-0.4-0.3-0.5-0.7-0.5-1.3
				c0-0.6,0.2-1.1,0.6-1.5s1-0.5,1.7-0.5h1.1c0,0,0,0,0,0v-0.5c0-0.4-0.1-0.7-0.3-1c-0.2-0.2-0.5-0.4-0.9-0.4
				c-0.3,0-0.6,0.1-0.8,0.2c-0.2,0.2-0.3,0.4-0.4,0.6c0,0.1-0.1,0.1-0.1,0.1l-0.7,0c0,0-0.1,0-0.1,0c0,0,0-0.1,0-0.1
				c0.1-0.5,0.3-0.8,0.7-1.1c0.4-0.3,0.8-0.4,1.4-0.4C214,113.1,214.5,113.3,214.9,113.6z M214.1,118.3c0.3-0.2,0.4-0.5,0.4-0.9v-1
				c0,0,0,0,0,0h-1.1c-0.5,0-0.8,0.1-1.1,0.3c-0.3,0.2-0.4,0.5-0.4,0.9c0,0.4,0.1,0.6,0.3,0.8c0.2,0.2,0.5,0.3,0.8,0.3
				C213.5,118.6,213.8,118.5,214.1,118.3z"/>
		</g>
		<g class="st1">
			<path class="st2" d="M218.1,119.2l-1.7-5.8l0,0c0-0.1,0-0.1,0.1-0.1h0.7c0.1,0,0.1,0,0.1,0.1l1.3,4.7c0,0,0,0,0,0c0,0,0,0,0,0
				l1.3-4.7c0-0.1,0.1-0.1,0.1-0.1l0.7,0c0,0,0.1,0,0.1,0c0,0,0,0.1,0,0.1l-1.7,5.8c0,0.1-0.1,0.1-0.1,0.1h-0.7
				C218.2,119.2,218.2,119.2,218.1,119.2z"/>
		</g>
		<g class="st1">
			<path class="st2" d="M224.7,118.4c0.2-0.2,0.4-0.4,0.5-0.6c0-0.1,0.1-0.1,0.1-0.1l0.6,0.1c0,0,0.1,0,0.1,0.1c0,0,0,0.1,0,0.1
				c-0.1,0.4-0.4,0.8-0.7,1.1c-0.4,0.3-0.8,0.4-1.3,0.4c-0.6,0-1.1-0.2-1.4-0.5c-0.4-0.3-0.6-0.7-0.7-1.3c0-0.2-0.1-0.4-0.1-0.7
				c0-0.3,0-0.5,0-0.7s0-0.3,0-0.4c0-0.4,0-0.7,0-1c0.1-0.5,0.3-1,0.7-1.3c0.4-0.3,0.9-0.5,1.4-0.5c0.6,0,1.1,0.2,1.5,0.5
				c0.4,0.4,0.6,0.8,0.6,1.4c0,0.3,0,0.7,0,1.5c0,0.1,0,0.1-0.1,0.1h-3.3c0,0,0,0,0,0c0,0.2,0,0.5,0,0.8c0,0.3,0.2,0.6,0.4,0.8
				c0.2,0.2,0.5,0.3,0.9,0.3C224.2,118.6,224.5,118.5,224.7,118.4z M223,114.1c-0.2,0.2-0.4,0.5-0.4,0.8c0,0.3,0,0.6,0,0.8
				c0,0,0,0,0,0h2.5c0,0,0,0,0,0c0-0.2,0-0.5,0-0.8c0-0.3-0.2-0.6-0.4-0.8c-0.2-0.2-0.5-0.3-0.9-0.3
				C223.5,113.8,223.2,113.9,223,114.1z M223.3,112.3c0,0,0-0.1,0-0.1l0.7-1.3c0-0.1,0.1-0.1,0.1-0.1h0.5c0,0,0.1,0,0.1,0
				c0,0,0,0.1,0,0.1l-0.8,1.3c0,0.1-0.1,0.1-0.1,0.1L223.3,112.3C223.4,112.4,223.4,112.4,223.3,112.3z"/>
		</g>
		<g class="st1">
			<path class="st2" d="M227.7,118.9c-0.4-0.3-0.6-0.7-0.6-1.1v-0.1c0-0.1,0-0.1,0.1-0.1h0.6c0.1,0,0.1,0,0.1,0.1v0.1
				c0,0.3,0.1,0.5,0.3,0.7c0.2,0.2,0.5,0.3,0.9,0.3c0.4,0,0.6-0.1,0.9-0.3c0.2-0.2,0.3-0.4,0.3-0.7c0-0.2-0.1-0.4-0.2-0.5
				c-0.1-0.1-0.3-0.2-0.4-0.3c-0.2-0.1-0.4-0.2-0.7-0.3c-0.4-0.1-0.7-0.3-0.9-0.4c-0.2-0.1-0.5-0.3-0.6-0.5
				c-0.2-0.2-0.3-0.5-0.3-0.9c0-0.5,0.2-0.9,0.5-1.2c0.4-0.3,0.8-0.5,1.4-0.5c0.6,0,1.1,0.2,1.5,0.5c0.4,0.3,0.5,0.7,0.5,1.2v0
				c0,0.1,0,0.1-0.1,0.1h-0.6c-0.1,0-0.1,0-0.1-0.1v0c0-0.3-0.1-0.5-0.3-0.7c-0.2-0.2-0.5-0.3-0.9-0.3c-0.3,0-0.6,0.1-0.8,0.3
				s-0.3,0.4-0.3,0.7c0,0.3,0.1,0.5,0.3,0.6s0.5,0.3,1,0.5c0.4,0.1,0.7,0.3,1,0.4s0.5,0.3,0.7,0.5c0.2,0.2,0.3,0.5,0.3,0.9
				c0,0.5-0.2,0.9-0.6,1.2c-0.4,0.3-0.9,0.5-1.5,0.5S228.1,119.2,227.7,118.9z"/>
			<path class="st2" d="M238.4,110.8h0.6c0.1,0,0.1,0,0.1,0.1v8.2c0,0.1,0,0.1-0.1,0.1h-0.6c-0.1,0-0.1,0-0.1-0.1v-0.5c0,0,0,0,0,0
				c0,0,0,0,0,0c-0.3,0.5-0.8,0.7-1.4,0.7c-0.5,0-0.9-0.1-1.2-0.4c-0.3-0.3-0.5-0.7-0.7-1.3c-0.1-0.4-0.2-0.9-0.2-1.4
				c0-0.6,0-1,0.1-1.4c0.1-0.6,0.3-1,0.7-1.3c0.3-0.3,0.8-0.4,1.3-0.4c0.3,0,0.6,0.1,0.8,0.2c0.2,0.1,0.4,0.3,0.5,0.5c0,0,0,0,0,0
				c0,0,0,0,0,0V111C238.3,110.9,238.3,110.8,238.4,110.8z M238.2,116.2c0-0.7-0.1-1.2-0.2-1.5c-0.1-0.3-0.2-0.5-0.4-0.6
				s-0.4-0.2-0.7-0.2c-0.5,0-0.9,0.3-1.1,0.8c-0.2,0.4-0.2,0.9-0.2,1.6c0,0.6,0.1,1.1,0.2,1.5c0.1,0.3,0.2,0.5,0.4,0.7
				c0.2,0.2,0.4,0.2,0.7,0.2c0.3,0,0.5-0.1,0.7-0.2c0.2-0.2,0.3-0.4,0.4-0.7C238.2,117.4,238.2,116.9,238.2,116.2z"/>
			<path class="st2" d="M243.6,118.4c0.2-0.2,0.4-0.4,0.5-0.6c0-0.1,0.1-0.1,0.1-0.1l0.6,0.1c0,0,0.1,0,0.1,0.1c0,0,0,0.1,0,0.1
				c-0.1,0.4-0.4,0.8-0.7,1.1c-0.4,0.3-0.8,0.4-1.3,0.4c-0.6,0-1.1-0.2-1.4-0.5c-0.4-0.3-0.6-0.7-0.7-1.3c0-0.2-0.1-0.4-0.1-0.7
				c0-0.3,0-0.5,0-0.7s0-0.3,0-0.4c0-0.4,0-0.7,0-1c0.1-0.5,0.3-1,0.7-1.3s0.9-0.5,1.4-0.5c0.6,0,1.1,0.2,1.5,0.5
				c0.4,0.4,0.6,0.8,0.6,1.4c0,0.3,0,0.7,0,1.5c0,0.1,0,0.1-0.1,0.1h-3.3c0,0,0,0,0,0c0,0.2,0,0.5,0,0.8c0,0.3,0.2,0.6,0.4,0.8
				c0.2,0.2,0.5,0.3,0.9,0.3C243.1,118.6,243.4,118.5,243.6,118.4z M241.9,114.1c-0.2,0.2-0.4,0.5-0.4,0.8c0,0.3,0,0.6,0,0.8
				c0,0,0,0,0,0h2.5c0,0,0,0,0,0c0-0.2,0-0.5,0-0.8c0-0.3-0.2-0.6-0.4-0.8c-0.2-0.2-0.5-0.3-0.9-0.3
				C242.4,113.8,242.1,113.9,241.9,114.1z"/>
			<path class="st2" d="M252.2,113.2h0.6c0.1,0,0.1,0,0.1,0.1v5.8c0,0.1,0,0.1-0.1,0.1h-0.6c-0.1,0-0.1,0-0.1-0.1v-0.5c0,0,0,0,0,0
				c0,0,0,0,0,0c-0.3,0.5-0.7,0.7-1.4,0.7c-0.5,0-1-0.2-1.3-0.5c-0.3-0.3-0.5-0.8-0.5-1.4v-4.2c0-0.1,0-0.1,0.1-0.1h0.6
				c0.1,0,0.1,0,0.1,0.1v3.9c0,0.4,0.1,0.8,0.3,1c0.2,0.2,0.5,0.4,0.9,0.4c0.4,0,0.7-0.1,0.9-0.4c0.2-0.3,0.3-0.6,0.3-1v-3.9
				C252.1,113.2,252.1,113.2,252.2,113.2z"/>
			<path class="st2" d="M258.3,113.6c0.3,0.4,0.5,0.8,0.5,1.5v4c0,0.1,0,0.1-0.1,0.1H258c-0.1,0-0.1,0-0.1-0.1v-3.9
				c0-0.4-0.1-0.7-0.3-1s-0.5-0.4-0.9-0.4s-0.7,0.1-0.9,0.4c-0.2,0.3-0.3,0.6-0.3,1v3.9c0,0.1,0,0.1-0.1,0.1h-0.6
				c-0.1,0-0.1,0-0.1-0.1v-5.8c0-0.1,0-0.1,0.1-0.1h0.6c0.1,0,0.1,0,0.1,0.1v0.5c0,0,0,0,0,0c0,0,0,0,0,0c0.3-0.5,0.8-0.7,1.4-0.7
				C257.5,113.1,257.9,113.3,258.3,113.6z"/>
			<path class="st2" d="M263.8,113.6c0.4,0.4,0.5,0.9,0.5,1.5v4c0,0.1,0,0.1-0.1,0.1h-0.6c-0.1,0-0.1,0-0.1-0.1v-0.4c0,0,0,0,0,0
				c0,0,0,0,0,0c-0.2,0.2-0.4,0.4-0.7,0.5c-0.3,0.1-0.6,0.2-0.9,0.2c-0.5,0-0.9-0.1-1.3-0.4c-0.4-0.3-0.5-0.7-0.5-1.3
				c0-0.6,0.2-1.1,0.6-1.5s1-0.5,1.7-0.5h1.1c0,0,0,0,0,0v-0.5c0-0.4-0.1-0.7-0.3-1c-0.2-0.2-0.5-0.4-0.9-0.4
				c-0.3,0-0.6,0.1-0.8,0.2c-0.2,0.2-0.3,0.4-0.4,0.6c0,0.1-0.1,0.1-0.1,0.1l-0.7,0c0,0-0.1,0-0.1,0c0,0,0-0.1,0-0.1
				c0.1-0.5,0.3-0.8,0.7-1.1c0.4-0.3,0.9-0.4,1.4-0.4C263,113.1,263.5,113.3,263.8,113.6z M263.1,118.3c0.3-0.2,0.4-0.5,0.4-0.9v-1
				c0,0,0,0,0,0h-1.1c-0.5,0-0.8,0.1-1.1,0.3c-0.3,0.2-0.4,0.5-0.4,0.9c0,0.4,0.1,0.6,0.3,0.8c0.2,0.2,0.5,0.3,0.8,0.3
				C262.4,118.6,262.8,118.5,263.1,118.3z"/>
		</g>
		<g class="st1">
			<path class="st2" d="M41.1,130.6c0,0.5,0,1-0.1,1.4c-0.1,0.6-0.4,1-0.7,1.3c-0.3,0.3-0.8,0.4-1.3,0.4c-0.3,0-0.6-0.1-0.8-0.2
				c-0.2-0.1-0.4-0.3-0.5-0.5c0,0,0,0,0,0c0,0,0,0,0,0v2.8c0,0.1,0,0.1-0.1,0.1h-0.6c-0.1,0-0.1,0-0.1-0.1v-8.2c0-0.1,0-0.1,0.1-0.1
				h0.6c0.1,0,0.1,0,0.1,0.1v0.5c0,0,0,0,0,0s0,0,0,0c0.3-0.5,0.7-0.7,1.4-0.7c0.5,0,0.9,0.1,1.2,0.4c0.3,0.3,0.5,0.7,0.7,1.3
				C41.1,129.6,41.1,130.1,41.1,130.6z M40.2,130.6c0-0.6-0.1-1.1-0.2-1.5c-0.1-0.3-0.2-0.5-0.4-0.7s-0.4-0.2-0.7-0.2
				c-0.3,0-0.5,0.1-0.7,0.2c-0.2,0.2-0.3,0.4-0.4,0.7c-0.1,0.4-0.2,0.9-0.2,1.5c0,0.7,0.1,1.2,0.2,1.5c0.1,0.3,0.2,0.5,0.4,0.6
				c0.2,0.1,0.4,0.2,0.6,0.2c0.5,0,0.9-0.3,1.1-0.8C40.2,131.8,40.2,131.3,40.2,130.6z"/>
		</g>
		<g class="st1">
			<path class="st2" d="M45.5,127.7c0.1,0,0.1,0.1,0.1,0.1l-0.1,0.6c0,0.1-0.1,0.1-0.1,0.1c-0.1-0.1-0.3-0.1-0.4-0.1l-0.1,0
				c-0.4,0-0.6,0.2-0.9,0.5s-0.3,0.7-0.3,1.1v3.6c0,0.1,0,0.1-0.1,0.1h-0.6c-0.1,0-0.1,0-0.1-0.1v-5.8c0-0.1,0-0.1,0.1-0.1h0.6
				c0.1,0,0.1,0,0.1,0.1v0.8c0,0,0,0,0,0c0,0,0,0,0,0c0.1-0.3,0.3-0.5,0.5-0.7s0.5-0.3,0.8-0.3C45.1,127.5,45.3,127.6,45.5,127.7z"
				/>
		</g>
		<g class="st1">
			<path class="st2" d="M47.1,133.3c-0.4-0.3-0.6-0.7-0.7-1.3c0-0.4-0.1-0.9-0.1-1.4s0-1,0.1-1.4c0.1-0.5,0.3-1,0.7-1.3
				c0.4-0.3,0.9-0.5,1.4-0.5s1.1,0.2,1.4,0.5c0.4,0.3,0.6,0.7,0.7,1.3c0,0.3,0.1,0.8,0.1,1.4c0,0.6,0,1.1-0.1,1.4
				c-0.1,0.5-0.3,1-0.7,1.3c-0.4,0.3-0.9,0.5-1.4,0.5S47.5,133.6,47.1,133.3z M49.4,132.7c0.2-0.2,0.4-0.5,0.4-0.8
				c0-0.3,0-0.7,0-1.2c0-0.5,0-0.9,0-1.2c0-0.4-0.2-0.6-0.4-0.8c-0.2-0.2-0.5-0.3-0.9-0.3s-0.6,0.1-0.9,0.3
				c-0.2,0.2-0.4,0.5-0.4,0.8c0,0.3,0,0.7,0,1.2s0,0.9,0,1.2c0,0.4,0.2,0.6,0.4,0.8c0.2,0.2,0.5,0.3,0.9,0.3
				C48.9,133,49.2,132.9,49.4,132.7z"/>
			<path class="st2" d="M55.6,127.6h0.6c0.1,0,0.1,0,0.1,0.1v5.8c0,1.8-1,2.7-3,2.6c-0.1,0-0.1-0.1-0.1-0.1l0-0.5c0,0,0-0.1,0-0.1
				c0,0,0.1,0,0.1,0c0.8,0,1.3-0.1,1.6-0.4c0.3-0.3,0.5-0.8,0.5-1.4V133c0,0,0,0,0,0c0,0,0,0,0,0c-0.3,0.4-0.8,0.7-1.4,0.7
				c-0.5,0-0.9-0.2-1.3-0.5c-0.3-0.3-0.6-0.7-0.6-1.3c0-0.4-0.1-0.8-0.1-1.4c0-0.6,0-1.1,0.1-1.4c0.1-0.5,0.3-0.9,0.6-1.2
				c0.3-0.3,0.8-0.5,1.3-0.5c0.6,0,1.1,0.2,1.4,0.7c0,0,0,0,0,0c0,0,0,0,0,0v-0.4C55.5,127.6,55.5,127.6,55.6,127.6z M55.5,130.6
				c0-0.5,0-0.9,0-1.2c0-0.3-0.2-0.6-0.4-0.8c-0.2-0.2-0.5-0.3-0.8-0.3c-0.3,0-0.6,0.1-0.9,0.3c-0.2,0.2-0.4,0.5-0.4,0.8
				c0,0.3,0,0.7,0,1.2c0,0.4,0,0.8,0,1.2c0,0.3,0.2,0.6,0.4,0.8c0.2,0.2,0.5,0.3,0.9,0.3c0.3,0,0.6-0.1,0.8-0.3
				c0.2-0.2,0.3-0.5,0.4-0.8C55.5,131.5,55.5,131.1,55.5,130.6z"/>
		</g>
		<g class="st1">
			<path class="st2" d="M60.8,127.7c0.1,0,0.1,0.1,0.1,0.1l-0.1,0.6c0,0.1-0.1,0.1-0.1,0.1c-0.1-0.1-0.3-0.1-0.4-0.1l-0.1,0
				c-0.4,0-0.6,0.2-0.9,0.5s-0.3,0.7-0.3,1.1v3.6c0,0.1,0,0.1-0.1,0.1H58c-0.1,0-0.1,0-0.1-0.1v-5.8c0-0.1,0-0.1,0.1-0.1h0.6
				c0.1,0,0.1,0,0.1,0.1v0.8c0,0,0,0,0,0c0,0,0,0,0,0c0.1-0.3,0.3-0.5,0.5-0.7s0.5-0.3,0.8-0.3C60.4,127.5,60.6,127.6,60.8,127.7z"
				/>
		</g>
		<g class="st1">
			<path class="st2" d="M64.6,132.8c0.2-0.2,0.4-0.4,0.5-0.6c0-0.1,0.1-0.1,0.1-0.1l0.6,0.1c0,0,0.1,0,0.1,0.1c0,0,0,0.1,0,0.1
				c-0.1,0.4-0.4,0.8-0.7,1.1s-0.8,0.4-1.3,0.4c-0.6,0-1.1-0.2-1.4-0.5c-0.4-0.3-0.6-0.7-0.7-1.3c0-0.2-0.1-0.4-0.1-0.7
				c0-0.3,0-0.5,0-0.7s0-0.3,0-0.4c0-0.4,0-0.7,0-1c0.1-0.5,0.3-1,0.7-1.3c0.4-0.3,0.9-0.5,1.4-0.5c0.6,0,1.1,0.2,1.5,0.5
				c0.4,0.4,0.6,0.8,0.6,1.4c0,0.3,0,0.7,0,1.5c0,0.1,0,0.1-0.1,0.1h-3.3c0,0,0,0,0,0c0,0.2,0,0.5,0,0.8c0,0.3,0.2,0.6,0.4,0.8
				s0.5,0.3,0.9,0.3C64.2,133,64.4,132.9,64.6,132.8z M62.9,128.5c-0.2,0.2-0.4,0.5-0.4,0.8c0,0.3,0,0.6,0,0.8c0,0,0,0,0,0h2.5
				c0,0,0,0,0,0c0-0.2,0-0.5,0-0.8c0-0.3-0.2-0.6-0.4-0.8c-0.2-0.2-0.5-0.3-0.9-0.3C63.5,128.2,63.2,128.3,62.9,128.5z"/>
		</g>
		<g class="st1">
			<path class="st2" d="M67.7,133.3c-0.4-0.3-0.6-0.7-0.6-1.1V132c0-0.1,0-0.1,0.1-0.1h0.6c0.1,0,0.1,0,0.1,0.1v0.1
				c0,0.3,0.1,0.5,0.3,0.7c0.2,0.2,0.5,0.3,0.9,0.3c0.4,0,0.6-0.1,0.9-0.3c0.2-0.2,0.3-0.4,0.3-0.7c0-0.2-0.1-0.4-0.2-0.5
				c-0.1-0.1-0.3-0.2-0.4-0.3c-0.2-0.1-0.4-0.2-0.7-0.3c-0.4-0.1-0.7-0.3-0.9-0.4c-0.2-0.1-0.5-0.3-0.6-0.5
				c-0.2-0.2-0.3-0.5-0.3-0.9c0-0.5,0.2-0.9,0.5-1.2c0.4-0.3,0.8-0.5,1.4-0.5c0.6,0,1.1,0.2,1.5,0.5c0.4,0.3,0.5,0.7,0.5,1.2v0
				c0,0.1,0,0.1-0.1,0.1h-0.6c-0.1,0-0.1,0-0.1-0.1v0c0-0.3-0.1-0.5-0.3-0.7c-0.2-0.2-0.5-0.3-0.9-0.3c-0.3,0-0.6,0.1-0.8,0.3
				s-0.3,0.4-0.3,0.7c0,0.3,0.1,0.5,0.3,0.6s0.5,0.3,1,0.5c0.4,0.1,0.7,0.3,1,0.4s0.5,0.3,0.7,0.5c0.2,0.2,0.3,0.5,0.3,0.9
				c0,0.5-0.2,0.9-0.6,1.2c-0.4,0.3-0.9,0.5-1.5,0.5S68.1,133.6,67.7,133.3z"/>
			<path class="st2" d="M72.6,126.3c-0.1-0.1-0.2-0.3-0.2-0.5c0-0.2,0.1-0.4,0.2-0.5s0.3-0.2,0.5-0.2c0.2,0,0.4,0.1,0.5,0.2
				s0.2,0.3,0.2,0.5c0,0.2-0.1,0.4-0.2,0.5s-0.3,0.2-0.5,0.2C72.9,126.5,72.7,126.4,72.6,126.3z M72.6,133.5v-5.8
				c0-0.1,0-0.1,0.1-0.1h0.6c0.1,0,0.1,0,0.1,0.1v5.8c0,0.1,0,0.1-0.1,0.1h-0.6C72.7,133.7,72.6,133.6,72.6,133.5z"/>
			<path class="st2" d="M75.9,133.3c-0.4-0.3-0.6-0.7-0.7-1.3c0-0.4-0.1-0.9-0.1-1.4s0-1,0.1-1.4c0.1-0.5,0.3-1,0.7-1.3
				c0.4-0.3,0.9-0.5,1.4-0.5s1.1,0.2,1.4,0.5c0.4,0.3,0.6,0.7,0.7,1.3c0,0.3,0.1,0.8,0.1,1.4c0,0.6,0,1.1-0.1,1.4
				c-0.1,0.5-0.3,1-0.7,1.3c-0.4,0.3-0.9,0.5-1.4,0.5S76.3,133.6,75.9,133.3z M78.2,132.7c0.2-0.2,0.4-0.5,0.4-0.8
				c0-0.3,0-0.7,0-1.2c0-0.5,0-0.9,0-1.2c0-0.4-0.2-0.6-0.4-0.8c-0.2-0.2-0.5-0.3-0.9-0.3s-0.6,0.1-0.9,0.3
				c-0.2,0.2-0.4,0.5-0.4,0.8c0,0.3,0,0.7,0,1.2s0,0.9,0,1.2c0,0.4,0.2,0.6,0.4,0.8c0.2,0.2,0.5,0.3,0.9,0.3
				C77.7,133,78,132.9,78.2,132.7z M76.8,126.7c0,0,0-0.1,0-0.1l0.7-1.3c0-0.1,0.1-0.1,0.1-0.1h0.5c0,0,0.1,0,0.1,0c0,0,0,0.1,0,0.1
				l-0.8,1.3c0,0.1-0.1,0.1-0.1,0.1L76.8,126.7C76.9,126.8,76.8,126.8,76.8,126.7z"/>
			<path class="st2" d="M84.7,128c0.3,0.4,0.5,0.8,0.5,1.5v4c0,0.1,0,0.1-0.1,0.1h-0.6c-0.1,0-0.1,0-0.1-0.1v-3.9
				c0-0.4-0.1-0.7-0.3-1c-0.2-0.2-0.5-0.4-0.9-0.4s-0.7,0.1-0.9,0.4s-0.3,0.6-0.3,1v3.9c0,0.1,0,0.1-0.1,0.1h-0.6
				c-0.1,0-0.1,0-0.1-0.1v-5.8c0-0.1,0-0.1,0.1-0.1h0.6c0.1,0,0.1,0,0.1,0.1v0.5c0,0,0,0,0,0c0,0,0,0,0,0c0.3-0.5,0.8-0.7,1.4-0.7
				C83.9,127.5,84.4,127.7,84.7,128z"/>
			<path class="st2" d="M90.6,126.2c-0.1,0.2-0.2,0.5-0.2,1v0.3c0,0,0,0,0,0h1.1c0.1,0,0.1,0,0.1,0.1v0.5c0,0.1,0,0.1-0.1,0.1h-1.1
				c0,0,0,0,0,0v5.2c0,0.1,0,0.1-0.1,0.1h-0.6c-0.1,0-0.1,0-0.1-0.1v-5.2c0,0,0,0,0,0h-0.6c-0.1,0-0.1,0-0.1-0.1v-0.5
				c0-0.1,0-0.1,0.1-0.1h0.6c0,0,0,0,0,0v-0.3c0-0.7,0.1-1.2,0.4-1.5c0.3-0.3,0.7-0.5,1.4-0.5h0.3c0.1,0,0.1,0,0.1,0.1v0.5
				c0,0.1,0,0.1-0.1,0.1h-0.2C91,125.9,90.7,126,90.6,126.2z M93,126.3c-0.1-0.1-0.2-0.3-0.2-0.5c0-0.2,0.1-0.4,0.2-0.5
				c0.1-0.1,0.3-0.2,0.5-0.2c0.2,0,0.4,0.1,0.5,0.2s0.2,0.3,0.2,0.5c0,0.2-0.1,0.4-0.2,0.5s-0.3,0.2-0.5,0.2
				C93.3,126.5,93.2,126.4,93,126.3z M93.1,133.5v-5.8c0-0.1,0-0.1,0.1-0.1h0.6c0.1,0,0.1,0,0.1,0.1v5.8c0,0.1,0,0.1-0.1,0.1h-0.6
				C93.1,133.7,93.1,133.6,93.1,133.5z"/>
			<path class="st2" d="M94.5,136v-0.5c0-0.1,0-0.1,0.1-0.1c0.4,0,0.7-0.1,0.8-0.3s0.3-0.5,0.3-0.9l0-6.5c0-0.1,0-0.1,0.1-0.1h0.6
				c0.1,0,0.1,0,0.1,0.1v6.5c0,0.7-0.1,1.2-0.4,1.5c-0.3,0.3-0.8,0.5-1.5,0.5C94.6,136.1,94.5,136.1,94.5,136z M95.7,126.3
				c-0.1-0.1-0.2-0.3-0.2-0.5c0-0.2,0.1-0.4,0.2-0.5c0.1-0.1,0.3-0.2,0.5-0.2c0.2,0,0.4,0.1,0.5,0.2c0.1,0.1,0.2,0.3,0.2,0.5
				c0,0.2-0.1,0.4-0.2,0.5c-0.1,0.1-0.3,0.2-0.5,0.2C96,126.5,95.9,126.4,95.7,126.3z"/>
			<path class="st2" d="M101.9,128c0.4,0.4,0.5,0.9,0.5,1.5v4c0,0.1,0,0.1-0.1,0.1h-0.6c-0.1,0-0.1,0-0.1-0.1v-0.4c0,0,0,0,0,0
				c0,0,0,0,0,0c-0.2,0.2-0.4,0.4-0.7,0.5c-0.3,0.1-0.6,0.2-0.9,0.2c-0.5,0-0.9-0.1-1.3-0.4c-0.4-0.3-0.5-0.7-0.5-1.3
				c0-0.6,0.2-1.1,0.6-1.5s1-0.5,1.7-0.5h1.1c0,0,0,0,0,0v-0.5c0-0.4-0.1-0.7-0.3-1c-0.2-0.2-0.5-0.4-0.9-0.4
				c-0.3,0-0.6,0.1-0.8,0.2c-0.2,0.2-0.3,0.4-0.4,0.6c0,0.1-0.1,0.1-0.1,0.1l-0.7,0c0,0-0.1,0-0.1,0c0,0,0-0.1,0-0.1
				c0.1-0.5,0.3-0.8,0.7-1.1c0.4-0.3,0.9-0.4,1.4-0.4C101,127.5,101.5,127.7,101.9,128z M101.1,132.7c0.3-0.2,0.4-0.5,0.4-0.9v-1
				c0,0,0,0,0,0h-1.1c-0.5,0-0.8,0.1-1.1,0.3S99,131.6,99,132c0,0.4,0.1,0.6,0.3,0.8c0.2,0.2,0.5,0.3,0.8,0.3
				C100.5,133,100.8,132.9,101.1,132.7z"/>
			<path class="st2" d="M109.8,125.2h0.6c0.1,0,0.1,0,0.1,0.1v8.2c0,0.1,0,0.1-0.1,0.1h-0.6c-0.1,0-0.1,0-0.1-0.1v-0.5c0,0,0,0,0,0
				c0,0,0,0,0,0c-0.3,0.5-0.8,0.7-1.4,0.7c-0.5,0-0.9-0.1-1.2-0.4c-0.3-0.3-0.5-0.7-0.7-1.3c-0.1-0.4-0.2-0.9-0.2-1.4
				c0-0.6,0-1,0.1-1.4c0.1-0.6,0.3-1,0.7-1.3c0.3-0.3,0.8-0.4,1.3-0.4c0.3,0,0.6,0.1,0.8,0.2c0.2,0.1,0.4,0.3,0.5,0.5c0,0,0,0,0,0
				s0,0,0,0v-2.8C109.7,125.3,109.7,125.2,109.8,125.2z M109.6,130.6c0-0.7-0.1-1.2-0.2-1.5c-0.1-0.3-0.2-0.5-0.4-0.6
				s-0.4-0.2-0.7-0.2c-0.5,0-0.9,0.3-1.1,0.8c-0.2,0.4-0.2,0.9-0.2,1.6c0,0.6,0.1,1.1,0.2,1.5c0.1,0.3,0.2,0.5,0.4,0.7
				c0.2,0.2,0.4,0.2,0.7,0.2c0.3,0,0.5-0.1,0.7-0.2c0.2-0.2,0.3-0.4,0.4-0.7C109.6,131.8,109.6,131.3,109.6,130.6z"/>
			<path class="st2" d="M115,132.8c0.2-0.2,0.4-0.4,0.5-0.6c0-0.1,0.1-0.1,0.1-0.1l0.6,0.1c0,0,0.1,0,0.1,0.1c0,0,0,0.1,0,0.1
				c-0.1,0.4-0.4,0.8-0.7,1.1s-0.8,0.4-1.3,0.4c-0.6,0-1.1-0.2-1.4-0.5c-0.4-0.3-0.6-0.7-0.7-1.3c0-0.2-0.1-0.4-0.1-0.7
				c0-0.3,0-0.5,0-0.7s0-0.3,0-0.4c0-0.4,0-0.7,0-1c0.1-0.5,0.3-1,0.7-1.3c0.4-0.3,0.9-0.5,1.4-0.5c0.6,0,1.1,0.2,1.5,0.5
				c0.4,0.4,0.6,0.8,0.6,1.4c0,0.3,0,0.7,0,1.5c0,0.1,0,0.1-0.1,0.1h-3.3c0,0,0,0,0,0c0,0.2,0,0.5,0,0.8c0,0.3,0.2,0.6,0.4,0.8
				s0.5,0.3,0.9,0.3C114.5,133,114.8,132.9,115,132.8z M113.3,128.5c-0.2,0.2-0.4,0.5-0.4,0.8c0,0.3,0,0.6,0,0.8c0,0,0,0,0,0h2.5
				c0,0,0,0,0,0c0-0.2,0-0.5,0-0.8c0-0.3-0.2-0.6-0.4-0.8c-0.2-0.2-0.5-0.3-0.9-0.3C113.8,128.2,113.5,128.3,113.3,128.5z"/>
		</g>
		<g class="st1">
			<path class="st2" d="M123.1,132.8c0.2-0.2,0.4-0.4,0.5-0.6c0-0.1,0.1-0.1,0.1-0.1l0.6,0.1c0,0,0.1,0,0.1,0.1c0,0,0,0.1,0,0.1
				c-0.1,0.4-0.4,0.8-0.7,1.1s-0.8,0.4-1.3,0.4c-0.6,0-1.1-0.2-1.4-0.5c-0.4-0.3-0.6-0.7-0.7-1.3c0-0.2-0.1-0.4-0.1-0.7
				c0-0.3,0-0.5,0-0.7s0-0.3,0-0.4c0-0.4,0-0.7,0-1c0.1-0.5,0.3-1,0.7-1.3c0.4-0.3,0.9-0.5,1.4-0.5c0.6,0,1.1,0.2,1.5,0.5
				c0.4,0.4,0.6,0.8,0.6,1.4c0,0.3,0,0.7,0,1.5c0,0.1,0,0.1-0.1,0.1H121c0,0,0,0,0,0c0,0.2,0,0.5,0,0.8c0,0.3,0.2,0.6,0.4,0.8
				s0.5,0.3,0.9,0.3C122.6,133,122.8,132.9,123.1,132.8z M121.4,128.5c-0.2,0.2-0.4,0.5-0.4,0.8c0,0.3,0,0.6,0,0.8c0,0,0,0,0,0h2.5
				c0,0,0,0,0,0c0-0.2,0-0.5,0-0.8c0-0.3-0.2-0.6-0.4-0.8c-0.2-0.2-0.5-0.3-0.9-0.3C121.9,128.2,121.6,128.3,121.4,128.5z"/>
		</g>
		<g class="st1">
			<path class="st2" d="M128.1,128.2H127c0,0,0,0,0,0v3.6c0,0.4,0.1,0.6,0.2,0.8c0.1,0.1,0.4,0.2,0.7,0.2h0.2c0.1,0,0.1,0,0.1,0.1
				v0.5c0,0.1,0,0.1-0.1,0.1l-0.4,0c-0.5,0-0.9-0.1-1.2-0.3s-0.4-0.6-0.4-1.2v-3.9c0,0,0,0,0,0h-0.6c-0.1,0-0.1,0-0.1-0.1v-0.4
				c0-0.1,0-0.1,0.1-0.1h0.6c0,0,0,0,0,0v-1.4c0-0.1,0-0.1,0.1-0.1h0.6c0.1,0,0.1,0,0.1,0.1v1.4c0,0,0,0,0,0h1.1
				c0.1,0,0.1,0,0.1,0.1v0.4C128.2,128.2,128.2,128.2,128.1,128.2z"/>
			<path class="st2" d="M133,128c0.4,0.4,0.5,0.9,0.5,1.5v4c0,0.1,0,0.1-0.1,0.1h-0.6c-0.1,0-0.1,0-0.1-0.1v-0.4c0,0,0,0,0,0
				c0,0,0,0,0,0c-0.2,0.2-0.4,0.4-0.7,0.5c-0.3,0.1-0.6,0.2-0.9,0.2c-0.5,0-0.9-0.1-1.3-0.4c-0.4-0.3-0.5-0.7-0.5-1.3
				c0-0.6,0.2-1.1,0.6-1.5s1-0.5,1.7-0.5h1.1c0,0,0,0,0,0v-0.5c0-0.4-0.1-0.7-0.3-1c-0.2-0.2-0.5-0.4-0.9-0.4
				c-0.3,0-0.6,0.1-0.8,0.2c-0.2,0.2-0.3,0.4-0.4,0.6c0,0.1-0.1,0.1-0.1,0.1l-0.7,0c0,0-0.1,0-0.1,0c0,0,0-0.1,0-0.1
				c0.1-0.5,0.3-0.8,0.7-1.1c0.4-0.3,0.9-0.4,1.4-0.4C132.2,127.5,132.7,127.7,133,128z M132.3,132.7c0.3-0.2,0.4-0.5,0.4-0.9v-1
				c0,0,0,0,0,0h-1.1c-0.5,0-0.8,0.1-1.1,0.3s-0.4,0.5-0.4,0.9c0,0.4,0.1,0.6,0.3,0.8c0.2,0.2,0.5,0.3,0.8,0.3
				C131.7,133,132,132.9,132.3,132.7z"/>
			<path class="st2" d="M139.5,130.6c0,0.5,0,1-0.1,1.4c-0.1,0.6-0.4,1-0.7,1.3c-0.3,0.3-0.8,0.4-1.3,0.4c-0.3,0-0.6-0.1-0.8-0.2
				c-0.2-0.1-0.4-0.3-0.5-0.5c0,0,0,0,0,0c0,0,0,0,0,0v2.8c0,0.1,0,0.1-0.1,0.1h-0.6c-0.1,0-0.1,0-0.1-0.1v-8.2c0-0.1,0-0.1,0.1-0.1
				h0.6c0.1,0,0.1,0,0.1,0.1v0.5c0,0,0,0,0,0s0,0,0,0c0.3-0.5,0.7-0.7,1.4-0.7c0.5,0,0.9,0.1,1.2,0.4c0.3,0.3,0.5,0.7,0.7,1.3
				C139.5,129.6,139.5,130.1,139.5,130.6z M138.7,130.6c0-0.6-0.1-1.1-0.2-1.5c-0.1-0.3-0.2-0.5-0.4-0.7s-0.4-0.2-0.7-0.2
				c-0.3,0-0.5,0.1-0.7,0.2c-0.2,0.2-0.3,0.4-0.4,0.7c-0.1,0.4-0.2,0.9-0.2,1.5c0,0.7,0.1,1.2,0.2,1.5c0.1,0.3,0.2,0.5,0.4,0.6
				c0.2,0.1,0.4,0.2,0.6,0.2c0.5,0,0.9-0.3,1.1-0.8C138.6,131.8,138.7,131.3,138.7,130.6z"/>
			<path class="st2" d="M144.5,128c0.4,0.4,0.5,0.9,0.5,1.5v4c0,0.1,0,0.1-0.1,0.1h-0.6c-0.1,0-0.1,0-0.1-0.1v-0.4c0,0,0,0,0,0
				c0,0,0,0,0,0c-0.2,0.2-0.4,0.4-0.7,0.5c-0.3,0.1-0.6,0.2-0.9,0.2c-0.5,0-0.9-0.1-1.3-0.4c-0.4-0.3-0.5-0.7-0.5-1.3
				c0-0.6,0.2-1.1,0.6-1.5s1-0.5,1.7-0.5h1.1c0,0,0,0,0,0v-0.5c0-0.4-0.1-0.7-0.3-1c-0.2-0.2-0.5-0.4-0.9-0.4
				c-0.3,0-0.6,0.1-0.8,0.2c-0.2,0.2-0.3,0.4-0.4,0.6c0,0.1-0.1,0.1-0.1,0.1l-0.7,0c0,0-0.1,0-0.1,0c0,0,0-0.1,0-0.1
				c0.1-0.5,0.3-0.8,0.7-1.1c0.4-0.3,0.9-0.4,1.4-0.4C143.6,127.5,144.1,127.7,144.5,128z M143.7,132.7c0.3-0.2,0.4-0.5,0.4-0.9v-1
				c0,0,0,0,0,0h-1.1c-0.5,0-0.8,0.1-1.1,0.3s-0.4,0.5-0.4,0.9c0,0.4,0.1,0.6,0.3,0.8c0.2,0.2,0.5,0.3,0.8,0.3
				C143.1,133,143.4,132.9,143.7,132.7z"/>
			<path class="st2" d="M146.9,133.3c-0.4-0.3-0.6-0.7-0.6-1.1V132c0-0.1,0-0.1,0.1-0.1h0.6c0.1,0,0.1,0,0.1,0.1v0.1
				c0,0.3,0.1,0.5,0.3,0.7c0.2,0.2,0.5,0.3,0.9,0.3c0.4,0,0.6-0.1,0.9-0.3c0.2-0.2,0.3-0.4,0.3-0.7c0-0.2-0.1-0.4-0.2-0.5
				c-0.1-0.1-0.3-0.2-0.4-0.3c-0.2-0.1-0.4-0.2-0.7-0.3c-0.4-0.1-0.7-0.3-0.9-0.4c-0.2-0.1-0.5-0.3-0.6-0.5
				c-0.2-0.2-0.3-0.5-0.3-0.9c0-0.5,0.2-0.9,0.5-1.2c0.4-0.3,0.8-0.5,1.4-0.5c0.6,0,1.1,0.2,1.5,0.5c0.4,0.3,0.5,0.7,0.5,1.2v0
				c0,0.1,0,0.1-0.1,0.1h-0.6c-0.1,0-0.1,0-0.1-0.1v0c0-0.3-0.1-0.5-0.3-0.7c-0.2-0.2-0.5-0.3-0.9-0.3c-0.3,0-0.6,0.1-0.8,0.3
				s-0.3,0.4-0.3,0.7c0,0.3,0.1,0.5,0.3,0.6s0.5,0.3,1,0.5c0.4,0.1,0.7,0.3,1,0.4s0.5,0.3,0.7,0.5c0.2,0.2,0.3,0.5,0.3,0.9
				c0,0.5-0.2,0.9-0.6,1.2c-0.4,0.3-0.9,0.5-1.5,0.5S147.2,133.6,146.9,133.3z"/>
		</g>
		<g class="st1">
			<path class="st2" d="M157,127.7c0.1,0,0.1,0.1,0.1,0.1l-0.1,0.6c0,0.1-0.1,0.1-0.1,0.1c-0.1-0.1-0.3-0.1-0.4-0.1l-0.1,0
				c-0.4,0-0.6,0.2-0.9,0.5s-0.3,0.7-0.3,1.1v3.6c0,0.1,0,0.1-0.1,0.1h-0.6c-0.1,0-0.1,0-0.1-0.1v-5.8c0-0.1,0-0.1,0.1-0.1h0.6
				c0.1,0,0.1,0,0.1,0.1v0.8c0,0,0,0,0,0c0,0,0,0,0,0c0.1-0.3,0.3-0.5,0.5-0.7s0.5-0.3,0.8-0.3C156.6,127.5,156.8,127.6,157,127.7z"
				/>
		</g>
		<g class="st1">
			<path class="st2" d="M160.8,132.8c0.2-0.2,0.4-0.4,0.5-0.6c0-0.1,0.1-0.1,0.1-0.1l0.6,0.1c0,0,0.1,0,0.1,0.1c0,0,0,0.1,0,0.1
				c-0.1,0.4-0.4,0.8-0.7,1.1c-0.4,0.3-0.8,0.4-1.3,0.4c-0.6,0-1.1-0.2-1.4-0.5c-0.4-0.3-0.6-0.7-0.7-1.3c0-0.2-0.1-0.4-0.1-0.7
				c0-0.3,0-0.5,0-0.7s0-0.3,0-0.4c0-0.4,0-0.7,0-1c0.1-0.5,0.3-1,0.7-1.3s0.9-0.5,1.4-0.5c0.6,0,1.1,0.2,1.5,0.5
				c0.4,0.4,0.6,0.8,0.6,1.4c0,0.3,0,0.7,0,1.5c0,0.1,0,0.1-0.1,0.1h-3.3c0,0,0,0,0,0c0,0.2,0,0.5,0,0.8c0,0.3,0.2,0.6,0.4,0.8
				c0.2,0.2,0.5,0.3,0.9,0.3C160.3,133,160.6,132.9,160.8,132.8z M159.1,128.5c-0.2,0.2-0.4,0.5-0.4,0.8c0,0.3,0,0.6,0,0.8
				c0,0,0,0,0,0h2.5c0,0,0,0,0,0c0-0.2,0-0.5,0-0.8c0-0.3-0.2-0.6-0.4-0.8c-0.2-0.2-0.5-0.3-0.9-0.3
				C159.6,128.2,159.3,128.3,159.1,128.5z"/>
			<path class="st2" d="M163.6,133.5v-8.2c0-0.1,0-0.1,0.1-0.1h0.6c0.1,0,0.1,0,0.1,0.1v8.2c0,0.1,0,0.1-0.1,0.1h-0.6
				C163.6,133.7,163.6,133.6,163.6,133.5z"/>
			<path class="st2" d="M169.5,128c0.4,0.4,0.5,0.9,0.5,1.5v4c0,0.1,0,0.1-0.1,0.1h-0.6c-0.1,0-0.1,0-0.1-0.1v-0.4c0,0,0,0,0,0
				s0,0,0,0c-0.2,0.2-0.4,0.4-0.7,0.5c-0.3,0.1-0.6,0.2-0.9,0.2c-0.5,0-0.9-0.1-1.3-0.4c-0.4-0.3-0.5-0.7-0.5-1.3
				c0-0.6,0.2-1.1,0.6-1.5s1-0.5,1.7-0.5h1.1c0,0,0,0,0,0v-0.5c0-0.4-0.1-0.7-0.3-1c-0.2-0.2-0.5-0.4-0.9-0.4
				c-0.3,0-0.6,0.1-0.8,0.2c-0.2,0.2-0.3,0.4-0.4,0.6c0,0.1-0.1,0.1-0.1,0.1l-0.7,0c0,0-0.1,0-0.1,0c0,0,0-0.1,0-0.1
				c0.1-0.5,0.3-0.8,0.7-1.1c0.4-0.3,0.8-0.4,1.4-0.4C168.7,127.5,169.2,127.7,169.5,128z M168.8,132.7c0.3-0.2,0.4-0.5,0.4-0.9v-1
				c0,0,0,0,0,0h-1.1c-0.5,0-0.8,0.1-1.1,0.3c-0.3,0.2-0.4,0.5-0.4,0.9c0,0.4,0.1,0.6,0.3,0.8c0.2,0.2,0.5,0.3,0.8,0.3
				C168.2,133,168.5,132.9,168.8,132.7z"/>
			<path class="st2" d="M172.2,133.3c-0.4-0.3-0.6-0.7-0.7-1.3c0-0.4-0.1-0.9-0.1-1.4c0-0.4,0-0.9,0.1-1.4c0.1-0.5,0.3-0.9,0.7-1.3
				c0.4-0.3,0.9-0.5,1.4-0.5c0.6,0,1,0.2,1.4,0.5s0.6,0.7,0.7,1.1l0,0.3v0c0,0,0,0.1,0,0.1c0,0,0,0-0.1,0l-0.6,0
				c-0.1,0-0.1,0-0.1-0.1c0-0.1,0-0.1,0-0.1c0-0.3-0.2-0.5-0.4-0.7c-0.2-0.2-0.5-0.3-0.9-0.3c-0.4,0-0.6,0.1-0.9,0.3
				c-0.2,0.2-0.4,0.5-0.4,0.8s-0.1,0.8-0.1,1.2c0,0.5,0,0.9,0.1,1.2c0,0.4,0.2,0.6,0.4,0.8c0.2,0.2,0.5,0.3,0.9,0.3
				c0.4,0,0.6-0.1,0.9-0.3c0.2-0.2,0.4-0.4,0.4-0.7l0-0.1c0-0.1,0.1-0.1,0.1-0.1l0.6,0c0.1,0,0.1,0.1,0.1,0.1v0c0,0,0,0.1,0,0.1
				c-0.1,0.5-0.3,0.9-0.7,1.2c-0.4,0.3-0.9,0.5-1.4,0.5C173.1,133.7,172.6,133.6,172.2,133.3z"/>
			<path class="st2" d="M177.2,126.3c-0.1-0.1-0.2-0.3-0.2-0.5c0-0.2,0.1-0.4,0.2-0.5s0.3-0.2,0.5-0.2c0.2,0,0.4,0.1,0.5,0.2
				s0.2,0.3,0.2,0.5c0,0.2-0.1,0.4-0.2,0.5s-0.3,0.2-0.5,0.2C177.5,126.5,177.4,126.4,177.2,126.3z M177.3,133.5v-5.8
				c0-0.1,0-0.1,0.1-0.1h0.6c0.1,0,0.1,0,0.1,0.1v5.8c0,0.1,0,0.1-0.1,0.1h-0.6C177.3,133.7,177.3,133.6,177.3,133.5z"/>
			<path class="st2" d="M180.6,133.3c-0.4-0.3-0.6-0.7-0.7-1.3c0-0.4-0.1-0.9-0.1-1.4s0-1,0.1-1.4c0.1-0.5,0.3-1,0.7-1.3
				c0.4-0.3,0.9-0.5,1.4-0.5s1.1,0.2,1.4,0.5c0.4,0.3,0.6,0.7,0.7,1.3c0,0.3,0.1,0.8,0.1,1.4c0,0.6,0,1.1-0.1,1.4
				c-0.1,0.5-0.3,1-0.7,1.3s-0.9,0.5-1.4,0.5S180.9,133.6,180.6,133.3z M182.9,132.7c0.2-0.2,0.4-0.5,0.4-0.8c0-0.3,0-0.7,0-1.2
				c0-0.5,0-0.9,0-1.2c0-0.4-0.2-0.6-0.4-0.8c-0.2-0.2-0.5-0.3-0.9-0.3c-0.4,0-0.6,0.1-0.9,0.3c-0.2,0.2-0.4,0.5-0.4,0.8
				c0,0.3,0,0.7,0,1.2s0,0.9,0,1.2c0,0.4,0.2,0.6,0.4,0.8s0.5,0.3,0.9,0.3C182.3,133,182.6,132.9,182.9,132.7z"/>
			<path class="st2" d="M189.4,128c0.3,0.4,0.5,0.8,0.5,1.5v4c0,0.1,0,0.1-0.1,0.1h-0.6c-0.1,0-0.1,0-0.1-0.1v-3.9
				c0-0.4-0.1-0.7-0.3-1s-0.5-0.4-0.9-0.4s-0.7,0.1-0.9,0.4c-0.2,0.3-0.3,0.6-0.3,1v3.9c0,0.1,0,0.1-0.1,0.1h-0.6
				c-0.1,0-0.1,0-0.1-0.1v-5.8c0-0.1,0-0.1,0.1-0.1h0.6c0.1,0,0.1,0,0.1,0.1v0.5c0,0,0,0,0,0c0,0,0,0,0,0c0.3-0.5,0.8-0.7,1.4-0.7
				C188.6,127.5,189.1,127.7,189.4,128z"/>
			<path class="st2" d="M194.9,128c0.4,0.4,0.5,0.9,0.5,1.5v4c0,0.1,0,0.1-0.1,0.1h-0.6c-0.1,0-0.1,0-0.1-0.1v-0.4c0,0,0,0,0,0
				c0,0,0,0,0,0c-0.2,0.2-0.4,0.4-0.7,0.5c-0.3,0.1-0.6,0.2-0.9,0.2c-0.5,0-0.9-0.1-1.3-0.4c-0.4-0.3-0.5-0.7-0.5-1.3
				c0-0.6,0.2-1.1,0.6-1.5s1-0.5,1.7-0.5h1.1c0,0,0,0,0,0v-0.5c0-0.4-0.1-0.7-0.3-1c-0.2-0.2-0.5-0.4-0.9-0.4
				c-0.3,0-0.6,0.1-0.8,0.2c-0.2,0.2-0.3,0.4-0.4,0.6c0,0.1-0.1,0.1-0.1,0.1l-0.7,0c0,0-0.1,0-0.1,0c0,0,0-0.1,0-0.1
				c0.1-0.5,0.3-0.8,0.7-1.1c0.4-0.3,0.9-0.4,1.4-0.4C194.1,127.5,194.6,127.7,194.9,128z M194.2,132.7c0.3-0.2,0.4-0.5,0.4-0.9v-1
				c0,0,0,0,0,0h-1.1c-0.5,0-0.8,0.1-1.1,0.3c-0.3,0.2-0.4,0.5-0.4,0.9c0,0.4,0.1,0.6,0.3,0.8c0.2,0.2,0.5,0.3,0.8,0.3
				C193.6,133,193.9,132.9,194.2,132.7z"/>
			<path class="st2" d="M200.4,125.2h0.6c0.1,0,0.1,0,0.1,0.1v8.2c0,0.1,0,0.1-0.1,0.1h-0.6c-0.1,0-0.1,0-0.1-0.1v-0.5c0,0,0,0,0,0
				c0,0,0,0,0,0c-0.3,0.5-0.8,0.7-1.4,0.7c-0.5,0-0.9-0.1-1.2-0.4c-0.3-0.3-0.5-0.7-0.7-1.3c-0.1-0.4-0.2-0.9-0.2-1.4
				c0-0.6,0-1,0.1-1.4c0.1-0.6,0.3-1,0.7-1.3c0.3-0.3,0.8-0.4,1.3-0.4c0.3,0,0.6,0.1,0.8,0.2c0.2,0.1,0.4,0.3,0.5,0.5c0,0,0,0,0,0
				c0,0,0,0,0,0v-2.8C200.3,125.3,200.4,125.2,200.4,125.2z M200.3,130.6c0-0.7-0.1-1.2-0.2-1.5c-0.1-0.3-0.2-0.5-0.4-0.6
				s-0.4-0.2-0.7-0.2c-0.5,0-0.9,0.3-1.1,0.8c-0.2,0.4-0.2,0.9-0.2,1.6c0,0.6,0.1,1.1,0.2,1.5c0.1,0.3,0.2,0.5,0.4,0.7
				c0.2,0.2,0.4,0.2,0.7,0.2c0.3,0,0.5-0.1,0.7-0.2c0.2-0.2,0.3-0.4,0.4-0.7C200.2,131.8,200.3,131.3,200.3,130.6z"/>
			<path class="st2" d="M206.3,128c0.4,0.4,0.5,0.9,0.5,1.5v4c0,0.1,0,0.1-0.1,0.1h-0.6c-0.1,0-0.1,0-0.1-0.1v-0.4c0,0,0,0,0,0
				c0,0,0,0,0,0c-0.2,0.2-0.4,0.4-0.7,0.5c-0.3,0.1-0.6,0.2-0.9,0.2c-0.5,0-0.9-0.1-1.3-0.4c-0.4-0.3-0.5-0.7-0.5-1.3
				c0-0.6,0.2-1.1,0.6-1.5s1-0.5,1.7-0.5h1.1c0,0,0,0,0,0v-0.5c0-0.4-0.1-0.7-0.3-1c-0.2-0.2-0.5-0.4-0.9-0.4
				c-0.3,0-0.6,0.1-0.8,0.2c-0.2,0.2-0.3,0.4-0.4,0.6c0,0.1-0.1,0.1-0.1,0.1l-0.7,0c0,0-0.1,0-0.1,0c0,0,0-0.1,0-0.1
				c0.1-0.5,0.3-0.8,0.7-1.1c0.4-0.3,0.9-0.4,1.4-0.4C205.4,127.5,205.9,127.7,206.3,128z M205.6,132.7c0.3-0.2,0.4-0.5,0.4-0.9v-1
				c0,0,0,0,0,0h-1.1c-0.5,0-0.8,0.1-1.1,0.3c-0.3,0.2-0.4,0.5-0.4,0.9c0,0.4,0.1,0.6,0.3,0.8c0.2,0.2,0.5,0.3,0.8,0.3
				C204.9,133,205.3,132.9,205.6,132.7z"/>
			<path class="st2" d="M208.7,133.3c-0.4-0.3-0.6-0.7-0.6-1.1V132c0-0.1,0-0.1,0.1-0.1h0.6c0.1,0,0.1,0,0.1,0.1v0.1
				c0,0.3,0.1,0.5,0.3,0.7c0.2,0.2,0.5,0.3,0.9,0.3c0.4,0,0.6-0.1,0.9-0.3c0.2-0.2,0.3-0.4,0.3-0.7c0-0.2-0.1-0.4-0.2-0.5
				c-0.1-0.1-0.3-0.2-0.4-0.3c-0.2-0.1-0.4-0.2-0.7-0.3c-0.4-0.1-0.7-0.3-0.9-0.4c-0.2-0.1-0.5-0.3-0.6-0.5
				c-0.2-0.2-0.3-0.5-0.3-0.9c0-0.5,0.2-0.9,0.5-1.2c0.4-0.3,0.8-0.5,1.4-0.5c0.6,0,1.1,0.2,1.5,0.5c0.4,0.3,0.5,0.7,0.5,1.2v0
				c0,0.1,0,0.1-0.1,0.1h-0.6c-0.1,0-0.1,0-0.1-0.1v0c0-0.3-0.1-0.5-0.3-0.7c-0.2-0.2-0.5-0.3-0.9-0.3c-0.3,0-0.6,0.1-0.8,0.3
				s-0.3,0.4-0.3,0.7c0,0.3,0.1,0.5,0.3,0.6s0.5,0.3,1,0.5c0.4,0.1,0.7,0.3,1,0.4s0.5,0.3,0.7,0.5c0.2,0.2,0.3,0.5,0.3,0.9
				c0,0.5-0.2,0.9-0.6,1.2c-0.4,0.3-0.9,0.5-1.5,0.5S209.1,133.6,208.7,133.3z"/>
		</g>
		<g class="st1">
			<path class="st2" d="M216.5,133.3c-0.4-0.3-0.6-0.7-0.7-1.3c0-0.4-0.1-0.9-0.1-1.4c0-0.4,0-0.9,0.1-1.4c0.1-0.5,0.3-0.9,0.7-1.3
				c0.4-0.3,0.9-0.5,1.4-0.5c0.6,0,1,0.2,1.4,0.5s0.6,0.7,0.7,1.1l0,0.3v0c0,0,0,0.1,0,0.1c0,0,0,0-0.1,0l-0.6,0
				c-0.1,0-0.1,0-0.1-0.1c0-0.1,0-0.1,0-0.1c0-0.3-0.2-0.5-0.4-0.7c-0.2-0.2-0.5-0.3-0.9-0.3c-0.4,0-0.6,0.1-0.9,0.3
				c-0.2,0.2-0.4,0.5-0.4,0.8s-0.1,0.8-0.1,1.2c0,0.5,0,0.9,0.1,1.2c0,0.4,0.2,0.6,0.4,0.8c0.2,0.2,0.5,0.3,0.9,0.3
				c0.4,0,0.6-0.1,0.9-0.3c0.2-0.2,0.4-0.4,0.4-0.7l0-0.1c0-0.1,0.1-0.1,0.1-0.1l0.6,0c0.1,0,0.1,0.1,0.1,0.1v0c0,0,0,0.1,0,0.1
				c-0.1,0.5-0.3,0.9-0.7,1.2c-0.4,0.3-0.9,0.5-1.4,0.5C217.4,133.7,216.9,133.6,216.5,133.3z"/>
		</g>
		<g class="st1">
			<path class="st2" d="M222,133.3c-0.4-0.3-0.6-0.7-0.7-1.3c0-0.4-0.1-0.9-0.1-1.4s0-1,0.1-1.4c0.1-0.5,0.3-1,0.7-1.3
				c0.4-0.3,0.9-0.5,1.4-0.5s1.1,0.2,1.4,0.5c0.4,0.3,0.6,0.7,0.7,1.3c0,0.3,0.1,0.8,0.1,1.4c0,0.6,0,1.1-0.1,1.4
				c-0.1,0.5-0.3,1-0.7,1.3s-0.9,0.5-1.4,0.5S222.4,133.6,222,133.3z M224.3,132.7c0.2-0.2,0.4-0.5,0.4-0.8c0-0.3,0-0.7,0-1.2
				c0-0.5,0-0.9,0-1.2c0-0.4-0.2-0.6-0.4-0.8c-0.2-0.2-0.5-0.3-0.9-0.3c-0.4,0-0.6,0.1-0.9,0.3c-0.2,0.2-0.4,0.5-0.4,0.8
				c0,0.3,0,0.7,0,1.2s0,0.9,0,1.2c0,0.4,0.2,0.6,0.4,0.8s0.5,0.3,0.9,0.3C223.8,133,224.1,132.9,224.3,132.7z"/>
			<path class="st2" d="M230.9,128c0.3,0.4,0.5,0.8,0.5,1.5v4c0,0.1,0,0.1-0.1,0.1h-0.6c-0.1,0-0.1,0-0.1-0.1v-3.9
				c0-0.4-0.1-0.7-0.3-1s-0.5-0.4-0.9-0.4s-0.7,0.1-0.9,0.4c-0.2,0.3-0.3,0.6-0.3,1v3.9c0,0.1,0,0.1-0.1,0.1h-0.6
				c-0.1,0-0.1,0-0.1-0.1v-5.8c0-0.1,0-0.1,0.1-0.1h0.6c0.1,0,0.1,0,0.1,0.1v0.5c0,0,0,0,0,0c0,0,0,0,0,0c0.3-0.5,0.8-0.7,1.4-0.7
				C230.1,127.5,230.6,127.7,230.9,128z"/>
			<path class="st2" d="M235.3,133.5v-8.2c0-0.1,0-0.1,0.1-0.1h0.6c0.1,0,0.1,0,0.1,0.1v8.2c0,0.1,0,0.1-0.1,0.1h-0.6
				C235.4,133.7,235.3,133.6,235.3,133.5z"/>
			<path class="st2" d="M241.3,128c0.4,0.4,0.5,0.9,0.5,1.5v4c0,0.1,0,0.1-0.1,0.1h-0.6c-0.1,0-0.1,0-0.1-0.1v-0.4c0,0,0,0,0,0
				c0,0,0,0,0,0c-0.2,0.2-0.4,0.4-0.7,0.5c-0.3,0.1-0.6,0.2-0.9,0.2c-0.5,0-0.9-0.1-1.3-0.4c-0.4-0.3-0.5-0.7-0.5-1.3
				c0-0.6,0.2-1.1,0.6-1.5s1-0.5,1.7-0.5h1.1c0,0,0,0,0,0v-0.5c0-0.4-0.1-0.7-0.3-1c-0.2-0.2-0.5-0.4-0.9-0.4
				c-0.3,0-0.6,0.1-0.8,0.2c-0.2,0.2-0.3,0.4-0.4,0.6c0,0.1-0.1,0.1-0.1,0.1l-0.7,0c0,0-0.1,0-0.1,0c0,0,0-0.1,0-0.1
				c0.1-0.5,0.3-0.8,0.7-1.1c0.4-0.3,0.9-0.4,1.4-0.4C240.4,127.5,240.9,127.7,241.3,128z M240.6,132.7c0.3-0.2,0.4-0.5,0.4-0.9v-1
				c0,0,0,0,0,0h-1.1c-0.5,0-0.8,0.1-1.1,0.3c-0.3,0.2-0.4,0.5-0.4,0.9c0,0.4,0.1,0.6,0.3,0.8c0.2,0.2,0.5,0.3,0.8,0.3
				C239.9,133,240.3,132.9,240.6,132.7z"/>
			<path class="st2" d="M248.6,132.8c0.2-0.2,0.4-0.4,0.5-0.6c0-0.1,0.1-0.1,0.1-0.1l0.6,0.1c0,0,0.1,0,0.1,0.1c0,0,0,0.1,0,0.1
				c-0.1,0.4-0.4,0.8-0.7,1.1c-0.4,0.3-0.8,0.4-1.3,0.4c-0.6,0-1.1-0.2-1.4-0.5c-0.4-0.3-0.6-0.7-0.7-1.3c0-0.2-0.1-0.4-0.1-0.7
				c0-0.3,0-0.5,0-0.7s0-0.3,0-0.4c0-0.4,0-0.7,0-1c0.1-0.5,0.3-1,0.7-1.3s0.9-0.5,1.4-0.5c0.6,0,1.1,0.2,1.5,0.5
				c0.4,0.4,0.6,0.8,0.6,1.4c0,0.3,0,0.7,0,1.5c0,0.1,0,0.1-0.1,0.1h-3.3c0,0,0,0,0,0c0,0.2,0,0.5,0,0.8c0,0.3,0.2,0.6,0.4,0.8
				c0.2,0.2,0.5,0.3,0.9,0.3C248.2,133,248.4,132.9,248.6,132.8z M246.9,128.5c-0.2,0.2-0.4,0.5-0.4,0.8c0,0.3,0,0.6,0,0.8
				c0,0,0,0,0,0h2.5c0,0,0,0,0,0c0-0.2,0-0.5,0-0.8c0-0.3-0.2-0.6-0.4-0.8c-0.2-0.2-0.5-0.3-0.9-0.3
				C247.5,128.2,247.2,128.3,246.9,128.5z"/>
			<path class="st2" d="M254.8,125.2h0.6c0.1,0,0.1,0,0.1,0.1v8.2c0,0.1,0,0.1-0.1,0.1h-0.6c-0.1,0-0.1,0-0.1-0.1v-0.5c0,0,0,0,0,0
				s0,0,0,0c-0.3,0.5-0.8,0.7-1.4,0.7c-0.5,0-0.9-0.1-1.2-0.4c-0.3-0.3-0.5-0.7-0.7-1.3c-0.1-0.4-0.2-0.9-0.2-1.4c0-0.6,0-1,0.1-1.4
				c0.1-0.6,0.3-1,0.7-1.3c0.3-0.3,0.8-0.4,1.3-0.4c0.3,0,0.6,0.1,0.8,0.2c0.2,0.1,0.4,0.3,0.5,0.5c0,0,0,0,0,0c0,0,0,0,0,0v-2.8
				C254.7,125.3,254.8,125.2,254.8,125.2z M254.7,130.6c0-0.7-0.1-1.2-0.2-1.5c-0.1-0.3-0.2-0.5-0.4-0.6s-0.4-0.2-0.7-0.2
				c-0.5,0-0.9,0.3-1.1,0.8c-0.2,0.4-0.2,0.9-0.2,1.6c0,0.6,0.1,1.1,0.2,1.5c0.1,0.3,0.2,0.5,0.4,0.7c0.2,0.2,0.4,0.2,0.7,0.2
				c0.3,0,0.5-0.1,0.7-0.2c0.2-0.2,0.3-0.4,0.4-0.7C254.6,131.8,254.7,131.3,254.7,130.6z"/>
			<path class="st2" d="M260.7,128c0.4,0.4,0.5,0.9,0.5,1.5v4c0,0.1,0,0.1-0.1,0.1h-0.6c-0.1,0-0.1,0-0.1-0.1v-0.4c0,0,0,0,0,0
				c0,0,0,0,0,0c-0.2,0.2-0.4,0.4-0.7,0.5c-0.3,0.1-0.6,0.2-0.9,0.2c-0.5,0-0.9-0.1-1.3-0.4c-0.4-0.3-0.5-0.7-0.5-1.3
				c0-0.6,0.2-1.1,0.6-1.5s1-0.5,1.7-0.5h1.1c0,0,0,0,0,0v-0.5c0-0.4-0.1-0.7-0.3-1c-0.2-0.2-0.5-0.4-0.9-0.4
				c-0.3,0-0.6,0.1-0.8,0.2c-0.2,0.2-0.3,0.4-0.4,0.6c0,0.1-0.1,0.1-0.1,0.1l-0.7,0c0,0-0.1,0-0.1,0c0,0,0-0.1,0-0.1
				c0.1-0.5,0.3-0.8,0.7-1.1c0.4-0.3,0.9-0.4,1.4-0.4C259.8,127.5,260.3,127.7,260.7,128z M260,132.7c0.3-0.2,0.4-0.5,0.4-0.9v-1
				c0,0,0,0,0,0h-1.1c-0.5,0-0.8,0.1-1.1,0.3c-0.3,0.2-0.4,0.5-0.4,0.9c0,0.4,0.1,0.6,0.3,0.8c0.2,0.2,0.5,0.3,0.8,0.3
				C259.3,133,259.7,132.9,260,132.7z"/>
			<path class="st2" d="M266.2,125.2h0.6c0.1,0,0.1,0,0.1,0.1v8.2c0,0.1,0,0.1-0.1,0.1h-0.6c-0.1,0-0.1,0-0.1-0.1v-0.5c0,0,0,0,0,0
				s0,0,0,0c-0.3,0.5-0.8,0.7-1.4,0.7c-0.5,0-0.9-0.1-1.2-0.4c-0.3-0.3-0.5-0.7-0.7-1.3c-0.1-0.4-0.2-0.9-0.2-1.4c0-0.6,0-1,0.1-1.4
				c0.1-0.6,0.3-1,0.7-1.3c0.3-0.3,0.8-0.4,1.3-0.4c0.3,0,0.6,0.1,0.8,0.2c0.2,0.1,0.4,0.3,0.5,0.5c0,0,0,0,0,0c0,0,0,0,0,0v-2.8
				C266.1,125.3,266.1,125.2,266.2,125.2z M266,130.6c0-0.7-0.1-1.2-0.2-1.5c-0.1-0.3-0.2-0.5-0.4-0.6s-0.4-0.2-0.7-0.2
				c-0.5,0-0.9,0.3-1.1,0.8c-0.2,0.4-0.2,0.9-0.2,1.6c0,0.6,0.1,1.1,0.2,1.5c0.1,0.3,0.2,0.5,0.4,0.7c0.2,0.2,0.4,0.2,0.7,0.2
				c0.3,0,0.5-0.1,0.7-0.2c0.2-0.2,0.3-0.4,0.4-0.7C266,131.8,266,131.3,266,130.6z"/>
			<path class="st2" d="M268.7,133.4c-0.1-0.1-0.2-0.3-0.2-0.5c0-0.2,0.1-0.4,0.2-0.5s0.3-0.2,0.5-0.2c0.2,0,0.4,0.1,0.5,0.2
				s0.2,0.3,0.2,0.5c0,0.2-0.1,0.4-0.2,0.5s-0.3,0.2-0.5,0.2C269,133.6,268.8,133.6,268.7,133.4z"/>
		</g>
		<circle class="st3" cx="34.8" cy="34.8" r="13.3"/>
		<path class="st3" d="M173.9,49.6c-0.1-0.6-0.3-1.1-0.4-1.7c0.8-0.7,1.4-1.6,1.6-2.6c2.3-0.4,3.9-2.7,3.5-5c-0.2-1.2-0.9-2.3-2-2.9
			c1.7-2.5,1-5.9-1.5-7.6c-0.6-0.4-1.4-0.7-2.1-0.8c-0.7-2.3-2.9-3.9-5.3-3.9c-0.6,0-1.3,0.1-1.8,0.3c-1.2-2.8-4.5-4-7.3-2.8
			c-0.8,0.4-1.5,0.9-2.1,1.6c-1.5-2.6-4.9-3.5-7.5-1.9c-0.8,0.5-1.5,1.1-1.9,1.9c-1.6-2.2-4.6-2.8-6.9-1.2c-1.2,0.8-1.9,2.1-2.1,3.5
			c-1.1-0.9-2.5-1.4-4-1.4c-3.5,0-6.3,2.8-6.3,6.3v0c0,0.6,0.1,1.2,0.2,1.7c-1.6-1.2-3.9-0.8-5.1,0.9c-1,1.4-0.9,3.3,0.3,4.6
			c-0.1,0-0.3-0.1-0.5-0.1c-0.1,0-0.3,0-0.4,0h-0.1c-1.9,0-3.5,1.6-3.5,3.5c0,1.2,0.6,2.2,1.5,2.9h-0.2c-2.6,0.1-4.6,2.2-4.5,4.7
			c0,1.7,1.1,3.3,2.6,4.1c-1.6,1.1-1.9,3.3-0.8,4.8c0.5,0.8,1.4,1.3,2.3,1.4c-1.2,1.6-1.4,3.8-0.5,5.6c0.7,1.6,2.4,2.5,4.1,2.4
			c0.1,0,0.1,0,0.2,0c-0.2,0.5-0.3,1-0.3,1.6c0,2.2,1.8,4,4,4h0.1c0,0.2-0.1,0.4-0.1,0.7c0,2.2,1.8,4,4,4c0,0,0,0,0.1,0
			c0.3,0,0.7,0,1-0.1c0.2,2,2,3.5,4,3.5h0.2"/>
		<path class="st3" d="M161.1,96.5c0,0-2.1-5.1-0.7-7s9.5-1.3,15.2-6.3c1.7-1.4,3.2-3.1,4.3-5c0.3-0.5,0.1-1.1-0.3-1.4
			c-0.1-0.1-0.3-0.1-0.4-0.1c-1.5-0.2-3.8-0.8-4.7-2.9c-0.2-0.5,0-1.1,0.5-1.3c0.1-0.1,0.3-0.1,0.5-0.1l5.5-0.2c0.6,0,1-0.4,1.1-0.9
			c0-0.1,0-0.3-0.1-0.4c-0.3-1.1-0.8-2.8-1.1-3.9c-0.1-0.4,0-0.9,0.4-1.1c1.8-1.2,2.9-2.5,3.2-4.1c0.9-5.7-5.2-1.7-6.1-4
			c-1.6-4.2,0.1-8.9-2.1-16.4c-2.8-9.4-15-19.1-33.8-13.7C120.9,34,117.8,55.8,125,68.9c6.8,12.4,15.1,12.8,14.5,17.7s-0.3,6-0.3,6"
			/>
		<circle class="st4" cx="171" cy="55.3" r="2.8"/>
		<g class="st1">
			<path class="st5" d="M32.6,36.4c0,0.5-0.1,1-0.2,1.4c-0.2,0.5-0.6,0.9-1.1,1.2c-0.5,0.3-1,0.4-1.7,0.4c-0.7,0-1.2-0.2-1.7-0.5
				s-0.8-0.7-1.1-1.3c-0.2-0.4-0.2-0.8-0.2-1.3v-3.9c0-0.5,0.1-0.9,0.4-1.2c0.2-0.4,0.6-0.6,1-0.8c0.4-0.2,0.9-0.3,1.5-0.3
				c0.6,0,1.1,0.1,1.5,0.3c0.4,0.2,0.8,0.5,1,0.8c0.2,0.4,0.4,0.8,0.4,1.2v0.4c0,0,0,0.1,0,0.1c0,0-0.1,0-0.1,0h-1.5
				c0,0-0.1,0-0.1,0s0-0.1,0-0.1v-0.1c0-0.3-0.1-0.5-0.3-0.7s-0.4-0.3-0.7-0.3c-0.3,0-0.6,0.1-0.8,0.3c-0.2,0.2-0.3,0.4-0.3,0.7V34
				c0,0,0,0,0,0c0,0,0,0,0.1,0c0.4-0.3,0.8-0.5,1.4-0.5c0.5,0,1,0.1,1.4,0.4s0.7,0.6,1,1C32.5,35.3,32.6,35.8,32.6,36.4z M30.7,36.5
				c0-0.3-0.1-0.6-0.2-0.9c-0.2-0.3-0.5-0.5-0.9-0.5c-0.5,0-0.8,0.2-1,0.5c-0.1,0.2-0.2,0.5-0.2,0.9c0,0.3,0.1,0.6,0.2,0.8
				c0.2,0.4,0.5,0.6,1,0.6c0.5,0,0.8-0.2,1-0.6C30.7,37.1,30.7,36.8,30.7,36.5z"/>
			<path class="st5" d="M33.9,39.1c-0.2-0.2-0.3-0.4-0.3-0.7c0-0.3,0.1-0.6,0.3-0.7c0.2-0.2,0.4-0.3,0.7-0.3s0.6,0.1,0.7,0.3
				c0.2,0.2,0.3,0.4,0.3,0.7c0,0.3-0.1,0.5-0.3,0.7c-0.2,0.2-0.4,0.3-0.7,0.3S34.1,39.3,33.9,39.1z"/>
			<path class="st5" d="M43.1,36.4c0,0.4-0.1,0.8-0.2,1.2c-0.2,0.6-0.6,1-1.1,1.3s-1.1,0.5-1.8,0.5c-0.7,0-1.2-0.2-1.7-0.5
				c-0.5-0.3-0.9-0.7-1.1-1.3c-0.1-0.2-0.2-0.5-0.2-0.7v0c0-0.1,0.1-0.1,0.2-0.1h1.6c0.1,0,0.1,0,0.2,0.1c0,0.1,0,0.1,0,0.1
				c0,0,0,0.1,0,0.1c0.1,0.2,0.2,0.4,0.4,0.5s0.4,0.2,0.6,0.2c0.2,0,0.5-0.1,0.6-0.2c0.2-0.1,0.3-0.3,0.4-0.5
				c0.1-0.2,0.1-0.4,0.1-0.7c0-0.3,0-0.5-0.1-0.7c-0.1-0.2-0.2-0.4-0.4-0.5c-0.2-0.1-0.4-0.2-0.6-0.2s-0.5,0.1-0.7,0.2
				c-0.2,0.1-0.3,0.3-0.4,0.4c0,0.1-0.1,0.1-0.2,0.1h-1.6c0,0-0.1,0-0.1,0c0,0,0-0.1,0-0.1v-5.2c0,0,0-0.1,0-0.1c0,0,0.1,0,0.1,0
				h5.4c0,0,0.1,0,0.1,0s0,0.1,0,0.1v1.3c0,0,0,0.1,0,0.1s-0.1,0-0.1,0H39c0,0-0.1,0-0.1,0.1l0,1.9c0,0.1,0,0.1,0.1,0
				c0.4-0.3,0.8-0.4,1.4-0.4c0.6,0,1.1,0.2,1.6,0.5s0.8,0.7,1,1.3C43,35.6,43.1,36,43.1,36.4z"/>
		</g>
		<path class="st6" d="M137.6,45.4h-1.7c-0.4,0-0.8-0.3-0.8-0.8s0.3-0.8,0.8-0.8h1.7c0.4,0,0.8,0.3,0.8,0.8S138,45.4,137.6,45.4z"/>
		<path class="st6" d="M146.9,45.4h-1.7c-0.4,0-0.8-0.3-0.8-0.8s0.3-0.8,0.8-0.8h1.7c0.4,0,0.8,0.3,0.8,0.8S147.4,45.4,146.9,45.4z"
			/>
		<circle class="st6" cx="132" cy="44.7" r="2.6"/>
		<circle class="st6" cx="141.4" cy="44.7" r="2.6"/>
		<circle class="st6" cx="141.4" cy="37.1" r="2.6"/>
		<circle class="st6" cx="150.7" cy="52.2" r="2.6"/>
		<circle class="st6" cx="150.7" cy="44.7" r="2.6"/>
		<circle class="st6" cx="160.1" cy="44.7" r="2.6"/>
		<path class="st6" d="M146.9,45.4h-1.7c-0.4,0-0.8-0.3-0.8-0.8s0.3-0.8,0.8-0.8h1.7c0.4,0,0.8,0.3,0.8,0.8S147.3,45.4,146.9,45.4z"
			/>
		<path class="st6" d="M156.3,45.4h-1.7c-0.4,0-0.8-0.3-0.8-0.8s0.3-0.8,0.8-0.8h1.7c0.4,0,0.8,0.3,0.8,0.8S156.7,45.4,156.3,45.4z"
			/>
		<path class="st6" d="M142.1,40.9L142.1,40.9c0,0.4-0.3,0.8-0.8,0.8s-0.8-0.3-0.8-0.8l0,0c0-0.4,0.3-0.8,0.8-0.8
			S142.1,40.5,142.1,40.9z"/>
		<path class="st6" d="M151.5,48.4L151.5,48.4c0,0.4-0.3,0.8-0.8,0.8s-0.8-0.3-0.8-0.8l0,0c0-0.4,0.3-0.8,0.8-0.8
			S151.5,48,151.5,48.4z"/>
		<path class="st6" d="M160.1,51.5h-5.5c-0.4,0-0.8,0.3-0.8,0.8s0.3,0.8,0.8,0.8h5.5c0.4,0,0.8-0.3,0.8-0.8S160.5,51.5,160.1,51.5z"
			/>
		<path class="st6" d="M159.7,37.9h-14.5c-0.4,0-0.8-0.3-0.8-0.8s0.3-0.8,0.8-0.8h14.5c0.4,0,0.8,0.3,0.8,0.8S160.1,37.9,159.7,37.9
			z"/>
	</g>
</g>
</svg>
