<svg xmlns="http://www.w3.org/2000/svg" viewBox="0 0 307 199"><defs><style>.cls-1{fill:none;stroke:#00b6ed;stroke-miterlimit:10;}.cls-2{fill:#00b6ed;}.cls-3{fill:#fff;}</style></defs><title>06</title><g id="Capa_2" data-name="Capa 2"><g id="Capa_1-2" data-name="Capa 1"><rect class="cls-1" x="0.5" y="0.5" width="306" height="198"/><rect class="cls-2" x="0.5" y="0.5" width="306" height="198"/><path class="cls-3" d="M55.16,64.93a.21.21,0,0,1,.07.17v.64a2.66,2.66,0,0,1-.46,1.62,6.64,6.64,0,0,1-1.34,1.28,6.63,6.63,0,0,0-1.06,1,1.51,1.51,0,0,0-.34,1,1.37,1.37,0,0,0,.4,1,1.43,1.43,0,0,0,1,.39,1.54,1.54,0,0,0,1.14-.42A1.46,1.46,0,0,0,55,70.54v-.32c0-.15.08-.22.24-.22l2.34.1a.22.22,0,0,1,.17.07.21.21,0,0,1,.07.17v.2a4.08,4.08,0,0,1-.56,2.13,3.77,3.77,0,0,1-1.57,1.44,5,5,0,0,1-2.31.51,4.35,4.35,0,0,1-3.07-1.07,3.69,3.69,0,0,1-1.15-2.83,3.64,3.64,0,0,1,.28-1.51,3.46,3.46,0,0,1,.67-1,9.78,9.78,0,0,1,1-.88,6.35,6.35,0,0,0,1-.86,1.34,1.34,0,0,0,.3-.88V65.1a.21.21,0,0,1,.07-.17.22.22,0,0,1,.17-.07H55A.22.22,0,0,1,55.16,64.93ZM55,60.82a1.58,1.58,0,1,1-2.26,0,1.66,1.66,0,0,1,2.26,0Z"/><path class="cls-3" d="M65.42,56.83a4,4,0,0,1,1.6,1.6,4.83,4.83,0,0,1,.57,2.39v5.3a4.59,4.59,0,0,1-.81,2.73,4,4,0,0,1-2.23,1.53.09.09,0,0,0-.08.1v1.66a.23.23,0,0,1-.07.17.28.28,0,0,1-.17.07H61.89a.26.26,0,0,1-.17-.07.23.23,0,0,1-.07-.17V70.48a.09.09,0,0,0-.08-.1,4,4,0,0,1-2.21-1.53,4.59,4.59,0,0,1-.81-2.73v-5.3a4.94,4.94,0,0,1,.56-2.39,3.93,3.93,0,0,1,1.58-1.6,4.77,4.77,0,0,1,2.36-.57A4.83,4.83,0,0,1,65.42,56.83Zm-.65,3.77a2,2,0,0,0-.47-1.39,1.56,1.56,0,0,0-1.25-.53,1.52,1.52,0,0,0-1.21.53,2,2,0,0,0-.47,1.39v5.64a2.05,2.05,0,0,0,.47,1.39,1.55,1.55,0,0,0,1.21.53,1.59,1.59,0,0,0,1.25-.53,2.05,2.05,0,0,0,.47-1.39Z"/><path class="cls-3" d="M74.6,60.21a.22.22,0,0,1,.17-.07h2.34a.22.22,0,0,1,.17.07.21.21,0,0,1,.07.17v9.8a.23.23,0,0,1-.07.17.26.26,0,0,1-.17.07H74.77a.26.26,0,0,1-.17-.07.23.23,0,0,1-.07-.17v-.5s0-.07,0-.07,0,0-.08,0a2.49,2.49,0,0,1-2.14.92A3.19,3.19,0,0,1,70,69.74a3.15,3.15,0,0,1-.88-2.42V60.38a.21.21,0,0,1,.07-.17.22.22,0,0,1,.17-.07h2.34a.22.22,0,0,1,.17.07.21.21,0,0,1,.07.17v6.28a1.7,1.7,0,0,0,.33,1.1,1.28,1.28,0,0,0,1.88,0,1.72,1.72,0,0,0,.35-1.12V60.38A.21.21,0,0,1,74.6,60.21Z"/><path class="cls-3" d="M87.47,65.18l0,.78a.21.21,0,0,1-.24.24h-5.3c-.07,0-.1,0-.1.1a5.55,5.55,0,0,0,.08.68,1.46,1.46,0,0,0,.49.88,1.49,1.49,0,0,0,1,.32,1.42,1.42,0,0,0,1.36-.9.25.25,0,0,1,.3-.16l2.12.42c.16,0,.21.14.16.3a3.93,3.93,0,0,1-1.45,2,4.25,4.25,0,0,1-2.49.71,4.51,4.51,0,0,1-2.83-.81,3.8,3.8,0,0,1-1.37-2.33,12.7,12.7,0,0,1-.18-2.5,9.25,9.25,0,0,1,.12-1.62,3.72,3.72,0,0,1,1.32-2.43A4.19,4.19,0,0,1,83.19,60a4.24,4.24,0,0,1,3,1,3.86,3.86,0,0,1,1.26,2.71C87.45,64.16,87.47,64.64,87.47,65.18Zm-5.15-2.46a1.46,1.46,0,0,0-.45.88,4.59,4.59,0,0,0-.06.76.09.09,0,0,0,.1.1h2.6a.09.09,0,0,0,.1-.1,4.59,4.59,0,0,0-.06-.76,1.4,1.4,0,0,0-.44-.87,1.28,1.28,0,0,0-.9-.33A1.23,1.23,0,0,0,82.32,62.72Zm-.47-3.9a.21.21,0,0,1,0-.2l1.14-2a.33.33,0,0,1,.3-.16h1.92a.2.2,0,0,1,.2.09.21.21,0,0,1,0,.21l-1.48,2a.34.34,0,0,1-.28.14H82A.19.19,0,0,1,81.85,58.82Z"/><path class="cls-3" d="M105.56,60.91a4,4,0,0,1,.77,2.61v6.66a.28.28,0,0,1-.07.17.26.26,0,0,1-.17.07h-2.32a.26.26,0,0,1-.17-.07.23.23,0,0,1-.07-.17V63.92a1.71,1.71,0,0,0-.33-1.11,1.07,1.07,0,0,0-.89-.41,1.11,1.11,0,0,0-.92.41,1.62,1.62,0,0,0-.34,1.09v6.28a.23.23,0,0,1-.07.17.26.26,0,0,1-.17.07H98.49a.26.26,0,0,1-.17-.07.23.23,0,0,1-.07-.17V63.92a1.71,1.71,0,0,0-.34-1.11,1.1,1.1,0,0,0-.9-.41,1.11,1.11,0,0,0-.92.41,1.62,1.62,0,0,0-.34,1.09v6.28a.23.23,0,0,1-.07.17.26.26,0,0,1-.17.07H93.19a.26.26,0,0,1-.17-.07.23.23,0,0,1-.07-.17v-9.8a.21.21,0,0,1,.07-.17.22.22,0,0,1,.17-.07h2.32a.22.22,0,0,1,.17.07.21.21,0,0,1,.07.17v.52a.08.08,0,0,0,0,.08s0,0,.08,0a2.45,2.45,0,0,1,1-.73,3,3,0,0,1,1.2-.23,3,3,0,0,1,1.55.37,2.49,2.49,0,0,1,1,1.07,0,0,0,0,0,.06,0,.17.17,0,0,0,.08-.07,2.61,2.61,0,0,1,1.12-1.07,3.29,3.29,0,0,1,1.46-.33A2.74,2.74,0,0,1,105.56,60.91Z"/><path class="cls-3" d="M108.39,58.53a1.7,1.7,0,0,1,0-2.27,1.48,1.48,0,0,1,1.13-.44,1.58,1.58,0,1,1,0,3.16A1.48,1.48,0,0,1,108.39,58.53Zm-.21,11.82a.23.23,0,0,1-.07-.17v-9.8a.24.24,0,0,1,.24-.24h2.34a.23.23,0,0,1,.17.07.24.24,0,0,1,.07.17v9.8a.24.24,0,0,1-.24.24h-2.34A.24.24,0,0,1,108.18,70.35Z"/><path class="cls-3" d="M118,62.19a.28.28,0,0,1-.17.07h-1.54c-.07,0-.1,0-.1.1v4.5a1.28,1.28,0,0,0,.25.89,1,1,0,0,0,.77.25h.4a.23.23,0,0,1,.17.07.24.24,0,0,1,.07.17v1.94a.21.21,0,0,1-.24.24l-1,0a4.28,4.28,0,0,1-2.35-.52,2.19,2.19,0,0,1-.77-2v-5.6a.09.09,0,0,0-.1-.1h-.92a.24.24,0,0,1-.17-.07.23.23,0,0,1-.07-.17V60.38a.24.24,0,0,1,.24-.24h.92a.09.09,0,0,0,.1-.1v-2.3a.24.24,0,0,1,.24-.24H116a.23.23,0,0,1,.17.07.24.24,0,0,1,.07.17V60a.09.09,0,0,0,.1.1h1.54a.23.23,0,0,1,.17.07.24.24,0,0,1,.07.17V62A.28.28,0,0,1,118,62.19Z"/><path class="cls-3" d="M120.7,69.71a3.54,3.54,0,0,1-1.33-2.39,11.73,11.73,0,0,1-.16-2.06,11.49,11.49,0,0,1,.16-2.06,3.49,3.49,0,0,1,1.33-2.35,4.48,4.48,0,0,1,2.85-.87,4.39,4.39,0,0,1,2.81.87,3.65,3.65,0,0,1,1.33,2.35,12.5,12.5,0,0,1,.16,2.06,12.79,12.79,0,0,1-.16,2,3.66,3.66,0,0,1-1.31,2.41,4.4,4.4,0,0,1-2.83.87A4.48,4.48,0,0,1,120.7,69.71Zm3.74-1.89a1.75,1.75,0,0,0,.49-.92,15.51,15.51,0,0,0,.1-1.64,14.38,14.38,0,0,0-.1-1.62,1.51,1.51,0,0,0-.47-.91,1.36,1.36,0,0,0-.93-.33,1.31,1.31,0,0,0-.91.33,1.46,1.46,0,0,0-.47.91,9.93,9.93,0,0,0-.1,1.62,12.51,12.51,0,0,0,.08,1.64,1.69,1.69,0,0,0,.5.92,1.36,1.36,0,0,0,.92.34A1.32,1.32,0,0,0,124.44,67.82Z"/><path class="cls-3" d="M130.27,69.74a2.56,2.56,0,0,1-1.1-2.16v-.16a.24.24,0,0,1,.24-.24h2.2a.23.23,0,0,1,.17.07.24.24,0,0,1,.07.17v0a.85.85,0,0,0,.4.72,1.69,1.69,0,0,0,1,.28,1.35,1.35,0,0,0,.86-.25.79.79,0,0,0,.32-.63.63.63,0,0,0-.35-.58,6.22,6.22,0,0,0-1.13-.46c-.22-.06-.54-.16-1-.32A5.51,5.51,0,0,1,130,65.14a2.53,2.53,0,0,1-.75-2,2.82,2.82,0,0,1,1.06-2.32,4.26,4.26,0,0,1,2.8-.86,4.32,4.32,0,0,1,2.87.89,2.93,2.93,0,0,1,1.07,2.37c0,.14-.08.22-.24.22h-2.16a.21.21,0,0,1-.17-.07.23.23,0,0,1-.07-.17v-.06a.88.88,0,0,0-.34-.7,1.4,1.4,0,0,0-.92-.28,1.33,1.33,0,0,0-.87.26.77.77,0,0,0-.33.64.72.72,0,0,0,.4.65,5.87,5.87,0,0,0,1.22.47l.35.11.31.11a7,7,0,0,1,2.18,1.11,2.32,2.32,0,0,1,.82,1.93,2.69,2.69,0,0,1-1.09,2.26,4.83,4.83,0,0,1-2.93.82A4.88,4.88,0,0,1,130.27,69.74Z"/><path class="cls-3" d="M143.9,69.71a3.54,3.54,0,0,1-1.33-2.39,11.73,11.73,0,0,1-.16-2.06,11.49,11.49,0,0,1,.16-2.06,3.49,3.49,0,0,1,1.33-2.35,4.48,4.48,0,0,1,2.85-.87,4.39,4.39,0,0,1,2.81.87,3.65,3.65,0,0,1,1.33,2.35,12.5,12.5,0,0,1,.16,2.06,12.79,12.79,0,0,1-.16,2,3.66,3.66,0,0,1-1.31,2.41,4.4,4.4,0,0,1-2.83.87A4.48,4.48,0,0,1,143.9,69.71Zm3.74-1.89a1.75,1.75,0,0,0,.49-.92,15.51,15.51,0,0,0,.1-1.64,14.38,14.38,0,0,0-.1-1.62,1.57,1.57,0,0,0-.47-.91,1.36,1.36,0,0,0-.93-.33,1.31,1.31,0,0,0-.91.33,1.46,1.46,0,0,0-.47.91,9.93,9.93,0,0,0-.1,1.62,12.51,12.51,0,0,0,.08,1.64,1.63,1.63,0,0,0,.5.92,1.36,1.36,0,0,0,.92.34A1.32,1.32,0,0,0,147.64,67.82Z"/><path class="cls-3" d="M165,65.18l0,.78a.21.21,0,0,1-.24.24h-5.3c-.07,0-.1,0-.1.1a5.55,5.55,0,0,0,.08.68,1.41,1.41,0,0,0,.49.88,1.49,1.49,0,0,0,1,.32,1.43,1.43,0,0,0,1.36-.9.24.24,0,0,1,.3-.16l2.12.42c.16,0,.21.14.16.3a4,4,0,0,1-1.45,2,4.27,4.27,0,0,1-2.49.71,4.51,4.51,0,0,1-2.83-.81,3.8,3.8,0,0,1-1.37-2.33,12.7,12.7,0,0,1-.18-2.5,9.25,9.25,0,0,1,.12-1.62,3.64,3.64,0,0,1,1.32-2.43,4.19,4.19,0,0,1,2.78-.91,4.24,4.24,0,0,1,3,1,3.86,3.86,0,0,1,1.26,2.71C165,64.16,165,64.64,165,65.18Zm-5.15-2.46a1.41,1.41,0,0,0-.45.88,4.59,4.59,0,0,0-.06.76.09.09,0,0,0,.1.1H162a.09.09,0,0,0,.1-.1,4.59,4.59,0,0,0-.06-.76,1.46,1.46,0,0,0-.44-.87,1.28,1.28,0,0,0-.9-.33A1.23,1.23,0,0,0,159.84,62.72Z"/><path class="cls-3" d="M172.37,60.24a.3.3,0,0,1,.12.32l-.4,2.3c0,.16-.11.2-.28.14a2.17,2.17,0,0,0-.58-.08,2.44,2.44,0,0,0-.52.06,1.48,1.48,0,0,0-1,.56,1.72,1.72,0,0,0-.4,1.16v5.48a.24.24,0,0,1-.24.24h-2.34a.24.24,0,0,1-.17-.07.23.23,0,0,1-.07-.17v-9.8a.24.24,0,0,1,.24-.24h2.34a.23.23,0,0,1,.17.07.24.24,0,0,1,.07.17v.8s0,.08,0,.09,0,0,.07-.05a2.15,2.15,0,0,1,2-1.22A2,2,0,0,1,172.37,60.24Z"/><path class="cls-3" d="M179.45,60.24a.3.3,0,0,1,.12.32l-.4,2.3c0,.16-.11.2-.28.14a2.17,2.17,0,0,0-.58-.08,2.44,2.44,0,0,0-.52.06,1.48,1.48,0,0,0-1,.56,1.72,1.72,0,0,0-.4,1.16v5.48a.24.24,0,0,1-.24.24h-2.34a.24.24,0,0,1-.17-.07.23.23,0,0,1-.07-.17v-9.8a.24.24,0,0,1,.24-.24h2.34a.23.23,0,0,1,.17.07.24.24,0,0,1,.07.17v.8s0,.08,0,.09,0,0,.07-.05a2.15,2.15,0,0,1,2-1.22A2,2,0,0,1,179.45,60.24Z"/><path class="cls-3" d="M181.76,69.71a3.54,3.54,0,0,1-1.33-2.39,11.73,11.73,0,0,1-.16-2.06,11.49,11.49,0,0,1,.16-2.06,3.49,3.49,0,0,1,1.33-2.35,4.48,4.48,0,0,1,2.85-.87,4.39,4.39,0,0,1,2.81.87,3.65,3.65,0,0,1,1.33,2.35,12.5,12.5,0,0,1,.16,2.06,12.79,12.79,0,0,1-.16,2,3.66,3.66,0,0,1-1.31,2.41,4.4,4.4,0,0,1-2.83.87A4.48,4.48,0,0,1,181.76,69.71Zm3.74-1.89a1.75,1.75,0,0,0,.49-.92,15.51,15.51,0,0,0,.1-1.64,14.38,14.38,0,0,0-.1-1.62,1.57,1.57,0,0,0-.47-.91,1.36,1.36,0,0,0-.93-.33,1.31,1.31,0,0,0-.91.33,1.46,1.46,0,0,0-.47.91,9.93,9.93,0,0,0-.1,1.62,12.51,12.51,0,0,0,.08,1.64,1.63,1.63,0,0,0,.5.92,1.36,1.36,0,0,0,.92.34A1.32,1.32,0,0,0,185.5,67.82Z"/><path class="cls-3" d="M196.39,60.24a.3.3,0,0,1,.12.32l-.4,2.3c0,.16-.11.2-.28.14a2.17,2.17,0,0,0-.58-.08,2.44,2.44,0,0,0-.52.06,1.48,1.48,0,0,0-1,.56,1.72,1.72,0,0,0-.4,1.16v5.48a.24.24,0,0,1-.24.24h-2.34a.24.24,0,0,1-.17-.07.23.23,0,0,1-.07-.17v-9.8a.24.24,0,0,1,.24-.24h2.34a.23.23,0,0,1,.17.07.24.24,0,0,1,.07.17v.8s0,.08,0,.09,0,0,.07-.05a2.15,2.15,0,0,1,2-1.22A2,2,0,0,1,196.39,60.24Z"/><path class="cls-3" d="M205.73,65.18l0,.78a.21.21,0,0,1-.24.24h-5.3c-.07,0-.1,0-.1.1a5.55,5.55,0,0,0,.08.68,1.41,1.41,0,0,0,.49.88,1.49,1.49,0,0,0,1,.32,1.43,1.43,0,0,0,1.36-.9.24.24,0,0,1,.3-.16l2.12.42c.16,0,.21.14.16.3a4,4,0,0,1-1.45,2,4.27,4.27,0,0,1-2.49.71,4.51,4.51,0,0,1-2.83-.81,3.8,3.8,0,0,1-1.37-2.33,12.7,12.7,0,0,1-.18-2.5,9.25,9.25,0,0,1,.12-1.62,3.64,3.64,0,0,1,1.32-2.43,4.19,4.19,0,0,1,2.78-.91,4.24,4.24,0,0,1,3,1,3.86,3.86,0,0,1,1.26,2.71C205.71,64.16,205.73,64.64,205.73,65.18Zm-5.15-2.46a1.41,1.41,0,0,0-.45.88,4.59,4.59,0,0,0-.06.76.09.09,0,0,0,.1.1h2.6a.09.09,0,0,0,.1-.1,4.59,4.59,0,0,0-.06-.76,1.46,1.46,0,0,0-.44-.87,1.28,1.28,0,0,0-.9-.33A1.23,1.23,0,0,0,200.58,62.72Z"/><path class="cls-3" d="M208,69.74a2.56,2.56,0,0,1-1.1-2.16v-.16a.24.24,0,0,1,.24-.24h2.2a.22.22,0,0,1,.23.24v0a.86.86,0,0,0,.41.72,1.69,1.69,0,0,0,1,.28,1.35,1.35,0,0,0,.86-.25.79.79,0,0,0,.32-.63.63.63,0,0,0-.35-.58,6.08,6.08,0,0,0-1.14-.46c-.21-.06-.53-.16-1-.32a5.51,5.51,0,0,1-1.95-1.08,2.53,2.53,0,0,1-.75-2A2.82,2.82,0,0,1,208,60.86a4.26,4.26,0,0,1,2.8-.86,4.32,4.32,0,0,1,2.87.89,2.93,2.93,0,0,1,1.07,2.37c0,.14-.08.22-.24.22h-2.16a.21.21,0,0,1-.17-.07.25.25,0,0,1-.08-.17v-.06a.87.87,0,0,0-.33-.7,1.4,1.4,0,0,0-.92-.28,1.33,1.33,0,0,0-.87.26.77.77,0,0,0-.33.64.72.72,0,0,0,.4.65,5.87,5.87,0,0,0,1.22.47l.35.11.31.11a6.87,6.87,0,0,1,2.17,1.11,2.3,2.3,0,0,1,.83,1.93,2.69,2.69,0,0,1-1.09,2.26,4.83,4.83,0,0,1-2.93.82A4.88,4.88,0,0,1,208,69.74Z"/><path class="cls-3" d="M50.92,93.73a3.63,3.63,0,0,1-1.35-2.33,11.47,11.47,0,0,1-.16-2.16,14.44,14.44,0,0,1,.16-2.12,3.58,3.58,0,0,1,1.36-2.29A4.35,4.35,0,0,1,53.69,84a4.45,4.45,0,0,1,2.73.82A3.36,3.36,0,0,1,57.79,87a5.38,5.38,0,0,1,.08.58.25.25,0,0,1-.24.26l-2.3.22h0c-.12,0-.19-.08-.22-.22a.88.88,0,0,0,0-.2c0-.11,0-.2-.08-.28a1.23,1.23,0,0,0-.46-.66,1.32,1.32,0,0,0-.84-.26,1.21,1.21,0,0,0-.88.32,1.51,1.51,0,0,0-.44.88,9.5,9.5,0,0,0-.12,1.66A8.52,8.52,0,0,0,52.37,91a1.6,1.6,0,0,0,.43.86,1.21,1.21,0,0,0,.87.32,1.33,1.33,0,0,0,.93-.32A1.29,1.29,0,0,0,55,91l0-.24a.26.26,0,0,1,.09-.17.16.16,0,0,1,.17,0l2.32.2a.23.23,0,0,1,.22.26,2.73,2.73,0,0,1,0,.4,3.32,3.32,0,0,1-1.31,2.3,4.53,4.53,0,0,1-2.81.84A4.42,4.42,0,0,1,50.92,93.73Z"/><path class="cls-3" d="M60.56,93.71a3.58,3.58,0,0,1-1.33-2.39,11.73,11.73,0,0,1-.16-2.06,11.49,11.49,0,0,1,.16-2.06,3.53,3.53,0,0,1,1.33-2.35A4.48,4.48,0,0,1,63.41,84a4.37,4.37,0,0,1,2.81.87,3.61,3.61,0,0,1,1.33,2.35,11.49,11.49,0,0,1,.16,2.06,11.73,11.73,0,0,1-.16,2,3.62,3.62,0,0,1-1.31,2.41,4.4,4.4,0,0,1-2.83.87A4.48,4.48,0,0,1,60.56,93.71Zm3.74-1.89a1.68,1.68,0,0,0,.49-.92,13.23,13.23,0,0,0,.1-1.64,12.36,12.36,0,0,0-.1-1.62,1.51,1.51,0,0,0-.47-.91,1.36,1.36,0,0,0-.93-.33,1.32,1.32,0,0,0-.91.33,1.51,1.51,0,0,0-.47.91,9.93,9.93,0,0,0-.1,1.62A14.55,14.55,0,0,0,62,90.9a1.69,1.69,0,0,0,.5.92,1.36,1.36,0,0,0,.92.34A1.3,1.3,0,0,0,64.3,91.82Z"/><path class="cls-3" d="M81.94,84.91a4,4,0,0,1,.77,2.61v6.66a.23.23,0,0,1-.07.17.26.26,0,0,1-.17.07H80.15a.26.26,0,0,1-.17-.07.23.23,0,0,1-.07-.17V87.92a1.71,1.71,0,0,0-.33-1.11,1.07,1.07,0,0,0-.89-.41,1.11,1.11,0,0,0-.92.41,1.62,1.62,0,0,0-.34,1.09v6.28a.23.23,0,0,1-.07.17.26.26,0,0,1-.17.07H74.87a.26.26,0,0,1-.17-.07.23.23,0,0,1-.07-.17V87.92a1.66,1.66,0,0,0-.34-1.11,1.1,1.1,0,0,0-.9-.41,1.11,1.11,0,0,0-.92.41,1.62,1.62,0,0,0-.34,1.09v6.28a.23.23,0,0,1-.07.17.26.26,0,0,1-.17.07H69.57a.26.26,0,0,1-.17-.07.23.23,0,0,1-.07-.17v-9.8a.21.21,0,0,1,.07-.17.22.22,0,0,1,.17-.07h2.32a.22.22,0,0,1,.17.07.21.21,0,0,1,.07.17v.52a.08.08,0,0,0,0,.08s0,0,.08,0a2.45,2.45,0,0,1,1-.73,3,3,0,0,1,1.2-.23,3,3,0,0,1,1.55.37,2.49,2.49,0,0,1,1,1.07,0,0,0,0,0,.06,0,.17.17,0,0,0,.08-.07,2.61,2.61,0,0,1,1.12-1.07A3.29,3.29,0,0,1,79.71,84,2.73,2.73,0,0,1,81.94,84.91Z"/><path class="cls-3" d="M89.8,84.21a.21.21,0,0,1,.17-.07h2.34a.22.22,0,0,1,.17.07.21.21,0,0,1,.07.17v9.8a.23.23,0,0,1-.07.17.26.26,0,0,1-.17.07H90a.24.24,0,0,1-.17-.07.23.23,0,0,1-.07-.17v-.5s0-.07,0-.07a.07.07,0,0,0-.08,0,2.49,2.49,0,0,1-2.14.92,3.19,3.19,0,0,1-2.24-.82,3.15,3.15,0,0,1-.88-2.42V84.38a.24.24,0,0,1,.24-.24h2.34a.22.22,0,0,1,.17.07.21.21,0,0,1,.07.17v6.28a1.7,1.7,0,0,0,.33,1.1,1.28,1.28,0,0,0,1.88,0,1.72,1.72,0,0,0,.35-1.12V84.38A.21.21,0,0,1,89.8,84.21Z"/><path class="cls-3" d="M101.72,84.91a3.77,3.77,0,0,1,.83,2.59v6.68a.23.23,0,0,1-.07.17.26.26,0,0,1-.17.07H100a.24.24,0,0,1-.17-.07.23.23,0,0,1-.07-.17V87.9a1.61,1.61,0,0,0-.34-1.1,1.13,1.13,0,0,0-.92-.4,1.16,1.16,0,0,0-1,.41,1.66,1.66,0,0,0-.35,1.11v6.26a.23.23,0,0,1-.07.17.26.26,0,0,1-.17.07H94.59a.24.24,0,0,1-.17-.07.23.23,0,0,1-.07-.17v-9.8a.24.24,0,0,1,.24-.24h2.34a.22.22,0,0,1,.17.07.21.21,0,0,1,.07.17v.56s0,.06,0,.07.06,0,.1-.07a2.49,2.49,0,0,1,2.12-1A2.91,2.91,0,0,1,101.72,84.91Z"/><path class="cls-3" d="M112.59,89.18l0,.78a.21.21,0,0,1-.24.24H107c-.07,0-.1,0-.1.1,0,.3,0,.53.08.68a1.46,1.46,0,0,0,.49.88,1.49,1.49,0,0,0,1,.32,1.42,1.42,0,0,0,1.36-.9.24.24,0,0,1,.3-.16l2.12.42c.16,0,.21.14.16.3a3.93,3.93,0,0,1-1.45,2,4.23,4.23,0,0,1-2.49.71,4.51,4.51,0,0,1-2.83-.81,3.8,3.8,0,0,1-1.37-2.33,12.7,12.7,0,0,1-.18-2.5,9.25,9.25,0,0,1,.12-1.62,3.64,3.64,0,0,1,1.32-2.43,4.19,4.19,0,0,1,2.78-.91,4.24,4.24,0,0,1,3,1,3.86,3.86,0,0,1,1.26,2.71C112.57,88.16,112.59,88.64,112.59,89.18Zm-5.15-2.46a1.46,1.46,0,0,0-.45.88,4.59,4.59,0,0,0-.06.76.09.09,0,0,0,.1.1h2.6a.09.09,0,0,0,.1-.1,4.59,4.59,0,0,0-.06-.76,1.4,1.4,0,0,0-.44-.87,1.28,1.28,0,0,0-.9-.33A1.23,1.23,0,0,0,107.44,86.72Z"/><path class="cls-3" d="M114.83,93.74a2.56,2.56,0,0,1-1.1-2.16v-.16a.24.24,0,0,1,.24-.24h2.2a.23.23,0,0,1,.17.07.24.24,0,0,1,.07.17v0a.85.85,0,0,0,.4.72,1.72,1.72,0,0,0,1,.28,1.35,1.35,0,0,0,.86-.25.79.79,0,0,0,.32-.63.63.63,0,0,0-.35-.58,6.22,6.22,0,0,0-1.13-.46c-.22-.06-.53-.16-1-.32a5.51,5.51,0,0,1-2-1.08,2.53,2.53,0,0,1-.75-2,2.82,2.82,0,0,1,1.06-2.32,4.26,4.26,0,0,1,2.8-.86,4.32,4.32,0,0,1,2.87.89,2.93,2.93,0,0,1,1.07,2.37c0,.14-.08.22-.24.22h-2.16a.21.21,0,0,1-.17-.07.23.23,0,0,1-.07-.17v-.06a.85.85,0,0,0-.34-.7,1.4,1.4,0,0,0-.92-.28,1.33,1.33,0,0,0-.87.26.77.77,0,0,0-.33.64.72.72,0,0,0,.4.65,5.87,5.87,0,0,0,1.22.47l.35.11.31.11A7,7,0,0,1,121,89.55a2.29,2.29,0,0,1,.82,1.93,2.69,2.69,0,0,1-1.09,2.26,4.83,4.83,0,0,1-2.93.82A4.88,4.88,0,0,1,114.83,93.74Z"/><path class="cls-3" d="M135.49,89.18l0,.78a.21.21,0,0,1-.24.24h-5.3c-.07,0-.1,0-.1.1a5.55,5.55,0,0,0,.08.68,1.41,1.41,0,0,0,.49.88,1.49,1.49,0,0,0,1,.32,1.43,1.43,0,0,0,1.36-.9.24.24,0,0,1,.3-.16l2.12.42c.16,0,.21.14.16.3a4,4,0,0,1-1.45,2,4.27,4.27,0,0,1-2.49.71,4.51,4.51,0,0,1-2.83-.81,3.8,3.8,0,0,1-1.37-2.33,12.7,12.7,0,0,1-.18-2.5,9.25,9.25,0,0,1,.12-1.62,3.64,3.64,0,0,1,1.32-2.43,4.19,4.19,0,0,1,2.78-.91,4.24,4.24,0,0,1,3,1,3.86,3.86,0,0,1,1.26,2.71C135.47,88.16,135.49,88.64,135.49,89.18Zm-5.15-2.46a1.41,1.41,0,0,0-.45.88,4.59,4.59,0,0,0-.06.76.09.09,0,0,0,.1.1h2.6a.09.09,0,0,0,.1-.1,4.59,4.59,0,0,0-.06-.76,1.46,1.46,0,0,0-.44-.87,1.28,1.28,0,0,0-.9-.33A1.23,1.23,0,0,0,130.34,86.72Z"/><path class="cls-3" d="M136.25,94.34a.16.16,0,0,1,0-.2l2.76-4.8a.13.13,0,0,0,0-.12l-2.76-4.8,0-.12c0-.11.07-.16.22-.16H139a.33.33,0,0,1,.3.16l1.38,2.52q.06.08.12,0l1.38-2.52a.31.31,0,0,1,.3-.16h2.6a.22.22,0,0,1,.2.08s0,.12,0,.2l-2.76,4.8a.13.13,0,0,0,0,.12l2.76,4.8,0,.12c0,.1-.08.16-.22.16h-2.5a.33.33,0,0,1-.3-.16l-1.4-2.56q-.06-.11-.12,0l-1.38,2.56a.33.33,0,0,1-.3.16h-2.6A.23.23,0,0,1,136.25,94.34Z"/><path class="cls-3" d="M146.87,82.53a1.7,1.7,0,0,1,0-2.27,1.47,1.47,0,0,1,1.13-.44A1.58,1.58,0,1,1,148,83,1.48,1.48,0,0,1,146.87,82.53Zm-.21,11.82a.23.23,0,0,1-.07-.17v-9.8a.24.24,0,0,1,.24-.24h2.34a.23.23,0,0,1,.17.07.24.24,0,0,1,.07.17v9.8a.24.24,0,0,1-.24.24h-2.34A.24.24,0,0,1,146.66,94.35Z"/><path class="cls-3" d="M152.07,93.74a2.56,2.56,0,0,1-1.1-2.16v-.16a.24.24,0,0,1,.24-.24h2.2a.23.23,0,0,1,.17.07.24.24,0,0,1,.07.17v0a.85.85,0,0,0,.4.72,1.69,1.69,0,0,0,1,.28,1.35,1.35,0,0,0,.86-.25.79.79,0,0,0,.32-.63.63.63,0,0,0-.35-.58,6.22,6.22,0,0,0-1.13-.46c-.22-.06-.54-.16-1-.32a5.51,5.51,0,0,1-2-1.08,2.53,2.53,0,0,1-.75-2,2.82,2.82,0,0,1,1.06-2.32,4.26,4.26,0,0,1,2.8-.86,4.32,4.32,0,0,1,2.87.89,2.93,2.93,0,0,1,1.07,2.37c0,.14-.08.22-.24.22h-2.16a.21.21,0,0,1-.17-.07.23.23,0,0,1-.07-.17v-.06a.88.88,0,0,0-.34-.7,1.4,1.4,0,0,0-.92-.28,1.33,1.33,0,0,0-.87.26.77.77,0,0,0-.33.64.72.72,0,0,0,.4.65,5.87,5.87,0,0,0,1.22.47l.35.11.31.11a7,7,0,0,1,2.18,1.11,2.32,2.32,0,0,1,.82,1.93A2.69,2.69,0,0,1,158,93.74a4.83,4.83,0,0,1-2.93.82A4.88,4.88,0,0,1,152.07,93.74Z"/><path class="cls-3" d="M165.62,86.19a.28.28,0,0,1-.17.07h-1.54c-.07,0-.1,0-.1.1v4.5a1.28,1.28,0,0,0,.25.89,1,1,0,0,0,.77.25h.4a.23.23,0,0,1,.17.07.24.24,0,0,1,.07.17v1.94a.21.21,0,0,1-.24.24l-1,0a4.28,4.28,0,0,1-2.35-.52,2.19,2.19,0,0,1-.77-2v-5.6a.09.09,0,0,0-.1-.1h-.92a.24.24,0,0,1-.17-.07.23.23,0,0,1-.07-.17V84.38a.24.24,0,0,1,.24-.24H161a.09.09,0,0,0,.1-.1v-2.3a.24.24,0,0,1,.24-.24h2.22a.23.23,0,0,1,.17.07.24.24,0,0,1,.07.17V84a.09.09,0,0,0,.1.1h1.54a.23.23,0,0,1,.17.07.24.24,0,0,1,.07.17V86A.28.28,0,0,1,165.62,86.19Z"/><path class="cls-3" d="M175.33,89.18l0,.78a.21.21,0,0,1-.24.24h-5.3c-.07,0-.1,0-.1.1a5.55,5.55,0,0,0,.08.68,1.41,1.41,0,0,0,.49.88,1.49,1.49,0,0,0,1,.32,1.43,1.43,0,0,0,1.36-.9.24.24,0,0,1,.3-.16l2.12.42c.16,0,.21.14.16.3a4,4,0,0,1-1.45,2,4.27,4.27,0,0,1-2.49.71,4.51,4.51,0,0,1-2.83-.81A3.8,3.8,0,0,1,167,91.44a12.7,12.7,0,0,1-.18-2.5,9.25,9.25,0,0,1,.12-1.62,3.64,3.64,0,0,1,1.32-2.43,4.19,4.19,0,0,1,2.78-.91,4.24,4.24,0,0,1,3,1,3.86,3.86,0,0,1,1.26,2.71C175.31,88.16,175.33,88.64,175.33,89.18Zm-5.15-2.46a1.41,1.41,0,0,0-.45.88,4.59,4.59,0,0,0-.06.76.09.09,0,0,0,.1.1h2.6a.09.09,0,0,0,.1-.1,4.59,4.59,0,0,0-.06-.76,1.46,1.46,0,0,0-.44-.87,1.28,1.28,0,0,0-.9-.33A1.23,1.23,0,0,0,170.18,86.72Z"/><path class="cls-3" d="M184.22,84.91a3.77,3.77,0,0,1,.83,2.59v6.68a.24.24,0,0,1-.24.24h-2.34a.24.24,0,0,1-.17-.07.23.23,0,0,1-.07-.17V87.9a1.66,1.66,0,0,0-.34-1.1,1.28,1.28,0,0,0-1.87,0,1.61,1.61,0,0,0-.35,1.11v6.26a.24.24,0,0,1-.24.24h-2.34a.24.24,0,0,1-.17-.07.23.23,0,0,1-.07-.17v-9.8a.24.24,0,0,1,.24-.24h2.34a.23.23,0,0,1,.17.07.24.24,0,0,1,.07.17v.56s0,.06,0,.07a.16.16,0,0,0,.1-.07,2.48,2.48,0,0,1,2.12-1A2.93,2.93,0,0,1,184.22,84.91Z"/><path class="cls-3" d="M199.11,89.18l0,.78a.21.21,0,0,1-.24.24h-5.3c-.07,0-.1,0-.1.1a5.55,5.55,0,0,0,.08.68,1.41,1.41,0,0,0,.49.88,1.49,1.49,0,0,0,1,.32,1.43,1.43,0,0,0,1.36-.9.24.24,0,0,1,.3-.16l2.12.42c.16,0,.21.14.16.3a4,4,0,0,1-1.45,2,4.27,4.27,0,0,1-2.49.71,4.51,4.51,0,0,1-2.83-.81,3.8,3.8,0,0,1-1.37-2.33,12.7,12.7,0,0,1-.18-2.5,9.25,9.25,0,0,1,.12-1.62,3.64,3.64,0,0,1,1.32-2.43,4.19,4.19,0,0,1,2.78-.91,4.24,4.24,0,0,1,3,1,3.86,3.86,0,0,1,1.26,2.71C199.09,88.16,199.11,88.64,199.11,89.18ZM194,86.72a1.41,1.41,0,0,0-.45.88,4.59,4.59,0,0,0-.06.76.09.09,0,0,0,.1.1h2.6a.09.09,0,0,0,.1-.1,4.59,4.59,0,0,0-.06-.76,1.46,1.46,0,0,0-.44-.87,1.28,1.28,0,0,0-.9-.33A1.23,1.23,0,0,0,194,86.72Z"/><path class="cls-3" d="M208,84.91a3.77,3.77,0,0,1,.83,2.59v6.68a.24.24,0,0,1-.24.24h-2.34a.24.24,0,0,1-.17-.07.23.23,0,0,1-.07-.17V87.9a1.66,1.66,0,0,0-.34-1.1,1.28,1.28,0,0,0-1.87,0,1.61,1.61,0,0,0-.35,1.11v6.26a.24.24,0,0,1-.24.24h-2.34a.24.24,0,0,1-.17-.07.23.23,0,0,1-.07-.17v-9.8a.24.24,0,0,1,.24-.24h2.34a.23.23,0,0,1,.17.07.24.24,0,0,1,.07.17v.56s0,.06,0,.07a.16.16,0,0,0,.1-.07,2.48,2.48,0,0,1,2.12-1A2.93,2.93,0,0,1,208,84.91Z"/><path class="cls-3" d="M220.43,84.24a.3.3,0,0,1,.12.32l-.4,2.3c0,.16-.11.2-.28.14a2.17,2.17,0,0,0-.58-.08,2.44,2.44,0,0,0-.52.06,1.48,1.48,0,0,0-1,.56,1.72,1.72,0,0,0-.4,1.16v5.48a.24.24,0,0,1-.24.24h-2.34a.24.24,0,0,1-.17-.07.23.23,0,0,1-.07-.17v-9.8a.24.24,0,0,1,.24-.24h2.34a.23.23,0,0,1,.17.07.24.24,0,0,1,.07.17v.8s0,.08,0,.09,0,0,.07,0a2.15,2.15,0,0,1,2-1.22A2,2,0,0,1,220.43,84.24Z"/><path class="cls-3" d="M229.77,89.18l0,.78a.21.21,0,0,1-.24.24h-5.3c-.07,0-.1,0-.1.1a5.55,5.55,0,0,0,.08.68,1.41,1.41,0,0,0,.49.88,1.49,1.49,0,0,0,1,.32,1.43,1.43,0,0,0,1.36-.9.24.24,0,0,1,.3-.16l2.12.42c.16,0,.21.14.16.3a4,4,0,0,1-1.45,2,4.27,4.27,0,0,1-2.49.71,4.51,4.51,0,0,1-2.83-.81,3.8,3.8,0,0,1-1.37-2.33,12.7,12.7,0,0,1-.18-2.5,9.25,9.25,0,0,1,.12-1.62,3.64,3.64,0,0,1,1.32-2.43,4.19,4.19,0,0,1,2.78-.91,4.24,4.24,0,0,1,3,1,3.86,3.86,0,0,1,1.26,2.71C229.75,88.16,229.77,88.64,229.77,89.18Zm-5.15-2.46a1.41,1.41,0,0,0-.45.88,4.59,4.59,0,0,0-.06.76.09.09,0,0,0,.1.1h2.6a.09.09,0,0,0,.1-.1,4.59,4.59,0,0,0-.06-.76,1.46,1.46,0,0,0-.44-.87,1.28,1.28,0,0,0-.9-.33A1.23,1.23,0,0,0,224.62,86.72Z"/><path class="cls-3" d="M231.32,94.35a.23.23,0,0,1-.07-.17V80.66a.24.24,0,0,1,.24-.24h2.34a.23.23,0,0,1,.17.07.24.24,0,0,1,.07.17V94.18a.24.24,0,0,1-.24.24h-2.34A.24.24,0,0,1,231.32,94.35Z"/><path class="cls-3" d="M241.89,84.41a3.49,3.49,0,0,1,1.47,1.2,3,3,0,0,1,.53,1.75v6.82a.24.24,0,0,1-.24.24h-2.34a.24.24,0,0,1-.17-.07.23.23,0,0,1-.07-.17v-.56a.09.09,0,0,0,0-.08s-.06,0-.08,0a2.8,2.8,0,0,1-2.36,1,3.63,3.63,0,0,1-2.27-.7,2.77,2.77,0,0,1-.91-2.34c0-2.18,1.36-3.26,4.08-3.26H241a.09.09,0,0,0,.1-.1v-.46a1.33,1.33,0,0,0-.35-1,1.27,1.27,0,0,0-.95-.36,1.35,1.35,0,0,0-.8.22.87.87,0,0,0-.4.6.27.27,0,0,1-.28.2l-2.42-.14a.24.24,0,0,1-.17-.06.14.14,0,0,1,0-.16,3,3,0,0,1,1.25-2.23,4.57,4.57,0,0,1,2.85-.85A5,5,0,0,1,241.89,84.41Zm-1.3,7.65a1.23,1.23,0,0,0,.48-1v-.84a.09.09,0,0,0-.1-.1h-1.12a1.82,1.82,0,0,0-1.16.32,1.08,1.08,0,0,0-.42.92,1,1,0,0,0,.32.8,1.25,1.25,0,0,0,.84.28A1.84,1.84,0,0,0,240.59,92.06Z"/><path class="cls-3" d="M246.88,93.73a3.63,3.63,0,0,1-1.35-2.33,11.47,11.47,0,0,1-.16-2.16,14.44,14.44,0,0,1,.16-2.12,3.53,3.53,0,0,1,1.36-2.29,4.35,4.35,0,0,1,2.76-.85,4.45,4.45,0,0,1,2.73.82A3.4,3.4,0,0,1,253.75,87c0,.12.05.31.08.58a.25.25,0,0,1-.24.26l-2.3.22h0c-.12,0-.2-.08-.22-.22a.88.88,0,0,0,0-.2c0-.11-.06-.2-.08-.28a1.29,1.29,0,0,0-.46-.66,1.32,1.32,0,0,0-.84-.26,1.19,1.19,0,0,0-.88.32,1.45,1.45,0,0,0-.44.88,9.5,9.5,0,0,0-.12,1.66,7.84,7.84,0,0,0,.14,1.72,1.53,1.53,0,0,0,.43.86,1.21,1.21,0,0,0,.87.32,1.36,1.36,0,0,0,.93-.32A1.29,1.29,0,0,0,251,91l0-.24a.26.26,0,0,1,.09-.17.15.15,0,0,1,.17,0l2.32.2a.24.24,0,0,1,.22.26c0,.08,0,.21,0,.4a3.36,3.36,0,0,1-1.31,2.3,4.53,4.53,0,0,1-2.81.84A4.4,4.4,0,0,1,246.88,93.73Z"/><path class="cls-3" d="M255.63,82.53a1.7,1.7,0,0,1,0-2.27,1.47,1.47,0,0,1,1.13-.44,1.58,1.58,0,1,1,0,3.16A1.48,1.48,0,0,1,255.63,82.53Zm-.21,11.82a.23.23,0,0,1-.07-.17v-9.8a.24.24,0,0,1,.24-.24h2.34a.23.23,0,0,1,.17.07.24.24,0,0,1,.07.17v9.8a.24.24,0,0,1-.24.24h-2.34A.24.24,0,0,1,255.42,94.35Z"/><path class="cls-3" d="M261.32,93.71A3.54,3.54,0,0,1,260,91.32a11.73,11.73,0,0,1-.16-2.06A11.49,11.49,0,0,1,260,87.2a3.49,3.49,0,0,1,1.33-2.35,4.48,4.48,0,0,1,2.85-.87,4.39,4.39,0,0,1,2.81.87,3.65,3.65,0,0,1,1.33,2.35,12.5,12.5,0,0,1,.16,2.06,12.79,12.79,0,0,1-.16,2A3.66,3.66,0,0,1,267,93.71a4.4,4.4,0,0,1-2.83.87A4.48,4.48,0,0,1,261.32,93.71Zm3.74-1.89a1.75,1.75,0,0,0,.49-.92,15.51,15.51,0,0,0,.1-1.64,14.38,14.38,0,0,0-.1-1.62,1.57,1.57,0,0,0-.47-.91,1.36,1.36,0,0,0-.93-.33,1.31,1.31,0,0,0-.91.33,1.46,1.46,0,0,0-.47.91,9.93,9.93,0,0,0-.1,1.62,12.51,12.51,0,0,0,.08,1.64,1.63,1.63,0,0,0,.5.92,1.36,1.36,0,0,0,.92.34A1.32,1.32,0,0,0,265.06,91.82Zm-2.27-9a.21.21,0,0,1,0-.2l1.14-2a.31.31,0,0,1,.3-.16h1.92a.2.2,0,0,1,.2.09.24.24,0,0,1,0,.21l-1.48,2a.34.34,0,0,1-.28.14H263C262.87,82.9,262.81,82.87,262.79,82.82Z"/><path class="cls-3" d="M277.32,84.91a3.77,3.77,0,0,1,.83,2.59v6.68a.24.24,0,0,1-.24.24h-2.34a.24.24,0,0,1-.17-.07.23.23,0,0,1-.07-.17V87.9a1.66,1.66,0,0,0-.34-1.1,1.28,1.28,0,0,0-1.87,0,1.61,1.61,0,0,0-.35,1.11v6.26a.24.24,0,0,1-.24.24h-2.34a.24.24,0,0,1-.17-.07.23.23,0,0,1-.07-.17v-9.8a.24.24,0,0,1,.24-.24h2.34a.23.23,0,0,1,.17.07.24.24,0,0,1,.07.17v.56s0,.06,0,.07a.16.16,0,0,0,.1-.07A2.48,2.48,0,0,1,275,84,2.93,2.93,0,0,1,277.32,84.91Z"/><path class="cls-3" d="M55.67,108.41a3.37,3.37,0,0,1,1.47,1.2,3,3,0,0,1,.53,1.75v6.82a.23.23,0,0,1-.07.17.26.26,0,0,1-.17.07H55.09a.26.26,0,0,1-.17-.07.23.23,0,0,1-.07-.17v-.56s0-.07,0-.08-.05,0-.08,0a2.79,2.79,0,0,1-2.36,1,3.65,3.65,0,0,1-2.27-.7,2.77,2.77,0,0,1-.91-2.34c0-2.18,1.36-3.26,4.08-3.26h1.48a.09.09,0,0,0,.1-.1v-.46a1.33,1.33,0,0,0-.35-1,1.26,1.26,0,0,0-1-.36,1.35,1.35,0,0,0-.8.22.91.91,0,0,0-.4.6.26.26,0,0,1-.28.2l-2.42-.14a.25.25,0,0,1-.17-.06.16.16,0,0,1,0-.16,3,3,0,0,1,1.25-2.23,4.57,4.57,0,0,1,2.85-.85A5,5,0,0,1,55.67,108.41Zm-1.3,7.65a1.23,1.23,0,0,0,.48-1v-.84c0-.07,0-.1-.1-.1H53.63a1.84,1.84,0,0,0-1.16.32,1.08,1.08,0,0,0-.42.92,1,1,0,0,0,.32.8,1.25,1.25,0,0,0,.84.28A1.84,1.84,0,0,0,54.37,116.06Z"/><path class="cls-3" d="M64.66,117.73a3.63,3.63,0,0,1-1.35-2.33,11.47,11.47,0,0,1-.16-2.16,14.44,14.44,0,0,1,.16-2.12,3.58,3.58,0,0,1,1.36-2.29,4.35,4.35,0,0,1,2.76-.85,4.45,4.45,0,0,1,2.73.82A3.36,3.36,0,0,1,71.53,111a5.38,5.38,0,0,1,.08.58.25.25,0,0,1-.24.26l-2.3.22h0c-.12,0-.19-.08-.22-.22a.88.88,0,0,0,0-.2c0-.11-.05-.2-.08-.28a1.23,1.23,0,0,0-.46-.66,1.32,1.32,0,0,0-.84-.26,1.21,1.21,0,0,0-.88.32,1.51,1.51,0,0,0-.44.88,9.5,9.5,0,0,0-.12,1.66,8.52,8.52,0,0,0,.14,1.72,1.6,1.6,0,0,0,.43.86,1.21,1.21,0,0,0,.87.32,1.33,1.33,0,0,0,.93-.32,1.29,1.29,0,0,0,.41-.8l0-.24a.26.26,0,0,1,.09-.17.16.16,0,0,1,.17,0l2.32.2a.23.23,0,0,1,.22.26,2.73,2.73,0,0,1,0,.4,3.32,3.32,0,0,1-1.31,2.3,4.53,4.53,0,0,1-2.81.84A4.42,4.42,0,0,1,64.66,117.73Z"/><path class="cls-3" d="M74.3,117.71A3.58,3.58,0,0,1,73,115.32a11.73,11.73,0,0,1-.16-2.06A11.49,11.49,0,0,1,73,111.2a3.53,3.53,0,0,1,1.33-2.35,4.48,4.48,0,0,1,2.85-.87,4.37,4.37,0,0,1,2.81.87,3.61,3.61,0,0,1,1.33,2.35,11.49,11.49,0,0,1,.16,2.06,11.73,11.73,0,0,1-.16,2A3.62,3.62,0,0,1,80,117.71a4.4,4.4,0,0,1-2.83.87A4.48,4.48,0,0,1,74.3,117.71ZM78,115.82a1.68,1.68,0,0,0,.49-.92,13.23,13.23,0,0,0,.1-1.64,12.36,12.36,0,0,0-.1-1.62,1.51,1.51,0,0,0-.47-.91,1.36,1.36,0,0,0-.93-.33,1.32,1.32,0,0,0-.91.33,1.51,1.51,0,0,0-.47.91,9.93,9.93,0,0,0-.1,1.62,14.55,14.55,0,0,0,.08,1.64,1.69,1.69,0,0,0,.5.92,1.36,1.36,0,0,0,.92.34A1.3,1.3,0,0,0,78,115.82Zm-2.27-9a.21.21,0,0,1,0-.2l1.14-2a.33.33,0,0,1,.3-.16h1.92c.11,0,.17,0,.2.09a.21.21,0,0,1,0,.21l-1.48,2a.34.34,0,0,1-.28.14H76A.19.19,0,0,1,75.77,106.82Z"/><path class="cls-3" d="M95.54,108.91a4,4,0,0,1,.77,2.61v6.66a.23.23,0,0,1-.07.17.26.26,0,0,1-.17.07H93.75a.26.26,0,0,1-.17-.07.23.23,0,0,1-.07-.17v-6.26a1.71,1.71,0,0,0-.33-1.11,1.07,1.07,0,0,0-.89-.41,1.11,1.11,0,0,0-.92.41A1.62,1.62,0,0,0,91,111.9v6.28a.23.23,0,0,1-.07.17.26.26,0,0,1-.17.07H88.47a.26.26,0,0,1-.17-.07.23.23,0,0,1-.07-.17v-6.26a1.66,1.66,0,0,0-.34-1.11,1.1,1.1,0,0,0-.9-.41,1.11,1.11,0,0,0-.92.41,1.62,1.62,0,0,0-.34,1.09v6.28a.23.23,0,0,1-.07.17.26.26,0,0,1-.17.07H83.17a.26.26,0,0,1-.17-.07.23.23,0,0,1-.07-.17v-9.8a.21.21,0,0,1,.07-.17.22.22,0,0,1,.17-.07h2.32a.22.22,0,0,1,.17.07.21.21,0,0,1,.07.17v.52a.08.08,0,0,0,0,.08s0,0,.08,0a2.45,2.45,0,0,1,1-.73A3,3,0,0,1,88,108a3,3,0,0,1,1.55.37,2.49,2.49,0,0,1,1,1.07,0,0,0,0,0,.06,0,.17.17,0,0,0,.08-.07,2.61,2.61,0,0,1,1.12-1.07,3.29,3.29,0,0,1,1.46-.33A2.73,2.73,0,0,1,95.54,108.91Z"/><path class="cls-3" d="M99.3,117.71A3.58,3.58,0,0,1,98,115.32a11.73,11.73,0,0,1-.16-2.06A11.49,11.49,0,0,1,98,111.2a3.53,3.53,0,0,1,1.33-2.35,4.48,4.48,0,0,1,2.85-.87,4.37,4.37,0,0,1,2.81.87,3.61,3.61,0,0,1,1.33,2.35,11.49,11.49,0,0,1,.16,2.06,11.73,11.73,0,0,1-.16,2,3.62,3.62,0,0,1-1.31,2.41,4.4,4.4,0,0,1-2.83.87A4.48,4.48,0,0,1,99.3,117.71Zm3.74-1.89a1.68,1.68,0,0,0,.49-.92,13.23,13.23,0,0,0,.1-1.64,12.36,12.36,0,0,0-.1-1.62,1.51,1.51,0,0,0-.47-.91,1.36,1.36,0,0,0-.93-.33,1.32,1.32,0,0,0-.91.33,1.51,1.51,0,0,0-.47.91,9.93,9.93,0,0,0-.1,1.62,14.55,14.55,0,0,0,.08,1.64,1.69,1.69,0,0,0,.5.92,1.36,1.36,0,0,0,.92.34A1.3,1.3,0,0,0,103,115.82Z"/><path class="cls-3" d="M120.53,113.38a10.11,10.11,0,0,1-.18,2.08,4.46,4.46,0,0,1-1.09,2.32,2.85,2.85,0,0,1-2.11.8,3.47,3.47,0,0,1-1.18-.19,2.24,2.24,0,0,1-.88-.63s0-.05-.08,0,0,0,0,.08v4.1a.23.23,0,0,1-.07.17.28.28,0,0,1-.17.07h-2.34a.26.26,0,0,1-.17-.07.23.23,0,0,1-.07-.17V108.38a.21.21,0,0,1,.07-.17.22.22,0,0,1,.17-.07h2.34a.23.23,0,0,1,.17.07.21.21,0,0,1,.07.17v.4a.08.08,0,0,0,0,.08.08.08,0,0,0,.08,0,2.62,2.62,0,0,1,2.12-.86q2.42,0,3.12,3.16A10.73,10.73,0,0,1,120.53,113.38Zm-2.82-.1a7.62,7.62,0,0,0-.16-1.72,1.64,1.64,0,0,0-.43-.85,1.09,1.09,0,0,0-.81-.31c-.61,0-1,.38-1.18,1.16a6.73,6.73,0,0,0-.16,1.72,8,8,0,0,0,.16,1.78c.17.73.57,1.1,1.18,1.1s1-.36,1.22-1.08A7.12,7.12,0,0,0,117.71,113.28Z"/><path class="cls-3" d="M122.57,106.53a1.57,1.57,0,0,1-.44-1.13,1.54,1.54,0,0,1,.43-1.14,1.48,1.48,0,0,1,1.13-.44,1.51,1.51,0,0,1,1.14.44,1.59,1.59,0,0,1-1.14,2.72A1.5,1.5,0,0,1,122.57,106.53Zm-.21,11.82a.23.23,0,0,1-.07-.17v-9.8a.21.21,0,0,1,.07-.17.22.22,0,0,1,.17-.07h2.34a.22.22,0,0,1,.17.07.24.24,0,0,1,.07.17v9.8a.28.28,0,0,1-.07.17.26.26,0,0,1-.17.07h-2.34A.26.26,0,0,1,122.36,118.35Z"/><path class="cls-3" d="M135.29,113.18l0,.78a.21.21,0,0,1-.24.24h-5.3c-.07,0-.1,0-.1.1,0,.3.05.53.08.68a1.46,1.46,0,0,0,.49.88,1.49,1.49,0,0,0,1,.32,1.42,1.42,0,0,0,1.36-.9.25.25,0,0,1,.3-.16l2.12.42c.16,0,.21.14.16.3a3.93,3.93,0,0,1-1.45,2,4.23,4.23,0,0,1-2.49.71,4.51,4.51,0,0,1-2.83-.81,3.8,3.8,0,0,1-1.37-2.33,12.7,12.7,0,0,1-.18-2.5,9.25,9.25,0,0,1,.12-1.62,3.72,3.72,0,0,1,1.32-2.43A4.19,4.19,0,0,1,131,108a4.24,4.24,0,0,1,3,1,3.86,3.86,0,0,1,1.26,2.71C135.27,112.16,135.29,112.64,135.29,113.18Zm-5.15-2.46a1.52,1.52,0,0,0-.45.88,4.59,4.59,0,0,0-.06.76.09.09,0,0,0,.1.1h2.6a.09.09,0,0,0,.1-.1,4.59,4.59,0,0,0-.06-.76,1.4,1.4,0,0,0-.44-.87,1.28,1.28,0,0,0-.9-.33A1.23,1.23,0,0,0,130.14,110.72Z"/><path class="cls-3" d="M144.18,108.91a3.77,3.77,0,0,1,.83,2.59v6.68a.23.23,0,0,1-.07.17.26.26,0,0,1-.17.07h-2.34a.26.26,0,0,1-.17-.07.23.23,0,0,1-.07-.17V111.9a1.61,1.61,0,0,0-.34-1.1,1.13,1.13,0,0,0-.92-.4,1.16,1.16,0,0,0-1,.41,1.66,1.66,0,0,0-.35,1.11v6.26a.23.23,0,0,1-.07.17.26.26,0,0,1-.17.07h-2.34a.26.26,0,0,1-.17-.07.23.23,0,0,1-.07-.17v-9.8a.21.21,0,0,1,.07-.17.22.22,0,0,1,.17-.07h2.34a.22.22,0,0,1,.17.07.21.21,0,0,1,.07.17v.56s0,.06,0,.07.06,0,.1-.07a2.49,2.49,0,0,1,2.12-1A2.91,2.91,0,0,1,144.18,108.91Z"/><path class="cls-3" d="M147.55,117.74a2.58,2.58,0,0,1-1.1-2.16v-.16a.21.21,0,0,1,.07-.17.22.22,0,0,1,.17-.07h2.2a.22.22,0,0,1,.17.07.21.21,0,0,1,.07.17v0a.85.85,0,0,0,.4.72,1.72,1.72,0,0,0,1,.28,1.33,1.33,0,0,0,.86-.25.79.79,0,0,0,.32-.63.63.63,0,0,0-.35-.58,5.92,5.92,0,0,0-1.13-.46c-.21-.06-.53-.16-1-.32a5.51,5.51,0,0,1-1.95-1.08,2.53,2.53,0,0,1-.75-2,2.82,2.82,0,0,1,1.06-2.32,5,5,0,0,1,5.67,0,2.93,2.93,0,0,1,1.07,2.37c0,.14-.08.22-.24.22H152a.22.22,0,0,1-.17-.07.23.23,0,0,1-.07-.17v-.06a.85.85,0,0,0-.34-.7,1.4,1.4,0,0,0-.92-.28,1.33,1.33,0,0,0-.87.26.77.77,0,0,0-.33.64.72.72,0,0,0,.4.65,6.11,6.11,0,0,0,1.22.47l.35.11.31.11a6.94,6.94,0,0,1,2.18,1.11,2.29,2.29,0,0,1,.82,1.93,2.67,2.67,0,0,1-1.09,2.26,4.8,4.8,0,0,1-2.93.82A4.88,4.88,0,0,1,147.55,117.74Z"/><path class="cls-3" d="M162,108.41a3.37,3.37,0,0,1,1.47,1.2,3,3,0,0,1,.53,1.75v6.82a.28.28,0,0,1-.07.17.26.26,0,0,1-.17.07h-2.34a.26.26,0,0,1-.17-.07.23.23,0,0,1-.07-.17v-.56s0-.07,0-.08-.05,0-.08,0a2.8,2.8,0,0,1-2.36,1,3.65,3.65,0,0,1-2.27-.7,2.77,2.77,0,0,1-.91-2.34c0-2.18,1.36-3.26,4.08-3.26H161a.09.09,0,0,0,.1-.1v-.46a1.33,1.33,0,0,0-.35-1,1.27,1.27,0,0,0-.95-.36,1.35,1.35,0,0,0-.8.22.91.91,0,0,0-.4.6.26.26,0,0,1-.28.2l-2.42-.14a.24.24,0,0,1-.17-.06.16.16,0,0,1,0-.16,3,3,0,0,1,1.25-2.23,4.57,4.57,0,0,1,2.85-.85A5,5,0,0,1,162,108.41Zm-1.3,7.65a1.23,1.23,0,0,0,.48-1v-.84a.09.09,0,0,0-.1-.1h-1.12a1.84,1.84,0,0,0-1.16.32,1.08,1.08,0,0,0-.42.92,1,1,0,0,0,.32.8,1.25,1.25,0,0,0,.84.28A1.84,1.84,0,0,0,160.65,116.06Z"/><path class="cls-3" d="M173,108.91a3.77,3.77,0,0,1,.83,2.59v6.68a.28.28,0,0,1-.07.17.26.26,0,0,1-.17.07h-2.34a.24.24,0,0,1-.17-.07.23.23,0,0,1-.07-.17V111.9a1.66,1.66,0,0,0-.34-1.1,1.28,1.28,0,0,0-1.87,0,1.61,1.61,0,0,0-.35,1.11v6.26a.24.24,0,0,1-.24.24h-2.34a.26.26,0,0,1-.17-.07.23.23,0,0,1-.07-.17v-9.8a.21.21,0,0,1,.07-.17.22.22,0,0,1,.17-.07h2.34a.23.23,0,0,1,.17.07.24.24,0,0,1,.07.17v.56s0,.06,0,.07a.16.16,0,0,0,.1-.07,2.48,2.48,0,0,1,2.12-1A2.91,2.91,0,0,1,173,108.91Z"/><path class="cls-3" d="M179.45,122.33a.33.33,0,0,1,0-.17v-1.84c0-.16.07-.24.22-.24a3.47,3.47,0,0,0,1.63-.33,1.76,1.76,0,0,0,.63-1.27l0-.12-2.88-10,0-.08c0-.14.07-.2.22-.2h2.52a.24.24,0,0,1,.26.22l1.3,6.22s0,.08.06.08,0,0,.06-.08l1.3-6.22a.23.23,0,0,1,.26-.22l2.48,0a.19.19,0,0,1,.17.07.27.27,0,0,1,0,.19l-3.06,10.4a9,9,0,0,1-.93,2.19,2.89,2.89,0,0,1-1.39,1.07,7.79,7.79,0,0,1-2.58.34h-.12A.12.12,0,0,1,179.45,122.33Z"/><path class="cls-3" d="M198.91,108.41a3.49,3.49,0,0,1,1.47,1.2,3,3,0,0,1,.53,1.75v6.82a.24.24,0,0,1-.24.24h-2.34a.24.24,0,0,1-.17-.07.23.23,0,0,1-.07-.17v-.56a.09.09,0,0,0,0-.08s-.06,0-.08,0a2.8,2.8,0,0,1-2.36,1,3.63,3.63,0,0,1-2.27-.7,2.77,2.77,0,0,1-.91-2.34c0-2.18,1.36-3.26,4.08-3.26H198a.09.09,0,0,0,.1-.1v-.46a1.33,1.33,0,0,0-.35-1,1.27,1.27,0,0,0-1-.36,1.35,1.35,0,0,0-.8.22.87.87,0,0,0-.4.6.27.27,0,0,1-.28.2l-2.42-.14a.24.24,0,0,1-.17-.06.14.14,0,0,1-.05-.16,3,3,0,0,1,1.25-2.23,4.57,4.57,0,0,1,2.85-.85A5,5,0,0,1,198.91,108.41Zm-1.3,7.65a1.23,1.23,0,0,0,.48-1v-.84a.09.09,0,0,0-.1-.1h-1.12a1.84,1.84,0,0,0-1.16.32,1.08,1.08,0,0,0-.42.92,1,1,0,0,0,.32.8,1.25,1.25,0,0,0,.84.28A1.84,1.84,0,0,0,197.61,116.06Z"/><path class="cls-3" d="M211.05,113.38a10.11,10.11,0,0,1-.18,2.08,4.54,4.54,0,0,1-1.09,2.32,2.85,2.85,0,0,1-2.11.8,3.43,3.43,0,0,1-1.18-.19,2.24,2.24,0,0,1-.88-.63s-.06-.05-.08,0,0,0,0,.08v4.1a.24.24,0,0,1-.24.24h-2.34a.26.26,0,0,1-.17-.07.23.23,0,0,1-.07-.17V108.38a.21.21,0,0,1,.07-.17.22.22,0,0,1,.17-.07h2.34a.23.23,0,0,1,.17.07.24.24,0,0,1,.07.17v.4a.08.08,0,0,0,0,.08.09.09,0,0,0,.08,0,2.62,2.62,0,0,1,2.12-.86q2.42,0,3.12,3.16A10.73,10.73,0,0,1,211.05,113.38Zm-2.82-.1a8.25,8.25,0,0,0-.16-1.72,1.71,1.71,0,0,0-.43-.85,1.09,1.09,0,0,0-.81-.31c-.62,0-1,.38-1.18,1.16a6.73,6.73,0,0,0-.16,1.72,8,8,0,0,0,.16,1.78c.17.73.56,1.1,1.18,1.1s1-.36,1.22-1.08A7.12,7.12,0,0,0,208.23,113.28Z"/><path class="cls-3" d="M218.61,108.24a.3.3,0,0,1,.12.32l-.4,2.3c0,.16-.11.2-.28.14a2.17,2.17,0,0,0-.58-.08,2.44,2.44,0,0,0-.52.06,1.5,1.5,0,0,0-1,.56,1.72,1.72,0,0,0-.4,1.16v5.48a.24.24,0,0,1-.24.24H213a.26.26,0,0,1-.17-.07.23.23,0,0,1-.07-.17v-9.8a.21.21,0,0,1,.07-.17.22.22,0,0,1,.17-.07h2.34a.23.23,0,0,1,.17.07.24.24,0,0,1,.07.17v.8s0,.08,0,.09,0,0,.07,0a2.15,2.15,0,0,1,2-1.22A2,2,0,0,1,218.61,108.24Z"/><path class="cls-3" d="M228,113.18l0,.78a.21.21,0,0,1-.24.24h-5.3c-.07,0-.1,0-.1.1a5.55,5.55,0,0,0,.08.68,1.41,1.41,0,0,0,.49.88,1.49,1.49,0,0,0,1,.32,1.43,1.43,0,0,0,1.36-.9.24.24,0,0,1,.3-.16l2.12.42c.16,0,.21.14.16.3a4,4,0,0,1-1.45,2,4.27,4.27,0,0,1-2.49.71,4.51,4.51,0,0,1-2.83-.81,3.8,3.8,0,0,1-1.37-2.33,12.7,12.7,0,0,1-.18-2.5,9.25,9.25,0,0,1,.12-1.62,3.64,3.64,0,0,1,1.32-2.43,4.19,4.19,0,0,1,2.78-.91,4.24,4.24,0,0,1,3,1,3.86,3.86,0,0,1,1.26,2.71C227.93,112.16,228,112.64,228,113.18Zm-5.15-2.46a1.41,1.41,0,0,0-.45.88,4.59,4.59,0,0,0-.06.76.09.09,0,0,0,.1.1H225a.09.09,0,0,0,.1-.1,4.59,4.59,0,0,0-.06-.76,1.46,1.46,0,0,0-.44-.87,1.28,1.28,0,0,0-.9-.33A1.23,1.23,0,0,0,222.8,110.72Z"/><path class="cls-3" d="M236.84,108.91a3.77,3.77,0,0,1,.83,2.59v6.68a.24.24,0,0,1-.24.24h-2.34a.24.24,0,0,1-.17-.07.23.23,0,0,1-.07-.17V111.9a1.66,1.66,0,0,0-.34-1.1,1.28,1.28,0,0,0-1.87,0,1.61,1.61,0,0,0-.35,1.11v6.26a.24.24,0,0,1-.24.24h-2.34a.24.24,0,0,1-.17-.07.23.23,0,0,1-.07-.17v-9.8a.24.24,0,0,1,.24-.24h2.34a.23.23,0,0,1,.17.07.24.24,0,0,1,.07.17v.56s0,.06,0,.07a.16.16,0,0,0,.1-.07,2.48,2.48,0,0,1,2.12-1A2.93,2.93,0,0,1,236.84,108.91Z"/><path class="cls-3" d="M244.94,104.49a.21.21,0,0,1,.17-.07h2.34a.23.23,0,0,1,.17.07.21.21,0,0,1,.07.17v13.52a.23.23,0,0,1-.07.17.28.28,0,0,1-.17.07h-2.34a.24.24,0,0,1-.17-.07.23.23,0,0,1-.07-.17v-.44a.09.09,0,0,0,0-.08s-.06,0-.08,0a2.64,2.64,0,0,1-2.12.88c-1.63,0-2.67-1.06-3.14-3.18a10.9,10.9,0,0,1-.2-2.22,12.06,12.06,0,0,1,.18-2.1q.61-3.1,3.2-3.1a3.36,3.36,0,0,1,1.2.19,2.09,2.09,0,0,1,.88.65.06.06,0,0,0,.08,0,.1.1,0,0,0,0-.08v-4.12A.21.21,0,0,1,244.94,104.49Zm-.09,8.77a8.45,8.45,0,0,0-.16-1.76c-.18-.74-.57-1.1-1.18-1.1a1.05,1.05,0,0,0-.76.28,1.58,1.58,0,0,0-.44.8,6.44,6.44,0,0,0-.18,1.78,7.49,7.49,0,0,0,.14,1.72c.17.78.58,1.18,1.24,1.18s1-.39,1.2-1.16A8.26,8.26,0,0,0,244.85,113.26Z"/><path class="cls-3" d="M257.81,113.18l0,.78a.21.21,0,0,1-.24.24h-5.3c-.07,0-.1,0-.1.1a5.55,5.55,0,0,0,.08.68,1.41,1.41,0,0,0,.49.88,1.49,1.49,0,0,0,1,.32,1.43,1.43,0,0,0,1.36-.9.24.24,0,0,1,.3-.16l2.12.42c.16,0,.21.14.16.3a4,4,0,0,1-1.45,2,4.27,4.27,0,0,1-2.49.71,4.51,4.51,0,0,1-2.83-.81,3.8,3.8,0,0,1-1.37-2.33,12.7,12.7,0,0,1-.18-2.5,9.25,9.25,0,0,1,.12-1.62,3.64,3.64,0,0,1,1.32-2.43,4.19,4.19,0,0,1,2.78-.91,4.24,4.24,0,0,1,3,1,3.86,3.86,0,0,1,1.26,2.71C257.79,112.16,257.81,112.64,257.81,113.18Zm-5.15-2.46a1.41,1.41,0,0,0-.45.88,4.59,4.59,0,0,0-.06.76.09.09,0,0,0,.1.1h2.6a.09.09,0,0,0,.1-.1,4.59,4.59,0,0,0-.06-.76,1.46,1.46,0,0,0-.44-.87,1.28,1.28,0,0,0-.9-.33A1.23,1.23,0,0,0,252.66,110.72Z"/><path class="cls-3" d="M266.7,108.91a3.77,3.77,0,0,1,.83,2.59v6.68a.24.24,0,0,1-.24.24H265a.24.24,0,0,1-.17-.07.23.23,0,0,1-.07-.17V111.9a1.66,1.66,0,0,0-.34-1.1,1.28,1.28,0,0,0-1.87,0,1.61,1.61,0,0,0-.35,1.11v6.26a.24.24,0,0,1-.24.24h-2.34a.24.24,0,0,1-.17-.07.23.23,0,0,1-.07-.17v-9.8a.24.24,0,0,1,.24-.24h2.34a.23.23,0,0,1,.17.07.24.24,0,0,1,.07.17v.56s0,.06,0,.07a.16.16,0,0,0,.1-.07,2.48,2.48,0,0,1,2.12-1A2.93,2.93,0,0,1,266.7,108.91Z"/><path class="cls-3" d="M49.64,142.35a.23.23,0,0,1-.07-.17V128.66a.21.21,0,0,1,.07-.17.22.22,0,0,1,.17-.07h2.34a.22.22,0,0,1,.17.07.21.21,0,0,1,.07.17v13.52a.23.23,0,0,1-.07.17.26.26,0,0,1-.17.07H49.81A.26.26,0,0,1,49.64,142.35Z"/><path class="cls-3" d="M55.44,141.71a3.58,3.58,0,0,1-1.33-2.39,11.73,11.73,0,0,1-.16-2.06,11.49,11.49,0,0,1,.16-2.06,3.53,3.53,0,0,1,1.33-2.35,4.48,4.48,0,0,1,2.85-.87,4.37,4.37,0,0,1,2.81.87,3.61,3.61,0,0,1,1.33,2.35,11.49,11.49,0,0,1,.16,2.06,11.73,11.73,0,0,1-.16,2,3.62,3.62,0,0,1-1.31,2.41,4.4,4.4,0,0,1-2.83.87A4.48,4.48,0,0,1,55.44,141.71Zm3.74-1.89a1.68,1.68,0,0,0,.49-.92,13.23,13.23,0,0,0,.1-1.64,12.36,12.36,0,0,0-.1-1.62,1.51,1.51,0,0,0-.47-.91,1.36,1.36,0,0,0-.93-.33,1.32,1.32,0,0,0-.91.33,1.51,1.51,0,0,0-.47.91,9.93,9.93,0,0,0-.1,1.62,14.55,14.55,0,0,0,.08,1.64,1.69,1.69,0,0,0,.5.92,1.36,1.36,0,0,0,.92.34A1.3,1.3,0,0,0,59.18,139.82Z"/><path class="cls-3" d="M65,141.74a2.58,2.58,0,0,1-1.1-2.16v-.16a.21.21,0,0,1,.07-.17.22.22,0,0,1,.17-.07h2.2a.22.22,0,0,1,.17.07.21.21,0,0,1,.07.17v0a.85.85,0,0,0,.4.72,1.72,1.72,0,0,0,1,.28,1.33,1.33,0,0,0,.86-.25.79.79,0,0,0,.32-.63.63.63,0,0,0-.35-.58,5.92,5.92,0,0,0-1.13-.46c-.21-.06-.53-.16-1-.32a5.51,5.51,0,0,1-1.95-1.08,2.53,2.53,0,0,1-.75-2,2.82,2.82,0,0,1,1.06-2.32,5,5,0,0,1,5.67,0,2.93,2.93,0,0,1,1.07,2.37c0,.14-.08.22-.24.22H69.41a.22.22,0,0,1-.17-.07.23.23,0,0,1-.07-.17v-.06a.85.85,0,0,0-.34-.7,1.4,1.4,0,0,0-.92-.28,1.33,1.33,0,0,0-.87.26.77.77,0,0,0-.33.64.72.72,0,0,0,.4.65,6.11,6.11,0,0,0,1.22.47l.35.11.31.11a6.94,6.94,0,0,1,2.18,1.11,2.29,2.29,0,0,1,.82,1.93,2.69,2.69,0,0,1-1.09,2.26,4.8,4.8,0,0,1-2.93.82A4.88,4.88,0,0,1,65,141.74Z"/><path class="cls-3" d="M85.67,137.18l0,.78a.21.21,0,0,1-.24.24h-5.3c-.07,0-.1,0-.1.1,0,.3,0,.53.08.68a1.46,1.46,0,0,0,.49.88,1.49,1.49,0,0,0,1,.32,1.42,1.42,0,0,0,1.36-.9.24.24,0,0,1,.3-.16l2.12.42c.16,0,.21.14.16.3a3.93,3.93,0,0,1-1.45,2,4.23,4.23,0,0,1-2.49.71,4.51,4.51,0,0,1-2.83-.81,3.8,3.8,0,0,1-1.37-2.33,12.7,12.7,0,0,1-.18-2.5,9.25,9.25,0,0,1,.12-1.62,3.68,3.68,0,0,1,1.32-2.43,4.19,4.19,0,0,1,2.78-.91,4.24,4.24,0,0,1,3,1,3.86,3.86,0,0,1,1.26,2.71C85.65,136.16,85.67,136.64,85.67,137.18Zm-5.15-2.46a1.46,1.46,0,0,0-.45.88,4.59,4.59,0,0,0-.06.76.09.09,0,0,0,.1.1h2.6a.09.09,0,0,0,.1-.1,4.59,4.59,0,0,0-.06-.76,1.4,1.4,0,0,0-.44-.87,1.28,1.28,0,0,0-.9-.33A1.23,1.23,0,0,0,80.52,134.72Z"/><path class="cls-3" d="M87.91,141.74a2.56,2.56,0,0,1-1.1-2.16v-.16a.24.24,0,0,1,.24-.24h2.2a.23.23,0,0,1,.17.07.24.24,0,0,1,.07.17v0a.85.85,0,0,0,.4.72,1.72,1.72,0,0,0,1,.28,1.35,1.35,0,0,0,.86-.25.79.79,0,0,0,.32-.63.63.63,0,0,0-.35-.58,6.22,6.22,0,0,0-1.13-.46c-.22-.06-.53-.16-1-.32a5.51,5.51,0,0,1-2-1.08,2.53,2.53,0,0,1-.75-2A2.82,2.82,0,0,1,88,132.86a4.26,4.26,0,0,1,2.8-.86,4.32,4.32,0,0,1,2.87.89,2.93,2.93,0,0,1,1.07,2.37c0,.14-.08.22-.24.22H92.31a.21.21,0,0,1-.17-.07.23.23,0,0,1-.07-.17v-.06a.85.85,0,0,0-.34-.7,1.4,1.4,0,0,0-.92-.28,1.33,1.33,0,0,0-.87.26.77.77,0,0,0-.33.64.72.72,0,0,0,.4.65,5.87,5.87,0,0,0,1.22.47l.35.11.31.11a7,7,0,0,1,2.18,1.11,2.29,2.29,0,0,1,.82,1.93,2.69,2.69,0,0,1-1.09,2.26,4.83,4.83,0,0,1-2.93.82A4.88,4.88,0,0,1,87.91,141.74Z"/><path class="cls-3" d="M101.46,134.19a.28.28,0,0,1-.17.07H99.75c-.07,0-.1,0-.1.1v4.5a1.28,1.28,0,0,0,.25.89,1,1,0,0,0,.77.25h.4a.23.23,0,0,1,.17.07.21.21,0,0,1,.07.17v1.94a.21.21,0,0,1-.24.24l-1,0a4.28,4.28,0,0,1-2.35-.52,2.21,2.21,0,0,1-.77-2v-5.6c0-.07,0-.1-.1-.1h-.92a.24.24,0,0,1-.17-.07.23.23,0,0,1-.07-.17v-1.64a.24.24,0,0,1,.24-.24h.92a.09.09,0,0,0,.1-.1v-2.3a.24.24,0,0,1,.24-.24h2.22a.23.23,0,0,1,.17.07.24.24,0,0,1,.07.17V132a.09.09,0,0,0,.1.1h1.54a.23.23,0,0,1,.17.07.24.24,0,0,1,.07.17V134A.28.28,0,0,1,101.46,134.19Z"/><path class="cls-3" d="M108.3,132.21a.21.21,0,0,1,.17-.07h2.34a.22.22,0,0,1,.17.07.24.24,0,0,1,.07.17v9.8a.28.28,0,0,1-.07.17.26.26,0,0,1-.17.07h-2.34a.24.24,0,0,1-.17-.07.23.23,0,0,1-.07-.17v-.5s0-.07,0-.07a.07.07,0,0,0-.08,0,2.51,2.51,0,0,1-2.14.92,2.94,2.94,0,0,1-3.12-3.24v-6.94a.24.24,0,0,1,.24-.24h2.34a.22.22,0,0,1,.17.07.24.24,0,0,1,.07.17v6.28a1.7,1.7,0,0,0,.33,1.1,1.16,1.16,0,0,0,.93.4,1.18,1.18,0,0,0,.95-.42,1.72,1.72,0,0,0,.35-1.12v-6.24A.21.21,0,0,1,108.3,132.21Z"/><path class="cls-3" d="M118.4,128.49a.21.21,0,0,1,.17-.07h2.34a.23.23,0,0,1,.17.07.24.24,0,0,1,.07.17v13.52a.24.24,0,0,1-.24.24h-2.34a.24.24,0,0,1-.17-.07.23.23,0,0,1-.07-.17v-.44a.09.09,0,0,0,0-.08s-.06,0-.08,0a2.64,2.64,0,0,1-2.12.88c-1.63,0-2.67-1.06-3.14-3.18a10.9,10.9,0,0,1-.2-2.22,12.06,12.06,0,0,1,.18-2.1q.61-3.11,3.2-3.1a3.36,3.36,0,0,1,1.2.19,2.09,2.09,0,0,1,.88.65.06.06,0,0,0,.08,0,.1.1,0,0,0,0-.08v-4.12A.21.21,0,0,1,118.4,128.49Zm-.09,8.77a8.45,8.45,0,0,0-.16-1.76c-.18-.74-.57-1.1-1.18-1.1a1.05,1.05,0,0,0-.76.28,1.58,1.58,0,0,0-.44.8,6.44,6.44,0,0,0-.18,1.78,7.49,7.49,0,0,0,.14,1.72c.17.78.58,1.18,1.24,1.18s1-.39,1.2-1.16A8.26,8.26,0,0,0,118.31,137.26Z"/><path class="cls-3" d="M123.29,130.53a1.7,1.7,0,0,1,0-2.27,1.47,1.47,0,0,1,1.13-.44,1.58,1.58,0,1,1,0,3.16A1.48,1.48,0,0,1,123.29,130.53Zm-.21,11.82a.23.23,0,0,1-.07-.17v-9.8a.24.24,0,0,1,.24-.24h2.34a.23.23,0,0,1,.17.07.24.24,0,0,1,.07.17v9.8a.24.24,0,0,1-.24.24h-2.34A.24.24,0,0,1,123.08,142.35Z"/><path class="cls-3" d="M133.75,132.41a3.49,3.49,0,0,1,1.47,1.2,3,3,0,0,1,.53,1.75v6.82a.24.24,0,0,1-.24.24h-2.34a.24.24,0,0,1-.17-.07.23.23,0,0,1-.07-.17v-.56a.09.09,0,0,0,0-.08s-.06,0-.08,0a2.8,2.8,0,0,1-2.36,1,3.63,3.63,0,0,1-2.27-.7,2.77,2.77,0,0,1-.91-2.34c0-2.18,1.36-3.26,4.08-3.26h1.48a.09.09,0,0,0,.1-.1v-.46a1.33,1.33,0,0,0-.35-1,1.27,1.27,0,0,0-1-.36,1.35,1.35,0,0,0-.8.22.87.87,0,0,0-.4.6.27.27,0,0,1-.28.2l-2.42-.14a.24.24,0,0,1-.17-.06.14.14,0,0,1,0-.16,3,3,0,0,1,1.25-2.23,4.57,4.57,0,0,1,2.85-.85A5,5,0,0,1,133.75,132.41Zm-1.3,7.65a1.23,1.23,0,0,0,.48-1v-.84a.09.09,0,0,0-.1-.1h-1.12a1.82,1.82,0,0,0-1.16.32,1.08,1.08,0,0,0-.42.92,1,1,0,0,0,.32.8,1.25,1.25,0,0,0,.84.28A1.84,1.84,0,0,0,132.45,140.06Z"/><path class="cls-3" d="M144.8,132.91a3.77,3.77,0,0,1,.83,2.59v6.68a.24.24,0,0,1-.24.24h-2.34a.24.24,0,0,1-.17-.07.23.23,0,0,1-.07-.17V135.9a1.66,1.66,0,0,0-.34-1.1,1.28,1.28,0,0,0-1.87,0,1.61,1.61,0,0,0-.35,1.11v6.26a.24.24,0,0,1-.24.24h-2.34a.24.24,0,0,1-.17-.07.23.23,0,0,1-.07-.17v-9.8a.24.24,0,0,1,.24-.24H140a.23.23,0,0,1,.17.07.24.24,0,0,1,.07.17v.56s0,.06,0,.07a.16.16,0,0,0,.1-.07,2.48,2.48,0,0,1,2.12-1A2.93,2.93,0,0,1,144.8,132.91Z"/><path class="cls-3" d="M152.6,134.19a.28.28,0,0,1-.17.07h-1.54c-.07,0-.1,0-.1.1v4.5a1.28,1.28,0,0,0,.25.89,1,1,0,0,0,.77.25h.4a.23.23,0,0,1,.17.07.24.24,0,0,1,.07.17v1.94a.21.21,0,0,1-.24.24l-1,0a4.28,4.28,0,0,1-2.35-.52,2.19,2.19,0,0,1-.77-2v-5.6a.09.09,0,0,0-.1-.1h-.92a.24.24,0,0,1-.17-.07.23.23,0,0,1-.07-.17v-1.64a.24.24,0,0,1,.24-.24H148a.09.09,0,0,0,.1-.1v-2.3a.24.24,0,0,1,.24-.24h2.22a.23.23,0,0,1,.17.07.24.24,0,0,1,.07.17V132a.09.09,0,0,0,.1.1h1.54a.23.23,0,0,1,.17.07.24.24,0,0,1,.07.17V134A.28.28,0,0,1,152.6,134.19Z"/><path class="cls-3" d="M162.31,137.18l0,.78a.21.21,0,0,1-.24.24h-5.3c-.07,0-.1,0-.1.1a5.55,5.55,0,0,0,.08.68,1.41,1.41,0,0,0,.49.88,1.49,1.49,0,0,0,1,.32,1.43,1.43,0,0,0,1.36-.9.24.24,0,0,1,.3-.16l2.12.42c.16,0,.21.14.16.3a4,4,0,0,1-1.45,2,4.27,4.27,0,0,1-2.49.71,4.51,4.51,0,0,1-2.83-.81,3.8,3.8,0,0,1-1.37-2.33,12.7,12.7,0,0,1-.18-2.5,9.25,9.25,0,0,1,.12-1.62,3.64,3.64,0,0,1,1.32-2.43A4.19,4.19,0,0,1,158,132a4.24,4.24,0,0,1,3,1,3.86,3.86,0,0,1,1.26,2.71C162.29,136.16,162.31,136.64,162.31,137.18Zm-5.15-2.46a1.41,1.41,0,0,0-.45.88,4.59,4.59,0,0,0-.06.76.09.09,0,0,0,.1.1h2.6a.09.09,0,0,0,.1-.1,4.59,4.59,0,0,0-.06-.76,1.46,1.46,0,0,0-.44-.87,1.28,1.28,0,0,0-.9-.33A1.23,1.23,0,0,0,157.16,134.72Z"/><path class="cls-3" d="M164.55,141.74a2.56,2.56,0,0,1-1.1-2.16v-.16a.24.24,0,0,1,.24-.24h2.2a.23.23,0,0,1,.17.07.24.24,0,0,1,.07.17v0a.85.85,0,0,0,.4.72,1.69,1.69,0,0,0,1,.28,1.35,1.35,0,0,0,.86-.25.79.79,0,0,0,.32-.63.63.63,0,0,0-.35-.58,6.22,6.22,0,0,0-1.13-.46c-.22-.06-.54-.16-1-.32a5.51,5.51,0,0,1-1.95-1.08,2.53,2.53,0,0,1-.75-2,2.82,2.82,0,0,1,1.06-2.32,4.26,4.26,0,0,1,2.8-.86,4.32,4.32,0,0,1,2.87.89,2.93,2.93,0,0,1,1.07,2.37c0,.14-.08.22-.24.22H169a.21.21,0,0,1-.17-.07.23.23,0,0,1-.07-.17v-.06a.88.88,0,0,0-.34-.7,1.4,1.4,0,0,0-.92-.28,1.33,1.33,0,0,0-.87.26.77.77,0,0,0-.33.64.72.72,0,0,0,.4.65,5.87,5.87,0,0,0,1.22.47l.35.11.31.11a7,7,0,0,1,2.18,1.11,2.32,2.32,0,0,1,.82,1.93,2.69,2.69,0,0,1-1.09,2.26,4.83,4.83,0,0,1-2.93.82A4.88,4.88,0,0,1,164.55,141.74Z"/><path class="cls-3" d="M175.12,137.91a.23.23,0,0,1-.07-.17v-.64a2.62,2.62,0,0,1,.46-1.62,6.14,6.14,0,0,1,1.34-1.28,6.79,6.79,0,0,0,1-1,1.61,1.61,0,0,0,.34-1,1.39,1.39,0,0,0-.39-1,1.42,1.42,0,0,0-1.05-.39,1.5,1.5,0,0,0-1.12.41,1.44,1.44,0,0,0-.42,1.09v.32c0,.14-.08.22-.24.22l-2.34-.1a.24.24,0,0,1-.17-.07.23.23,0,0,1-.07-.17v-.2a4,4,0,0,1,.56-2.13,3.71,3.71,0,0,1,1.57-1.44,5,5,0,0,1,2.31-.51,4.3,4.3,0,0,1,3.07,1.07,3.69,3.69,0,0,1,1.15,2.83,3.8,3.8,0,0,1-.28,1.51,3.62,3.62,0,0,1-.68,1,13.07,13.07,0,0,1-1,.88,5.85,5.85,0,0,0-1,.86,1.32,1.32,0,0,0-.3.88v.46a.28.28,0,0,1-.07.17.23.23,0,0,1-.17.07h-2.32A.21.21,0,0,1,175.12,137.91Zm.16,4.1a1.54,1.54,0,0,1-.45-1.13,1.48,1.48,0,0,1,.44-1.12,1.51,1.51,0,0,1,1.14-.44,1.54,1.54,0,0,1,1.14.44,1.51,1.51,0,0,1,.44,1.12,1.54,1.54,0,0,1-1.58,1.58A1.52,1.52,0,0,1,175.28,142Z"/><path class="cls-3" d="M31.9,66.56a6.28,6.28,0,0,1-.31,2,3.84,3.84,0,0,1-1.54,2.2,4.85,4.85,0,0,1-2.81.77,4.83,4.83,0,0,1-2.47-.6,3.76,3.76,0,0,1-1.54-1.75.13.13,0,0,0,0-.06s0,0,0-.08a4.62,4.62,0,0,1-.57-2.39l0-6.89a3.6,3.6,0,0,1,1.26-2.88,4.89,4.89,0,0,1,3.32-1.08,4.69,4.69,0,0,1,3.21,1.08,3.61,3.61,0,0,1,1.23,2.86v.64a.24.24,0,0,1-.07.18.24.24,0,0,1-.19.08H28.76a.22.22,0,0,1-.19-.08.25.25,0,0,1-.08-.18v-.33A1.61,1.61,0,0,0,28.11,59a1.23,1.23,0,0,0-1-.43,1.32,1.32,0,0,0-1,.44,1.55,1.55,0,0,0-.41,1.12v2.11c0,.05,0,.07,0,.09a.08.08,0,0,0,.09,0,2.91,2.91,0,0,1,2-.71,3.69,3.69,0,0,1,2.27.7,3.91,3.91,0,0,1,1.38,1.9A6.16,6.16,0,0,1,31.9,66.56Zm-3.14-.07A4.38,4.38,0,0,0,28.54,65a1.32,1.32,0,0,0-1.32-.93,1.29,1.29,0,0,0-1.3.93,4,4,0,0,0-.22,1.49,5,5,0,0,0,.15,1.3,1.33,1.33,0,0,0,1.37,1.1,1.37,1.37,0,0,0,1.38-1.12A5.32,5.32,0,0,0,28.76,66.49Z"/><path class="cls-3" d="M33.92,71a1.64,1.64,0,0,1-.5-1.24A1.65,1.65,0,0,1,35.16,68a1.7,1.7,0,0,1,1.25.48,1.73,1.73,0,0,1,.49,1.26,1.76,1.76,0,0,1-3,1.24Z"/></g></g></svg>