<svg xmlns="http://www.w3.org/2000/svg" xmlns:xlink="http://www.w3.org/1999/xlink" viewBox="0 0 1057.54 320.8"><defs><style>.cls-1{fill:none;}.cls-2{fill:#d1468b;}.cls-3{fill:#fff;}.cls-4{fill:#cbd84c;fill-rule:evenodd;}.cls-5{clip-path:url(#clip-path);}.cls-6{fill:url(#Degradado_sin_nombre_3);}.cls-7{clip-path:url(#clip-path-2);}.cls-8{fill:url(#Degradado_sin_nombre_2);}.cls-9{fill:#25b8d0;}.cls-10{fill:#e3d16b;}.cls-11{fill:#e28925;}.cls-12{fill:#993b8d;}.cls-13{fill:url(#Degradado_sin_nombre_3-2);}.cls-14{fill:url(#Degradado_sin_nombre_2-2);}</style><clipPath id="clip-path"><path class="cls-1" d="M113.87,124.21l31.91,24.39,31.61-24c-7.09-8.66-18.75-14.3-31.94-14.3-13,0-24.46,5.47-31.58,13.88"/></clipPath><radialGradient id="Degradado_sin_nombre_3" cx="3247.44" cy="-1508.23" r="1.08" gradientTransform="matrix(-0.63, 23.66, -24.24, -0.61, -34381.34, -77635.85)" gradientUnits="userSpaceOnUse"><stop offset="0" stop-color="#cdd74f"/><stop offset="0.16" stop-color="#cdd74f"/><stop offset="1" stop-color="#779134"/></radialGradient><clipPath id="clip-path-2"><path class="cls-1" d="M139,98.32l-.19.5L117.47,99l0,0h0l15.72,11.82h0l.2.16-5.86,20.33,17.51-11.51,18.57,11.4-6.94-20.46L172.85,99h0l0,0-21.92-.23L150.7,98l-5.37-17.09Z"/></clipPath><linearGradient id="Degradado_sin_nombre_2" x1="3208.51" y1="-1571.99" x2="3209.59" y2="-1571.99" gradientTransform="matrix(-43.73, 0, -0.01, -44.81, 140462.52, -70329.73)" gradientUnits="userSpaceOnUse"><stop offset="0" stop-color="#607dbc"/><stop offset="0.34" stop-color="#607dbc"/><stop offset="0.63" stop-color="#4f61a0"/><stop offset="0.95" stop-color="#3d395e"/><stop offset="1" stop-color="#3d395e"/></linearGradient><radialGradient id="Degradado_sin_nombre_3-2" cx="3247.44" cy="-1508.23" r="1.08" xlink:href="#Degradado_sin_nombre_3"/><linearGradient id="Degradado_sin_nombre_2-2" x1="3208.51" y1="-1571.99" x2="3209.59" y2="-1571.99" xlink:href="#Degradado_sin_nombre_2"/></defs><title>creditos-final</title><g id="Capa_2" data-name="Capa 2"><g id="Capa_1-2" data-name="Capa 1"><polygon class="cls-2" points="793.15 0 528.77 0 264.38 0 0 0 0 245.43 0 320.8 264.38 320.8 528.77 320.8 793.15 320.8 1057.54 320.8 1057.54 245.43 1057.54 0 793.15 0"/><path class="cls-3" d="M718.69,189V175.86a.18.18,0,0,1,.2-.2h4.49a4.23,4.23,0,0,1,2.94,1,3.41,3.41,0,0,1,1.08,2.66v6.27a3.41,3.41,0,0,1-1.08,2.66,4.23,4.23,0,0,1-2.94,1h-4.49C718.76,189.21,718.69,189.15,718.69,189Zm1.11-.72h3.64a2.91,2.91,0,0,0,2.13-.76,2.85,2.85,0,0,0,.81-2.08v-6a2.74,2.74,0,0,0-.79-2.08,3,3,0,0,0-2.15-.77H719.8a.07.07,0,0,0-.08.08v11.57A.07.07,0,0,0,719.8,188.3Z"/><path class="cls-3" d="M731.64,188.65a3.58,3.58,0,0,1-1.32-1.92,10,10,0,0,1-.21-2.42,9.9,9.9,0,0,1,.21-2.4,3.53,3.53,0,0,1,1.31-1.9,4.19,4.19,0,0,1,4.68,0,3.46,3.46,0,0,1,1.31,1.89,4.89,4.89,0,0,1,.15,1c0,.37,0,.84,0,1.4s0,1.07,0,1.44a4.69,4.69,0,0,1-.15,1,3.46,3.46,0,0,1-1.31,1.92,3.83,3.83,0,0,1-2.35.71A3.76,3.76,0,0,1,731.64,188.65Zm4.07-.77a2.54,2.54,0,0,0,.94-1.5,9.75,9.75,0,0,0,.14-2,11,11,0,0,0-.12-2.05,2.54,2.54,0,0,0-.94-1.51,3.06,3.06,0,0,0-3.53,0,2.57,2.57,0,0,0-.93,1.51,16.23,16.23,0,0,0,0,4.1,2.51,2.51,0,0,0,.93,1.51,3,3,0,0,0,3.51,0Z"/><path class="cls-3" d="M742.08,188.65a3.48,3.48,0,0,1-1.29-1.92,9.4,9.4,0,0,1-.25-2.42,9.66,9.66,0,0,1,.25-2.4,3.36,3.36,0,0,1,1.28-1.89,3.79,3.79,0,0,1,2.34-.72,4,4,0,0,1,2.37.7,3,3,0,0,1,1.27,1.74,3.45,3.45,0,0,1,.11.54v0c0,.09,0,.15-.17.17l-.62.08h0c-.09,0-.15-.06-.17-.17l-.06-.27a2.32,2.32,0,0,0-.91-1.37,2.92,2.92,0,0,0-1.78-.55,2.78,2.78,0,0,0-1.77.56,2.51,2.51,0,0,0-.9,1.49,9.28,9.28,0,0,0-.17,2.07,8.8,8.8,0,0,0,.17,2,2.47,2.47,0,0,0,.9,1.51,2.72,2.72,0,0,0,1.77.56,2.91,2.91,0,0,0,1.79-.55,2.14,2.14,0,0,0,.9-1.38l0-.1c0-.14.1-.2.23-.17l.6.1q.19,0,.18.21l-.08.35a3,3,0,0,1-1.27,1.77,4,4,0,0,1-2.37.68A3.75,3.75,0,0,1,742.08,188.65Z"/><path class="cls-3" d="M757,179.46h.62a.17.17,0,0,1,.19.19V189a.17.17,0,0,1-.19.19H757c-.13,0-.2-.06-.2-.19v-1s0-.06,0-.07,0,0-.06.05a2.65,2.65,0,0,1-1.1,1,3.79,3.79,0,0,1-1.61.33,3.41,3.41,0,0,1-2.38-.86,3,3,0,0,1-.95-2.34v-6.5a.17.17,0,0,1,.19-.19h.62c.13,0,.2.06.2.19v6.23a2.54,2.54,0,0,0,.68,1.86,2.48,2.48,0,0,0,1.83.7,2.6,2.6,0,0,0,1.9-.71,2.51,2.51,0,0,0,.71-1.85v-6.23C756.83,179.52,756.9,179.46,757,179.46Z"/><path class="cls-3" d="M773.15,180.17a3.2,3.2,0,0,1,.85,2.34V189c0,.13-.07.19-.2.19h-.61c-.13,0-.2-.06-.2-.19v-6.31a2.42,2.42,0,0,0-.67-1.81,2.31,2.31,0,0,0-1.73-.67,2.5,2.5,0,0,0-1.81.66,2.34,2.34,0,0,0-.68,1.78V189c0,.13-.07.19-.2.19h-.62a.17.17,0,0,1-.19-.19v-6.31a2.46,2.46,0,0,0-.66-1.81,2.29,2.29,0,0,0-1.72-.67,2.47,2.47,0,0,0-1.81.66,2.41,2.41,0,0,0-.67,1.78V189a.17.17,0,0,1-.19.19h-.64a.17.17,0,0,1-.19-.19v-9.37a.17.17,0,0,1,.19-.19H762a.17.17,0,0,1,.19.19v.87a.07.07,0,0,0,0,.06s.05,0,.06,0a2.54,2.54,0,0,1,1.09-.93,3.71,3.71,0,0,1,1.56-.31,3.29,3.29,0,0,1,1.73.44,2.74,2.74,0,0,1,1.1,1.23s.05,0,.09,0a2.8,2.8,0,0,1,1.18-1.25,3.63,3.63,0,0,1,1.8-.43A3.11,3.11,0,0,1,773.15,180.17Z"/><path class="cls-3" d="M782.41,188a2.83,2.83,0,0,0,1-1.15c.07-.12.15-.15.25-.1l.51.25c.11.07.14.15.09.25a3.27,3.27,0,0,1-1.34,1.51,4,4,0,0,1-2.16.56,3.92,3.92,0,0,1-2.3-.65,3.31,3.31,0,0,1-1.3-1.8,5.7,5.7,0,0,1-.21-1.09c0-.4-.06-.9-.06-1.51s0-1.11,0-1.43a4.76,4.76,0,0,1,.13-.89,3.41,3.41,0,0,1,1.26-2,4.22,4.22,0,0,1,4.89.08,3.71,3.71,0,0,1,1.18,2.28c0,.24.06.53.08.86s0,.74,0,1.23c0,.13-.07.19-.2.19H778c-.05,0-.07,0-.07.08a9.38,9.38,0,0,0,.09,1.64,2.45,2.45,0,0,0,1,1.5,3.09,3.09,0,0,0,1.89.55A2.84,2.84,0,0,0,782.41,188Zm-4.5-4.31c0,.05,0,.08.07.08h5.4a.07.07,0,0,0,.08-.08,7.55,7.55,0,0,0-.1-1.45,2.58,2.58,0,0,0-.93-1.5,2.72,2.72,0,0,0-1.76-.57,2.78,2.78,0,0,0-1.74.55,2.5,2.5,0,0,0-.89,1.46A8.61,8.61,0,0,0,777.91,183.73Z"/><path class="cls-3" d="M793.71,180.23a3.25,3.25,0,0,1,.92,2.4V189c0,.13-.07.19-.2.19h-.63c-.13,0-.2-.06-.2-.19v-6.2a2.58,2.58,0,0,0-.69-1.86,2.41,2.41,0,0,0-1.82-.73,2.57,2.57,0,0,0-1.88.71,2.46,2.46,0,0,0-.72,1.84V189a.17.17,0,0,1-.19.19h-.64a.17.17,0,0,1-.19-.19v-9.37a.17.17,0,0,1,.19-.19h.64a.17.17,0,0,1,.19.19v.95s0,.06,0,.07a.05.05,0,0,0,.05,0,2.79,2.79,0,0,1,1.12-1,3.6,3.6,0,0,1,1.61-.34A3.27,3.27,0,0,1,793.71,180.23Z"/><path class="cls-3" d="M801.65,180.33h-2.26s-.08,0-.08.07v6.12a1.76,1.76,0,0,0,.45,1.38,2.07,2.07,0,0,0,1.43.4h.44c.13,0,.2.06.2.19V189c0,.13-.07.19-.2.19l-.58,0a3.41,3.41,0,0,1-2-.52,2.35,2.35,0,0,1-.71-1.92V180.4c0-.05,0-.07-.07-.07h-1.16a.18.18,0,0,1-.2-.2v-.48c0-.13.07-.19.2-.19h1.16s.07,0,.07-.08v-2.21c0-.13.07-.19.2-.19h.62a.17.17,0,0,1,.19.19v2.21a.07.07,0,0,0,.08.08h2.26c.13,0,.2.06.2.19v.48A.18.18,0,0,1,801.65,180.33Z"/><path class="cls-3" d="M805.81,188.65a3.57,3.57,0,0,1-1.31-1.92,9.44,9.44,0,0,1-.22-2.42,9.32,9.32,0,0,1,.22-2.4,3.46,3.46,0,0,1,1.3-1.9,3.86,3.86,0,0,1,2.35-.71,3.8,3.8,0,0,1,2.33.72,3.41,3.41,0,0,1,1.31,1.89,5.66,5.66,0,0,1,.16,1c0,.37,0,.84,0,1.4s0,1.07,0,1.44a5.42,5.42,0,0,1-.16,1,3.41,3.41,0,0,1-1.31,1.92,3.83,3.83,0,0,1-2.35.71A3.78,3.78,0,0,1,805.81,188.65Zm4.07-.77a2.54,2.54,0,0,0,.94-1.5,9.75,9.75,0,0,0,.14-2,11,11,0,0,0-.12-2.05,2.54,2.54,0,0,0-.94-1.51,3.06,3.06,0,0,0-3.53,0,2.62,2.62,0,0,0-.93,1.51,16.23,16.23,0,0,0,0,4.1,2.56,2.56,0,0,0,.93,1.51,3,3,0,0,0,3.51,0Z"/><path class="cls-3" d="M820.11,188.65a3.57,3.57,0,0,1-1.31-1.92,9.44,9.44,0,0,1-.22-2.42,9.32,9.32,0,0,1,.22-2.4,3.46,3.46,0,0,1,1.3-1.9,3.86,3.86,0,0,1,2.35-.71,3.8,3.8,0,0,1,2.33.72,3.41,3.41,0,0,1,1.31,1.89,5.66,5.66,0,0,1,.16,1c0,.37,0,.84,0,1.4s0,1.07,0,1.44a5.42,5.42,0,0,1-.16,1,3.41,3.41,0,0,1-1.31,1.92,3.83,3.83,0,0,1-2.35.71A3.78,3.78,0,0,1,820.11,188.65Zm4.07-.77a2.54,2.54,0,0,0,.94-1.5,9.75,9.75,0,0,0,.14-2,11,11,0,0,0-.12-2.05,2.54,2.54,0,0,0-.94-1.51,3.06,3.06,0,0,0-3.53,0,2.57,2.57,0,0,0-.93,1.51,16.23,16.23,0,0,0,0,4.1,2.51,2.51,0,0,0,.93,1.51,3,3,0,0,0,3.51,0Z"/><path class="cls-3" d="M834.14,179.61a.2.2,0,0,1,.12.25l-.18.62c0,.13-.12.17-.25.12a2.52,2.52,0,0,0-1-.14,2.37,2.37,0,0,0-1.79.83,2.86,2.86,0,0,0-.7,2V189a.17.17,0,0,1-.19.19h-.64c-.13,0-.2-.06-.2-.19v-9.37c0-.13.07-.19.2-.19h.64a.17.17,0,0,1,.19.19V181s0,.06,0,.06,0,0,.05,0a3.1,3.1,0,0,1,1-1.18,2.66,2.66,0,0,1,1.52-.43A2.54,2.54,0,0,1,834.14,179.61Z"/><path class="cls-3" d="M836.44,177.23a1,1,0,0,1,0-1.39,1,1,0,0,1,1.4,0,1,1,0,0,1,0,1.39,1,1,0,0,1-1.4,0Zm.14,11.77v-9.37a.17.17,0,0,1,.19-.19h.64c.13,0,.2.06.2.19V189c0,.13-.07.19-.2.19h-.64A.17.17,0,0,1,836.58,189Z"/><path class="cls-3" d="M847.53,179.46h.64a.17.17,0,0,1,.19.19V189a3.7,3.7,0,0,1-1.31,3.17,5.72,5.72,0,0,1-3.72.89.18.18,0,0,1-.19-.21l0-.56c0-.13.06-.2.19-.2a4.58,4.58,0,0,0,3-.68,2.92,2.92,0,0,0,1-2.43v-1s0-.06,0-.07l-.07,0a3,3,0,0,1-2.65,1.34,3.68,3.68,0,0,1-2.21-.69,3.24,3.24,0,0,1-1.25-1.89,9.89,9.89,0,0,1-.22-2.38,9.37,9.37,0,0,1,.24-2.49,3.36,3.36,0,0,1,1.22-1.85,3.44,3.44,0,0,1,2.18-.71,3,3,0,0,1,2.69,1.32,0,0,0,0,0,.06,0s0,0,0-.06v-.93A.17.17,0,0,1,847.53,179.46Zm-.21,6.19c0-.28,0-.72,0-1.32s0-1,0-1.31a5.22,5.22,0,0,0-.08-.76,2.42,2.42,0,0,0-2.49-2,2.52,2.52,0,0,0-1.7.58,3,3,0,0,0-.94,1.47,8.54,8.54,0,0,0-.17,2.05,8.78,8.78,0,0,0,.17,2.05,2.72,2.72,0,0,0,.92,1.48,2.65,2.65,0,0,0,1.72.58,2.38,2.38,0,0,0,2.49-2.06A4.24,4.24,0,0,0,847.32,185.65Z"/><path class="cls-3" d="M851.54,177.23a1,1,0,1,1,.7.27A.94.94,0,0,1,851.54,177.23Zm.13,11.77v-9.37c0-.13.07-.19.2-.19h.64a.17.17,0,0,1,.19.19V189a.17.17,0,0,1-.19.19h-.64C851.74,189.19,851.67,189.13,851.67,189Z"/><path class="cls-3" d="M862.64,180.23a3.24,3.24,0,0,1,.91,2.4V189a.17.17,0,0,1-.19.19h-.64a.17.17,0,0,1-.19-.19v-6.2a2.54,2.54,0,0,0-.7-1.86,2.38,2.38,0,0,0-1.82-.73,2.54,2.54,0,0,0-1.87.71,2.46,2.46,0,0,0-.72,1.84V189a.17.17,0,0,1-.19.19h-.64a.17.17,0,0,1-.19-.19v-9.37a.17.17,0,0,1,.19-.19h.64a.17.17,0,0,1,.19.19v.95s0,.06,0,.07a.05.05,0,0,0,0,0,2.79,2.79,0,0,1,1.12-1,3.57,3.57,0,0,1,1.61-.34A3.28,3.28,0,0,1,862.64,180.23Z"/><path class="cls-3" d="M872.61,180.18a3.21,3.21,0,0,1,.89,2.37V189a.17.17,0,0,1-.19.19h-.64a.17.17,0,0,1-.19-.19v-.91a.06.06,0,0,0,0-.06.05.05,0,0,0-.07,0,3.22,3.22,0,0,1-1.31,1,4.84,4.84,0,0,1-1.79.32,3.73,3.73,0,0,1-2.26-.67,2.39,2.39,0,0,1-.93-2.07,2.73,2.73,0,0,1,1.06-2.27,4.68,4.68,0,0,1,2.93-.83h2.32a.07.07,0,0,0,.08-.08v-.87a2.42,2.42,0,0,0-.61-1.72,2.46,2.46,0,0,0-1.87-.64,3,3,0,0,0-1.63.41,1.7,1.7,0,0,0-.79,1.08.21.21,0,0,1-.23.18l-.68-.1c-.14,0-.2-.08-.17-.16a2.44,2.44,0,0,1,1.13-1.68,4.25,4.25,0,0,1,2.39-.64A3.56,3.56,0,0,1,872.61,180.18Zm-1,7.69a1.89,1.89,0,0,0,.9-1.66v-1.76a.07.07,0,0,0-.08-.08h-2.23A3.88,3.88,0,0,0,868,185a1.85,1.85,0,0,0-.84,1.61,1.65,1.65,0,0,0,.65,1.43,2.79,2.79,0,0,0,1.69.48A3.74,3.74,0,0,0,871.58,187.87Z"/><path class="cls-3" d="M876.58,189V175.86c0-.13.06-.2.19-.2h.64c.13,0,.19.07.19.2V189a.17.17,0,0,1-.19.19h-.64A.17.17,0,0,1,876.58,189Z"/><path class="cls-3" d="M891.09,175.66h.64c.13,0,.19.07.19.2V189a.17.17,0,0,1-.19.19h-.64a.17.17,0,0,1-.19-.19v-1s0-.06,0-.07,0,0-.07,0a2.86,2.86,0,0,1-1.08,1,3.34,3.34,0,0,1-1.53.34,3.59,3.59,0,0,1-2.23-.69,3.52,3.52,0,0,1-1.24-1.88,4.84,4.84,0,0,1-.17-1c0-.36,0-.84,0-1.44s0-1.06,0-1.43a7,7,0,0,1,.15-1,3.33,3.33,0,0,1,1.21-1.9,3.65,3.65,0,0,1,2.28-.71,3.35,3.35,0,0,1,1.53.35,2.71,2.71,0,0,1,1.08,1s0,.05.06.05a.07.07,0,0,0,0-.07v-4.76C890.9,175.73,891,175.66,891.09,175.66Zm-.26,10.14c0-.31,0-.79,0-1.45a13.39,13.39,0,0,0-.06-1.5,4.34,4.34,0,0,0-.19-.86,2.46,2.46,0,0,0-.83-1.29,2.33,2.33,0,0,0-1.5-.49,2.59,2.59,0,0,0-1.56.49,2.42,2.42,0,0,0-.89,1.27,3.05,3.05,0,0,0-.25.84,13.68,13.68,0,0,0-.06,1.52c0,.67,0,1.16.05,1.46a4.23,4.23,0,0,0,.2.85,2.23,2.23,0,0,0,.87,1.31,2.6,2.6,0,0,0,1.62.5,2.27,2.27,0,0,0,1.52-.5,2.57,2.57,0,0,0,.85-1.31A3.46,3.46,0,0,0,890.83,185.8Z"/><path class="cls-3" d="M900.49,188a2.83,2.83,0,0,0,1-1.15c.07-.12.15-.15.25-.1l.51.25c.11.07.14.15.09.25A3.27,3.27,0,0,1,901,188.8a4,4,0,0,1-2.16.56,3.92,3.92,0,0,1-2.3-.65,3.31,3.31,0,0,1-1.3-1.8,5.7,5.7,0,0,1-.21-1.09c0-.4-.06-.9-.06-1.51s0-1.11,0-1.43a5.8,5.8,0,0,1,.12-.89,3.47,3.47,0,0,1,1.27-2,4.22,4.22,0,0,1,4.89.08,3.71,3.71,0,0,1,1.18,2.28c0,.24.06.53.08.86s0,.74,0,1.23c0,.13-.07.19-.2.19h-6.31s-.07,0-.07.08a9.38,9.38,0,0,0,.09,1.64,2.41,2.41,0,0,0,1,1.5,3.09,3.09,0,0,0,1.89.55A2.84,2.84,0,0,0,900.49,188Zm-4.5-4.31c0,.05,0,.08.07.08h5.4a.07.07,0,0,0,.08-.08,7.55,7.55,0,0,0-.1-1.45,2.58,2.58,0,0,0-.93-1.5,2.72,2.72,0,0,0-1.76-.57,2.78,2.78,0,0,0-1.74.55,2.5,2.5,0,0,0-.89,1.46A8.61,8.61,0,0,0,896,183.73Z"/><path class="cls-3" d="M740.21,146.64V130.8h-3.57v13.25a34,34,0,0,0-3.45-1.91V114c.85,1,2.62,1.31,3.89,1.47a55.2,55.2,0,0,0,12.59-.18c1.24-.19,3-.5,3.8-1.52v28.4a34,34,0,0,0-3.45,1.91v-21.8h-3.58v24.39c-.45.37-.89.75-1.33,1.14V126.53h-3.57v21.25c-.44-.39-.88-.77-1.33-1.14"/><path class="cls-3" d="M771,143.88v3.86a31.37,31.37,0,0,0-27.7,10.94,31.39,31.39,0,0,0-27.71-10.94v-3.86l.17,0A27.74,27.74,0,0,1,728,145l1.06.38.13,0a32.28,32.28,0,0,1,13.13,9.83l1,1.18,1-1.18a32.25,32.25,0,0,1,13.12-9.83l.13,0,1.06-.38a27.76,27.76,0,0,1,12.24-1.12Z"/><path class="cls-3" d="M767.7,142.59c-8.22-.15-16.87,3-24.37,12-7.51-9-16.16-12.2-24.38-12v-2.34c9.39-.16,17.7,3.8,24.38,11,6.67-7.16,15-11.12,24.37-11Z"/><path class="cls-3" d="M717.82,142.64c-.74,0-1.47.1-2.2.2l0-32.77c3.63-.12,11.51,1.67,16.32,3.24v3c-4.51-1.6-11.1-3.37-14.12-3.38l0,24.61h0v2.77h0Z"/><path class="cls-3" d="M754.67,113.31c4.81-1.56,12.69-3.37,16.32-3.24l0,32.76c-.73-.09-1.46-.15-2.2-.19v-2.35h0v-2.87l0-24.51c-3,0-9.62,1.78-14.13,3.38v-3Z"/><path class="cls-3" d="M737,112.47l-4.09-4.55,9.58-16.34.25,11.53a1.58,1.58,0,1,0,.91,0l-.26-11.52,10.45,16-3.87,4.67c1.72.21,2.79.52,2.8.88,0,.71-4.12,1.34-9.23,1.41s-9.28-.44-9.3-1.14c0-.36,1-.7,2.76-1"/><path class="cls-3" d="M783.11,224.24a7,7,0,0,0,1.58-.17,4.51,4.51,0,0,0,1.55-.64,4.16,4.16,0,0,0,.88-.76,3.62,3.62,0,0,0,.57-.87,3.53,3.53,0,0,0,.3-.9,4.46,4.46,0,0,0,.09-.88,4.75,4.75,0,0,0-.17-1.33,4.46,4.46,0,0,0-.54-1.21,7.43,7.43,0,0,0-1-1.19,16.41,16.41,0,0,0-1.51-1.28l-.55-.41c-.4-.32-.74-.6-1-.85a5.5,5.5,0,0,1-.64-.69,2.14,2.14,0,0,1-.43-1.29,1.89,1.89,0,0,1,.62-1.45,2.45,2.45,0,0,1,1.72-.57,2.88,2.88,0,0,1,.82.1,2.28,2.28,0,0,1,.61.24,1.78,1.78,0,0,1,.42.32l.29.3a2.11,2.11,0,0,1,.41.78,2.2,2.2,0,0,1,.1.52c0,.23.06.35.2.35a.17.17,0,0,0,.16-.13,1.52,1.52,0,0,0,0-.46c0-.77,0-1.32,0-1.66s0-.56,0-.7-.09-.19-.27-.23-.61-.14-1-.22a8.73,8.73,0,0,0-1.59-.12,5.94,5.94,0,0,0-1.85.28,4.48,4.48,0,0,0-1.44.76,3.5,3.5,0,0,0-.92,1.18,3.57,3.57,0,0,0-.32,1.5,5.11,5.11,0,0,0,.14,1.16,4.24,4.24,0,0,0,.5,1.12,6.35,6.35,0,0,0,.9,1.15,13.14,13.14,0,0,0,1.36,1.22l.91.71a8.26,8.26,0,0,1,1,.89,5,5,0,0,1,.59.79,2.67,2.67,0,0,1,.27.74,3.51,3.51,0,0,1,.07.72,2,2,0,0,1-.17.78,2.15,2.15,0,0,1-.49.72,2.38,2.38,0,0,1-.81.53,2.93,2.93,0,0,1-1.16.21,3.42,3.42,0,0,1-1.7-.44,2.5,2.5,0,0,1-1.11-1.55c-.05-.17-.09-.34-.13-.53a3,3,0,0,1-.05-.47.53.53,0,0,0,0-.22.15.15,0,0,0-.16-.11.18.18,0,0,0-.17.15,2.3,2.3,0,0,0-.07.36,3.07,3.07,0,0,1,0,.38c0,.18,0,.38,0,.62s0,.49,0,.76,0,.54,0,.81a1.06,1.06,0,0,0,.07.45.67.67,0,0,0,.31.22,6,6,0,0,0,1.31.39,9.12,9.12,0,0,0,1.55.12m-19.5-11.19h.06c.1.09.29.3.58.63l1.09,1.18c.44.47.91,1,1.43,1.52s1,1.09,1.58,1.61l1.59,1.6,1.61,1.61,1.45,1.46q.68.68,1.14,1.11c.1.1.22.2.33.29a.52.52,0,0,0,.34.14c.17,0,.25-.2.25-.61l.22-12.39a3.53,3.53,0,0,1,.17-1.19.78.78,0,0,1,.56-.48l.3-.05h.29c.23,0,.35-.06.35-.17a.14.14,0,0,0-.13-.15,1.39,1.39,0,0,0-.32,0c-.49,0-.9,0-1.25,0l-.68,0-1,0q-.65,0-1.41,0a1.9,1.9,0,0,0-.37,0c-.1,0-.14.07-.14.15s.1.17.31.17h.52a1.33,1.33,0,0,1,.52.11.93.93,0,0,1,.5.51,4.08,4.08,0,0,1,.17,1.26l.2,8.81h-.1l-.35-.34-.63-.66-.8-.85-.91-.93-.88-.92-.75-.77c-.72-.71-1.43-1.43-2.13-2.15l-1.91-2c-.57-.59-1-1.08-1.41-1.48s-.59-.63-.64-.7L763,209a.45.45,0,0,0-.32-.16.2.2,0,0,0-.2.18,1.68,1.68,0,0,0-.05.48l-.18,11.63a10.87,10.87,0,0,1-.13,1.8.75.75,0,0,1-.48.63,2.11,2.11,0,0,1-.45.08l-.43,0c-.21,0-.32,0-.32.16a.16.16,0,0,0,.12.17l.32,0,1.37,0,.75,0,.87,0,1.56,0c.3,0,.45-.06.45-.19s-.11-.16-.33-.16l-.5,0a1.58,1.58,0,0,1-.52-.12.75.75,0,0,1-.28-.18,1.4,1.4,0,0,1-.2-.39,2.8,2.8,0,0,1-.14-.64c0-.27-.06-.59-.07-1Zm-13.45,4.81c-.07,0-.1-.05-.07-.14l1.8-4.83a.61.61,0,0,1,.05-.12s0-.06.07-.06,0,0,.06.06a.56.56,0,0,0,0,.12l1.76,4.85q0,.12-.09.12Zm4,1a.21.21,0,0,1,.2.14l1.57,4.16a.29.29,0,0,1,0,.29.38.38,0,0,1-.18.16c-.18,0-.28.07-.28.18s.06.1.16.12l.44,0,2.17,0h1.54a5.42,5.42,0,0,0,.72,0c.12,0,.18-.08.18-.16s-.09-.16-.26-.16l-.39,0a3.18,3.18,0,0,1-.43-.06,1.56,1.56,0,0,1-.75-.44,3.68,3.68,0,0,1-.46-.63,7.7,7.7,0,0,1-.52-1.07l-.77-1.85-1-2.37c-.33-.84-.67-1.68-1-2.53s-.65-1.64-.94-2.38-.54-1.36-.76-1.88-.36-.88-.44-1.06c-.18-.42-.34-.63-.49-.63a.3.3,0,0,0-.26.17,4.52,4.52,0,0,0-.29.61L747,221.8a5,5,0,0,1-.64,1.21,1.45,1.45,0,0,1-1,.56,2.16,2.16,0,0,1-.29,0h-.32c-.15,0-.23,0-.23.16s.12.19.37.19h1.46l.55,0h.31l1,0,1,0c.22,0,.33-.06.33-.19a.14.14,0,0,0-.05-.13.62.62,0,0,0-.24,0H749a.81.81,0,0,1-.61-.17.59.59,0,0,1-.17-.44,2.41,2.41,0,0,1,.07-.5,4,4,0,0,1,.22-.7l1.06-2.8c0-.11.1-.16.18-.16Zm-17.58-.57c0,.9,0,1.72,0,2.45a15.17,15.17,0,0,1-.08,1.73,3.76,3.76,0,0,1-.17.73.51.51,0,0,1-.4.35,1.4,1.4,0,0,1-.32.06l-.39,0c-.21,0-.31,0-.31.16s.13.19.39.19h.66c.24,0,.47,0,.69,0s.45,0,.65,0h1.41c.32,0,.69,0,1.11,0l1.45,0c.55,0,1.2,0,1.94,0h.46A.68.68,0,0,0,744,224a.3.3,0,0,0,.17-.14,1.54,1.54,0,0,0,.12-.3,3.28,3.28,0,0,0,.08-.44c0-.2,0-.41.08-.63s.05-.42.07-.63,0-.36,0-.48a1.57,1.57,0,0,0,0-.25.12.12,0,0,0-.14-.1c-.1,0-.18.1-.22.29a2.74,2.74,0,0,1-.29.95,1.29,1.29,0,0,1-.59.51,2.54,2.54,0,0,1-.92.2l-.93,0a9.72,9.72,0,0,1-1.2-.06,1.63,1.63,0,0,1-.71-.25.89.89,0,0,1-.33-.5,3.65,3.65,0,0,1-.11-.84v-4.59c0-.13,0-.2.12-.2h1.42l.83,0,.53,0a1.43,1.43,0,0,1,.79.27.91.91,0,0,1,.31.5,1.64,1.64,0,0,1,.05.37l0,.33a.16.16,0,0,0,.18.18.15.15,0,0,0,.16-.13,1.94,1.94,0,0,0,0-.24s0-.11,0-.22,0-.22,0-.35a2.56,2.56,0,0,1,0-.39c0-.13,0-.25,0-.36,0-.49.07-.84.1-1a2.09,2.09,0,0,0,.05-.39c0-.11,0-.16-.13-.16s-.18.09-.32.26a.64.64,0,0,1-.36.2,5.14,5.14,0,0,1-.58.09c-.12,0-.33,0-.63,0h-2.51c-.1,0-.14-.07-.14-.22v-5c0-.13,0-.2.14-.2h.55l.86,0,.85,0,.53,0a2.48,2.48,0,0,1,1,.27,1,1,0,0,1,.34.44,1.12,1.12,0,0,1,.1.39c0,.14,0,.25,0,.31s.06.28.18.28a.14.14,0,0,0,.13-.07.47.47,0,0,0,.06-.15c0-.05,0-.14,0-.26l0-.4,0-.38c0-.12,0-.2,0-.26a7,7,0,0,1,.1-.93,1.71,1.71,0,0,0,.06-.34q0-.18-.12-.18a.45.45,0,0,0-.16,0l-.16,0a1.16,1.16,0,0,1-.34.06l-.5.06h-5.44l-.71,0H735c-.29,0-.43.06-.43.18s.11.17.34.17h.43a1.94,1.94,0,0,1,.33.05,1,1,0,0,1,.65.35,1.89,1.89,0,0,1,.2.77c0,.16,0,.33,0,.5s0,.42,0,.72v6.4Zm-15.92-3.77v-2.3c0-.35,0-.67,0-.95s0-.51,0-.68a.39.39,0,0,1,.23-.39l.21-.05.34,0,.39,0h.34c.38,0,.8,0,1.26.07a8.47,8.47,0,0,1,1.42.28,7,7,0,0,1,1.47.59,6.05,6.05,0,0,1,1.43,1,4.6,4.6,0,0,1,.64.75,5.76,5.76,0,0,1,.61,1.07,7.2,7.2,0,0,1,.46,1.38,8.12,8.12,0,0,1,.17,1.71,10.55,10.55,0,0,1-.35,2.79,4.22,4.22,0,0,1-1.3,2.09,5.32,5.32,0,0,1-1.94,1.1,9.1,9.1,0,0,1-2.57.32,4.74,4.74,0,0,1-1.78-.26,1.9,1.9,0,0,1-.8-.53.55.55,0,0,1-.09-.25,2.28,2.28,0,0,1-.06-.39c0-.15,0-.3,0-.45a2.89,2.89,0,0,1,0-.4c0-.18,0-.63,0-1.34s0-1.58,0-2.63Zm-2.46,3.77c0,.9,0,1.72,0,2.45a15.17,15.17,0,0,1-.08,1.73,3.76,3.76,0,0,1-.17.73.51.51,0,0,1-.4.35,1.52,1.52,0,0,1-.32.06l-.39,0c-.21,0-.31,0-.31.16s.13.19.39.19h.65c.25,0,.48,0,.7,0s.45,0,.65,0h.47c.25,0,.54,0,.87,0l1.06.07,1.15.08c.38,0,.75,0,1.1,0a11.8,11.8,0,0,0,2.43-.23,11.44,11.44,0,0,0,1.89-.58,7,7,0,0,0,1.37-.75,6.54,6.54,0,0,0,1.69-1.73,8.28,8.28,0,0,0,.69-1.26,8.1,8.1,0,0,0,.48-1.51,8.68,8.68,0,0,0,.17-1.73,8.22,8.22,0,0,0-.15-1.63,7.34,7.34,0,0,0-.43-1.37,6.48,6.48,0,0,0-.6-1.11,7.21,7.21,0,0,0-.72-.88,5.7,5.7,0,0,0-1.79-1.3,9.09,9.09,0,0,0-2-.66,15,15,0,0,0-2.09-.24c-.69,0-1.35,0-2,0s-1.16,0-1.72,0l-1.3,0h-.53l-.7,0-.79,0h-.81c-.29,0-.43.06-.43.18s.11.17.34.17H717a1.94,1.94,0,0,1,.33.05,1,1,0,0,1,.65.35,1.76,1.76,0,0,1,.19.77,4.07,4.07,0,0,1,0,.5c0,.18,0,.42,0,.72v6.4Z"/><path class="cls-3" d="M831.38,210.4a.26.26,0,0,1,.18-.28,4.45,4.45,0,0,1,1-.08,3.13,3.13,0,0,1,.95.17,2.55,2.55,0,0,1,1,.58,3,3,0,0,1,.77,1.11,4.38,4.38,0,0,1,.3,1.74,4.2,4.2,0,0,1-.35,1.91,2.93,2.93,0,0,1-.8,1l-.26.16a1.69,1.69,0,0,1-.27.1l-.37.06-.5,0a6.78,6.78,0,0,1-.77,0,4.33,4.33,0,0,1-.72-.15.34.34,0,0,1-.18-.35Zm-2.31,7.87c0,.9,0,1.72,0,2.46a15.1,15.1,0,0,1-.08,1.72,3.76,3.76,0,0,1-.17.73.51.51,0,0,1-.4.35,1.4,1.4,0,0,1-.32.06l-.39,0c-.21,0-.31,0-.31.16s.13.19.39.19h.66l.69,0,.62,0h.85l.7,0,.87,0h.89c.26,0,.39-.06.39-.19s-.07-.16-.23-.16l-.46,0a3.26,3.26,0,0,1-.5-.06.67.67,0,0,1-.59-.35,2.36,2.36,0,0,1-.18-.73c-.05-.42-.08-1-.09-1.72s0-1.56,0-2.48V218a.14.14,0,0,1,.16-.16l1.71,0a.42.42,0,0,1,.35.14,4.5,4.5,0,0,1,.31.4c.13.19.29.41.47.65l.57.81.59.84c.56.76,1,1.38,1.45,1.85a4.45,4.45,0,0,0,1.25,1,2.52,2.52,0,0,0,.82.3,8.45,8.45,0,0,0,1.28.07h1.86c.25,0,.38-.06.38-.19s-.08-.16-.24-.16a3,3,0,0,1-.55-.06,1.82,1.82,0,0,1-.31-.07,2.07,2.07,0,0,1-.48-.18,3.93,3.93,0,0,1-.64-.39,7.43,7.43,0,0,1-.77-.69c-.59-.62-1.23-1.35-1.91-2.21s-1.47-1.84-2.35-3a10.3,10.3,0,0,0,1.25-1.17,5.63,5.63,0,0,0,.79-1.09,3.78,3.78,0,0,0,.42-1.06,4.32,4.32,0,0,0,.13-1.08,3.1,3.1,0,0,0-.13-.92,3,3,0,0,0-.33-.77,3.58,3.58,0,0,0-.44-.6,3.71,3.71,0,0,0-.43-.4,4.36,4.36,0,0,0-1.74-.69,11.82,11.82,0,0,0-1.88-.15h-.6l-.76,0-.78,0h-1.08l-.66,0-.77,0h-.81c-.28,0-.43.06-.43.18s.11.17.34.17h.43a1.94,1.94,0,0,1,.33.05.93.93,0,0,1,.65.36,1.84,1.84,0,0,1,.2.76c0,.16,0,.32,0,.5s0,.42,0,.72v6.4Zm-11.61,5a5.48,5.48,0,0,1-2.53-.57,5.63,5.63,0,0,1-1.9-1.56,7.22,7.22,0,0,1-1.19-2.33,9.86,9.86,0,0,1-.41-2.87,9,9,0,0,1,.44-3A5.22,5.22,0,0,1,813,211a4,4,0,0,1,1.55-1,5.75,5.75,0,0,1,1.71-.27,5.21,5.21,0,0,1,2.25.49,5.46,5.46,0,0,1,1.84,1.42,6.75,6.75,0,0,1,1.22,2.25,9.17,9.17,0,0,1,.45,3,10.68,10.68,0,0,1-.25,2.43,6.81,6.81,0,0,1-.64,1.73,4.2,4.2,0,0,1-.88,1.14,4.54,4.54,0,0,1-1,.66,4.45,4.45,0,0,1-1,.3,5.25,5.25,0,0,1-.8.08m-.83,1a8.61,8.61,0,0,0,3.37-.63,7.54,7.54,0,0,0,2.56-1.72,7.4,7.4,0,0,0,1.64-2.55,8.85,8.85,0,0,0,.57-3.15,7.92,7.92,0,0,0-.56-3,6.26,6.26,0,0,0-1.58-2.32,6.9,6.9,0,0,0-2.5-1.47,9.77,9.77,0,0,0-3.3-.52,8.84,8.84,0,0,0-3.76.73,7.28,7.28,0,0,0-2.5,1.86,7.35,7.35,0,0,0-1.41,2.49,8.62,8.62,0,0,0-.44,2.62,8.71,8.71,0,0,0,.44,2.66,7.2,7.2,0,0,0,3.86,4.32,8.27,8.27,0,0,0,3.61.72m-15.51-7.56c0-.12,0-.18.14-.18h1.39l.91,0,.6,0a1.16,1.16,0,0,1,.69.28,1.12,1.12,0,0,1,.32.43,1.88,1.88,0,0,1,.11.61.57.57,0,0,0,0,.18.13.13,0,0,0,.13.09c.11,0,.16,0,.18-.12a1.81,1.81,0,0,0,0-.25s0-.12,0-.23,0-.24,0-.39,0-.3,0-.44a1.9,1.9,0,0,1,0-.37,6.75,6.75,0,0,1,.1-.79c0-.22,0-.37,0-.43s0-.18-.11-.18a.17.17,0,0,0-.14.05l-.12.15a.74.74,0,0,1-.36.26,1.71,1.71,0,0,1-.48.09l-.44,0h-.45l-2.51,0c-.09,0-.14-.06-.14-.18v-4.91q0-.27.18-.27l3,.06a1.92,1.92,0,0,1,.89.2.92.92,0,0,1,.41.39,1.31,1.31,0,0,1,.11.42c0,.14,0,.25,0,.32s.08.32.19.32.17-.09.2-.28a2.84,2.84,0,0,0,0-.31l0-.49q0-.26,0-.48c0-.15,0-.26,0-.31a2.82,2.82,0,0,1,.1-.59,1,1,0,0,0,0-.29c0-.12,0-.18-.13-.18a.33.33,0,0,0-.15,0l-.17.08a1.74,1.74,0,0,1-.34,0l-.46,0h-5.72l-.7,0h-1.59c-.31,0-.46.06-.46.19s.12.16.34.16h.43a1.78,1.78,0,0,1,.33.05.91.91,0,0,1,.65.36,1.7,1.7,0,0,1,.2.76c0,.16,0,.32,0,.5s0,.42,0,.72v6.4c0,.94,0,1.77,0,2.48s0,1.28-.09,1.7a3.76,3.76,0,0,1-.17.73.5.5,0,0,1-.4.35,1.4,1.4,0,0,1-.32.06l-.39,0c-.19,0-.29,0-.29.16s.14.19.41.19H798l.71,0,.65,0h.5c.27,0,.67,0,1.22,0s1.14,0,1.77,0c.29,0,.43-.06.43-.19s-.11-.16-.33-.16l-.49,0a3.12,3.12,0,0,1-.49-.06.67.67,0,0,1-.59-.35,2.11,2.11,0,0,1-.18-.73c-.05-.42-.08-1-.09-1.7s0-1.54,0-2.48Z"/><path class="cls-3" d="M923,218.27c0,.9,0,1.72,0,2.45s0,1.31-.09,1.73a2.73,2.73,0,0,1-.16.73.51.51,0,0,1-.41.35,1.42,1.42,0,0,1-.31.06l-.4,0c-.2,0-.31,0-.31.16s.13.19.39.19h1.37l.64,0h.47l1.25,0,1.83,0c.25,0,.37-.06.37-.19s-.1-.16-.31-.16l-.5,0a3.26,3.26,0,0,1-.5-.06.68.68,0,0,1-.59-.35,2.3,2.3,0,0,1-.18-.71q-.07-.63-.09-1.74c0-.74,0-1.56,0-2.46v-8.05l2.48.06a5.4,5.4,0,0,1,1.09.12,2.54,2.54,0,0,1,.71.25,1.29,1.29,0,0,1,.38.34,1,1,0,0,1,.14.39l0,.21c0,.27.08.4.21.4s.15-.11.18-.32,0-.3,0-.52,0-.43,0-.66,0-.43,0-.63,0-.36,0-.47c0-.27-.05-.41-.16-.41l-.19,0-.34.07a5.06,5.06,0,0,1-.55.07q-.33,0-.81,0h-7.77l-1,0-1-.07a1.27,1.27,0,0,1-.54-.14.75.75,0,0,0-.3-.1c-.1,0-.18.13-.23.38a2.07,2.07,0,0,0-.09.37c0,.21-.1.44-.14.7s-.09.49-.13.72a3.41,3.41,0,0,0-.06.47c0,.2.06.31.18.31s.18-.08.22-.24.06-.17.1-.29a1.64,1.64,0,0,1,.23-.39,1,1,0,0,1,.63-.43,6.41,6.41,0,0,1,1.27-.14l2.93-.08Zm-11.19,6,1,0,1-.08c.31,0,.61-.08.88-.13a4.07,4.07,0,0,0,.71-.21.83.83,0,0,0,.34-.21,1,1,0,0,0,.17-.36,6.45,6.45,0,0,0,.16-.66c0-.27.1-.54.14-.8s.07-.51.09-.73a3.71,3.71,0,0,0,0-.42.46.46,0,0,0,0-.21.13.13,0,0,0-.13-.09.19.19,0,0,0-.17.08,1.17,1.17,0,0,0-.09.32,3.36,3.36,0,0,1-.23.64,2.56,2.56,0,0,1-.44.65,2.7,2.7,0,0,1-1.43.9,9.79,9.79,0,0,1-2.16.2,5.6,5.6,0,0,1-2.07-.43,6.24,6.24,0,0,1-2-1.31,7,7,0,0,1-1.52-2.19,7.42,7.42,0,0,1-.6-3.06,10.45,10.45,0,0,1,.37-2.76A4.92,4.92,0,0,1,907.2,211a4.54,4.54,0,0,1,1.52-.9,6.51,6.51,0,0,1,2.17-.31,7.58,7.58,0,0,1,2.43.35,3.9,3.9,0,0,1,1.56.86,2.85,2.85,0,0,1,.56.88,3.27,3.27,0,0,1,.21.93c0,.29.06.43.19.43a.17.17,0,0,0,.18-.12,2.54,2.54,0,0,0,.06-.33,3.53,3.53,0,0,0,0-.39c0-.18,0-.37,0-.57s0-.4,0-.61a4.61,4.61,0,0,1,0-.55c0-.34.05-.59.06-.74a2.75,2.75,0,0,0,0-.34c0-.14-.09-.22-.29-.23a7.65,7.65,0,0,1-.92-.15c-.32-.07-.66-.14-1-.19l-1.31-.15c-.41,0-.93,0-1.54,0a10.71,10.71,0,0,0-3.67.55,7.55,7.55,0,0,0-2.54,1.54,6.39,6.39,0,0,0-1.15,1.38,6.85,6.85,0,0,0-.7,1.45,7.65,7.65,0,0,0-.35,1.39,8.76,8.76,0,0,0-.09,1.16,10.54,10.54,0,0,0,.1,1.46,7.63,7.63,0,0,0,.39,1.51,6.76,6.76,0,0,0,.74,1.47,6.85,6.85,0,0,0,1.2,1.35,7.85,7.85,0,0,0,3,1.66,13.49,13.49,0,0,0,3.71.48m-19.6-6.38c-.08,0-.11-.05-.08-.14l1.81-4.83a.61.61,0,0,1,.05-.12s0-.06.06-.06.05,0,.06.06a.56.56,0,0,1,0,.12l1.77,4.85c0,.08,0,.12-.1.12Zm4,1a.2.2,0,0,1,.2.14l1.57,4.16a.29.29,0,0,1,0,.29.36.36,0,0,1-.17.16c-.19,0-.28.07-.28.18s0,.1.16.12l.43,0,2.18,0h1.53a5.5,5.5,0,0,0,.73,0c.12,0,.17-.08.17-.16s-.08-.16-.25-.16l-.39,0a3.32,3.32,0,0,1-.44-.06,1.46,1.46,0,0,1-.34-.13,1.27,1.27,0,0,1-.4-.31,3.22,3.22,0,0,1-.46-.63,6.71,6.71,0,0,1-.52-1.07c-.21-.5-.47-1.11-.77-1.85s-.62-1.53-1-2.37-.67-1.68-1-2.53-.66-1.64-.95-2.38-.54-1.36-.75-1.88-.37-.88-.44-1.06c-.19-.42-.35-.63-.5-.63a.31.31,0,0,0-.26.17,4.78,4.78,0,0,0-.28.61l-4.93,12.33a5.4,5.4,0,0,1-.64,1.21,1.45,1.45,0,0,1-1,.56,2.16,2.16,0,0,1-.3,0h-.31c-.16,0-.24,0-.24.16s.13.19.38.19h1.46l.55,0h.3l1,0,1,0c.23,0,.34-.06.34-.19s0-.11-.06-.13a.62.62,0,0,0-.24,0h-.29a.84.84,0,0,1-.62-.17.59.59,0,0,1-.17-.44,3.39,3.39,0,0,1,.07-.5,4.06,4.06,0,0,1,.23-.7l1.06-2.8c0-.11.1-.16.18-.16Zm-17-.57c0,.9,0,1.72,0,2.45s0,1.31-.09,1.73a3.82,3.82,0,0,1-.16.73.52.52,0,0,1-.41.35,1.31,1.31,0,0,1-.31.06l-.39,0c-.21,0-.32,0-.32.16s.13.19.39.19h1.37l.64,0h.47l1.22,0,1.82,0c.25,0,.37-.06.37-.19s-.1-.16-.31-.16l-.5,0a3.26,3.26,0,0,1-.5-.06.68.68,0,0,1-.59-.35,2.3,2.3,0,0,1-.18-.71q-.07-.63-.09-1.74V210.41c0-.2.05-.33.15-.37l.35-.06.42,0a3.9,3.9,0,0,1,.88.14,2.43,2.43,0,0,1,1.08.63,3.29,3.29,0,0,1,.65.78,3.32,3.32,0,0,1,.34.82,4.55,4.55,0,0,1,.14.76c0,.23,0,.43,0,.59a3.59,3.59,0,0,1-.25,1.34,3.72,3.72,0,0,1-.65,1,2.92,2.92,0,0,1-.86.65,2,2,0,0,1-.87.23,1.42,1.42,0,0,0-.43,0,.18.18,0,0,0-.12.17.13.13,0,0,0,.08.13l.15.05.2,0h.22A5,5,0,0,0,885,217a4.53,4.53,0,0,0,2.55-2.48,5,5,0,0,0,.36-1.92,2.92,2.92,0,0,0-.33-1.4,3.48,3.48,0,0,0-.65-.93c-.08-.08-.2-.18-.36-.31a3,3,0,0,0-.66-.36,6.21,6.21,0,0,0-1.08-.31,7.56,7.56,0,0,0-1.56-.14l-1.46,0-1.38,0h-.53l-.7,0-.8,0h-.8c-.29,0-.43.06-.43.18s.11.17.33.17h.43a1.92,1.92,0,0,1,.34.05,1,1,0,0,1,.64.35,1.75,1.75,0,0,1,.2.77l0,.5c0,.18,0,.42,0,.72v6.4ZM857.44,222a5.2,5.2,0,0,1-.24,1,.76.76,0,0,1-.56.57,1.93,1.93,0,0,1-.35,0h-.24c-.21,0-.32,0-.32.14a.19.19,0,0,0,.1.18.93.93,0,0,0,.26,0h1.07l.5,0H858l.85,0,1.21,0c.32,0,.47-.07.47-.21a.11.11,0,0,0-.09-.11.56.56,0,0,0-.2,0l-.35,0a3.67,3.67,0,0,1-.48-.08,1,1,0,0,1-.42-.2.54.54,0,0,1-.17-.42c0-.16,0-.31,0-.45s0-.3,0-.48l1-7.81H860c.17.36.37.78.58,1.24l.63,1.34.54,1.13a5.4,5.4,0,0,1,.29.65c.06.14.18.41.39.8l.66,1.29c.23.46.46.92.69,1.36l.52,1c.16.31.29.54.4.72s.2.27.29.27.18-.07.27-.21.23-.44.46-.89l4.28-8.92h.08l1.17,8.64a1.93,1.93,0,0,1,0,.61q0,.19-.12.24c-.15.06-.22.13-.22.21s0,.11.12.14a2.7,2.7,0,0,0,.45.08l.88,0,1.22,0,1.17,0h.72a1.28,1.28,0,0,0,.36,0c.1,0,.15-.09.15-.17s-.11-.14-.32-.14l-.49,0a3.68,3.68,0,0,1-.72-.16,1,1,0,0,1-.64-.59,5.88,5.88,0,0,1-.33-1.4l-1.78-12.13c-.06-.41-.17-.61-.36-.61a.28.28,0,0,0-.22.11,2.47,2.47,0,0,0-.21.36l-5.34,11.21-5.36-11.07a1.73,1.73,0,0,0-.31-.5.28.28,0,0,0-.22-.11c-.16,0-.27.17-.34.51Zm-7.66-3.73c0,1,0,1.8,0,2.54a13,13,0,0,1-.09,1.74,2.09,2.09,0,0,1-.15.68.56.56,0,0,1-.42.3,1.31,1.31,0,0,1-.31.06l-.39,0c-.21,0-.32,0-.32.16s.13.19.4.19h1.36l.64,0H851l1.24,0,1.82,0c.25,0,.38-.06.38-.19s-.11-.16-.32-.16l-.5,0a3.43,3.43,0,0,1-.5-.06.76.76,0,0,1-.6-.31,1.51,1.51,0,0,1-.18-.65c0-.42-.07-1-.07-1.75s0-1.59,0-2.55v-6.4c0-.3,0-.54,0-.72a4.07,4.07,0,0,1,0-.5,1.93,1.93,0,0,1,.18-.77.74.74,0,0,1,.54-.35l.31-.05h.28c.21,0,.32-.06.32-.19s-.14-.16-.42-.16h-.62l-.67,0-.63,0h-1l-.68,0-.71,0h-.63c-.31,0-.47,0-.47.16s.11.19.32.19l.36,0a3.17,3.17,0,0,1,.35.06c.4.09.62.46.66,1.1a4.07,4.07,0,0,1,0,.5c0,.18,0,.42,0,.72v6.4Z"/><path class="cls-3" d="M122,185.91l-1.11-3.43a.1.1,0,0,0-.11-.08h-8s-.08,0-.1.08l-1.08,3.43a.3.3,0,0,1-.31.2h-.91c-.18,0-.25-.09-.2-.28l5.73-17.57a.3.3,0,0,1,.31-.21h1.16a.31.31,0,0,1,.31.21l5.75,17.57,0,.1q0,.18-.24.18h-.87A.29.29,0,0,1,122,185.91Zm-8.94-4.69a.1.1,0,0,0,.09,0h7.22a.1.1,0,0,0,.09,0s0-.05,0-.09l-3.63-11.22a.1.1,0,0,0-.08,0,.09.09,0,0,0-.08,0l-3.64,11.22S113.07,181.2,113.1,181.22Z"/><path class="cls-3" d="M136.67,177.66c0,.49.05,1.14.05,1.93s0,1.43-.05,1.92a8.24,8.24,0,0,1-.21,1.33,4.47,4.47,0,0,1-1.61,2.54,4.82,4.82,0,0,1-3,.94,4.43,4.43,0,0,1-2-.45,3.65,3.65,0,0,1-1.43-1.3s-.07,0-.09,0,0,0,0,.09v6.29a.23.23,0,0,1-.26.26h-.85a.23.23,0,0,1-.26-.26V173.37a.23.23,0,0,1,.26-.26H128a.23.23,0,0,1,.26.26v1.24s0,.08,0,.09,0,0,.09,0a3.58,3.58,0,0,1,1.43-1.3,4.31,4.31,0,0,1,2-.46,4.73,4.73,0,0,1,3,.93,4.61,4.61,0,0,1,1.65,2.51A6.22,6.22,0,0,1,136.67,177.66Zm-1.68,5a3.71,3.71,0,0,0,.28-1.08,23.68,23.68,0,0,0,0-3.89,5.56,5.56,0,0,0-.26-1.12,2.92,2.92,0,0,0-1.16-1.75,3.49,3.49,0,0,0-2.16-.67,3,3,0,0,0-2,.68,3.41,3.41,0,0,0-1.1,1.74,4.49,4.49,0,0,0-.25,1.09,15.77,15.77,0,0,0-.08,2,16,16,0,0,0,.08,2,5.36,5.36,0,0,0,.25,1.13,3.24,3.24,0,0,0,1.1,1.72,3.12,3.12,0,0,0,2,.66,3.35,3.35,0,0,0,2-.61,3,3,0,0,0,1.17-1.59Z"/><path class="cls-3" d="M146,174.27h-3a.1.1,0,0,0-.11.1v8.16a2.36,2.36,0,0,0,.6,1.84,2.77,2.77,0,0,0,1.9.53h.6a.23.23,0,0,1,.26.26v.7c0,.17-.09.25-.26.25l-.78,0a4.42,4.42,0,0,1-2.72-.7,3.09,3.09,0,0,1-.94-2.55v-8.52a.09.09,0,0,0-.1-.1h-1.55a.23.23,0,0,1-.26-.26v-.64a.23.23,0,0,1,.26-.26h1.55c.07,0,.1,0,.1-.1v-2.94a.23.23,0,0,1,.26-.26h.82c.18,0,.26.08.26.26V173c0,.07,0,.1.11.1h3a.23.23,0,0,1,.26.26V174C146.21,174.19,146.13,174.27,146,174.27Z"/><path class="cls-3" d="M158.29,173.11h.82a.23.23,0,0,1,.26.26v12.49c0,.17-.09.25-.26.25h-.82c-.18,0-.26-.08-.26-.25v-1.27c0-.05,0-.08-.05-.09s-.06,0-.08.07a3.58,3.58,0,0,1-1.46,1.29,5,5,0,0,1-2.15.43,4.57,4.57,0,0,1-3.18-1.13,4,4,0,0,1-1.26-3.12v-8.67a.23.23,0,0,1,.26-.26h.82a.23.23,0,0,1,.26.26v8.31a3.37,3.37,0,0,0,.92,2.47,3.26,3.26,0,0,0,2.44.93,3.42,3.42,0,0,0,2.52-.94,3.3,3.3,0,0,0,1-2.46v-8.31A.23.23,0,0,1,158.29,173.11Z"/><path class="cls-3" d="M165.45,185.79a4,4,0,0,1-1.67-1.22,2.79,2.79,0,0,1-.59-1.71v-.33a.23.23,0,0,1,.26-.26h.8c.17,0,.25.09.25.26v.28a2,2,0,0,0,1,1.64,4,4,0,0,0,2.42.68,3.75,3.75,0,0,0,2.35-.69,2.12,2.12,0,0,0,.9-1.73,1.61,1.61,0,0,0-.46-1.19,3.16,3.16,0,0,0-1.1-.71q-.63-.24-1.89-.63a19.39,19.39,0,0,1-2.32-.83,4.06,4.06,0,0,1-1.49-1.09,2.7,2.7,0,0,1-.6-1.8,3,3,0,0,1,1.25-2.51,5.31,5.31,0,0,1,3.29-.94,6.06,6.06,0,0,1,2.41.45,3.86,3.86,0,0,1,1.62,1.22,2.85,2.85,0,0,1,.59,1.76v.08c0,.17-.09.25-.26.25h-.8c-.17,0-.26-.08-.26-.25v-.08a2,2,0,0,0-.92-1.64,4,4,0,0,0-2.41-.66,4,4,0,0,0-2.32.61,1.88,1.88,0,0,0-.88,1.64,1.61,1.61,0,0,0,.81,1.47,12,12,0,0,0,2.55,1,22.26,22.26,0,0,1,2.38.83,4.35,4.35,0,0,1,1.54,1.1,2.61,2.61,0,0,1,.64,1.84,3.17,3.17,0,0,1-1.25,2.62,5.23,5.23,0,0,1-3.34,1A6.28,6.28,0,0,1,165.45,185.79Z"/><path class="cls-3" d="M193,169.27h-9.78c-.07,0-.1,0-.1.1v7a.09.09,0,0,0,.1.1h6.94a.23.23,0,0,1,.26.26v.69c0,.18-.08.26-.26.26h-6.94a.09.09,0,0,0-.1.1v7.05c0,.07,0,.1.1.1H193a.23.23,0,0,1,.26.26v.7c0,.17-.09.25-.26.25H182c-.17,0-.26-.08-.26-.25V168.31a.23.23,0,0,1,.26-.26h11a.23.23,0,0,1,.26.26v.7A.23.23,0,0,1,193,169.27Z"/><path class="cls-3" d="M198.68,185.79a4,4,0,0,1-1.67-1.22,2.79,2.79,0,0,1-.59-1.71v-.33a.23.23,0,0,1,.26-.26h.8a.23.23,0,0,1,.26.26v.28a2,2,0,0,0,.95,1.64,4,4,0,0,0,2.42.68,3.75,3.75,0,0,0,2.35-.69,2.13,2.13,0,0,0,.91-1.73,1.62,1.62,0,0,0-.47-1.19,3.16,3.16,0,0,0-1.1-.71q-.63-.24-1.89-.63a20.05,20.05,0,0,1-2.32-.83,4.06,4.06,0,0,1-1.49-1.09,2.7,2.7,0,0,1-.6-1.8,3,3,0,0,1,1.25-2.51A5.31,5.31,0,0,1,201,173a6.06,6.06,0,0,1,2.41.45,4,4,0,0,1,1.63,1.22,2.9,2.9,0,0,1,.58,1.76v.08c0,.17-.09.25-.26.25h-.8c-.17,0-.26-.08-.26-.25v-.08a2,2,0,0,0-.92-1.64,4,4,0,0,0-2.41-.66,4,4,0,0,0-2.32.61,1.88,1.88,0,0,0-.88,1.64,1.6,1.6,0,0,0,.82,1.47,11.65,11.65,0,0,0,2.54,1,22.26,22.26,0,0,1,2.38.83,4.35,4.35,0,0,1,1.54,1.1,2.61,2.61,0,0,1,.64,1.84,3.17,3.17,0,0,1-1.25,2.62,5.23,5.23,0,0,1-3.34,1A6.28,6.28,0,0,1,198.68,185.79Z"/><path class="cls-3" d="M214.56,174.27h-3a.09.09,0,0,0-.1.1v8.16a2.36,2.36,0,0,0,.59,1.84,2.78,2.78,0,0,0,1.91.53h.59a.23.23,0,0,1,.26.26v.7c0,.17-.09.25-.26.25l-.77,0a4.4,4.4,0,0,1-2.72-.7,3.09,3.09,0,0,1-.95-2.55v-8.52a.09.09,0,0,0-.1-.1h-1.55a.23.23,0,0,1-.26-.26v-.64a.23.23,0,0,1,.26-.26H210c.07,0,.1,0,.1-.1v-2.94a.23.23,0,0,1,.26-.26h.83a.23.23,0,0,1,.26.26V173c0,.07,0,.1.1.1h3a.23.23,0,0,1,.26.26V174A.23.23,0,0,1,214.56,174.27Z"/><path class="cls-3" d="M226.89,173.11h.83c.17,0,.25.09.25.26v12.49a.22.22,0,0,1-.25.25h-.83c-.17,0-.26-.08-.26-.25v-1.27c0-.05,0-.08,0-.09s-.06,0-.08.07a3.55,3.55,0,0,1-1.45,1.29,5,5,0,0,1-2.16.43,4.55,4.55,0,0,1-3.17-1.13,4,4,0,0,1-1.27-3.12v-8.67a.23.23,0,0,1,.26-.26h.83c.17,0,.25.09.25.26v8.31a3.37,3.37,0,0,0,.92,2.47,3.26,3.26,0,0,0,2.44.93,3.44,3.44,0,0,0,2.53-.94,3.33,3.33,0,0,0,.95-2.46v-8.31A.23.23,0,0,1,226.89,173.11Z"/><path class="cls-3" d="M240.82,168.05h.85a.23.23,0,0,1,.26.26v17.55c0,.17-.08.25-.26.25h-.85c-.17,0-.26-.08-.26-.25v-1.27q0-.08,0-.09s-.06,0-.09,0a3.76,3.76,0,0,1-1.45,1.32,4.38,4.38,0,0,1-2,.46,4.57,4.57,0,0,1-4.62-3.43,6.46,6.46,0,0,1-.23-1.33c0-.49,0-1.13,0-1.92s0-1.41,0-1.91a7.11,7.11,0,0,1,.21-1.34,4.35,4.35,0,0,1,1.61-2.54,4.83,4.83,0,0,1,3-.95,4.38,4.38,0,0,1,2,.47,3.81,3.81,0,0,1,1.45,1.31c0,.06,0,.08.07.07s.05,0,.05-.09v-6.35A.23.23,0,0,1,240.82,168.05Zm-.35,13.52a18,18,0,0,0,.07-1.93,18.58,18.58,0,0,0-.08-2,5.4,5.4,0,0,0-.26-1.15,3.22,3.22,0,0,0-1.09-1.72,3.14,3.14,0,0,0-2-.65,3.42,3.42,0,0,0-2.09.65,3.26,3.26,0,0,0-1.19,1.69,4.15,4.15,0,0,0-.32,1.13,15.92,15.92,0,0,0-.09,2,18,18,0,0,0,.07,1.95,6.13,6.13,0,0,0,.26,1.12,3,3,0,0,0,1.16,1.76,3.61,3.61,0,0,0,2.17.67,3.14,3.14,0,0,0,2-.67,3.5,3.5,0,0,0,1.12-1.76A4.33,4.33,0,0,0,240.47,181.57Z"/><path class="cls-3" d="M246.55,170.14a1.37,1.37,0,0,1,0-1.85,1.35,1.35,0,0,1,1.86,0,1.31,1.31,0,0,1-1.86,1.85Zm.18,15.69V173.34a.23.23,0,0,1,.26-.26h.85a.23.23,0,0,1,.26.26v12.49a.23.23,0,0,1-.26.26H247A.23.23,0,0,1,246.73,185.83Z"/><path class="cls-3" d="M254.63,185.37a4.69,4.69,0,0,1-1.76-2.56,13.24,13.24,0,0,1-.28-3.22,12.89,12.89,0,0,1,.28-3.2,4.65,4.65,0,0,1,1.74-2.54,5.59,5.59,0,0,1,6.25,0,4.62,4.62,0,0,1,1.74,2.53,7.17,7.17,0,0,1,.2,1.33c0,.49.06,1.11.06,1.87s0,1.42-.06,1.91a7.07,7.07,0,0,1-.2,1.31,4.66,4.66,0,0,1-1.74,2.56,5.22,5.22,0,0,1-3.14.95A5.09,5.09,0,0,1,254.63,185.37Zm5.43-1a3.5,3.5,0,0,0,1.25-2,13.33,13.33,0,0,0,.18-2.74,14.24,14.24,0,0,0-.16-2.73,3.38,3.38,0,0,0-1.25-2,4.12,4.12,0,0,0-4.71,0,3.46,3.46,0,0,0-1.24,2,14.11,14.11,0,0,0-.18,2.73,14.31,14.31,0,0,0,.18,2.74,3.46,3.46,0,0,0,1.24,2,3.69,3.69,0,0,0,2.35.75A3.73,3.73,0,0,0,260.06,184.35Z"/><path class="cls-3" d="M268.52,185.79a4,4,0,0,1-1.67-1.22,2.79,2.79,0,0,1-.59-1.71v-.33a.23.23,0,0,1,.26-.26h.8a.23.23,0,0,1,.26.26v.28a2,2,0,0,0,.95,1.64,4.06,4.06,0,0,0,2.43.68,3.74,3.74,0,0,0,2.34-.69,2.1,2.1,0,0,0,.91-1.73,1.62,1.62,0,0,0-.47-1.19,3.21,3.21,0,0,0-1.09-.71c-.42-.16-1.06-.37-1.9-.63a20.05,20.05,0,0,1-2.32-.83,3.94,3.94,0,0,1-1.48-1.09,2.65,2.65,0,0,1-.61-1.8,3,3,0,0,1,1.25-2.51,5.31,5.31,0,0,1,3.29-.94,6,6,0,0,1,2.41.45,4,4,0,0,1,1.63,1.22,2.9,2.9,0,0,1,.58,1.76v.08c0,.17-.09.25-.26.25h-.8c-.17,0-.26-.08-.26-.25v-.08a2,2,0,0,0-.91-1.64,4.05,4.05,0,0,0-2.42-.66,4,4,0,0,0-2.32.61,1.9,1.9,0,0,0-.88,1.64,1.62,1.62,0,0,0,.82,1.47,11.86,11.86,0,0,0,2.54,1,22.55,22.55,0,0,1,2.39.83,4.4,4.4,0,0,1,1.53,1.1,2.62,2.62,0,0,1,.65,1.84,3.18,3.18,0,0,1-1.26,2.62,5.21,5.21,0,0,1-3.34,1A6.28,6.28,0,0,1,268.52,185.79Z"/><path class="cls-3" d="M111.16,221.31a.29.29,0,0,1-.09-.22V203.65a.31.31,0,0,1,.31-.31h6.3a7.74,7.74,0,0,1,3.22.64,5,5,0,0,1,2.16,1.85,5.17,5.17,0,0,1,.76,2.8v7.48a5.17,5.17,0,0,1-.76,2.8,5,5,0,0,1-2.16,1.85,7.59,7.59,0,0,1-3.22.64h-6.3A.29.29,0,0,1,111.16,221.31Zm3-2.49h3.62A2.88,2.88,0,0,0,120,218a3.31,3.31,0,0,0,.83-2.31v-6.53a3.26,3.26,0,0,0-.82-2.34,2.94,2.94,0,0,0-2.22-.86h-3.59a.12.12,0,0,0-.13.13v12.64A.12.12,0,0,0,114.19,218.82Z"/><path class="cls-3" d="M138,214.77l0,.8a.27.27,0,0,1-.31.31h-8.08c-.08,0-.12,0-.12.13a3.47,3.47,0,0,0,.23,1.16,2.82,2.82,0,0,0,3,1.88,3.25,3.25,0,0,0,2.78-1.44.33.33,0,0,1,.26-.16.25.25,0,0,1,.18.08l1.6,1.32a.27.27,0,0,1,.08.41,5.17,5.17,0,0,1-2.13,1.75,6.81,6.81,0,0,1-2.95.62,6.18,6.18,0,0,1-3.42-.9,5.15,5.15,0,0,1-2-2.53,10.05,10.05,0,0,1-.6-3.87,8,8,0,0,1,.31-2.42,5.19,5.19,0,0,1,2-2.85,5.64,5.64,0,0,1,3.44-1.05q5.08,0,5.73,5.31A9.2,9.2,0,0,1,138,214.77Zm-7.42-3.7a2.52,2.52,0,0,0-.89,1.33,4.38,4.38,0,0,0-.21,1.13c0,.09,0,.13.1.13h5.24c.09,0,.13,0,.13-.13a5.36,5.36,0,0,0-.15-1,2.49,2.49,0,0,0-.92-1.44,2.75,2.75,0,0,0-1.72-.52A2.54,2.54,0,0,0,130.54,211.07Z"/><path class="cls-3" d="M145.94,221.31a.29.29,0,0,1-.09-.22V203.65a.31.31,0,0,1,.31-.31h2.37a.31.31,0,0,1,.31.31v17.44a.31.31,0,0,1-.31.31h-2.37A.29.29,0,0,1,145.94,221.31Z"/><path class="cls-3" d="M159.91,208.58a4.51,4.51,0,0,1,1.91,1.56,3.91,3.91,0,0,1,.67,2.26v8.69a.31.31,0,0,1-.31.31h-2.37a.31.31,0,0,1-.31-.31v-.82c0-.06,0-.09-.05-.09a.12.12,0,0,0-.11,0,4.68,4.68,0,0,1-3.66,1.4,5.05,5.05,0,0,1-3.19-1,3.51,3.51,0,0,1-1.25-2.92,3.76,3.76,0,0,1,1.41-3.13,6.2,6.2,0,0,1,4-1.13h2.76c.09,0,.13,0,.13-.13v-.61a2,2,0,0,0-.59-1.56,2.53,2.53,0,0,0-1.78-.56,3.18,3.18,0,0,0-1.59.35,1.47,1.47,0,0,0-.76,1c-.05.2-.17.29-.36.25l-2.51-.3a.55.55,0,0,1-.22-.1.13.13,0,0,1-.06-.16,3.62,3.62,0,0,1,1.69-2.58,6.5,6.5,0,0,1,3.73-1A6.76,6.76,0,0,1,159.91,208.58Zm-1.31,10a2,2,0,0,0,.9-1.7v-1.21c0-.09,0-.13-.13-.13H157.2a3.91,3.91,0,0,0-2.15.51,1.67,1.67,0,0,0-.79,1.48,1.47,1.47,0,0,0,.61,1.27,2.53,2.53,0,0,0,1.56.45A3.54,3.54,0,0,0,158.6,218.56Z"/><path class="cls-3" d="M181.87,214.77l0,.8a.27.27,0,0,1-.31.31h-8.07c-.09,0-.13,0-.13.13a3.75,3.75,0,0,0,.23,1.16,2.82,2.82,0,0,0,3,1.88,3.26,3.26,0,0,0,2.79-1.44.3.3,0,0,1,.25-.16.25.25,0,0,1,.18.08l1.6,1.32a.27.27,0,0,1,.08.41,5.17,5.17,0,0,1-2.13,1.75,6.78,6.78,0,0,1-2.95.62,6.23,6.23,0,0,1-3.42-.9,5.15,5.15,0,0,1-2-2.53,10.08,10.08,0,0,1-.59-3.87,8,8,0,0,1,.3-2.42,5.19,5.19,0,0,1,2-2.85A5.7,5.7,0,0,1,176,208c3.39,0,5.29,1.77,5.72,5.31A9.2,9.2,0,0,1,181.87,214.77Zm-7.42-3.7a2.52,2.52,0,0,0-.89,1.33,4.86,4.86,0,0,0-.21,1.13c0,.09,0,.13.11.13h5.23c.09,0,.13,0,.13-.13a4.61,4.61,0,0,0-.15-1,2.49,2.49,0,0,0-.92-1.44,2.72,2.72,0,0,0-1.71-.52A2.55,2.55,0,0,0,174.45,211.07Z"/><path class="cls-3" d="M187.83,221.14l-4.16-12.59a.44.44,0,0,1,0-.13c0-.15.09-.23.28-.23h2.63a.34.34,0,0,1,.36.26l2.51,8.62c0,.05,0,.07.07.07s.06,0,.08-.07l2.5-8.62a.36.36,0,0,1,.37-.26l2.63.05a.29.29,0,0,1,.23.09.3.3,0,0,1,0,.27l-4.13,12.54a.32.32,0,0,1-.34.26h-2.71A.31.31,0,0,1,187.83,221.14Z"/><path class="cls-3" d="M198,205.89a1.78,1.78,0,0,1-.51-1.31,1.75,1.75,0,0,1,1.83-1.83,1.76,1.76,0,0,1,1.83,1.83,1.78,1.78,0,0,1-1.83,1.83A1.79,1.79,0,0,1,198,205.89Zm-.14,15.42a.29.29,0,0,1-.09-.22V208.5a.31.31,0,0,1,.31-.31h2.37a.31.31,0,0,1,.31.31v12.59a.31.31,0,0,1-.31.31h-2.37A.29.29,0,0,1,197.85,221.31Z"/><path class="cls-3" d="M212.45,203.43a.31.31,0,0,1,.22-.09h2.38a.31.31,0,0,1,.22.09.29.29,0,0,1,.09.22v17.44a.29.29,0,0,1-.09.22.31.31,0,0,1-.22.09h-2.38a.31.31,0,0,1-.22-.09.29.29,0,0,1-.09-.22v-.77s0-.09-.05-.11-.07,0-.1.06a3.72,3.72,0,0,1-3,1.34,5,5,0,0,1-3.09-1,5.29,5.29,0,0,1-1.84-2.65,10.55,10.55,0,0,1-.46-3.23,10.1,10.1,0,0,1,.44-3.15,5.41,5.41,0,0,1,1.83-2.66,5.15,5.15,0,0,1,3.17-1,3.72,3.72,0,0,1,2.92,1.29.11.11,0,0,0,.1,0s.05,0,.05-.09v-5.6A.29.29,0,0,1,212.45,203.43Zm-.11,11.37a5.92,5.92,0,0,0-.65-3.07,2.18,2.18,0,0,0-2-1.14,2.38,2.38,0,0,0-2.06,1.08,5.52,5.52,0,0,0-.78,3.15,6.29,6.29,0,0,0,.62,3,2.39,2.39,0,0,0,2.2,1.24,2.26,2.26,0,0,0,2-1.24A6.13,6.13,0,0,0,212.34,214.8Z"/><path class="cls-3" d="M229.83,214.77l0,.8a.28.28,0,0,1-.31.31h-8.08c-.09,0-.13,0-.13.13a3.75,3.75,0,0,0,.23,1.16,2.83,2.83,0,0,0,3,1.88,3.26,3.26,0,0,0,2.79-1.44.31.31,0,0,1,.26-.16.25.25,0,0,1,.18.08l1.6,1.32a.27.27,0,0,1,.07.41,5.2,5.2,0,0,1-2.12,1.75,6.82,6.82,0,0,1-3,.62,6.23,6.23,0,0,1-3.42-.9,5.2,5.2,0,0,1-2.05-2.53,10.27,10.27,0,0,1-.59-3.87,7.69,7.69,0,0,1,.31-2.42,5.09,5.09,0,0,1,1.95-2.85A5.64,5.64,0,0,1,224,208q5.08,0,5.73,5.31A9.26,9.26,0,0,1,229.83,214.77Zm-7.42-3.7a2.58,2.58,0,0,0-.89,1.33,4.43,4.43,0,0,0-.2,1.13c0,.09,0,.13.1.13h5.24a.12.12,0,0,0,.13-.13,5.21,5.21,0,0,0-.16-1,2.47,2.47,0,0,0-.91-1.44,2.75,2.75,0,0,0-1.72-.52A2.55,2.55,0,0,0,222.41,211.07Z"/><path class="cls-3" d="M242.23,209.25a4.54,4.54,0,0,1,1.25,3.38v8.46a.31.31,0,0,1-.31.31H240.8a.31.31,0,0,1-.31-.31v-7.84a2.77,2.77,0,0,0-.67-1.92,2.32,2.32,0,0,0-1.78-.74,2.38,2.38,0,0,0-1.8.72,2.69,2.69,0,0,0-.68,1.91v7.87a.29.29,0,0,1-.09.22.31.31,0,0,1-.22.09h-2.37a.31.31,0,0,1-.31-.31V208.53a.31.31,0,0,1,.31-.31h2.37a.31.31,0,0,1,.22.09.29.29,0,0,1,.09.22v.82a.1.1,0,0,0,.05.1s.06,0,.08,0a3.75,3.75,0,0,1,3.2-1.39A4.54,4.54,0,0,1,242.23,209.25Z"/><path class="cls-3" d="M248.66,220.59a5.33,5.33,0,0,1-2-2.75,11.7,11.7,0,0,1,0-6.14,5.07,5.07,0,0,1,2-2.7,6,6,0,0,1,3.45-1,6.16,6.16,0,0,1,3.51,1,4.78,4.78,0,0,1,2,2.52,4.26,4.26,0,0,1,.18.83v0a.29.29,0,0,1-.28.31l-2.32.34h-.06a.31.31,0,0,1-.3-.26.58.58,0,0,0,0-.21c0-.13-.07-.25-.1-.36a2.29,2.29,0,0,0-.93-1.19,2.92,2.92,0,0,0-1.65-.46,2.78,2.78,0,0,0-1.67.5,2.45,2.45,0,0,0-.91,1.38,7.81,7.81,0,0,0-.26,2.3,9.54,9.54,0,0,0,.23,2.3,2.57,2.57,0,0,0,2.61,2,2.84,2.84,0,0,0,1.69-.51,2.24,2.24,0,0,0,.91-1.35.25.25,0,0,0,0-.13s0,0,0-.08c.06-.2.18-.29.36-.25l2.33.36a.39.39,0,0,1,.22.11.26.26,0,0,1,.06.25,5.23,5.23,0,0,1-.13.59,4.61,4.61,0,0,1-2,2.62,6.37,6.37,0,0,1-3.51,1A5.83,5.83,0,0,1,248.66,220.59Z"/><path class="cls-3" d="M260.69,205.89a1.75,1.75,0,0,1-.52-1.31,1.87,1.87,0,0,1,3.15-1.32,1.83,1.83,0,0,1,.52,1.32,1.79,1.79,0,0,1-.52,1.31,1.92,1.92,0,0,1-2.63,0Zm-.14,15.42a.29.29,0,0,1-.09-.22V208.5a.31.31,0,0,1,.31-.31h2.37a.31.31,0,0,1,.22.09.29.29,0,0,1,.09.22v12.59a.29.29,0,0,1-.09.22.31.31,0,0,1-.22.09h-2.37A.29.29,0,0,1,260.55,221.31Z"/><path class="cls-3" d="M274.78,208.58a4.48,4.48,0,0,1,1.9,1.56,3.91,3.91,0,0,1,.68,2.26v8.69a.3.3,0,0,1-.1.22.29.29,0,0,1-.21.09h-2.38a.31.31,0,0,1-.22-.09.29.29,0,0,1-.09-.22v-.82c0-.06,0-.09-.05-.09a.1.1,0,0,0-.1,0,4.72,4.72,0,0,1-3.67,1.4,5,5,0,0,1-3.18-1,3.48,3.48,0,0,1-1.25-2.92,3.76,3.76,0,0,1,1.4-3.13,6.2,6.2,0,0,1,4-1.13h2.76c.09,0,.13,0,.13-.13v-.61a2,2,0,0,0-.59-1.56,2.53,2.53,0,0,0-1.78-.56,3.2,3.2,0,0,0-1.59.35,1.5,1.5,0,0,0-.76,1c-.05.2-.17.29-.36.25l-2.5-.3a.5.5,0,0,1-.22-.1.15.15,0,0,1-.07-.16,3.62,3.62,0,0,1,1.69-2.58,6.5,6.5,0,0,1,3.73-1A6.84,6.84,0,0,1,274.78,208.58Zm-1.32,10a2,2,0,0,0,.9-1.7v-1.21c0-.09,0-.13-.13-.13h-2.16a3.94,3.94,0,0,0-2.16.51,1.69,1.69,0,0,0-.79,1.48,1.5,1.5,0,0,0,.61,1.27,2.55,2.55,0,0,0,1.56.45A3.52,3.52,0,0,0,273.46,218.56Z"/><path class="cls-3" d="M293.4,208.58a4.51,4.51,0,0,1,1.91,1.56,3.91,3.91,0,0,1,.67,2.26v8.69a.31.31,0,0,1-.31.31H293.3a.31.31,0,0,1-.31-.31v-.82c0-.06,0-.09-.05-.09a.1.1,0,0,0-.1,0,4.72,4.72,0,0,1-3.67,1.4,5,5,0,0,1-3.18-1,3.48,3.48,0,0,1-1.26-2.92,3.76,3.76,0,0,1,1.41-3.13,6.2,6.2,0,0,1,4-1.13h2.76c.09,0,.13,0,.13-.13v-.61a2,2,0,0,0-.59-1.56,2.53,2.53,0,0,0-1.78-.56,3.18,3.18,0,0,0-1.59.35,1.5,1.5,0,0,0-.76,1c0,.2-.17.29-.36.25l-2.5-.3a.5.5,0,0,1-.22-.1.14.14,0,0,1-.07-.16,3.62,3.62,0,0,1,1.69-2.58,6.5,6.5,0,0,1,3.73-1A6.76,6.76,0,0,1,293.4,208.58Zm-1.31,10a2,2,0,0,0,.9-1.7v-1.21c0-.09,0-.13-.13-.13h-2.17a3.91,3.91,0,0,0-2.15.51,1.67,1.67,0,0,0-.79,1.48,1.47,1.47,0,0,0,.61,1.27,2.53,2.53,0,0,0,1.56.45A3.52,3.52,0,0,0,292.09,218.56Z"/><path class="cls-3" d="M304.23,221.31a.29.29,0,0,1-.09-.22V203.65a.31.31,0,0,1,.31-.31h2.37a.31.31,0,0,1,.31.31v17.44a.31.31,0,0,1-.31.31h-2.37A.29.29,0,0,1,304.23,221.31Z"/><path class="cls-3" d="M318.2,208.58a4.58,4.58,0,0,1,1.91,1.56,4,4,0,0,1,.67,2.26v8.69a.29.29,0,0,1-.09.22.31.31,0,0,1-.22.09h-2.38a.29.29,0,0,1-.21-.09.27.27,0,0,1-.1-.22v-.82c0-.06,0-.09,0-.09a.1.1,0,0,0-.1,0,4.68,4.68,0,0,1-3.66,1.4,5,5,0,0,1-3.19-1,3.51,3.51,0,0,1-1.25-2.92,3.78,3.78,0,0,1,1.4-3.13,6.21,6.21,0,0,1,4-1.13h2.76c.08,0,.12,0,.12-.13v-.61a2,2,0,0,0-.59-1.56,2.52,2.52,0,0,0-1.78-.56,3.23,3.23,0,0,0-1.59.35,1.53,1.53,0,0,0-.76,1c-.05.2-.17.29-.36.25l-2.5-.3a.5.5,0,0,1-.22-.1.13.13,0,0,1-.06-.16,3.59,3.59,0,0,1,1.69-2.58,6.47,6.47,0,0,1,3.72-1A6.81,6.81,0,0,1,318.2,208.58Zm-1.32,10a2,2,0,0,0,.9-1.7v-1.21c0-.09,0-.13-.12-.13h-2.17a4,4,0,0,0-2.16.51,1.68,1.68,0,0,0-.78,1.48,1.49,1.49,0,0,0,.6,1.27,2.57,2.57,0,0,0,1.56.45A3.5,3.5,0,0,0,316.88,218.56Z"/><path class="cls-3" d="M340.57,214.85a10.1,10.1,0,0,1-.44,3.15,5.38,5.38,0,0,1-1.82,2.65,5.06,5.06,0,0,1-3.16,1,3.65,3.65,0,0,1-2.94-1.32.09.09,0,0,0-.11,0,.1.1,0,0,0-.05.1V226a.31.31,0,0,1-.09.22.29.29,0,0,1-.22.09h-2.37a.29.29,0,0,1-.22-.09.31.31,0,0,1-.09-.22V208.53a.31.31,0,0,1,.31-.31h2.37a.31.31,0,0,1,.31.31v.77a.1.1,0,0,0,.05.1s.07,0,.11-.05a3.69,3.69,0,0,1,3-1.34,5,5,0,0,1,3.1,1,5.41,5.41,0,0,1,1.83,2.66A9.75,9.75,0,0,1,340.57,214.85Zm-3.05,0a5.91,5.91,0,0,0-.62-3,2.36,2.36,0,0,0-2.19-1.26,2.15,2.15,0,0,0-2,1.23,7.73,7.73,0,0,0,.05,6.09,2.12,2.12,0,0,0,1.93,1.14,2.3,2.3,0,0,0,2.07-1.09A5.72,5.72,0,0,0,337.52,214.8Z"/><path class="cls-3" d="M351,208.4a.32.32,0,0,1,.16.38l-.44,2.33q0,.3-.36.18a2.77,2.77,0,0,0-.91-.13l-.51,0a2.7,2.7,0,0,0-1.81.76,2.49,2.49,0,0,0-.72,1.85v7.3a.29.29,0,0,1-.09.22.31.31,0,0,1-.22.09h-2.37a.31.31,0,0,1-.31-.31V208.53a.31.31,0,0,1,.31-.31h2.37a.31.31,0,0,1,.22.09.29.29,0,0,1,.09.22v1.16c0,.07,0,.1,0,.11s.05,0,.09-.06a3.41,3.41,0,0,1,3-1.68A2.89,2.89,0,0,1,351,208.4Z"/><path class="cls-3" d="M361.05,208.58a4.51,4.51,0,0,1,1.91,1.56,3.91,3.91,0,0,1,.67,2.26v8.69a.31.31,0,0,1-.31.31H361a.31.31,0,0,1-.31-.31v-.82c0-.06,0-.09-.05-.09a.12.12,0,0,0-.11,0,4.68,4.68,0,0,1-3.66,1.4,5.05,5.05,0,0,1-3.19-1,3.51,3.51,0,0,1-1.25-2.92,3.76,3.76,0,0,1,1.41-3.13,6.2,6.2,0,0,1,4-1.13h2.76c.09,0,.13,0,.13-.13v-.61a2,2,0,0,0-.59-1.56,2.53,2.53,0,0,0-1.78-.56,3.18,3.18,0,0,0-1.59.35,1.47,1.47,0,0,0-.76,1c-.05.2-.17.29-.36.25l-2.51-.3a.55.55,0,0,1-.22-.1.13.13,0,0,1-.06-.16,3.62,3.62,0,0,1,1.69-2.58,6.5,6.5,0,0,1,3.73-1A6.76,6.76,0,0,1,361.05,208.58Zm-1.31,10a2,2,0,0,0,.9-1.7v-1.21c0-.09,0-.13-.13-.13h-2.17a3.91,3.91,0,0,0-2.15.51,1.67,1.67,0,0,0-.79,1.48,1.47,1.47,0,0,0,.61,1.27,2.53,2.53,0,0,0,1.56.45A3.54,3.54,0,0,0,359.74,218.56Zm-2.89-12.1a.27.27,0,0,1,0-.26l1.42-2.65a.4.4,0,0,1,.39-.21h2a.24.24,0,0,1,.24.12.26.26,0,0,1,0,.27l-1.78,2.63a.39.39,0,0,1-.36.21h-1.7C357,206.57,356.88,206.53,356.85,206.46Z"/><path class="cls-3" d="M368.69,220.59a5.27,5.27,0,0,1-2-2.75,11.43,11.43,0,0,1,0-6.14,5,5,0,0,1,2-2.7,6,6,0,0,1,3.44-1,6.16,6.16,0,0,1,3.51,1,4.8,4.8,0,0,1,2,2.52,6.51,6.51,0,0,1,.18.83v0a.3.3,0,0,1-.29.31l-2.32.34h-.05a.31.31,0,0,1-.31-.26.58.58,0,0,0,0-.21c0-.13-.07-.25-.1-.36a2.2,2.2,0,0,0-.93-1.19,2.88,2.88,0,0,0-1.65-.46,2.75,2.75,0,0,0-1.66.5,2.47,2.47,0,0,0-.92,1.38,8.17,8.17,0,0,0-.26,2.3,9.54,9.54,0,0,0,.23,2.3,2.8,2.8,0,0,0,.93,1.43,2.66,2.66,0,0,0,1.68.53,2.82,2.82,0,0,0,1.69-.51,2.26,2.26,0,0,0,.92-1.35.44.44,0,0,0,0-.13.1.1,0,0,0,0-.08c.05-.2.17-.29.36-.25l2.32.36a.36.36,0,0,1,.22.11.26.26,0,0,1,.06.25c-.05.27-.09.47-.12.59a4.63,4.63,0,0,1-2,2.62,6.37,6.37,0,0,1-3.51,1A5.79,5.79,0,0,1,368.69,220.59Z"/><path class="cls-3" d="M387.23,210.55a.31.31,0,0,1-.22.09h-2.63a.12.12,0,0,0-.13.13V217a2,2,0,0,0,.42,1.42,1.85,1.85,0,0,0,1.36.44h.77a.31.31,0,0,1,.31.31v1.93c0,.19-.1.3-.31.34l-1.34,0a5.46,5.46,0,0,1-3-.69,3.08,3.08,0,0,1-1-2.64v-7.35a.12.12,0,0,0-.13-.13h-1.47a.31.31,0,0,1-.22-.09.29.29,0,0,1-.09-.22v-1.8a.29.29,0,0,1,.09-.22.31.31,0,0,1,.22-.09h1.47a.12.12,0,0,0,.13-.13v-3a.29.29,0,0,1,.09-.22.31.31,0,0,1,.22-.09h2.25a.31.31,0,0,1,.22.09.29.29,0,0,1,.09.22v3a.12.12,0,0,0,.13.13H387a.31.31,0,0,1,.22.09.29.29,0,0,1,.09.22v1.8A.29.29,0,0,1,387.23,210.55Z"/><path class="cls-3" d="M390.36,205.89a1.79,1.79,0,0,1-.52-1.31,1.83,1.83,0,0,1,.52-1.32,1.84,1.84,0,0,1,3.15,1.32,1.86,1.86,0,0,1-3.15,1.31Zm-.14,15.42a.29.29,0,0,1-.09-.22V208.5a.31.31,0,0,1,.31-.31h2.37a.31.31,0,0,1,.31.31v12.59a.31.31,0,0,1-.31.31h-2.37A.29.29,0,0,1,390.22,221.31Z"/><path class="cls-3" d="M398.62,220.59a5.29,5.29,0,0,1-2-2.75,11.7,11.7,0,0,1,0-6.14,5.12,5.12,0,0,1,2-2.7,6,6,0,0,1,3.45-1,6.16,6.16,0,0,1,3.51,1,4.78,4.78,0,0,1,2,2.52,4.26,4.26,0,0,1,.18.83v0a.29.29,0,0,1-.28.31l-2.32.34h-.05a.31.31,0,0,1-.31-.26.58.58,0,0,0,0-.21c0-.13-.07-.25-.1-.36a2.29,2.29,0,0,0-.93-1.19,2.9,2.9,0,0,0-1.65-.46,2.78,2.78,0,0,0-1.67.5,2.45,2.45,0,0,0-.91,1.38,8.17,8.17,0,0,0-.26,2.3,9.54,9.54,0,0,0,.23,2.3,2.57,2.57,0,0,0,2.61,2,2.82,2.82,0,0,0,1.69-.51,2.2,2.2,0,0,0,.91-1.35.25.25,0,0,0,0-.13.1.1,0,0,0,0-.08c.05-.2.17-.29.36-.25l2.32.36a.36.36,0,0,1,.22.11.26.26,0,0,1,.06.25,5.23,5.23,0,0,1-.13.59,4.61,4.61,0,0,1-2,2.62,6.37,6.37,0,0,1-3.51,1A5.77,5.77,0,0,1,398.62,220.59Z"/><path class="cls-3" d="M418.15,208.58a4.58,4.58,0,0,1,1.91,1.56,4,4,0,0,1,.67,2.26v8.69a.29.29,0,0,1-.09.22.31.31,0,0,1-.22.09h-2.37a.31.31,0,0,1-.31-.31v-.82q0-.09-.06-.09a.1.1,0,0,0-.1,0,4.68,4.68,0,0,1-3.66,1.4,5,5,0,0,1-3.19-1,3.51,3.51,0,0,1-1.25-2.92,3.76,3.76,0,0,1,1.41-3.13,6.16,6.16,0,0,1,4-1.13h2.76a.12.12,0,0,0,.13-.13v-.61a2,2,0,0,0-.6-1.56,2.52,2.52,0,0,0-1.78-.56,3.16,3.16,0,0,0-1.58.35,1.51,1.51,0,0,0-.77,1c-.05.2-.17.29-.36.25l-2.5-.3a.5.5,0,0,1-.22-.1.13.13,0,0,1-.06-.16,3.59,3.59,0,0,1,1.69-2.58,6.49,6.49,0,0,1,3.72-1A6.81,6.81,0,0,1,418.15,208.58Zm-1.32,10a2,2,0,0,0,.91-1.7v-1.21a.12.12,0,0,0-.13-.13h-2.17a4,4,0,0,0-2.16.51,1.68,1.68,0,0,0-.78,1.48,1.49,1.49,0,0,0,.6,1.27,2.58,2.58,0,0,0,1.57.45A3.49,3.49,0,0,0,416.83,218.56Z"/><path class="cls-3" d="M196.07,111.82l-2.53,7.45H190.3l8.25-23.7h3.79l8.28,23.7h-3.35l-2.59-7.45Zm8-2.39-2.38-6.83c-.54-1.54-.9-2.95-1.26-4.32h-.07c-.36,1.4-.76,2.85-1.23,4.29l-2.38,6.86Z"/><path class="cls-3" d="M214,107.81c0-2.18-.08-3.94-.15-5.56h2.85l.14,2.92h.07a6.92,6.92,0,0,1,6.2-3.31c4.22,0,7.39,3.49,7.39,8.66,0,6.12-3.82,9.14-7.93,9.14a6.17,6.17,0,0,1-5.37-2.67h-.07v9.25H214Zm3.13,4.54a6.21,6.21,0,0,0,.15,1.26,4.86,4.86,0,0,0,4.75,3.63c3.35,0,5.3-2.68,5.3-6.58,0-3.41-1.84-6.33-5.19-6.33a5,5,0,0,0-4.79,3.83,4.83,4.83,0,0,0-.22,1.27Z"/><path class="cls-3" d="M238.3,97.36v4.89h4.54v2.36H238.3v9.18c0,2.11.61,3.3,2.38,3.3a7.06,7.06,0,0,0,1.84-.21l.14,2.32a7.83,7.83,0,0,1-2.81.43,4.41,4.41,0,0,1-3.42-1.31c-.91-.91-1.23-2.42-1.23-4.43v-9.28h-2.7v-2.36h2.7V98.17Z"/><path class="cls-3" d="M261,114.63c0,1.76,0,3.31.15,4.64h-2.82l-.17-2.77h-.08a6.58,6.58,0,0,1-5.76,3.16c-2.74,0-6-1.48-6-7.45v-10h3.17v9.43c0,3.23,1,5.41,3.89,5.41a4.57,4.57,0,0,0,4.18-2.81,4.44,4.44,0,0,0,.29-1.58V102.25H261Z"/><path class="cls-3" d="M265.83,116.11a8.43,8.43,0,0,0,4.18,1.23c2.31,0,3.39-1.13,3.39-2.53s-.9-2.29-3.25-3.13c-3.13-1.09-4.61-2.78-4.61-4.82,0-2.74,2.27-5,6-5a8.92,8.92,0,0,1,4.29,1l-.79,2.25a7,7,0,0,0-3.57-1c-1.88,0-2.92,1-2.92,2.32s1,2,3.31,2.88c3,1.13,4.58,2.6,4.58,5.14,0,3-2.38,5.1-6.52,5.1a10.16,10.16,0,0,1-4.9-1.16Z"/><path class="cls-3" d="M189,127.92a6.64,6.64,0,0,1,1.14-.09,1.91,1.91,0,0,1,1.29.37,1.19,1.19,0,0,1,.41.94,1.31,1.31,0,0,1-.36,1,1.93,1.93,0,0,1-1.41.5,1.7,1.7,0,0,1-.47,0v1.81H189Zm.6,2.16a1.67,1.67,0,0,0,.49,0c.71,0,1.15-.34,1.15-1s-.43-.88-1.08-.88a2.29,2.29,0,0,0-.56.05Z"/><path class="cls-3" d="M196.54,130.06a2.13,2.13,0,0,1-2.14,2.37,2.08,2.08,0,0,1-2.07-2.28,2.15,2.15,0,0,1,2.14-2.36,2.06,2.06,0,0,1,2.07,2.27m-3.57.08c0,1,.53,1.82,1.47,1.82s1.47-.85,1.47-1.87-.48-1.83-1.47-1.83-1.47.89-1.47,1.88"/><polygon class="cls-3" points="198.02 128.36 196.62 128.36 196.62 127.86 200.03 127.86 200.03 128.36 198.62 128.36 198.62 132.36 198.02 132.36 198.02 128.36"/><polygon class="cls-3" points="202.92 130.25 201.13 130.25 201.13 131.87 203.13 131.87 203.13 132.36 200.54 132.36 200.54 127.86 203.03 127.86 203.03 128.35 201.13 128.35 201.13 129.77 202.92 129.77 202.92 130.25"/><path class="cls-3" d="M203.9,132.36v-4.5h.65l1.47,2.28a12.57,12.57,0,0,1,.83,1.46h0c-.05-.6-.07-1.15-.07-1.85v-1.88h.57v4.5h-.61l-1.46-2.28a14.63,14.63,0,0,1-.86-1.5h0c0,.57.05,1.11.05,1.86v1.92Z"/><path class="cls-3" d="M211.61,132.21a2.94,2.94,0,0,1-1.21.21,2.13,2.13,0,0,1-2.28-2.27,2.26,2.26,0,0,1,2.4-2.36,2.55,2.55,0,0,1,1.1.2l-.15.47a2.27,2.27,0,0,0-.92-.18,1.69,1.69,0,0,0-1.8,1.85,1.66,1.66,0,0,0,1.77,1.81,2.5,2.5,0,0,0,1-.19Z"/><rect class="cls-3" x="212.36" y="127.86" width="0.59" height="4.49"/><path class="cls-3" d="M214.73,130.94l-.48,1.42h-.61l1.56-4.5h.72l1.57,4.5h-.63l-.49-1.42Zm1.51-.45-.45-1.29c-.1-.3-.17-.57-.24-.82h0c-.07.26-.14.54-.23.81l-.45,1.3Z"/><path class="cls-3" d="M218.17,127.92a9.19,9.19,0,0,1,1.26-.09,2.68,2.68,0,0,1,1.87.56A2,2,0,0,1,222,130a2.34,2.34,0,0,1-.66,1.75,2.92,2.92,0,0,1-2,.65,8.32,8.32,0,0,1-1.08-.06Zm.59,4a5,5,0,0,0,.61,0,1.75,1.75,0,0,0,2-1.91c0-1.06-.61-1.73-1.87-1.73a3.77,3.77,0,0,0-.7.06Z"/><path class="cls-3" d="M226.65,130.06a2.12,2.12,0,0,1-2.13,2.37,2.08,2.08,0,0,1-2.07-2.28,2.15,2.15,0,0,1,2.13-2.36,2.06,2.06,0,0,1,2.07,2.27m-3.57.08c0,1,.53,1.82,1.47,1.82s1.48-.85,1.48-1.87-.48-1.83-1.47-1.83-1.48.89-1.48,1.88"/><path class="cls-3" d="M227.43,127.92a6.35,6.35,0,0,1,1.14-.09,1.89,1.89,0,0,1,1.33.37,1.1,1.1,0,0,1,.36.85,1.19,1.19,0,0,1-.87,1.15v0a1.12,1.12,0,0,1,.68.9,6.71,6.71,0,0,0,.36,1.24h-.62a6.35,6.35,0,0,1-.31-1.08c-.13-.62-.38-.85-.92-.87H228v2h-.59Zm.59,2h.61c.63,0,1-.34,1-.85s-.43-.84-1.06-.84a2.41,2.41,0,0,0-.59.05Z"/><path class="cls-3" d="M231.88,130.94l-.48,1.42h-.61l1.56-4.5h.72l1.57,4.5H234l-.49-1.42Zm1.51-.45-.45-1.29c-.1-.3-.17-.57-.24-.82h0c-.07.26-.15.54-.24.81l-.45,1.3Z"/><polygon class="cls-3" points="239.15 130.25 237.36 130.25 237.36 131.87 239.35 131.87 239.35 132.36 236.76 132.36 236.76 127.86 239.25 127.86 239.25 128.35 237.36 128.35 237.36 129.77 239.15 129.77 239.15 130.25"/><path class="cls-3" d="M240.13,127.92a9.19,9.19,0,0,1,1.26-.09,2.65,2.65,0,0,1,1.86.56,2,2,0,0,1,.65,1.61,2.34,2.34,0,0,1-.66,1.75,2.87,2.87,0,0,1-2,.65,8.22,8.22,0,0,1-1.08-.06Zm.59,4a5,5,0,0,0,.6,0,1.75,1.75,0,0,0,2-1.91c0-1.06-.61-1.73-1.86-1.73a3.77,3.77,0,0,0-.7.06Z"/><path class="cls-3" d="M245.27,127.86v2.66c0,1,.46,1.44,1.07,1.44s1.12-.44,1.12-1.44v-2.66h.61v2.62c0,1.38-.75,2-1.75,2s-1.65-.53-1.65-1.92v-2.65Z"/><path class="cls-3" d="M252.31,132.21a2.9,2.9,0,0,1-1.21.21,2.13,2.13,0,0,1-2.28-2.27,2.27,2.27,0,0,1,2.41-2.36,2.53,2.53,0,0,1,1.09.2l-.14.47a2.36,2.36,0,0,0-.93-.18,1.69,1.69,0,0,0-1.8,1.85,1.66,1.66,0,0,0,1.77,1.81,2.5,2.5,0,0,0,1-.19Z"/><path class="cls-3" d="M253.83,130.94l-.48,1.42h-.61l1.56-4.5H255l1.57,4.5H256l-.5-1.42Zm1.51-.45-.45-1.29c-.1-.3-.17-.57-.24-.82h0c-.07.26-.15.54-.24.81l-.45,1.3Z"/><path class="cls-3" d="M260.38,132.21a2.94,2.94,0,0,1-1.21.21,2.13,2.13,0,0,1-2.28-2.27,2.27,2.27,0,0,1,2.41-2.36,2.53,2.53,0,0,1,1.09.2l-.14.47a2.36,2.36,0,0,0-.93-.18,1.69,1.69,0,0,0-1.8,1.85,1.66,1.66,0,0,0,1.77,1.81,2.5,2.5,0,0,0,1-.19Z"/><rect class="cls-3" x="261.13" y="127.86" width="0.59" height="4.49"/><path class="cls-3" d="M266.7,130.06a2.13,2.13,0,0,1-2.14,2.37,2.08,2.08,0,0,1-2.07-2.28,2.15,2.15,0,0,1,2.13-2.36,2.07,2.07,0,0,1,2.08,2.27m-3.58.08c0,1,.53,1.82,1.47,1.82s1.48-.85,1.48-1.87-.48-1.83-1.47-1.83-1.48.89-1.48,1.88"/><path class="cls-3" d="M267.47,132.36v-4.5h.65l1.47,2.28a12.57,12.57,0,0,1,.83,1.46h0c-.05-.6-.07-1.15-.07-1.85v-1.88h.56v4.5h-.6l-1.46-2.28a14.63,14.63,0,0,1-.86-1.5h0c0,.57,0,1.11,0,1.86v1.92Z"/><path class="cls-3" d="M272.71,130.94l-.48,1.42h-.62l1.57-4.5h.72l1.57,4.5h-.64l-.49-1.42Zm1.51-.45-.45-1.29c-.11-.3-.17-.57-.24-.82h0c-.07.26-.14.54-.23.81l-.45,1.3Z"/><polygon class="cls-3" points="276.14 127.86 276.74 127.86 276.74 131.87 278.71 131.87 278.71 132.36 276.14 132.36 276.14 127.86"/><rect class="cls-3" x="185.92" y="134.77" width="95.46" height="0.33"/><path class="cls-3" d="M189,141.69a1.52,1.52,0,0,0,.71.19c.41,0,.65-.21.65-.51s-.17-.44-.58-.6-.82-.43-.82-.85.4-.82,1-.82a1.34,1.34,0,0,1,.68.15l-.11.31a1.27,1.27,0,0,0-.58-.14c-.42,0-.58.25-.58.45s.18.42.61.58.79.45.79.89-.36.86-1.08.86a1.59,1.59,0,0,1-.79-.19Z"/><rect class="cls-3" x="191.35" y="139.15" width="0.4" height="3.01"/><path class="cls-3" d="M192.44,139.18a5.2,5.2,0,0,1,.77-.05,1.28,1.28,0,0,1,.86.25.79.79,0,0,1,.27.63.9.9,0,0,1-.23.64,1.32,1.32,0,0,1-1,.33,1.06,1.06,0,0,1-.32,0v1.21h-.4Zm.4,1.46a1.55,1.55,0,0,0,.33,0c.48,0,.77-.23.77-.64s-.28-.59-.72-.59a1.62,1.62,0,0,0-.38,0Z"/><path class="cls-3" d="M195.85,139.19a4.26,4.26,0,0,1,.76-.06,1.31,1.31,0,0,1,.9.24.77.77,0,0,1,.24.57.79.79,0,0,1-.58.77v0a.75.75,0,0,1,.45.6,4.27,4.27,0,0,0,.24.83h-.42a4.37,4.37,0,0,1-.2-.72c-.09-.41-.26-.57-.62-.59h-.37v1.31h-.4Zm.4,1.37h.4c.43,0,.7-.23.7-.57s-.29-.56-.71-.56a1.61,1.61,0,0,0-.39,0Z"/><path class="cls-3" d="M198.54,141.15a.7.7,0,0,0,.76.75,1.51,1.51,0,0,0,.61-.11l.07.28a1.87,1.87,0,0,1-.74.13,1,1,0,0,1-1.09-1.08,1.06,1.06,0,0,1,1-1.17.92.92,0,0,1,.92,1,.74.74,0,0,1,0,.18Zm1.18-.28a.57.57,0,0,0-.56-.64.67.67,0,0,0-.62.64Z"/><path class="cls-3" d="M202.52,139v2.61a4.88,4.88,0,0,0,0,.56h-.36l0-.38h0a.83.83,0,0,1-.76.43,1,1,0,0,1-.94-1.1,1,1,0,0,1,1-1.16.76.76,0,0,1,.67.33h0V139Zm-.4,1.89a1,1,0,0,0,0-.17.59.59,0,0,0-.58-.45c-.42,0-.67.35-.67.83s.22.8.66.8a.6.6,0,0,0,.59-.47.79.79,0,0,0,0-.17Z"/><path class="cls-3" d="M206.07,139v2.61c0,.19,0,.41,0,.56h-.36l0-.38h0a.82.82,0,0,1-.76.43,1,1,0,0,1-.94-1.1,1,1,0,0,1,1-1.16.76.76,0,0,1,.67.33h0V139Zm-.4,1.89a1,1,0,0,0,0-.17.59.59,0,0,0-.58-.45c-.42,0-.67.35-.67.83s.22.8.66.8a.59.59,0,0,0,.59-.47.79.79,0,0,0,0-.17Z"/><path class="cls-3" d="M207,141.15a.7.7,0,0,0,.76.75,1.51,1.51,0,0,0,.61-.11l.07.28a1.86,1.86,0,0,1-.73.13,1,1,0,0,1-1.09-1.08,1.06,1.06,0,0,1,1-1.17.92.92,0,0,1,.91,1c0,.08,0,.14,0,.18Zm1.18-.28a.56.56,0,0,0-.56-.64.66.66,0,0,0-.61.64Z"/><path class="cls-3" d="M212.17,142.06a2.08,2.08,0,0,1-.82.14,1.42,1.42,0,0,1-1.52-1.52,1.51,1.51,0,0,1,1.61-1.58,1.71,1.71,0,0,1,.73.13l-.09.32a1.53,1.53,0,0,0-.63-.12,1.13,1.13,0,0,0-1.2,1.24,1.11,1.11,0,0,0,1.19,1.21,1.57,1.57,0,0,0,.65-.13Z"/><path class="cls-3" d="M214.61,141.06a1.07,1.07,0,0,1-1.11,1.15,1,1,0,0,1-1.06-1.11,1.07,1.07,0,0,1,1.1-1.15,1,1,0,0,1,1.07,1.11m-1.76,0c0,.48.28.83.67.83a.75.75,0,0,0,.68-.84c0-.36-.19-.83-.67-.83s-.68.43-.68.84"/><rect class="cls-3" x="215.12" y="138.99" width="0.4" height="3.17"/><path class="cls-3" d="M216.42,141.15a.7.7,0,0,0,.76.75,1.51,1.51,0,0,0,.61-.11l.07.28a1.87,1.87,0,0,1-.74.13,1,1,0,0,1-1.08-1.08,1.05,1.05,0,0,1,1-1.17.92.92,0,0,1,.92,1c0,.08,0,.14,0,.18Zm1.18-.28a.57.57,0,0,0-.56-.64.68.68,0,0,0-.62.64Z"/><path class="cls-3" d="M220.4,140c0,.15,0,.33,0,.59v1.26a1.19,1.19,0,0,1-.32,1,1.15,1.15,0,0,1-.8.26,1.42,1.42,0,0,1-.74-.18l.1-.29a1.4,1.4,0,0,0,.65.17c.41,0,.71-.21.71-.76v-.24h0a.82.82,0,0,1-.71.36,1,1,0,0,1-.94-1.05,1,1,0,0,1,1-1.15.77.77,0,0,1,.7.37h0l0-.32Zm-.42.85a.52.52,0,0,0,0-.18.58.58,0,0,0-.57-.41c-.38,0-.66.31-.66.81s.22.78.66.78a.59.59,0,0,0,.56-.4.76.76,0,0,0,0-.21Z"/><path class="cls-3" d="M221.47,139.39a.24.24,0,0,1-.26.24.24.24,0,0,1-.24-.24.25.25,0,0,1,.5,0M221,140h.4v2.16H221Z"/><path class="cls-3" d="M224.09,141.06a1.07,1.07,0,0,1-1.1,1.15,1,1,0,0,1-1.06-1.11A1.06,1.06,0,0,1,223,140a1,1,0,0,1,1.06,1.11m-1.75,0c0,.48.27.83.67.83s.67-.35.67-.84-.19-.83-.66-.83-.68.43-.68.84"/><path class="cls-3" d="M224.55,141.76a1.11,1.11,0,0,0,.53.15c.29,0,.43-.14.43-.32s-.12-.29-.42-.39-.58-.36-.58-.62a.68.68,0,0,1,.76-.63,1.17,1.17,0,0,1,.55.13l-.1.29a.84.84,0,0,0-.46-.13.33.33,0,0,0-.37.3c0,.18.14.26.42.36s.59.33.59.66-.31.64-.83.64a1.31,1.31,0,0,1-.63-.14Z"/><rect class="cls-3" x="227.44" y="138.81" width="0.31" height="4.47"/><polygon class="cls-3" points="229.46 139.15 231.12 139.15 231.12 139.48 229.86 139.48 229.86 140.48 231.03 140.48 231.03 140.8 229.86 140.8 229.86 142.16 229.46 142.16 229.46 139.15"/><path class="cls-3" d="M233.37,141.57a5.34,5.34,0,0,0,0,.59H233l0-.35h0a.85.85,0,0,1-.73.4c-.35,0-.77-.19-.77-1V140h.4v1.19c0,.42.13.69.5.69a.59.59,0,0,0,.53-.35.66.66,0,0,0,0-.21V140h.41Z"/><path class="cls-3" d="M234,140.58c0-.22,0-.4,0-.58h.35l0,.36h0a.8.8,0,0,1,.73-.41c.31,0,.78.18.78.92v1.29h-.4v-1.25c0-.34-.14-.63-.52-.63a.57.57,0,0,0-.54.4.9.9,0,0,0,0,.18v1.3H234Z"/><path class="cls-3" d="M238.49,139v2.61a4.88,4.88,0,0,0,0,.56h-.37v-.38h0a.85.85,0,0,1-.76.43,1,1,0,0,1-1-1.1,1,1,0,0,1,1-1.16.77.77,0,0,1,.67.33h0V139Zm-.41,1.89a1,1,0,0,0,0-.17.59.59,0,0,0-.59-.45c-.41,0-.66.35-.66.83s.22.8.66.8a.6.6,0,0,0,.59-.47.86.86,0,0,0,0-.17Z"/><path class="cls-3" d="M240.38,142.16l0-.27h0a.85.85,0,0,1-.68.32.63.63,0,0,1-.68-.62c0-.52.48-.81,1.33-.81v0a.45.45,0,0,0-.5-.5,1.12,1.12,0,0,0-.58.16l-.09-.26a1.46,1.46,0,0,1,.73-.19.77.77,0,0,1,.84.88v.81a2.75,2.75,0,0,0,0,.52Zm-.06-1.1c-.44,0-.94.06-.94.48a.36.36,0,0,0,.38.38.55.55,0,0,0,.54-.36.59.59,0,0,0,0-.13Z"/><path class="cls-3" d="M242.94,142.08a1.63,1.63,0,0,1-.64.12,1,1,0,0,1-1.1-1.1,1.12,1.12,0,0,1,1.19-1.15,1.44,1.44,0,0,1,.56.11l-.09.31a.91.91,0,0,0-.47-.1.81.81,0,0,0,0,1.62,1.34,1.34,0,0,0,.49-.1Z"/><path class="cls-3" d="M243.86,139.39a.24.24,0,0,1-.26.24.24.24,0,0,1-.24-.24.25.25,0,0,1,.25-.25.24.24,0,0,1,.25.25m-.45.61h.4v2.16h-.4Z"/><path class="cls-3" d="M246.48,141.06a1.07,1.07,0,0,1-1.1,1.15,1,1,0,0,1-1.06-1.11,1.07,1.07,0,0,1,1.1-1.15,1,1,0,0,1,1.06,1.11m-1.75,0c0,.48.28.83.67.83s.67-.35.67-.84-.18-.83-.66-.83-.68.43-.68.84m1.28-2-.56.64h-.29l.4-.64Z"/><path class="cls-3" d="M247,140.58a5.24,5.24,0,0,0,0-.58h.36l0,.36h0a.82.82,0,0,1,.73-.41c.31,0,.79.18.79.92v1.29h-.4v-1.25c0-.34-.14-.63-.52-.63a.57.57,0,0,0-.54.4.48.48,0,0,0,0,.18v1.3H247Z"/><path class="cls-3" d="M250.52,139.19a4.26,4.26,0,0,1,.76-.06,1.27,1.27,0,0,1,.89.24.73.73,0,0,1,.24.57.78.78,0,0,1-.58.77v0a.76.76,0,0,1,.46.6,5.55,5.55,0,0,0,.23.83h-.41a3.51,3.51,0,0,1-.2-.72c-.1-.41-.26-.57-.62-.59h-.38v1.31h-.39Zm.39,1.37h.41c.43,0,.7-.23.7-.57s-.29-.56-.71-.56a1.77,1.77,0,0,0-.4,0Z"/><path class="cls-3" d="M253.21,141.15a.7.7,0,0,0,.76.75,1.54,1.54,0,0,0,.61-.11l.07.28a1.92,1.92,0,0,1-.74.13,1,1,0,0,1-1.09-1.08,1.06,1.06,0,0,1,1-1.17.93.93,0,0,1,.92,1,.74.74,0,0,1,0,.18Zm1.18-.28a.57.57,0,0,0-.56-.64.66.66,0,0,0-.62.64Z"/><path class="cls-3" d="M255.72,139.39a.23.23,0,0,1-.25.24.24.24,0,0,1-.25-.24.25.25,0,0,1,.26-.25.23.23,0,0,1,.24.25m-.45.61h.41v2.16h-.41Z"/><path class="cls-3" d="M256.34,140.58c0-.22,0-.4,0-.58h.35l0,.36h0a.79.79,0,0,1,.73-.41c.3,0,.78.18.78.92v1.29h-.4v-1.25c0-.34-.13-.63-.52-.63a.57.57,0,0,0-.54.4.9.9,0,0,0,0,.18v1.3h-.41Z"/><path class="cls-3" d="M260.11,142.16l0-.27h0a.82.82,0,0,1-.67.32.63.63,0,0,1-.68-.62c0-.52.48-.81,1.33-.81v0a.45.45,0,0,0-.5-.5,1.12,1.12,0,0,0-.58.16l-.09-.26a1.46,1.46,0,0,1,.73-.19.77.77,0,0,1,.84.88v.81a2.75,2.75,0,0,0,0,.52Zm-.06-1.1c-.44,0-.94.06-.94.48a.36.36,0,0,0,.38.38.56.56,0,0,0,.54-.36.59.59,0,0,0,0-.13Z"/><rect class="cls-3" x="261.09" y="138.99" width="0.4" height="3.17"/><path class="cls-3" d="M264.08,139v2.61c0,.19,0,.41,0,.56h-.36l0-.38h0a.8.8,0,0,1-.75.43,1,1,0,0,1-.95-1.1,1,1,0,0,1,1-1.16.76.76,0,0,1,.67.33h0V139Zm-.4,1.89a1,1,0,0,0,0-.17.59.59,0,0,0-.58-.45c-.42,0-.66.35-.66.83s.22.8.65.8a.59.59,0,0,0,.59-.47.79.79,0,0,0,0-.17Z"/><path class="cls-3" d="M266.75,141.06a1.07,1.07,0,0,1-1.1,1.15,1,1,0,0,1-1.06-1.11,1.06,1.06,0,0,1,1.1-1.15,1,1,0,0,1,1.06,1.11m-1.75,0c0,.48.28.83.67.83s.67-.35.67-.84-.19-.83-.66-.83-.68.43-.68.84"/><path class="cls-3" d="M268.19,141.69a1.52,1.52,0,0,0,.71.19c.41,0,.65-.21.65-.51s-.17-.44-.58-.6-.82-.43-.82-.85.4-.82,1-.82a1.34,1.34,0,0,1,.68.15l-.11.31a1.27,1.27,0,0,0-.58-.14c-.42,0-.58.25-.58.45s.19.42.61.58.79.45.79.89-.36.86-1.08.86a1.59,1.59,0,0,1-.79-.19Z"/><path class="cls-3" d="M272.52,141.06a1.07,1.07,0,0,1-1.1,1.15,1,1,0,0,1-1.07-1.11,1.07,1.07,0,0,1,1.1-1.15,1,1,0,0,1,1.07,1.11m-1.76,0c0,.48.28.83.67.83a.75.75,0,0,0,.68-.84c0-.36-.19-.83-.67-.83s-.68.43-.68.84"/><rect class="cls-3" x="273.03" y="138.99" width="0.4" height="3.17"/><path class="cls-3" d="M275.33,142.16l0-.27h0a.84.84,0,0,1-.68.32.63.63,0,0,1-.68-.62c0-.52.48-.81,1.33-.81v0a.45.45,0,0,0-.5-.5,1.15,1.15,0,0,0-.58.16l-.09-.26a1.49,1.49,0,0,1,.73-.19.77.77,0,0,1,.84.88v.81a2.75,2.75,0,0,0,0,.52Zm-.06-1.1c-.44,0-.93.06-.93.48a.35.35,0,0,0,.37.38.55.55,0,0,0,.54-.36.59.59,0,0,0,0-.13Z"/><path class="cls-3" d="M276.31,140.67c0-.25,0-.47,0-.67h.36v.42h0a.65.65,0,0,1,.61-.47h.12v.37h-.14a.55.55,0,0,0-.54.5,1.11,1.11,0,0,0,0,.19v1.15h-.4Z"/><path class="cls-3" d="M278.28,139.39a.24.24,0,0,1-.26.24.24.24,0,0,1-.24-.24.25.25,0,0,1,.5,0m-.45.61h.4v2.16h-.4Z"/><path class="cls-4" d="M145.65,148.83,178.4,124c-7.34-9-19.42-14.81-33.08-14.81-13.44,0-25.34,5.66-32.72,14.38Z"/><g class="cls-5"><polygon class="cls-6" points="113.91 108.73 112.86 148.57 177.35 150.19 178.4 110.36 113.91 108.73"/></g><g class="cls-7"><rect class="cls-8" x="119.81" y="78.25" width="50.71" height="55.7" transform="translate(38.15 250.57) rotate(-89.64)"/></g><polygon class="cls-9" points="148.06 150.46 146.76 149.58 176.1 126.78 149.46 150.46 148.06 150.46"/><polygon class="cls-10" points="110.09 127.82 112.05 124.48 141.7 146.89 110.09 127.82"/><path class="cls-11" d="M158.12,110.32S170.76,113.84,179,123l2.44-1.59s-7.28-7.85-21.67-12.15Z"/><path class="cls-12" d="M130.48,109.36s-16.29,4.78-22.71,16.8l1.51,1s6.4-12.29,22.68-16.77Z"/><path class="cls-3" d="M196.07,111.82l-2.53,7.45H190.3l8.25-23.7h3.79l8.28,23.7h-3.35l-2.59-7.45Zm8-2.39-2.38-6.83c-.54-1.54-.9-2.95-1.26-4.32h-.07c-.36,1.4-.76,2.85-1.23,4.29l-2.38,6.86Z"/><path class="cls-3" d="M214,107.81c0-2.18-.08-3.94-.15-5.56h2.85l.14,2.92h.07a6.92,6.92,0,0,1,6.2-3.31c4.22,0,7.39,3.49,7.39,8.66,0,6.12-3.82,9.14-7.93,9.14a6.17,6.17,0,0,1-5.37-2.67h-.07v9.25H214Zm3.13,4.54a6.21,6.21,0,0,0,.15,1.26,4.86,4.86,0,0,0,4.75,3.63c3.35,0,5.3-2.68,5.3-6.58,0-3.41-1.84-6.33-5.19-6.33a5,5,0,0,0-4.79,3.83,4.83,4.83,0,0,0-.22,1.27Z"/><path class="cls-3" d="M238.3,97.36v4.89h4.54v2.36H238.3v9.18c0,2.11.61,3.3,2.38,3.3a7.06,7.06,0,0,0,1.84-.21l.14,2.32a7.83,7.83,0,0,1-2.81.43,4.41,4.41,0,0,1-3.42-1.31c-.91-.91-1.23-2.42-1.23-4.43v-9.28h-2.7v-2.36h2.7V98.17Z"/><path class="cls-3" d="M261,114.63c0,1.76,0,3.31.15,4.64h-2.82l-.17-2.77h-.08a6.58,6.58,0,0,1-5.76,3.16c-2.74,0-6-1.48-6-7.45v-10h3.17v9.43c0,3.23,1,5.41,3.89,5.41a4.57,4.57,0,0,0,4.18-2.81,4.44,4.44,0,0,0,.29-1.58V102.25H261Z"/><path class="cls-3" d="M265.83,116.11a8.43,8.43,0,0,0,4.18,1.23c2.31,0,3.39-1.13,3.39-2.53s-.9-2.29-3.25-3.13c-3.13-1.09-4.61-2.78-4.61-4.82,0-2.74,2.27-5,6-5a8.92,8.92,0,0,1,4.29,1l-.79,2.25a7,7,0,0,0-3.57-1c-1.88,0-2.92,1-2.92,2.32s1,2,3.31,2.88c3,1.13,4.58,2.6,4.58,5.14,0,3-2.38,5.1-6.52,5.1a10.16,10.16,0,0,1-4.9-1.16Z"/><path class="cls-3" d="M189,127.92a6.64,6.64,0,0,1,1.14-.09,1.91,1.91,0,0,1,1.29.37,1.19,1.19,0,0,1,.41.94,1.31,1.31,0,0,1-.36,1,1.93,1.93,0,0,1-1.41.5,1.7,1.7,0,0,1-.47,0v1.81H189Zm.6,2.16a1.67,1.67,0,0,0,.49,0c.71,0,1.15-.34,1.15-1s-.43-.88-1.08-.88a2.29,2.29,0,0,0-.56.05Z"/><path class="cls-3" d="M196.54,130.06a2.13,2.13,0,0,1-2.14,2.37,2.08,2.08,0,0,1-2.07-2.28,2.15,2.15,0,0,1,2.14-2.36,2.06,2.06,0,0,1,2.07,2.27m-3.57.08c0,1,.53,1.82,1.47,1.82s1.47-.85,1.47-1.87-.48-1.83-1.47-1.83-1.47.89-1.47,1.88"/><polygon class="cls-3" points="198.02 128.36 196.62 128.36 196.62 127.86 200.03 127.86 200.03 128.36 198.62 128.36 198.62 132.36 198.02 132.36 198.02 128.36"/><polygon class="cls-3" points="202.92 130.25 201.13 130.25 201.13 131.87 203.13 131.87 203.13 132.36 200.54 132.36 200.54 127.86 203.03 127.86 203.03 128.35 201.13 128.35 201.13 129.77 202.92 129.77 202.92 130.25"/><path class="cls-3" d="M203.9,132.36v-4.5h.65l1.47,2.28a12.57,12.57,0,0,1,.83,1.46h0c-.05-.6-.07-1.15-.07-1.85v-1.88h.57v4.5h-.61l-1.46-2.28a14.63,14.63,0,0,1-.86-1.5h0c0,.57.05,1.11.05,1.86v1.92Z"/><path class="cls-3" d="M211.61,132.21a2.94,2.94,0,0,1-1.21.21,2.13,2.13,0,0,1-2.28-2.27,2.26,2.26,0,0,1,2.4-2.36,2.55,2.55,0,0,1,1.1.2l-.15.47a2.27,2.27,0,0,0-.92-.18,1.69,1.69,0,0,0-1.8,1.85,1.66,1.66,0,0,0,1.77,1.81,2.5,2.5,0,0,0,1-.19Z"/><rect class="cls-3" x="212.36" y="127.86" width="0.59" height="4.49"/><path class="cls-3" d="M214.73,130.94l-.48,1.42h-.61l1.56-4.5h.72l1.57,4.5h-.63l-.49-1.42Zm1.51-.45-.45-1.29c-.1-.3-.17-.57-.24-.82h0c-.07.26-.14.54-.23.81l-.45,1.3Z"/><path class="cls-3" d="M218.17,127.92a9.19,9.19,0,0,1,1.26-.09,2.68,2.68,0,0,1,1.87.56A2,2,0,0,1,222,130a2.38,2.38,0,0,1-.66,1.75,2.92,2.92,0,0,1-2,.65,8.32,8.32,0,0,1-1.08-.06Zm.59,4a5,5,0,0,0,.61,0,1.75,1.75,0,0,0,2-1.91c0-1.06-.61-1.73-1.87-1.73a3.77,3.77,0,0,0-.7.06Z"/><path class="cls-3" d="M226.65,130.06a2.12,2.12,0,0,1-2.13,2.37,2.08,2.08,0,0,1-2.07-2.28,2.15,2.15,0,0,1,2.13-2.36,2.06,2.06,0,0,1,2.07,2.27m-3.57.08c0,1,.53,1.82,1.47,1.82s1.48-.85,1.48-1.87-.48-1.83-1.47-1.83-1.48.89-1.48,1.88"/><path class="cls-3" d="M227.43,127.92a6.35,6.35,0,0,1,1.14-.09,1.89,1.89,0,0,1,1.33.37,1.1,1.1,0,0,1,.36.85,1.19,1.19,0,0,1-.87,1.15v0a1.12,1.12,0,0,1,.68.9,6.71,6.71,0,0,0,.36,1.24h-.62a6.35,6.35,0,0,1-.31-1.08c-.13-.62-.38-.85-.92-.87H228v2h-.59Zm.59,2h.61c.63,0,1-.34,1-.85s-.43-.84-1.06-.84a2.41,2.41,0,0,0-.59.05Z"/><path class="cls-3" d="M231.88,130.94l-.48,1.42h-.61l1.56-4.5h.72l1.57,4.5H234l-.49-1.42Zm1.51-.45-.45-1.29c-.1-.3-.17-.57-.24-.82h0c-.07.26-.15.54-.24.81l-.45,1.3Z"/><polygon class="cls-3" points="239.15 130.25 237.36 130.25 237.36 131.87 239.35 131.87 239.35 132.36 236.76 132.36 236.76 127.86 239.25 127.86 239.25 128.35 237.36 128.35 237.36 129.77 239.15 129.77 239.15 130.25"/><path class="cls-3" d="M240.13,127.92a9.19,9.19,0,0,1,1.26-.09,2.65,2.65,0,0,1,1.86.56,2,2,0,0,1,.65,1.61,2.34,2.34,0,0,1-.66,1.75,2.87,2.87,0,0,1-2,.65,8.22,8.22,0,0,1-1.08-.06Zm.59,4a5,5,0,0,0,.6,0,1.75,1.75,0,0,0,2-1.91c0-1.06-.61-1.73-1.86-1.73a3.77,3.77,0,0,0-.7.06Z"/><path class="cls-3" d="M245.27,127.86v2.66c0,1,.46,1.44,1.07,1.44s1.12-.44,1.12-1.44v-2.66h.61v2.62c0,1.38-.75,2-1.75,2s-1.65-.53-1.65-1.92v-2.65Z"/><path class="cls-3" d="M252.31,132.21a2.9,2.9,0,0,1-1.21.21,2.13,2.13,0,0,1-2.28-2.27,2.27,2.27,0,0,1,2.41-2.36,2.53,2.53,0,0,1,1.09.2l-.14.47a2.36,2.36,0,0,0-.93-.18,1.69,1.69,0,0,0-1.8,1.85,1.66,1.66,0,0,0,1.77,1.81,2.5,2.5,0,0,0,1-.19Z"/><path class="cls-3" d="M253.83,130.94l-.48,1.42h-.61l1.56-4.5H255l1.57,4.5H256l-.5-1.42Zm1.51-.45-.45-1.29c-.1-.3-.17-.57-.24-.82h0c-.07.26-.15.54-.24.81l-.45,1.3Z"/><path class="cls-3" d="M260.38,132.21a2.94,2.94,0,0,1-1.21.21,2.13,2.13,0,0,1-2.28-2.27,2.27,2.27,0,0,1,2.41-2.36,2.53,2.53,0,0,1,1.09.2l-.14.47a2.36,2.36,0,0,0-.93-.18,1.69,1.69,0,0,0-1.8,1.85,1.66,1.66,0,0,0,1.77,1.81,2.5,2.5,0,0,0,1-.19Z"/><rect class="cls-3" x="261.13" y="127.86" width="0.59" height="4.49"/><path class="cls-3" d="M266.7,130.06a2.13,2.13,0,0,1-2.14,2.37,2.08,2.08,0,0,1-2.07-2.28,2.15,2.15,0,0,1,2.13-2.36,2.07,2.07,0,0,1,2.08,2.27m-3.58.08c0,1,.53,1.82,1.47,1.82s1.48-.85,1.48-1.87-.48-1.83-1.47-1.83-1.48.89-1.48,1.88"/><path class="cls-3" d="M267.47,132.36v-4.5h.65l1.47,2.28a12.57,12.57,0,0,1,.83,1.46h0c-.05-.6-.07-1.15-.07-1.85v-1.88h.56v4.5h-.6l-1.46-2.28a14.63,14.63,0,0,1-.86-1.5h0c0,.57,0,1.11,0,1.86v1.92Z"/><path class="cls-3" d="M272.71,130.94l-.48,1.42h-.62l1.57-4.5h.72l1.57,4.5h-.64l-.49-1.42Zm1.51-.45-.45-1.29c-.11-.3-.17-.57-.24-.82h0c-.07.26-.14.54-.23.81l-.45,1.3Z"/><polygon class="cls-3" points="276.14 127.86 276.74 127.86 276.74 131.87 278.71 131.87 278.71 132.36 276.14 132.36 276.14 127.86"/><rect class="cls-3" x="185.92" y="134.77" width="95.46" height="0.33"/><path class="cls-3" d="M189,141.69a1.52,1.52,0,0,0,.71.19c.41,0,.65-.21.65-.51s-.17-.44-.58-.6-.82-.43-.82-.85.4-.82,1-.82a1.34,1.34,0,0,1,.68.15l-.11.31a1.27,1.27,0,0,0-.58-.14c-.42,0-.58.25-.58.45s.18.42.61.58.79.45.79.89-.36.86-1.08.86a1.59,1.59,0,0,1-.79-.19Z"/><rect class="cls-3" x="191.35" y="139.15" width="0.4" height="3.01"/><path class="cls-3" d="M192.44,139.18a5.2,5.2,0,0,1,.77-.05,1.28,1.28,0,0,1,.86.25.79.79,0,0,1,.27.63.9.9,0,0,1-.23.64,1.32,1.32,0,0,1-1,.33,1.06,1.06,0,0,1-.32,0v1.21h-.4Zm.4,1.46a1.55,1.55,0,0,0,.33,0c.48,0,.77-.23.77-.64s-.28-.59-.72-.59a1.62,1.62,0,0,0-.38,0Z"/><path class="cls-3" d="M195.85,139.19a4.26,4.26,0,0,1,.76-.06,1.31,1.31,0,0,1,.9.24.77.77,0,0,1,.24.57.79.79,0,0,1-.58.77v0a.75.75,0,0,1,.45.6,4.27,4.27,0,0,0,.24.83h-.42a4.37,4.37,0,0,1-.2-.72c-.09-.41-.26-.57-.62-.59h-.37v1.31h-.4Zm.4,1.37h.4c.43,0,.7-.23.7-.57s-.29-.56-.71-.56a1.61,1.61,0,0,0-.39,0Z"/><path class="cls-3" d="M198.54,141.15a.7.7,0,0,0,.76.75,1.51,1.51,0,0,0,.61-.11l.07.28a1.87,1.87,0,0,1-.74.13,1,1,0,0,1-1.09-1.08,1.06,1.06,0,0,1,1-1.17.92.92,0,0,1,.92,1,.74.74,0,0,1,0,.18Zm1.18-.28a.57.57,0,0,0-.56-.64.66.66,0,0,0-.62.64Z"/><path class="cls-3" d="M202.52,139v2.61a4.88,4.88,0,0,0,0,.56h-.36l0-.38h0a.83.83,0,0,1-.76.43,1,1,0,0,1-.94-1.1,1,1,0,0,1,1-1.16.76.76,0,0,1,.67.33h0V139Zm-.4,1.89a1,1,0,0,0,0-.17.59.59,0,0,0-.58-.45c-.42,0-.67.35-.67.83s.22.8.66.8a.6.6,0,0,0,.59-.47.79.79,0,0,0,0-.17Z"/><path class="cls-3" d="M206.07,139v2.61c0,.19,0,.41,0,.56h-.36l0-.38h0a.82.82,0,0,1-.76.43,1,1,0,0,1-.94-1.1,1,1,0,0,1,1-1.16.76.76,0,0,1,.67.33h0V139Zm-.4,1.89a1,1,0,0,0,0-.17.59.59,0,0,0-.58-.45c-.42,0-.67.35-.67.83s.22.8.66.8a.59.59,0,0,0,.59-.47.79.79,0,0,0,0-.17Z"/><path class="cls-3" d="M207,141.15a.7.7,0,0,0,.76.75,1.51,1.51,0,0,0,.61-.11l.07.28a1.86,1.86,0,0,1-.73.13,1,1,0,0,1-1.09-1.08,1.06,1.06,0,0,1,1-1.17.92.92,0,0,1,.91,1c0,.08,0,.14,0,.18Zm1.18-.28a.56.56,0,0,0-.56-.64.66.66,0,0,0-.61.64Z"/><path class="cls-3" d="M212.17,142.06a2.08,2.08,0,0,1-.82.14,1.42,1.42,0,0,1-1.52-1.52,1.51,1.51,0,0,1,1.61-1.58,1.71,1.71,0,0,1,.73.13l-.09.32a1.53,1.53,0,0,0-.63-.12,1.13,1.13,0,0,0-1.2,1.24,1.11,1.11,0,0,0,1.19,1.21,1.57,1.57,0,0,0,.65-.13Z"/><path class="cls-3" d="M214.61,141.06a1.07,1.07,0,0,1-1.11,1.15,1,1,0,0,1-1.06-1.11,1.07,1.07,0,0,1,1.1-1.15,1,1,0,0,1,1.07,1.11m-1.76,0c0,.48.28.83.67.83a.75.75,0,0,0,.68-.84c0-.36-.19-.83-.67-.83s-.68.43-.68.84"/><rect class="cls-3" x="215.12" y="138.99" width="0.4" height="3.17"/><path class="cls-3" d="M216.42,141.15a.7.7,0,0,0,.76.75,1.51,1.51,0,0,0,.61-.11l.07.28a1.87,1.87,0,0,1-.74.13,1,1,0,0,1-1.09-1.08,1.06,1.06,0,0,1,1-1.17.92.92,0,0,1,.92,1c0,.08,0,.14,0,.18Zm1.18-.28a.57.57,0,0,0-.56-.64.68.68,0,0,0-.62.64Z"/><path class="cls-3" d="M220.4,140c0,.15,0,.33,0,.59v1.26a1.19,1.19,0,0,1-.32,1,1.15,1.15,0,0,1-.8.26,1.42,1.42,0,0,1-.74-.18l.1-.29a1.4,1.4,0,0,0,.65.17c.41,0,.71-.21.71-.76v-.24h0a.82.82,0,0,1-.71.36,1,1,0,0,1-.94-1.05,1,1,0,0,1,1-1.15.77.77,0,0,1,.7.37h0l0-.32Zm-.42.85a.52.52,0,0,0,0-.18.58.58,0,0,0-.57-.41c-.38,0-.66.31-.66.81s.22.78.66.78a.59.59,0,0,0,.56-.4.76.76,0,0,0,0-.21Z"/><path class="cls-3" d="M221.47,139.39a.24.24,0,0,1-.26.24.24.24,0,0,1-.24-.24.25.25,0,0,1,.5,0M221,140h.4v2.16H221Z"/><path class="cls-3" d="M224.09,141.06a1.07,1.07,0,0,1-1.1,1.15,1,1,0,0,1-1.06-1.11A1.06,1.06,0,0,1,223,140a1,1,0,0,1,1.06,1.11m-1.75,0c0,.48.27.83.67.83s.67-.35.67-.84-.19-.83-.66-.83-.68.43-.68.84"/><path class="cls-3" d="M224.55,141.76a1.11,1.11,0,0,0,.53.15c.29,0,.43-.14.43-.32s-.12-.29-.42-.39-.58-.36-.58-.62a.68.68,0,0,1,.76-.63,1.17,1.17,0,0,1,.55.13l-.1.29a.84.84,0,0,0-.46-.13.33.33,0,0,0-.37.3c0,.18.14.26.42.36s.59.33.59.66-.31.64-.83.64a1.31,1.31,0,0,1-.63-.14Z"/><rect class="cls-3" x="227.44" y="138.81" width="0.31" height="4.47"/><polygon class="cls-3" points="229.46 139.15 231.12 139.15 231.12 139.48 229.86 139.48 229.86 140.48 231.03 140.48 231.03 140.8 229.86 140.8 229.86 142.16 229.46 142.16 229.46 139.15"/><path class="cls-3" d="M233.37,141.57a5.34,5.34,0,0,0,0,.59H233l0-.35h0a.86.86,0,0,1-.74.4c-.34,0-.76-.19-.76-1V140h.4v1.19c0,.42.13.69.5.69a.59.59,0,0,0,.53-.35.66.66,0,0,0,0-.21V140h.41Z"/><path class="cls-3" d="M234,140.58c0-.22,0-.4,0-.58h.35l0,.36h0a.8.8,0,0,1,.73-.41c.31,0,.78.18.78.92v1.29h-.4v-1.25c0-.34-.14-.63-.52-.63a.57.57,0,0,0-.54.4.9.9,0,0,0,0,.18v1.3H234Z"/><path class="cls-3" d="M238.49,139v2.61a4.88,4.88,0,0,0,0,.56h-.37v-.38h0a.85.85,0,0,1-.76.43,1,1,0,0,1-1-1.1,1,1,0,0,1,1-1.16.77.77,0,0,1,.67.33h0V139Zm-.41,1.89a1,1,0,0,0,0-.17.59.59,0,0,0-.59-.45c-.41,0-.66.35-.66.83s.22.8.66.8a.6.6,0,0,0,.59-.47.86.86,0,0,0,0-.17Z"/><path class="cls-3" d="M240.38,142.16l0-.27h0a.85.85,0,0,1-.68.32.63.63,0,0,1-.68-.62c0-.52.48-.81,1.33-.81v0a.45.45,0,0,0-.5-.5,1.12,1.12,0,0,0-.58.16l-.09-.26a1.46,1.46,0,0,1,.73-.19.77.77,0,0,1,.84.88v.81a2.75,2.75,0,0,0,0,.52Zm-.06-1.1c-.44,0-.94.06-.94.48a.36.36,0,0,0,.38.38.55.55,0,0,0,.54-.36.59.59,0,0,0,0-.13Z"/><path class="cls-3" d="M242.94,142.08a1.63,1.63,0,0,1-.64.12,1,1,0,0,1-1.1-1.1,1.12,1.12,0,0,1,1.19-1.15,1.44,1.44,0,0,1,.56.11l-.09.31a.91.91,0,0,0-.47-.1.81.81,0,0,0,0,1.62,1.34,1.34,0,0,0,.49-.1Z"/><path class="cls-3" d="M243.86,139.39a.24.24,0,0,1-.26.24.24.24,0,0,1-.24-.24.25.25,0,0,1,.25-.25.24.24,0,0,1,.25.25m-.45.61h.4v2.16h-.4Z"/><path class="cls-3" d="M246.48,141.06a1.07,1.07,0,0,1-1.1,1.15,1,1,0,0,1-1.06-1.11,1.07,1.07,0,0,1,1.1-1.15,1,1,0,0,1,1.06,1.11m-1.75,0c0,.48.28.83.67.83s.67-.35.67-.84-.18-.83-.66-.83-.68.43-.68.84m1.27-2-.55.64h-.29l.4-.64Z"/><path class="cls-3" d="M247,140.58a5.24,5.24,0,0,0,0-.58h.36l0,.36h0a.82.82,0,0,1,.73-.41c.31,0,.79.18.79.92v1.29h-.4v-1.25c0-.34-.14-.63-.52-.63a.57.57,0,0,0-.54.4.48.48,0,0,0,0,.18v1.3H247Z"/><path class="cls-3" d="M250.52,139.19a4.26,4.26,0,0,1,.76-.06,1.27,1.27,0,0,1,.89.24.73.73,0,0,1,.24.57.78.78,0,0,1-.58.77v0a.76.76,0,0,1,.46.6,5.55,5.55,0,0,0,.23.83h-.41a3.51,3.51,0,0,1-.2-.72c-.1-.41-.26-.57-.62-.59h-.38v1.31h-.39Zm.39,1.37h.41c.43,0,.7-.23.7-.57s-.29-.56-.71-.56a1.77,1.77,0,0,0-.4,0Z"/><path class="cls-3" d="M253.21,141.15a.7.7,0,0,0,.76.75,1.54,1.54,0,0,0,.61-.11l.07.28a1.92,1.92,0,0,1-.74.13,1,1,0,0,1-1.09-1.08,1.06,1.06,0,0,1,1-1.17.93.93,0,0,1,.92,1,.74.74,0,0,1,0,.18Zm1.18-.28a.57.57,0,0,0-.56-.64.66.66,0,0,0-.62.64Z"/><path class="cls-3" d="M255.72,139.39a.23.23,0,0,1-.25.24.24.24,0,0,1-.25-.24.25.25,0,0,1,.26-.25.23.23,0,0,1,.24.25m-.45.61h.41v2.16h-.41Z"/><path class="cls-3" d="M256.34,140.58c0-.22,0-.4,0-.58h.35l0,.36h0a.79.79,0,0,1,.73-.41c.3,0,.78.18.78.92v1.29h-.4v-1.25c0-.34-.13-.63-.52-.63a.57.57,0,0,0-.54.4.9.9,0,0,0,0,.18v1.3h-.41Z"/><path class="cls-3" d="M260.11,142.16l0-.27h0a.82.82,0,0,1-.67.32.63.63,0,0,1-.68-.62c0-.52.48-.81,1.33-.81v0a.45.45,0,0,0-.5-.5,1.12,1.12,0,0,0-.58.16l-.09-.26a1.46,1.46,0,0,1,.73-.19.77.77,0,0,1,.84.88v.81a2.75,2.75,0,0,0,0,.52Zm-.06-1.1c-.44,0-.94.06-.94.48a.36.36,0,0,0,.38.38.56.56,0,0,0,.54-.36.59.59,0,0,0,0-.13Z"/><rect class="cls-3" x="261.09" y="138.99" width="0.4" height="3.17"/><path class="cls-3" d="M264.08,139v2.61c0,.19,0,.41,0,.56h-.36l0-.38h0a.8.8,0,0,1-.75.43,1,1,0,0,1-.95-1.1,1,1,0,0,1,1-1.16.76.76,0,0,1,.67.33h0V139Zm-.4,1.89a1,1,0,0,0,0-.17.59.59,0,0,0-.58-.45c-.42,0-.66.35-.66.83s.22.8.65.8a.59.59,0,0,0,.59-.47.79.79,0,0,0,0-.17Z"/><path class="cls-3" d="M266.75,141.06a1.07,1.07,0,0,1-1.1,1.15,1,1,0,0,1-1.06-1.11,1.06,1.06,0,0,1,1.1-1.15,1,1,0,0,1,1.06,1.11m-1.75,0c0,.48.28.83.67.83s.67-.35.67-.84-.19-.83-.66-.83-.68.43-.68.84"/><path class="cls-3" d="M268.19,141.69a1.52,1.52,0,0,0,.71.19c.41,0,.65-.21.65-.51s-.17-.44-.58-.6-.82-.43-.82-.85.4-.82,1-.82a1.34,1.34,0,0,1,.68.15l-.11.31a1.27,1.27,0,0,0-.58-.14c-.42,0-.58.25-.58.45s.19.42.61.58.79.45.79.89-.36.86-1.08.86a1.59,1.59,0,0,1-.79-.19Z"/><path class="cls-3" d="M272.52,141.06a1.07,1.07,0,0,1-1.1,1.15,1,1,0,0,1-1.07-1.11,1.07,1.07,0,0,1,1.1-1.15,1,1,0,0,1,1.07,1.11m-1.76,0c0,.48.28.83.67.83a.75.75,0,0,0,.68-.84c0-.36-.19-.83-.67-.83s-.68.43-.68.84"/><rect class="cls-3" x="273.03" y="138.99" width="0.4" height="3.17"/><path class="cls-3" d="M275.33,142.16l0-.27h0a.84.84,0,0,1-.68.32.63.63,0,0,1-.68-.62c0-.52.48-.81,1.33-.81v0a.45.45,0,0,0-.5-.5,1.15,1.15,0,0,0-.58.16l-.09-.26a1.49,1.49,0,0,1,.73-.19.77.77,0,0,1,.84.88v.81a2.75,2.75,0,0,0,0,.52Zm-.06-1.1c-.44,0-.93.06-.93.48a.35.35,0,0,0,.37.38.55.55,0,0,0,.54-.36.59.59,0,0,0,0-.13Z"/><path class="cls-3" d="M276.31,140.67c0-.25,0-.47,0-.67h.36v.42h0a.65.65,0,0,1,.61-.47h.12v.37h-.14a.55.55,0,0,0-.54.5,1.11,1.11,0,0,0,0,.19v1.15h-.4Z"/><path class="cls-3" d="M278.28,139.39a.24.24,0,0,1-.26.24.24.24,0,0,1-.24-.24.25.25,0,0,1,.5,0m-.45.61h.4v2.16h-.4Z"/><path class="cls-4" d="M145.65,148.83,178.4,124c-7.34-9-19.42-14.81-33.08-14.81-13.44,0-25.34,5.66-32.72,14.38Z"/><g class="cls-5"><polygon class="cls-13" points="113.91 108.73 112.86 148.57 177.35 150.19 178.4 110.36 113.91 108.73"/></g><g class="cls-7"><rect class="cls-14" x="119.81" y="78.25" width="50.71" height="55.7" transform="translate(38.15 250.57) rotate(-89.64)"/></g><polygon class="cls-9" points="148.06 150.46 146.76 149.58 176.1 126.78 149.46 150.46 148.06 150.46"/><polygon class="cls-10" points="110.09 127.82 112.05 124.48 141.7 146.89 110.09 127.82"/><path class="cls-11" d="M158.12,110.32S170.76,113.84,179,123l2.44-1.59s-7.28-7.85-21.67-12.15Z"/><path class="cls-12" d="M130.48,109.36s-16.29,4.78-22.71,16.8l1.51,1s6.4-12.29,22.68-16.77Z"/></g></g></svg>