<?xml version="1.0" encoding="utf-8"?>
<!-- Generator: Adobe Illustrator 22.1.0, SVG Export Plug-In . SVG Version: 6.00 Build 0)  -->
<svg version="1.1" id="Capa_1" xmlns="http://www.w3.org/2000/svg" xmlns:xlink="http://www.w3.org/1999/xlink" x="0px" y="0px"
	 viewBox="0 0 1057.5 320.8" style="enable-background:new 0 0 1057.5 320.8;" xml:space="preserve">
<style type="text/css">
	.st0{fill:#FFFFFF;}
	.st1{clip-path:url(#SVGID_2_);}
	.st2{clip-path:url(#SVGID_4_);fill:#1A1413;}
	.st3{clip-path:url(#SVGID_4_);fill:#0080BA;}
	.st4{clip-path:url(#SVGID_4_);fill-rule:evenodd;clip-rule:evenodd;fill:#CBD74B;}
	.st5{clip-path:url(#SVGID_6_);fill:url(#SVGID_7_);}
	.st6{clip-path:url(#SVGID_9_);fill:url(#SVGID_10_);}
	.st7{clip-path:url(#SVGID_2_);fill:#26B7CF;}
	.st8{clip-path:url(#SVGID_2_);fill:#E3D06B;}
	.st9{clip-path:url(#SVGID_12_);fill:#E18924;}
	.st10{clip-path:url(#SVGID_12_);fill:#993A8B;}
	.st11{clip-path:url(#SVGID_14_);fill:#1A1413;}
	.st12{clip-path:url(#SVGID_14_);fill:#0080BA;}
	.st13{clip-path:url(#SVGID_14_);fill-rule:evenodd;clip-rule:evenodd;fill:#CBD74B;}
	.st14{clip-path:url(#SVGID_16_);fill:url(#SVGID_17_);}
	.st15{clip-path:url(#SVGID_19_);fill:url(#SVGID_20_);}
	.st16{clip-path:url(#SVGID_22_);fill:#E18924;}
	.st17{clip-path:url(#SVGID_22_);fill:#993A8B;}
	.st18{fill:#1D1D1B;}
	.st19{clip-path:url(#SVGID_24_);fill:#1B3660;}
	.st20{clip-path:url(#SVGID_24_);fill:#99999E;}
	.st21{clip-path:url(#SVGID_2_);fill:#1B3660;}
	.st22{clip-path:url(#SVGID_26_);fill:#1B3660;}
	.st23{clip-path:url(#SVGID_28_);fill:#1B3660;}
	.st24{clip-path:url(#SVGID_30_);fill:#1B3660;}
	.st25{clip-path:url(#SVGID_32_);fill:#1B3660;}
</style>
<title>creditos-final</title>
<rect x="-6.8" y="-9.4" class="st0" width="1063.3" height="325.6"/>
<g>
	<defs>
		<rect id="SVGID_1_" x="-6.8" y="-94.6" width="1063.3" height="512.5"/>
	</defs>
	<clipPath id="SVGID_2_">
		<use xlink:href="#SVGID_1_"  style="overflow:visible;"/>
	</clipPath>
	<g class="st1">
		<defs>
			<rect id="SVGID_3_" x="704.1" y="126" width="279.7" height="112.4"/>
		</defs>
		<clipPath id="SVGID_4_">
			<use xlink:href="#SVGID_3_"  style="overflow:visible;"/>
		</clipPath>
		<path class="st2" d="M846.8,176l-4.1,12.1h-5.2l13.3-38.3h6.1l13.4,38.3h-5.4l-4.2-12.1H846.8z M859.6,172.1l-3.8-11
			c-0.9-2.5-1.5-4.8-2-7h-0.1c-0.6,2.3-1.2,4.6-2,6.9l-3.8,11.1H859.6z"/>
		<path class="st2" d="M875.7,169.5c0-3.5-0.1-6.4-0.2-9h4.6l0.2,4.7h0.1c2.1-3.4,5.4-5.3,10-5.3c6.8,0,11.9,5.6,11.9,14
			c0,9.9-6.2,14.8-12.8,14.8c-3.7,0-7-1.6-8.7-4.3h-0.1v15h-5.1V169.5z M880.8,176.8c0,0.7,0.1,1.4,0.2,2c0.9,3.5,4,5.9,7.7,5.9
			c5.4,0,8.6-4.3,8.6-10.6c0-5.5-3-10.2-8.4-10.2c-3.5,0-6.8,2.4-7.7,6.2c-0.2,0.6-0.3,1.4-0.3,2V176.8z"/>
		<path class="st2" d="M915,152.6v7.9h7.3v3.8H915v14.8c0,3.4,1,5.3,3.8,5.3c1.3,0,2.3-0.2,3-0.3l0.2,3.7c-1,0.4-2.6,0.7-4.5,0.7
			c-2.4,0-4.3-0.7-5.5-2.1c-1.5-1.5-2-3.9-2-7.2v-15h-4.4v-3.8h4.4v-6.6L915,152.6z"/>
		<path class="st2" d="M951.7,180.5c0,2.8,0.1,5.3,0.2,7.5h-4.5l-0.3-4.5H947c-1.3,2.2-4.3,5.1-9.3,5.1c-4.4,0-9.7-2.4-9.7-12.1
			v-16.1h5.1v15.2c0,5.2,1.6,8.8,6.3,8.8c3.4,0,5.8-2.3,6.8-4.5c0.3-0.7,0.5-1.6,0.5-2.6v-16.9h5.1V180.5z"/>
		<path class="st2" d="M959.5,182.9c1.5,1,4.2,2,6.8,2c3.7,0,5.5-1.8,5.5-4.1c0-2.4-1.5-3.7-5.2-5.1c-5.1-1.8-7.5-4.5-7.5-7.8
			c0-4.4,3.7-8.1,9.7-8.1c2.9,0,5.4,0.8,6.9,1.7l-1.3,3.6c-1.1-0.7-3.1-1.6-5.8-1.6c-3,0-4.7,1.7-4.7,3.7c0,2.3,1.7,3.3,5.4,4.7
			c4.9,1.8,7.4,4.2,7.4,8.3c0,4.8-3.8,8.2-10.5,8.2c-3.1,0-5.9-0.7-7.9-1.9L959.5,182.9z"/>
		<path class="st2" d="M835.3,202c0.5-0.1,1.1-0.1,1.8-0.1c1,0,1.6,0.2,2.1,0.6c0.4,0.3,0.7,0.9,0.7,1.5c0,0.7-0.2,1.2-0.6,1.6
			c-0.5,0.5-1.3,0.8-2.3,0.8c-0.3,0-0.6,0-0.8-0.1v2.9h-1V202z M836.3,205.5c0.2,0.1,0.5,0.1,0.8,0.1c1.2,0,1.9-0.5,1.9-1.6
			c0-1-0.7-1.4-1.8-1.4c-0.4,0-0.7,0-0.9,0.1V205.5z"/>
		<path class="st2" d="M847.5,205.4c0,2.5-1.6,3.8-3.5,3.8c-2,0-3.3-1.5-3.3-3.7c0-2.3,1.5-3.8,3.5-3.8
			C846.2,201.8,847.5,203.3,847.5,205.4 M841.8,205.6c0,1.6,0.9,2.9,2.4,2.9c1.5,0,2.4-1.4,2.4-3c0-1.4-0.8-3-2.4-3
			C842.6,202.5,841.8,204,841.8,205.6"/>
		<polygon class="st2" points="849.9,202.7 847.7,202.7 847.7,201.9 853.2,201.9 853.2,202.7 850.9,202.7 850.9,209.2 849.9,209.2 
					"/>
		<polygon class="st2" points="857.8,205.7 855,205.7 855,208.4 858.2,208.4 858.2,209.2 854,209.2 854,201.9 858,201.9 858,202.7 
			855,202.7 855,205 857.8,205 		"/>
		<path class="st2" d="M859.4,209.2v-7.3h1l2.4,3.7c0.6,0.8,1,1.6,1.3,2.4l0,0c-0.1-1-0.1-1.9-0.1-3v-3h0.9v7.3h-1l-2.4-3.7
			c-0.5-0.8-1-1.6-1.4-2.4l0,0c0.1,0.9,0.1,1.8,0.1,3v3.1H859.4z"/>
		<path class="st2" d="M871.9,208.9c-0.4,0.2-1.1,0.3-2,0.3c-2.1,0-3.7-1.3-3.7-3.7c0-2.3,1.6-3.8,3.9-3.8c0.9,0,1.5,0.2,1.8,0.3
			l-0.2,0.8c-0.4-0.2-0.9-0.3-1.5-0.3c-1.7,0-2.9,1.1-2.9,3c0,1.8,1,2.9,2.9,2.9c0.6,0,1.2-0.1,1.6-0.3L871.9,208.9z"/>
		<rect x="873.1" y="201.9" class="st2" width="1" height="7.3"/>
		<path class="st2" d="M876.9,206.9l-0.8,2.3h-1l2.5-7.3h1.2l2.5,7.3h-1l-0.8-2.3H876.9z M879.4,206.1l-0.7-2.1
			c-0.2-0.5-0.3-0.9-0.4-1.3h0c-0.1,0.4-0.2,0.9-0.4,1.3l-0.7,2.1H879.4z"/>
		<path class="st2" d="M882.5,202c0.6-0.1,1.3-0.2,2-0.2c1.4,0,2.4,0.3,3,0.9c0.7,0.6,1.1,1.4,1.1,2.6c0,1.2-0.4,2.2-1.1,2.8
			c-0.7,0.7-1.8,1-3.3,1c-0.7,0-1.3,0-1.7-0.1V202z M883.5,208.4c0.2,0,0.6,0.1,1,0.1c2.1,0,3.2-1.1,3.2-3.1c0-1.7-1-2.8-3-2.8
			c-0.5,0-0.9,0-1.1,0.1V208.4z"/>
		<path class="st2" d="M896.2,205.4c0,2.5-1.6,3.8-3.5,3.8c-2,0-3.3-1.5-3.3-3.7c0-2.3,1.5-3.8,3.5-3.8
			C894.9,201.8,896.2,203.3,896.2,205.4 M890.4,205.6c0,1.6,0.9,2.9,2.4,2.9c1.5,0,2.4-1.4,2.4-3c0-1.4-0.8-3-2.4-3
			C891.2,202.5,890.4,204,890.4,205.6"/>
		<path class="st2" d="M897.5,202c0.5-0.1,1.2-0.2,1.8-0.2c1,0,1.7,0.2,2.2,0.6c0.4,0.3,0.6,0.8,0.6,1.4c0,1-0.6,1.6-1.4,1.9v0
			c0.6,0.2,0.9,0.7,1.1,1.5c0.2,1,0.4,1.7,0.6,2h-1c-0.1-0.2-0.3-0.8-0.5-1.7c-0.2-1-0.6-1.4-1.5-1.4h-0.9v3.1h-1V202z M898.4,205.3
			h1c1,0,1.7-0.5,1.7-1.4c0-0.9-0.7-1.3-1.7-1.4c-0.5,0-0.8,0-1,0.1V205.3z"/>
		<path class="st2" d="M904.7,206.9l-0.8,2.3h-1l2.5-7.3h1.2l2.5,7.3h-1l-0.8-2.3H904.7z M907.1,206.1l-0.7-2.1
			c-0.2-0.5-0.3-0.9-0.4-1.3h0c-0.1,0.4-0.2,0.9-0.4,1.3l-0.7,2.1H907.1z"/>
		<polygon class="st2" points="916.4,205.7 913.5,205.7 913.5,208.4 916.7,208.4 916.7,209.2 912.5,209.2 912.5,201.9 916.6,201.9 
			916.6,202.7 913.5,202.7 913.5,205 916.4,205 		"/>
		<path class="st2" d="M918,202c0.6-0.1,1.3-0.2,2-0.2c1.4,0,2.4,0.3,3,0.9c0.7,0.6,1.1,1.4,1.1,2.6c0,1.2-0.4,2.2-1.1,2.8
			c-0.7,0.7-1.8,1-3.3,1c-0.7,0-1.3,0-1.7-0.1V202z M918.9,208.4c0.2,0,0.6,0.1,1,0.1c2.1,0,3.2-1.1,3.2-3.1c0-1.7-1-2.8-3-2.8
			c-0.5,0-0.9,0-1.1,0.1V208.4z"/>
		<path class="st2" d="M926.3,201.9v4.3c0,1.6,0.7,2.3,1.7,2.3c1.1,0,1.8-0.7,1.8-2.3v-4.3h1v4.2c0,2.2-1.2,3.1-2.8,3.1
			c-1.5,0-2.7-0.9-2.7-3.1v-4.3H926.3z"/>
		<path class="st2" d="M937.7,208.9c-0.4,0.2-1.1,0.3-2,0.3c-2.1,0-3.7-1.3-3.7-3.7c0-2.3,1.6-3.8,3.9-3.8c0.9,0,1.5,0.2,1.8,0.3
			l-0.2,0.8c-0.4-0.2-0.9-0.3-1.5-0.3c-1.7,0-2.9,1.1-2.9,3c0,1.8,1,2.9,2.9,2.9c0.6,0,1.2-0.1,1.6-0.3L937.7,208.9z"/>
		<path class="st2" d="M940.1,206.9l-0.8,2.3h-1l2.5-7.3h1.2l2.5,7.3h-1l-0.8-2.3H940.1z M942.6,206.1l-0.7-2.1
			c-0.2-0.5-0.3-0.9-0.4-1.3h0c-0.1,0.4-0.2,0.9-0.4,1.3l-0.7,2.1H942.6z"/>
		<path class="st2" d="M950.7,208.9c-0.4,0.2-1.1,0.3-2,0.3c-2.1,0-3.7-1.3-3.7-3.7c0-2.3,1.6-3.8,3.9-3.8c0.9,0,1.5,0.2,1.8,0.3
			l-0.2,0.8c-0.4-0.2-0.9-0.3-1.5-0.3c-1.7,0-2.9,1.1-2.9,3c0,1.8,1,2.9,2.9,2.9c0.6,0,1.2-0.1,1.6-0.3L950.7,208.9z"/>
		<rect x="951.9" y="201.9" class="st2" width="1" height="7.3"/>
		<path class="st2" d="M960.9,205.4c0,2.5-1.6,3.8-3.5,3.8c-2,0-3.3-1.5-3.3-3.7c0-2.3,1.5-3.8,3.5-3.8
			C959.6,201.8,960.9,203.3,960.9,205.4 M955.1,205.6c0,1.6,0.9,2.9,2.4,2.9c1.5,0,2.4-1.4,2.4-3c0-1.4-0.8-3-2.4-3
			C955.9,202.5,955.1,204,955.1,205.6"/>
		<path class="st2" d="M962.2,209.2v-7.3h1l2.4,3.7c0.6,0.8,1,1.6,1.3,2.4l0,0c-0.1-1-0.1-1.9-0.1-3v-3h0.9v7.3h-1l-2.4-3.7
			c-0.5-0.8-1-1.6-1.4-2.4l0,0c0.1,0.9,0.1,1.8,0.1,3v3.1H962.2z"/>
		<path class="st2" d="M970.6,206.9l-0.8,2.3h-1l2.5-7.3h1.2l2.5,7.3h-1l-0.8-2.3H970.6z M973.1,206.1l-0.7-2.1
			c-0.2-0.5-0.3-0.9-0.4-1.3h0c-0.1,0.4-0.2,0.9-0.4,1.3l-0.7,2.1H973.1z"/>
		<polygon class="st2" points="976.2,201.9 977.2,201.9 977.2,208.4 980.3,208.4 980.3,209.2 976.2,209.2 		"/>
		<rect x="830.4" y="213.1" class="st3" width="154.3" height="0.5"/>
		<path class="st2" d="M835.4,224.2c0.3,0.2,0.7,0.3,1.2,0.3c0.7,0,1-0.3,1-0.8c0-0.5-0.3-0.7-0.9-1c-0.8-0.3-1.3-0.7-1.3-1.4
			c0-0.8,0.6-1.3,1.6-1.3c0.5,0,0.9,0.1,1.1,0.2l-0.2,0.5c-0.2-0.1-0.5-0.2-0.9-0.2c-0.7,0-0.9,0.4-0.9,0.7c0,0.5,0.3,0.7,1,0.9
			c0.8,0.3,1.3,0.7,1.3,1.4c0,0.7-0.6,1.4-1.7,1.4c-0.5,0-1-0.1-1.3-0.3L835.4,224.2z"/>
		<rect x="839.1" y="220.1" class="st2" width="0.6" height="4.9"/>
		<path class="st2" d="M840.9,220.2c0.3,0,0.7-0.1,1.2-0.1c0.6,0,1.1,0.1,1.4,0.4c0.3,0.2,0.4,0.6,0.4,1c0,0.4-0.1,0.8-0.4,1
			c-0.3,0.4-0.9,0.5-1.5,0.5c-0.2,0-0.4,0-0.5,0v1.9h-0.6V220.2z M841.6,222.5c0.1,0,0.3,0.1,0.5,0.1c0.8,0,1.2-0.4,1.2-1
			c0-0.6-0.5-1-1.2-1c-0.3,0-0.5,0-0.6,0.1V222.5z"/>
		<path class="st2" d="M846.4,220.2c0.3-0.1,0.8-0.1,1.2-0.1c0.7,0,1.1,0.1,1.4,0.4c0.2,0.2,0.4,0.5,0.4,0.9c0,0.6-0.4,1.1-0.9,1.2
			v0c0.4,0.1,0.6,0.5,0.7,1c0.2,0.7,0.3,1.1,0.4,1.3H849c-0.1-0.1-0.2-0.6-0.3-1.2c-0.1-0.7-0.4-0.9-1-0.9h-0.6v2.1h-0.6V220.2z
			 M847.1,222.4h0.7c0.7,0,1.1-0.4,1.1-0.9c0-0.6-0.5-0.9-1.1-0.9c-0.3,0-0.5,0-0.6,0.1V222.4z"/>
		<path class="st2" d="M850.8,223.4c0,0.9,0.6,1.2,1.2,1.2c0.5,0,0.7-0.1,1-0.2l0.1,0.5c-0.2,0.1-0.6,0.2-1.2,0.2
			c-1.1,0-1.8-0.7-1.8-1.8s0.6-1.9,1.7-1.9c1.2,0,1.5,1,1.5,1.6c0,0.1,0,0.2,0,0.3H850.8z M852.7,222.9c0-0.4-0.2-1-0.9-1
			c-0.7,0-0.9,0.6-1,1H852.7z"/>
		<path class="st2" d="M857.2,219.9v4.2c0,0.3,0,0.7,0,0.9h-0.6l0-0.6h0c-0.2,0.4-0.6,0.7-1.2,0.7c-0.9,0-1.5-0.7-1.5-1.8
			c0-1.2,0.7-1.9,1.6-1.9c0.5,0,0.9,0.3,1.1,0.5h0v-2.1H857.2z M856.5,222.9c0-0.1,0-0.2,0-0.3c-0.1-0.4-0.5-0.7-0.9-0.7
			c-0.7,0-1.1,0.6-1.1,1.4c0,0.7,0.4,1.3,1.1,1.3c0.4,0,0.8-0.3,1-0.8c0-0.1,0-0.2,0-0.3V222.9z"/>
		<path class="st2" d="M862.9,219.9v4.2c0,0.3,0,0.7,0,0.9h-0.6l0-0.6h0c-0.2,0.4-0.6,0.7-1.2,0.7c-0.9,0-1.5-0.7-1.5-1.8
			c0-1.2,0.7-1.9,1.6-1.9c0.5,0,0.9,0.3,1.1,0.5h0v-2.1H862.9z M862.3,222.9c0-0.1,0-0.2,0-0.3c-0.1-0.4-0.4-0.7-0.9-0.7
			c-0.7,0-1.1,0.6-1.1,1.4c0,0.7,0.4,1.3,1.1,1.3c0.4,0,0.8-0.3,1-0.8c0-0.1,0-0.2,0-0.3V222.9z"/>
		<path class="st2" d="M864.4,223.4c0,0.9,0.6,1.2,1.2,1.2c0.5,0,0.7-0.1,1-0.2l0.1,0.5c-0.2,0.1-0.6,0.2-1.2,0.2
			c-1.1,0-1.8-0.7-1.8-1.8s0.6-1.9,1.7-1.9c1.2,0,1.5,1,1.5,1.6c0,0.1,0,0.2,0,0.3H864.4z M866.3,222.9c0-0.4-0.2-1-0.9-1
			c-0.7,0-0.9,0.6-1,1H866.3z"/>
		<path class="st2" d="M872.8,224.8c-0.2,0.1-0.7,0.2-1.3,0.2c-1.4,0-2.5-0.9-2.5-2.5c0-1.5,1.1-2.6,2.6-2.6c0.6,0,1,0.1,1.2,0.2
			l-0.2,0.5c-0.3-0.1-0.6-0.2-1-0.2c-1.2,0-1.9,0.7-1.9,2c0,1.2,0.7,2,1.9,2c0.4,0,0.8-0.1,1.1-0.2L872.8,224.8z"/>
		<path class="st2" d="M876.7,223.2c0,1.3-0.9,1.9-1.8,1.9c-1,0-1.7-0.7-1.7-1.8c0-1.2,0.8-1.9,1.8-1.9
			C876,221.4,876.7,222.2,876.7,223.2 M873.9,223.3c0,0.8,0.5,1.3,1.1,1.3c0.6,0,1.1-0.6,1.1-1.4c0-0.6-0.3-1.3-1.1-1.3
			C874.2,221.9,873.9,222.6,873.9,223.3"/>
		<rect x="877.6" y="219.9" class="st2" width="0.7" height="5.1"/>
		<path class="st2" d="M879.7,223.4c0,0.9,0.6,1.2,1.2,1.2c0.5,0,0.7-0.1,1-0.2l0.1,0.5c-0.2,0.1-0.6,0.2-1.2,0.2
			c-1.1,0-1.8-0.7-1.8-1.8s0.6-1.9,1.7-1.9c1.2,0,1.5,1,1.5,1.6c0,0.1,0,0.2,0,0.3H879.7z M881.6,222.9c0-0.4-0.2-1-0.9-1
			c-0.7,0-0.9,0.6-1,1H881.6z"/>
		<path class="st2" d="M886.1,221.5c0,0.3,0,0.5,0,1v2c0,0.8-0.2,1.3-0.5,1.6c-0.3,0.3-0.8,0.4-1.3,0.4c-0.4,0-0.9-0.1-1.2-0.3
			l0.2-0.5c0.2,0.1,0.6,0.3,1.1,0.3c0.7,0,1.2-0.3,1.2-1.2v-0.4h0c-0.2,0.3-0.6,0.6-1.1,0.6c-0.9,0-1.5-0.7-1.5-1.7
			c0-1.2,0.8-1.9,1.6-1.9c0.6,0,1,0.3,1.1,0.6h0l0-0.5H886.1z M885.4,222.9c0-0.1,0-0.2,0-0.3c-0.1-0.4-0.4-0.7-0.9-0.7
			c-0.6,0-1.1,0.5-1.1,1.3c0,0.7,0.4,1.3,1.1,1.3c0.4,0,0.8-0.2,0.9-0.6c0-0.1,0.1-0.2,0.1-0.3V222.9z"/>
		<path class="st2" d="M887.8,220.5c0,0.2-0.2,0.4-0.4,0.4c-0.2,0-0.4-0.2-0.4-0.4c0-0.2,0.2-0.4,0.4-0.4
			C887.7,220.1,887.8,220.3,887.8,220.5 M887.1,221.5h0.7v3.5h-0.7V221.5z"/>
		<path class="st2" d="M892.1,223.2c0,1.3-0.9,1.9-1.8,1.9c-1,0-1.7-0.7-1.7-1.8c0-1.2,0.8-1.9,1.8-1.9
			C891.4,221.4,892.1,222.2,892.1,223.2 M889.2,223.3c0,0.8,0.5,1.3,1.1,1.3c0.6,0,1.1-0.6,1.1-1.4c0-0.6-0.3-1.3-1.1-1.3
			C889.6,221.9,889.2,222.6,889.2,223.3"/>
		<path class="st2" d="M892.8,224.3c0.2,0.1,0.5,0.3,0.9,0.3c0.5,0,0.7-0.2,0.7-0.5c0-0.3-0.2-0.5-0.7-0.6c-0.6-0.2-0.9-0.6-0.9-1
			c0-0.6,0.5-1,1.2-1c0.4,0,0.7,0.1,0.9,0.2l-0.2,0.5c-0.1-0.1-0.4-0.2-0.7-0.2c-0.4,0-0.6,0.2-0.6,0.5c0,0.3,0.2,0.4,0.7,0.6
			c0.6,0.2,0.9,0.5,0.9,1.1c0,0.6-0.5,1-1.3,1c-0.4,0-0.8-0.1-1-0.2L892.8,224.3z"/>
		<rect x="897.5" y="219.6" class="st2" width="0.5" height="7.2"/>
		<polygon class="st2" points="900.7,220.1 903.4,220.1 903.4,220.7 901.4,220.7 901.4,222.3 903.3,222.3 903.3,222.8 901.4,222.8 
			901.4,225 900.7,225 		"/>
		<path class="st2" d="M907.1,224c0,0.4,0,0.7,0,1h-0.6l0-0.6h0c-0.2,0.3-0.5,0.6-1.2,0.6c-0.6,0-1.2-0.3-1.2-1.5v-2h0.6v1.9
			c0,0.7,0.2,1.1,0.8,1.1c0.4,0,0.7-0.3,0.9-0.6c0-0.1,0.1-0.2,0.1-0.3v-2.1h0.6V224z"/>
		<path class="st2" d="M908.1,222.4c0-0.4,0-0.7,0-0.9h0.6l0,0.6h0c0.2-0.3,0.6-0.7,1.2-0.7c0.5,0,1.3,0.3,1.3,1.5v2.1h-0.7v-2
			c0-0.6-0.2-1-0.8-1c-0.4,0-0.8,0.3-0.9,0.6c0,0.1,0,0.2,0,0.3v2.1h-0.7V222.4z"/>
		<path class="st2" d="M915.3,219.9v4.2c0,0.3,0,0.7,0,0.9h-0.6l0-0.6h0c-0.2,0.4-0.6,0.7-1.2,0.7c-0.9,0-1.5-0.7-1.5-1.8
			c0-1.2,0.7-1.9,1.6-1.9c0.5,0,0.9,0.3,1.1,0.5h0v-2.1H915.3z M914.7,222.9c0-0.1,0-0.2,0-0.3c-0.1-0.4-0.5-0.7-0.9-0.7
			c-0.7,0-1.1,0.6-1.1,1.4c0,0.7,0.4,1.3,1.1,1.3c0.4,0,0.8-0.3,1-0.8c0-0.1,0-0.2,0-0.3V222.9z"/>
		<path class="st2" d="M918.4,225l-0.1-0.4h0c-0.2,0.3-0.6,0.5-1.1,0.5c-0.7,0-1.1-0.5-1.1-1c0-0.8,0.8-1.3,2.2-1.3v-0.1
			c0-0.3-0.1-0.8-0.8-0.8c-0.3,0-0.7,0.1-0.9,0.3l-0.1-0.4c0.3-0.2,0.7-0.3,1.2-0.3c1.1,0,1.4,0.7,1.4,1.4v1.3c0,0.3,0,0.6,0.1,0.8
			H918.4z M918.3,223.2c-0.7,0-1.5,0.1-1.5,0.8c0,0.4,0.3,0.6,0.6,0.6c0.5,0,0.8-0.3,0.9-0.6c0-0.1,0-0.1,0-0.2V223.2z"/>
		<path class="st2" d="M922.5,224.9c-0.2,0.1-0.5,0.2-1,0.2c-1.1,0-1.8-0.7-1.8-1.8c0-1.1,0.8-1.9,1.9-1.9c0.4,0,0.7,0.1,0.9,0.2
			l-0.1,0.5c-0.2-0.1-0.4-0.2-0.8-0.2c-0.8,0-1.3,0.6-1.3,1.3c0,0.8,0.5,1.3,1.2,1.3c0.4,0,0.6-0.1,0.8-0.2L922.5,224.9z"/>
		<path class="st2" d="M924,220.5c0,0.2-0.2,0.4-0.4,0.4c-0.2,0-0.4-0.2-0.4-0.4c0-0.2,0.2-0.4,0.4-0.4
			C923.9,220.1,924,220.3,924,220.5 M923.3,221.5h0.7v3.5h-0.7V221.5z"/>
		<path class="st2" d="M928.3,223.2c0,1.3-0.9,1.9-1.8,1.9c-1,0-1.7-0.7-1.7-1.8c0-1.2,0.8-1.9,1.8-1.9
			C927.6,221.4,928.3,222.2,928.3,223.2 M925.4,223.3c0,0.8,0.4,1.3,1.1,1.3c0.6,0,1.1-0.6,1.1-1.4c0-0.6-0.3-1.3-1.1-1.3
			C925.8,221.9,925.4,222.6,925.4,223.3 M927.5,220l-0.9,1h-0.5l0.7-1H927.5z"/>
		<path class="st2" d="M929.1,222.4c0-0.4,0-0.7,0-0.9h0.6l0,0.6h0c0.2-0.3,0.6-0.7,1.2-0.7c0.5,0,1.3,0.3,1.3,1.5v2.1h-0.7v-2
			c0-0.6-0.2-1-0.8-1c-0.4,0-0.8,0.3-0.9,0.6c0,0.1,0,0.2,0,0.3v2.1h-0.6V222.4z"/>
		<path class="st2" d="M934.8,220.2c0.3-0.1,0.8-0.1,1.2-0.1c0.7,0,1.1,0.1,1.4,0.4c0.2,0.2,0.4,0.5,0.4,0.9c0,0.6-0.4,1.1-0.9,1.2
			v0c0.4,0.1,0.6,0.5,0.7,1c0.2,0.7,0.3,1.1,0.4,1.3h-0.7c-0.1-0.1-0.2-0.6-0.3-1.2c-0.1-0.7-0.4-0.9-1-0.9h-0.6v2.1h-0.6V220.2z
			 M935.4,222.4h0.7c0.7,0,1.1-0.4,1.1-0.9c0-0.6-0.5-0.9-1.1-0.9c-0.3,0-0.5,0-0.6,0.1V222.4z"/>
		<path class="st2" d="M939.1,223.4c0,0.9,0.6,1.2,1.2,1.2c0.5,0,0.7-0.1,1-0.2l0.1,0.5c-0.2,0.1-0.6,0.2-1.2,0.2
			c-1.1,0-1.8-0.7-1.8-1.8s0.6-1.9,1.7-1.9c1.2,0,1.5,1,1.5,1.6c0,0.1,0,0.2,0,0.3H939.1z M941,222.9c0-0.4-0.2-1-0.9-1
			c-0.7,0-0.9,0.6-1,1H941z"/>
		<path class="st2" d="M943.2,220.5c0,0.2-0.2,0.4-0.4,0.4c-0.2,0-0.4-0.2-0.4-0.4c0-0.2,0.2-0.4,0.4-0.4
			C943,220.1,943.2,220.3,943.2,220.5 M942.5,221.5h0.6v3.5h-0.6V221.5z"/>
		<path class="st2" d="M944.2,222.4c0-0.4,0-0.7,0-0.9h0.6l0,0.6h0c0.2-0.3,0.6-0.7,1.2-0.7c0.5,0,1.3,0.3,1.3,1.5v2.1h-0.7v-2
			c0-0.6-0.2-1-0.8-1c-0.4,0-0.8,0.3-0.9,0.6c0,0.1,0,0.2,0,0.3v2.1h-0.6V222.4z"/>
		<path class="st2" d="M950.3,225l-0.1-0.4h0c-0.2,0.3-0.6,0.5-1.1,0.5c-0.7,0-1.1-0.5-1.1-1c0-0.8,0.8-1.3,2.2-1.3v-0.1
			c0-0.3-0.1-0.8-0.8-0.8c-0.3,0-0.7,0.1-0.9,0.3l-0.1-0.4c0.3-0.2,0.7-0.3,1.2-0.3c1.1,0,1.4,0.7,1.4,1.4v1.3c0,0.3,0,0.6,0.1,0.8
			H950.3z M950.2,223.2c-0.7,0-1.5,0.1-1.5,0.8c0,0.4,0.3,0.6,0.6,0.6c0.5,0,0.8-0.3,0.9-0.6c0-0.1,0-0.1,0-0.2V223.2z"/>
		<rect x="951.9" y="219.9" class="st2" width="0.6" height="5.1"/>
		<path class="st2" d="M956.7,219.9v4.2c0,0.3,0,0.7,0,0.9h-0.6l0-0.6h0c-0.2,0.4-0.6,0.7-1.2,0.7c-0.9,0-1.5-0.7-1.5-1.8
			c0-1.2,0.7-1.9,1.6-1.9c0.5,0,0.9,0.3,1.1,0.5h0v-2.1H956.7z M956,222.9c0-0.1,0-0.2,0-0.3c-0.1-0.4-0.5-0.7-0.9-0.7
			c-0.7,0-1.1,0.6-1.1,1.4c0,0.7,0.4,1.3,1.1,1.3c0.4,0,0.8-0.3,1-0.8c0-0.1,0-0.2,0-0.3V222.9z"/>
		<path class="st2" d="M961,223.2c0,1.3-0.9,1.9-1.8,1.9c-1,0-1.7-0.7-1.7-1.8c0-1.2,0.8-1.9,1.8-1.9
			C960.3,221.4,961,222.2,961,223.2 M958.2,223.3c0,0.8,0.5,1.3,1.1,1.3c0.6,0,1.1-0.6,1.1-1.4c0-0.6-0.3-1.3-1.1-1.3
			C958.5,221.9,958.2,222.6,958.2,223.3"/>
		<path class="st2" d="M963.3,224.2c0.3,0.2,0.7,0.3,1.2,0.3c0.7,0,1-0.3,1-0.8c0-0.5-0.3-0.7-0.9-1c-0.8-0.3-1.3-0.7-1.3-1.4
			c0-0.8,0.6-1.3,1.6-1.3c0.5,0,0.9,0.1,1.1,0.2l-0.2,0.5c-0.2-0.1-0.5-0.2-0.9-0.2c-0.7,0-0.9,0.4-0.9,0.7c0,0.5,0.3,0.7,1,0.9
			c0.8,0.3,1.3,0.7,1.3,1.4c0,0.7-0.6,1.4-1.7,1.4c-0.5,0-1-0.1-1.3-0.3L963.3,224.2z"/>
		<path class="st2" d="M970.3,223.2c0,1.3-0.9,1.9-1.8,1.9c-1,0-1.7-0.7-1.7-1.8c0-1.2,0.8-1.9,1.8-1.9
			C969.6,221.4,970.3,222.2,970.3,223.2 M967.5,223.3c0,0.8,0.5,1.3,1.1,1.3c0.6,0,1.1-0.6,1.1-1.4c0-0.6-0.3-1.3-1.1-1.3
			C967.8,221.9,967.5,222.6,967.5,223.3"/>
		<rect x="971.2" y="219.9" class="st2" width="0.7" height="5.1"/>
		<path class="st2" d="M974.9,225l-0.1-0.4h0c-0.2,0.3-0.6,0.5-1.1,0.5c-0.7,0-1.1-0.5-1.1-1c0-0.8,0.8-1.3,2.2-1.3v-0.1
			c0-0.3-0.1-0.8-0.8-0.8c-0.3,0-0.7,0.1-0.9,0.3l-0.1-0.4c0.3-0.2,0.7-0.3,1.2-0.3c1.1,0,1.4,0.7,1.4,1.4v1.3c0,0.3,0,0.6,0.1,0.8
			H974.9z M974.8,223.2c-0.7,0-1.5,0.1-1.5,0.8c0,0.4,0.3,0.6,0.6,0.6c0.5,0,0.8-0.3,0.9-0.6c0-0.1,0-0.1,0-0.2V223.2z"/>
		<path class="st2" d="M976.5,222.6c0-0.4,0-0.8,0-1.1h0.6l0,0.7h0c0.2-0.5,0.6-0.8,1-0.8c0.1,0,0.1,0,0.2,0v0.6c-0.1,0-0.1,0-0.2,0
			c-0.5,0-0.8,0.3-0.9,0.8c0,0.1,0,0.2,0,0.3v1.9h-0.6V222.6z"/>
		<path class="st2" d="M979.6,220.5c0,0.2-0.2,0.4-0.4,0.4c-0.2,0-0.4-0.2-0.4-0.4c0-0.2,0.2-0.4,0.4-0.4
			C979.5,220.1,979.6,220.3,979.6,220.5 M978.9,221.5h0.6v3.5h-0.6V221.5z"/>
		<path class="st4" d="M765.3,235.8l52.9-40.1c-11.9-14.5-31.4-23.9-53.5-23.9c-21.7,0-41,9.2-52.9,23.2L765.3,235.8z"/>
	</g>
	<g class="st1">
		<defs>
			<path id="SVGID_5_" d="M713.9,196l51.6,39.4l51.1-38.7c-11.5-14-30.3-23.1-51.6-23.1C744,173.6,725.4,182.4,713.9,196"/>
		</defs>
		<clipPath id="SVGID_6_">
			<use xlink:href="#SVGID_5_"  style="overflow:visible;"/>
		</clipPath>
		
			<radialGradient id="SVGID_7_" cx="210.3519" cy="553.218" r="1.7375" gradientTransform="matrix(-0.6256 23.6593 -24.2409 -0.6106 14311.291 -4454.3291)" gradientUnits="userSpaceOnUse">
			<stop  offset="0" style="stop-color:#CDD74E"/>
			<stop  offset="0.158" style="stop-color:#CDD74E"/>
			<stop  offset="1" style="stop-color:#769034"/>
		</radialGradient>
		<polygon class="st5" points="714,171 712.3,235.4 816.5,238 818.2,173.6 		"/>
	</g>
	<g class="st1">
		<defs>
			<path id="SVGID_8_" d="M754.5,154.1l-0.3,0.8l-34.5,0.2l0.1,0.1h-0.1l25.4,19.1c0,0,0,0,0.1,0l0.3,0.2l-9.5,32.9l28.3-18.6
				l30,18.4l-11.2-33.1l26.1-19h-0.1l0.1,0l-35.4-0.4l-0.4-1.1l-8.7-27.6L754.5,154.1z"/>
		</defs>
		<clipPath id="SVGID_9_">
			<use xlink:href="#SVGID_8_"  style="overflow:visible;"/>
		</clipPath>
		
			<linearGradient id="SVGID_10_" gradientUnits="userSpaceOnUse" x1="215.6482" y1="554.8651" x2="217.3857" y2="554.8651" gradientTransform="matrix(-0.2783 43.7312 -44.8061 -0.2716 25686.1133 -9151.6641)">
			<stop  offset="0" style="stop-color:#5F7DBB"/>
			<stop  offset="0.3417" style="stop-color:#5F7DBB"/>
			<stop  offset="0.6324" style="stop-color:#4E619F"/>
			<stop  offset="0.9532" style="stop-color:#3C395E"/>
			<stop  offset="1" style="stop-color:#3C395E"/>
		</linearGradient>
		<polygon class="st6" points="719.8,125.5 719.2,207.4 809.2,208 809.8,126 		"/>
	</g>
	<polygon class="st7" points="769.2,238.4 767.1,237 814.5,200.1 771.4,238.4 	"/>
	<polygon class="st8" points="707.8,201.8 711,196.4 758.9,232.6 	"/>
	<g class="st1">
		<defs>
			<rect id="SVGID_11_" x="704.1" y="126" width="279.7" height="112.4"/>
		</defs>
		<clipPath id="SVGID_12_">
			<use xlink:href="#SVGID_11_"  style="overflow:visible;"/>
		</clipPath>
		<path class="st9" d="M785.4,173.5c0,0,20.4,5.7,33.8,20.5l3.9-2.6c0,0-11.8-12.7-35-19.6L785.4,173.5z"/>
		<path class="st10" d="M740.8,172c0,0-26.3,7.7-36.7,27.2l2.4,1.6c0,0,10.3-19.9,36.7-27.1L740.8,172z"/>
	</g>
	<g class="st1">
		<defs>
			<rect id="SVGID_13_" x="704.1" y="126" width="279.7" height="112.4"/>
		</defs>
		<clipPath id="SVGID_14_">
			<use xlink:href="#SVGID_13_"  style="overflow:visible;"/>
		</clipPath>
		<path class="st11" d="M846.8,176l-4.1,12.1h-5.2l13.3-38.3h6.1l13.4,38.3h-5.4l-4.2-12.1H846.8z M859.6,172.1l-3.8-11
			c-0.9-2.5-1.5-4.8-2-7h-0.1c-0.6,2.3-1.2,4.6-2,6.9l-3.8,11.1H859.6z"/>
		<path class="st11" d="M875.7,169.5c0-3.5-0.1-6.4-0.2-9h4.6l0.2,4.7h0.1c2.1-3.4,5.4-5.3,10-5.3c6.8,0,11.9,5.6,11.9,14
			c0,9.9-6.2,14.8-12.8,14.8c-3.7,0-7-1.6-8.7-4.3h-0.1v15h-5.1V169.5z M880.8,176.8c0,0.7,0.1,1.4,0.2,2c0.9,3.5,4,5.9,7.7,5.9
			c5.4,0,8.6-4.3,8.6-10.6c0-5.5-3-10.2-8.4-10.2c-3.5,0-6.8,2.4-7.7,6.2c-0.2,0.6-0.3,1.4-0.3,2V176.8z"/>
		<path class="st11" d="M915,152.6v7.9h7.3v3.8H915v14.8c0,3.4,1,5.3,3.8,5.3c1.3,0,2.3-0.2,3-0.3l0.2,3.7c-1,0.4-2.6,0.7-4.5,0.7
			c-2.4,0-4.3-0.7-5.5-2.1c-1.5-1.5-2-3.9-2-7.2v-15h-4.4v-3.8h4.4v-6.6L915,152.6z"/>
		<path class="st11" d="M951.7,180.5c0,2.8,0.1,5.3,0.2,7.5h-4.5l-0.3-4.5H947c-1.3,2.2-4.3,5.1-9.3,5.1c-4.4,0-9.7-2.4-9.7-12.1
			v-16.1h5.1v15.2c0,5.2,1.6,8.8,6.3,8.8c3.4,0,5.8-2.3,6.8-4.5c0.3-0.7,0.5-1.6,0.5-2.6v-16.9h5.1V180.5z"/>
		<path class="st11" d="M959.5,182.9c1.5,1,4.2,2,6.8,2c3.7,0,5.5-1.8,5.5-4.1c0-2.4-1.5-3.7-5.2-5.1c-5.1-1.8-7.5-4.5-7.5-7.8
			c0-4.4,3.7-8.1,9.7-8.1c2.9,0,5.4,0.8,6.9,1.7l-1.3,3.6c-1.1-0.7-3.1-1.6-5.8-1.6c-3,0-4.7,1.7-4.7,3.7c0,2.3,1.7,3.3,5.4,4.7
			c4.9,1.8,7.4,4.2,7.4,8.3c0,4.8-3.8,8.2-10.5,8.2c-3.1,0-5.9-0.7-7.9-1.9L959.5,182.9z"/>
		<path class="st11" d="M835.3,202c0.5-0.1,1.1-0.1,1.8-0.1c1,0,1.6,0.2,2.1,0.6c0.4,0.3,0.7,0.9,0.7,1.5c0,0.7-0.2,1.2-0.6,1.6
			c-0.5,0.5-1.3,0.8-2.3,0.8c-0.3,0-0.6,0-0.8-0.1v2.9h-1V202z M836.3,205.5c0.2,0.1,0.5,0.1,0.8,0.1c1.2,0,1.9-0.5,1.9-1.6
			c0-1-0.7-1.4-1.8-1.4c-0.4,0-0.7,0-0.9,0.1V205.5z"/>
		<path class="st11" d="M847.5,205.4c0,2.5-1.6,3.8-3.5,3.8c-2,0-3.3-1.5-3.3-3.7c0-2.3,1.5-3.8,3.5-3.8
			C846.2,201.8,847.5,203.3,847.5,205.4 M841.8,205.6c0,1.6,0.9,2.9,2.4,2.9c1.5,0,2.4-1.4,2.4-3c0-1.4-0.8-3-2.4-3
			C842.6,202.5,841.8,204,841.8,205.6"/>
		<polygon class="st11" points="849.9,202.7 847.7,202.7 847.7,201.9 853.2,201.9 853.2,202.7 850.9,202.7 850.9,209.2 849.9,209.2 
					"/>
		<polygon class="st11" points="857.8,205.7 855,205.7 855,208.4 858.2,208.4 858.2,209.2 854,209.2 854,201.9 858,201.9 858,202.7 
			855,202.7 855,205 857.8,205 		"/>
		<path class="st11" d="M859.4,209.2v-7.3h1l2.4,3.7c0.6,0.8,1,1.6,1.3,2.4l0,0c-0.1-1-0.1-1.9-0.1-3v-3h0.9v7.3h-1l-2.4-3.7
			c-0.5-0.8-1-1.6-1.4-2.4l0,0c0.1,0.9,0.1,1.8,0.1,3v3.1H859.4z"/>
		<path class="st11" d="M871.9,208.9c-0.4,0.2-1.1,0.3-2,0.3c-2.1,0-3.7-1.3-3.7-3.7c0-2.3,1.6-3.8,3.9-3.8c0.9,0,1.5,0.2,1.8,0.3
			l-0.2,0.8c-0.4-0.2-0.9-0.3-1.5-0.3c-1.7,0-2.9,1.1-2.9,3c0,1.8,1,2.9,2.9,2.9c0.6,0,1.2-0.1,1.6-0.3L871.9,208.9z"/>
		<rect x="873.1" y="201.9" class="st11" width="1" height="7.3"/>
		<path class="st11" d="M876.9,206.9l-0.8,2.3h-1l2.5-7.3h1.2l2.5,7.3h-1l-0.8-2.3H876.9z M879.4,206.1l-0.7-2.1
			c-0.2-0.5-0.3-0.9-0.4-1.3h0c-0.1,0.4-0.2,0.9-0.4,1.3l-0.7,2.1H879.4z"/>
		<path class="st11" d="M882.5,202c0.6-0.1,1.3-0.2,2-0.2c1.4,0,2.4,0.3,3,0.9c0.7,0.6,1.1,1.4,1.1,2.6c0,1.2-0.4,2.2-1.1,2.8
			c-0.7,0.7-1.8,1-3.3,1c-0.7,0-1.3,0-1.7-0.1V202z M883.5,208.4c0.2,0,0.6,0.1,1,0.1c2.1,0,3.2-1.1,3.2-3.1c0-1.7-1-2.8-3-2.8
			c-0.5,0-0.9,0-1.1,0.1V208.4z"/>
		<path class="st11" d="M896.2,205.4c0,2.5-1.6,3.8-3.5,3.8c-2,0-3.3-1.5-3.3-3.7c0-2.3,1.5-3.8,3.5-3.8
			C894.9,201.8,896.2,203.3,896.2,205.4 M890.4,205.6c0,1.6,0.9,2.9,2.4,2.9c1.5,0,2.4-1.4,2.4-3c0-1.4-0.8-3-2.4-3
			C891.2,202.5,890.4,204,890.4,205.6"/>
		<path class="st11" d="M897.5,202c0.5-0.1,1.2-0.2,1.8-0.2c1,0,1.7,0.2,2.2,0.6c0.4,0.3,0.6,0.8,0.6,1.4c0,1-0.6,1.6-1.4,1.9v0
			c0.6,0.2,0.9,0.7,1.1,1.5c0.2,1,0.4,1.7,0.6,2h-1c-0.1-0.2-0.3-0.8-0.5-1.7c-0.2-1-0.6-1.4-1.5-1.4h-0.9v3.1h-1V202z M898.4,205.3
			h1c1,0,1.7-0.5,1.7-1.4c0-0.9-0.7-1.3-1.7-1.4c-0.5,0-0.8,0-1,0.1V205.3z"/>
		<path class="st11" d="M904.7,206.9l-0.8,2.3h-1l2.5-7.3h1.2l2.5,7.3h-1l-0.8-2.3H904.7z M907.1,206.1l-0.7-2.1
			c-0.2-0.5-0.3-0.9-0.4-1.3h0c-0.1,0.4-0.2,0.9-0.4,1.3l-0.7,2.1H907.1z"/>
		<polygon class="st11" points="916.4,205.7 913.5,205.7 913.5,208.4 916.7,208.4 916.7,209.2 912.5,209.2 912.5,201.9 916.6,201.9 
			916.6,202.7 913.5,202.7 913.5,205 916.4,205 		"/>
		<path class="st11" d="M918,202c0.6-0.1,1.3-0.2,2-0.2c1.4,0,2.4,0.3,3,0.9c0.7,0.6,1.1,1.4,1.1,2.6c0,1.2-0.4,2.2-1.1,2.8
			c-0.7,0.7-1.8,1-3.3,1c-0.7,0-1.3,0-1.7-0.1V202z M918.9,208.4c0.2,0,0.6,0.1,1,0.1c2.1,0,3.2-1.1,3.2-3.1c0-1.7-1-2.8-3-2.8
			c-0.5,0-0.9,0-1.1,0.1V208.4z"/>
		<path class="st11" d="M926.3,201.9v4.3c0,1.6,0.7,2.3,1.7,2.3c1.1,0,1.8-0.7,1.8-2.3v-4.3h1v4.2c0,2.2-1.2,3.1-2.8,3.1
			c-1.5,0-2.7-0.9-2.7-3.1v-4.3H926.3z"/>
		<path class="st11" d="M937.7,208.9c-0.4,0.2-1.1,0.3-2,0.3c-2.1,0-3.7-1.3-3.7-3.7c0-2.3,1.6-3.8,3.9-3.8c0.9,0,1.5,0.2,1.8,0.3
			l-0.2,0.8c-0.4-0.2-0.9-0.3-1.5-0.3c-1.7,0-2.9,1.1-2.9,3c0,1.8,1,2.9,2.9,2.9c0.6,0,1.2-0.1,1.6-0.3L937.7,208.9z"/>
		<path class="st11" d="M940.1,206.9l-0.8,2.3h-1l2.5-7.3h1.2l2.5,7.3h-1l-0.8-2.3H940.1z M942.6,206.1l-0.7-2.1
			c-0.2-0.5-0.3-0.9-0.4-1.3h0c-0.1,0.4-0.2,0.9-0.4,1.3l-0.7,2.1H942.6z"/>
		<path class="st11" d="M950.7,208.9c-0.4,0.2-1.1,0.3-2,0.3c-2.1,0-3.7-1.3-3.7-3.7c0-2.3,1.6-3.8,3.9-3.8c0.9,0,1.5,0.2,1.8,0.3
			l-0.2,0.8c-0.4-0.2-0.9-0.3-1.5-0.3c-1.7,0-2.9,1.1-2.9,3c0,1.8,1,2.9,2.9,2.9c0.6,0,1.2-0.1,1.6-0.3L950.7,208.9z"/>
		<rect x="951.9" y="201.9" class="st11" width="1" height="7.3"/>
		<path class="st11" d="M960.9,205.4c0,2.5-1.6,3.8-3.5,3.8c-2,0-3.3-1.5-3.3-3.7c0-2.3,1.5-3.8,3.5-3.8
			C959.6,201.8,960.9,203.3,960.9,205.4 M955.1,205.6c0,1.6,0.9,2.9,2.4,2.9c1.5,0,2.4-1.4,2.4-3c0-1.4-0.8-3-2.4-3
			C955.9,202.5,955.1,204,955.1,205.6"/>
		<path class="st11" d="M962.2,209.2v-7.3h1l2.4,3.7c0.6,0.8,1,1.6,1.3,2.4l0,0c-0.1-1-0.1-1.9-0.1-3v-3h0.9v7.3h-1l-2.4-3.7
			c-0.5-0.8-1-1.6-1.4-2.4l0,0c0.1,0.9,0.1,1.8,0.1,3v3.1H962.2z"/>
		<path class="st11" d="M970.6,206.9l-0.8,2.3h-1l2.5-7.3h1.2l2.5,7.3h-1l-0.8-2.3H970.6z M973.1,206.1l-0.7-2.1
			c-0.2-0.5-0.3-0.9-0.4-1.3h0c-0.1,0.4-0.2,0.9-0.4,1.3l-0.7,2.1H973.1z"/>
		<polygon class="st11" points="976.2,201.9 977.2,201.9 977.2,208.4 980.3,208.4 980.3,209.2 976.2,209.2 		"/>
		<rect x="830.4" y="213.1" class="st12" width="154.3" height="0.5"/>
		<path class="st11" d="M835.4,224.2c0.3,0.2,0.7,0.3,1.2,0.3c0.7,0,1-0.3,1-0.8c0-0.5-0.3-0.7-0.9-1c-0.8-0.3-1.3-0.7-1.3-1.4
			c0-0.8,0.6-1.3,1.6-1.3c0.5,0,0.9,0.1,1.1,0.2l-0.2,0.5c-0.2-0.1-0.5-0.2-0.9-0.2c-0.7,0-0.9,0.4-0.9,0.7c0,0.5,0.3,0.7,1,0.9
			c0.8,0.3,1.3,0.7,1.3,1.4c0,0.7-0.6,1.4-1.7,1.4c-0.5,0-1-0.1-1.3-0.3L835.4,224.2z"/>
		<rect x="839.1" y="220.1" class="st11" width="0.6" height="4.9"/>
		<path class="st11" d="M840.9,220.2c0.3,0,0.7-0.1,1.2-0.1c0.6,0,1.1,0.1,1.4,0.4c0.3,0.2,0.4,0.6,0.4,1c0,0.4-0.1,0.8-0.4,1
			c-0.3,0.4-0.9,0.5-1.5,0.5c-0.2,0-0.4,0-0.5,0v1.9h-0.6V220.2z M841.6,222.5c0.1,0,0.3,0.1,0.5,0.1c0.8,0,1.2-0.4,1.2-1
			c0-0.6-0.5-1-1.2-1c-0.3,0-0.5,0-0.6,0.1V222.5z"/>
		<path class="st11" d="M846.4,220.2c0.3-0.1,0.8-0.1,1.2-0.1c0.7,0,1.1,0.1,1.4,0.4c0.2,0.2,0.4,0.5,0.4,0.9c0,0.6-0.4,1.1-0.9,1.2
			v0c0.4,0.1,0.6,0.5,0.7,1c0.2,0.7,0.3,1.1,0.4,1.3H849c-0.1-0.1-0.2-0.6-0.3-1.2c-0.1-0.7-0.4-0.9-1-0.9h-0.6v2.1h-0.6V220.2z
			 M847.1,222.4h0.7c0.7,0,1.1-0.4,1.1-0.9c0-0.6-0.5-0.9-1.1-0.9c-0.3,0-0.5,0-0.6,0.1V222.4z"/>
		<path class="st11" d="M850.8,223.4c0,0.9,0.6,1.2,1.2,1.2c0.5,0,0.7-0.1,1-0.2l0.1,0.5c-0.2,0.1-0.6,0.2-1.2,0.2
			c-1.1,0-1.8-0.7-1.8-1.8s0.6-1.9,1.7-1.9c1.2,0,1.5,1,1.5,1.6c0,0.1,0,0.2,0,0.3H850.8z M852.7,222.9c0-0.4-0.2-1-0.9-1
			c-0.7,0-0.9,0.6-1,1H852.7z"/>
		<path class="st11" d="M857.2,219.9v4.2c0,0.3,0,0.7,0,0.9h-0.6l0-0.6h0c-0.2,0.4-0.6,0.7-1.2,0.7c-0.9,0-1.5-0.7-1.5-1.8
			c0-1.2,0.7-1.9,1.6-1.9c0.5,0,0.9,0.3,1.1,0.5h0v-2.1H857.2z M856.5,222.9c0-0.1,0-0.2,0-0.3c-0.1-0.4-0.5-0.7-0.9-0.7
			c-0.7,0-1.1,0.6-1.1,1.4c0,0.7,0.4,1.3,1.1,1.3c0.4,0,0.8-0.3,1-0.8c0-0.1,0-0.2,0-0.3V222.9z"/>
		<path class="st11" d="M862.9,219.9v4.2c0,0.3,0,0.7,0,0.9h-0.6l0-0.6h0c-0.2,0.4-0.6,0.7-1.2,0.7c-0.9,0-1.5-0.7-1.5-1.8
			c0-1.2,0.7-1.9,1.6-1.9c0.5,0,0.9,0.3,1.1,0.5h0v-2.1H862.9z M862.3,222.9c0-0.1,0-0.2,0-0.3c-0.1-0.4-0.4-0.7-0.9-0.7
			c-0.7,0-1.1,0.6-1.1,1.4c0,0.7,0.4,1.3,1.1,1.3c0.4,0,0.8-0.3,1-0.8c0-0.1,0-0.2,0-0.3V222.9z"/>
		<path class="st11" d="M864.4,223.4c0,0.9,0.6,1.2,1.2,1.2c0.5,0,0.7-0.1,1-0.2l0.1,0.5c-0.2,0.1-0.6,0.2-1.2,0.2
			c-1.1,0-1.8-0.7-1.8-1.8s0.6-1.9,1.7-1.9c1.2,0,1.5,1,1.5,1.6c0,0.1,0,0.2,0,0.3H864.4z M866.3,222.9c0-0.4-0.2-1-0.9-1
			c-0.7,0-0.9,0.6-1,1H866.3z"/>
		<path class="st11" d="M872.8,224.8c-0.2,0.1-0.7,0.2-1.3,0.2c-1.4,0-2.5-0.9-2.5-2.5c0-1.5,1.1-2.6,2.6-2.6c0.6,0,1,0.1,1.2,0.2
			l-0.2,0.5c-0.3-0.1-0.6-0.2-1-0.2c-1.2,0-1.9,0.7-1.9,2c0,1.2,0.7,2,1.9,2c0.4,0,0.8-0.1,1.1-0.2L872.8,224.8z"/>
		<path class="st11" d="M876.7,223.2c0,1.3-0.9,1.9-1.8,1.9c-1,0-1.7-0.7-1.7-1.8c0-1.2,0.8-1.9,1.8-1.9
			C876,221.4,876.7,222.2,876.7,223.2 M873.9,223.3c0,0.8,0.5,1.3,1.1,1.3c0.6,0,1.1-0.6,1.1-1.4c0-0.6-0.3-1.3-1.1-1.3
			C874.2,221.9,873.9,222.6,873.9,223.3"/>
		<rect x="877.6" y="219.9" class="st11" width="0.7" height="5.1"/>
		<path class="st11" d="M879.7,223.4c0,0.9,0.6,1.2,1.2,1.2c0.5,0,0.7-0.1,1-0.2l0.1,0.5c-0.2,0.1-0.6,0.2-1.2,0.2
			c-1.1,0-1.8-0.7-1.8-1.8s0.6-1.9,1.7-1.9c1.2,0,1.5,1,1.5,1.6c0,0.1,0,0.2,0,0.3H879.7z M881.6,222.9c0-0.4-0.2-1-0.9-1
			c-0.7,0-0.9,0.6-1,1H881.6z"/>
		<path class="st11" d="M886.1,221.5c0,0.3,0,0.5,0,1v2c0,0.8-0.2,1.3-0.5,1.6c-0.3,0.3-0.8,0.4-1.3,0.4c-0.4,0-0.9-0.1-1.2-0.3
			l0.2-0.5c0.2,0.1,0.6,0.3,1.1,0.3c0.7,0,1.2-0.3,1.2-1.2v-0.4h0c-0.2,0.3-0.6,0.6-1.1,0.6c-0.9,0-1.5-0.7-1.5-1.7
			c0-1.2,0.8-1.9,1.6-1.9c0.6,0,1,0.3,1.1,0.6h0l0-0.5H886.1z M885.4,222.9c0-0.1,0-0.2,0-0.3c-0.1-0.4-0.4-0.7-0.9-0.7
			c-0.6,0-1.1,0.5-1.1,1.3c0,0.7,0.4,1.3,1.1,1.3c0.4,0,0.8-0.2,0.9-0.6c0-0.1,0.1-0.2,0.1-0.3V222.9z"/>
		<path class="st11" d="M887.8,220.5c0,0.2-0.2,0.4-0.4,0.4c-0.2,0-0.4-0.2-0.4-0.4c0-0.2,0.2-0.4,0.4-0.4
			C887.7,220.1,887.8,220.3,887.8,220.5 M887.1,221.5h0.7v3.5h-0.7V221.5z"/>
		<path class="st11" d="M892.1,223.2c0,1.3-0.9,1.9-1.8,1.9c-1,0-1.7-0.7-1.7-1.8c0-1.2,0.8-1.9,1.8-1.9
			C891.4,221.4,892.1,222.2,892.1,223.2 M889.2,223.3c0,0.8,0.5,1.3,1.1,1.3c0.6,0,1.1-0.6,1.1-1.4c0-0.6-0.3-1.3-1.1-1.3
			C889.6,221.9,889.2,222.6,889.2,223.3"/>
		<path class="st11" d="M892.8,224.3c0.2,0.1,0.5,0.3,0.9,0.3c0.5,0,0.7-0.2,0.7-0.5c0-0.3-0.2-0.5-0.7-0.6c-0.6-0.2-0.9-0.6-0.9-1
			c0-0.6,0.5-1,1.2-1c0.4,0,0.7,0.1,0.9,0.2l-0.2,0.5c-0.1-0.1-0.4-0.2-0.7-0.2c-0.4,0-0.6,0.2-0.6,0.5c0,0.3,0.2,0.4,0.7,0.6
			c0.6,0.2,0.9,0.5,0.9,1.1c0,0.6-0.5,1-1.3,1c-0.4,0-0.8-0.1-1-0.2L892.8,224.3z"/>
		<rect x="897.5" y="219.6" class="st11" width="0.5" height="7.2"/>
		<polygon class="st11" points="900.7,220.1 903.4,220.1 903.4,220.7 901.4,220.7 901.4,222.3 903.3,222.3 903.3,222.8 901.4,222.8 
			901.4,225 900.7,225 		"/>
		<path class="st11" d="M907.1,224c0,0.4,0,0.7,0,1h-0.6l0-0.6h0c-0.2,0.3-0.5,0.6-1.2,0.6c-0.6,0-1.2-0.3-1.2-1.5v-2h0.6v1.9
			c0,0.7,0.2,1.1,0.8,1.1c0.4,0,0.7-0.3,0.9-0.6c0-0.1,0.1-0.2,0.1-0.3v-2.1h0.6V224z"/>
		<path class="st11" d="M908.1,222.4c0-0.4,0-0.7,0-0.9h0.6l0,0.6h0c0.2-0.3,0.6-0.7,1.2-0.7c0.5,0,1.3,0.3,1.3,1.5v2.1h-0.7v-2
			c0-0.6-0.2-1-0.8-1c-0.4,0-0.8,0.3-0.9,0.6c0,0.1,0,0.2,0,0.3v2.1h-0.7V222.4z"/>
		<path class="st11" d="M915.3,219.9v4.2c0,0.3,0,0.7,0,0.9h-0.6l0-0.6h0c-0.2,0.4-0.6,0.7-1.2,0.7c-0.9,0-1.5-0.7-1.5-1.8
			c0-1.2,0.7-1.9,1.6-1.9c0.5,0,0.9,0.3,1.1,0.5h0v-2.1H915.3z M914.7,222.9c0-0.1,0-0.2,0-0.3c-0.1-0.4-0.5-0.7-0.9-0.7
			c-0.7,0-1.1,0.6-1.1,1.4c0,0.7,0.4,1.3,1.1,1.3c0.4,0,0.8-0.3,1-0.8c0-0.1,0-0.2,0-0.3V222.9z"/>
		<path class="st11" d="M918.4,225l-0.1-0.4h0c-0.2,0.3-0.6,0.5-1.1,0.5c-0.7,0-1.1-0.5-1.1-1c0-0.8,0.8-1.3,2.2-1.3v-0.1
			c0-0.3-0.1-0.8-0.8-0.8c-0.3,0-0.7,0.1-0.9,0.3l-0.1-0.4c0.3-0.2,0.7-0.3,1.2-0.3c1.1,0,1.4,0.7,1.4,1.4v1.3c0,0.3,0,0.6,0.1,0.8
			H918.4z M918.3,223.2c-0.7,0-1.5,0.1-1.5,0.8c0,0.4,0.3,0.6,0.6,0.6c0.5,0,0.8-0.3,0.9-0.6c0-0.1,0-0.1,0-0.2V223.2z"/>
		<path class="st11" d="M922.5,224.9c-0.2,0.1-0.5,0.2-1,0.2c-1.1,0-1.8-0.7-1.8-1.8c0-1.1,0.8-1.9,1.9-1.9c0.4,0,0.7,0.1,0.9,0.2
			l-0.1,0.5c-0.2-0.1-0.4-0.2-0.8-0.2c-0.8,0-1.3,0.6-1.3,1.3c0,0.8,0.5,1.3,1.2,1.3c0.4,0,0.6-0.1,0.8-0.2L922.5,224.9z"/>
		<path class="st11" d="M924,220.5c0,0.2-0.2,0.4-0.4,0.4c-0.2,0-0.4-0.2-0.4-0.4c0-0.2,0.2-0.4,0.4-0.4
			C923.9,220.1,924,220.3,924,220.5 M923.3,221.5h0.7v3.5h-0.7V221.5z"/>
		<path class="st11" d="M928.3,223.2c0,1.3-0.9,1.9-1.8,1.9c-1,0-1.7-0.7-1.7-1.8c0-1.2,0.8-1.9,1.8-1.9
			C927.6,221.4,928.3,222.2,928.3,223.2 M925.4,223.3c0,0.8,0.4,1.3,1.1,1.3c0.6,0,1.1-0.6,1.1-1.4c0-0.6-0.3-1.3-1.1-1.3
			C925.8,221.9,925.4,222.6,925.4,223.3 M927.5,220l-0.9,1h-0.5l0.7-1H927.5z"/>
		<path class="st11" d="M929.1,222.4c0-0.4,0-0.7,0-0.9h0.6l0,0.6h0c0.2-0.3,0.6-0.7,1.2-0.7c0.5,0,1.3,0.3,1.3,1.5v2.1h-0.7v-2
			c0-0.6-0.2-1-0.8-1c-0.4,0-0.8,0.3-0.9,0.6c0,0.1,0,0.2,0,0.3v2.1h-0.6V222.4z"/>
		<path class="st11" d="M934.8,220.2c0.3-0.1,0.8-0.1,1.2-0.1c0.7,0,1.1,0.1,1.4,0.4c0.2,0.2,0.4,0.5,0.4,0.9c0,0.6-0.4,1.1-0.9,1.2
			v0c0.4,0.1,0.6,0.5,0.7,1c0.2,0.7,0.3,1.1,0.4,1.3h-0.7c-0.1-0.1-0.2-0.6-0.3-1.2c-0.1-0.7-0.4-0.9-1-0.9h-0.6v2.1h-0.6V220.2z
			 M935.4,222.4h0.7c0.7,0,1.1-0.4,1.1-0.9c0-0.6-0.5-0.9-1.1-0.9c-0.3,0-0.5,0-0.6,0.1V222.4z"/>
		<path class="st11" d="M939.1,223.4c0,0.9,0.6,1.2,1.2,1.2c0.5,0,0.7-0.1,1-0.2l0.1,0.5c-0.2,0.1-0.6,0.2-1.2,0.2
			c-1.1,0-1.8-0.7-1.8-1.8s0.6-1.9,1.7-1.9c1.2,0,1.5,1,1.5,1.6c0,0.1,0,0.2,0,0.3H939.1z M941,222.9c0-0.4-0.2-1-0.9-1
			c-0.7,0-0.9,0.6-1,1H941z"/>
		<path class="st11" d="M943.2,220.5c0,0.2-0.2,0.4-0.4,0.4c-0.2,0-0.4-0.2-0.4-0.4c0-0.2,0.2-0.4,0.4-0.4
			C943,220.1,943.2,220.3,943.2,220.5 M942.5,221.5h0.6v3.5h-0.6V221.5z"/>
		<path class="st11" d="M944.2,222.4c0-0.4,0-0.7,0-0.9h0.6l0,0.6h0c0.2-0.3,0.6-0.7,1.2-0.7c0.5,0,1.3,0.3,1.3,1.5v2.1h-0.7v-2
			c0-0.6-0.2-1-0.8-1c-0.4,0-0.8,0.3-0.9,0.6c0,0.1,0,0.2,0,0.3v2.1h-0.6V222.4z"/>
		<path class="st11" d="M950.3,225l-0.1-0.4h0c-0.2,0.3-0.6,0.5-1.1,0.5c-0.7,0-1.1-0.5-1.1-1c0-0.8,0.8-1.3,2.2-1.3v-0.1
			c0-0.3-0.1-0.8-0.8-0.8c-0.3,0-0.7,0.1-0.9,0.3l-0.1-0.4c0.3-0.2,0.7-0.3,1.2-0.3c1.1,0,1.4,0.7,1.4,1.4v1.3c0,0.3,0,0.6,0.1,0.8
			H950.3z M950.2,223.2c-0.7,0-1.5,0.1-1.5,0.8c0,0.4,0.3,0.6,0.6,0.6c0.5,0,0.8-0.3,0.9-0.6c0-0.1,0-0.1,0-0.2V223.2z"/>
		<rect x="951.9" y="219.9" class="st11" width="0.6" height="5.1"/>
		<path class="st11" d="M956.7,219.9v4.2c0,0.3,0,0.7,0,0.9h-0.6l0-0.6h0c-0.2,0.4-0.6,0.7-1.2,0.7c-0.9,0-1.5-0.7-1.5-1.8
			c0-1.2,0.7-1.9,1.6-1.9c0.5,0,0.9,0.3,1.1,0.5h0v-2.1H956.7z M956,222.9c0-0.1,0-0.2,0-0.3c-0.1-0.4-0.5-0.7-0.9-0.7
			c-0.7,0-1.1,0.6-1.1,1.4c0,0.7,0.4,1.3,1.1,1.3c0.4,0,0.8-0.3,1-0.8c0-0.1,0-0.2,0-0.3V222.9z"/>
		<path class="st11" d="M961,223.2c0,1.3-0.9,1.9-1.8,1.9c-1,0-1.7-0.7-1.7-1.8c0-1.2,0.8-1.9,1.8-1.9
			C960.3,221.4,961,222.2,961,223.2 M958.2,223.3c0,0.8,0.5,1.3,1.1,1.3c0.6,0,1.1-0.6,1.1-1.4c0-0.6-0.3-1.3-1.1-1.3
			C958.5,221.9,958.2,222.6,958.2,223.3"/>
		<path class="st11" d="M963.3,224.2c0.3,0.2,0.7,0.3,1.2,0.3c0.7,0,1-0.3,1-0.8c0-0.5-0.3-0.7-0.9-1c-0.8-0.3-1.3-0.7-1.3-1.4
			c0-0.8,0.6-1.3,1.6-1.3c0.5,0,0.9,0.1,1.1,0.2l-0.2,0.5c-0.2-0.1-0.5-0.2-0.9-0.2c-0.7,0-0.9,0.4-0.9,0.7c0,0.5,0.3,0.7,1,0.9
			c0.8,0.3,1.3,0.7,1.3,1.4c0,0.7-0.6,1.4-1.7,1.4c-0.5,0-1-0.1-1.3-0.3L963.3,224.2z"/>
		<path class="st11" d="M970.3,223.2c0,1.3-0.9,1.9-1.8,1.9c-1,0-1.7-0.7-1.7-1.8c0-1.2,0.8-1.9,1.8-1.9
			C969.6,221.4,970.3,222.2,970.3,223.2 M967.5,223.3c0,0.8,0.5,1.3,1.1,1.3c0.6,0,1.1-0.6,1.1-1.4c0-0.6-0.3-1.3-1.1-1.3
			C967.8,221.9,967.5,222.6,967.5,223.3"/>
		<rect x="971.2" y="219.9" class="st11" width="0.7" height="5.1"/>
		<path class="st11" d="M974.9,225l-0.1-0.4h0c-0.2,0.3-0.6,0.5-1.1,0.5c-0.7,0-1.1-0.5-1.1-1c0-0.8,0.8-1.3,2.2-1.3v-0.1
			c0-0.3-0.1-0.8-0.8-0.8c-0.3,0-0.7,0.1-0.9,0.3l-0.1-0.4c0.3-0.2,0.7-0.3,1.2-0.3c1.1,0,1.4,0.7,1.4,1.4v1.3c0,0.3,0,0.6,0.1,0.8
			H974.9z M974.8,223.2c-0.7,0-1.5,0.1-1.5,0.8c0,0.4,0.3,0.6,0.6,0.6c0.5,0,0.8-0.3,0.9-0.6c0-0.1,0-0.1,0-0.2V223.2z"/>
		<path class="st11" d="M976.5,222.6c0-0.4,0-0.8,0-1.1h0.6l0,0.7h0c0.2-0.5,0.6-0.8,1-0.8c0.1,0,0.1,0,0.2,0v0.6
			c-0.1,0-0.1,0-0.2,0c-0.5,0-0.8,0.3-0.9,0.8c0,0.1,0,0.2,0,0.3v1.9h-0.6V222.6z"/>
		<path class="st11" d="M979.6,220.5c0,0.2-0.2,0.4-0.4,0.4c-0.2,0-0.4-0.2-0.4-0.4c0-0.2,0.2-0.4,0.4-0.4
			C979.5,220.1,979.6,220.3,979.6,220.5 M978.9,221.5h0.6v3.5h-0.6V221.5z"/>
		<path class="st13" d="M765.3,235.8l52.9-40.1c-11.9-14.5-31.4-23.9-53.5-23.9c-21.7,0-41,9.2-52.9,23.2L765.3,235.8z"/>
	</g>
	<g class="st1">
		<defs>
			<path id="SVGID_15_" d="M713.9,196l51.6,39.4l51.1-38.7c-11.5-14-30.3-23.1-51.6-23.1C744,173.6,725.4,182.4,713.9,196"/>
		</defs>
		<clipPath id="SVGID_16_">
			<use xlink:href="#SVGID_15_"  style="overflow:visible;"/>
		</clipPath>
		
			<radialGradient id="SVGID_17_" cx="210.3519" cy="553.218" r="1.7375" gradientTransform="matrix(-0.6256 23.6593 -24.2409 -0.6106 14311.291 -4454.3291)" gradientUnits="userSpaceOnUse">
			<stop  offset="0" style="stop-color:#CDD74E"/>
			<stop  offset="0.158" style="stop-color:#CDD74E"/>
			<stop  offset="1" style="stop-color:#769034"/>
		</radialGradient>
		<polygon class="st14" points="714,171 712.3,235.4 816.5,238 818.2,173.6 		"/>
	</g>
	<g class="st1">
		<defs>
			<path id="SVGID_18_" d="M754.5,154.1l-0.3,0.8l-34.5,0.2l0.1,0.1h-0.1l25.4,19.1c0,0,0,0,0.1,0l0.3,0.2l-9.5,32.9l28.3-18.6
				l30,18.4l-11.2-33.1l26.1-19h-0.1l0.1,0l-35.4-0.4l-0.4-1.1l-8.7-27.6L754.5,154.1z"/>
		</defs>
		<clipPath id="SVGID_19_">
			<use xlink:href="#SVGID_18_"  style="overflow:visible;"/>
		</clipPath>
		
			<linearGradient id="SVGID_20_" gradientUnits="userSpaceOnUse" x1="215.6482" y1="554.8651" x2="217.3857" y2="554.8651" gradientTransform="matrix(-0.2783 43.7312 -44.8061 -0.2716 25686.1133 -9151.6641)">
			<stop  offset="0" style="stop-color:#5F7DBB"/>
			<stop  offset="0.3417" style="stop-color:#5F7DBB"/>
			<stop  offset="0.6324" style="stop-color:#4E619F"/>
			<stop  offset="0.9532" style="stop-color:#3C395E"/>
			<stop  offset="1" style="stop-color:#3C395E"/>
		</linearGradient>
		<polygon class="st15" points="719.8,125.5 719.2,207.4 809.2,208 809.8,126 		"/>
	</g>
	<polygon class="st7" points="769.2,238.4 767.1,237 814.5,200.1 771.4,238.4 	"/>
	<polygon class="st8" points="707.8,201.8 711,196.4 758.9,232.6 	"/>
	<g class="st1">
		<defs>
			<rect id="SVGID_21_" x="704.1" y="126" width="279.7" height="112.4"/>
		</defs>
		<clipPath id="SVGID_22_">
			<use xlink:href="#SVGID_21_"  style="overflow:visible;"/>
		</clipPath>
		<path class="st16" d="M785.4,173.5c0,0,20.4,5.7,33.8,20.5l3.9-2.6c0,0-11.8-12.7-35-19.6L785.4,173.5z"/>
		<path class="st17" d="M740.8,172c0,0-26.3,7.7-36.7,27.2l2.4,1.6c0,0,10.3-19.9,36.7-27.1L740.8,172z"/>
	</g>
	<g class="st1">
		<path class="st18" d="M96.3,132.2c1.6-0.2,3.4-0.4,5.4-0.4c3.8,0,6.8,1,8.5,2.9c1.7,1.8,2.6,4.1,2.6,7.3c0,3.1-0.8,5.9-2.8,8
			c-1.9,2-5,3.2-9.1,3.2c-1.6,0-3.2,0-4.7-0.2V132.2z M97.8,151.8c0.9,0.1,2.1,0.2,3.4,0.2c6.8,0,10.1-3.8,10.1-9.9
			c0-5.3-2.9-9-9.7-9c-1.6,0-2.9,0.2-3.8,0.3V151.8z"/>
	</g>
	<g class="st1">
		<path class="st18" d="M129.5,145.4c0,5.6-3.8,8-7.2,8c-3.9,0-6.9-3-6.9-7.7c0-5.2,3.4-8,7.1-8
			C126.7,137.7,129.5,140.8,129.5,145.4z M116.9,145.6c0,3.8,2.4,6.6,5.5,6.6c3.1,0,5.6-2.8,5.6-6.7c0-2.8-1.6-6.6-5.5-6.6
			C118.7,138.9,116.9,142.4,116.9,145.6z"/>
		<path class="st18" d="M143.7,152.4c-0.7,0.3-2.2,1-4.4,1c-4.3,0-7.2-3.1-7.2-7.7c0-4.8,3.3-8,7.8-8c1.8,0,3.3,0.5,3.9,0.9
			l-0.5,1.2c-0.8-0.4-1.9-0.9-3.6-0.9c-4,0-6.1,3.1-6.1,6.6c0,3.9,2.5,6.5,5.9,6.5c1.8,0,2.9-0.5,3.8-0.8L143.7,152.4z"/>
		<path class="st18" d="M158.8,149.4c0,1.3,0.1,2.5,0.1,3.7h-1.4l-0.1-2.7h-0.1c-0.8,1.4-2.5,3-5.2,3c-1.9,0-5.1-0.9-5.1-6.6V138
			h1.5v8.4c0,3.3,1,5.6,4,5.6c2.2,0,3.8-1.5,4.4-3c0.2-0.5,0.3-1.1,0.3-1.7V138h1.5V149.4z"/>
		<path class="st18" d="M163.9,141.6c0-1.4-0.1-2.4-0.1-3.6h1.4l0.1,2.7h0.1c0.9-1.7,2.4-3,4.8-3c2.1,0,3.7,1.4,4.3,3.3h0.1
			c0.4-0.9,1-1.6,1.5-2c1-0.8,2-1.3,3.6-1.3c1.5,0,4.9,0.8,4.9,6.5v8.9h-1.5v-8.7c0-3.4-1.3-5.4-3.9-5.4c-1.9,0-3.4,1.4-3.9,3
			c-0.2,0.4-0.3,0.9-0.3,1.5v9.6h-1.5v-9.4c0-2.7-1.3-4.7-3.7-4.7c-2,0-3.6,1.6-4.2,3.4c-0.2,0.4-0.2,0.9-0.2,1.4v9.3h-1.5V141.6z"
			/>
		<path class="st18" d="M189.7,145.4c0,4.8,2.6,6.7,5.7,6.7c2.2,0,3.3-0.4,4.2-0.8l0.4,1.2c-0.6,0.3-2.1,0.9-4.7,0.9
			c-4.3,0-7-3.1-7-7.5c0-5,2.9-8.1,6.8-8.1c4.9,0,5.8,4.6,5.8,6.8c0,0.4,0,0.7-0.1,0.9H189.7z M199.3,144.2c0-2.1-0.8-5.3-4.5-5.3
			c-3.3,0-4.8,3-5,5.3H199.3z"/>
		<path class="st18" d="M204.7,141.6c0-1.4-0.1-2.4-0.1-3.6h1.4l0.1,2.7h0.1c0.8-1.7,2.7-3.1,5.2-3.1c1.4,0,5.2,0.7,5.2,6.3v9H215
			v-8.9c0-2.7-1.1-5.2-4.2-5.2c-2.1,0-3.9,1.5-4.5,3.4c-0.1,0.4-0.2,0.9-0.2,1.3v9.3h-1.5V141.6z"/>
	</g>
	<g class="st1">
		<path class="st18" d="M223.5,133.7v4.3h4.3v1.2h-4.3v9.8c0,1.9,0.6,3.1,2.2,3.1c0.8,0,1.3-0.1,1.7-0.2l0.2,1.2
			c-0.5,0.2-1.2,0.3-2.1,0.3c-1.1,0-2-0.3-2.6-1.1c-0.7-0.8-0.9-2-0.9-3.6v-9.5h-2.5V138h2.5v-3.9L223.5,133.7z"/>
	</g>
	<g class="st1">
		<path class="st18" d="M243.8,145.4c0,5.6-3.8,8-7.2,8c-3.9,0-6.9-3-6.9-7.7c0-5.2,3.4-8,7.1-8
			C240.9,137.7,243.8,140.8,243.8,145.4z M231.2,145.6c0,3.8,2.4,6.6,5.5,6.6c3.1,0,5.6-2.8,5.6-6.7c0-2.8-1.6-6.6-5.5-6.6
			C232.9,138.9,231.2,142.4,231.2,145.6z"/>
		<path class="st18" d="M267.2,145.4c0,5.6-3.8,8-7.2,8c-3.9,0-6.9-3-6.9-7.7c0-5.2,3.4-8,7.1-8
			C264.4,137.7,267.2,140.8,267.2,145.4z M254.7,145.6c0,3.8,2.4,6.6,5.5,6.6c3.1,0,5.6-2.8,5.6-6.7c0-2.8-1.6-6.6-5.5-6.6
			C256.4,138.9,254.7,142.4,254.7,145.6z"/>
	</g>
	<g class="st1">
		<path class="st18" d="M271.1,142.5c0-1.5-0.1-3.1-0.1-4.5h1.4l0.1,3h0.1c0.7-1.9,2.2-3.4,4.3-3.4c0.2,0,0.4,0,0.6,0.1v1.4
			c-0.2-0.1-0.4-0.1-0.7-0.1c-2.1,0-3.5,1.8-3.9,4.2c-0.1,0.4-0.1,0.9-0.1,1.4v8.3h-1.5V142.5z"/>
	</g>
	<g class="st1">
		<path class="st18" d="M282.4,133.7c0,0.7-0.5,1.3-1.3,1.3c-0.7,0-1.2-0.6-1.2-1.3c0-0.7,0.5-1.3,1.2-1.3
			C281.9,132.4,282.4,133,282.4,133.7z M280.5,153v-15h1.5v15H280.5z"/>
	</g>
	<g class="st1">
		<path class="st18" d="M299.1,138c-0.1,1.1-0.1,2.3-0.1,3.9v8.9c0,3.8-0.8,5.8-2,6.9c-1.4,1.3-3.4,1.8-5.1,1.8
			c-1.7,0-3.6-0.4-4.8-1.3l0.5-1.2c1,0.7,2.5,1.3,4.4,1.3c3.2,0,5.4-1.6,5.4-6.1v-2.1h-0.1c-0.8,1.5-2.5,2.9-5.2,2.9
			c-3.8,0-6.4-3.3-6.4-7.4c0-5.2,3.4-8,6.8-8c3,0,4.4,1.6,5.1,2.9h0.1l0.1-2.5H299.1z M297.5,143.8c0-0.5-0.1-1-0.2-1.4
			c-0.6-1.8-2.2-3.4-4.7-3.4c-3.2,0-5.4,2.6-5.4,6.6c0,3.4,1.8,6.3,5.3,6.3c2,0,3.9-1.2,4.6-3.4c0.2-0.5,0.3-1.1,0.3-1.6V143.8z"/>
	</g>
	<g class="st1">
		<path class="st18" d="M305.8,133.7c0,0.7-0.5,1.3-1.3,1.3c-0.7,0-1.2-0.6-1.2-1.3c0-0.7,0.5-1.3,1.2-1.3
			C305.3,132.4,305.8,133,305.8,133.7z M303.8,153v-15h1.5v15H303.8z"/>
		<path class="st18" d="M310.4,141.6c0-1.4-0.1-2.4-0.1-3.6h1.4l0.1,2.7h0.1c0.8-1.7,2.7-3.1,5.2-3.1c1.4,0,5.2,0.7,5.2,6.3v9h-1.5
			v-8.9c0-2.7-1.1-5.2-4.2-5.2c-2.1,0-3.9,1.5-4.5,3.4c-0.1,0.4-0.2,0.9-0.2,1.3v9.3h-1.5V141.6z"/>
		<path class="st18" d="M335.3,153l-0.2-2.2H335c-0.7,1.2-2.4,2.5-4.8,2.5c-3,0-4.4-2.1-4.4-4.1c0-3.5,3.1-5.6,9.2-5.5v-0.4
			c0-1.5-0.3-4.5-3.8-4.4c-1.3,0-2.7,0.3-3.8,1.1l-0.5-1.1c1.3-0.9,3-1.3,4.4-1.3c4.3,0,5.2,3.3,5.2,5.9v5.8c0,1.2,0.1,2.4,0.2,3.6
			H335.3z M335,145c-3.3-0.1-7.6,0.4-7.6,4c0,2.2,1.4,3.1,3,3.1c2.5,0,3.9-1.5,4.4-3c0.1-0.3,0.2-0.6,0.2-0.9V145z"/>
		<path class="st18" d="M341.3,130.8h1.5V153h-1.5V130.8z"/>
		<path class="st18" d="M366.8,130.8v18.7c0,1.1,0.1,2.4,0.1,3.5h-1.3l-0.1-2.8h-0.1c-0.8,1.7-2.6,3.2-5.3,3.2
			c-3.7,0-6.5-3.1-6.5-7.6c0-5,3.1-8.1,6.8-8.1c2.6,0,4.2,1.3,4.9,2.6h0.1v-9.5H366.8z M365.3,144c0-0.4-0.1-1-0.2-1.4
			c-0.5-2-2.3-3.7-4.7-3.7c-3.3,0-5.3,2.8-5.3,6.8c0,3.4,1.7,6.5,5.3,6.5c2.2,0,4.2-1.4,4.8-3.9c0.1-0.4,0.2-0.8,0.2-1.3V144z"/>
		<path class="st18" d="M372,145.4c0,4.8,2.6,6.7,5.7,6.7c2.2,0,3.3-0.4,4.2-0.8l0.4,1.2c-0.6,0.3-2.1,0.9-4.7,0.9
			c-4.3,0-7-3.1-7-7.5c0-5,2.9-8.1,6.8-8.1c4.9,0,5.8,4.6,5.8,6.8c0,0.4,0,0.7-0.1,0.9H372z M381.6,144.2c0-2.1-0.8-5.3-4.5-5.3
			c-3.3,0-4.8,3-5,5.3H381.6z"/>
	</g>
	<g class="st1">
		<defs>
			<rect id="SVGID_23_" x="93.7" y="182.2" width="356.7" height="55.9"/>
		</defs>
		<clipPath id="SVGID_24_">
			<use xlink:href="#SVGID_23_"  style="overflow:visible;"/>
		</clipPath>
		<path class="st19" d="M115.5,231v-14h-3.2v11.8c-1-0.6-2-1.2-3.1-1.7v-25c0.8,0.9,2.3,1.2,3.4,1.3c1.8,0.2,3.8,0.3,5.6,0.2
			c1.8,0,3.8-0.1,5.6-0.4c1.1-0.2,2.6-0.4,3.4-1.3v0.6v0V227c-1.1,0.5-2.1,1.1-3.1,1.7v-19.3h-3.2V231c-0.4,0.3-0.8,0.7-1.2,1v-18.8
			h-3.2V232C116.3,231.7,115.9,231.4,115.5,231"/>
		<path class="st19" d="M139.9,227.4c-7.3-0.1-15,2.7-21.6,10.7c-6.7-8-14.3-10.8-21.6-10.7v-2.1c8.3-0.1,15.7,3.4,21.6,9.7
			c5.9-6.4,13.3-9.9,21.6-9.7V227.4z"/>
		<path class="st20" d="M95.7,227.5c-0.7,0-1.3,0.1-2,0.2l0-29.1c3.2-0.1,10.2,1.5,14.5,2.9v2.6c-4-1.4-9.8-3-12.5-3l0,21.8h0v1.3
			l0,1.2h0V227.5z"/>
		<path class="st20" d="M128.4,201.5c4.3-1.4,11.3-3,14.5-2.9l0,29c-0.6-0.1-1.3-0.1-2-0.2v-2.1l0,0l0-2.5v-0.1l0-21.7
			c-2.7,0-8.5,1.6-12.5,3V201.5z"/>
		<path class="st20" d="M112.6,200.7l-3.6-4l8.5-14.5l0.2,10.2c-0.6,0.2-1,0.7-1,1.3c0,0.8,0.6,1.4,1.4,1.4c0.8,0,1.4-0.6,1.4-1.4
			c0-0.6-0.4-1.2-1-1.3l-0.2-10.2l9.3,14.2l-3.4,4.1c1.5,0.2,2.5,0.5,2.5,0.8c0,0.6-3.7,1.2-8.2,1.3s-8.2-0.4-8.2-1
			C110.2,201.3,111.1,201,112.6,200.7"/>
		<path class="st19" d="M166,219.2h2.5c3.9,0,4.5-3.2,4.5-5.1c0-1.3-0.4-4.9-5-4.9h-2V219.2z M159.6,203.9H170
			c6.9,0,9.3,5.1,9.3,10.2c0,6.3-3.3,10.3-10.5,10.3h-9.2V203.9z"/>
	</g>
	<polygon class="st21" points="183,203.9 200,203.9 200,209.2 189.4,209.2 189.4,211.8 199.1,211.8 199.1,216.7 189.4,216.7 
		189.4,219.2 200.4,219.2 200.4,224.5 183,224.5 	"/>
	<path class="st21" d="M215,217.1l-1.8-6.3h-0.1l-2,6.3H215z M210,203.9h6.2l7.5,20.5h-6.6l-0.9-2.9h-6.5l-0.9,2.9h-6.4L210,203.9z"
		/>
	<polygon class="st21" points="226.1,203.9 232.6,203.9 238.6,214.9 238.6,214.9 238.6,203.9 244.6,203.9 244.6,224.5 238.5,224.5 
		232.2,213.3 232.1,213.3 232.1,224.5 226.1,224.5 	"/>
	<g class="st1">
		<defs>
			<rect id="SVGID_25_" x="93.7" y="182.2" width="356.7" height="55.9"/>
		</defs>
		<clipPath id="SVGID_26_">
			<use xlink:href="#SVGID_25_"  style="overflow:visible;"/>
		</clipPath>
		<path class="st22" d="M254,217.6c0,0.5,0.1,1,0.2,1.4c0.5,1.2,1.8,1.5,3,1.5c1,0,2.6-0.3,2.6-1.9c0-1.1-0.9-1.4-4.4-2.4
			c-3.3-0.9-7-1.8-7-6c0-4.7,4.1-6.8,8.3-6.8c4.5,0,8.4,1.7,8.6,6.7h-6c0.1-0.8-0.2-1.3-0.7-1.6c-0.5-0.4-1.2-0.5-1.9-0.5
			c-0.9,0-2.3,0.2-2.3,1.4c0.1,1.5,3.1,1.8,6,2.6c2.9,0.8,5.8,2.2,5.8,5.9c0,5.4-4.9,7.1-9.5,7.1c-2.3,0-9-0.8-9-7.4H254z"/>
	</g>
	<polygon class="st21" points="279.1,203.7 288.9,203.7 288.9,206.9 283,206.9 283,208.5 288,208.5 288,211.5 283,211.5 283,216.3 
		279.1,216.3 	"/>
	<g class="st1">
		<defs>
			<rect id="SVGID_27_" x="93.7" y="182.2" width="356.7" height="55.9"/>
		</defs>
		<clipPath id="SVGID_28_">
			<use xlink:href="#SVGID_27_"  style="overflow:visible;"/>
		</clipPath>
		<path class="st23" d="M296.9,213.4c1,0,2.5-0.7,2.5-3.5c0-2.8-1.5-3.5-2.5-3.5c-1,0-2.5,0.6-2.5,3.5
			C294.4,212.8,295.9,213.4,296.9,213.4 M296.9,203.4c3.8,0,6.4,2.7,6.4,6.6c0,3.8-2.6,6.6-6.4,6.6c-3.8,0-6.4-2.7-6.4-6.6
			C290.5,206.1,293.1,203.4,296.9,203.4"/>
		<path class="st23" d="M309.4,209.2h2c0.7,0,1.7-0.1,1.7-1.3c0-0.8-0.4-1.2-1.9-1.2h-1.8V209.2z M305.5,203.7h7.4
			c2.2,0,4.1,1.2,4.1,3.6c0,1.3-0.6,2.7-1.9,3.2c1.1,0.4,1.7,1.6,1.9,3.1c0.1,0.6,0.1,2.1,0.4,2.7h-3.9c-0.2-0.6-0.3-1.3-0.3-1.9
			c-0.1-1.2-0.2-2.4-1.7-2.4h-2.1v4.4h-3.9V203.7z"/>
	</g>
	<rect x="330.5" y="203.9" class="st21" width="6.3" height="20.5"/>
	<polygon class="st21" points="341.6,203.9 350.6,203.9 353.5,216 353.6,216 356.5,203.9 365.5,203.9 365.5,224.5 359.5,224.5 
		359.5,211.3 359.5,211.3 355.9,224.5 351.2,224.5 347.6,211.3 347.6,211.3 347.6,224.5 341.6,224.5 	"/>
	<g class="st1">
		<defs>
			<rect id="SVGID_29_" x="93.7" y="182.2" width="356.7" height="55.9"/>
		</defs>
		<clipPath id="SVGID_30_">
			<use xlink:href="#SVGID_29_"  style="overflow:visible;"/>
		</clipPath>
		<path class="st24" d="M376.7,213.4h2.4c1.6,0,3.4-0.1,3.4-2.2c0-1.9-1.4-2-3-2h-2.8V213.4z M370.4,203.9H381c5.6,0,7.5,4.1,7.5,7
			c0,5-3.3,7.3-8.1,7.3h-3.7v6.2h-6.3V203.9z"/>
	</g>
	<path class="st21" d="M400.6,217.1l-1.8-6.3h-0.1l-2,6.3H400.6z M395.6,203.9h6.2l7.5,20.5h-6.6l-0.9-2.9h-6.5l-0.9,2.9H388
		L395.6,203.9z"/>
	<g class="st1">
		<defs>
			<rect id="SVGID_31_" x="93.7" y="182.2" width="356.7" height="55.9"/>
		</defs>
		<clipPath id="SVGID_32_">
			<use xlink:href="#SVGID_31_"  style="overflow:visible;"/>
		</clipPath>
		<path class="st25" d="M424.1,211.6c-0.1-0.8-0.7-3-3.3-3c-3,0-3.9,2.9-3.9,5.6c0,2.8,1,5.6,3.9,5.6c2.1,0,3-1.5,3.3-3.4h6.2
			c0,4.1-3.4,8.5-9.4,8.5c-6.6,0-10.4-4.7-10.4-10.8c0-6.5,4.1-10.8,10.4-10.8c5.6,0,8.7,3,9.3,8.1H424.1z"/>
	</g>
	<polygon class="st21" points="432.6,203.9 432.6,209.2 438.4,209.2 438.4,224.5 444.7,224.5 444.7,209.2 450.4,209.2 450.4,203.9 	
		"/>
	<rect x="279.2" y="220.7" class="st21" width="38.2" height="3.8"/>
</g>
</svg>
