<svg xmlns="http://www.w3.org/2000/svg" viewBox="0 0 518.85 647.72"><defs><style>.cls-1{fill:#da72a4;}.cls-2{fill:#fff;}.cls-3,.cls-4{fill:none;stroke:#fff;stroke-miterlimit:10;}.cls-4{stroke-width:2px;}</style></defs><title>link-afiche</title><g id="Capa_2" data-name="Capa 2"><g id="Capa_1-2" data-name="Capa 1"><rect class="cls-1" width="518.85" height="647.72"/><path class="cls-2" d="M187.66,392.14l-2.17-7c-.08-.17-.19-.26-.32-.26H167.88c-.13,0-.24.09-.32.26l-2.16,7a.83.83,0,0,1-.86.65H158a.63.63,0,0,1-.66-.91l14.21-44.26a.82.82,0,0,1,.85-.66h8.18a.84.84,0,0,1,.86.66l14.27,44.26a.78.78,0,0,1,.06.33c0,.39-.24.58-.72.58h-6.54A.81.81,0,0,1,187.66,392.14Zm-17.81-13.23h13.29c.26,0,.35-.13.26-.39l-6.74-21.93c0-.18-.11-.26-.2-.26s-.15.08-.2.26l-6.67,21.93C169.54,378.78,169.63,378.91,169.85,378.91Z"/><path class="cls-2" d="M233.26,353.28a.75.75,0,0,1-.56.23H210.44a.29.29,0,0,0-.33.33v12.24a.29.29,0,0,0,.33.33h15a.79.79,0,0,1,.79.79v5a.79.79,0,0,1-.23.56.77.77,0,0,1-.56.23h-15a.29.29,0,0,0-.33.32V392a.77.77,0,0,1-.78.78h-6a.74.74,0,0,1-.55-.22.75.75,0,0,1-.23-.56V347.75a.79.79,0,0,1,.78-.79h29.4a.79.79,0,0,1,.79.79v5A.75.75,0,0,1,233.26,353.28Z"/><path class="cls-2" d="M239.61,392.57a.75.75,0,0,1-.23-.56V347.75a.79.79,0,0,1,.78-.79h6a.76.76,0,0,1,.55.23.75.75,0,0,1,.23.56V392a.77.77,0,0,1-.78.78h-6A.74.74,0,0,1,239.61,392.57Z"/><path class="cls-2" d="M263.21,391.39a13.92,13.92,0,0,1-5.76-5.4,15.62,15.62,0,0,1-2-8.06V361.76a15.58,15.58,0,0,1,2-8.05,13.73,13.73,0,0,1,5.76-5.37,18.76,18.76,0,0,1,8.64-1.9,19.26,19.26,0,0,1,8.58,1.83,13.56,13.56,0,0,1,5.76,5.18,14.58,14.58,0,0,1,2,7.72.79.79,0,0,1-.79.79l-6,.32c-.52,0-.79-.23-.79-.72a8.34,8.34,0,0,0-2.39-6.22,8.69,8.69,0,0,0-6.38-2.35,8.83,8.83,0,0,0-6.42,2.35,8.32,8.32,0,0,0-2.42,6.22v16.7a8.21,8.21,0,0,0,2.42,6.15,9.92,9.92,0,0,0,12.8,0,8.21,8.21,0,0,0,2.39-6.19c0-.48.27-.72.79-.72l6,.26a.83.83,0,0,1,.56.2.59.59,0,0,1,.23.46,14.89,14.89,0,0,1-2,7.82,13.5,13.5,0,0,1-5.76,5.21,19.26,19.26,0,0,1-8.58,1.83A18.64,18.64,0,0,1,263.21,391.39Z"/><path class="cls-2" d="M321.51,347.19a.77.77,0,0,1,.56-.23h6a.79.79,0,0,1,.79.79V392a.79.79,0,0,1-.23.56.78.78,0,0,1-.56.22h-6a.76.76,0,0,1-.56-.22.79.79,0,0,1-.23-.56V373.28A.29.29,0,0,0,321,373H304.26a.29.29,0,0,0-.33.32V392a.79.79,0,0,1-.23.56.75.75,0,0,1-.55.22h-6a.74.74,0,0,1-.55-.22.75.75,0,0,1-.23-.56V347.75a.79.79,0,0,1,.78-.79h6a.76.76,0,0,1,.55.23.79.79,0,0,1,.23.56v18.33a.29.29,0,0,0,.33.33H321a.29.29,0,0,0,.33-.33V347.75A.79.79,0,0,1,321.51,347.19Z"/><path class="cls-2" d="M368.85,353.28a.75.75,0,0,1-.56.23H346c-.22,0-.32.11-.32.33v12.24c0,.22.1.33.32.33h15a.76.76,0,0,1,.55.23.73.73,0,0,1,.23.56v5a.75.75,0,0,1-.23.56.76.76,0,0,1-.55.23H346a.28.28,0,0,0-.32.32v12.64c0,.22.1.33.32.33h22.33a.75.75,0,0,1,.56.23.76.76,0,0,1,.23.55v5a.79.79,0,0,1-.23.56.78.78,0,0,1-.56.22H338.83a.76.76,0,0,1-.56-.22A.79.79,0,0,1,338,392V347.75a.79.79,0,0,1,.23-.56.77.77,0,0,1,.56-.23h29.46a.79.79,0,0,1,.79.79v5A.75.75,0,0,1,368.85,353.28Z"/><path class="cls-2" d="M152.39,472.05l-1.45-4.49a.14.14,0,0,0-.14-.1H140.26a.13.13,0,0,0-.14.1l-1.42,4.49a.4.4,0,0,1-.41.27h-1.18c-.25,0-.34-.12-.27-.37l7.51-23a.38.38,0,0,1,.4-.27h1.52a.4.4,0,0,1,.41.27l7.54,23,0,.14c0,.15-.1.23-.31.23H152.8A.4.4,0,0,1,152.39,472.05Zm-11.71-6.13a.17.17,0,0,0,.12.05h9.46a.18.18,0,0,0,.12-.05.11.11,0,0,0,0-.12l-4.77-14.7a.1.1,0,0,0-.1-.07.1.1,0,0,0-.1.07l-4.77,14.7A.09.09,0,0,0,140.68,465.92Z"/><path class="cls-2" d="M161.94,451.2a5,5,0,0,0-.73,3.07v.88a.13.13,0,0,0,.14.14h4a.3.3,0,0,1,.34.34v1c0,.22-.11.33-.34.33h-4a.13.13,0,0,0-.14.14V472c0,.22-.11.33-.34.33h-1.11c-.23,0-.34-.11-.34-.33V457.08a.13.13,0,0,0-.14-.14h-2.23a.29.29,0,0,1-.33-.33v-1c0-.23.11-.34.33-.34h2.23a.13.13,0,0,0,.14-.14v-.94a8.92,8.92,0,0,1,.46-3.18,3.31,3.31,0,0,1,1.55-1.78,6.65,6.65,0,0,1,3.09-.59h.88a.3.3,0,0,1,.34.34v.91a.3.3,0,0,1-.34.34h-.74A3.26,3.26,0,0,0,161.94,451.2Zm8.43.2a1.67,1.67,0,0,1-.47-1.22,1.69,1.69,0,1,1,3.38,0,1.67,1.67,0,0,1-.47,1.22,1.82,1.82,0,0,1-2.44,0Zm.24,20.55V455.59a.3.3,0,0,1,.34-.34h1.11a.3.3,0,0,1,.34.34V472a.3.3,0,0,1-.34.34H171A.3.3,0,0,1,170.61,472Z"/><path class="cls-2" d="M181,471.34a6,6,0,0,1-2.25-3.34,16.82,16.82,0,0,1-.44-4.23,17.08,17.08,0,0,1,.44-4.19,5.82,5.82,0,0,1,2.23-3.31A6.65,6.65,0,0,1,185,455a7,7,0,0,1,4.14,1.21,5.32,5.32,0,0,1,2.22,3,7.88,7.88,0,0,1,.2.94v.07c0,.16-.1.26-.31.3l-1.08.14h-.06c-.16,0-.26-.1-.31-.3l-.1-.48a4,4,0,0,0-1.59-2.38,5,5,0,0,0-3.11-1,4.77,4.77,0,0,0-3.09,1,4.32,4.32,0,0,0-1.57,2.6,16,16,0,0,0-.31,3.62,15.35,15.35,0,0,0,.31,3.58A4.33,4.33,0,0,0,182,470a4.77,4.77,0,0,0,3.09,1,5.13,5.13,0,0,0,3.13-1,3.84,3.84,0,0,0,1.57-2.42l0-.16c0-.25.18-.35.41-.31l1,.17c.22.05.32.17.3.37l-.13.61a5.25,5.25,0,0,1-2.22,3.09,7.11,7.11,0,0,1-4.14,1.2A6.55,6.55,0,0,1,181,471.34Z"/><path class="cls-2" d="M207.2,456.64a5.64,5.64,0,0,1,1.6,4.19V472a.29.29,0,0,1-.33.33h-1.12c-.23,0-.34-.11-.34-.33V461.17a4.47,4.47,0,0,0-1.22-3.26,4.18,4.18,0,0,0-3.17-1.27,4.48,4.48,0,0,0-3.28,1.23,4.32,4.32,0,0,0-1.25,3.23V472a.3.3,0,0,1-.34.33h-1.12a.29.29,0,0,1-.33-.33V449a.3.3,0,0,1,.33-.34h1.12a.31.31,0,0,1,.34.34v8.28c0,.07,0,.11,0,.12s.06,0,.08,0a5,5,0,0,1,2-1.71,6.42,6.42,0,0,1,2.81-.59A5.73,5.73,0,0,1,207.2,456.64Z"/><path class="cls-2" d="M223.52,470.28a5,5,0,0,0,1.78-2c.11-.21.26-.26.44-.17l.88.44a.3.3,0,0,1,.16.44,5.78,5.78,0,0,1-2.34,2.63,7.06,7.06,0,0,1-3.77,1,6.88,6.88,0,0,1-4-1.15,5.75,5.75,0,0,1-2.26-3.14,9.17,9.17,0,0,1-.37-1.89c-.07-.7-.1-1.58-.1-2.64s0-1.94.05-2.5a8,8,0,0,1,.22-1.55,6.09,6.09,0,0,1,2.21-3.42,7.41,7.41,0,0,1,8.54.15,6.43,6.43,0,0,1,2.06,4,14,14,0,0,1,.13,1.5c0,.57,0,1.29,0,2.15a.3.3,0,0,1-.34.33h-11a.13.13,0,0,0-.14.14,15.48,15.48,0,0,0,.17,2.87,4.31,4.31,0,0,0,1.68,2.62,5.37,5.37,0,0,0,3.29,1A5,5,0,0,0,223.52,470.28Zm-7.86-7.52c0,.09.05.13.14.13h9.43c.09,0,.13,0,.13-.13a14.53,14.53,0,0,0-.16-2.54,4.56,4.56,0,0,0-1.63-2.62,5.27,5.27,0,0,0-6.11,0,4.26,4.26,0,0,0-1.56,2.55A15.56,15.56,0,0,0,215.66,462.76Z"/><path class="cls-2" d="M239.29,451.4a1.64,1.64,0,0,1-.47-1.22,1.61,1.61,0,0,1,.47-1.21,1.64,1.64,0,0,1,1.22-.48,1.64,1.64,0,0,1,1.69,1.69,1.64,1.64,0,0,1-.48,1.22,1.61,1.61,0,0,1-1.21.47A1.64,1.64,0,0,1,239.29,451.4Zm.24,20.55V455.59a.3.3,0,0,1,.34-.34H241a.3.3,0,0,1,.34.34V472a.3.3,0,0,1-.34.34h-1.11A.3.3,0,0,1,239.53,472Z"/><path class="cls-2" d="M268.63,456.54a5.52,5.52,0,0,1,1.49,4.09V472a.3.3,0,0,1-.34.33H268.7c-.23,0-.34-.11-.34-.33V461a4.25,4.25,0,0,0-1.17-3.16,4.06,4.06,0,0,0-3-1.17,4.36,4.36,0,0,0-3.16,1.15,4.09,4.09,0,0,0-1.2,3.11V472a.3.3,0,0,1-.34.33h-1.08c-.23,0-.34-.11-.34-.33V461a4.28,4.28,0,0,0-1.15-3.16,4,4,0,0,0-3-1.17,4.29,4.29,0,0,0-3.16,1.15,4.14,4.14,0,0,0-1.16,3.11V472a.3.3,0,0,1-.34.33h-1.12a.3.3,0,0,1-.34-.33V455.63a.3.3,0,0,1,.34-.34h1.12a.3.3,0,0,1,.34.34v1.52a.11.11,0,0,0,.06.1.08.08,0,0,0,.11,0,4.35,4.35,0,0,1,1.9-1.62,6.59,6.59,0,0,1,2.73-.54,5.72,5.72,0,0,1,3,.76A4.76,4.76,0,0,1,259.3,458c.05.09.1.1.17,0a4.89,4.89,0,0,1,2.06-2.2,6.48,6.48,0,0,1,3.14-.74A5.36,5.36,0,0,1,268.63,456.54Z"/><path class="cls-2" d="M288.84,461.25c.05.65.07,1.49.07,2.52s0,1.88-.07,2.52a8.82,8.82,0,0,1-.27,1.74,5.76,5.76,0,0,1-2.11,3.33,6.35,6.35,0,0,1-4,1.23,5.75,5.75,0,0,1-2.66-.59,4.66,4.66,0,0,1-1.87-1.71s-.09-.06-.12-.05a.12.12,0,0,0,0,.12v8.25a.3.3,0,0,1-.34.34h-1.11a.3.3,0,0,1-.34-.34v-23a.3.3,0,0,1,.34-.34h1.11a.3.3,0,0,1,.34.34v1.62c0,.07,0,.11,0,.12s.07,0,.12-.05a4.66,4.66,0,0,1,1.87-1.71,5.75,5.75,0,0,1,2.66-.59,6.17,6.17,0,0,1,3.88,1.21,6.1,6.1,0,0,1,2.17,3.28A7.51,7.51,0,0,1,288.84,461.25Zm-2.19,6.51a5.17,5.17,0,0,0,.37-1.42,32.43,32.43,0,0,0,0-5.09,7.19,7.19,0,0,0-.34-1.47,4,4,0,0,0-1.52-2.3,4.67,4.67,0,0,0-2.84-.87,4,4,0,0,0-2.65.89,4.43,4.43,0,0,0-1.44,2.28,6,6,0,0,0-.34,1.42,34,34,0,0,0,0,5.21,7.39,7.39,0,0,0,.34,1.49,4.21,4.21,0,0,0,1.44,2.24,4,4,0,0,0,2.65.86,4.48,4.48,0,0,0,2.67-.79,4,4,0,0,0,1.52-2.08Z"/><path class="cls-2" d="M302.63,455.56a.35.35,0,0,1,.21.44l-.31,1.08a.29.29,0,0,1-.44.2,4.23,4.23,0,0,0-1.69-.24,4.12,4.12,0,0,0-3.12,1.44,5,5,0,0,0-1.24,3.43V472c0,.22-.11.33-.34.33h-1.11c-.23,0-.34-.11-.34-.33V455.63a.3.3,0,0,1,.34-.34h1.11a.3.3,0,0,1,.34.34v2.29c0,.07,0,.11,0,.12s.06,0,.09-.08A5.43,5.43,0,0,1,298,455.9a4.68,4.68,0,0,1,2.65-.75A4.33,4.33,0,0,1,302.63,455.56Z"/><path class="cls-2" d="M306.55,451.4a1.67,1.67,0,0,1-.47-1.22,1.69,1.69,0,1,1,3.38,0,1.67,1.67,0,0,1-.47,1.22,1.82,1.82,0,0,1-2.44,0Zm.24,20.55V455.59a.3.3,0,0,1,.34-.34h1.11a.3.3,0,0,1,.34.34V472a.3.3,0,0,1-.34.34h-1.11A.3.3,0,0,1,306.79,472Z"/><path class="cls-2" d="M335.89,456.54a5.52,5.52,0,0,1,1.49,4.09V472c0,.22-.11.33-.34.33H336c-.23,0-.34-.11-.34-.33V461a4.28,4.28,0,0,0-1.16-3.16,4.1,4.1,0,0,0-3-1.17,4.36,4.36,0,0,0-3.16,1.15,4.09,4.09,0,0,0-1.2,3.11V472c0,.22-.11.33-.34.33h-1.08c-.23,0-.34-.11-.34-.33V461a4.28,4.28,0,0,0-1.15-3.16,4,4,0,0,0-3-1.17,4.31,4.31,0,0,0-3.16,1.15,4.18,4.18,0,0,0-1.16,3.11V472c0,.22-.11.33-.34.33h-1.11c-.23,0-.34-.11-.34-.33V455.63a.3.3,0,0,1,.34-.34h1.11a.3.3,0,0,1,.34.34v1.52a.1.1,0,0,0,.07.1s.07,0,.1,0a4.38,4.38,0,0,1,1.91-1.62,6.54,6.54,0,0,1,2.72-.54,5.72,5.72,0,0,1,3,.76,4.76,4.76,0,0,1,1.91,2.15c.05.09.1.1.17,0a4.94,4.94,0,0,1,2.06-2.2,6.49,6.49,0,0,1,3.15-.74A5.35,5.35,0,0,1,335.89,456.54Z"/><path class="cls-2" d="M343.16,451.4a1.64,1.64,0,0,1-.47-1.22,1.69,1.69,0,1,1,3.38,0,1.64,1.64,0,0,1-.48,1.22,1.81,1.81,0,0,1-2.43,0ZM343.4,472V455.59a.3.3,0,0,1,.33-.34h1.12a.31.31,0,0,1,.34.34V472a.3.3,0,0,1-.34.34h-1.12C343.51,472.29,343.4,472.18,343.4,472Z"/><path class="cls-2" d="M364.52,461.34c.05.65.07,1.48.07,2.5a18.59,18.59,0,0,1-.37,4.26,6.1,6.1,0,0,1-2.17,3.28,6.19,6.19,0,0,1-3.88,1.21,5.77,5.77,0,0,1-2.67-.6,5,5,0,0,1-1.9-1.73s-.08-.06-.11-.05-.06.05-.06.12V472a.29.29,0,0,1-.33.33H352a.3.3,0,0,1-.34-.33V449a.31.31,0,0,1,.34-.34h1.12a.3.3,0,0,1,.33.34v8.32a.1.1,0,0,0,.07.11c.05,0,.08,0,.1-.08a4.84,4.84,0,0,1,1.9-1.72,5.65,5.65,0,0,1,2.67-.61,6.27,6.27,0,0,1,3.95,1.23,5.94,5.94,0,0,1,2.13,3.33A8.8,8.8,0,0,1,364.52,461.34Zm-1.82,5a24.65,24.65,0,0,0,.1-2.55,19.93,19.93,0,0,0-.12-2.61,6.32,6.32,0,0,0-.42-1.52,4.19,4.19,0,0,0-1.56-2.21,4.39,4.39,0,0,0-2.74-.86,4,4,0,0,0-2.62.86,4.18,4.18,0,0,0-1.43,2.25,7.19,7.19,0,0,0-.34,1.5,23.5,23.5,0,0,0-.1,2.62c0,1.15,0,2,.08,2.53a6.69,6.69,0,0,0,.32,1.46,4.37,4.37,0,0,0,1.44,2.3A4.12,4.12,0,0,0,358,471a4.59,4.59,0,0,0,2.8-.87,4.12,4.12,0,0,0,1.56-2.3A7.19,7.19,0,0,0,362.7,466.36Z"/><path class="cls-2" d="M369.93,472V449a.3.3,0,0,1,.34-.34h1.11a.3.3,0,0,1,.34.34v23c0,.22-.11.33-.34.33h-1.11C370,472.32,369.93,472.21,369.93,472Z"/><path class="cls-2" d="M386.64,470.28a5,5,0,0,0,1.78-2c.11-.21.26-.26.44-.17l.88.44a.3.3,0,0,1,.16.44,5.78,5.78,0,0,1-2.34,2.63,7,7,0,0,1-3.77,1,6.88,6.88,0,0,1-4-1.15,5.75,5.75,0,0,1-2.26-3.14,9.17,9.17,0,0,1-.37-1.89c-.07-.7-.1-1.58-.1-2.64s0-1.94.05-2.5a8,8,0,0,1,.22-1.55,6.09,6.09,0,0,1,2.21-3.42,7.41,7.41,0,0,1,8.54.15,6.43,6.43,0,0,1,2.06,4,11.82,11.82,0,0,1,.13,1.5c0,.57,0,1.29,0,2.15a.3.3,0,0,1-.34.33h-11a.13.13,0,0,0-.14.14,15.48,15.48,0,0,0,.17,2.87,4.31,4.31,0,0,0,1.68,2.62,5.37,5.37,0,0,0,3.29,1A5,5,0,0,0,386.64,470.28Zm-7.86-7.52c0,.09.05.13.14.13h9.43c.09,0,.14,0,.14-.13a14.32,14.32,0,0,0-.17-2.54,4.56,4.56,0,0,0-1.63-2.62,5.27,5.27,0,0,0-6.11,0,4.26,4.26,0,0,0-1.56,2.55A15.56,15.56,0,0,0,378.78,462.76Z"/><path class="cls-2" d="M163.51,505v.94a.3.3,0,0,1-.34.34h-1.42a.12.12,0,0,0-.13.13v6.16a.3.3,0,0,1-.34.33h-1.12a.29.29,0,0,1-.33-.33v-6.16a.12.12,0,0,0-.14-.13h-10a.3.3,0,0,1-.34-.34V505a1,1,0,0,1,.11-.4l7.13-15.18a.36.36,0,0,1,.37-.24h1.15a.24.24,0,0,1,.23.12.3.3,0,0,1,0,.29l-7,14.84a.13.13,0,0,0,0,.12.12.12,0,0,0,.1.05h8.25a.13.13,0,0,0,.14-.14v-5.74c0-.23.11-.34.33-.34h1.12a.3.3,0,0,1,.34.34v5.74c0,.09,0,.14.13.14h1.42A.3.3,0,0,1,163.51,505Z"/><path class="cls-2" d="M180.48,505.75A10.15,10.15,0,0,1,180,509a5.65,5.65,0,0,1-2.18,3.09,6.55,6.55,0,0,1-3.83,1.07,6.12,6.12,0,0,1-6.15-4.53,7.75,7.75,0,0,1-.34-2.47.3.3,0,0,1,.34-.34H169c.22,0,.33.11.33.34a6.81,6.81,0,0,0,.21,1.86,4.32,4.32,0,0,0,1.52,2.58,4.53,4.53,0,0,0,2.94,1,4.08,4.08,0,0,0,4.26-3,8.7,8.7,0,0,0,.44-2.87,9.07,9.07,0,0,0-.61-3.52,4.07,4.07,0,0,0-4.13-2.63,3.18,3.18,0,0,0-1,.2l-.14.07a.13.13,0,0,1-.1,0,.3.3,0,0,1-.27-.17l-.57-.74a.47.47,0,0,1-.07-.2.33.33,0,0,1,.1-.27l6.05-7.51c.05,0,.06-.08,0-.12a.14.14,0,0,0-.1-.05H168a.3.3,0,0,1-.34-.34v-.91a.31.31,0,0,1,.34-.34H180a.31.31,0,0,1,.34.34v1.12a.63.63,0,0,1-.14.4l-5.64,7.1c0,.05-.06.09,0,.12a.17.17,0,0,0,.14.05,6,6,0,0,1,3.18.93,5.22,5.22,0,0,1,1.92,2.45A11,11,0,0,1,180.48,505.75Z"/><path class="cls-2" d="M185.43,515.28a.29.29,0,0,1-.05-.27l1.59-7a.34.34,0,0,1,.37-.3h.95a.3.3,0,0,1,.25.1.34.34,0,0,1,.05.27l-1.83,7a.32.32,0,0,1-.37.31h-.71A.31.31,0,0,1,185.43,515.28Z"/><path class="cls-2" d="M198.56,489.22h1.22a.31.31,0,0,1,.34.34v23a.3.3,0,0,1-.34.33h-1.12a.3.3,0,0,1-.34-.33V491.42a.1.1,0,0,0,0-.1.13.13,0,0,0-.12,0l-3.65,1.62a.38.38,0,0,1-.16,0q-.21,0-.24-.24l-.14-.81v-.07a.35.35,0,0,1,.21-.34l4-2.2A.92.92,0,0,1,198.56,489.22Z"/><path class="cls-2" d="M218.81,506.33a7.68,7.68,0,0,1-1,4.09,5.49,5.49,0,0,1-2.19,2,7.75,7.75,0,0,1-6.61-.06,5.25,5.25,0,0,1-2.22-2.18,7.51,7.51,0,0,1-.94-3.92,8.14,8.14,0,0,1,.67-3.34,5.36,5.36,0,0,1,2.64-2.67c.14,0,.15-.1,0-.17a5.62,5.62,0,0,1-2-1.76A5.52,5.52,0,0,1,206.1,495a5.79,5.79,0,0,1,.94-3.28,5.3,5.3,0,0,1,2.18-2,6.66,6.66,0,0,1,3.13-.73,6.44,6.44,0,0,1,3.16.73,5.31,5.31,0,0,1,2.11,2,6.17,6.17,0,0,1,.88,3.28,5.8,5.8,0,0,1-1,3.45,5.39,5.39,0,0,1-1.93,1.65c-.11.07-.11.13,0,.17a5.11,5.11,0,0,1,2.67,2.81A8,8,0,0,1,218.81,506.33Zm-1.83-.1a7.41,7.41,0,0,0-.47-2.78,3.92,3.92,0,0,0-1.57-1.91,5,5,0,0,0-2.62-.65,4.1,4.1,0,0,0-4.09,2.39,6.59,6.59,0,0,0-.58,3,6.51,6.51,0,0,0,.78,3.31,4.25,4.25,0,0,0,3.92,2,4.12,4.12,0,0,0,3.79-1.9A6.52,6.52,0,0,0,217,506.23ZM210.19,499a4.64,4.64,0,0,0,2.13.49,4.48,4.48,0,0,0,2.14-.51,4.23,4.23,0,0,0,1.58-1.42,4.8,4.8,0,0,0,.13-4.8,4.22,4.22,0,0,0-1.55-1.64,4.52,4.52,0,0,0-2.34-.59,4.31,4.31,0,0,0-2.29.61,3.81,3.81,0,0,0-1.53,1.65,4.54,4.54,0,0,0-.57,2.2,4.7,4.7,0,0,0,.78,2.64A4,4,0,0,0,210.19,499Z"/><path class="cls-2" d="M228.88,512.75c0-.09,0-.18.07-.27l5.64-8a.15.15,0,0,0,0-.2l-5.64-8a.24.24,0,0,1-.07-.2.17.17,0,0,1,.07-.13.24.24,0,0,1,.2-.07h1.18a.47.47,0,0,1,.41.2l4.77,6.83a.13.13,0,0,0,.1,0,.15.15,0,0,0,.1,0l4.73-6.83a.46.46,0,0,1,.41-.2h1.28a.27.27,0,0,1,.27.13.23.23,0,0,1-.07.27l-5.64,8a.34.34,0,0,0,0,.2l5.64,8a.24.24,0,0,1,.07.2.19.19,0,0,1-.07.14.28.28,0,0,1-.2.06h-1.22a.43.43,0,0,1-.4-.2l-4.73-6.79a.12.12,0,0,0-.11-.07.1.1,0,0,0-.1.07l-4.76,6.79a.45.45,0,0,1-.41.2h-1.25A.27.27,0,0,1,228.88,512.75Z"/><path class="cls-2" d="M265.52,505.65a12.68,12.68,0,0,1-.24,2.74,6.11,6.11,0,0,1-2.21,3.48,7,7,0,0,1-8,.07,5.91,5.91,0,0,1-2.21-3.25,5.66,5.66,0,0,1-.27-1.38A.3.3,0,0,1,253,507h1.14a.3.3,0,0,1,.34.34l.14.71a4.69,4.69,0,0,0,7.45,2.5,4.68,4.68,0,0,0,1.54-2.77,9.6,9.6,0,0,0,.17-2.1,16.94,16.94,0,0,0-.17-2.33,3.73,3.73,0,0,0-1.45-2.6,5,5,0,0,0-3.05-.92,5.66,5.66,0,0,0-2.89.73,3.53,3.53,0,0,0-1.64,2,.37.37,0,0,1-.37.3H253a.3.3,0,0,1-.34-.34V489.56a.3.3,0,0,1,.34-.34H264.2a.3.3,0,0,1,.34.34v.91a.3.3,0,0,1-.34.34h-9.67c-.09,0-.13.05-.13.14l0,9.06s0,.07,0,.08.07,0,.11,0a5.5,5.5,0,0,1,2-1.34,7.44,7.44,0,0,1,2.67-.49,6.85,6.85,0,0,1,4,1.15,5,5,0,0,1,2.06,3.28A17.74,17.74,0,0,1,265.52,505.65Z"/><path class="cls-2" d="M282.69,505.65a12.68,12.68,0,0,1-.24,2.74,6.06,6.06,0,0,1-2.21,3.48,7,7,0,0,1-8,.07,5.91,5.91,0,0,1-2.21-3.25,5.66,5.66,0,0,1-.27-1.38.3.3,0,0,1,.34-.34h1.15c.22,0,.33.11.33.34l.14.71a4.69,4.69,0,0,0,7.45,2.5,4.68,4.68,0,0,0,1.54-2.77,9.6,9.6,0,0,0,.17-2.1,16.94,16.94,0,0,0-.17-2.33,3.73,3.73,0,0,0-1.45-2.6,4.94,4.94,0,0,0-3-.92,5.66,5.66,0,0,0-2.89.73,3.51,3.51,0,0,0-1.63,2,.39.39,0,0,1-.38.3h-1.21a.3.3,0,0,1-.34-.34V489.56a.3.3,0,0,1,.34-.34h11.25a.3.3,0,0,1,.34.34v.91a.3.3,0,0,1-.34.34h-9.66a.12.12,0,0,0-.14.14l0,9.06s0,.07,0,.08.07,0,.12,0a5.37,5.37,0,0,1,2-1.34,7.44,7.44,0,0,1,2.67-.49,6.85,6.85,0,0,1,4,1.15,4.93,4.93,0,0,1,2.06,3.28A17.74,17.74,0,0,1,282.69,505.65Z"/><path class="cls-2" d="M287.1,515.28a.33.33,0,0,1-.05-.27l1.59-7a.34.34,0,0,1,.37-.3H290a.3.3,0,0,1,.25.1.31.31,0,0,1,.05.27l-1.82,7a.34.34,0,0,1-.38.31h-.7A.32.32,0,0,1,287.1,515.28Z"/><path class="cls-2" d="M308.68,506.33a7.68,7.68,0,0,1-1,4.09,5.45,5.45,0,0,1-2.2,2,7.75,7.75,0,0,1-6.61-.06,5.28,5.28,0,0,1-2.21-2.18,7.51,7.51,0,0,1-.95-3.92,8.14,8.14,0,0,1,.68-3.34,5.29,5.29,0,0,1,2.64-2.67c.13,0,.14-.1,0-.17a5.54,5.54,0,0,1-2-1.76A5.47,5.47,0,0,1,296,495a5.79,5.79,0,0,1,.95-3.28,5.3,5.3,0,0,1,2.18-2,6.66,6.66,0,0,1,3.13-.73,6.47,6.47,0,0,1,3.16.73,5.37,5.37,0,0,1,2.11,2,6.17,6.17,0,0,1,.88,3.28,5.74,5.74,0,0,1-1.05,3.45,5.22,5.22,0,0,1-1.93,1.65c-.11.07-.11.13,0,.17a5.11,5.11,0,0,1,2.67,2.81A7.87,7.87,0,0,1,308.68,506.33Zm-1.82-.1a7.21,7.21,0,0,0-.48-2.78,3.87,3.87,0,0,0-1.57-1.91,5,5,0,0,0-2.62-.65,4.12,4.12,0,0,0-4.09,2.39,6.73,6.73,0,0,0-.57,3,6.51,6.51,0,0,0,.78,3.31,4.24,4.24,0,0,0,3.92,2,4.12,4.12,0,0,0,3.78-1.9A6.43,6.43,0,0,0,306.86,506.23Zm-6.8-7.25a4.64,4.64,0,0,0,2.13.49,4.52,4.52,0,0,0,2.15-.51,4.2,4.2,0,0,0,1.57-1.42,4.83,4.83,0,0,0,.14-4.8,4.25,4.25,0,0,0-1.56-1.64,4.46,4.46,0,0,0-2.33-.59,4.35,4.35,0,0,0-2.3.61,3.85,3.85,0,0,0-1.52,1.65,4.54,4.54,0,0,0-.57,2.2,4.69,4.69,0,0,0,.77,2.64A4.09,4.09,0,0,0,300.06,499Z"/><path class="cls-2" d="M326.16,506.33a7.68,7.68,0,0,1-1,4.09,5.49,5.49,0,0,1-2.19,2,7.75,7.75,0,0,1-6.61-.06,5.17,5.17,0,0,1-2.21-2.18,7.42,7.42,0,0,1-.95-3.92,8.14,8.14,0,0,1,.67-3.34,5.36,5.36,0,0,1,2.64-2.67c.14,0,.15-.1,0-.17a5.83,5.83,0,0,1-3.08-5.14,5.72,5.72,0,0,1,.95-3.28,5.18,5.18,0,0,1,2.18-2,6.59,6.59,0,0,1,3.12-.73,6.44,6.44,0,0,1,3.16.73,5.4,5.4,0,0,1,2.12,2,6.26,6.26,0,0,1,.87,3.28,5.8,5.8,0,0,1-1,3.45,5.39,5.39,0,0,1-1.93,1.65c-.11.07-.11.13,0,.17a5.11,5.11,0,0,1,2.67,2.81A7.87,7.87,0,0,1,326.16,506.33Zm-1.83-.1a7.41,7.41,0,0,0-.47-2.78,3.92,3.92,0,0,0-1.57-1.91,5,5,0,0,0-2.62-.65,4.11,4.11,0,0,0-4.09,2.39,6.59,6.59,0,0,0-.58,3,6.51,6.51,0,0,0,.78,3.31,4.25,4.25,0,0,0,3.92,2,4.12,4.12,0,0,0,3.79-1.9A6.52,6.52,0,0,0,324.33,506.23ZM317.54,499a4.64,4.64,0,0,0,2.13.49,4.55,4.55,0,0,0,2.15-.51,4.28,4.28,0,0,0,1.57-1.42,4.8,4.8,0,0,0,.13-4.8A4.22,4.22,0,0,0,322,491.1a4.49,4.49,0,0,0-2.34-.59,4.31,4.31,0,0,0-2.29.61,3.73,3.73,0,0,0-1.52,1.65,4.44,4.44,0,0,0-.58,2.2,4.7,4.7,0,0,0,.78,2.64A4,4,0,0,0,317.54,499Z"/><path class="cls-2" d="M340.24,511.9a6,6,0,0,1-2.25-3.34,16.76,16.76,0,0,1-.44-4.23,17.14,17.14,0,0,1,.44-4.19,5.82,5.82,0,0,1,2.23-3.31,6.71,6.71,0,0,1,4.09-1.25,7,7,0,0,1,4.14,1.22,5.24,5.24,0,0,1,2.21,3,7.93,7.93,0,0,1,.21.94v.07c0,.16-.1.26-.31.31l-1.08.13h-.07c-.15,0-.26-.1-.3-.3l-.1-.48a4,4,0,0,0-1.59-2.38,5,5,0,0,0-3.11-1,4.77,4.77,0,0,0-3.09,1,4.27,4.27,0,0,0-1.57,2.6,16.09,16.09,0,0,0-.31,3.62,15.35,15.35,0,0,0,.31,3.58,4.34,4.34,0,0,0,1.57,2.64,4.82,4.82,0,0,0,3.09,1,5.14,5.14,0,0,0,3.13-1,3.82,3.82,0,0,0,1.57-2.41l0-.17c0-.25.18-.35.41-.31l1.05.17c.22.05.32.17.3.37l-.14.61a5.16,5.16,0,0,1-2.21,3.09,7,7,0,0,1-4.14,1.21A6.56,6.56,0,0,1,340.24,511.9Z"/><path class="cls-2" d="M376.42,497.1a5.52,5.52,0,0,1,1.49,4.09v11.36a.3.3,0,0,1-.34.33h-1.08c-.23,0-.34-.11-.34-.33v-11a4.25,4.25,0,0,0-1.17-3.16,4.06,4.06,0,0,0-3-1.17,4.36,4.36,0,0,0-3.16,1.15,4.11,4.11,0,0,0-1.2,3.11v11.09c0,.22-.11.33-.34.33h-1.08c-.23,0-.34-.11-.34-.33v-11a4.28,4.28,0,0,0-1.15-3.16,4,4,0,0,0-3-1.17,4.29,4.29,0,0,0-3.16,1.15,4.16,4.16,0,0,0-1.16,3.11v11.09a.3.3,0,0,1-.34.33H355.9a.29.29,0,0,1-.33-.33V496.19c0-.23.11-.34.33-.34H357a.3.3,0,0,1,.34.34v1.52a.11.11,0,0,0,.06.1.08.08,0,0,0,.11,0,4.28,4.28,0,0,1,1.91-1.63,6.51,6.51,0,0,1,2.72-.54,5.81,5.81,0,0,1,3,.76,4.81,4.81,0,0,1,1.91,2.15c.05.09.1.1.17,0a4.81,4.81,0,0,1,2.06-2.19,6.38,6.38,0,0,1,3.15-.75A5.35,5.35,0,0,1,376.42,497.1Z"/><path class="cls-3" d="M222.05,60.21s-13.25-.78-11.69,14l.78,5.07s-.78,4.67,2,5.84l.39,3.51-.39,4.67-1.56,3.51-3.51,3.9-9.74,7s-9.74,4.68-10.13,21.82v24.17s1.17,9,3.51,12.47l4.67,11.69-.39,11.3s.78,9.35,3.12,11.3l3.12,20.26v10.52s-3.12,14.42-2,23.77,0,34.3,0,34.3l.78,16.36,3.51,1.56L203,312s-2.73,3.11-2,6.23h2.34v5.07a40.93,40.93,0,0,0,12.47,1.95l.39-1.95s20.26,2.34,25.72-2.34c0,0-2-6.23-8.58-5.07l-4.28-3.5-5.85-4.29-1.95-3.51,1.17-23.38,5.85-21.43,1.56-11.3,10.52-32.35s4.28-14.8,5.45-22.21l.39-4.67s0-7.8-.78-11.3l-.39-32-.78-13.25-.38-15.59s-.78-6.23-5.07-9.35l-8.57-6.23-2-3.12V95.67s5.45-3.12,5.45-6.62V86.32a9.64,9.64,0,0,0,.39-9S237.25,59.82,222.05,60.21Z"/><path class="cls-3" d="M213.09,93.33s6.62-2.33,15.2,2.34"/><path class="cls-3" d="M199.06,200.5s18.32.78,31.18-2.73l7-2,.39-3.51a12.25,12.25,0,0,0,8.18,1.56"/><polyline class="cls-3" points="237.64 192.31 232.57 176.34 229.07 149.06 226.34 139.32"/><path class="cls-3" d="M237.25,195.82s-.39,4.68,1.95,7.41c0,0,3.12-.39,6.23-6.63"/><path class="cls-3" d="M213.48,211l-.78,25.33s-1.17,12.86-1.17,14-1.95,9-1.95,9-4.28,30.4-5.06,47.93a18.38,18.38,0,0,0,17.14-1.17"/><rect class="cls-4" x="275.54" y="49.7" width="118.07" height="157.81"/></g></g></svg>