<?xml version="1.0" encoding="utf-8"?>
<!-- Generator: Adobe Illustrator 22.1.0, SVG Export Plug-In . SVG Version: 6.00 Build 0)  -->
<svg version="1.1" id="Capa_1" xmlns="http://www.w3.org/2000/svg" xmlns:xlink="http://www.w3.org/1999/xlink" x="0px" y="0px"
	 viewBox="0 0 518.8 555.7" style="enable-background:new 0 0 518.8 555.7;" xml:space="preserve">
<style type="text/css">
	.st0{fill:#00B4EC;}
	.st1{fill:#FFFFFF;}
	.st2{fill:none;stroke:#FFFFFF;stroke-miterlimit:10;}
	.st3{fill:none;stroke:#FFFFFF;stroke-width:2;stroke-miterlimit:10;}
</style>
<title>link-afiche</title>
<rect x="0.4" class="st0" width="518.8" height="555.7"/>
<g>
	<path class="st1" d="M188.1,392.1l-2.2-7c-0.1-0.2-0.2-0.3-0.3-0.3h-17.3c-0.1,0-0.2,0.1-0.3,0.3l-2.2,7c-0.1,0.4-0.4,0.7-0.9,0.7
		h-6.5c-0.3,0-0.5-0.1-0.6-0.2c-0.1-0.2-0.2-0.4-0.1-0.7l14.2-44.3c0.1-0.4,0.4-0.7,0.9-0.7h8.2c0.4,0,0.7,0.2,0.9,0.7l14.3,44.3
		c0,0.1,0.1,0.2,0.1,0.3c0,0.4-0.2,0.6-0.7,0.6h-6.5C188.5,392.8,188.2,392.6,188.1,392.1z M170.2,378.9h13.3c0.3,0,0.3-0.1,0.3-0.4
		l-6.7-21.9c0-0.2-0.1-0.3-0.2-0.3c-0.1,0-0.2,0.1-0.2,0.3l-6.7,21.9C169.9,378.8,170,378.9,170.2,378.9z"/>
	<path class="st1" d="M233.7,353.3c-0.2,0.2-0.3,0.2-0.6,0.2h-22.3c-0.2,0-0.3,0.1-0.3,0.3v12.2c0,0.2,0.1,0.3,0.3,0.3h15
		c0.2,0,0.4,0.1,0.6,0.2c0.2,0.2,0.2,0.3,0.2,0.6v5c0,0.2-0.1,0.4-0.2,0.6c-0.2,0.2-0.3,0.2-0.6,0.2h-15c-0.2,0-0.3,0.1-0.3,0.3V392
		c0,0.2-0.1,0.4-0.2,0.6c-0.2,0.2-0.3,0.2-0.6,0.2h-6c-0.2,0-0.4-0.1-0.6-0.2c-0.2-0.2-0.2-0.3-0.2-0.6v-44.3c0-0.2,0.1-0.4,0.2-0.6
		c0.2-0.2,0.3-0.2,0.6-0.2h29.4c0.2,0,0.4,0.1,0.6,0.2c0.2,0.2,0.2,0.3,0.2,0.6v5C233.9,352.9,233.8,353.1,233.7,353.3z"/>
	<path class="st1" d="M240,392.6c-0.2-0.2-0.2-0.3-0.2-0.6v-44.3c0-0.2,0.1-0.4,0.2-0.6c0.2-0.2,0.3-0.2,0.6-0.2h6
		c0.2,0,0.4,0.1,0.6,0.2c0.2,0.2,0.2,0.3,0.2,0.6V392c0,0.2-0.1,0.4-0.2,0.6c-0.2,0.2-0.3,0.2-0.6,0.2h-6
		C240.3,392.8,240.2,392.7,240,392.6z"/>
	<path class="st1" d="M263.6,391.4c-2.5-1.3-4.4-3.1-5.8-5.4c-1.4-2.3-2-5-2-8.1v-16.2c0-3.1,0.7-5.7,2-8.1c1.4-2.3,3.3-4.1,5.8-5.4
		s5.4-1.9,8.6-1.9c3.2,0,6.1,0.6,8.6,1.8s4.4,2.9,5.8,5.2c1.4,2.2,2,4.8,2,7.7c0,0.2-0.1,0.4-0.2,0.6c-0.2,0.2-0.3,0.2-0.6,0.2
		l-6,0.3c-0.5,0-0.8-0.2-0.8-0.7c0-2.6-0.8-4.6-2.4-6.2c-1.6-1.6-3.7-2.4-6.4-2.4c-2.7,0-4.8,0.8-6.4,2.4c-1.6,1.6-2.4,3.6-2.4,6.2
		v16.7c0,2.5,0.8,4.6,2.4,6.2c1.6,1.6,3.8,2.4,6.4,2.4c2.7,0,4.8-0.8,6.4-2.3c1.6-1.5,2.4-3.6,2.4-6.2c0-0.5,0.3-0.7,0.8-0.7l6,0.3
		c0.2,0,0.4,0.1,0.6,0.2c0.2,0.1,0.2,0.3,0.2,0.5c0,3-0.7,5.6-2,7.8c-1.4,2.2-3.3,4-5.8,5.2c-2.5,1.2-5.3,1.8-8.6,1.8
		C269,393.3,266.1,392.7,263.6,391.4z"/>
	<path class="st1" d="M321.9,347.2c0.2-0.2,0.3-0.2,0.6-0.2h6c0.2,0,0.4,0.1,0.6,0.2c0.2,0.2,0.2,0.3,0.2,0.6V392
		c0,0.2-0.1,0.4-0.2,0.6c-0.2,0.2-0.3,0.2-0.6,0.2h-6c-0.2,0-0.4-0.1-0.6-0.2c-0.2-0.2-0.2-0.3-0.2-0.6v-18.7c0-0.2-0.1-0.3-0.3-0.3
		h-16.7c-0.2,0-0.3,0.1-0.3,0.3V392c0,0.2-0.1,0.4-0.2,0.6c-0.2,0.2-0.3,0.2-0.6,0.2h-6c-0.2,0-0.4-0.1-0.6-0.2
		c-0.2-0.2-0.2-0.3-0.2-0.6v-44.3c0-0.2,0.1-0.4,0.2-0.6c0.2-0.2,0.3-0.2,0.6-0.2h6c0.2,0,0.4,0.1,0.6,0.2c0.2,0.2,0.2,0.3,0.2,0.6
		v18.3c0,0.2,0.1,0.3,0.3,0.3h16.7c0.2,0,0.3-0.1,0.3-0.3v-18.3C321.7,347.5,321.8,347.3,321.9,347.2z"/>
	<path class="st1" d="M369.2,353.3c-0.2,0.2-0.3,0.2-0.6,0.2h-22.3c-0.2,0-0.3,0.1-0.3,0.3v12.2c0,0.2,0.1,0.3,0.3,0.3h15
		c0.2,0,0.4,0.1,0.6,0.2c0.2,0.2,0.2,0.3,0.2,0.6v5c0,0.2-0.1,0.4-0.2,0.6c-0.2,0.2-0.3,0.2-0.6,0.2h-15c-0.2,0-0.3,0.1-0.3,0.3
		v12.6c0,0.2,0.1,0.3,0.3,0.3h22.3c0.2,0,0.4,0.1,0.6,0.2c0.2,0.2,0.2,0.3,0.2,0.6v5c0,0.2-0.1,0.4-0.2,0.6
		c-0.2,0.2-0.3,0.2-0.6,0.2h-29.5c-0.2,0-0.4-0.1-0.6-0.2c-0.2-0.2-0.2-0.3-0.2-0.6v-44.3c0-0.2,0.1-0.4,0.2-0.6
		c0.2-0.2,0.3-0.2,0.6-0.2h29.5c0.2,0,0.4,0.1,0.6,0.2c0.2,0.2,0.2,0.3,0.2,0.6v5C369.5,352.9,369.4,353.1,369.2,353.3z"/>
</g>
<g>
	<path class="st1" d="M152.8,472.1l-1.5-4.5c0-0.1-0.1-0.1-0.1-0.1h-10.5c-0.1,0-0.1,0-0.1,0.1l-1.4,4.5c-0.1,0.2-0.2,0.3-0.4,0.3
		h-1.2c-0.2,0-0.3-0.1-0.3-0.4l7.5-23c0.1-0.2,0.2-0.3,0.4-0.3h1.5c0.2,0,0.3,0.1,0.4,0.3l7.5,23l0,0.1c0,0.2-0.1,0.2-0.3,0.2h-1.1
		C153,472.3,152.9,472.2,152.8,472.1z M141.1,465.9c0,0,0.1,0.1,0.1,0.1h9.5c0,0,0.1,0,0.1-0.1s0-0.1,0-0.1l-4.8-14.7
		c0,0-0.1-0.1-0.1-0.1c0,0-0.1,0-0.1,0.1l-4.8,14.7C141,465.8,141,465.9,141.1,465.9z"/>
	<path class="st1" d="M162.3,451.2c-0.5,0.6-0.7,1.7-0.7,3.1v0.9c0,0.1,0,0.1,0.1,0.1h4c0.2,0,0.3,0.1,0.3,0.3v1
		c0,0.2-0.1,0.3-0.3,0.3h-4c-0.1,0-0.1,0-0.1,0.1V472c0,0.2-0.1,0.3-0.3,0.3h-1.1c-0.2,0-0.3-0.1-0.3-0.3v-14.9c0-0.1,0-0.1-0.1-0.1
		h-2.2c-0.2,0-0.3-0.1-0.3-0.3v-1c0-0.2,0.1-0.3,0.3-0.3h2.2c0.1,0,0.1,0,0.1-0.1v-0.9c0-1.3,0.2-2.4,0.5-3.2
		c0.3-0.8,0.8-1.4,1.6-1.8c0.7-0.4,1.8-0.6,3.1-0.6h0.9c0.2,0,0.3,0.1,0.3,0.3v0.9c0,0.2-0.1,0.3-0.3,0.3h-0.7
		C163.7,450.3,162.8,450.6,162.3,451.2z M170.8,451.4c-0.3-0.3-0.5-0.7-0.5-1.2c0-0.5,0.2-0.9,0.5-1.2c0.3-0.3,0.7-0.5,1.2-0.5
		c0.5,0,0.9,0.2,1.2,0.5c0.3,0.3,0.5,0.7,0.5,1.2c0,0.5-0.2,0.9-0.5,1.2c-0.3,0.3-0.7,0.5-1.2,0.5
		C171.5,451.9,171.1,451.7,170.8,451.4z M171,472v-16.4c0-0.2,0.1-0.3,0.3-0.3h1.1c0.2,0,0.3,0.1,0.3,0.3V472c0,0.2-0.1,0.3-0.3,0.3
		h-1.1C171.1,472.3,171,472.2,171,472z"/>
	<path class="st1" d="M181.4,471.3c-1.1-0.8-1.9-1.9-2.2-3.3c-0.3-1.1-0.4-2.5-0.4-4.2c0-1.7,0.1-3.1,0.4-4.2
		c0.4-1.4,1.1-2.5,2.2-3.3c1.1-0.8,2.5-1.2,4.1-1.2c1.6,0,3,0.4,4.1,1.2c1.2,0.8,1.9,1.8,2.2,3c0.1,0.3,0.2,0.6,0.2,0.9v0.1
		c0,0.2-0.1,0.3-0.3,0.3l-1.1,0.1h-0.1c-0.2,0-0.3-0.1-0.3-0.3l-0.1-0.5c-0.2-0.9-0.7-1.7-1.6-2.4c-0.9-0.6-1.9-1-3.1-1
		c-1.2,0-2.3,0.3-3.1,1c-0.8,0.7-1.3,1.5-1.6,2.6c-0.2,0.9-0.3,2.1-0.3,3.6c0,1.6,0.1,2.8,0.3,3.6c0.2,1.1,0.7,2,1.6,2.6
		c0.8,0.7,1.9,1,3.1,1c1.2,0,2.3-0.3,3.1-1c0.9-0.6,1.4-1.4,1.6-2.4l0-0.2c0-0.2,0.2-0.3,0.4-0.3l1,0.2c0.2,0,0.3,0.2,0.3,0.4
		l-0.1,0.6c-0.3,1.3-1.1,2.3-2.2,3.1c-1.2,0.8-2.5,1.2-4.1,1.2C183.8,472.6,182.5,472.2,181.4,471.3z"/>
	<path class="st1" d="M207.6,456.6c1.1,1.1,1.6,2.5,1.6,4.2V472c0,0.2-0.1,0.3-0.3,0.3h-1.1c-0.2,0-0.3-0.1-0.3-0.3v-10.8
		c0-1.3-0.4-2.4-1.2-3.3c-0.8-0.8-1.9-1.3-3.2-1.3c-1.4,0-2.4,0.4-3.3,1.2c-0.8,0.8-1.3,1.9-1.3,3.2V472c0,0.2-0.1,0.3-0.3,0.3H197
		c-0.2,0-0.3-0.1-0.3-0.3v-23c0-0.2,0.1-0.3,0.3-0.3h1.1c0.2,0,0.3,0.1,0.3,0.3v8.3c0,0.1,0,0.1,0.1,0.1c0,0,0.1,0,0.1-0.1
		c0.5-0.7,1.1-1.3,2-1.7c0.8-0.4,1.7-0.6,2.8-0.6C205.1,455.1,206.5,455.6,207.6,456.6z"/>
	<path class="st1" d="M223.9,470.3c0.8-0.5,1.3-1.2,1.8-2c0.1-0.2,0.3-0.3,0.4-0.2l0.9,0.4c0.2,0.1,0.3,0.3,0.2,0.4
		c-0.5,1.1-1.3,2-2.3,2.6c-1.1,0.7-2.3,1-3.8,1c-1.6,0-2.9-0.4-4-1.1c-1.1-0.8-1.9-1.8-2.3-3.1c-0.2-0.6-0.3-1.2-0.4-1.9
		c-0.1-0.7-0.1-1.6-0.1-2.6c0-1.1,0-1.9,0.1-2.5c0-0.6,0.1-1.1,0.2-1.6c0.4-1.4,1.1-2.6,2.2-3.4c1.1-0.9,2.5-1.3,4.1-1.3
		c1.8,0,3.3,0.5,4.4,1.4c1.1,1,1.8,2.3,2.1,4c0.1,0.4,0.1,0.9,0.1,1.5c0,0.6,0,1.3,0,2.1c0,0.2-0.1,0.3-0.3,0.3h-11
		c-0.1,0-0.1,0-0.1,0.1c0,1.4,0.1,2.4,0.2,2.9c0.2,1.1,0.8,2,1.7,2.6c0.9,0.6,2,1,3.3,1C222.3,471,223.2,470.8,223.9,470.3z
		 M216.1,462.8c0,0.1,0,0.1,0.1,0.1h9.4c0.1,0,0.1,0,0.1-0.1c0-1.1-0.1-2-0.2-2.5c-0.2-1.1-0.8-2-1.6-2.6c-0.8-0.7-1.9-1-3.1-1
		c-1.2,0-2.2,0.3-3,1c-0.8,0.6-1.3,1.5-1.6,2.6C216.2,460.5,216.1,461.4,216.1,462.8z"/>
	<path class="st1" d="M239.7,451.4c-0.3-0.3-0.5-0.7-0.5-1.2c0-0.5,0.2-0.9,0.5-1.2c0.3-0.3,0.7-0.5,1.2-0.5c0.5,0,0.9,0.2,1.2,0.5
		c0.3,0.3,0.5,0.7,0.5,1.2c0,0.5-0.2,0.9-0.5,1.2c-0.3,0.3-0.7,0.5-1.2,0.5C240.4,451.9,240,451.7,239.7,451.4z M239.9,472v-16.4
		c0-0.2,0.1-0.3,0.3-0.3h1.1c0.2,0,0.3,0.1,0.3,0.3V472c0,0.2-0.1,0.3-0.3,0.3h-1.1C240,472.3,239.9,472.2,239.9,472z"/>
	<path class="st1" d="M269,456.5c1,1,1.5,2.4,1.5,4.1V472c0,0.2-0.1,0.3-0.3,0.3h-1.1c-0.2,0-0.3-0.1-0.3-0.3v-11
		c0-1.3-0.4-2.4-1.2-3.2s-1.8-1.2-3-1.2c-1.3,0-2.4,0.4-3.2,1.1c-0.8,0.8-1.2,1.8-1.2,3.1V472c0,0.2-0.1,0.3-0.3,0.3h-1.1
		c-0.2,0-0.3-0.1-0.3-0.3v-11c0-1.3-0.4-2.4-1.1-3.2c-0.8-0.8-1.8-1.2-3-1.2c-1.3,0-2.4,0.4-3.2,1.1s-1.2,1.8-1.2,3.1V472
		c0,0.2-0.1,0.3-0.3,0.3h-1.1c-0.2,0-0.3-0.1-0.3-0.3v-16.4c0-0.2,0.1-0.3,0.3-0.3h1.1c0.2,0,0.3,0.1,0.3,0.3v1.5c0,0,0,0.1,0.1,0.1
		c0,0,0.1,0,0.1,0c0.5-0.7,1.1-1.3,1.9-1.6c0.8-0.4,1.7-0.5,2.7-0.5c1.2,0,2.2,0.3,3,0.8c0.8,0.5,1.5,1.2,1.9,2.1
		c0,0.1,0.1,0.1,0.2,0c0.5-1,1.2-1.7,2.1-2.2c0.9-0.5,1.9-0.7,3.1-0.7C266.7,455.1,268,455.5,269,456.5z"/>
	<path class="st1" d="M289.2,461.3c0,0.6,0.1,1.5,0.1,2.5c0,1,0,1.9-0.1,2.5c0,0.6-0.1,1.2-0.3,1.7c-0.3,1.4-1,2.5-2.1,3.3
		s-2.4,1.2-4,1.2c-1,0-1.9-0.2-2.7-0.6c-0.8-0.4-1.4-1-1.9-1.7c0,0-0.1-0.1-0.1-0.1c0,0-0.1,0.1-0.1,0.1v8.2c0,0.2-0.1,0.3-0.3,0.3
		h-1.1c-0.2,0-0.3-0.1-0.3-0.3v-23c0-0.2,0.1-0.3,0.3-0.3h1.1c0.2,0,0.3,0.1,0.3,0.3v1.6c0,0.1,0,0.1,0.1,0.1c0,0,0.1,0,0.1-0.1
		c0.5-0.7,1.1-1.3,1.9-1.7c0.8-0.4,1.7-0.6,2.7-0.6c1.5,0,2.8,0.4,3.9,1.2c1.1,0.8,1.8,1.9,2.2,3.3
		C289.1,460,289.2,460.6,289.2,461.3z M287,467.8c0.2-0.4,0.3-0.9,0.4-1.4c0.1-0.5,0.1-1.4,0.1-2.5c0-1.2,0-2-0.1-2.6
		c-0.1-0.5-0.2-1-0.3-1.5c-0.2-0.9-0.7-1.7-1.5-2.3c-0.8-0.6-1.7-0.9-2.8-0.9c-1.1,0-1.9,0.3-2.7,0.9c-0.7,0.6-1.2,1.4-1.4,2.3
		c-0.2,0.4-0.3,0.9-0.3,1.4c-0.1,0.5-0.1,1.4-0.1,2.6s0,2.1,0.1,2.6c0.1,0.5,0.2,1,0.3,1.5c0.2,0.9,0.7,1.7,1.4,2.2
		c0.7,0.6,1.6,0.9,2.7,0.9c1,0,1.9-0.3,2.7-0.8s1.3-1.2,1.5-2.1L287,467.8z"/>
	<path class="st1" d="M303,455.6c0.2,0.1,0.2,0.2,0.2,0.4l-0.3,1.1c-0.1,0.2-0.2,0.3-0.4,0.2c-0.5-0.2-1-0.3-1.7-0.2
		c-1.3,0-2.3,0.5-3.1,1.4c-0.8,0.9-1.2,2.1-1.2,3.4V472c0,0.2-0.1,0.3-0.3,0.3H295c-0.2,0-0.3-0.1-0.3-0.3v-16.4
		c0-0.2,0.1-0.3,0.3-0.3h1.1c0.2,0,0.3,0.1,0.3,0.3v2.3c0,0.1,0,0.1,0.1,0.1c0,0,0.1,0,0.1-0.1c0.5-0.9,1.1-1.6,1.8-2.1
		c0.8-0.5,1.6-0.7,2.7-0.7C301.8,455.2,302.5,455.3,303,455.6z"/>
	<path class="st1" d="M307,451.4c-0.3-0.3-0.5-0.7-0.5-1.2c0-0.5,0.2-0.9,0.5-1.2c0.3-0.3,0.7-0.5,1.2-0.5c0.5,0,0.9,0.2,1.2,0.5
		c0.3,0.3,0.5,0.7,0.5,1.2c0,0.5-0.2,0.9-0.5,1.2c-0.3,0.3-0.7,0.5-1.2,0.5C307.7,451.9,307.3,451.7,307,451.4z M307.2,472v-16.4
		c0-0.2,0.1-0.3,0.3-0.3h1.1c0.2,0,0.3,0.1,0.3,0.3V472c0,0.2-0.1,0.3-0.3,0.3h-1.1C307.3,472.3,307.2,472.2,307.2,472z"/>
	<path class="st1" d="M336.3,456.5c1,1,1.5,2.4,1.5,4.1V472c0,0.2-0.1,0.3-0.3,0.3h-1.1c-0.2,0-0.3-0.1-0.3-0.3v-11
		c0-1.3-0.4-2.4-1.2-3.2s-1.8-1.2-3-1.2c-1.3,0-2.4,0.4-3.2,1.1c-0.8,0.8-1.2,1.8-1.2,3.1V472c0,0.2-0.1,0.3-0.3,0.3h-1.1
		c-0.2,0-0.3-0.1-0.3-0.3v-11c0-1.3-0.4-2.4-1.1-3.2c-0.8-0.8-1.8-1.2-3-1.2c-1.3,0-2.4,0.4-3.2,1.1c-0.8,0.8-1.2,1.8-1.2,3.1V472
		c0,0.2-0.1,0.3-0.3,0.3h-1.1c-0.2,0-0.3-0.1-0.3-0.3v-16.4c0-0.2,0.1-0.3,0.3-0.3h1.1c0.2,0,0.3,0.1,0.3,0.3v1.5c0,0,0,0.1,0.1,0.1
		c0,0,0.1,0,0.1,0c0.5-0.7,1.1-1.3,1.9-1.6c0.8-0.4,1.7-0.5,2.7-0.5c1.2,0,2.2,0.3,3,0.8c0.8,0.5,1.5,1.2,1.9,2.1
		c0,0.1,0.1,0.1,0.2,0c0.5-1,1.2-1.7,2.1-2.2c0.9-0.5,1.9-0.7,3.1-0.7C334,455.1,335.3,455.5,336.3,456.5z"/>
	<path class="st1" d="M343.6,451.4c-0.3-0.3-0.5-0.7-0.5-1.2c0-0.5,0.2-0.9,0.5-1.2c0.3-0.3,0.7-0.5,1.2-0.5c0.5,0,0.9,0.2,1.2,0.5
		c0.3,0.3,0.5,0.7,0.5,1.2c0,0.5-0.2,0.9-0.5,1.2c-0.3,0.3-0.7,0.5-1.2,0.5C344.3,451.9,343.9,451.7,343.6,451.4z M343.8,472v-16.4
		c0-0.2,0.1-0.3,0.3-0.3h1.1c0.2,0,0.3,0.1,0.3,0.3V472c0,0.2-0.1,0.3-0.3,0.3h-1.1C343.9,472.3,343.8,472.2,343.8,472z"/>
	<path class="st1" d="M364.9,461.3c0,0.7,0.1,1.5,0.1,2.5c0,1.9-0.1,3.3-0.4,4.3c-0.4,1.4-1.1,2.5-2.2,3.3c-1.1,0.8-2.4,1.2-3.9,1.2
		c-1,0-1.9-0.2-2.7-0.6c-0.8-0.4-1.4-1-1.9-1.7c0,0-0.1-0.1-0.1-0.1s-0.1,0.1-0.1,0.1v1.7c0,0.2-0.1,0.3-0.3,0.3h-1.1
		c-0.2,0-0.3-0.1-0.3-0.3v-23c0-0.2,0.1-0.3,0.3-0.3h1.1c0.2,0,0.3,0.1,0.3,0.3v8.3c0,0.1,0,0.1,0.1,0.1c0,0,0.1,0,0.1-0.1
		c0.5-0.7,1.1-1.3,1.9-1.7c0.8-0.4,1.7-0.6,2.7-0.6c1.6,0,2.9,0.4,4,1.2c1.1,0.8,1.8,1.9,2.1,3.3
		C364.8,460.1,364.9,460.7,364.9,461.3z M363.1,466.4c0.1-0.5,0.1-1.4,0.1-2.6c0-1.2,0-2.1-0.1-2.6c-0.1-0.5-0.2-1-0.4-1.5
		c-0.3-0.9-0.8-1.6-1.6-2.2c-0.8-0.6-1.7-0.9-2.7-0.9c-1,0-1.9,0.3-2.6,0.9c-0.7,0.6-1.2,1.3-1.4,2.2c-0.2,0.5-0.3,1-0.3,1.5
		c-0.1,0.6-0.1,1.4-0.1,2.6c0,1.1,0,2,0.1,2.5c0.1,0.5,0.2,1,0.3,1.5c0.2,0.9,0.7,1.7,1.4,2.3c0.7,0.6,1.6,0.9,2.7,0.9
		s2-0.3,2.8-0.9c0.8-0.6,1.3-1.4,1.6-2.3C362.9,467.4,363,466.9,363.1,466.4z"/>
	<path class="st1" d="M370.3,472v-23c0-0.2,0.1-0.3,0.3-0.3h1.1c0.2,0,0.3,0.1,0.3,0.3v23c0,0.2-0.1,0.3-0.3,0.3h-1.1
		C370.4,472.3,370.3,472.2,370.3,472z"/>
	<path class="st1" d="M387,470.3c0.8-0.5,1.3-1.2,1.8-2c0.1-0.2,0.3-0.3,0.4-0.2l0.9,0.4c0.2,0.1,0.3,0.3,0.2,0.4
		c-0.5,1.1-1.3,2-2.3,2.6c-1.1,0.7-2.3,1-3.8,1c-1.6,0-2.9-0.4-4-1.1c-1.1-0.8-1.9-1.8-2.3-3.1c-0.2-0.6-0.3-1.2-0.4-1.9
		c-0.1-0.7-0.1-1.6-0.1-2.6c0-1.1,0-1.9,0.1-2.5s0.1-1.1,0.2-1.6c0.4-1.4,1.1-2.6,2.2-3.4s2.5-1.3,4.1-1.3c1.8,0,3.3,0.5,4.4,1.4
		c1.1,1,1.8,2.3,2.1,4c0.1,0.4,0.1,0.9,0.1,1.5c0,0.6,0,1.3,0,2.1c0,0.2-0.1,0.3-0.3,0.3h-11c-0.1,0-0.1,0-0.1,0.1
		c0,1.4,0.1,2.4,0.2,2.9c0.2,1.1,0.8,2,1.7,2.6c0.9,0.6,2,1,3.3,1C385.4,471,386.3,470.8,387,470.3z M379.2,462.8
		c0,0.1,0,0.1,0.1,0.1h9.4c0.1,0,0.1,0,0.1-0.1c0-1.1-0.1-2-0.2-2.5c-0.2-1.1-0.8-2-1.6-2.6c-0.8-0.7-1.9-1-3.1-1s-2.2,0.3-3,1
		c-0.8,0.6-1.3,1.5-1.6,2.6C379.3,460.5,379.2,461.4,379.2,462.8z"/>
	<path class="st1" d="M163.9,505v0.9c0,0.2-0.1,0.3-0.3,0.3h-1.4c-0.1,0-0.1,0-0.1,0.1v6.2c0,0.2-0.1,0.3-0.3,0.3h-1.1
		c-0.2,0-0.3-0.1-0.3-0.3v-6.2c0-0.1,0-0.1-0.1-0.1h-10c-0.2,0-0.3-0.1-0.3-0.3V505c0-0.1,0-0.2,0.1-0.4l7.1-15.2
		c0.1-0.2,0.2-0.2,0.4-0.2h1.1c0.1,0,0.2,0,0.2,0.1c0,0.1,0,0.2,0,0.3l-7,14.8c0,0,0,0.1,0,0.1c0,0,0.1,0.1,0.1,0.1h8.2
		c0.1,0,0.1,0,0.1-0.1v-5.7c0-0.2,0.1-0.3,0.3-0.3h1.1c0.2,0,0.3,0.1,0.3,0.3v5.7c0,0.1,0,0.1,0.1,0.1h1.4
		C163.8,504.6,163.9,504.7,163.9,505z"/>
	<path class="st1" d="M180.9,505.8c0,1.2-0.2,2.3-0.5,3.2c-0.4,1.4-1.2,2.4-2.2,3.1c-1,0.7-2.3,1.1-3.8,1.1c-1.6,0-2.9-0.4-3.9-1.2
		s-1.8-1.9-2.2-3.3c-0.2-0.7-0.3-1.5-0.3-2.5c0-0.2,0.1-0.3,0.3-0.3h1.1c0.2,0,0.3,0.1,0.3,0.3c0,0.8,0.1,1.4,0.2,1.9
		c0.2,1.1,0.7,1.9,1.5,2.6c0.8,0.6,1.8,1,2.9,1c2.2,0,3.6-1,4.3-3c0.3-0.8,0.4-1.8,0.4-2.9c0-1.4-0.2-2.6-0.6-3.5
		c-0.7-1.8-2.1-2.6-4.1-2.6c-0.3,0-0.6,0.1-1,0.2l-0.1,0.1c0,0-0.1,0-0.1,0c-0.1,0-0.2-0.1-0.3-0.2l-0.6-0.7c0-0.1-0.1-0.2-0.1-0.2
		c0-0.1,0-0.2,0.1-0.3l6.1-7.5c0,0,0.1-0.1,0-0.1c0,0-0.1-0.1-0.1-0.1h-9.9c-0.2,0-0.3-0.1-0.3-0.3v-0.9c0-0.2,0.1-0.3,0.3-0.3h12.1
		c0.2,0,0.3,0.1,0.3,0.3v1.1c0,0.2,0,0.3-0.1,0.4l-5.6,7.1c0,0-0.1,0.1,0,0.1c0,0,0.1,0.1,0.1,0.1c1.3,0,2.3,0.4,3.2,0.9
		c0.9,0.6,1.5,1.4,1.9,2.5C180.7,502.9,180.9,504.2,180.9,505.8z"/>
	<path class="st1" d="M185.8,515.3c-0.1-0.1-0.1-0.2-0.1-0.3l1.6-7c0-0.2,0.2-0.3,0.4-0.3h0.9c0.1,0,0.2,0,0.3,0.1
		c0.1,0.1,0.1,0.2,0.1,0.3l-1.8,7c0,0.2-0.1,0.3-0.4,0.3h-0.7C186,515.4,185.9,515.4,185.8,515.3z"/>
	<path class="st1" d="M199,489.2h1.2c0.2,0,0.3,0.1,0.3,0.3v23c0,0.2-0.1,0.3-0.3,0.3h-1.1c-0.2,0-0.3-0.1-0.3-0.3v-21.1
		c0,0,0-0.1-0.1-0.1c0,0-0.1,0-0.1,0l-3.7,1.6c0,0-0.1,0-0.2,0c-0.1,0-0.2-0.1-0.2-0.2l-0.1-0.8v-0.1c0-0.2,0.1-0.3,0.2-0.3l4-2.2
		C198.6,489.3,198.8,489.2,199,489.2z"/>
	<path class="st1" d="M219.2,506.3c0,1.6-0.3,3-1,4.1c-0.5,0.9-1.3,1.6-2.2,2c-0.9,0.5-2,0.7-3.2,0.7c-1.3,0-2.4-0.3-3.4-0.8
		c-1-0.5-1.7-1.2-2.2-2.2c-0.6-1.1-0.9-2.4-0.9-3.9c0-1.2,0.2-2.3,0.7-3.3c0.6-1.2,1.4-2.1,2.6-2.7c0.1,0,0.1-0.1,0-0.2
		c-0.8-0.4-1.5-1-2-1.8c-0.7-1-1.1-2.1-1.1-3.4c0-1.2,0.3-2.3,0.9-3.3c0.5-0.9,1.2-1.6,2.2-2c0.9-0.5,2-0.7,3.1-0.7
		c1.2,0,2.3,0.2,3.2,0.7c0.9,0.5,1.6,1.2,2.1,2c0.6,1,0.9,2.1,0.9,3.3c0,1.3-0.3,2.5-1,3.4c-0.5,0.7-1.1,1.2-1.9,1.7
		c-0.1,0.1-0.1,0.1,0,0.2c1.2,0.6,2.1,1.5,2.7,2.8C219,503.9,219.2,505,219.2,506.3z M217.4,506.2c0-1.1-0.2-2-0.5-2.8
		c-0.3-0.8-0.9-1.5-1.6-1.9s-1.6-0.7-2.6-0.7c-2,0-3.3,0.8-4.1,2.4c-0.4,0.8-0.6,1.8-0.6,3c0,1.3,0.3,2.4,0.8,3.3
		c0.8,1.3,2.1,2,3.9,2c1.7,0,3-0.6,3.8-1.9C217.1,508.7,217.4,507.6,217.4,506.2z M210.6,499c0.6,0.3,1.3,0.5,2.1,0.5
		c0.8,0,1.5-0.2,2.1-0.5s1.2-0.8,1.6-1.4c0.5-0.7,0.7-1.6,0.7-2.6c0-0.7-0.2-1.5-0.6-2.2c-0.4-0.7-0.9-1.2-1.6-1.6
		c-0.7-0.4-1.4-0.6-2.3-0.6c-0.9,0-1.6,0.2-2.3,0.6c-0.7,0.4-1.2,1-1.5,1.7c-0.4,0.7-0.6,1.4-0.6,2.2c0,1,0.3,1.8,0.8,2.6
		C209.5,498.2,210,498.6,210.6,499z"/>
	<path class="st1" d="M229.3,512.7c0-0.1,0-0.2,0.1-0.3l5.6-8c0-0.1,0-0.1,0-0.2l-5.6-8c0,0-0.1-0.1-0.1-0.2c0,0,0-0.1,0.1-0.1
		c0,0,0.1-0.1,0.2-0.1h1.2c0.2,0,0.3,0.1,0.4,0.2l4.8,6.8c0,0,0.1,0,0.1,0c0,0,0.1,0,0.1,0l4.7-6.8c0.1-0.1,0.2-0.2,0.4-0.2h1.3
		c0.1,0,0.2,0,0.3,0.1c0,0.1,0,0.2-0.1,0.3l-5.6,8c0,0.1,0,0.1,0,0.2l5.6,8c0,0,0.1,0.1,0.1,0.2c0,0,0,0.1-0.1,0.1
		c0,0-0.1,0.1-0.2,0.1h-1.2c-0.2,0-0.3-0.1-0.4-0.2l-4.7-6.8c0,0-0.1-0.1-0.1-0.1c0,0-0.1,0-0.1,0.1l-4.8,6.8
		c-0.1,0.1-0.2,0.2-0.4,0.2h-1.3C229.4,512.9,229.3,512.8,229.3,512.7z"/>
	<path class="st1" d="M265.9,505.7c0,1.1-0.1,2-0.2,2.7c-0.4,1.5-1.1,2.6-2.2,3.5c-1.1,0.9-2.5,1.3-4,1.3c-1.5,0-2.8-0.4-3.9-1.2
		c-1.1-0.8-1.8-1.9-2.2-3.2c-0.2-0.5-0.2-1-0.3-1.4c0-0.2,0.1-0.3,0.3-0.3h1.1c0.2,0,0.3,0.1,0.3,0.3l0.1,0.7
		c0.2,1.1,0.8,1.9,1.5,2.6c0.8,0.6,1.8,0.9,2.9,0.9c1.2,0,2.2-0.3,3-1c0.8-0.7,1.3-1.6,1.5-2.8c0.1-0.5,0.2-1.1,0.2-2.1
		c0-0.8-0.1-1.5-0.2-2.3c-0.2-1.1-0.6-2-1.5-2.6s-1.8-0.9-3-0.9c-1.1,0-2.1,0.2-2.9,0.7c-0.8,0.5-1.4,1.1-1.6,2
		c-0.1,0.2-0.2,0.3-0.4,0.3h-1.2c-0.2,0-0.3-0.1-0.3-0.3v-12.9c0-0.2,0.1-0.3,0.3-0.3h11.3c0.2,0,0.3,0.1,0.3,0.3v0.9
		c0,0.2-0.1,0.3-0.3,0.3h-9.7c-0.1,0-0.1,0-0.1,0.1l0,9.1c0,0,0,0.1,0.1,0.1c0,0,0.1,0,0.1-0.1c0.5-0.6,1.2-1,2-1.3
		c0.8-0.3,1.7-0.5,2.7-0.5c1.6,0,2.9,0.4,4,1.1c1.1,0.8,1.8,1.9,2.1,3.3C265.8,503.6,265.9,504.6,265.9,505.7z"/>
	<path class="st1" d="M283.1,505.7c0,1.1-0.1,2-0.2,2.7c-0.4,1.5-1.1,2.6-2.2,3.5c-1.1,0.9-2.5,1.3-4,1.3c-1.5,0-2.8-0.4-3.9-1.2
		c-1.1-0.8-1.8-1.9-2.2-3.2c-0.2-0.5-0.2-1-0.3-1.4c0-0.2,0.1-0.3,0.3-0.3h1.1c0.2,0,0.3,0.1,0.3,0.3l0.1,0.7
		c0.2,1.1,0.8,1.9,1.5,2.6c0.8,0.6,1.8,0.9,2.9,0.9c1.2,0,2.2-0.3,3-1c0.8-0.7,1.3-1.6,1.5-2.8c0.1-0.5,0.2-1.1,0.2-2.1
		c0-0.8-0.1-1.5-0.2-2.3c-0.2-1.1-0.6-2-1.5-2.6s-1.8-0.9-3-0.9c-1.1,0-2.1,0.2-2.9,0.7c-0.8,0.5-1.4,1.1-1.6,2
		c-0.1,0.2-0.2,0.3-0.4,0.3h-1.2c-0.2,0-0.3-0.1-0.3-0.3v-12.9c0-0.2,0.1-0.3,0.3-0.3h11.3c0.2,0,0.3,0.1,0.3,0.3v0.9
		c0,0.2-0.1,0.3-0.3,0.3h-9.7c-0.1,0-0.1,0-0.1,0.1l0,9.1c0,0,0,0.1,0.1,0.1c0,0,0.1,0,0.1-0.1c0.5-0.6,1.2-1,2-1.3
		c0.8-0.3,1.7-0.5,2.7-0.5c1.6,0,2.9,0.4,4,1.1c1.1,0.8,1.8,1.9,2.1,3.3C283,503.6,283.1,504.6,283.1,505.7z"/>
	<path class="st1" d="M287.5,515.3c-0.1-0.1-0.1-0.2-0.1-0.3l1.6-7c0-0.2,0.2-0.3,0.4-0.3h0.9c0.1,0,0.2,0,0.3,0.1
		c0.1,0.1,0.1,0.2,0.1,0.3l-1.8,7c0,0.2-0.1,0.3-0.4,0.3h-0.7C287.6,515.4,287.6,515.4,287.5,515.3z"/>
	<path class="st1" d="M309.1,506.3c0,1.6-0.3,3-1,4.1c-0.5,0.9-1.3,1.6-2.2,2c-0.9,0.5-2,0.7-3.2,0.7c-1.3,0-2.4-0.3-3.4-0.8
		c-1-0.5-1.7-1.2-2.2-2.2c-0.6-1.1-0.9-2.4-0.9-3.9c0-1.2,0.2-2.3,0.7-3.3c0.6-1.2,1.4-2.1,2.6-2.7c0.1,0,0.1-0.1,0-0.2
		c-0.8-0.4-1.5-1-2-1.8c-0.7-1-1.1-2.1-1.1-3.4c0-1.2,0.3-2.3,0.9-3.3c0.5-0.9,1.2-1.6,2.2-2c0.9-0.5,2-0.7,3.1-0.7
		c1.2,0,2.3,0.2,3.2,0.7c0.9,0.5,1.6,1.2,2.1,2c0.6,1,0.9,2.1,0.9,3.3c0,1.3-0.3,2.5-1,3.4c-0.5,0.7-1.1,1.2-1.9,1.7
		c-0.1,0.1-0.1,0.1,0,0.2c1.2,0.6,2.1,1.5,2.7,2.8C308.9,503.9,309.1,505,309.1,506.3z M307.3,506.2c0-1.1-0.2-2-0.5-2.8
		c-0.3-0.8-0.9-1.5-1.6-1.9c-0.7-0.4-1.6-0.7-2.6-0.7c-2,0-3.3,0.8-4.1,2.4c-0.4,0.8-0.6,1.8-0.6,3c0,1.3,0.3,2.4,0.8,3.3
		c0.8,1.3,2.1,2,3.9,2c1.7,0,3-0.6,3.8-1.9C307,508.7,307.3,507.6,307.3,506.2z M300.5,499c0.6,0.3,1.3,0.5,2.1,0.5
		c0.8,0,1.5-0.2,2.1-0.5c0.6-0.3,1.2-0.8,1.6-1.4c0.5-0.7,0.7-1.6,0.7-2.6c0-0.7-0.2-1.5-0.6-2.2c-0.4-0.7-0.9-1.2-1.6-1.6
		c-0.7-0.4-1.4-0.6-2.3-0.6c-0.9,0-1.6,0.2-2.3,0.6c-0.7,0.4-1.2,1-1.5,1.7c-0.4,0.7-0.6,1.4-0.6,2.2c0,1,0.3,1.8,0.8,2.6
		C299.3,498.2,299.8,498.6,300.5,499z"/>
	<path class="st1" d="M326.6,506.3c0,1.6-0.3,3-1,4.1c-0.5,0.9-1.3,1.6-2.2,2c-0.9,0.5-2,0.7-3.2,0.7c-1.3,0-2.4-0.3-3.4-0.8
		c-1-0.5-1.7-1.2-2.2-2.2c-0.6-1.1-0.9-2.4-0.9-3.9c0-1.2,0.2-2.3,0.7-3.3c0.6-1.2,1.4-2.1,2.6-2.7c0.1,0,0.1-0.1,0-0.2
		c-0.8-0.4-1.5-1-2-1.8c-0.7-1-1.1-2.1-1.1-3.4c0-1.2,0.3-2.3,0.9-3.3c0.5-0.9,1.2-1.6,2.2-2c0.9-0.5,2-0.7,3.1-0.7
		c1.2,0,2.3,0.2,3.2,0.7c0.9,0.5,1.6,1.2,2.1,2c0.6,1,0.9,2.1,0.9,3.3c0,1.3-0.3,2.5-1,3.4c-0.5,0.7-1.1,1.2-1.9,1.7
		c-0.1,0.1-0.1,0.1,0,0.2c1.2,0.6,2.1,1.5,2.7,2.8C326.4,503.9,326.6,505,326.6,506.3z M324.7,506.2c0-1.1-0.2-2-0.5-2.8
		c-0.3-0.8-0.9-1.5-1.6-1.9c-0.7-0.4-1.6-0.7-2.6-0.7c-2,0-3.3,0.8-4.1,2.4c-0.4,0.8-0.6,1.8-0.6,3c0,1.3,0.3,2.4,0.8,3.3
		c0.8,1.3,2.1,2,3.9,2c1.7,0,3-0.6,3.8-1.9C324.5,508.7,324.7,507.6,324.7,506.2z M317.9,499c0.6,0.3,1.3,0.5,2.1,0.5
		c0.8,0,1.5-0.2,2.1-0.5c0.6-0.3,1.2-0.8,1.6-1.4c0.5-0.7,0.7-1.6,0.7-2.6c0-0.7-0.2-1.5-0.6-2.2c-0.4-0.7-0.9-1.2-1.6-1.6
		c-0.7-0.4-1.4-0.6-2.3-0.6c-0.9,0-1.6,0.2-2.3,0.6c-0.7,0.4-1.2,1-1.5,1.7c-0.4,0.7-0.6,1.4-0.6,2.2c0,1,0.3,1.8,0.8,2.6
		C316.8,498.2,317.3,498.6,317.9,499z"/>
	<path class="st1" d="M340.6,511.9c-1.1-0.8-1.9-1.9-2.2-3.3c-0.3-1.1-0.4-2.5-0.4-4.2c0-1.7,0.1-3.1,0.4-4.2
		c0.4-1.4,1.1-2.5,2.2-3.3c1.1-0.8,2.5-1.2,4.1-1.2c1.6,0,3,0.4,4.1,1.2c1.2,0.8,1.9,1.8,2.2,3c0.1,0.3,0.2,0.6,0.2,0.9v0.1
		c0,0.2-0.1,0.3-0.3,0.3l-1.1,0.1h-0.1c-0.2,0-0.3-0.1-0.3-0.3l-0.1-0.5c-0.2-0.9-0.7-1.7-1.6-2.4c-0.9-0.6-1.9-1-3.1-1
		c-1.2,0-2.3,0.3-3.1,1c-0.8,0.7-1.3,1.5-1.6,2.6c-0.2,0.9-0.3,2.1-0.3,3.6c0,1.6,0.1,2.8,0.3,3.6c0.2,1.1,0.7,2,1.6,2.6
		c0.8,0.7,1.9,1,3.1,1c1.2,0,2.3-0.3,3.1-1c0.9-0.6,1.4-1.4,1.6-2.4l0-0.2c0-0.2,0.2-0.3,0.4-0.3l1,0.2c0.2,0,0.3,0.2,0.3,0.4
		l-0.1,0.6c-0.3,1.3-1.1,2.3-2.2,3.1c-1.2,0.8-2.5,1.2-4.1,1.2C343.1,513.2,341.8,512.7,340.6,511.9z"/>
	<path class="st1" d="M376.8,497.1c1,1,1.5,2.4,1.5,4.1v11.4c0,0.2-0.1,0.3-0.3,0.3h-1.1c-0.2,0-0.3-0.1-0.3-0.3v-11
		c0-1.3-0.4-2.4-1.2-3.2s-1.8-1.2-3-1.2c-1.3,0-2.4,0.4-3.2,1.1c-0.8,0.8-1.2,1.8-1.2,3.1v11.1c0,0.2-0.1,0.3-0.3,0.3h-1.1
		c-0.2,0-0.3-0.1-0.3-0.3v-11c0-1.3-0.4-2.4-1.1-3.2c-0.8-0.8-1.8-1.2-3-1.2c-1.3,0-2.4,0.4-3.2,1.1c-0.8,0.8-1.2,1.8-1.2,3.1v11.1
		c0,0.2-0.1,0.3-0.3,0.3h-1.1c-0.2,0-0.3-0.1-0.3-0.3v-16.4c0-0.2,0.1-0.3,0.3-0.3h1.1c0.2,0,0.3,0.1,0.3,0.3v1.5c0,0,0,0.1,0.1,0.1
		c0,0,0.1,0,0.1,0c0.5-0.7,1.1-1.3,1.9-1.6c0.8-0.4,1.7-0.5,2.7-0.5c1.2,0,2.2,0.3,3,0.8c0.8,0.5,1.5,1.2,1.9,2.1
		c0,0.1,0.1,0.1,0.2,0c0.5-1,1.2-1.7,2.1-2.2c0.9-0.5,1.9-0.7,3.1-0.7C374.5,495.6,375.8,496.1,376.8,497.1z"/>
</g>
<g>
	<path class="st2" d="M222.5,60.2c0,0-13.2-0.8-11.7,14l0.8,5.1c0,0-0.8,4.7,1.9,5.8l0.4,3.5l-0.4,4.7l-1.6,3.5l-3.5,3.9l-9.7,7
		c0,0-9.7,4.7-10.1,21.8v24.2c0,0,1.2,9,3.5,12.5l4.7,11.7l-0.4,11.3c0,0,0.8,9.4,3.1,11.3l3.1,20.3v10.5c0,0-3.1,14.4-1.9,23.8
		c1.2,9.4,0,34.3,0,34.3l0.8,16.4l3.5,1.6l-1.6,4.7c0,0-2.7,3.1-1.9,6.2h2.3v5.1c0,0,5.5,1.9,12.5,1.9l0.4-1.9
		c0,0,20.3,2.3,25.7-2.3c0,0-1.9-6.2-8.6-5.1l-4.3-3.5l-5.8-4.3l-1.9-3.5l1.2-23.4l5.8-21.4l1.6-11.3l10.5-32.3
		c0,0,4.3-14.8,5.5-22.2l0.4-4.7c0,0,0-7.8-0.8-11.3l-0.4-32l-0.8-13.2l-0.4-15.6c0,0-0.8-6.2-5.1-9.4l-8.6-6.2l-1.9-3.1v-2.7
		c0,0,5.5-3.1,5.5-6.6v-2.7c0,0,2.7-4.3,0.4-9C234.5,77.4,237.7,59.8,222.5,60.2z"/>
	<path class="st2" d="M213.5,93.3c0,0,6.6-2.3,15.2,2.3"/>
	<path class="st2" d="M199.5,200.5c0,0,18.3,0.8,31.2-2.7l7-1.9l0.4-3.5c0,0,3.5,2.3,8.2,1.6"/>
	<polyline class="st2" points="238,192.3 233,176.3 229.5,149.1 226.7,139.3 	"/>
	<path class="st2" d="M237.7,195.8c0,0-0.4,4.7,1.9,7.4c0,0,3.1-0.4,6.2-6.6"/>
	<path class="st2" d="M213.9,211l-0.8,25.3c0,0-1.2,12.9-1.2,14c0,1.2-1.9,9-1.9,9s-4.3,30.4-5.1,47.9c0,0,8.6,4.3,17.1-1.2"/>
</g>
<rect x="275.9" y="49.7" class="st3" width="118.1" height="157.8"/>
</svg>
