<?xml version="1.0" encoding="utf-8"?>
<!-- Generator: Adobe Illustrator 22.1.0, SVG Export Plug-In . SVG Version: 6.00 Build 0)  -->
<svg version="1.1" id="Capa_1" xmlns="http://www.w3.org/2000/svg" xmlns:xlink="http://www.w3.org/1999/xlink" x="0px" y="0px"
	 viewBox="0 0 518.8 555.7" style="enable-background:new 0 0 518.8 555.7;" xml:space="preserve">
<style type="text/css">
	.st0{fill:#00B4EC;}
	.st1{fill:#FFFFFF;}
	.st2{fill:none;stroke:#FFFFFF;stroke-miterlimit:10;}
	.st3{fill:none;stroke:#FFFFFF;stroke-width:2;stroke-miterlimit:10;}
</style>
<title>link-pdf</title>
<rect x="0.2" class="st0" width="518.8" height="555.7"/>
<g>
	<path class="st1" d="M237.5,348.6c2.1,1.1,3.7,2.7,4.9,4.8c1.2,2.1,1.7,4.5,1.7,7.2c0,2.7-0.6,5-1.8,7.1c-1.2,2.1-2.8,3.6-5,4.7
		s-4.7,1.7-7.5,1.7h-10.5c-0.2,0-0.3,0.1-0.3,0.3V392c0,0.2-0.1,0.4-0.2,0.6c-0.2,0.2-0.3,0.2-0.6,0.2h-6c-0.2,0-0.4-0.1-0.6-0.2
		c-0.2-0.2-0.2-0.3-0.2-0.6v-44.3c0-0.2,0.1-0.4,0.2-0.6c0.2-0.2,0.3-0.2,0.6-0.2h18C233,346.9,235.5,347.5,237.5,348.6z M234.5,366
		c1.4-1.3,2-3,2-5.2c0-2.2-0.7-4-2-5.3c-1.4-1.4-3.1-2-5.4-2h-9.8c-0.2,0-0.3,0.1-0.3,0.3v13.8c0,0.2,0.1,0.3,0.3,0.3h9.8
		C231.4,367.9,233.2,367.3,234.5,366z"/>
	<path class="st1" d="M251.1,392.6c-0.2-0.2-0.2-0.3-0.2-0.6v-44.3c0-0.2,0.1-0.4,0.2-0.6c0.2-0.2,0.3-0.2,0.6-0.2h16
		c3.1,0,5.8,0.5,8.2,1.6s4.2,2.7,5.5,4.7c1.3,2,1.9,4.4,1.9,7.1v19c0,2.7-0.6,5.1-1.9,7.1c-1.3,2-3.1,3.6-5.5,4.7
		c-2.4,1.1-5.1,1.6-8.2,1.6h-16C251.4,392.8,251.2,392.7,251.1,392.6z M258.8,386.2h9.2c2.3,0,4.2-0.7,5.5-2.2
		c1.4-1.5,2.1-3.4,2.1-5.9v-16.6c0-2.5-0.7-4.5-2.1-5.9c-1.4-1.5-3.3-2.2-5.6-2.2h-9.1c-0.2,0-0.3,0.1-0.3,0.3v32.1
		C258.4,386.1,258.5,386.2,258.8,386.2z"/>
	<path class="st1" d="M322,353.3c-0.2,0.2-0.3,0.2-0.6,0.2h-22.3c-0.2,0-0.3,0.1-0.3,0.3v12.2c0,0.2,0.1,0.3,0.3,0.3h15
		c0.2,0,0.4,0.1,0.6,0.2c0.2,0.2,0.2,0.3,0.2,0.6v5c0,0.2-0.1,0.4-0.2,0.6c-0.2,0.2-0.3,0.2-0.6,0.2h-15c-0.2,0-0.3,0.1-0.3,0.3V392
		c0,0.2-0.1,0.4-0.2,0.6c-0.2,0.2-0.3,0.2-0.6,0.2h-6c-0.2,0-0.4-0.1-0.6-0.2c-0.2-0.2-0.2-0.3-0.2-0.6v-44.3c0-0.2,0.1-0.4,0.2-0.6
		c0.2-0.2,0.3-0.2,0.6-0.2h29.4c0.2,0,0.4,0.1,0.6,0.2c0.2,0.2,0.2,0.3,0.2,0.6v5C322.3,352.9,322.2,353.1,322,353.3z"/>
</g>
<g>
	<path class="st1" d="M163.7,472.1l-7.5-23l0-0.1c0-0.2,0.1-0.2,0.3-0.2h1.2c0.2,0,0.3,0.1,0.4,0.3l6.6,20.6c0,0,0.1,0.1,0.1,0.1
		c0,0,0.1,0,0.1-0.1l6.6-20.6c0.1-0.2,0.2-0.3,0.4-0.3h1.1c0.2,0,0.3,0.1,0.3,0.4l-7.5,23c-0.1,0.2-0.2,0.3-0.4,0.3h-1.3
		C163.9,472.3,163.8,472.2,163.7,472.1z"/>
	<path class="st1" d="M186.6,470.3c0.8-0.5,1.3-1.2,1.8-2c0.1-0.2,0.3-0.3,0.4-0.2l0.9,0.4c0.2,0.1,0.3,0.3,0.2,0.4
		c-0.5,1.1-1.3,2-2.3,2.6c-1.1,0.7-2.3,1-3.8,1c-1.6,0-2.9-0.4-4-1.1c-1.1-0.8-1.9-1.8-2.3-3.1c-0.2-0.6-0.3-1.2-0.4-1.9
		c-0.1-0.7-0.1-1.6-0.1-2.6c0-1.1,0-1.9,0.1-2.5c0-0.6,0.1-1.1,0.2-1.6c0.4-1.4,1.1-2.6,2.2-3.4c1.1-0.9,2.5-1.3,4.1-1.3
		c1.8,0,3.3,0.5,4.4,1.4c1.1,1,1.8,2.3,2.1,4c0.1,0.4,0.1,0.9,0.1,1.5c0,0.6,0,1.3,0,2.1c0,0.2-0.1,0.3-0.3,0.3h-11
		c-0.1,0-0.1,0-0.1,0.1c0,1.4,0.1,2.4,0.2,2.9c0.2,1.1,0.8,2,1.7,2.6c0.9,0.6,2,1,3.3,1C184.9,471,185.8,470.8,186.6,470.3z
		 M178.7,462.8c0,0.1,0,0.1,0.1,0.1h9.4c0.1,0,0.1,0,0.1-0.1c0-1.1-0.1-2-0.2-2.5c-0.2-1.1-0.8-2-1.6-2.6c-0.8-0.7-1.9-1-3.1-1
		c-1.2,0-2.2,0.3-3,1c-0.8,0.6-1.3,1.5-1.6,2.6C178.9,460.5,178.8,461.4,178.7,462.8z"/>
	<path class="st1" d="M203.8,455.6c0.2,0.1,0.2,0.2,0.2,0.4l-0.3,1.1c-0.1,0.2-0.2,0.3-0.4,0.2c-0.5-0.2-1-0.3-1.7-0.2
		c-1.3,0-2.3,0.5-3.1,1.4c-0.8,0.9-1.2,2.1-1.2,3.4V472c0,0.2-0.1,0.3-0.3,0.3h-1.1c-0.2,0-0.3-0.1-0.3-0.3v-16.4
		c0-0.2,0.1-0.3,0.3-0.3h1.1c0.2,0,0.3,0.1,0.3,0.3v2.3c0,0.1,0,0.1,0.1,0.1c0,0,0.1,0,0.1-0.1c0.5-0.9,1.1-1.6,1.8-2.1
		c0.8-0.5,1.6-0.7,2.7-0.7C202.6,455.2,203.3,455.3,203.8,455.6z"/>
	<path class="st1" d="M209.6,471.9c-0.9-0.4-1.7-0.9-2.2-1.6c-0.5-0.7-0.8-1.4-0.8-2.2v-0.4c0-0.2,0.1-0.3,0.3-0.3h1
		c0.2,0,0.3,0.1,0.3,0.3v0.4c0,0.8,0.4,1.5,1.3,2.1c0.8,0.6,1.9,0.9,3.2,0.9c1.3,0,2.3-0.3,3.1-0.9c0.8-0.6,1.2-1.4,1.2-2.3
		c0-0.6-0.2-1.1-0.6-1.6c-0.4-0.4-0.9-0.7-1.4-0.9c-0.6-0.2-1.4-0.5-2.5-0.8c-1.3-0.4-2.3-0.7-3-1.1c-0.8-0.3-1.4-0.8-1.9-1.4
		c-0.5-0.6-0.8-1.4-0.8-2.3c0-1.4,0.5-2.5,1.6-3.3c1.1-0.8,2.5-1.2,4.3-1.2c1.2,0,2.2,0.2,3.2,0.6s1.6,0.9,2.1,1.6
		c0.5,0.7,0.8,1.4,0.8,2.3v0.1c0,0.2-0.1,0.3-0.3,0.3h-1c-0.2,0-0.3-0.1-0.3-0.3v-0.1c0-0.9-0.4-1.6-1.2-2.1
		c-0.8-0.6-1.9-0.9-3.2-0.9c-1.3,0-2.3,0.3-3,0.8c-0.8,0.5-1.1,1.2-1.1,2.1c0,0.9,0.4,1.5,1.1,1.9c0.7,0.4,1.8,0.9,3.3,1.3
		c1.3,0.4,2.3,0.7,3.1,1.1c0.8,0.3,1.4,0.8,2,1.4c0.6,0.6,0.8,1.4,0.8,2.4c0,1.4-0.5,2.6-1.6,3.4c-1.1,0.9-2.6,1.3-4.4,1.3
		C211.7,472.5,210.6,472.3,209.6,471.9z"/>
	<path class="st1" d="M223.9,451.4c-0.3-0.3-0.5-0.7-0.5-1.2c0-0.5,0.2-0.9,0.5-1.2c0.3-0.3,0.7-0.5,1.2-0.5c0.5,0,0.9,0.2,1.2,0.5
		c0.3,0.3,0.5,0.7,0.5,1.2c0,0.5-0.2,0.9-0.5,1.2c-0.3,0.3-0.7,0.5-1.2,0.5C224.6,451.9,224.2,451.7,223.9,451.4z M224.1,472v-16.4
		c0-0.2,0.1-0.3,0.3-0.3h1.1c0.2,0,0.3,0.1,0.3,0.3V472c0,0.2-0.1,0.3-0.3,0.3h-1.1C224.2,472.3,224.1,472.2,224.1,472z"/>
	<path class="st1" d="M234.4,471.3c-1.1-0.8-1.9-1.9-2.3-3.3c-0.2-0.9-0.4-2.3-0.4-4.2c0-1.9,0.1-3.3,0.4-4.2
		c0.4-1.4,1.2-2.5,2.3-3.3s2.5-1.2,4.1-1.2c1.6,0,2.9,0.4,4.1,1.2c1.1,0.8,1.9,1.9,2.3,3.3c0.1,0.5,0.2,1.1,0.3,1.7
		c0,0.6,0.1,1.5,0.1,2.5c0,1,0,1.9-0.1,2.5c0,0.6-0.1,1.2-0.3,1.7c-0.4,1.4-1.1,2.5-2.3,3.3c-1.1,0.8-2.5,1.3-4.1,1.3
		C236.9,472.6,235.6,472.2,234.4,471.3z M241.6,470c0.8-0.7,1.4-1.5,1.6-2.6c0.2-0.6,0.2-1.8,0.2-3.6c0-1.8-0.1-3-0.2-3.6
		c-0.2-1.1-0.8-2-1.6-2.6c-0.8-0.7-1.9-1-3.1-1s-2.2,0.3-3.1,1c-0.8,0.7-1.4,1.5-1.6,2.6c-0.2,0.7-0.2,1.9-0.2,3.6
		c0,1.7,0.1,2.9,0.2,3.6c0.2,1.1,0.8,2,1.6,2.6c0.8,0.7,1.9,1,3.1,1C239.7,471,240.7,470.7,241.6,470z M237.2,452.9
		c0-0.1,0-0.2,0-0.3l2.1-3.7c0.1-0.2,0.2-0.2,0.4-0.2h1c0.1,0,0.2,0,0.3,0.1c0,0.1,0,0.2,0,0.3l-2.3,3.7c-0.1,0.2-0.2,0.2-0.4,0.2
		h-0.8C237.4,453,237.3,453,237.2,452.9z"/>
	<path class="st1" d="M261.3,456.6c1.1,1.1,1.6,2.5,1.6,4.2V472c0,0.2-0.1,0.3-0.3,0.3h-1.1c-0.2,0-0.3-0.1-0.3-0.3v-10.8
		c0-1.3-0.4-2.4-1.2-3.3c-0.8-0.8-1.9-1.3-3.2-1.3c-1.4,0-2.4,0.4-3.3,1.2c-0.8,0.8-1.3,1.9-1.3,3.2V472c0,0.2-0.1,0.3-0.3,0.3h-1.1
		c-0.2,0-0.3-0.1-0.3-0.3v-16.4c0-0.2,0.1-0.3,0.3-0.3h1.1c0.2,0,0.3,0.1,0.3,0.3v1.7c0,0.1,0,0.1,0.1,0.1c0,0,0.1,0,0.1-0.1
		c0.5-0.7,1.1-1.3,2-1.7c0.8-0.4,1.7-0.6,2.8-0.6C258.8,455.1,260.2,455.6,261.3,456.6z"/>
	<path class="st1" d="M284.3,470.3c0.8-0.5,1.3-1.2,1.8-2c0.1-0.2,0.3-0.3,0.4-0.2l0.9,0.4c0.2,0.1,0.3,0.3,0.2,0.4
		c-0.5,1.1-1.3,2-2.3,2.6c-1.1,0.7-2.3,1-3.8,1c-1.6,0-2.9-0.4-4-1.1c-1.1-0.8-1.9-1.8-2.3-3.1c-0.2-0.6-0.3-1.2-0.4-1.9
		c-0.1-0.7-0.1-1.6-0.1-2.6c0-1.1,0-1.9,0.1-2.5s0.1-1.1,0.2-1.6c0.4-1.4,1.1-2.6,2.2-3.4s2.5-1.3,4.1-1.3c1.8,0,3.3,0.5,4.4,1.4
		c1.1,1,1.8,2.3,2.1,4c0.1,0.4,0.1,0.9,0.1,1.5c0,0.6,0,1.3,0,2.1c0,0.2-0.1,0.3-0.3,0.3h-11c-0.1,0-0.1,0-0.1,0.1
		c0,1.4,0.1,2.4,0.2,2.9c0.2,1.1,0.8,2,1.7,2.6c0.9,0.6,2,1,3.3,1C282.7,471,283.6,470.8,284.3,470.3z M276.5,462.8
		c0,0.1,0,0.1,0.1,0.1h9.4c0.1,0,0.1,0,0.1-0.1c0-1.1-0.1-2-0.2-2.5c-0.2-1.1-0.8-2-1.6-2.6c-0.8-0.7-1.9-1-3.1-1s-2.2,0.3-3,1
		c-0.8,0.6-1.3,1.5-1.6,2.6C276.6,460.5,276.5,461.4,276.5,462.8z"/>
	<path class="st1" d="M304.1,456.6c1.1,1.1,1.6,2.5,1.6,4.2V472c0,0.2-0.1,0.3-0.3,0.3h-1.1c-0.2,0-0.3-0.1-0.3-0.3v-10.8
		c0-1.3-0.4-2.4-1.2-3.3c-0.8-0.8-1.9-1.3-3.2-1.3c-1.4,0-2.4,0.4-3.3,1.2c-0.8,0.8-1.3,1.9-1.3,3.2V472c0,0.2-0.1,0.3-0.3,0.3h-1.1
		c-0.2,0-0.3-0.1-0.3-0.3v-16.4c0-0.2,0.1-0.3,0.3-0.3h1.1c0.2,0,0.3,0.1,0.3,0.3v1.7c0,0.1,0,0.1,0.1,0.1s0.1,0,0.1-0.1
		c0.5-0.7,1.1-1.3,2-1.7c0.8-0.4,1.7-0.6,2.8-0.6C301.6,455.1,303,455.6,304.1,456.6z"/>
	<path class="st1" d="M332,450.4c1.2,1.2,1.8,2.7,1.8,4.7c0,1.9-0.6,3.5-1.8,4.6c-1.2,1.2-2.7,1.8-4.7,1.8h-7c-0.1,0-0.1,0-0.1,0.1
		V472c0,0.2-0.1,0.3-0.3,0.3h-1.1c-0.2,0-0.3-0.1-0.3-0.3v-23.1c0-0.2,0.1-0.3,0.3-0.3h8.7C329.3,448.6,330.8,449.2,332,450.4z
		 M330.7,458.6c0.9-0.9,1.3-2.1,1.3-3.5c0-1.5-0.4-2.6-1.3-3.5c-0.9-0.9-2-1.3-3.4-1.3h-7c-0.1,0-0.1,0-0.1,0.1v9.4
		c0,0.1,0,0.1,0.1,0.1h7C328.7,459.9,329.8,459.5,330.7,458.6z"/>
	<path class="st1" d="M338.5,472v-23c0-0.2,0.1-0.3,0.3-0.3h7.8c2.2,0,3.9,0.6,5.1,1.7c1.3,1.1,1.9,2.7,1.9,4.6v11
		c0,2-0.6,3.5-1.9,4.6c-1.3,1.1-3,1.7-5.1,1.7h-7.8C338.7,472.3,338.5,472.2,338.5,472z M340.5,470.7h6.4c1.6,0,2.8-0.4,3.7-1.3
		c0.9-0.9,1.4-2.1,1.4-3.6v-10.5c0-1.5-0.5-2.7-1.4-3.6c-0.9-0.9-2.2-1.3-3.8-1.3h-6.4c-0.1,0-0.1,0-0.1,0.1v20.2
		C340.3,470.7,340.4,470.7,340.5,470.7z"/>
	<path class="st1" d="M374.1,450.3h-12.8c-0.1,0-0.1,0-0.1,0.1v9.1c0,0.1,0,0.1,0.1,0.1h9.1c0.2,0,0.3,0.1,0.3,0.3v0.9
		c0,0.2-0.1,0.3-0.3,0.3h-9.1c-0.1,0-0.1,0-0.1,0.1V472c0,0.2-0.1,0.3-0.3,0.3h-1.1c-0.2,0-0.3-0.1-0.3-0.3v-23
		c0-0.2,0.1-0.3,0.3-0.3h14.4c0.2,0,0.3,0.1,0.3,0.3v0.9C374.5,450.1,374.4,450.3,374.1,450.3z"/>
	<path class="st1" d="M178.1,497.4h-4c-0.1,0-0.1,0-0.1,0.1v10.7c0,1.1,0.3,2,0.8,2.4c0.5,0.5,1.4,0.7,2.5,0.7h0.8
		c0.2,0,0.3,0.1,0.3,0.3v0.9c0,0.2-0.1,0.3-0.3,0.3l-1,0c-1.6,0-2.8-0.3-3.6-0.9c-0.8-0.6-1.2-1.7-1.2-3.3v-11.2
		c0-0.1,0-0.1-0.1-0.1h-2c-0.2,0-0.3-0.1-0.3-0.3v-0.8c0-0.2,0.1-0.3,0.3-0.3h2c0.1,0,0.1,0,0.1-0.1v-3.9c0-0.2,0.1-0.3,0.3-0.3h1.1
		c0.2,0,0.3,0.1,0.3,0.3v3.9c0,0.1,0,0.1,0.1,0.1h4c0.2,0,0.3,0.1,0.3,0.3v0.8C178.5,497.3,178.4,497.4,178.1,497.4z"/>
	<path class="st1" d="M193.7,497.1c1,1,1.6,2.4,1.6,4.1v11.3c0,0.2-0.1,0.3-0.3,0.3h-1.1c-0.2,0-0.3-0.1-0.3-0.3V511
		c0,0,0-0.1-0.1-0.1c0,0-0.1,0-0.1,0c-0.6,0.7-1.3,1.3-2.3,1.7c-0.9,0.4-2,0.6-3.1,0.6c-1.6,0-2.9-0.4-4-1.2c-1.1-0.8-1.6-2-1.6-3.6
		c0-1.7,0.6-3,1.9-4c1.2-1,2.9-1.5,5.1-1.5h4.1c0.1,0,0.1,0,0.1-0.1v-1.5c0-1.3-0.4-2.3-1.1-3c-0.7-0.7-1.8-1.1-3.3-1.1
		c-1.1,0-2.1,0.2-2.8,0.7c-0.7,0.5-1.2,1.1-1.4,1.9c-0.1,0.2-0.2,0.3-0.4,0.3l-1.2-0.2c-0.2,0-0.3-0.1-0.3-0.3
		c0.2-1.2,0.9-2.2,2-2.9c1.1-0.7,2.5-1.1,4.2-1.1C191.1,495.6,192.7,496.1,193.7,497.1z M191.9,510.6c1-0.7,1.6-1.7,1.6-2.9v-3.1
		c0-0.1,0-0.1-0.1-0.1h-3.9c-1.6,0-2.9,0.3-3.9,1c-1,0.7-1.5,1.6-1.5,2.8c0,1.1,0.4,1.9,1.1,2.5c0.8,0.6,1.7,0.8,2.9,0.8
		C189.6,511.6,190.8,511.3,191.9,510.6z"/>
	<path class="st1" d="M221.5,497.1c1,1,1.5,2.4,1.5,4.1v11.4c0,0.2-0.1,0.3-0.3,0.3h-1.1c-0.2,0-0.3-0.1-0.3-0.3v-11
		c0-1.3-0.4-2.4-1.2-3.2s-1.8-1.2-3-1.2c-1.3,0-2.4,0.4-3.2,1.1c-0.8,0.8-1.2,1.8-1.2,3.1v11.1c0,0.2-0.1,0.3-0.3,0.3h-1.1
		c-0.2,0-0.3-0.1-0.3-0.3v-11c0-1.3-0.4-2.4-1.1-3.2c-0.8-0.8-1.8-1.2-3-1.2c-1.3,0-2.4,0.4-3.2,1.1c-0.8,0.8-1.2,1.8-1.2,3.1v11.1
		c0,0.2-0.1,0.3-0.3,0.3H201c-0.2,0-0.3-0.1-0.3-0.3v-16.4c0-0.2,0.1-0.3,0.3-0.3h1.1c0.2,0,0.3,0.1,0.3,0.3v1.5c0,0,0,0.1,0.1,0.1
		c0,0,0.1,0,0.1,0c0.5-0.7,1.1-1.3,1.9-1.6s1.7-0.5,2.7-0.5c1.2,0,2.2,0.3,3,0.8c0.8,0.5,1.5,1.2,1.9,2.1c0,0.1,0.1,0.1,0.2,0
		c0.5-1,1.2-1.7,2.1-2.2c0.9-0.5,1.9-0.7,3.1-0.7C219.2,495.6,220.5,496.1,221.5,497.1z"/>
	<path class="st1" d="M238.7,497.1c1,1,1.6,2.4,1.6,4.1v11.3c0,0.2-0.1,0.3-0.3,0.3h-1.1c-0.2,0-0.3-0.1-0.3-0.3V511
		c0,0,0-0.1-0.1-0.1c0,0-0.1,0-0.1,0c-0.6,0.7-1.3,1.3-2.3,1.7c-0.9,0.4-2,0.6-3.1,0.6c-1.6,0-2.9-0.4-4-1.2c-1.1-0.8-1.6-2-1.6-3.6
		c0-1.7,0.6-3,1.9-4c1.2-1,2.9-1.5,5.1-1.5h4.1c0.1,0,0.1,0,0.1-0.1v-1.5c0-1.3-0.4-2.3-1.1-3c-0.7-0.7-1.8-1.1-3.3-1.1
		c-1.1,0-2.1,0.2-2.8,0.7c-0.7,0.5-1.2,1.1-1.4,1.9c-0.1,0.2-0.2,0.3-0.4,0.3l-1.2-0.2c-0.2,0-0.3-0.1-0.3-0.3
		c0.2-1.2,0.9-2.2,2-2.9c1.1-0.7,2.5-1.1,4.2-1.1C236.2,495.6,237.7,496.1,238.7,497.1z M236.9,510.6c1-0.7,1.6-1.7,1.6-2.9v-3.1
		c0-0.1,0-0.1-0.1-0.1h-3.9c-1.6,0-2.9,0.3-3.9,1c-1,0.7-1.5,1.6-1.5,2.8c0,1.1,0.4,1.9,1.1,2.5c0.8,0.6,1.7,0.8,2.9,0.8
		C234.7,511.6,235.9,511.3,236.9,510.6z"/>
	<path class="st1" d="M256.6,497.2c1.1,1.1,1.6,2.5,1.6,4.2v11.2c0,0.2-0.1,0.3-0.3,0.3h-1.1c-0.2,0-0.3-0.1-0.3-0.3v-10.8
		c0-1.3-0.4-2.4-1.2-3.3c-0.8-0.8-1.9-1.3-3.2-1.3c-1.4,0-2.4,0.4-3.3,1.2c-0.8,0.8-1.3,1.9-1.3,3.2v10.9c0,0.2-0.1,0.3-0.3,0.3H246
		c-0.2,0-0.3-0.1-0.3-0.3v-16.4c0-0.2,0.1-0.3,0.3-0.3h1.1c0.2,0,0.3,0.1,0.3,0.3v1.7c0,0.1,0,0.1,0.1,0.1s0.1,0,0.1-0.1
		c0.5-0.7,1.1-1.3,2-1.7s1.7-0.6,2.8-0.6C254.1,495.6,255.5,496.1,256.6,497.2z M252.9,492c-0.3-0.1-0.6-0.3-1-0.6
		c-0.4-0.2-0.7-0.4-0.9-0.5c-0.2-0.1-0.5-0.2-0.7-0.2c-0.4,0-0.7,0.1-1,0.2c-0.3,0.1-0.6,0.4-0.8,0.7c-0.1,0.2-0.3,0.2-0.5,0.1
		l-0.4-0.4c-0.2-0.2-0.2-0.3-0.1-0.5c0.7-1,1.6-1.6,2.8-1.6c0.3,0,0.6,0.1,0.9,0.2c0.3,0.1,0.5,0.2,0.7,0.4c0.2,0.1,0.4,0.2,0.4,0.3
		c0.4,0.2,0.8,0.4,1,0.5c0.2,0.1,0.5,0.2,0.7,0.2c0.7,0,1.4-0.3,1.8-1c0.1-0.2,0.3-0.2,0.5-0.1l0.4,0.3c0.2,0.2,0.2,0.3,0.1,0.6
		c-0.3,0.5-0.7,0.9-1.2,1.2s-1,0.4-1.5,0.4C253.5,492.2,253.2,492.2,252.9,492z"/>
	<path class="st1" d="M265.9,511.9c-1.1-0.8-1.9-1.9-2.3-3.3c-0.2-0.9-0.4-2.3-0.4-4.2c0-1.9,0.1-3.3,0.4-4.2
		c0.4-1.4,1.2-2.5,2.3-3.3c1.1-0.8,2.5-1.2,4.1-1.2c1.6,0,2.9,0.4,4.1,1.2c1.1,0.8,1.9,1.9,2.3,3.3c0.1,0.5,0.2,1.1,0.3,1.7
		c0,0.6,0.1,1.5,0.1,2.5c0,1,0,1.9-0.1,2.5c0,0.6-0.1,1.2-0.3,1.7c-0.4,1.4-1.1,2.5-2.3,3.3c-1.1,0.8-2.5,1.3-4.1,1.3
		C268.4,513.2,267,512.7,265.9,511.9z M273,510.6c0.8-0.7,1.4-1.5,1.6-2.6c0.2-0.6,0.2-1.8,0.2-3.6c0-1.8-0.1-3-0.2-3.6
		c-0.2-1.1-0.8-2-1.6-2.6c-0.8-0.7-1.9-1-3.1-1s-2.2,0.3-3.1,1c-0.8,0.7-1.4,1.5-1.6,2.6c-0.2,0.7-0.2,1.9-0.2,3.6
		c0,1.7,0.1,2.9,0.2,3.6c0.2,1.1,0.8,2,1.6,2.6c0.8,0.7,1.9,1,3.1,1C271.2,511.6,272.2,511.2,273,510.6z"/>
	<path class="st1" d="M290.9,511.9c-1.1-0.8-1.9-1.9-2.2-3.3c-0.3-1.1-0.4-2.5-0.4-4.2c0-1.7,0.1-3.1,0.4-4.2
		c0.4-1.4,1.1-2.5,2.2-3.3c1.1-0.8,2.5-1.2,4.1-1.2c1.6,0,3,0.4,4.1,1.2c1.2,0.8,1.9,1.8,2.2,3c0.1,0.3,0.2,0.6,0.2,0.9v0.1
		c0,0.2-0.1,0.3-0.3,0.3l-1.1,0.1h-0.1c-0.2,0-0.3-0.1-0.3-0.3l-0.1-0.5c-0.2-0.9-0.7-1.7-1.6-2.4c-0.9-0.6-1.9-1-3.1-1
		c-1.2,0-2.3,0.3-3.1,1c-0.8,0.7-1.3,1.5-1.6,2.6c-0.2,0.9-0.3,2.1-0.3,3.6c0,1.6,0.1,2.8,0.3,3.6c0.2,1.1,0.7,2,1.6,2.6
		c0.8,0.7,1.9,1,3.1,1c1.2,0,2.3-0.3,3.1-1c0.9-0.6,1.4-1.4,1.6-2.4l0-0.2c0-0.2,0.2-0.3,0.4-0.3l1,0.2c0.2,0,0.3,0.2,0.3,0.4
		l-0.1,0.6c-0.3,1.3-1.1,2.3-2.2,3.1c-1.2,0.8-2.5,1.2-4.1,1.2C293.4,513.2,292,512.7,290.9,511.9z"/>
	<path class="st1" d="M316.4,497.1c1,1,1.6,2.4,1.6,4.1v11.3c0,0.2-0.1,0.3-0.3,0.3h-1.1c-0.2,0-0.3-0.1-0.3-0.3V511
		c0,0,0-0.1-0.1-0.1c0,0-0.1,0-0.1,0c-0.6,0.7-1.3,1.3-2.3,1.7c-0.9,0.4-2,0.6-3.1,0.6c-1.6,0-2.9-0.4-4-1.2c-1.1-0.8-1.6-2-1.6-3.6
		c0-1.7,0.6-3,1.9-4c1.2-1,2.9-1.5,5.1-1.5h4.1c0.1,0,0.1,0,0.1-0.1v-1.5c0-1.3-0.4-2.3-1.1-3c-0.7-0.7-1.8-1.1-3.3-1.1
		c-1.1,0-2.1,0.2-2.8,0.7c-0.7,0.5-1.2,1.1-1.4,1.9c-0.1,0.2-0.2,0.3-0.4,0.3l-1.2-0.2c-0.2,0-0.3-0.1-0.3-0.3
		c0.2-1.2,0.9-2.2,2-2.9c1.1-0.7,2.5-1.1,4.2-1.1C313.9,495.6,315.4,496.1,316.4,497.1z M314.6,510.6c1-0.7,1.6-1.7,1.6-2.9v-3.1
		c0-0.1,0-0.1-0.1-0.1h-3.9c-1.6,0-2.9,0.3-3.9,1c-1,0.7-1.5,1.6-1.5,2.8c0,1.1,0.4,1.9,1.1,2.5c0.8,0.6,1.7,0.8,2.9,0.8
		C312.3,511.6,313.6,511.3,314.6,510.6z"/>
	<path class="st1" d="M331.7,496.1c0.2,0.1,0.2,0.2,0.2,0.4l-0.3,1.1c-0.1,0.2-0.2,0.3-0.4,0.2c-0.5-0.2-1-0.3-1.7-0.2
		c-1.3,0-2.3,0.5-3.1,1.4c-0.8,0.9-1.2,2.1-1.2,3.4v10.1c0,0.2-0.1,0.3-0.3,0.3h-1.1c-0.2,0-0.3-0.1-0.3-0.3v-16.4
		c0-0.2,0.1-0.3,0.3-0.3h1.1c0.2,0,0.3,0.1,0.3,0.3v2.3c0,0.1,0,0.1,0.1,0.1c0,0,0.1,0,0.1-0.1c0.5-0.9,1.1-1.6,1.8-2.1
		c0.8-0.5,1.6-0.7,2.7-0.7C330.5,495.7,331.2,495.8,331.7,496.1z"/>
	<path class="st1" d="M342.2,497.4h-4c-0.1,0-0.1,0-0.1,0.1v10.7c0,1.1,0.3,2,0.8,2.4c0.5,0.5,1.4,0.7,2.5,0.7h0.8
		c0.2,0,0.3,0.1,0.3,0.3v0.9c0,0.2-0.1,0.3-0.3,0.3l-1,0c-1.6,0-2.8-0.3-3.6-0.9s-1.2-1.7-1.2-3.3v-11.2c0-0.1,0-0.1-0.1-0.1h-2
		c-0.2,0-0.3-0.1-0.3-0.3v-0.8c0-0.2,0.1-0.3,0.3-0.3h2c0.1,0,0.1,0,0.1-0.1v-3.9c0-0.2,0.1-0.3,0.3-0.3h1.1c0.2,0,0.3,0.1,0.3,0.3
		v3.9c0,0.1,0,0.1,0.1,0.1h4c0.2,0,0.3,0.1,0.3,0.3v0.8C342.6,497.3,342.5,497.4,342.2,497.4z"/>
	<path class="st1" d="M357.8,497.1c1,1,1.6,2.4,1.6,4.1v11.3c0,0.2-0.1,0.3-0.3,0.3h-1.1c-0.2,0-0.3-0.1-0.3-0.3V511
		c0,0,0-0.1-0.1-0.1c0,0-0.1,0-0.1,0c-0.6,0.7-1.3,1.3-2.3,1.7c-0.9,0.4-2,0.6-3.1,0.6c-1.6,0-2.9-0.4-4-1.2c-1.1-0.8-1.6-2-1.6-3.6
		c0-1.7,0.6-3,1.9-4c1.2-1,2.9-1.5,5.1-1.5h4.1c0.1,0,0.1,0,0.1-0.1v-1.5c0-1.3-0.4-2.3-1.1-3c-0.7-0.7-1.8-1.1-3.3-1.1
		c-1.1,0-2.1,0.2-2.8,0.7c-0.7,0.5-1.2,1.1-1.4,1.9c-0.1,0.2-0.2,0.3-0.4,0.3l-1.2-0.2c-0.2,0-0.3-0.1-0.3-0.3
		c0.2-1.2,0.9-2.2,2-2.9c1.1-0.7,2.5-1.1,4.2-1.1C355.2,495.6,356.8,496.1,357.8,497.1z M356,510.6c1-0.7,1.6-1.7,1.6-2.9v-3.1
		c0-0.1,0-0.1-0.1-0.1h-3.9c-1.6,0-2.9,0.3-3.9,1c-1,0.7-1.5,1.6-1.5,2.8c0,1.1,0.4,1.9,1.1,2.5c0.8,0.6,1.7,0.8,2.9,0.8
		C353.7,511.6,354.9,511.3,356,510.6z"/>
</g>
<g>
	<path class="st2" d="M212.8,60.2c0,0-13.2-0.8-11.7,14l0.8,5.1c0,0-0.8,4.7,1.9,5.8l0.4,3.5l-0.4,4.7l-1.6,3.5l-3.5,3.9l-9.7,7
		c0,0-9.7,4.7-10.1,21.8v24.2c0,0,1.2,9,3.5,12.5l4.7,11.7l-0.4,11.3c0,0,0.8,9.4,3.1,11.3l3.1,20.3v10.5c0,0-3.1,14.4-1.9,23.8
		c1.2,9.4,0,34.3,0,34.3l0.8,16.4l3.5,1.6l-1.6,4.7c0,0-2.7,3.1-1.9,6.2h2.3v5.1c0,0,5.5,1.9,12.5,1.9l0.4-1.9
		c0,0,20.3,2.3,25.7-2.3c0,0-1.9-6.2-8.6-5.1l-4.3-3.5l-5.8-4.3l-1.9-3.5l1.2-23.4l5.8-21.4l1.6-11.3l10.5-32.3
		c0,0,4.3-14.8,5.5-22.2l0.4-4.7c0,0,0-7.8-0.8-11.3l-0.4-32l-0.8-13.2l-0.4-15.6c0,0-0.8-6.2-5.1-9.4l-8.6-6.2l-1.9-3.1v-2.7
		c0,0,5.5-3.1,5.5-6.6v-2.7c0,0,2.7-4.3,0.4-9C224.8,77.4,228,59.8,212.8,60.2z"/>
	<path class="st2" d="M203.8,93.3c0,0,6.6-2.3,15.2,2.3"/>
	<path class="st2" d="M189.8,200.5c0,0,18.3,0.8,31.2-2.7l7-1.9l0.4-3.5c0,0,3.5,2.3,8.2,1.6"/>
	<polyline class="st2" points="228.3,192.3 223.3,176.3 219.8,149.1 217,139.3 	"/>
	<path class="st2" d="M228,195.8c0,0-0.4,4.7,1.9,7.4c0,0,3.1-0.4,6.2-6.6"/>
	<path class="st2" d="M204.2,211l-0.8,25.3c0,0-1.2,12.9-1.2,14c0,1.2-1.9,9-1.9,9s-4.3,30.4-5.1,47.9c0,0,8.6,4.3,17.1-1.2"/>
</g>
<rect x="261.9" y="61.5" class="st3" width="33.8" height="45.2"/>
</svg>
