<?xml version="1.0" encoding="utf-8"?>
<!-- Generator: Adobe Illustrator 21.0.0, SVG Export Plug-In . SVG Version: 6.00 Build 0)  -->
<svg version="1.1" id="Capa_1" xmlns="http://www.w3.org/2000/svg" xmlns:xlink="http://www.w3.org/1999/xlink" x="0px" y="0px"
	 viewBox="0 0 1057.5 1372.1" style="enable-background:new 0 0 1057.5 1372.1;" xml:space="preserve">
<style type="text/css">
	.st0{clip-path:url(#SVGID_2_);}
	.st1{clip-path:url(#SVGID_4_);fill:#1A1413;}
	.st2{clip-path:url(#SVGID_4_);fill:#0080BA;}
	.st3{clip-path:url(#SVGID_4_);fill-rule:evenodd;clip-rule:evenodd;fill:#CBD74B;}
	.st4{clip-path:url(#SVGID_6_);fill:url(#SVGID_7_);}
	.st5{clip-path:url(#SVGID_9_);fill:url(#SVGID_10_);}
	.st6{clip-path:url(#SVGID_2_);fill:#26B7CF;}
	.st7{clip-path:url(#SVGID_2_);fill:#E3D06B;}
	.st8{clip-path:url(#SVGID_12_);fill:#E18924;}
	.st9{clip-path:url(#SVGID_12_);fill:#993A8B;}
	.st10{opacity:0.1;clip-path:url(#SVGID_14_);}
	.st11{clip-path:url(#SVGID_16_);fill:#191413;}
	.st12{clip-path:url(#SVGID_16_);}
	.st13{clip-path:url(#SVGID_18_);fill-rule:evenodd;clip-rule:evenodd;fill:#191413;}
	.st14{fill:#1D1D1B;}
	.st15{font-family:'MyriadPro-Regular';}
	.st16{font-size:36.3814px;}
	.st17{font-family:'MyriadPro-Light';}
	.st18{font-size:34.649px;}
	.st19{clip-path:url(#SVGID_20_);fill:#1A1413;}
	.st20{clip-path:url(#SVGID_20_);fill:#0080BA;}
	.st21{clip-path:url(#SVGID_20_);fill-rule:evenodd;clip-rule:evenodd;fill:#CBD74B;}
	.st22{clip-path:url(#SVGID_22_);fill:url(#SVGID_23_);}
	.st23{clip-path:url(#SVGID_25_);fill:url(#SVGID_26_);}
	.st24{clip-path:url(#SVGID_28_);fill:#E18924;}
	.st25{clip-path:url(#SVGID_28_);fill:#993A8B;}
	.st26{font-family:'MyriadPro-Bold';}
	.st27{font-size:98.1632px;}
	.st28{clip-path:url(#SVGID_2_);fill:none;stroke:#000000;stroke-width:4;stroke-linecap:square;}
	.st29{font-size:31.1841px;}
	.st30{fill:#00B4EC;}
	.st31{font-size:91.0584px;}
	.st32{clip-path:url(#SVGID_30_);fill:#1B3660;}
	.st33{clip-path:url(#SVGID_30_);fill:#99999E;}
	.st34{clip-path:url(#SVGID_2_);fill:#1B3660;}
	.st35{clip-path:url(#SVGID_32_);fill:#1B3660;}
	.st36{clip-path:url(#SVGID_34_);fill:#1B3660;}
	.st37{clip-path:url(#SVGID_36_);fill:#1B3660;}
	.st38{clip-path:url(#SVGID_38_);fill:#1B3660;}
	.st39{font-family:'TrebuchetMS-Italic';}
	.st40{fill:none;stroke:#000000;stroke-width:2;stroke-miterlimit:10;}
	.st41{fill:none;}
	.st42{font-family:'Barlow-Light';}
	.st43{font-size:26px;}
</style>
<g>
	<defs>
		<rect id="SVGID_1_" width="1060.3" height="1372.1"/>
	</defs>
	<clipPath id="SVGID_2_">
		<use xlink:href="#SVGID_1_"  style="overflow:visible;"/>
	</clipPath>
	<g class="st0">
		<defs>
			<rect id="SVGID_3_" x="711.1" y="1093" width="278.9" height="112.1"/>
		</defs>
		<clipPath id="SVGID_4_">
			<use xlink:href="#SVGID_3_"  style="overflow:visible;"/>
		</clipPath>
		<path class="st1" d="M853.4,1142.8l-4.1,12h-5.2l13.3-38.2h6.1l13.4,38.2h-5.4l-4.2-12H853.4z M866.2,1139l-3.8-11
			c-0.9-2.5-1.5-4.8-2-7h-0.1c-0.6,2.3-1.2,4.6-2,6.9l-3.8,11.1H866.2z"/>
		<path class="st1" d="M882.3,1136.3c0-3.5-0.1-6.3-0.2-9h4.6l0.2,4.7h0.1c2.1-3.3,5.4-5.3,10-5.3c6.8,0,11.9,5.6,11.9,13.9
			c0,9.9-6.2,14.7-12.8,14.7c-3.7,0-7-1.6-8.7-4.3h-0.1v14.9h-5.1V1136.3z M887.3,1143.7c0,0.7,0.1,1.4,0.2,2c0.9,3.5,4,5.8,7.7,5.8
			c5.4,0,8.5-4.3,8.5-10.6c0-5.5-3-10.2-8.4-10.2c-3.5,0-6.7,2.4-7.7,6.2c-0.2,0.6-0.3,1.4-0.3,2V1143.7z"/>
		<path class="st1" d="M921.5,1119.5v7.9h7.3v3.8h-7.3v14.8c0,3.4,1,5.3,3.8,5.3c1.3,0,2.3-0.2,3-0.3l0.2,3.7
			c-1,0.4-2.6,0.7-4.5,0.7c-2.4,0-4.3-0.7-5.5-2.1c-1.5-1.5-2-3.9-2-7.1v-15h-4.4v-3.8h4.4v-6.6L921.5,1119.5z"/>
		<path class="st1" d="M958.1,1147.3c0,2.8,0.1,5.3,0.2,7.5h-4.5l-0.3-4.5h-0.1c-1.3,2.2-4.3,5.1-9.3,5.1c-4.4,0-9.7-2.4-9.7-12v-16
			h5.1v15.2c0,5.2,1.6,8.7,6.3,8.7c3.4,0,5.8-2.3,6.7-4.5c0.3-0.7,0.5-1.6,0.5-2.6v-16.8h5.1V1147.3z"/>
		<path class="st1" d="M965.8,1149.7c1.5,1,4.2,2,6.7,2c3.7,0,5.5-1.8,5.5-4.1c0-2.4-1.5-3.7-5.2-5c-5.1-1.8-7.4-4.5-7.4-7.8
			c0-4.4,3.7-8,9.7-8c2.8,0,5.3,0.8,6.9,1.7l-1.3,3.6c-1.1-0.7-3.1-1.6-5.7-1.6c-3,0-4.7,1.7-4.7,3.7c0,2.3,1.7,3.3,5.3,4.6
			c4.9,1.8,7.4,4.2,7.4,8.3c0,4.8-3.8,8.2-10.5,8.2c-3.1,0-5.9-0.7-7.9-1.9L965.8,1149.7z"/>
		<path class="st1" d="M842,1168.7c0.5-0.1,1.1-0.1,1.8-0.1c0.9,0,1.6,0.2,2.1,0.6c0.4,0.3,0.6,0.9,0.6,1.5c0,0.7-0.2,1.2-0.6,1.5
			c-0.5,0.5-1.3,0.8-2.3,0.8c-0.3,0-0.6,0-0.8-0.1v2.9h-1V1168.7z M842.9,1172.2c0.2,0.1,0.5,0.1,0.8,0.1c1.2,0,1.9-0.5,1.9-1.6
			c0-1-0.7-1.4-1.7-1.4c-0.4,0-0.7,0-0.9,0.1V1172.2z"/>
		<path class="st1" d="M854.2,1172.2c0,2.5-1.6,3.8-3.4,3.8c-2,0-3.3-1.5-3.3-3.7c0-2.3,1.5-3.8,3.4-3.8
			C852.9,1168.5,854.2,1170.1,854.2,1172.2 M848.4,1172.3c0,1.5,0.9,2.9,2.4,2.9c1.5,0,2.4-1.4,2.4-3c0-1.4-0.8-2.9-2.4-2.9
			C849.2,1169.3,848.4,1170.7,848.4,1172.3"/>
		<polygon class="st1" points="856.5,1169.5 854.3,1169.5 854.3,1168.7 859.8,1168.7 859.8,1169.5 857.5,1169.5 857.5,1175.9 
			856.5,1175.9 		"/>
		<polygon class="st1" points="864.5,1172.5 861.6,1172.5 861.6,1175.1 864.8,1175.1 864.8,1175.9 860.6,1175.9 860.6,1168.7 
			864.6,1168.7 864.6,1169.4 861.6,1169.4 861.6,1171.7 864.5,1171.7 		"/>
		<path class="st1" d="M866,1175.9v-7.2h1l2.4,3.7c0.5,0.8,1,1.6,1.3,2.4l0,0c-0.1-1-0.1-1.8-0.1-3v-3h0.9v7.2h-1l-2.4-3.7
			c-0.5-0.8-1-1.6-1.4-2.4l0,0c0.1,0.9,0.1,1.8,0.1,3v3.1H866z"/>
		<path class="st1" d="M878.5,1175.7c-0.4,0.2-1.1,0.3-2,0.3c-2.1,0-3.7-1.3-3.7-3.7c0-2.3,1.6-3.8,3.9-3.8c0.9,0,1.5,0.2,1.8,0.3
			l-0.2,0.8c-0.4-0.2-0.9-0.3-1.5-0.3c-1.7,0-2.9,1.1-2.9,3c0,1.8,1,2.9,2.9,2.9c0.6,0,1.2-0.1,1.6-0.3L878.5,1175.7z"/>
		<rect x="879.7" y="1168.7" class="st1" width="1" height="7.2"/>
		<path class="st1" d="M883.5,1173.6l-0.8,2.3h-1l2.5-7.2h1.2l2.5,7.2h-1l-0.8-2.3H883.5z M885.9,1172.9l-0.7-2.1
			c-0.2-0.5-0.3-0.9-0.4-1.3h0c-0.1,0.4-0.2,0.9-0.4,1.3l-0.7,2.1H885.9z"/>
		<path class="st1" d="M889,1168.8c0.6-0.1,1.3-0.2,2-0.2c1.4,0,2.4,0.3,3,0.9c0.7,0.6,1,1.4,1,2.6c0,1.2-0.4,2.2-1.1,2.8
			c-0.7,0.7-1.8,1-3.3,1c-0.7,0-1.3,0-1.7-0.1V1168.8z M890,1175.2c0.2,0,0.6,0.1,1,0.1c2,0,3.2-1.1,3.2-3.1c0-1.7-1-2.8-3-2.8
			c-0.5,0-0.9,0-1.1,0.1V1175.2z"/>
		<path class="st1" d="M902.7,1172.2c0,2.5-1.6,3.8-3.4,3.8c-2,0-3.3-1.5-3.3-3.7c0-2.3,1.5-3.8,3.4-3.8
			C901.4,1168.5,902.7,1170.1,902.7,1172.2 M896.9,1172.3c0,1.5,0.9,2.9,2.4,2.9c1.5,0,2.4-1.4,2.4-3c0-1.4-0.8-2.9-2.4-2.9
			C897.7,1169.3,896.9,1170.7,896.9,1172.3"/>
		<path class="st1" d="M903.9,1168.8c0.5-0.1,1.2-0.2,1.8-0.2c1,0,1.7,0.2,2.1,0.6c0.4,0.3,0.6,0.8,0.6,1.4c0,1-0.6,1.6-1.4,1.8v0
			c0.6,0.2,0.9,0.7,1.1,1.5c0.2,1,0.4,1.7,0.6,2h-1c-0.1-0.2-0.3-0.8-0.5-1.7c-0.2-1-0.6-1.4-1.5-1.4h-0.9v3.1h-1V1168.8z
			 M904.9,1172.1h1c1,0,1.7-0.5,1.7-1.4c0-0.9-0.7-1.3-1.7-1.4c-0.5,0-0.8,0-0.9,0.1V1172.1z"/>
		<path class="st1" d="M911.1,1173.6l-0.8,2.3h-1l2.5-7.2h1.2l2.5,7.2h-1l-0.8-2.3H911.1z M913.6,1172.9l-0.7-2.1
			c-0.2-0.5-0.3-0.9-0.4-1.3h0c-0.1,0.4-0.2,0.9-0.4,1.3l-0.7,2.1H913.6z"/>
		<polygon class="st1" points="922.8,1172.5 920,1172.5 920,1175.1 923.2,1175.1 923.2,1175.9 919,1175.9 919,1168.7 923,1168.7 
			923,1169.4 920,1169.4 920,1171.7 922.8,1171.7 		"/>
		<path class="st1" d="M924.4,1168.8c0.6-0.1,1.3-0.2,2-0.2c1.4,0,2.4,0.3,3,0.9c0.7,0.6,1,1.4,1,2.6c0,1.2-0.4,2.2-1.1,2.8
			c-0.7,0.7-1.8,1-3.3,1c-0.7,0-1.3,0-1.7-0.1V1168.8z M925.4,1175.2c0.2,0,0.6,0.1,1,0.1c2,0,3.2-1.1,3.2-3.1c0-1.7-1-2.8-3-2.8
			c-0.5,0-0.9,0-1.1,0.1V1175.2z"/>
		<path class="st1" d="M932.7,1168.7v4.3c0,1.6,0.7,2.3,1.7,2.3c1.1,0,1.8-0.7,1.8-2.3v-4.3h1v4.2c0,2.2-1.2,3.1-2.8,3.1
			c-1.5,0-2.7-0.8-2.7-3.1v-4.3H932.7z"/>
		<path class="st1" d="M944.1,1175.7c-0.4,0.2-1.1,0.3-2,0.3c-2.1,0-3.7-1.3-3.7-3.7c0-2.3,1.6-3.8,3.9-3.8c0.9,0,1.5,0.2,1.8,0.3
			l-0.2,0.8c-0.4-0.2-0.9-0.3-1.5-0.3c-1.7,0-2.9,1.1-2.9,3c0,1.8,1,2.9,2.8,2.9c0.6,0,1.2-0.1,1.6-0.3L944.1,1175.7z"/>
		<path class="st1" d="M946.5,1173.6l-0.8,2.3h-1l2.5-7.2h1.2l2.5,7.2h-1l-0.8-2.3H946.5z M948.9,1172.9l-0.7-2.1
			c-0.2-0.5-0.3-0.9-0.4-1.3h0c-0.1,0.4-0.2,0.9-0.4,1.3l-0.7,2.1H948.9z"/>
		<path class="st1" d="M957.1,1175.7c-0.4,0.2-1.1,0.3-2,0.3c-2.1,0-3.7-1.3-3.7-3.7c0-2.3,1.6-3.8,3.9-3.8c0.9,0,1.5,0.2,1.8,0.3
			l-0.2,0.8c-0.4-0.2-0.9-0.3-1.5-0.3c-1.7,0-2.9,1.1-2.9,3c0,1.8,1,2.9,2.9,2.9c0.6,0,1.2-0.1,1.6-0.3L957.1,1175.7z"/>
		<rect x="958.3" y="1168.7" class="st1" width="1" height="7.2"/>
		<path class="st1" d="M967.2,1172.2c0,2.5-1.6,3.8-3.4,3.8c-2,0-3.3-1.5-3.3-3.7c0-2.3,1.5-3.8,3.4-3.8
			C965.9,1168.5,967.2,1170.1,967.2,1172.2 M961.5,1172.3c0,1.5,0.9,2.9,2.4,2.9c1.5,0,2.4-1.4,2.4-3c0-1.4-0.8-2.9-2.4-2.9
			C962.3,1169.3,961.5,1170.7,961.5,1172.3"/>
		<path class="st1" d="M968.5,1175.9v-7.2h1l2.4,3.7c0.5,0.8,1,1.6,1.3,2.4l0,0c-0.1-1-0.1-1.8-0.1-3v-3h0.9v7.2h-1l-2.4-3.7
			c-0.5-0.8-1-1.6-1.4-2.4l0,0c0.1,0.9,0.1,1.8,0.1,3v3.1H968.5z"/>
		<path class="st1" d="M976.9,1173.6l-0.8,2.3h-1l2.5-7.2h1.2l2.5,7.2h-1l-0.8-2.3H976.9z M979.3,1172.9l-0.7-2.1
			c-0.2-0.5-0.3-0.9-0.4-1.3h0c-0.1,0.4-0.2,0.9-0.4,1.3l-0.7,2.1H979.3z"/>
		<polygon class="st1" points="982.5,1168.7 983.4,1168.7 983.4,1175.1 986.6,1175.1 986.6,1175.9 982.5,1175.9 		"/>
		<rect x="837.1" y="1179.8" class="st2" width="153.8" height="0.5"/>
		<path class="st1" d="M842.1,1190.9c0.3,0.2,0.7,0.3,1.2,0.3c0.7,0,1-0.3,1-0.8c0-0.5-0.3-0.7-0.9-1c-0.8-0.3-1.3-0.7-1.3-1.4
			c0-0.8,0.6-1.3,1.6-1.3c0.5,0,0.9,0.1,1.1,0.2l-0.2,0.5c-0.2-0.1-0.5-0.2-0.9-0.2c-0.7,0-0.9,0.4-0.9,0.7c0,0.5,0.3,0.7,1,0.9
			c0.8,0.3,1.3,0.7,1.3,1.4c0,0.7-0.6,1.4-1.7,1.4c-0.5,0-1-0.1-1.3-0.3L842.1,1190.9z"/>
		<rect x="845.8" y="1186.8" class="st1" width="0.6" height="4.9"/>
		<path class="st1" d="M847.6,1186.9c0.3,0,0.7-0.1,1.2-0.1c0.6,0,1.1,0.1,1.4,0.4c0.3,0.2,0.4,0.6,0.4,1c0,0.4-0.1,0.8-0.4,1
			c-0.3,0.4-0.9,0.5-1.5,0.5c-0.2,0-0.4,0-0.5,0v1.9h-0.6V1186.9z M848.2,1189.2c0.1,0,0.3,0.1,0.5,0.1c0.8,0,1.2-0.4,1.2-1
			c0-0.6-0.5-1-1.2-1c-0.3,0-0.5,0-0.6,0.1V1189.2z"/>
		<path class="st1" d="M853.1,1186.9c0.3-0.1,0.8-0.1,1.2-0.1c0.7,0,1.1,0.1,1.4,0.4c0.2,0.2,0.4,0.5,0.4,0.9c0,0.6-0.4,1.1-0.9,1.2
			v0c0.4,0.1,0.6,0.5,0.7,1c0.2,0.7,0.3,1.1,0.4,1.3h-0.7c-0.1-0.1-0.2-0.6-0.3-1.2c-0.1-0.7-0.4-0.9-1-0.9h-0.6v2.1h-0.6V1186.9z
			 M853.7,1189.1h0.7c0.7,0,1.1-0.4,1.1-0.9c0-0.6-0.5-0.9-1.1-0.9c-0.3,0-0.5,0-0.6,0.1V1189.1z"/>
		<path class="st1" d="M857.4,1190.1c0,0.9,0.6,1.2,1.2,1.2c0.5,0,0.7-0.1,1-0.2l0.1,0.5c-0.2,0.1-0.6,0.2-1.2,0.2
			c-1.1,0-1.8-0.7-1.8-1.8c0-1.1,0.6-1.9,1.7-1.9c1.2,0,1.5,1,1.5,1.6c0,0.1,0,0.2,0,0.3H857.4z M859.3,1189.6c0-0.4-0.2-1-0.9-1
			c-0.7,0-0.9,0.6-1,1H859.3z"/>
		<path class="st1" d="M863.8,1186.6v4.2c0,0.3,0,0.7,0,0.9h-0.6l0-0.6h0c-0.2,0.4-0.6,0.7-1.2,0.7c-0.9,0-1.5-0.7-1.5-1.8
			c0-1.2,0.7-1.9,1.6-1.9c0.5,0,0.9,0.3,1.1,0.5h0v-2.1H863.8z M863.2,1189.6c0-0.1,0-0.2,0-0.3c-0.1-0.4-0.4-0.7-0.9-0.7
			c-0.7,0-1.1,0.6-1.1,1.3c0,0.7,0.4,1.3,1.1,1.3c0.4,0,0.8-0.3,0.9-0.8c0-0.1,0-0.2,0-0.3V1189.6z"/>
		<path class="st1" d="M869.5,1186.6v4.2c0,0.3,0,0.7,0,0.9H869l0-0.6h0c-0.2,0.4-0.6,0.7-1.2,0.7c-0.9,0-1.5-0.7-1.5-1.8
			c0-1.2,0.7-1.9,1.6-1.9c0.5,0,0.9,0.3,1.1,0.5h0v-2.1H869.5z M868.9,1189.6c0-0.1,0-0.2,0-0.3c-0.1-0.4-0.4-0.7-0.9-0.7
			c-0.7,0-1.1,0.6-1.1,1.3c0,0.7,0.4,1.3,1.1,1.3c0.4,0,0.8-0.3,0.9-0.8c0-0.1,0-0.2,0-0.3V1189.6z"/>
		<path class="st1" d="M871,1190.1c0,0.9,0.6,1.2,1.2,1.2c0.5,0,0.7-0.1,1-0.2l0.1,0.5c-0.2,0.1-0.6,0.2-1.2,0.2
			c-1.1,0-1.8-0.7-1.8-1.8c0-1.1,0.6-1.9,1.7-1.9c1.2,0,1.5,1,1.5,1.6c0,0.1,0,0.2,0,0.3H871z M872.9,1189.6c0-0.4-0.2-1-0.9-1
			c-0.7,0-0.9,0.6-1,1H872.9z"/>
		<path class="st1" d="M879.4,1191.5c-0.2,0.1-0.7,0.2-1.3,0.2c-1.4,0-2.5-0.9-2.5-2.5c0-1.5,1.1-2.5,2.6-2.5c0.6,0,1,0.1,1.2,0.2
			l-0.2,0.5c-0.2-0.1-0.6-0.2-1-0.2c-1.2,0-1.9,0.7-1.9,2c0,1.2,0.7,2,1.9,2c0.4,0,0.8-0.1,1-0.2L879.4,1191.5z"/>
		<path class="st1" d="M883.3,1189.9c0,1.3-0.9,1.9-1.8,1.9c-1,0-1.7-0.7-1.7-1.8c0-1.2,0.8-1.9,1.8-1.9
			C882.6,1188.1,883.3,1188.9,883.3,1189.9 M880.5,1190c0,0.8,0.5,1.3,1.1,1.3c0.6,0,1.1-0.6,1.1-1.4c0-0.6-0.3-1.3-1.1-1.3
			C880.8,1188.6,880.5,1189.3,880.5,1190"/>
		<rect x="884.1" y="1186.6" class="st1" width="0.6" height="5.1"/>
		<path class="st1" d="M886.2,1190.1c0,0.9,0.6,1.2,1.2,1.2c0.5,0,0.7-0.1,1-0.2l0.1,0.5c-0.2,0.1-0.6,0.2-1.2,0.2
			c-1.1,0-1.8-0.7-1.8-1.8c0-1.1,0.6-1.9,1.7-1.9c1.2,0,1.5,1,1.5,1.6c0,0.1,0,0.2,0,0.3H886.2z M888.1,1189.6c0-0.4-0.2-1-0.9-1
			c-0.7,0-0.9,0.6-1,1H888.1z"/>
		<path class="st1" d="M892.6,1188.2c0,0.3,0,0.5,0,1v2c0,0.8-0.2,1.3-0.5,1.6c-0.3,0.3-0.8,0.4-1.3,0.4c-0.4,0-0.9-0.1-1.2-0.3
			l0.2-0.5c0.2,0.1,0.6,0.3,1,0.3c0.7,0,1.1-0.3,1.1-1.2v-0.4h0c-0.2,0.3-0.6,0.6-1.1,0.6c-0.9,0-1.5-0.7-1.5-1.7
			c0-1.2,0.8-1.9,1.6-1.9c0.6,0,1,0.3,1.1,0.6h0l0-0.5H892.6z M891.9,1189.6c0-0.1,0-0.2,0-0.3c-0.1-0.4-0.4-0.7-0.9-0.7
			c-0.6,0-1.1,0.5-1.1,1.3c0,0.7,0.4,1.3,1.1,1.3c0.4,0,0.8-0.2,0.9-0.6c0-0.1,0.1-0.2,0.1-0.3V1189.6z"/>
		<path class="st1" d="M894.3,1187.2c0,0.2-0.2,0.4-0.4,0.4c-0.2,0-0.4-0.2-0.4-0.4c0-0.2,0.2-0.4,0.4-0.4
			C894.2,1186.8,894.3,1187,894.3,1187.2 M893.6,1188.2h0.6v3.5h-0.6V1188.2z"/>
		<path class="st1" d="M898.6,1189.9c0,1.3-0.9,1.9-1.8,1.9c-1,0-1.7-0.7-1.7-1.8c0-1.2,0.8-1.9,1.8-1.9
			C897.9,1188.1,898.6,1188.9,898.6,1189.9 M895.7,1190c0,0.8,0.5,1.3,1.1,1.3c0.6,0,1.1-0.6,1.1-1.4c0-0.6-0.3-1.3-1.1-1.3
			C896.1,1188.6,895.7,1189.3,895.7,1190"/>
		<path class="st1" d="M899.3,1191.1c0.2,0.1,0.5,0.3,0.9,0.3c0.5,0,0.7-0.2,0.7-0.5c0-0.3-0.2-0.5-0.7-0.6c-0.6-0.2-0.9-0.6-0.9-1
			c0-0.6,0.5-1,1.2-1c0.4,0,0.7,0.1,0.9,0.2l-0.2,0.5c-0.1-0.1-0.4-0.2-0.7-0.2c-0.4,0-0.6,0.2-0.6,0.5c0,0.3,0.2,0.4,0.7,0.6
			c0.6,0.2,0.9,0.5,0.9,1.1c0,0.6-0.5,1-1.3,1c-0.4,0-0.8-0.1-1-0.2L899.3,1191.1z"/>
		<rect x="904" y="1186.3" class="st1" width="0.5" height="7.2"/>
		<polygon class="st1" points="907.2,1186.8 909.9,1186.8 909.9,1187.4 907.9,1187.4 907.9,1189 909.7,1189 909.7,1189.5 
			907.9,1189.5 907.9,1191.7 907.2,1191.7 		"/>
		<path class="st1" d="M913.5,1190.8c0,0.4,0,0.7,0,1H913l0-0.6h0c-0.2,0.3-0.5,0.6-1.2,0.6c-0.6,0-1.2-0.3-1.2-1.5v-2h0.6v1.9
			c0,0.7,0.2,1.1,0.8,1.1c0.4,0,0.7-0.3,0.9-0.6c0-0.1,0.1-0.2,0.1-0.3v-2.1h0.6V1190.8z"/>
		<path class="st1" d="M914.6,1189.2c0-0.4,0-0.7,0-0.9h0.6l0,0.6h0c0.2-0.3,0.6-0.7,1.2-0.7c0.5,0,1.3,0.3,1.3,1.5v2.1H917v-2
			c0-0.6-0.2-1-0.8-1c-0.4,0-0.8,0.3-0.9,0.6c0,0.1,0,0.2,0,0.3v2.1h-0.6V1189.2z"/>
		<path class="st1" d="M921.8,1186.6v4.2c0,0.3,0,0.7,0,0.9h-0.6l0-0.6h0c-0.2,0.4-0.6,0.7-1.2,0.7c-0.9,0-1.5-0.7-1.5-1.8
			c0-1.2,0.7-1.9,1.6-1.9c0.5,0,0.9,0.3,1.1,0.5h0v-2.1H921.8z M921.1,1189.6c0-0.1,0-0.2,0-0.3c-0.1-0.4-0.5-0.7-0.9-0.7
			c-0.7,0-1.1,0.6-1.1,1.3c0,0.7,0.4,1.3,1.1,1.3c0.4,0,0.8-0.3,0.9-0.8c0-0.1,0-0.2,0-0.3V1189.6z"/>
		<path class="st1" d="M924.8,1191.7l-0.1-0.4h0c-0.2,0.3-0.6,0.5-1.1,0.5c-0.7,0-1.1-0.5-1.1-1c0-0.8,0.8-1.3,2.1-1.3v-0.1
			c0-0.3-0.1-0.8-0.8-0.8c-0.3,0-0.7,0.1-0.9,0.3l-0.1-0.4c0.3-0.2,0.7-0.3,1.2-0.3c1.1,0,1.4,0.7,1.4,1.4v1.3c0,0.3,0,0.6,0.1,0.8
			H924.8z M924.7,1189.9c-0.7,0-1.5,0.1-1.5,0.8c0,0.4,0.3,0.6,0.6,0.6c0.5,0,0.8-0.3,0.9-0.6c0-0.1,0-0.1,0-0.2V1189.9z"/>
		<path class="st1" d="M928.9,1191.6c-0.2,0.1-0.5,0.2-1,0.2c-1.1,0-1.8-0.7-1.8-1.8c0-1.1,0.8-1.9,1.9-1.9c0.4,0,0.7,0.1,0.9,0.2
			l-0.1,0.5c-0.2-0.1-0.4-0.2-0.8-0.2c-0.8,0-1.3,0.6-1.3,1.3c0,0.8,0.5,1.3,1.2,1.3c0.4,0,0.6-0.1,0.8-0.2L928.9,1191.6z"/>
		<path class="st1" d="M930.4,1187.2c0,0.2-0.2,0.4-0.4,0.4c-0.2,0-0.4-0.2-0.4-0.4c0-0.2,0.2-0.4,0.4-0.4
			C930.3,1186.8,930.4,1187,930.4,1187.2 M929.7,1188.2h0.6v3.5h-0.6V1188.2z"/>
		<path class="st1" d="M934.7,1189.9c0,1.3-0.9,1.9-1.8,1.9c-1,0-1.7-0.7-1.7-1.8c0-1.2,0.8-1.9,1.8-1.9
			C934,1188.1,934.7,1188.9,934.7,1189.9 M931.8,1190c0,0.8,0.4,1.3,1.1,1.3c0.6,0,1.1-0.6,1.1-1.4c0-0.6-0.3-1.3-1.1-1.3
			C932.2,1188.6,931.8,1189.3,931.8,1190 M933.9,1186.7l-0.9,1h-0.5l0.6-1H933.9z"/>
		<path class="st1" d="M935.5,1189.2c0-0.4,0-0.7,0-0.9h0.6l0,0.6h0c0.2-0.3,0.6-0.7,1.2-0.7c0.5,0,1.3,0.3,1.3,1.5v2.1h-0.6v-2
			c0-0.6-0.2-1-0.8-1c-0.4,0-0.8,0.3-0.9,0.6c0,0.1,0,0.2,0,0.3v2.1h-0.6V1189.2z"/>
		<path class="st1" d="M941.2,1186.9c0.3-0.1,0.8-0.1,1.2-0.1c0.7,0,1.1,0.1,1.4,0.4c0.2,0.2,0.4,0.5,0.4,0.9c0,0.6-0.4,1.1-0.9,1.2
			v0c0.4,0.1,0.6,0.5,0.7,1c0.2,0.7,0.3,1.1,0.4,1.3h-0.7c-0.1-0.1-0.2-0.6-0.3-1.2c-0.1-0.7-0.4-0.9-1-0.9h-0.6v2.1h-0.6V1186.9z
			 M941.8,1189.1h0.7c0.7,0,1.1-0.4,1.1-0.9c0-0.6-0.5-0.9-1.1-0.9c-0.3,0-0.5,0-0.6,0.1V1189.1z"/>
		<path class="st1" d="M945.5,1190.1c0,0.9,0.6,1.2,1.2,1.2c0.5,0,0.7-0.1,1-0.2l0.1,0.5c-0.2,0.1-0.6,0.2-1.2,0.2
			c-1.1,0-1.8-0.7-1.8-1.8c0-1.1,0.6-1.9,1.7-1.9c1.2,0,1.5,1,1.5,1.6c0,0.1,0,0.2,0,0.3H945.5z M947.4,1189.6c0-0.4-0.2-1-0.9-1
			c-0.7,0-0.9,0.6-1,1H947.4z"/>
		<path class="st1" d="M949.5,1187.2c0,0.2-0.2,0.4-0.4,0.4c-0.2,0-0.4-0.2-0.4-0.4c0-0.2,0.2-0.4,0.4-0.4
			C949.4,1186.8,949.5,1187,949.5,1187.2 M948.8,1188.2h0.6v3.5h-0.6V1188.2z"/>
		<path class="st1" d="M950.5,1189.2c0-0.4,0-0.7,0-0.9h0.6l0,0.6h0c0.2-0.3,0.6-0.7,1.2-0.7c0.5,0,1.3,0.3,1.3,1.5v2.1h-0.6v-2
			c0-0.6-0.2-1-0.8-1c-0.4,0-0.8,0.3-0.9,0.6c0,0.1,0,0.2,0,0.3v2.1h-0.6V1189.2z"/>
		<path class="st1" d="M956.6,1191.7l-0.1-0.4h0c-0.2,0.3-0.6,0.5-1.1,0.5c-0.7,0-1.1-0.5-1.1-1c0-0.8,0.8-1.3,2.1-1.3v-0.1
			c0-0.3-0.1-0.8-0.8-0.8c-0.3,0-0.7,0.1-0.9,0.3l-0.1-0.4c0.3-0.2,0.7-0.3,1.2-0.3c1.1,0,1.4,0.7,1.4,1.4v1.3c0,0.3,0,0.6,0.1,0.8
			H956.6z M956.5,1189.9c-0.7,0-1.5,0.1-1.5,0.8c0,0.4,0.3,0.6,0.6,0.6c0.5,0,0.8-0.3,0.9-0.6c0-0.1,0-0.1,0-0.2V1189.9z"/>
		<rect x="958.2" y="1186.6" class="st1" width="0.6" height="5.1"/>
		<path class="st1" d="M963,1186.6v4.2c0,0.3,0,0.7,0,0.9h-0.6l0-0.6h0c-0.2,0.4-0.6,0.7-1.2,0.7c-0.9,0-1.5-0.7-1.5-1.8
			c0-1.2,0.7-1.9,1.6-1.9c0.5,0,0.9,0.3,1.1,0.5h0v-2.1H963z M962.4,1189.6c0-0.1,0-0.2,0-0.3c-0.1-0.4-0.4-0.7-0.9-0.7
			c-0.7,0-1.1,0.6-1.1,1.3c0,0.7,0.4,1.3,1.1,1.3c0.4,0,0.8-0.3,0.9-0.8c0-0.1,0-0.2,0-0.3V1189.6z"/>
		<path class="st1" d="M967.3,1189.9c0,1.3-0.9,1.9-1.8,1.9c-1,0-1.7-0.7-1.7-1.8c0-1.2,0.8-1.9,1.8-1.9
			C966.6,1188.1,967.3,1188.9,967.3,1189.9 M964.5,1190c0,0.8,0.5,1.3,1.1,1.3c0.6,0,1.1-0.6,1.1-1.4c0-0.6-0.3-1.3-1.1-1.3
			S964.5,1189.3,964.5,1190"/>
		<path class="st1" d="M969.6,1190.9c0.3,0.2,0.7,0.3,1.2,0.3c0.7,0,1-0.3,1-0.8c0-0.5-0.3-0.7-0.9-1c-0.8-0.3-1.3-0.7-1.3-1.4
			c0-0.8,0.6-1.3,1.6-1.3c0.5,0,0.9,0.1,1.1,0.2l-0.2,0.5c-0.2-0.1-0.5-0.2-0.9-0.2c-0.7,0-0.9,0.4-0.9,0.7c0,0.5,0.3,0.7,1,0.9
			c0.8,0.3,1.3,0.7,1.3,1.4c0,0.7-0.6,1.4-1.7,1.4c-0.5,0-1-0.1-1.3-0.3L969.6,1190.9z"/>
		<path class="st1" d="M976.6,1189.9c0,1.3-0.9,1.9-1.8,1.9c-1,0-1.7-0.7-1.7-1.8c0-1.2,0.8-1.9,1.8-1.9
			C975.9,1188.1,976.6,1188.9,976.6,1189.9 M973.8,1190c0,0.8,0.5,1.3,1.1,1.3c0.6,0,1.1-0.6,1.1-1.4c0-0.6-0.3-1.3-1.1-1.3
			C974.1,1188.6,973.8,1189.3,973.8,1190"/>
		<rect x="977.4" y="1186.6" class="st1" width="0.6" height="5.1"/>
		<path class="st1" d="M981.1,1191.7l-0.1-0.4h0c-0.2,0.3-0.6,0.5-1.1,0.5c-0.7,0-1.1-0.5-1.1-1c0-0.8,0.8-1.3,2.1-1.3v-0.1
			c0-0.3-0.1-0.8-0.8-0.8c-0.3,0-0.7,0.1-0.9,0.3l-0.1-0.4c0.3-0.2,0.7-0.3,1.2-0.3c1.1,0,1.4,0.7,1.4,1.4v1.3c0,0.3,0,0.6,0.1,0.8
			H981.1z M981.1,1189.9c-0.7,0-1.5,0.1-1.5,0.8c0,0.4,0.3,0.6,0.6,0.6c0.5,0,0.8-0.3,0.9-0.6c0-0.1,0-0.1,0-0.2V1189.9z"/>
		<path class="st1" d="M982.7,1189.3c0-0.4,0-0.8,0-1.1h0.6l0,0.7h0c0.2-0.5,0.6-0.8,1-0.8c0.1,0,0.1,0,0.2,0v0.6
			c-0.1,0-0.1,0-0.2,0c-0.5,0-0.8,0.3-0.9,0.8c0,0.1,0,0.2,0,0.3v1.9h-0.6V1189.3z"/>
		<path class="st1" d="M985.9,1187.2c0,0.2-0.2,0.4-0.4,0.4c-0.2,0-0.4-0.2-0.4-0.4c0-0.2,0.2-0.4,0.4-0.4
			C985.7,1186.8,985.9,1187,985.9,1187.2 M985.2,1188.2h0.6v3.5h-0.6V1188.2z"/>
		<path class="st3" d="M772.2,1202.5l52.8-40c-11.8-14.4-31.3-23.9-53.3-23.9c-21.7,0-40.8,9.1-52.7,23.2L772.2,1202.5z"/>
	</g>
	<g class="st0">
		<defs>
			<path id="SVGID_5_" d="M720.9,1162.8l51.4,39.3l50.9-38.6c-11.4-13.9-30.2-23-51.5-23C750.9,1140.4,732.4,1149.2,720.9,1162.8"/>
		</defs>
		<clipPath id="SVGID_6_">
			<use xlink:href="#SVGID_5_"  style="overflow:visible;"/>
		</clipPath>
		
			<radialGradient id="SVGID_7_" cx="230.009" cy="1086.4497" r="1.7324" gradientTransform="matrix(-0.6256 23.6593 24.2409 0.6106 -25416.5723 -4953.7017)" gradientUnits="userSpaceOnUse">
			<stop  offset="0" style="stop-color:#CDD74E"/>
			<stop  offset="0.158" style="stop-color:#CDD74E"/>
			<stop  offset="1" style="stop-color:#769034"/>
		</radialGradient>
		<polygon class="st4" points="824.9,1140.4 823.2,1204.6 719.3,1202 721,1137.8 		"/>
	</g>
	<g class="st0">
		<defs>
			<path id="SVGID_8_" d="M761.4,1121l-0.3,0.8l-34.4,0.2l0.1,0.1h-0.1l25.3,19.1c0,0,0,0,0.1,0l0.3,0.2l-9.5,32.8l28.2-18.5
				l29.9,18.4l-11.2-33l26-19h-0.1l0.1,0l-35.3-0.4l-0.4-1.1l-8.7-27.5L761.4,1121z"/>
		</defs>
		<clipPath id="SVGID_9_">
			<use xlink:href="#SVGID_8_"  style="overflow:visible;"/>
		</clipPath>
		
			<linearGradient id="SVGID_10_" gradientUnits="userSpaceOnUse" x1="226.754" y1="1084.2986" x2="228.4865" y2="1084.2986" gradientTransform="matrix(-0.2783 43.7312 44.8061 0.2716 -47748.5 -9115.584)">
			<stop  offset="0" style="stop-color:#5F7DBB"/>
			<stop  offset="0.3417" style="stop-color:#5F7DBB"/>
			<stop  offset="0.6324" style="stop-color:#4E619F"/>
			<stop  offset="0.9532" style="stop-color:#3C395E"/>
			<stop  offset="1" style="stop-color:#3C395E"/>
		</linearGradient>
		<polygon class="st5" points="816.5,1093 816,1174.7 726.2,1174.2 726.8,1092.5 		"/>
	</g>
	<polygon class="st6" points="776,1205.1 774,1203.7 821.2,1166.9 778.3,1205.1 	"/>
	<polygon class="st7" points="714.9,1168.6 718,1163.2 765.8,1199.3 	"/>
	<g class="st0">
		<defs>
			<rect id="SVGID_11_" x="711.1" y="1093" width="278.9" height="112.1"/>
		</defs>
		<clipPath id="SVGID_12_">
			<use xlink:href="#SVGID_11_"  style="overflow:visible;"/>
		</clipPath>
		<path class="st8" d="M792.2,1140.4c0,0,20.4,5.7,33.7,20.4l3.9-2.6c0,0-11.7-12.7-34.9-19.6L792.2,1140.4z"/>
		<path class="st9" d="M747.7,1138.8c0,0-26.3,7.7-36.6,27.1l2.4,1.6c0,0,10.3-19.8,36.6-27L747.7,1138.8z"/>
	</g>
	<g class="st0">
		<defs>
			<rect id="SVGID_13_" x="2.3" width="1057.9" height="1370.1"/>
		</defs>
		<clipPath id="SVGID_14_">
			<use xlink:href="#SVGID_13_"  style="overflow:visible;"/>
		</clipPath>
		<g class="st10">
			<g>
				<defs>
					<rect id="SVGID_15_" x="-181.2" y="-0.9" width="2343.9" height="2029.1"/>
				</defs>
				<clipPath id="SVGID_16_">
					<use xlink:href="#SVGID_15_"  style="overflow:visible;"/>
				</clipPath>
				<polygon class="st11" points="947.5,0 832.7,318.1 821.3,348.2 191.9,352.1 193.5,353.3 192.2,353.3 632.9,687.8 633.6,687.7 
					648.8,698.8 660.4,707.6 486.1,1317.7 1005.3,973.2 1063.1,1009 1063.1,0 				"/>
				<g class="st12">
					<defs>
						<rect id="SVGID_17_" x="2.4" y="1.7" width="1060.7" height="1369.3"/>
					</defs>
					<clipPath id="SVGID_18_">
						<use xlink:href="#SVGID_17_"  style="overflow:visible;"/>
					</clipPath>
					<path class="st13" d="M-27.4,1128.8l1051.6,823.5L2066.2,1143c-159.9-199.9-390.4-352.2-659.1-428.5l-6.2,4.6l234.9,698.5
						L1006,1027.3l-593.9,394l198.2-693.6l-9.8-7.5C346.5,796.5,128,940.8-27.4,1128.8"/>
					<path class="st13" d="M812.4,1834l-862.8-675.6l-0.8-0.6c-19.3,25.6-42.5,59.5-65.5,100.9L812.4,1834z"/>
					<path class="st13" d="M-32.3,1076.9c75.7-86.2,164.2-162.5,263.5-227.1c102.2-66.5,214-119.3,332.6-157.4l-34.2-26
						c-179.3,62.9-446.9,189.4-632.5,423.2c-52.1,65.6-78.2,129-78.2,129l32.5,20.1C-94.7,1141.7-39.8,1084.6-32.3,1076.9"/>
				</g>
			</g>
		</g>
	</g>
	<g class="st0">
		<text transform="matrix(1 0 0 1 100.5537 144.5879)" class="st14 st15 st16">A</text>
	</g>
	<g class="st0">
		<text transform="matrix(1 0 0 1 122.7822 144.5879)" class="st14 st15 st16">ptus Estudios</text>
	</g>
	<g class="st0">
		<text transform="matrix(1 0 0 1 98.3154 192.3975)" class="st14 st17 st18">D</text>
	</g>
	<g class="st0">
		<text transform="matrix(1 0 0 1 120.9414 192.3975)" class="st14 st17 st18">e la </text>
	</g>
	<g class="st0">
		<text transform="matrix(1 0 0 1 175.999 192.3975)" class="st14 st17 st18">e</text>
	</g>
	<g class="st0">
		<text transform="matrix(1 0 0 1 192.9082 192.3975)" class="st14 st17 st18">videncia a la prá</text>
	</g>
	<g class="st0">
		<text transform="matrix(1 0 0 1 415.1104 192.3975)" class="st14 st17 st18">c</text>
	</g>
	<g class="st0">
		<text transform="matrix(1 0 0 1 430.9111 192.3975)" class="st14 st17 st18">tica</text>
	</g>
	<g class="st0">
		<defs>
			<rect id="SVGID_19_" x="711.1" y="1093" width="278.9" height="112.1"/>
		</defs>
		<clipPath id="SVGID_20_">
			<use xlink:href="#SVGID_19_"  style="overflow:visible;"/>
		</clipPath>
		<path class="st19" d="M853.4,1142.8l-4.1,12h-5.2l13.3-38.2h6.1l13.4,38.2h-5.4l-4.2-12H853.4z M866.2,1139l-3.8-11
			c-0.9-2.5-1.5-4.8-2-7h-0.1c-0.6,2.3-1.2,4.6-2,6.9l-3.8,11.1H866.2z"/>
		<path class="st19" d="M882.3,1136.3c0-3.5-0.1-6.3-0.2-9h4.6l0.2,4.7h0.1c2.1-3.3,5.4-5.3,10-5.3c6.8,0,11.9,5.6,11.9,13.9
			c0,9.9-6.2,14.7-12.8,14.7c-3.7,0-7-1.6-8.7-4.3h-0.1v14.9h-5.1V1136.3z M887.3,1143.7c0,0.7,0.1,1.4,0.2,2c0.9,3.5,4,5.8,7.7,5.8
			c5.4,0,8.5-4.3,8.5-10.6c0-5.5-3-10.2-8.4-10.2c-3.5,0-6.7,2.4-7.7,6.2c-0.2,0.6-0.3,1.4-0.3,2V1143.7z"/>
		<path class="st19" d="M921.5,1119.5v7.9h7.3v3.8h-7.3v14.8c0,3.4,1,5.3,3.8,5.3c1.3,0,2.3-0.2,3-0.3l0.2,3.7
			c-1,0.4-2.6,0.7-4.5,0.7c-2.4,0-4.3-0.7-5.5-2.1c-1.5-1.5-2-3.9-2-7.1v-15h-4.4v-3.8h4.4v-6.6L921.5,1119.5z"/>
		<path class="st19" d="M958.1,1147.3c0,2.8,0.1,5.3,0.2,7.5h-4.5l-0.3-4.5h-0.1c-1.3,2.2-4.3,5.1-9.3,5.1c-4.4,0-9.7-2.4-9.7-12
			v-16h5.1v15.2c0,5.2,1.6,8.7,6.3,8.7c3.4,0,5.8-2.3,6.7-4.5c0.3-0.7,0.5-1.6,0.5-2.6v-16.8h5.1V1147.3z"/>
		<path class="st19" d="M965.8,1149.7c1.5,1,4.2,2,6.7,2c3.7,0,5.5-1.8,5.5-4.1c0-2.4-1.5-3.7-5.2-5c-5.1-1.8-7.4-4.5-7.4-7.8
			c0-4.4,3.7-8,9.7-8c2.8,0,5.3,0.8,6.9,1.7l-1.3,3.6c-1.1-0.7-3.1-1.6-5.7-1.6c-3,0-4.7,1.7-4.7,3.7c0,2.3,1.7,3.3,5.3,4.6
			c4.9,1.8,7.4,4.2,7.4,8.3c0,4.8-3.8,8.2-10.5,8.2c-3.1,0-5.9-0.7-7.9-1.9L965.8,1149.7z"/>
		<path class="st19" d="M842,1168.7c0.5-0.1,1.1-0.1,1.8-0.1c0.9,0,1.6,0.2,2.1,0.6c0.4,0.3,0.6,0.9,0.6,1.5c0,0.7-0.2,1.2-0.6,1.5
			c-0.5,0.5-1.3,0.8-2.3,0.8c-0.3,0-0.6,0-0.8-0.1v2.9h-1V1168.7z M842.9,1172.2c0.2,0.1,0.5,0.1,0.8,0.1c1.2,0,1.9-0.5,1.9-1.6
			c0-1-0.7-1.4-1.7-1.4c-0.4,0-0.7,0-0.9,0.1V1172.2z"/>
		<path class="st19" d="M854.2,1172.2c0,2.5-1.6,3.8-3.4,3.8c-2,0-3.3-1.5-3.3-3.7c0-2.3,1.5-3.8,3.4-3.8
			C852.9,1168.5,854.2,1170.1,854.2,1172.2 M848.4,1172.3c0,1.5,0.9,2.9,2.4,2.9c1.5,0,2.4-1.4,2.4-3c0-1.4-0.8-2.9-2.4-2.9
			C849.2,1169.3,848.4,1170.7,848.4,1172.3"/>
		<polygon class="st19" points="856.5,1169.5 854.3,1169.5 854.3,1168.7 859.8,1168.7 859.8,1169.5 857.5,1169.5 857.5,1175.9 
			856.5,1175.9 		"/>
		<polygon class="st19" points="864.5,1172.5 861.6,1172.5 861.6,1175.1 864.8,1175.1 864.8,1175.9 860.6,1175.9 860.6,1168.7 
			864.6,1168.7 864.6,1169.4 861.6,1169.4 861.6,1171.7 864.5,1171.7 		"/>
		<path class="st19" d="M866,1175.9v-7.2h1l2.4,3.7c0.5,0.8,1,1.6,1.3,2.4l0,0c-0.1-1-0.1-1.8-0.1-3v-3h0.9v7.2h-1l-2.4-3.7
			c-0.5-0.8-1-1.6-1.4-2.4l0,0c0.1,0.9,0.1,1.8,0.1,3v3.1H866z"/>
		<path class="st19" d="M878.5,1175.7c-0.4,0.2-1.1,0.3-2,0.3c-2.1,0-3.7-1.3-3.7-3.7c0-2.3,1.6-3.8,3.9-3.8c0.9,0,1.5,0.2,1.8,0.3
			l-0.2,0.8c-0.4-0.2-0.9-0.3-1.5-0.3c-1.7,0-2.9,1.1-2.9,3c0,1.8,1,2.9,2.9,2.9c0.6,0,1.2-0.1,1.6-0.3L878.5,1175.7z"/>
		<rect x="879.7" y="1168.7" class="st19" width="1" height="7.2"/>
		<path class="st19" d="M883.5,1173.6l-0.8,2.3h-1l2.5-7.2h1.2l2.5,7.2h-1l-0.8-2.3H883.5z M885.9,1172.9l-0.7-2.1
			c-0.2-0.5-0.3-0.9-0.4-1.3h0c-0.1,0.4-0.2,0.9-0.4,1.3l-0.7,2.1H885.9z"/>
		<path class="st19" d="M889,1168.8c0.6-0.1,1.3-0.2,2-0.2c1.4,0,2.4,0.3,3,0.9c0.7,0.6,1,1.4,1,2.6c0,1.2-0.4,2.2-1.1,2.8
			c-0.7,0.7-1.8,1-3.3,1c-0.7,0-1.3,0-1.7-0.1V1168.8z M890,1175.2c0.2,0,0.6,0.1,1,0.1c2,0,3.2-1.1,3.2-3.1c0-1.7-1-2.8-3-2.8
			c-0.5,0-0.9,0-1.1,0.1V1175.2z"/>
		<path class="st19" d="M902.7,1172.2c0,2.5-1.6,3.8-3.4,3.8c-2,0-3.3-1.5-3.3-3.7c0-2.3,1.5-3.8,3.4-3.8
			C901.4,1168.5,902.7,1170.1,902.7,1172.2 M896.9,1172.3c0,1.5,0.9,2.9,2.4,2.9c1.5,0,2.4-1.4,2.4-3c0-1.4-0.8-2.9-2.4-2.9
			C897.7,1169.3,896.9,1170.7,896.9,1172.3"/>
		<path class="st19" d="M903.9,1168.8c0.5-0.1,1.2-0.2,1.8-0.2c1,0,1.7,0.2,2.1,0.6c0.4,0.3,0.6,0.8,0.6,1.4c0,1-0.6,1.6-1.4,1.8v0
			c0.6,0.2,0.9,0.7,1.1,1.5c0.2,1,0.4,1.7,0.6,2h-1c-0.1-0.2-0.3-0.8-0.5-1.7c-0.2-1-0.6-1.4-1.5-1.4h-0.9v3.1h-1V1168.8z
			 M904.9,1172.1h1c1,0,1.7-0.5,1.7-1.4c0-0.9-0.7-1.3-1.7-1.4c-0.5,0-0.8,0-0.9,0.1V1172.1z"/>
		<path class="st19" d="M911.1,1173.6l-0.8,2.3h-1l2.5-7.2h1.2l2.5,7.2h-1l-0.8-2.3H911.1z M913.6,1172.9l-0.7-2.1
			c-0.2-0.5-0.3-0.9-0.4-1.3h0c-0.1,0.4-0.2,0.9-0.4,1.3l-0.7,2.1H913.6z"/>
		<polygon class="st19" points="922.8,1172.5 920,1172.5 920,1175.1 923.2,1175.1 923.2,1175.9 919,1175.9 919,1168.7 923,1168.7 
			923,1169.4 920,1169.4 920,1171.7 922.8,1171.7 		"/>
		<path class="st19" d="M924.4,1168.8c0.6-0.1,1.3-0.2,2-0.2c1.4,0,2.4,0.3,3,0.9c0.7,0.6,1,1.4,1,2.6c0,1.2-0.4,2.2-1.1,2.8
			c-0.7,0.7-1.8,1-3.3,1c-0.7,0-1.3,0-1.7-0.1V1168.8z M925.4,1175.2c0.2,0,0.6,0.1,1,0.1c2,0,3.2-1.1,3.2-3.1c0-1.7-1-2.8-3-2.8
			c-0.5,0-0.9,0-1.1,0.1V1175.2z"/>
		<path class="st19" d="M932.7,1168.7v4.3c0,1.6,0.7,2.3,1.7,2.3c1.1,0,1.8-0.7,1.8-2.3v-4.3h1v4.2c0,2.2-1.2,3.1-2.8,3.1
			c-1.5,0-2.7-0.8-2.7-3.1v-4.3H932.7z"/>
		<path class="st19" d="M944.1,1175.7c-0.4,0.2-1.1,0.3-2,0.3c-2.1,0-3.7-1.3-3.7-3.7c0-2.3,1.6-3.8,3.9-3.8c0.9,0,1.5,0.2,1.8,0.3
			l-0.2,0.8c-0.4-0.2-0.9-0.3-1.5-0.3c-1.7,0-2.9,1.1-2.9,3c0,1.8,1,2.9,2.8,2.9c0.6,0,1.2-0.1,1.6-0.3L944.1,1175.7z"/>
		<path class="st19" d="M946.5,1173.6l-0.8,2.3h-1l2.5-7.2h1.2l2.5,7.2h-1l-0.8-2.3H946.5z M948.9,1172.9l-0.7-2.1
			c-0.2-0.5-0.3-0.9-0.4-1.3h0c-0.1,0.4-0.2,0.9-0.4,1.3l-0.7,2.1H948.9z"/>
		<path class="st19" d="M957.1,1175.7c-0.4,0.2-1.1,0.3-2,0.3c-2.1,0-3.7-1.3-3.7-3.7c0-2.3,1.6-3.8,3.9-3.8c0.9,0,1.5,0.2,1.8,0.3
			l-0.2,0.8c-0.4-0.2-0.9-0.3-1.5-0.3c-1.7,0-2.9,1.1-2.9,3c0,1.8,1,2.9,2.9,2.9c0.6,0,1.2-0.1,1.6-0.3L957.1,1175.7z"/>
		<rect x="958.3" y="1168.7" class="st19" width="1" height="7.2"/>
		<path class="st19" d="M967.2,1172.2c0,2.5-1.6,3.8-3.4,3.8c-2,0-3.3-1.5-3.3-3.7c0-2.3,1.5-3.8,3.4-3.8
			C965.9,1168.5,967.2,1170.1,967.2,1172.2 M961.5,1172.3c0,1.5,0.9,2.9,2.4,2.9c1.5,0,2.4-1.4,2.4-3c0-1.4-0.8-2.9-2.4-2.9
			C962.3,1169.3,961.5,1170.7,961.5,1172.3"/>
		<path class="st19" d="M968.5,1175.9v-7.2h1l2.4,3.7c0.5,0.8,1,1.6,1.3,2.4l0,0c-0.1-1-0.1-1.8-0.1-3v-3h0.9v7.2h-1l-2.4-3.7
			c-0.5-0.8-1-1.6-1.4-2.4l0,0c0.1,0.9,0.1,1.8,0.1,3v3.1H968.5z"/>
		<path class="st19" d="M976.9,1173.6l-0.8,2.3h-1l2.5-7.2h1.2l2.5,7.2h-1l-0.8-2.3H976.9z M979.3,1172.9l-0.7-2.1
			c-0.2-0.5-0.3-0.9-0.4-1.3h0c-0.1,0.4-0.2,0.9-0.4,1.3l-0.7,2.1H979.3z"/>
		<polygon class="st19" points="982.5,1168.7 983.4,1168.7 983.4,1175.1 986.6,1175.1 986.6,1175.9 982.5,1175.9 		"/>
		<rect x="837.1" y="1179.8" class="st20" width="153.8" height="0.5"/>
		<path class="st19" d="M842.1,1190.9c0.3,0.2,0.7,0.3,1.2,0.3c0.7,0,1-0.3,1-0.8c0-0.5-0.3-0.7-0.9-1c-0.8-0.3-1.3-0.7-1.3-1.4
			c0-0.8,0.6-1.3,1.6-1.3c0.5,0,0.9,0.1,1.1,0.2l-0.2,0.5c-0.2-0.1-0.5-0.2-0.9-0.2c-0.7,0-0.9,0.4-0.9,0.7c0,0.5,0.3,0.7,1,0.9
			c0.8,0.3,1.3,0.7,1.3,1.4c0,0.7-0.6,1.4-1.7,1.4c-0.5,0-1-0.1-1.3-0.3L842.1,1190.9z"/>
		<rect x="845.8" y="1186.8" class="st19" width="0.6" height="4.9"/>
		<path class="st19" d="M847.6,1186.9c0.3,0,0.7-0.1,1.2-0.1c0.6,0,1.1,0.1,1.4,0.4c0.3,0.2,0.4,0.6,0.4,1c0,0.4-0.1,0.8-0.4,1
			c-0.3,0.4-0.9,0.5-1.5,0.5c-0.2,0-0.4,0-0.5,0v1.9h-0.6V1186.9z M848.2,1189.2c0.1,0,0.3,0.1,0.5,0.1c0.8,0,1.2-0.4,1.2-1
			c0-0.6-0.5-1-1.2-1c-0.3,0-0.5,0-0.6,0.1V1189.2z"/>
		<path class="st19" d="M853.1,1186.9c0.3-0.1,0.8-0.1,1.2-0.1c0.7,0,1.1,0.1,1.4,0.4c0.2,0.2,0.4,0.5,0.4,0.9
			c0,0.6-0.4,1.1-0.9,1.2v0c0.4,0.1,0.6,0.5,0.7,1c0.2,0.7,0.3,1.1,0.4,1.3h-0.7c-0.1-0.1-0.2-0.6-0.3-1.2c-0.1-0.7-0.4-0.9-1-0.9
			h-0.6v2.1h-0.6V1186.9z M853.7,1189.1h0.7c0.7,0,1.1-0.4,1.1-0.9c0-0.6-0.5-0.9-1.1-0.9c-0.3,0-0.5,0-0.6,0.1V1189.1z"/>
		<path class="st19" d="M857.4,1190.1c0,0.9,0.6,1.2,1.2,1.2c0.5,0,0.7-0.1,1-0.2l0.1,0.5c-0.2,0.1-0.6,0.2-1.2,0.2
			c-1.1,0-1.8-0.7-1.8-1.8c0-1.1,0.6-1.9,1.7-1.9c1.2,0,1.5,1,1.5,1.6c0,0.1,0,0.2,0,0.3H857.4z M859.3,1189.6c0-0.4-0.2-1-0.9-1
			c-0.7,0-0.9,0.6-1,1H859.3z"/>
		<path class="st19" d="M863.8,1186.6v4.2c0,0.3,0,0.7,0,0.9h-0.6l0-0.6h0c-0.2,0.4-0.6,0.7-1.2,0.7c-0.9,0-1.5-0.7-1.5-1.8
			c0-1.2,0.7-1.9,1.6-1.9c0.5,0,0.9,0.3,1.1,0.5h0v-2.1H863.8z M863.2,1189.6c0-0.1,0-0.2,0-0.3c-0.1-0.4-0.4-0.7-0.9-0.7
			c-0.7,0-1.1,0.6-1.1,1.3c0,0.7,0.4,1.3,1.1,1.3c0.4,0,0.8-0.3,0.9-0.8c0-0.1,0-0.2,0-0.3V1189.6z"/>
		<path class="st19" d="M869.5,1186.6v4.2c0,0.3,0,0.7,0,0.9H869l0-0.6h0c-0.2,0.4-0.6,0.7-1.2,0.7c-0.9,0-1.5-0.7-1.5-1.8
			c0-1.2,0.7-1.9,1.6-1.9c0.5,0,0.9,0.3,1.1,0.5h0v-2.1H869.5z M868.9,1189.6c0-0.1,0-0.2,0-0.3c-0.1-0.4-0.4-0.7-0.9-0.7
			c-0.7,0-1.1,0.6-1.1,1.3c0,0.7,0.4,1.3,1.1,1.3c0.4,0,0.8-0.3,0.9-0.8c0-0.1,0-0.2,0-0.3V1189.6z"/>
		<path class="st19" d="M871,1190.1c0,0.9,0.6,1.2,1.2,1.2c0.5,0,0.7-0.1,1-0.2l0.1,0.5c-0.2,0.1-0.6,0.2-1.2,0.2
			c-1.1,0-1.8-0.7-1.8-1.8c0-1.1,0.6-1.9,1.7-1.9c1.2,0,1.5,1,1.5,1.6c0,0.1,0,0.2,0,0.3H871z M872.9,1189.6c0-0.4-0.2-1-0.9-1
			c-0.7,0-0.9,0.6-1,1H872.9z"/>
		<path class="st19" d="M879.4,1191.5c-0.2,0.1-0.7,0.2-1.3,0.2c-1.4,0-2.5-0.9-2.5-2.5c0-1.5,1.1-2.5,2.6-2.5c0.6,0,1,0.1,1.2,0.2
			l-0.2,0.5c-0.2-0.1-0.6-0.2-1-0.2c-1.2,0-1.9,0.7-1.9,2c0,1.2,0.7,2,1.9,2c0.4,0,0.8-0.1,1-0.2L879.4,1191.5z"/>
		<path class="st19" d="M883.3,1189.9c0,1.3-0.9,1.9-1.8,1.9c-1,0-1.7-0.7-1.7-1.8c0-1.2,0.8-1.9,1.8-1.9
			C882.6,1188.1,883.3,1188.9,883.3,1189.9 M880.5,1190c0,0.8,0.5,1.3,1.1,1.3c0.6,0,1.1-0.6,1.1-1.4c0-0.6-0.3-1.3-1.1-1.3
			C880.8,1188.6,880.5,1189.3,880.5,1190"/>
		<rect x="884.1" y="1186.6" class="st19" width="0.6" height="5.1"/>
		<path class="st19" d="M886.2,1190.1c0,0.9,0.6,1.2,1.2,1.2c0.5,0,0.7-0.1,1-0.2l0.1,0.5c-0.2,0.1-0.6,0.2-1.2,0.2
			c-1.1,0-1.8-0.7-1.8-1.8c0-1.1,0.6-1.9,1.7-1.9c1.2,0,1.5,1,1.5,1.6c0,0.1,0,0.2,0,0.3H886.2z M888.1,1189.6c0-0.4-0.2-1-0.9-1
			c-0.7,0-0.9,0.6-1,1H888.1z"/>
		<path class="st19" d="M892.6,1188.2c0,0.3,0,0.5,0,1v2c0,0.8-0.2,1.3-0.5,1.6c-0.3,0.3-0.8,0.4-1.3,0.4c-0.4,0-0.9-0.1-1.2-0.3
			l0.2-0.5c0.2,0.1,0.6,0.3,1,0.3c0.7,0,1.1-0.3,1.1-1.2v-0.4h0c-0.2,0.3-0.6,0.6-1.1,0.6c-0.9,0-1.5-0.7-1.5-1.7
			c0-1.2,0.8-1.9,1.6-1.9c0.6,0,1,0.3,1.1,0.6h0l0-0.5H892.6z M891.9,1189.6c0-0.1,0-0.2,0-0.3c-0.1-0.4-0.4-0.7-0.9-0.7
			c-0.6,0-1.1,0.5-1.1,1.3c0,0.7,0.4,1.3,1.1,1.3c0.4,0,0.8-0.2,0.9-0.6c0-0.1,0.1-0.2,0.1-0.3V1189.6z"/>
		<path class="st19" d="M894.3,1187.2c0,0.2-0.2,0.4-0.4,0.4c-0.2,0-0.4-0.2-0.4-0.4c0-0.2,0.2-0.4,0.4-0.4
			C894.2,1186.8,894.3,1187,894.3,1187.2 M893.6,1188.2h0.6v3.5h-0.6V1188.2z"/>
		<path class="st19" d="M898.6,1189.9c0,1.3-0.9,1.9-1.8,1.9c-1,0-1.7-0.7-1.7-1.8c0-1.2,0.8-1.9,1.8-1.9
			C897.9,1188.1,898.6,1188.9,898.6,1189.9 M895.7,1190c0,0.8,0.5,1.3,1.1,1.3c0.6,0,1.1-0.6,1.1-1.4c0-0.6-0.3-1.3-1.1-1.3
			C896.1,1188.6,895.7,1189.3,895.7,1190"/>
		<path class="st19" d="M899.3,1191.1c0.2,0.1,0.5,0.3,0.9,0.3c0.5,0,0.7-0.2,0.7-0.5c0-0.3-0.2-0.5-0.7-0.6c-0.6-0.2-0.9-0.6-0.9-1
			c0-0.6,0.5-1,1.2-1c0.4,0,0.7,0.1,0.9,0.2l-0.2,0.5c-0.1-0.1-0.4-0.2-0.7-0.2c-0.4,0-0.6,0.2-0.6,0.5c0,0.3,0.2,0.4,0.7,0.6
			c0.6,0.2,0.9,0.5,0.9,1.1c0,0.6-0.5,1-1.3,1c-0.4,0-0.8-0.1-1-0.2L899.3,1191.1z"/>
		<rect x="904" y="1186.3" class="st19" width="0.5" height="7.2"/>
		<polygon class="st19" points="907.2,1186.8 909.9,1186.8 909.9,1187.4 907.9,1187.4 907.9,1189 909.7,1189 909.7,1189.5 
			907.9,1189.5 907.9,1191.7 907.2,1191.7 		"/>
		<path class="st19" d="M913.5,1190.8c0,0.4,0,0.7,0,1H913l0-0.6h0c-0.2,0.3-0.5,0.6-1.2,0.6c-0.6,0-1.2-0.3-1.2-1.5v-2h0.6v1.9
			c0,0.7,0.2,1.1,0.8,1.1c0.4,0,0.7-0.3,0.9-0.6c0-0.1,0.1-0.2,0.1-0.3v-2.1h0.6V1190.8z"/>
		<path class="st19" d="M914.6,1189.2c0-0.4,0-0.7,0-0.9h0.6l0,0.6h0c0.2-0.3,0.6-0.7,1.2-0.7c0.5,0,1.3,0.3,1.3,1.5v2.1H917v-2
			c0-0.6-0.2-1-0.8-1c-0.4,0-0.8,0.3-0.9,0.6c0,0.1,0,0.2,0,0.3v2.1h-0.6V1189.2z"/>
		<path class="st19" d="M921.8,1186.6v4.2c0,0.3,0,0.7,0,0.9h-0.6l0-0.6h0c-0.2,0.4-0.6,0.7-1.2,0.7c-0.9,0-1.5-0.7-1.5-1.8
			c0-1.2,0.7-1.9,1.6-1.9c0.5,0,0.9,0.3,1.1,0.5h0v-2.1H921.8z M921.1,1189.6c0-0.1,0-0.2,0-0.3c-0.1-0.4-0.5-0.7-0.9-0.7
			c-0.7,0-1.1,0.6-1.1,1.3c0,0.7,0.4,1.3,1.1,1.3c0.4,0,0.8-0.3,0.9-0.8c0-0.1,0-0.2,0-0.3V1189.6z"/>
		<path class="st19" d="M924.8,1191.7l-0.1-0.4h0c-0.2,0.3-0.6,0.5-1.1,0.5c-0.7,0-1.1-0.5-1.1-1c0-0.8,0.8-1.3,2.1-1.3v-0.1
			c0-0.3-0.1-0.8-0.8-0.8c-0.3,0-0.7,0.1-0.9,0.3l-0.1-0.4c0.3-0.2,0.7-0.3,1.2-0.3c1.1,0,1.4,0.7,1.4,1.4v1.3c0,0.3,0,0.6,0.1,0.8
			H924.8z M924.7,1189.9c-0.7,0-1.5,0.1-1.5,0.8c0,0.4,0.3,0.6,0.6,0.6c0.5,0,0.8-0.3,0.9-0.6c0-0.1,0-0.1,0-0.2V1189.9z"/>
		<path class="st19" d="M928.9,1191.6c-0.2,0.1-0.5,0.2-1,0.2c-1.1,0-1.8-0.7-1.8-1.8c0-1.1,0.8-1.9,1.9-1.9c0.4,0,0.7,0.1,0.9,0.2
			l-0.1,0.5c-0.2-0.1-0.4-0.2-0.8-0.2c-0.8,0-1.3,0.6-1.3,1.3c0,0.8,0.5,1.3,1.2,1.3c0.4,0,0.6-0.1,0.8-0.2L928.9,1191.6z"/>
		<path class="st19" d="M930.4,1187.2c0,0.2-0.2,0.4-0.4,0.4c-0.2,0-0.4-0.2-0.4-0.4c0-0.2,0.2-0.4,0.4-0.4
			C930.3,1186.8,930.4,1187,930.4,1187.2 M929.7,1188.2h0.6v3.5h-0.6V1188.2z"/>
		<path class="st19" d="M934.7,1189.9c0,1.3-0.9,1.9-1.8,1.9c-1,0-1.7-0.7-1.7-1.8c0-1.2,0.8-1.9,1.8-1.9
			C934,1188.1,934.7,1188.9,934.7,1189.9 M931.8,1190c0,0.8,0.4,1.3,1.1,1.3c0.6,0,1.1-0.6,1.1-1.4c0-0.6-0.3-1.3-1.1-1.3
			C932.2,1188.6,931.8,1189.3,931.8,1190 M933.9,1186.7l-0.9,1h-0.5l0.6-1H933.9z"/>
		<path class="st19" d="M935.5,1189.2c0-0.4,0-0.7,0-0.9h0.6l0,0.6h0c0.2-0.3,0.6-0.7,1.2-0.7c0.5,0,1.3,0.3,1.3,1.5v2.1h-0.6v-2
			c0-0.6-0.2-1-0.8-1c-0.4,0-0.8,0.3-0.9,0.6c0,0.1,0,0.2,0,0.3v2.1h-0.6V1189.2z"/>
		<path class="st19" d="M941.2,1186.9c0.3-0.1,0.8-0.1,1.2-0.1c0.7,0,1.1,0.1,1.4,0.4c0.2,0.2,0.4,0.5,0.4,0.9
			c0,0.6-0.4,1.1-0.9,1.2v0c0.4,0.1,0.6,0.5,0.7,1c0.2,0.7,0.3,1.1,0.4,1.3h-0.7c-0.1-0.1-0.2-0.6-0.3-1.2c-0.1-0.7-0.4-0.9-1-0.9
			h-0.6v2.1h-0.6V1186.9z M941.8,1189.1h0.7c0.7,0,1.1-0.4,1.1-0.9c0-0.6-0.5-0.9-1.1-0.9c-0.3,0-0.5,0-0.6,0.1V1189.1z"/>
		<path class="st19" d="M945.5,1190.1c0,0.9,0.6,1.2,1.2,1.2c0.5,0,0.7-0.1,1-0.2l0.1,0.5c-0.2,0.1-0.6,0.2-1.2,0.2
			c-1.1,0-1.8-0.7-1.8-1.8c0-1.1,0.6-1.9,1.7-1.9c1.2,0,1.5,1,1.5,1.6c0,0.1,0,0.2,0,0.3H945.5z M947.4,1189.6c0-0.4-0.2-1-0.9-1
			c-0.7,0-0.9,0.6-1,1H947.4z"/>
		<path class="st19" d="M949.5,1187.2c0,0.2-0.2,0.4-0.4,0.4c-0.2,0-0.4-0.2-0.4-0.4c0-0.2,0.2-0.4,0.4-0.4
			C949.4,1186.8,949.5,1187,949.5,1187.2 M948.8,1188.2h0.6v3.5h-0.6V1188.2z"/>
		<path class="st19" d="M950.5,1189.2c0-0.4,0-0.7,0-0.9h0.6l0,0.6h0c0.2-0.3,0.6-0.7,1.2-0.7c0.5,0,1.3,0.3,1.3,1.5v2.1h-0.6v-2
			c0-0.6-0.2-1-0.8-1c-0.4,0-0.8,0.3-0.9,0.6c0,0.1,0,0.2,0,0.3v2.1h-0.6V1189.2z"/>
		<path class="st19" d="M956.6,1191.7l-0.1-0.4h0c-0.2,0.3-0.6,0.5-1.1,0.5c-0.7,0-1.1-0.5-1.1-1c0-0.8,0.8-1.3,2.1-1.3v-0.1
			c0-0.3-0.1-0.8-0.8-0.8c-0.3,0-0.7,0.1-0.9,0.3l-0.1-0.4c0.3-0.2,0.7-0.3,1.2-0.3c1.1,0,1.4,0.7,1.4,1.4v1.3c0,0.3,0,0.6,0.1,0.8
			H956.6z M956.5,1189.9c-0.7,0-1.5,0.1-1.5,0.8c0,0.4,0.3,0.6,0.6,0.6c0.5,0,0.8-0.3,0.9-0.6c0-0.1,0-0.1,0-0.2V1189.9z"/>
		<rect x="958.2" y="1186.6" class="st19" width="0.6" height="5.1"/>
		<path class="st19" d="M963,1186.6v4.2c0,0.3,0,0.7,0,0.9h-0.6l0-0.6h0c-0.2,0.4-0.6,0.7-1.2,0.7c-0.9,0-1.5-0.7-1.5-1.8
			c0-1.2,0.7-1.9,1.6-1.9c0.5,0,0.9,0.3,1.1,0.5h0v-2.1H963z M962.4,1189.6c0-0.1,0-0.2,0-0.3c-0.1-0.4-0.4-0.7-0.9-0.7
			c-0.7,0-1.1,0.6-1.1,1.3c0,0.7,0.4,1.3,1.1,1.3c0.4,0,0.8-0.3,0.9-0.8c0-0.1,0-0.2,0-0.3V1189.6z"/>
		<path class="st19" d="M967.3,1189.9c0,1.3-0.9,1.9-1.8,1.9c-1,0-1.7-0.7-1.7-1.8c0-1.2,0.8-1.9,1.8-1.9
			C966.6,1188.1,967.3,1188.9,967.3,1189.9 M964.5,1190c0,0.8,0.5,1.3,1.1,1.3c0.6,0,1.1-0.6,1.1-1.4c0-0.6-0.3-1.3-1.1-1.3
			S964.5,1189.3,964.5,1190"/>
		<path class="st19" d="M969.6,1190.9c0.3,0.2,0.7,0.3,1.2,0.3c0.7,0,1-0.3,1-0.8c0-0.5-0.3-0.7-0.9-1c-0.8-0.3-1.3-0.7-1.3-1.4
			c0-0.8,0.6-1.3,1.6-1.3c0.5,0,0.9,0.1,1.1,0.2l-0.2,0.5c-0.2-0.1-0.5-0.2-0.9-0.2c-0.7,0-0.9,0.4-0.9,0.7c0,0.5,0.3,0.7,1,0.9
			c0.8,0.3,1.3,0.7,1.3,1.4c0,0.7-0.6,1.4-1.7,1.4c-0.5,0-1-0.1-1.3-0.3L969.6,1190.9z"/>
		<path class="st19" d="M976.6,1189.9c0,1.3-0.9,1.9-1.8,1.9c-1,0-1.7-0.7-1.7-1.8c0-1.2,0.8-1.9,1.8-1.9
			C975.9,1188.1,976.6,1188.9,976.6,1189.9 M973.8,1190c0,0.8,0.5,1.3,1.1,1.3c0.6,0,1.1-0.6,1.1-1.4c0-0.6-0.3-1.3-1.1-1.3
			C974.1,1188.6,973.8,1189.3,973.8,1190"/>
		<rect x="977.4" y="1186.6" class="st19" width="0.6" height="5.1"/>
		<path class="st19" d="M981.1,1191.7l-0.1-0.4h0c-0.2,0.3-0.6,0.5-1.1,0.5c-0.7,0-1.1-0.5-1.1-1c0-0.8,0.8-1.3,2.1-1.3v-0.1
			c0-0.3-0.1-0.8-0.8-0.8c-0.3,0-0.7,0.1-0.9,0.3l-0.1-0.4c0.3-0.2,0.7-0.3,1.2-0.3c1.1,0,1.4,0.7,1.4,1.4v1.3c0,0.3,0,0.6,0.1,0.8
			H981.1z M981.1,1189.9c-0.7,0-1.5,0.1-1.5,0.8c0,0.4,0.3,0.6,0.6,0.6c0.5,0,0.8-0.3,0.9-0.6c0-0.1,0-0.1,0-0.2V1189.9z"/>
		<path class="st19" d="M982.7,1189.3c0-0.4,0-0.8,0-1.1h0.6l0,0.7h0c0.2-0.5,0.6-0.8,1-0.8c0.1,0,0.1,0,0.2,0v0.6
			c-0.1,0-0.1,0-0.2,0c-0.5,0-0.8,0.3-0.9,0.8c0,0.1,0,0.2,0,0.3v1.9h-0.6V1189.3z"/>
		<path class="st19" d="M985.9,1187.2c0,0.2-0.2,0.4-0.4,0.4c-0.2,0-0.4-0.2-0.4-0.4c0-0.2,0.2-0.4,0.4-0.4
			C985.7,1186.8,985.9,1187,985.9,1187.2 M985.2,1188.2h0.6v3.5h-0.6V1188.2z"/>
		<path class="st21" d="M772.2,1202.5l52.8-40c-11.8-14.4-31.3-23.9-53.3-23.9c-21.7,0-40.8,9.1-52.7,23.2L772.2,1202.5z"/>
	</g>
	<g class="st0">
		<defs>
			<path id="SVGID_21_" d="M720.9,1162.8l51.4,39.3l50.9-38.6c-11.4-13.9-30.2-23-51.5-23C750.9,1140.4,732.4,1149.2,720.9,1162.8"
				/>
		</defs>
		<clipPath id="SVGID_22_">
			<use xlink:href="#SVGID_21_"  style="overflow:visible;"/>
		</clipPath>
		
			<radialGradient id="SVGID_23_" cx="230.009" cy="1086.4497" r="1.7324" gradientTransform="matrix(-0.6256 23.6593 24.2409 0.6106 -25416.5723 -4953.7017)" gradientUnits="userSpaceOnUse">
			<stop  offset="0" style="stop-color:#CDD74E"/>
			<stop  offset="0.158" style="stop-color:#CDD74E"/>
			<stop  offset="1" style="stop-color:#769034"/>
		</radialGradient>
		<polygon class="st22" points="824.9,1140.4 823.2,1204.6 719.3,1202 721,1137.8 		"/>
	</g>
	<g class="st0">
		<defs>
			<path id="SVGID_24_" d="M761.4,1121l-0.3,0.8l-34.4,0.2l0.1,0.1h-0.1l25.3,19.1c0,0,0,0,0.1,0l0.3,0.2l-9.5,32.8l28.2-18.5
				l29.9,18.4l-11.2-33l26-19h-0.1l0.1,0l-35.3-0.4l-0.4-1.1l-8.7-27.5L761.4,1121z"/>
		</defs>
		<clipPath id="SVGID_25_">
			<use xlink:href="#SVGID_24_"  style="overflow:visible;"/>
		</clipPath>
		
			<linearGradient id="SVGID_26_" gradientUnits="userSpaceOnUse" x1="226.754" y1="1084.2986" x2="228.4865" y2="1084.2986" gradientTransform="matrix(-0.2783 43.7312 44.8061 0.2716 -47748.5 -9115.584)">
			<stop  offset="0" style="stop-color:#5F7DBB"/>
			<stop  offset="0.3417" style="stop-color:#5F7DBB"/>
			<stop  offset="0.6324" style="stop-color:#4E619F"/>
			<stop  offset="0.9532" style="stop-color:#3C395E"/>
			<stop  offset="1" style="stop-color:#3C395E"/>
		</linearGradient>
		<polygon class="st23" points="816.5,1093 816,1174.7 726.2,1174.2 726.8,1092.5 		"/>
	</g>
	<polygon class="st6" points="776,1205.1 774,1203.7 821.2,1166.9 778.3,1205.1 	"/>
	<polygon class="st7" points="714.9,1168.6 718,1163.2 765.8,1199.3 	"/>
	<g class="st0">
		<defs>
			<rect id="SVGID_27_" x="711.1" y="1093" width="278.9" height="112.1"/>
		</defs>
		<clipPath id="SVGID_28_">
			<use xlink:href="#SVGID_27_"  style="overflow:visible;"/>
		</clipPath>
		<path class="st24" d="M792.2,1140.4c0,0,20.4,5.7,33.7,20.4l3.9-2.6c0,0-11.7-12.7-34.9-19.6L792.2,1140.4z"/>
		<path class="st25" d="M747.7,1138.8c0,0-26.3,7.7-36.6,27.1l2.4,1.6c0,0,10.3-19.8,36.6-27L747.7,1138.8z"/>
	</g>
	<g class="st0">
		<text transform="matrix(1 0 0 1 104.0186 403.9619)" class="st14 st26 st27">LA CIENCIA </text>
	</g>
	<line class="st28" x1="104.2" y1="546.9" x2="718.1" y2="546.9"/>
	<g class="st0">
		<text transform="matrix(1 0 0 1 102.5459 1119.9619)" class="st14 st17 st29">D</text>
	</g>
	<g class="st0">
		<text transform="matrix(1 0 0 1 122.9092 1119.9619)" class="st14 st17 st29">ocumen</text>
	</g>
	<g class="st0">
		<text transform="matrix(1 0 0 1 227.3457 1119.9619)" class="st14 st17 st29">t</text>
	</g>
	<g class="st0">
		<text transform="matrix(1 0 0 1 236.8252 1119.9619)" class="st14 st17 st29">o o</text>
	</g>
	<g class="st0">
		<text transform="matrix(1 0 0 1 276.834 1119.9619)" class="st14 st17 st29">r</text>
	</g>
	<g class="st0">
		<text transform="matrix(1 0 0 1 286.2207 1119.9619)" class="st14 st17 st29">i</text>
	</g>
	<g class="st0">
		<text transform="matrix(1 0 0 1 292.7383 1119.9619)" class="st14 st17 st29">g</text>
	</g>
	<g class="st0">
		<text transform="matrix(1 0 0 1 309.5146 1119.9619)" class="st14 st17 st29">inal de </text>
	</g>
	<g class="st0">
		<text transform="matrix(1 0 0 1 100.5547 498.6133)" class="st30 st26 st31">DEL APRENDIZAJE </text>
	</g>
	<g class="st0">
		<defs>
			<rect id="SVGID_29_" x="102.5" y="1149" width="355.7" height="55.8"/>
		</defs>
		<clipPath id="SVGID_30_">
			<use xlink:href="#SVGID_29_"  style="overflow:visible;"/>
		</clipPath>
		<path class="st32" d="M124.3,1197.7v-14h-3.2v11.7c-1-0.6-2-1.2-3-1.7v-24.9c0.8,0.9,2.3,1.2,3.4,1.3c1.8,0.2,3.7,0.3,5.6,0.2
			c1.8,0,3.7-0.1,5.6-0.4c1.1-0.2,2.6-0.4,3.4-1.3v0.6v0v24.5c-1.1,0.5-2.1,1.1-3,1.7v-19.3h-3.2v21.6c-0.4,0.3-0.8,0.7-1.2,1v-18.8
			h-3.2v18.8C125.1,1198.4,124.7,1198,124.3,1197.7"/>
		<path class="st32" d="M148.6,1194.1c-7.3-0.1-14.9,2.7-21.5,10.6c-6.6-8-14.3-10.8-21.5-10.6v-2.1c8.3-0.1,15.6,3.4,21.5,9.7
			c5.9-6.3,13.2-9.8,21.5-9.7V1194.1z"/>
		<path class="st33" d="M104.5,1194.2c-0.7,0-1.3,0.1-1.9,0.2l0-29c3.2-0.1,10.2,1.5,14.4,2.9v2.6c-4-1.4-9.8-3-12.5-3l0,21.8h0v1.3
			l0,1.2h0V1194.2z"/>
		<path class="st33" d="M137.1,1168.3c4.3-1.4,11.2-3,14.4-2.9l0,29c-0.6-0.1-1.3-0.1-1.9-0.2v-2.1l0,0l0-2.5v-0.1l0-21.7
			c-2.7,0-8.5,1.6-12.5,3V1168.3z"/>
		<path class="st33" d="M121.4,1167.5l-3.6-4l8.5-14.4l0.2,10.2c-0.6,0.2-1,0.7-1,1.3c0,0.8,0.6,1.4,1.4,1.4c0.8,0,1.4-0.6,1.4-1.4
			c0-0.6-0.4-1.2-1-1.3l-0.2-10.2l9.2,14.2l-3.4,4.1c1.5,0.2,2.5,0.5,2.5,0.8c0,0.6-3.6,1.2-8.2,1.2s-8.2-0.4-8.2-1
			C119,1168,119.9,1167.7,121.4,1167.5"/>
		<path class="st32" d="M174.6,1185.9h2.5c3.9,0,4.5-3.2,4.5-5.1c0-1.3-0.4-4.9-5-4.9h-2V1185.9z M168.3,1170.7h10.4
			c6.8,0,9.2,5.1,9.2,10.2c0,6.3-3.3,10.3-10.5,10.3h-9.1V1170.7z"/>
	</g>
	<polygon class="st34" points="191.6,1170.7 208.6,1170.7 208.6,1176 197.9,1176 197.9,1178.5 207.6,1178.5 207.6,1183.4 
		197.9,1183.4 197.9,1185.9 208.9,1185.9 208.9,1191.2 191.6,1191.2 	"/>
	<path class="st34" d="M223.5,1183.9l-1.8-6.3h-0.1l-2,6.3H223.5z M218.5,1170.7h6.2l7.5,20.5h-6.5l-0.9-2.9h-6.5l-0.9,2.9h-6.3
		L218.5,1170.7z"/>
	<polygon class="st34" points="234.6,1170.7 241,1170.7 247,1181.7 247,1181.7 247,1170.7 253,1170.7 253,1191.2 246.9,1191.2 
		240.6,1180 240.5,1180 240.5,1191.2 234.6,1191.2 	"/>
	<g class="st0">
		<defs>
			<rect id="SVGID_31_" x="102.5" y="1149" width="355.7" height="55.8"/>
		</defs>
		<clipPath id="SVGID_32_">
			<use xlink:href="#SVGID_31_"  style="overflow:visible;"/>
		</clipPath>
		<path class="st35" d="M262.3,1184.3c0,0.5,0.1,1,0.2,1.3c0.5,1.2,1.8,1.5,3,1.5c1,0,2.6-0.3,2.6-1.9c0-1.1-0.9-1.3-4.4-2.4
			c-3.2-0.9-6.9-1.8-6.9-5.9c0-4.7,4-6.8,8.3-6.8c4.4,0,8.4,1.7,8.6,6.7h-6c0.1-0.8-0.2-1.3-0.7-1.6c-0.5-0.4-1.2-0.5-1.9-0.5
			c-0.9,0-2.3,0.2-2.3,1.4c0.1,1.5,3,1.8,5.9,2.6c2.9,0.8,5.8,2.2,5.8,5.9c0,5.3-4.9,7.1-9.5,7.1c-2.3,0-9-0.8-9-7.4H262.3z"/>
	</g>
	<polygon class="st34" points="287.4,1170.4 297.1,1170.4 297.1,1173.7 291.3,1173.7 291.3,1175.2 296.3,1175.2 296.3,1178.2 
		291.3,1178.2 291.3,1183 287.4,1183 	"/>
	<g class="st0">
		<defs>
			<rect id="SVGID_33_" x="102.5" y="1149" width="355.7" height="55.8"/>
		</defs>
		<clipPath id="SVGID_34_">
			<use xlink:href="#SVGID_33_"  style="overflow:visible;"/>
		</clipPath>
		<path class="st36" d="M305.1,1180.2c1,0,2.5-0.7,2.5-3.4c0-2.8-1.5-3.4-2.5-3.4c-1,0-2.5,0.6-2.5,3.4
			C302.6,1179.5,304.1,1180.2,305.1,1180.2 M305.1,1170.1c3.8,0,6.4,2.7,6.4,6.6c0,3.8-2.5,6.6-6.4,6.6c-3.8,0-6.4-2.7-6.4-6.6
			C298.7,1172.9,301.3,1170.1,305.1,1170.1"/>
		<path class="st36" d="M317.6,1175.9h2c0.7,0,1.7-0.1,1.7-1.2c0-0.8-0.4-1.2-1.9-1.2h-1.8V1175.9z M313.7,1170.4h7.4
			c2.2,0,4.1,1.2,4.1,3.6c0,1.3-0.6,2.7-1.9,3.1c1.1,0.4,1.7,1.6,1.8,3.1c0.1,0.6,0.1,2.1,0.4,2.7h-3.9c-0.2-0.6-0.3-1.3-0.3-1.9
			c-0.1-1.2-0.2-2.4-1.7-2.4h-2.1v4.4h-3.9V1170.4z"/>
	</g>
	<rect x="338.6" y="1170.7" class="st34" width="6.3" height="20.5"/>
	<polygon class="st34" points="349.7,1170.7 358.7,1170.7 361.6,1182.8 361.7,1182.8 364.6,1170.7 373.6,1170.7 373.6,1191.2 
		367.6,1191.2 367.6,1178 367.5,1178 364,1191.2 359.3,1191.2 355.7,1178 355.7,1178 355.7,1191.2 349.7,1191.2 	"/>
	<g class="st0">
		<defs>
			<rect id="SVGID_35_" x="102.5" y="1149" width="355.7" height="55.8"/>
		</defs>
		<clipPath id="SVGID_36_">
			<use xlink:href="#SVGID_35_"  style="overflow:visible;"/>
		</clipPath>
		<path class="st37" d="M384.7,1180.1h2.4c1.6,0,3.4-0.1,3.4-2.2c0-1.9-1.4-2-3-2h-2.8V1180.1z M378.4,1170.7h10.6
			c5.6,0,7.5,4.1,7.5,7c0,5-3.3,7.3-8,7.3h-3.7v6.2h-6.3V1170.7z"/>
	</g>
	<path class="st34" d="M408.5,1183.9l-1.8-6.3h-0.1l-2,6.3H408.5z M403.6,1170.7h6.2l7.5,20.5h-6.5l-0.9-2.9h-6.5l-0.9,2.9H396
		L403.6,1170.7z"/>
	<g class="st0">
		<defs>
			<rect id="SVGID_37_" x="102.5" y="1149" width="355.7" height="55.8"/>
		</defs>
		<clipPath id="SVGID_38_">
			<use xlink:href="#SVGID_37_"  style="overflow:visible;"/>
		</clipPath>
		<path class="st38" d="M431.9,1178.3c-0.1-0.7-0.7-3-3.3-3c-3,0-3.9,2.9-3.9,5.6c0,2.8,0.9,5.6,3.9,5.6c2.1,0,3-1.5,3.3-3.4h6.2
			c0,4.1-3.4,8.5-9.4,8.5c-6.6,0-10.4-4.7-10.4-10.7c0-6.5,4.1-10.7,10.4-10.7c5.6,0,8.7,3,9.3,8.1H431.9z"/>
	</g>
	<polygon class="st34" points="440.4,1170.7 440.4,1176 446.2,1176 446.2,1191.2 452.5,1191.2 452.5,1176 458.2,1176 458.2,1170.7 	
		"/>
	<rect x="287.4" y="1187.4" class="st34" width="38.1" height="3.8"/>
	<g class="st0">
		<text transform="matrix(1 0 0 1 105.5059 303.7334)" class="st14 st39 st18">Serie</text>
	</g>
	<g class="st0">
		<text transform="matrix(1 0 0 1 184.3662 303.7334)" class="st14 st39 st18">: ¿Cómo Aprenden los Niños?</text>
	</g>
</g>
<g>
	<polyline class="st40" points="509,1312.9 528.5,1332.4 548,1312.9 	"/>
	<polyline class="st40" points="498.8,1289.5 528.5,1319.2 558.2,1289.5 	"/>
	<rect x="461.1" y="1246.8" class="st41" width="135.2" height="21.9"/>
	<text transform="matrix(1 0 0 1 464.1418 1264.9757)" class="st42 st43">Scroll down</text>
</g>
</svg>
