<?xml version="1.0" encoding="utf-8"?>
<!-- Generator: Adobe Illustrator 21.0.0, SVG Export Plug-In . SVG Version: 6.00 Build 0)  -->
<svg version="1.1" id="Capa_1" xmlns="http://www.w3.org/2000/svg" xmlns:xlink="http://www.w3.org/1999/xlink" x="0px" y="0px"
	 viewBox="0 0 1057.5 1372.1" style="enable-background:new 0 0 1057.5 1372.1;" xml:space="preserve">
<style type="text/css">
	.st0{fill:none;}
	.st1{clip-path:url(#SVGID_2_);}
	.st2{clip-path:url(#SVGID_4_);fill:#1A1413;}
	.st3{clip-path:url(#SVGID_4_);fill:#0080BA;}
	.st4{clip-path:url(#SVGID_4_);fill-rule:evenodd;clip-rule:evenodd;fill:#CBD74B;}
	.st5{clip-path:url(#SVGID_6_);fill:url(#SVGID_7_);}
	.st6{clip-path:url(#SVGID_9_);fill:url(#SVGID_10_);}
	.st7{clip-path:url(#SVGID_2_);fill:#26B7CF;}
	.st8{clip-path:url(#SVGID_2_);fill:#E3D06B;}
	.st9{clip-path:url(#SVGID_12_);fill:#E18924;}
	.st10{clip-path:url(#SVGID_12_);fill:#993A8B;}
	.st11{opacity:0.1;clip-path:url(#SVGID_14_);}
	.st12{clip-path:url(#SVGID_16_);fill:#191413;}
	.st13{clip-path:url(#SVGID_16_);}
	.st14{clip-path:url(#SVGID_18_);fill-rule:evenodd;clip-rule:evenodd;fill:#191413;}
	.st15{fill:#1D1D1B;}
	.st16{font-family:'MyriadPro-Regular';}
	.st17{font-size:36.3814px;}
	.st18{font-family:'MyriadPro-Light';}
	.st19{font-size:34.649px;}
	.st20{clip-path:url(#SVGID_20_);fill:#1A1413;}
	.st21{clip-path:url(#SVGID_20_);fill:#0080BA;}
	.st22{clip-path:url(#SVGID_20_);fill-rule:evenodd;clip-rule:evenodd;fill:#CBD74B;}
	.st23{clip-path:url(#SVGID_22_);fill:url(#SVGID_23_);}
	.st24{clip-path:url(#SVGID_25_);fill:url(#SVGID_26_);}
	.st25{clip-path:url(#SVGID_28_);fill:#E18924;}
	.st26{clip-path:url(#SVGID_28_);fill:#993A8B;}
	.st27{font-family:'MyriadPro-Bold';}
	.st28{font-size:98.1632px;}
	.st29{clip-path:url(#SVGID_2_);fill:none;stroke:#000000;stroke-width:4;stroke-linecap:square;}
	.st30{font-size:27.7192px;}
	.st31{font-size:31.1841px;}
	.st32{fill:#00B4EC;}
	.st33{font-size:91.0584px;}
	.st34{clip-path:url(#SVGID_30_);fill:#1B3660;}
	.st35{clip-path:url(#SVGID_30_);fill:#99999E;}
	.st36{clip-path:url(#SVGID_2_);fill:#1B3660;}
	.st37{clip-path:url(#SVGID_32_);fill:#1B3660;}
	.st38{clip-path:url(#SVGID_34_);fill:#1B3660;}
	.st39{clip-path:url(#SVGID_36_);fill:#1B3660;}
	.st40{clip-path:url(#SVGID_38_);fill:#1B3660;}
	.st41{font-family:'TrebuchetMS-Italic';}
</style>
<rect x="102.5" y="1239" class="st0" width="355.7" height="55.8"/>
<rect class="st0" width="1060.3" height="1372.1"/>
<g>
	<defs>
		<rect id="SVGID_1_" width="1060.3" height="1372.1"/>
	</defs>
	<clipPath id="SVGID_2_">
		<use xlink:href="#SVGID_1_"  style="overflow:visible;"/>
	</clipPath>
	<g class="st1">
		<defs>
			<rect id="SVGID_3_" x="708.8" y="1183" width="278.9" height="112.1"/>
		</defs>
		<clipPath id="SVGID_4_">
			<use xlink:href="#SVGID_3_"  style="overflow:visible;"/>
		</clipPath>
		<path class="st2" d="M851.1,1232.8l-4.1,12h-5.2l13.3-38.2h6.1l13.4,38.2h-5.4l-4.2-12H851.1z M863.9,1229l-3.8-11
			c-0.9-2.5-1.5-4.8-2-7h-0.1c-0.6,2.3-1.2,4.6-2,6.9l-3.8,11.1H863.9z"/>
		<path class="st2" d="M879.9,1226.3c0-3.5-0.1-6.3-0.2-9h4.6l0.2,4.7h0.1c2.1-3.3,5.4-5.3,10-5.3c6.8,0,11.9,5.6,11.9,13.9
			c0,9.9-6.2,14.7-12.8,14.7c-3.7,0-7-1.6-8.7-4.3H885v14.9h-5.1V1226.3z M885,1233.7c0,0.7,0.1,1.4,0.2,2c0.9,3.5,4,5.8,7.7,5.8
			c5.4,0,8.5-4.3,8.5-10.6c0-5.5-3-10.2-8.4-10.2c-3.5,0-6.7,2.4-7.7,6.2c-0.2,0.6-0.3,1.4-0.3,2V1233.7z"/>
		<path class="st2" d="M919.1,1209.5v7.9h7.3v3.8h-7.3v14.8c0,3.4,1,5.3,3.8,5.3c1.3,0,2.3-0.2,3-0.3l0.2,3.7
			c-1,0.4-2.6,0.7-4.5,0.7c-2.4,0-4.3-0.7-5.5-2.1c-1.5-1.5-2-3.9-2-7.1v-15h-4.4v-3.8h4.4v-6.6L919.1,1209.5z"/>
		<path class="st2" d="M955.7,1237.3c0,2.8,0.1,5.3,0.2,7.5h-4.5l-0.3-4.5H951c-1.3,2.2-4.3,5.1-9.3,5.1c-4.4,0-9.7-2.4-9.7-12v-16
			h5.1v15.2c0,5.2,1.6,8.7,6.3,8.7c3.4,0,5.8-2.3,6.7-4.5c0.3-0.7,0.5-1.6,0.5-2.6v-16.8h5.1V1237.3z"/>
		<path class="st2" d="M963.5,1239.7c1.5,1,4.2,2,6.7,2c3.7,0,5.5-1.8,5.5-4.1c0-2.4-1.5-3.7-5.2-5c-5.1-1.8-7.4-4.5-7.4-7.8
			c0-4.4,3.7-8,9.7-8c2.8,0,5.3,0.8,6.9,1.7l-1.3,3.6c-1.1-0.7-3.1-1.6-5.7-1.6c-3,0-4.7,1.7-4.7,3.7c0,2.3,1.7,3.3,5.3,4.6
			c4.9,1.8,7.4,4.2,7.4,8.3c0,4.8-3.8,8.2-10.5,8.2c-3.1,0-5.9-0.7-7.9-1.9L963.5,1239.7z"/>
		<path class="st2" d="M839.6,1258.7c0.5-0.1,1.1-0.1,1.8-0.1c0.9,0,1.6,0.2,2.1,0.6c0.4,0.3,0.6,0.9,0.6,1.5c0,0.7-0.2,1.2-0.6,1.5
			c-0.5,0.5-1.3,0.8-2.3,0.8c-0.3,0-0.6,0-0.8-0.1v2.9h-1V1258.7z M840.6,1262.2c0.2,0.1,0.5,0.1,0.8,0.1c1.2,0,1.9-0.5,1.9-1.6
			c0-1-0.7-1.4-1.7-1.4c-0.4,0-0.7,0-0.9,0.1V1262.2z"/>
		<path class="st2" d="M851.8,1262.2c0,2.5-1.6,3.8-3.4,3.8c-2,0-3.3-1.5-3.3-3.7c0-2.3,1.5-3.8,3.4-3.8
			C850.5,1258.5,851.8,1260.1,851.8,1262.2 M846.1,1262.3c0,1.5,0.9,2.9,2.4,2.9c1.5,0,2.4-1.4,2.4-3c0-1.4-0.8-2.9-2.4-2.9
			C846.9,1259.3,846.1,1260.7,846.1,1262.3"/>
		<polygon class="st2" points="854.2,1259.5 852,1259.5 852,1258.7 857.4,1258.7 857.4,1259.5 855.2,1259.5 855.2,1265.9 
			854.2,1265.9 		"/>
		<polygon class="st2" points="862.1,1262.5 859.2,1262.5 859.2,1265.1 862.4,1265.1 862.4,1265.9 858.3,1265.9 858.3,1258.7 
			862.3,1258.7 862.3,1259.4 859.2,1259.4 859.2,1261.7 862.1,1261.7 		"/>
		<path class="st2" d="M863.7,1265.9v-7.2h1l2.4,3.7c0.6,0.8,1,1.6,1.3,2.4l0,0c-0.1-1-0.1-1.8-0.1-3v-3h0.9v7.2h-1l-2.4-3.7
			c-0.5-0.8-1-1.6-1.4-2.4l0,0c0.1,0.9,0.1,1.8,0.1,3v3.1H863.7z"/>
		<path class="st2" d="M876.1,1265.7c-0.4,0.2-1.1,0.3-2,0.3c-2.1,0-3.7-1.3-3.7-3.7c0-2.3,1.6-3.8,3.9-3.8c0.9,0,1.5,0.2,1.8,0.3
			l-0.2,0.8c-0.4-0.2-0.9-0.3-1.5-0.3c-1.7,0-2.9,1.1-2.9,3c0,1.8,1,2.9,2.9,2.9c0.6,0,1.2-0.1,1.6-0.3L876.1,1265.7z"/>
		<rect x="877.3" y="1258.7" class="st2" width="1" height="7.2"/>
		<path class="st2" d="M881.2,1263.6l-0.8,2.3h-1l2.5-7.2h1.2l2.5,7.2h-1l-0.8-2.3H881.2z M883.6,1262.9l-0.7-2.1
			c-0.2-0.5-0.3-0.9-0.4-1.3h0c-0.1,0.4-0.2,0.9-0.4,1.3l-0.7,2.1H883.6z"/>
		<path class="st2" d="M886.7,1258.8c0.6-0.1,1.3-0.2,2-0.2c1.4,0,2.4,0.3,3,0.9c0.7,0.6,1,1.4,1,2.6c0,1.2-0.4,2.2-1.1,2.8
			c-0.7,0.7-1.8,1-3.3,1c-0.7,0-1.3,0-1.7-0.1V1258.8z M887.6,1265.2c0.2,0,0.6,0.1,1,0.1c2,0,3.2-1.1,3.2-3.1c0-1.7-1-2.8-3-2.8
			c-0.5,0-0.9,0-1.1,0.1V1265.2z"/>
		<path class="st2" d="M900.4,1262.2c0,2.5-1.6,3.8-3.4,3.8c-2,0-3.3-1.5-3.3-3.7c0-2.3,1.5-3.8,3.4-3.8
			C899.1,1258.5,900.4,1260.1,900.4,1262.2 M894.6,1262.3c0,1.5,0.9,2.9,2.4,2.9c1.5,0,2.4-1.4,2.4-3c0-1.4-0.8-2.9-2.4-2.9
			C895.4,1259.3,894.6,1260.7,894.6,1262.3"/>
		<path class="st2" d="M901.6,1258.8c0.5-0.1,1.2-0.2,1.8-0.2c1,0,1.7,0.2,2.1,0.6c0.4,0.3,0.6,0.8,0.6,1.4c0,1-0.6,1.6-1.4,1.8v0
			c0.6,0.2,0.9,0.7,1.1,1.5c0.2,1,0.4,1.7,0.6,2h-1c-0.1-0.2-0.3-0.8-0.5-1.7c-0.2-1-0.6-1.4-1.5-1.4h-0.9v3.1h-1V1258.8z
			 M902.6,1262.1h1c1,0,1.7-0.5,1.7-1.4c0-0.9-0.7-1.3-1.7-1.4c-0.5,0-0.8,0-0.9,0.1V1262.1z"/>
		<path class="st2" d="M908.8,1263.6l-0.8,2.3h-1l2.5-7.2h1.2l2.5,7.2h-1l-0.8-2.3H908.8z M911.2,1262.9l-0.7-2.1
			c-0.2-0.5-0.3-0.9-0.4-1.3h0c-0.1,0.4-0.2,0.9-0.4,1.3l-0.7,2.1H911.2z"/>
		<polygon class="st2" points="920.5,1262.5 917.6,1262.5 917.6,1265.1 920.8,1265.1 920.8,1265.9 916.7,1265.9 916.7,1258.7 
			920.7,1258.7 920.7,1259.4 917.6,1259.4 917.6,1261.7 920.5,1261.7 		"/>
		<path class="st2" d="M922.1,1258.8c0.6-0.1,1.3-0.2,2-0.2c1.4,0,2.4,0.3,3,0.9c0.7,0.6,1,1.4,1,2.6c0,1.2-0.4,2.2-1.1,2.8
			c-0.7,0.7-1.8,1-3.3,1c-0.7,0-1.3,0-1.7-0.1V1258.8z M923,1265.2c0.2,0,0.6,0.1,1,0.1c2,0,3.2-1.1,3.2-3.1c0-1.7-1-2.8-3-2.8
			c-0.5,0-0.9,0-1.1,0.1V1265.2z"/>
		<path class="st2" d="M930.4,1258.7v4.3c0,1.6,0.7,2.3,1.7,2.3c1.1,0,1.8-0.7,1.8-2.3v-4.3h1v4.2c0,2.2-1.2,3.1-2.8,3.1
			c-1.5,0-2.7-0.8-2.7-3.1v-4.3H930.4z"/>
		<path class="st2" d="M941.7,1265.7c-0.4,0.2-1.1,0.3-2,0.3c-2.1,0-3.7-1.3-3.7-3.7c0-2.3,1.6-3.8,3.9-3.8c0.9,0,1.5,0.2,1.8,0.3
			l-0.2,0.8c-0.4-0.2-0.9-0.3-1.5-0.3c-1.7,0-2.9,1.1-2.9,3c0,1.8,1,2.9,2.8,2.9c0.6,0,1.2-0.1,1.6-0.3L941.7,1265.7z"/>
		<path class="st2" d="M944.2,1263.6l-0.8,2.3h-1l2.5-7.2h1.2l2.5,7.2h-1l-0.8-2.3H944.2z M946.6,1262.9l-0.7-2.1
			c-0.2-0.5-0.3-0.9-0.4-1.3h0c-0.1,0.4-0.2,0.9-0.4,1.3l-0.7,2.1H946.6z"/>
		<path class="st2" d="M954.7,1265.7c-0.4,0.2-1.1,0.3-2,0.3c-2.1,0-3.7-1.3-3.7-3.7c0-2.3,1.6-3.8,3.9-3.8c0.9,0,1.5,0.2,1.8,0.3
			l-0.2,0.8c-0.4-0.2-0.9-0.3-1.5-0.3c-1.7,0-2.9,1.1-2.9,3c0,1.8,1,2.9,2.9,2.9c0.6,0,1.2-0.1,1.6-0.3L954.7,1265.7z"/>
		<rect x="955.9" y="1258.7" class="st2" width="1" height="7.2"/>
		<path class="st2" d="M964.9,1262.2c0,2.5-1.6,3.8-3.4,3.8c-2,0-3.3-1.5-3.3-3.7c0-2.3,1.5-3.8,3.4-3.8
			C963.6,1258.5,964.9,1260.1,964.9,1262.2 M959.1,1262.3c0,1.5,0.9,2.9,2.4,2.9c1.5,0,2.4-1.4,2.4-3c0-1.4-0.8-2.9-2.4-2.9
			C959.9,1259.3,959.1,1260.7,959.1,1262.3"/>
		<path class="st2" d="M966.1,1265.9v-7.2h1l2.4,3.7c0.5,0.8,1,1.6,1.3,2.4l0,0c-0.1-1-0.1-1.8-0.1-3v-3h0.9v7.2h-1l-2.4-3.7
			c-0.5-0.8-1-1.6-1.4-2.4l0,0c0.1,0.9,0.1,1.8,0.1,3v3.1H966.1z"/>
		<path class="st2" d="M974.6,1263.6l-0.8,2.3h-1l2.5-7.2h1.2l2.5,7.2h-1l-0.8-2.3H974.6z M977,1262.9l-0.7-2.1
			c-0.2-0.5-0.3-0.9-0.4-1.3h0c-0.1,0.4-0.2,0.9-0.4,1.3l-0.7,2.1H977z"/>
		<polygon class="st2" points="980.1,1258.7 981.1,1258.7 981.1,1265.1 984.2,1265.1 984.2,1265.9 980.1,1265.9 		"/>
		<rect x="834.7" y="1269.8" class="st3" width="153.8" height="0.5"/>
		<path class="st2" d="M839.7,1280.9c0.3,0.2,0.7,0.3,1.2,0.3c0.7,0,1-0.3,1-0.8c0-0.5-0.3-0.7-0.9-1c-0.8-0.3-1.3-0.7-1.3-1.4
			c0-0.8,0.6-1.3,1.6-1.3c0.5,0,0.9,0.1,1.1,0.2l-0.2,0.5c-0.2-0.1-0.5-0.2-0.9-0.2c-0.7,0-0.9,0.4-0.9,0.7c0,0.5,0.3,0.7,1,0.9
			c0.8,0.3,1.3,0.7,1.3,1.4c0,0.7-0.6,1.4-1.7,1.4c-0.5,0-1-0.1-1.3-0.3L839.7,1280.9z"/>
		<rect x="843.5" y="1276.8" class="st2" width="0.6" height="4.9"/>
		<path class="st2" d="M845.2,1276.9c0.3,0,0.7-0.1,1.2-0.1c0.6,0,1.1,0.1,1.4,0.4c0.3,0.2,0.4,0.6,0.4,1c0,0.4-0.1,0.8-0.4,1
			c-0.3,0.4-0.9,0.5-1.5,0.5c-0.2,0-0.4,0-0.5,0v1.9h-0.6V1276.9z M845.9,1279.2c0.1,0,0.3,0.1,0.5,0.1c0.8,0,1.2-0.4,1.2-1
			c0-0.6-0.5-1-1.2-1c-0.3,0-0.5,0-0.6,0.1V1279.2z"/>
		<path class="st2" d="M850.7,1276.9c0.3-0.1,0.8-0.1,1.2-0.1c0.7,0,1.1,0.1,1.4,0.4c0.2,0.2,0.4,0.5,0.4,0.9c0,0.6-0.4,1.1-0.9,1.2
			v0c0.4,0.1,0.6,0.5,0.7,1c0.2,0.7,0.3,1.1,0.4,1.3h-0.7c-0.1-0.1-0.2-0.6-0.3-1.2c-0.1-0.7-0.4-0.9-1-0.9h-0.6v2.1h-0.6V1276.9z
			 M851.4,1279.1h0.7c0.7,0,1.1-0.4,1.1-0.9c0-0.6-0.5-0.9-1.1-0.9c-0.3,0-0.5,0-0.6,0.1V1279.1z"/>
		<path class="st2" d="M855.1,1280.1c0,0.9,0.6,1.2,1.2,1.2c0.5,0,0.7-0.1,1-0.2l0.1,0.5c-0.2,0.1-0.6,0.2-1.2,0.2
			c-1.1,0-1.8-0.7-1.8-1.8c0-1.1,0.6-1.9,1.7-1.9c1.2,0,1.5,1,1.5,1.6c0,0.1,0,0.2,0,0.3H855.1z M857,1279.6c0-0.4-0.2-1-0.9-1
			c-0.7,0-0.9,0.6-1,1H857z"/>
		<path class="st2" d="M861.5,1276.6v4.2c0,0.3,0,0.7,0,0.9h-0.6l0-0.6h0c-0.2,0.4-0.6,0.7-1.2,0.7c-0.9,0-1.5-0.7-1.5-1.8
			c0-1.2,0.7-1.9,1.6-1.9c0.5,0,0.9,0.3,1.1,0.5h0v-2.1H861.5z M860.8,1279.6c0-0.1,0-0.2,0-0.3c-0.1-0.4-0.5-0.7-0.9-0.7
			c-0.7,0-1.1,0.6-1.1,1.3c0,0.7,0.4,1.3,1.1,1.3c0.4,0,0.8-0.3,1-0.8c0-0.1,0-0.2,0-0.3V1279.6z"/>
		<path class="st2" d="M867.2,1276.6v4.2c0,0.3,0,0.7,0,0.9h-0.6l0-0.6h0c-0.2,0.4-0.6,0.7-1.2,0.7c-0.9,0-1.5-0.7-1.5-1.8
			c0-1.2,0.7-1.9,1.6-1.9c0.5,0,0.9,0.3,1.1,0.5h0v-2.1H867.2z M866.5,1279.6c0-0.1,0-0.2,0-0.3c-0.1-0.4-0.4-0.7-0.9-0.7
			c-0.7,0-1.1,0.6-1.1,1.3c0,0.7,0.4,1.3,1.1,1.3c0.4,0,0.8-0.3,0.9-0.8c0-0.1,0-0.2,0-0.3V1279.6z"/>
		<path class="st2" d="M868.6,1280.1c0,0.9,0.6,1.2,1.2,1.2c0.5,0,0.7-0.1,1-0.2l0.1,0.5c-0.2,0.1-0.6,0.2-1.2,0.2
			c-1.1,0-1.8-0.7-1.8-1.8c0-1.1,0.6-1.9,1.7-1.9c1.2,0,1.5,1,1.5,1.6c0,0.1,0,0.2,0,0.3H868.6z M870.5,1279.6c0-0.4-0.2-1-0.9-1
			c-0.7,0-0.9,0.6-1,1H870.5z"/>
		<path class="st2" d="M877,1281.5c-0.2,0.1-0.7,0.2-1.3,0.2c-1.4,0-2.5-0.9-2.5-2.5c0-1.5,1.1-2.5,2.6-2.5c0.6,0,1,0.1,1.2,0.2
			l-0.2,0.5c-0.2-0.1-0.6-0.2-1-0.2c-1.2,0-1.9,0.7-1.9,2c0,1.2,0.7,2,1.9,2c0.4,0,0.8-0.1,1-0.2L877,1281.5z"/>
		<path class="st2" d="M880.9,1279.9c0,1.3-0.9,1.9-1.8,1.9c-1,0-1.7-0.7-1.7-1.8c0-1.2,0.8-1.9,1.8-1.9
			C880.3,1278.1,880.9,1278.9,880.9,1279.9 M878.1,1280c0,0.8,0.5,1.3,1.1,1.3c0.6,0,1.1-0.6,1.1-1.4c0-0.6-0.3-1.3-1.1-1.3
			C878.4,1278.6,878.1,1279.3,878.1,1280"/>
		<rect x="881.8" y="1276.6" class="st2" width="0.6" height="5.1"/>
		<path class="st2" d="M883.9,1280.1c0,0.9,0.6,1.2,1.2,1.2c0.5,0,0.7-0.1,1-0.2l0.1,0.5c-0.2,0.1-0.6,0.2-1.2,0.2
			c-1.1,0-1.8-0.7-1.8-1.8c0-1.1,0.6-1.9,1.7-1.9c1.2,0,1.5,1,1.5,1.6c0,0.1,0,0.2,0,0.3H883.9z M885.8,1279.6c0-0.4-0.2-1-0.9-1
			c-0.7,0-0.9,0.6-1,1H885.8z"/>
		<path class="st2" d="M890.3,1278.2c0,0.3,0,0.5,0,1v2c0,0.8-0.2,1.3-0.5,1.6c-0.3,0.3-0.8,0.4-1.3,0.4c-0.4,0-0.9-0.1-1.2-0.3
			l0.2-0.5c0.2,0.1,0.6,0.3,1,0.3c0.7,0,1.1-0.3,1.1-1.2v-0.4h0c-0.2,0.3-0.6,0.6-1.1,0.6c-0.9,0-1.5-0.7-1.5-1.7
			c0-1.2,0.8-1.9,1.6-1.9c0.6,0,1,0.3,1.1,0.6h0l0-0.5H890.3z M889.6,1279.6c0-0.1,0-0.2,0-0.3c-0.1-0.4-0.4-0.7-0.9-0.7
			c-0.6,0-1.1,0.5-1.1,1.3c0,0.7,0.4,1.3,1.1,1.3c0.4,0,0.8-0.2,0.9-0.6c0-0.1,0.1-0.2,0.1-0.3V1279.6z"/>
		<path class="st2" d="M892,1277.2c0,0.2-0.2,0.4-0.4,0.4c-0.2,0-0.4-0.2-0.4-0.4c0-0.2,0.2-0.4,0.4-0.4
			C891.8,1276.8,892,1277,892,1277.2 M891.3,1278.2h0.6v3.5h-0.6V1278.2z"/>
		<path class="st2" d="M896.2,1279.9c0,1.3-0.9,1.9-1.8,1.9c-1,0-1.7-0.7-1.7-1.8c0-1.2,0.8-1.9,1.8-1.9
			C895.5,1278.1,896.2,1278.9,896.2,1279.9 M893.4,1280c0,0.8,0.5,1.3,1.1,1.3c0.6,0,1.1-0.6,1.1-1.4c0-0.6-0.3-1.3-1.1-1.3
			C893.7,1278.6,893.4,1279.3,893.4,1280"/>
		<path class="st2" d="M897,1281.1c0.2,0.1,0.5,0.3,0.9,0.3c0.5,0,0.7-0.2,0.7-0.5c0-0.3-0.2-0.5-0.7-0.6c-0.6-0.2-0.9-0.6-0.9-1
			c0-0.6,0.5-1,1.2-1c0.4,0,0.7,0.1,0.9,0.2l-0.2,0.5c-0.1-0.1-0.4-0.2-0.7-0.2c-0.4,0-0.6,0.2-0.6,0.5c0,0.3,0.2,0.4,0.7,0.6
			c0.6,0.2,0.9,0.5,0.9,1.1c0,0.6-0.5,1-1.3,1c-0.4,0-0.8-0.1-1-0.2L897,1281.1z"/>
		<rect x="901.6" y="1276.3" class="st2" width="0.5" height="7.2"/>
		<polygon class="st2" points="904.9,1276.8 907.6,1276.8 907.6,1277.4 905.5,1277.4 905.5,1279 907.4,1279 907.4,1279.5 
			905.5,1279.5 905.5,1281.7 904.9,1281.7 		"/>
		<path class="st2" d="M911.2,1280.8c0,0.4,0,0.7,0,1h-0.6l0-0.6h0c-0.2,0.3-0.5,0.6-1.2,0.6c-0.6,0-1.2-0.3-1.2-1.5v-2h0.6v1.9
			c0,0.7,0.2,1.1,0.8,1.1c0.4,0,0.7-0.3,0.9-0.6c0-0.1,0.1-0.2,0.1-0.3v-2.1h0.6V1280.8z"/>
		<path class="st2" d="M912.3,1279.2c0-0.4,0-0.7,0-0.9h0.6l0,0.6h0c0.2-0.3,0.6-0.7,1.2-0.7c0.5,0,1.3,0.3,1.3,1.5v2.1h-0.6v-2
			c0-0.6-0.2-1-0.8-1c-0.4,0-0.8,0.3-0.9,0.6c0,0.1,0,0.2,0,0.3v2.1h-0.6V1279.2z"/>
		<path class="st2" d="M919.4,1276.6v4.2c0,0.3,0,0.7,0,0.9h-0.6l0-0.6h0c-0.2,0.4-0.6,0.7-1.2,0.7c-0.9,0-1.5-0.7-1.5-1.8
			c0-1.2,0.7-1.9,1.6-1.9c0.5,0,0.9,0.3,1.1,0.5h0v-2.1H919.4z M918.8,1279.6c0-0.1,0-0.2,0-0.3c-0.1-0.4-0.5-0.7-0.9-0.7
			c-0.7,0-1.1,0.6-1.1,1.3c0,0.7,0.4,1.3,1.1,1.3c0.4,0,0.8-0.3,1-0.8c0-0.1,0-0.2,0-0.3V1279.6z"/>
		<path class="st2" d="M922.5,1281.7l-0.1-0.4h0c-0.2,0.3-0.6,0.5-1.1,0.5c-0.7,0-1.1-0.5-1.1-1c0-0.8,0.8-1.3,2.1-1.3v-0.1
			c0-0.3-0.1-0.8-0.8-0.8c-0.3,0-0.7,0.1-0.9,0.3l-0.1-0.4c0.3-0.2,0.7-0.3,1.2-0.3c1.1,0,1.4,0.7,1.4,1.4v1.3c0,0.3,0,0.6,0.1,0.8
			H922.5z M922.4,1279.9c-0.7,0-1.5,0.1-1.5,0.8c0,0.4,0.3,0.6,0.6,0.6c0.5,0,0.8-0.3,0.9-0.6c0-0.1,0-0.1,0-0.2V1279.9z"/>
		<path class="st2" d="M926.6,1281.6c-0.2,0.1-0.5,0.2-1,0.2c-1.1,0-1.8-0.7-1.8-1.8c0-1.1,0.8-1.9,1.9-1.9c0.4,0,0.7,0.1,0.9,0.2
			l-0.1,0.5c-0.2-0.1-0.4-0.2-0.8-0.2c-0.8,0-1.3,0.6-1.3,1.3c0,0.8,0.5,1.3,1.2,1.3c0.4,0,0.6-0.1,0.8-0.2L926.6,1281.6z"/>
		<path class="st2" d="M928.1,1277.2c0,0.2-0.2,0.4-0.4,0.4c-0.2,0-0.4-0.2-0.4-0.4c0-0.2,0.2-0.4,0.4-0.4
			C927.9,1276.8,928.1,1277,928.1,1277.2 M927.4,1278.2h0.6v3.5h-0.6V1278.2z"/>
		<path class="st2" d="M932.3,1279.9c0,1.3-0.9,1.9-1.8,1.9c-1,0-1.7-0.7-1.7-1.8c0-1.2,0.8-1.9,1.8-1.9
			C931.6,1278.1,932.3,1278.9,932.3,1279.9 M929.5,1280c0,0.8,0.4,1.3,1.1,1.3c0.6,0,1.1-0.6,1.1-1.4c0-0.6-0.3-1.3-1.1-1.3
			C929.8,1278.6,929.5,1279.3,929.5,1280 M931.5,1276.7l-0.9,1h-0.5l0.6-1H931.5z"/>
		<path class="st2" d="M933.1,1279.2c0-0.4,0-0.7,0-0.9h0.6l0,0.6h0c0.2-0.3,0.6-0.7,1.2-0.7c0.5,0,1.3,0.3,1.3,1.5v2.1h-0.6v-2
			c0-0.6-0.2-1-0.8-1c-0.4,0-0.8,0.3-0.9,0.6c0,0.1,0,0.2,0,0.3v2.1h-0.6V1279.2z"/>
		<path class="st2" d="M938.8,1276.9c0.3-0.1,0.8-0.1,1.2-0.1c0.7,0,1.1,0.1,1.4,0.4c0.2,0.2,0.4,0.5,0.4,0.9c0,0.6-0.4,1.1-0.9,1.2
			v0c0.4,0.1,0.6,0.5,0.7,1c0.2,0.7,0.3,1.1,0.4,1.3h-0.7c-0.1-0.1-0.2-0.6-0.3-1.2c-0.1-0.7-0.4-0.9-1-0.9h-0.6v2.1h-0.6V1276.9z
			 M939.5,1279.1h0.7c0.7,0,1.1-0.4,1.1-0.9c0-0.6-0.5-0.9-1.1-0.9c-0.3,0-0.5,0-0.6,0.1V1279.1z"/>
		<path class="st2" d="M943.2,1280.1c0,0.9,0.6,1.2,1.2,1.2c0.5,0,0.7-0.1,1-0.2l0.1,0.5c-0.2,0.1-0.6,0.2-1.2,0.2
			c-1.1,0-1.8-0.7-1.8-1.8c0-1.1,0.6-1.9,1.7-1.9c1.2,0,1.5,1,1.5,1.6c0,0.1,0,0.2,0,0.3H943.2z M945.1,1279.6c0-0.4-0.2-1-0.9-1
			c-0.7,0-0.9,0.6-1,1H945.1z"/>
		<path class="st2" d="M947.2,1277.2c0,0.2-0.2,0.4-0.4,0.4c-0.2,0-0.4-0.2-0.4-0.4c0-0.2,0.2-0.4,0.4-0.4
			C947.1,1276.8,947.2,1277,947.2,1277.2 M946.5,1278.2h0.6v3.5h-0.6V1278.2z"/>
		<path class="st2" d="M948.2,1279.2c0-0.4,0-0.7,0-0.9h0.6l0,0.6h0c0.2-0.3,0.6-0.7,1.2-0.7c0.5,0,1.3,0.3,1.3,1.5v2.1h-0.6v-2
			c0-0.6-0.2-1-0.8-1c-0.4,0-0.8,0.3-0.9,0.6c0,0.1,0,0.2,0,0.3v2.1h-0.6V1279.2z"/>
		<path class="st2" d="M954.3,1281.7l-0.1-0.4h0c-0.2,0.3-0.6,0.5-1.1,0.5c-0.7,0-1.1-0.5-1.1-1c0-0.8,0.8-1.3,2.1-1.3v-0.1
			c0-0.3-0.1-0.8-0.8-0.8c-0.3,0-0.7,0.1-0.9,0.3l-0.1-0.4c0.3-0.2,0.7-0.3,1.2-0.3c1.1,0,1.4,0.7,1.4,1.4v1.3c0,0.3,0,0.6,0.1,0.8
			H954.3z M954.2,1279.9c-0.7,0-1.5,0.1-1.5,0.8c0,0.4,0.3,0.6,0.6,0.6c0.5,0,0.8-0.3,0.9-0.6c0-0.1,0-0.1,0-0.2V1279.9z"/>
		<rect x="955.9" y="1276.6" class="st2" width="0.6" height="5.1"/>
		<path class="st2" d="M960.7,1276.6v4.2c0,0.3,0,0.7,0,0.9h-0.6l0-0.6h0c-0.2,0.4-0.6,0.7-1.2,0.7c-0.9,0-1.5-0.7-1.5-1.8
			c0-1.2,0.7-1.9,1.6-1.9c0.5,0,0.9,0.3,1.1,0.5h0v-2.1H960.7z M960,1279.6c0-0.1,0-0.2,0-0.3c-0.1-0.4-0.4-0.7-0.9-0.7
			c-0.7,0-1.1,0.6-1.1,1.3c0,0.7,0.4,1.3,1.1,1.3c0.4,0,0.8-0.3,0.9-0.8c0-0.1,0-0.2,0-0.3V1279.6z"/>
		<path class="st2" d="M965,1279.9c0,1.3-0.9,1.9-1.8,1.9c-1,0-1.7-0.7-1.7-1.8c0-1.2,0.8-1.9,1.8-1.9
			C964.3,1278.1,965,1278.9,965,1279.9 M962.2,1280c0,0.8,0.5,1.3,1.1,1.3c0.6,0,1.1-0.6,1.1-1.4c0-0.6-0.3-1.3-1.1-1.3
			S962.2,1279.3,962.2,1280"/>
		<path class="st2" d="M967.3,1280.9c0.3,0.2,0.7,0.3,1.2,0.3c0.7,0,1-0.3,1-0.8c0-0.5-0.3-0.7-0.9-1c-0.8-0.3-1.3-0.7-1.3-1.4
			c0-0.8,0.6-1.3,1.6-1.3c0.5,0,0.9,0.1,1.1,0.2l-0.2,0.5c-0.2-0.1-0.5-0.2-0.9-0.2c-0.7,0-0.9,0.4-0.9,0.7c0,0.5,0.3,0.7,1,0.9
			c0.8,0.3,1.3,0.7,1.3,1.4c0,0.7-0.6,1.4-1.7,1.4c-0.5,0-1-0.1-1.3-0.3L967.3,1280.9z"/>
		<path class="st2" d="M974.3,1279.9c0,1.3-0.9,1.9-1.8,1.9c-1,0-1.7-0.7-1.7-1.8c0-1.2,0.8-1.9,1.8-1.9
			C973.6,1278.1,974.3,1278.9,974.3,1279.9 M971.4,1280c0,0.8,0.5,1.3,1.1,1.3c0.6,0,1.1-0.6,1.1-1.4c0-0.6-0.3-1.3-1.1-1.3
			C971.8,1278.6,971.4,1279.3,971.4,1280"/>
		<rect x="975.1" y="1276.6" class="st2" width="0.6" height="5.1"/>
		<path class="st2" d="M978.8,1281.7l-0.1-0.4h0c-0.2,0.3-0.6,0.5-1.1,0.5c-0.7,0-1.1-0.5-1.1-1c0-0.8,0.8-1.3,2.1-1.3v-0.1
			c0-0.3-0.1-0.8-0.8-0.8c-0.3,0-0.7,0.1-0.9,0.3l-0.1-0.4c0.3-0.2,0.7-0.3,1.2-0.3c1.1,0,1.4,0.7,1.4,1.4v1.3c0,0.3,0,0.6,0.1,0.8
			H978.8z M978.7,1279.9c-0.7,0-1.5,0.1-1.5,0.8c0,0.4,0.3,0.6,0.6,0.6c0.5,0,0.8-0.3,0.9-0.6c0-0.1,0-0.1,0-0.2V1279.9z"/>
		<path class="st2" d="M980.4,1279.3c0-0.4,0-0.8,0-1.1h0.6l0,0.7h0c0.2-0.5,0.6-0.8,1-0.8c0.1,0,0.1,0,0.2,0v0.6
			c-0.1,0-0.1,0-0.2,0c-0.5,0-0.8,0.3-0.9,0.8c0,0.1,0,0.2,0,0.3v1.9h-0.6V1279.3z"/>
		<path class="st2" d="M983.6,1277.2c0,0.2-0.2,0.4-0.4,0.4c-0.2,0-0.4-0.2-0.4-0.4c0-0.2,0.2-0.4,0.4-0.4
			C983.4,1276.8,983.6,1277,983.6,1277.2 M982.8,1278.2h0.6v3.5h-0.6V1278.2z"/>
		<path class="st4" d="M769.8,1292.5l52.8-40c-11.8-14.4-31.3-23.9-53.3-23.9c-21.7,0-40.8,9.1-52.7,23.2L769.8,1292.5z"/>
	</g>
	<g class="st1">
		<defs>
			<path id="SVGID_5_" d="M718.6,1252.8l51.4,39.3l50.9-38.6c-11.4-13.9-30.2-23-51.5-23C748.6,1230.4,730.1,1239.2,718.6,1252.8"/>
		</defs>
		<clipPath id="SVGID_6_">
			<use xlink:href="#SVGID_5_"  style="overflow:visible;"/>
		</clipPath>
		
			<radialGradient id="SVGID_7_" cx="233.8115" cy="1077.4929" r="1.7324" gradientTransform="matrix(-0.6256 23.6593 -24.2409 -0.6106 27039.3906 -3632.4429)" gradientUnits="userSpaceOnUse">
			<stop  offset="0" style="stop-color:#CDD74E"/>
			<stop  offset="0.158" style="stop-color:#CDD74E"/>
			<stop  offset="1" style="stop-color:#769034"/>
		</radialGradient>
		<polygon class="st5" points="718.7,1227.8 717,1292 820.9,1294.6 822.6,1230.4 		"/>
	</g>
	<g class="st1">
		<defs>
			<path id="SVGID_8_" d="M759.1,1211l-0.3,0.8l-34.4,0.2l0.1,0.1h-0.1l25.3,19.1c0,0,0,0,0.1,0l0.3,0.2l-9.5,32.8l28.2-18.5
				l29.9,18.4l-11.2-33l26-19h-0.1l0.1,0l-35.3-0.4l-0.4-1.1l-8.7-27.5L759.1,1211z"/>
		</defs>
		<clipPath id="SVGID_9_">
			<use xlink:href="#SVGID_8_"  style="overflow:visible;"/>
		</clipPath>
		
			<linearGradient id="SVGID_10_" gradientUnits="userSpaceOnUse" x1="228.8121" y1="1079.7107" x2="230.5446" y2="1079.7107" gradientTransform="matrix(-0.2783 43.7312 -44.8061 -0.2716 49210.6094 -8527.7939)">
			<stop  offset="0" style="stop-color:#5F7DBB"/>
			<stop  offset="0.3417" style="stop-color:#5F7DBB"/>
			<stop  offset="0.6324" style="stop-color:#4E619F"/>
			<stop  offset="0.9532" style="stop-color:#3C395E"/>
			<stop  offset="1" style="stop-color:#3C395E"/>
		</linearGradient>
		<polygon class="st6" points="724.4,1182.5 723.9,1264.2 813.7,1264.7 814.2,1183 		"/>
	</g>
	<polygon class="st7" points="773.7,1295.1 771.6,1293.7 818.9,1256.9 776,1295.1 	"/>
	<polygon class="st8" points="712.5,1258.6 715.7,1253.2 763.5,1289.3 	"/>
	<g class="st1">
		<defs>
			<rect id="SVGID_11_" x="708.8" y="1183" width="278.9" height="112.1"/>
		</defs>
		<clipPath id="SVGID_12_">
			<use xlink:href="#SVGID_11_"  style="overflow:visible;"/>
		</clipPath>
		<path class="st9" d="M789.9,1230.4c0,0,20.4,5.7,33.7,20.4l3.9-2.6c0,0-11.7-12.7-34.9-19.6L789.9,1230.4z"/>
		<path class="st10" d="M745.4,1228.8c0,0-26.3,7.7-36.6,27.1l2.4,1.6c0,0,10.3-19.8,36.6-27L745.4,1228.8z"/>
	</g>
	<g class="st1">
		<defs>
			<rect id="SVGID_13_" width="1060.3" height="1370.1"/>
		</defs>
		<clipPath id="SVGID_14_">
			<use xlink:href="#SVGID_13_"  style="overflow:visible;"/>
		</clipPath>
		<g class="st11">
			<g>
				<defs>
					<rect id="SVGID_15_" x="-183.5" y="-0.9" width="2343.9" height="2029.1"/>
				</defs>
				<clipPath id="SVGID_16_">
					<use xlink:href="#SVGID_15_"  style="overflow:visible;"/>
				</clipPath>
				<polygon class="st12" points="945.2,0 830.4,318.1 819,348.2 189.5,352.1 191.1,353.3 189.9,353.3 630.5,687.8 631.2,687.7 
					646.4,698.8 658.1,707.6 483.7,1317.7 1003,973.2 1060.8,1009 1060.8,0 				"/>
				<g class="st13">
					<defs>
						<rect id="SVGID_17_" x="0.1" y="1.7" width="1060.7" height="1369.3"/>
					</defs>
					<clipPath id="SVGID_18_">
						<use xlink:href="#SVGID_17_"  style="overflow:visible;"/>
					</clipPath>
					<path class="st14" d="M-29.7,1128.8l1051.6,823.5L2063.8,1143c-159.9-199.9-390.4-352.2-659.1-428.5l-6.2,4.6l234.9,698.5
						l-629.7-390.2l-593.9,394L608,727.8l-9.8-7.5C344.2,796.5,125.6,940.8-29.7,1128.8"/>
					<path class="st14" d="M810,1834l-862.8-675.6l-0.8-0.6c-19.3,25.6-42.5,59.5-65.5,100.9L810,1834z"/>
					<path class="st14" d="M-34.6,1076.9c75.7-86.2,164.2-162.5,263.5-227.1c102.2-66.5,214-119.3,332.6-157.4l-34.2-26
						c-179.3,62.9-446.9,189.4-632.5,423.2c-52.1,65.6-78.2,129-78.2,129l32.5,20.1C-97,1141.7-42.2,1084.6-34.6,1076.9"/>
				</g>
			</g>
		</g>
	</g>
	<g class="st1">
		<text transform="matrix(1 0 0 1 98.2168 144.5879)" class="st15 st16 st17">Aptus Estudios</text>
	</g>
	<g class="st1">
		<text transform="matrix(1 0 0 1 95.9795 192.3975)"><tspan x="0" y="0" class="st15 st18 st19">D</tspan><tspan x="22.6" y="0" class="st15 st18 st19">e la </tspan><tspan x="77.7" y="0" class="st15 st18 st19">e</tspan><tspan x="94.6" y="0" class="st15 st18 st19">videncia a la prá</tspan><tspan x="316.8" y="0" class="st15 st18 st19">c</tspan><tspan x="332.6" y="0" class="st15 st18 st19">tica</tspan></text>
	</g>
	<g class="st1">
		<defs>
			<rect id="SVGID_19_" x="708.8" y="1183" width="278.9" height="112.1"/>
		</defs>
		<clipPath id="SVGID_20_">
			<use xlink:href="#SVGID_19_"  style="overflow:visible;"/>
		</clipPath>
		<path class="st20" d="M851.1,1232.8l-4.1,12h-5.2l13.3-38.2h6.1l13.4,38.2h-5.4l-4.2-12H851.1z M863.9,1229l-3.8-11
			c-0.9-2.5-1.5-4.8-2-7h-0.1c-0.6,2.3-1.2,4.6-2,6.9l-3.8,11.1H863.9z"/>
		<path class="st20" d="M879.9,1226.3c0-3.5-0.1-6.3-0.2-9h4.6l0.2,4.7h0.1c2.1-3.3,5.4-5.3,10-5.3c6.8,0,11.9,5.6,11.9,13.9
			c0,9.9-6.2,14.7-12.8,14.7c-3.7,0-7-1.6-8.7-4.3H885v14.9h-5.1V1226.3z M885,1233.7c0,0.7,0.1,1.4,0.2,2c0.9,3.5,4,5.8,7.7,5.8
			c5.4,0,8.5-4.3,8.5-10.6c0-5.5-3-10.2-8.4-10.2c-3.5,0-6.7,2.4-7.7,6.2c-0.2,0.6-0.3,1.4-0.3,2V1233.7z"/>
		<path class="st20" d="M919.1,1209.5v7.9h7.3v3.8h-7.3v14.8c0,3.4,1,5.3,3.8,5.3c1.3,0,2.3-0.2,3-0.3l0.2,3.7
			c-1,0.4-2.6,0.7-4.5,0.7c-2.4,0-4.3-0.7-5.5-2.1c-1.5-1.5-2-3.9-2-7.1v-15h-4.4v-3.8h4.4v-6.6L919.1,1209.5z"/>
		<path class="st20" d="M955.7,1237.3c0,2.8,0.1,5.3,0.2,7.5h-4.5l-0.3-4.5H951c-1.3,2.2-4.3,5.1-9.3,5.1c-4.4,0-9.7-2.4-9.7-12v-16
			h5.1v15.2c0,5.2,1.6,8.7,6.3,8.7c3.4,0,5.8-2.3,6.7-4.5c0.3-0.7,0.5-1.6,0.5-2.6v-16.8h5.1V1237.3z"/>
		<path class="st20" d="M963.5,1239.7c1.5,1,4.2,2,6.7,2c3.7,0,5.5-1.8,5.5-4.1c0-2.4-1.5-3.7-5.2-5c-5.1-1.8-7.4-4.5-7.4-7.8
			c0-4.4,3.7-8,9.7-8c2.8,0,5.3,0.8,6.9,1.7l-1.3,3.6c-1.1-0.7-3.1-1.6-5.7-1.6c-3,0-4.7,1.7-4.7,3.7c0,2.3,1.7,3.3,5.3,4.6
			c4.9,1.8,7.4,4.2,7.4,8.3c0,4.8-3.8,8.2-10.5,8.2c-3.1,0-5.9-0.7-7.9-1.9L963.5,1239.7z"/>
		<path class="st20" d="M839.6,1258.7c0.5-0.1,1.1-0.1,1.8-0.1c0.9,0,1.6,0.2,2.1,0.6c0.4,0.3,0.6,0.9,0.6,1.5
			c0,0.7-0.2,1.2-0.6,1.5c-0.5,0.5-1.3,0.8-2.3,0.8c-0.3,0-0.6,0-0.8-0.1v2.9h-1V1258.7z M840.6,1262.2c0.2,0.1,0.5,0.1,0.8,0.1
			c1.2,0,1.9-0.5,1.9-1.6c0-1-0.7-1.4-1.7-1.4c-0.4,0-0.7,0-0.9,0.1V1262.2z"/>
		<path class="st20" d="M851.8,1262.2c0,2.5-1.6,3.8-3.4,3.8c-2,0-3.3-1.5-3.3-3.7c0-2.3,1.5-3.8,3.4-3.8
			C850.5,1258.5,851.8,1260.1,851.8,1262.2 M846.1,1262.3c0,1.5,0.9,2.9,2.4,2.9c1.5,0,2.4-1.4,2.4-3c0-1.4-0.8-2.9-2.4-2.9
			C846.9,1259.3,846.1,1260.7,846.1,1262.3"/>
		<polygon class="st20" points="854.2,1259.5 852,1259.5 852,1258.7 857.4,1258.7 857.4,1259.5 855.2,1259.5 855.2,1265.9 
			854.2,1265.9 		"/>
		<polygon class="st20" points="862.1,1262.5 859.2,1262.5 859.2,1265.1 862.4,1265.1 862.4,1265.9 858.3,1265.9 858.3,1258.7 
			862.3,1258.7 862.3,1259.4 859.2,1259.4 859.2,1261.7 862.1,1261.7 		"/>
		<path class="st20" d="M863.7,1265.9v-7.2h1l2.4,3.7c0.6,0.8,1,1.6,1.3,2.4l0,0c-0.1-1-0.1-1.8-0.1-3v-3h0.9v7.2h-1l-2.4-3.7
			c-0.5-0.8-1-1.6-1.4-2.4l0,0c0.1,0.9,0.1,1.8,0.1,3v3.1H863.7z"/>
		<path class="st20" d="M876.1,1265.7c-0.4,0.2-1.1,0.3-2,0.3c-2.1,0-3.7-1.3-3.7-3.7c0-2.3,1.6-3.8,3.9-3.8c0.9,0,1.5,0.2,1.8,0.3
			l-0.2,0.8c-0.4-0.2-0.9-0.3-1.5-0.3c-1.7,0-2.9,1.1-2.9,3c0,1.8,1,2.9,2.9,2.9c0.6,0,1.2-0.1,1.6-0.3L876.1,1265.7z"/>
		<rect x="877.3" y="1258.7" class="st20" width="1" height="7.2"/>
		<path class="st20" d="M881.2,1263.6l-0.8,2.3h-1l2.5-7.2h1.2l2.5,7.2h-1l-0.8-2.3H881.2z M883.6,1262.9l-0.7-2.1
			c-0.2-0.5-0.3-0.9-0.4-1.3h0c-0.1,0.4-0.2,0.9-0.4,1.3l-0.7,2.1H883.6z"/>
		<path class="st20" d="M886.7,1258.8c0.6-0.1,1.3-0.2,2-0.2c1.4,0,2.4,0.3,3,0.9c0.7,0.6,1,1.4,1,2.6c0,1.2-0.4,2.2-1.1,2.8
			c-0.7,0.7-1.8,1-3.3,1c-0.7,0-1.3,0-1.7-0.1V1258.8z M887.6,1265.2c0.2,0,0.6,0.1,1,0.1c2,0,3.2-1.1,3.2-3.1c0-1.7-1-2.8-3-2.8
			c-0.5,0-0.9,0-1.1,0.1V1265.2z"/>
		<path class="st20" d="M900.4,1262.2c0,2.5-1.6,3.8-3.4,3.8c-2,0-3.3-1.5-3.3-3.7c0-2.3,1.5-3.8,3.4-3.8
			C899.1,1258.5,900.4,1260.1,900.4,1262.2 M894.6,1262.3c0,1.5,0.9,2.9,2.4,2.9c1.5,0,2.4-1.4,2.4-3c0-1.4-0.8-2.9-2.4-2.9
			C895.4,1259.3,894.6,1260.7,894.6,1262.3"/>
		<path class="st20" d="M901.6,1258.8c0.5-0.1,1.2-0.2,1.8-0.2c1,0,1.7,0.2,2.1,0.6c0.4,0.3,0.6,0.8,0.6,1.4c0,1-0.6,1.6-1.4,1.8v0
			c0.6,0.2,0.9,0.7,1.1,1.5c0.2,1,0.4,1.7,0.6,2h-1c-0.1-0.2-0.3-0.8-0.5-1.7c-0.2-1-0.6-1.4-1.5-1.4h-0.9v3.1h-1V1258.8z
			 M902.6,1262.1h1c1,0,1.7-0.5,1.7-1.4c0-0.9-0.7-1.3-1.7-1.4c-0.5,0-0.8,0-0.9,0.1V1262.1z"/>
		<path class="st20" d="M908.8,1263.6l-0.8,2.3h-1l2.5-7.2h1.2l2.5,7.2h-1l-0.8-2.3H908.8z M911.2,1262.9l-0.7-2.1
			c-0.2-0.5-0.3-0.9-0.4-1.3h0c-0.1,0.4-0.2,0.9-0.4,1.3l-0.7,2.1H911.2z"/>
		<polygon class="st20" points="920.5,1262.5 917.6,1262.5 917.6,1265.1 920.8,1265.1 920.8,1265.9 916.7,1265.9 916.7,1258.7 
			920.7,1258.7 920.7,1259.4 917.6,1259.4 917.6,1261.7 920.5,1261.7 		"/>
		<path class="st20" d="M922.1,1258.8c0.6-0.1,1.3-0.2,2-0.2c1.4,0,2.4,0.3,3,0.9c0.7,0.6,1,1.4,1,2.6c0,1.2-0.4,2.2-1.1,2.8
			c-0.7,0.7-1.8,1-3.3,1c-0.7,0-1.3,0-1.7-0.1V1258.8z M923,1265.2c0.2,0,0.6,0.1,1,0.1c2,0,3.2-1.1,3.2-3.1c0-1.7-1-2.8-3-2.8
			c-0.5,0-0.9,0-1.1,0.1V1265.2z"/>
		<path class="st20" d="M930.4,1258.7v4.3c0,1.6,0.7,2.3,1.7,2.3c1.1,0,1.8-0.7,1.8-2.3v-4.3h1v4.2c0,2.2-1.2,3.1-2.8,3.1
			c-1.5,0-2.7-0.8-2.7-3.1v-4.3H930.4z"/>
		<path class="st20" d="M941.7,1265.7c-0.4,0.2-1.1,0.3-2,0.3c-2.1,0-3.7-1.3-3.7-3.7c0-2.3,1.6-3.8,3.9-3.8c0.9,0,1.5,0.2,1.8,0.3
			l-0.2,0.8c-0.4-0.2-0.9-0.3-1.5-0.3c-1.7,0-2.9,1.1-2.9,3c0,1.8,1,2.9,2.8,2.9c0.6,0,1.2-0.1,1.6-0.3L941.7,1265.7z"/>
		<path class="st20" d="M944.2,1263.6l-0.8,2.3h-1l2.5-7.2h1.2l2.5,7.2h-1l-0.8-2.3H944.2z M946.6,1262.9l-0.7-2.1
			c-0.2-0.5-0.3-0.9-0.4-1.3h0c-0.1,0.4-0.2,0.9-0.4,1.3l-0.7,2.1H946.6z"/>
		<path class="st20" d="M954.7,1265.7c-0.4,0.2-1.1,0.3-2,0.3c-2.1,0-3.7-1.3-3.7-3.7c0-2.3,1.6-3.8,3.9-3.8c0.9,0,1.5,0.2,1.8,0.3
			l-0.2,0.8c-0.4-0.2-0.9-0.3-1.5-0.3c-1.7,0-2.9,1.1-2.9,3c0,1.8,1,2.9,2.9,2.9c0.6,0,1.2-0.1,1.6-0.3L954.7,1265.7z"/>
		<rect x="955.9" y="1258.7" class="st20" width="1" height="7.2"/>
		<path class="st20" d="M964.9,1262.2c0,2.5-1.6,3.8-3.4,3.8c-2,0-3.3-1.5-3.3-3.7c0-2.3,1.5-3.8,3.4-3.8
			C963.6,1258.5,964.9,1260.1,964.9,1262.2 M959.1,1262.3c0,1.5,0.9,2.9,2.4,2.9c1.5,0,2.4-1.4,2.4-3c0-1.4-0.8-2.9-2.4-2.9
			C959.9,1259.3,959.1,1260.7,959.1,1262.3"/>
		<path class="st20" d="M966.1,1265.9v-7.2h1l2.4,3.7c0.5,0.8,1,1.6,1.3,2.4l0,0c-0.1-1-0.1-1.8-0.1-3v-3h0.9v7.2h-1l-2.4-3.7
			c-0.5-0.8-1-1.6-1.4-2.4l0,0c0.1,0.9,0.1,1.8,0.1,3v3.1H966.1z"/>
		<path class="st20" d="M974.6,1263.6l-0.8,2.3h-1l2.5-7.2h1.2l2.5,7.2h-1l-0.8-2.3H974.6z M977,1262.9l-0.7-2.1
			c-0.2-0.5-0.3-0.9-0.4-1.3h0c-0.1,0.4-0.2,0.9-0.4,1.3l-0.7,2.1H977z"/>
		<polygon class="st20" points="980.1,1258.7 981.1,1258.7 981.1,1265.1 984.2,1265.1 984.2,1265.9 980.1,1265.9 		"/>
		<rect x="834.7" y="1269.8" class="st21" width="153.8" height="0.5"/>
		<path class="st20" d="M839.7,1280.9c0.3,0.2,0.7,0.3,1.2,0.3c0.7,0,1-0.3,1-0.8c0-0.5-0.3-0.7-0.9-1c-0.8-0.3-1.3-0.7-1.3-1.4
			c0-0.8,0.6-1.3,1.6-1.3c0.5,0,0.9,0.1,1.1,0.2l-0.2,0.5c-0.2-0.1-0.5-0.2-0.9-0.2c-0.7,0-0.9,0.4-0.9,0.7c0,0.5,0.3,0.7,1,0.9
			c0.8,0.3,1.3,0.7,1.3,1.4c0,0.7-0.6,1.4-1.7,1.4c-0.5,0-1-0.1-1.3-0.3L839.7,1280.9z"/>
		<rect x="843.5" y="1276.8" class="st20" width="0.6" height="4.9"/>
		<path class="st20" d="M845.2,1276.9c0.3,0,0.7-0.1,1.2-0.1c0.6,0,1.1,0.1,1.4,0.4c0.3,0.2,0.4,0.6,0.4,1c0,0.4-0.1,0.8-0.4,1
			c-0.3,0.4-0.9,0.5-1.5,0.5c-0.2,0-0.4,0-0.5,0v1.9h-0.6V1276.9z M845.9,1279.2c0.1,0,0.3,0.1,0.5,0.1c0.8,0,1.2-0.4,1.2-1
			c0-0.6-0.5-1-1.2-1c-0.3,0-0.5,0-0.6,0.1V1279.2z"/>
		<path class="st20" d="M850.7,1276.9c0.3-0.1,0.8-0.1,1.2-0.1c0.7,0,1.1,0.1,1.4,0.4c0.2,0.2,0.4,0.5,0.4,0.9
			c0,0.6-0.4,1.1-0.9,1.2v0c0.4,0.1,0.6,0.5,0.7,1c0.2,0.7,0.3,1.1,0.4,1.3h-0.7c-0.1-0.1-0.2-0.6-0.3-1.2c-0.1-0.7-0.4-0.9-1-0.9
			h-0.6v2.1h-0.6V1276.9z M851.4,1279.1h0.7c0.7,0,1.1-0.4,1.1-0.9c0-0.6-0.5-0.9-1.1-0.9c-0.3,0-0.5,0-0.6,0.1V1279.1z"/>
		<path class="st20" d="M855.1,1280.1c0,0.9,0.6,1.2,1.2,1.2c0.5,0,0.7-0.1,1-0.2l0.1,0.5c-0.2,0.1-0.6,0.2-1.2,0.2
			c-1.1,0-1.8-0.7-1.8-1.8c0-1.1,0.6-1.9,1.7-1.9c1.2,0,1.5,1,1.5,1.6c0,0.1,0,0.2,0,0.3H855.1z M857,1279.6c0-0.4-0.2-1-0.9-1
			c-0.7,0-0.9,0.6-1,1H857z"/>
		<path class="st20" d="M861.5,1276.6v4.2c0,0.3,0,0.7,0,0.9h-0.6l0-0.6h0c-0.2,0.4-0.6,0.7-1.2,0.7c-0.9,0-1.5-0.7-1.5-1.8
			c0-1.2,0.7-1.9,1.6-1.9c0.5,0,0.9,0.3,1.1,0.5h0v-2.1H861.5z M860.8,1279.6c0-0.1,0-0.2,0-0.3c-0.1-0.4-0.5-0.7-0.9-0.7
			c-0.7,0-1.1,0.6-1.1,1.3c0,0.7,0.4,1.3,1.1,1.3c0.4,0,0.8-0.3,1-0.8c0-0.1,0-0.2,0-0.3V1279.6z"/>
		<path class="st20" d="M867.2,1276.6v4.2c0,0.3,0,0.7,0,0.9h-0.6l0-0.6h0c-0.2,0.4-0.6,0.7-1.2,0.7c-0.9,0-1.5-0.7-1.5-1.8
			c0-1.2,0.7-1.9,1.6-1.9c0.5,0,0.9,0.3,1.1,0.5h0v-2.1H867.2z M866.5,1279.6c0-0.1,0-0.2,0-0.3c-0.1-0.4-0.4-0.7-0.9-0.7
			c-0.7,0-1.1,0.6-1.1,1.3c0,0.7,0.4,1.3,1.1,1.3c0.4,0,0.8-0.3,0.9-0.8c0-0.1,0-0.2,0-0.3V1279.6z"/>
		<path class="st20" d="M868.6,1280.1c0,0.9,0.6,1.2,1.2,1.2c0.5,0,0.7-0.1,1-0.2l0.1,0.5c-0.2,0.1-0.6,0.2-1.2,0.2
			c-1.1,0-1.8-0.7-1.8-1.8c0-1.1,0.6-1.9,1.7-1.9c1.2,0,1.5,1,1.5,1.6c0,0.1,0,0.2,0,0.3H868.6z M870.5,1279.6c0-0.4-0.2-1-0.9-1
			c-0.7,0-0.9,0.6-1,1H870.5z"/>
		<path class="st20" d="M877,1281.5c-0.2,0.1-0.7,0.2-1.3,0.2c-1.4,0-2.5-0.9-2.5-2.5c0-1.5,1.1-2.5,2.6-2.5c0.6,0,1,0.1,1.2,0.2
			l-0.2,0.5c-0.2-0.1-0.6-0.2-1-0.2c-1.2,0-1.9,0.7-1.9,2c0,1.2,0.7,2,1.9,2c0.4,0,0.8-0.1,1-0.2L877,1281.5z"/>
		<path class="st20" d="M880.9,1279.9c0,1.3-0.9,1.9-1.8,1.9c-1,0-1.7-0.7-1.7-1.8c0-1.2,0.8-1.9,1.8-1.9
			C880.3,1278.1,880.9,1278.9,880.9,1279.9 M878.1,1280c0,0.8,0.5,1.3,1.1,1.3c0.6,0,1.1-0.6,1.1-1.4c0-0.6-0.3-1.3-1.1-1.3
			C878.4,1278.6,878.1,1279.3,878.1,1280"/>
		<rect x="881.8" y="1276.6" class="st20" width="0.6" height="5.1"/>
		<path class="st20" d="M883.9,1280.1c0,0.9,0.6,1.2,1.2,1.2c0.5,0,0.7-0.1,1-0.2l0.1,0.5c-0.2,0.1-0.6,0.2-1.2,0.2
			c-1.1,0-1.8-0.7-1.8-1.8c0-1.1,0.6-1.9,1.7-1.9c1.2,0,1.5,1,1.5,1.6c0,0.1,0,0.2,0,0.3H883.9z M885.8,1279.6c0-0.4-0.2-1-0.9-1
			c-0.7,0-0.9,0.6-1,1H885.8z"/>
		<path class="st20" d="M890.3,1278.2c0,0.3,0,0.5,0,1v2c0,0.8-0.2,1.3-0.5,1.6c-0.3,0.3-0.8,0.4-1.3,0.4c-0.4,0-0.9-0.1-1.2-0.3
			l0.2-0.5c0.2,0.1,0.6,0.3,1,0.3c0.7,0,1.1-0.3,1.1-1.2v-0.4h0c-0.2,0.3-0.6,0.6-1.1,0.6c-0.9,0-1.5-0.7-1.5-1.7
			c0-1.2,0.8-1.9,1.6-1.9c0.6,0,1,0.3,1.1,0.6h0l0-0.5H890.3z M889.6,1279.6c0-0.1,0-0.2,0-0.3c-0.1-0.4-0.4-0.7-0.9-0.7
			c-0.6,0-1.1,0.5-1.1,1.3c0,0.7,0.4,1.3,1.1,1.3c0.4,0,0.8-0.2,0.9-0.6c0-0.1,0.1-0.2,0.1-0.3V1279.6z"/>
		<path class="st20" d="M892,1277.2c0,0.2-0.2,0.4-0.4,0.4c-0.2,0-0.4-0.2-0.4-0.4c0-0.2,0.2-0.4,0.4-0.4
			C891.8,1276.8,892,1277,892,1277.2 M891.3,1278.2h0.6v3.5h-0.6V1278.2z"/>
		<path class="st20" d="M896.2,1279.9c0,1.3-0.9,1.9-1.8,1.9c-1,0-1.7-0.7-1.7-1.8c0-1.2,0.8-1.9,1.8-1.9
			C895.5,1278.1,896.2,1278.9,896.2,1279.9 M893.4,1280c0,0.8,0.5,1.3,1.1,1.3c0.6,0,1.1-0.6,1.1-1.4c0-0.6-0.3-1.3-1.1-1.3
			C893.7,1278.6,893.4,1279.3,893.4,1280"/>
		<path class="st20" d="M897,1281.1c0.2,0.1,0.5,0.3,0.9,0.3c0.5,0,0.7-0.2,0.7-0.5c0-0.3-0.2-0.5-0.7-0.6c-0.6-0.2-0.9-0.6-0.9-1
			c0-0.6,0.5-1,1.2-1c0.4,0,0.7,0.1,0.9,0.2l-0.2,0.5c-0.1-0.1-0.4-0.2-0.7-0.2c-0.4,0-0.6,0.2-0.6,0.5c0,0.3,0.2,0.4,0.7,0.6
			c0.6,0.2,0.9,0.5,0.9,1.1c0,0.6-0.5,1-1.3,1c-0.4,0-0.8-0.1-1-0.2L897,1281.1z"/>
		<rect x="901.6" y="1276.3" class="st20" width="0.5" height="7.2"/>
		<polygon class="st20" points="904.9,1276.8 907.6,1276.8 907.6,1277.4 905.5,1277.4 905.5,1279 907.4,1279 907.4,1279.5 
			905.5,1279.5 905.5,1281.7 904.9,1281.7 		"/>
		<path class="st20" d="M911.2,1280.8c0,0.4,0,0.7,0,1h-0.6l0-0.6h0c-0.2,0.3-0.5,0.6-1.2,0.6c-0.6,0-1.2-0.3-1.2-1.5v-2h0.6v1.9
			c0,0.7,0.2,1.1,0.8,1.1c0.4,0,0.7-0.3,0.9-0.6c0-0.1,0.1-0.2,0.1-0.3v-2.1h0.6V1280.8z"/>
		<path class="st20" d="M912.3,1279.2c0-0.4,0-0.7,0-0.9h0.6l0,0.6h0c0.2-0.3,0.6-0.7,1.2-0.7c0.5,0,1.3,0.3,1.3,1.5v2.1h-0.6v-2
			c0-0.6-0.2-1-0.8-1c-0.4,0-0.8,0.3-0.9,0.6c0,0.1,0,0.2,0,0.3v2.1h-0.6V1279.2z"/>
		<path class="st20" d="M919.4,1276.6v4.2c0,0.3,0,0.7,0,0.9h-0.6l0-0.6h0c-0.2,0.4-0.6,0.7-1.2,0.7c-0.9,0-1.5-0.7-1.5-1.8
			c0-1.2,0.7-1.9,1.6-1.9c0.5,0,0.9,0.3,1.1,0.5h0v-2.1H919.4z M918.8,1279.6c0-0.1,0-0.2,0-0.3c-0.1-0.4-0.5-0.7-0.9-0.7
			c-0.7,0-1.1,0.6-1.1,1.3c0,0.7,0.4,1.3,1.1,1.3c0.4,0,0.8-0.3,1-0.8c0-0.1,0-0.2,0-0.3V1279.6z"/>
		<path class="st20" d="M922.5,1281.7l-0.1-0.4h0c-0.2,0.3-0.6,0.5-1.1,0.5c-0.7,0-1.1-0.5-1.1-1c0-0.8,0.8-1.3,2.1-1.3v-0.1
			c0-0.3-0.1-0.8-0.8-0.8c-0.3,0-0.7,0.1-0.9,0.3l-0.1-0.4c0.3-0.2,0.7-0.3,1.2-0.3c1.1,0,1.4,0.7,1.4,1.4v1.3c0,0.3,0,0.6,0.1,0.8
			H922.5z M922.4,1279.9c-0.7,0-1.5,0.1-1.5,0.8c0,0.4,0.3,0.6,0.6,0.6c0.5,0,0.8-0.3,0.9-0.6c0-0.1,0-0.1,0-0.2V1279.9z"/>
		<path class="st20" d="M926.6,1281.6c-0.2,0.1-0.5,0.2-1,0.2c-1.1,0-1.8-0.7-1.8-1.8c0-1.1,0.8-1.9,1.9-1.9c0.4,0,0.7,0.1,0.9,0.2
			l-0.1,0.5c-0.2-0.1-0.4-0.2-0.8-0.2c-0.8,0-1.3,0.6-1.3,1.3c0,0.8,0.5,1.3,1.2,1.3c0.4,0,0.6-0.1,0.8-0.2L926.6,1281.6z"/>
		<path class="st20" d="M928.1,1277.2c0,0.2-0.2,0.4-0.4,0.4c-0.2,0-0.4-0.2-0.4-0.4c0-0.2,0.2-0.4,0.4-0.4
			C927.9,1276.8,928.1,1277,928.1,1277.2 M927.4,1278.2h0.6v3.5h-0.6V1278.2z"/>
		<path class="st20" d="M932.3,1279.9c0,1.3-0.9,1.9-1.8,1.9c-1,0-1.7-0.7-1.7-1.8c0-1.2,0.8-1.9,1.8-1.9
			C931.6,1278.1,932.3,1278.9,932.3,1279.9 M929.5,1280c0,0.8,0.4,1.3,1.1,1.3c0.6,0,1.1-0.6,1.1-1.4c0-0.6-0.3-1.3-1.1-1.3
			C929.8,1278.6,929.5,1279.3,929.5,1280 M931.5,1276.7l-0.9,1h-0.5l0.6-1H931.5z"/>
		<path class="st20" d="M933.1,1279.2c0-0.4,0-0.7,0-0.9h0.6l0,0.6h0c0.2-0.3,0.6-0.7,1.2-0.7c0.5,0,1.3,0.3,1.3,1.5v2.1h-0.6v-2
			c0-0.6-0.2-1-0.8-1c-0.4,0-0.8,0.3-0.9,0.6c0,0.1,0,0.2,0,0.3v2.1h-0.6V1279.2z"/>
		<path class="st20" d="M938.8,1276.9c0.3-0.1,0.8-0.1,1.2-0.1c0.7,0,1.1,0.1,1.4,0.4c0.2,0.2,0.4,0.5,0.4,0.9
			c0,0.6-0.4,1.1-0.9,1.2v0c0.4,0.1,0.6,0.5,0.7,1c0.2,0.7,0.3,1.1,0.4,1.3h-0.7c-0.1-0.1-0.2-0.6-0.3-1.2c-0.1-0.7-0.4-0.9-1-0.9
			h-0.6v2.1h-0.6V1276.9z M939.5,1279.1h0.7c0.7,0,1.1-0.4,1.1-0.9c0-0.6-0.5-0.9-1.1-0.9c-0.3,0-0.5,0-0.6,0.1V1279.1z"/>
		<path class="st20" d="M943.2,1280.1c0,0.9,0.6,1.2,1.2,1.2c0.5,0,0.7-0.1,1-0.2l0.1,0.5c-0.2,0.1-0.6,0.2-1.2,0.2
			c-1.1,0-1.8-0.7-1.8-1.8c0-1.1,0.6-1.9,1.7-1.9c1.2,0,1.5,1,1.5,1.6c0,0.1,0,0.2,0,0.3H943.2z M945.1,1279.6c0-0.4-0.2-1-0.9-1
			c-0.7,0-0.9,0.6-1,1H945.1z"/>
		<path class="st20" d="M947.2,1277.2c0,0.2-0.2,0.4-0.4,0.4c-0.2,0-0.4-0.2-0.4-0.4c0-0.2,0.2-0.4,0.4-0.4
			C947.1,1276.8,947.2,1277,947.2,1277.2 M946.5,1278.2h0.6v3.5h-0.6V1278.2z"/>
		<path class="st20" d="M948.2,1279.2c0-0.4,0-0.7,0-0.9h0.6l0,0.6h0c0.2-0.3,0.6-0.7,1.2-0.7c0.5,0,1.3,0.3,1.3,1.5v2.1h-0.6v-2
			c0-0.6-0.2-1-0.8-1c-0.4,0-0.8,0.3-0.9,0.6c0,0.1,0,0.2,0,0.3v2.1h-0.6V1279.2z"/>
		<path class="st20" d="M954.3,1281.7l-0.1-0.4h0c-0.2,0.3-0.6,0.5-1.1,0.5c-0.7,0-1.1-0.5-1.1-1c0-0.8,0.8-1.3,2.1-1.3v-0.1
			c0-0.3-0.1-0.8-0.8-0.8c-0.3,0-0.7,0.1-0.9,0.3l-0.1-0.4c0.3-0.2,0.7-0.3,1.2-0.3c1.1,0,1.4,0.7,1.4,1.4v1.3c0,0.3,0,0.6,0.1,0.8
			H954.3z M954.2,1279.9c-0.7,0-1.5,0.1-1.5,0.8c0,0.4,0.3,0.6,0.6,0.6c0.5,0,0.8-0.3,0.9-0.6c0-0.1,0-0.1,0-0.2V1279.9z"/>
		<rect x="955.9" y="1276.6" class="st20" width="0.6" height="5.1"/>
		<path class="st20" d="M960.7,1276.6v4.2c0,0.3,0,0.7,0,0.9h-0.6l0-0.6h0c-0.2,0.4-0.6,0.7-1.2,0.7c-0.9,0-1.5-0.7-1.5-1.8
			c0-1.2,0.7-1.9,1.6-1.9c0.5,0,0.9,0.3,1.1,0.5h0v-2.1H960.7z M960,1279.6c0-0.1,0-0.2,0-0.3c-0.1-0.4-0.4-0.7-0.9-0.7
			c-0.7,0-1.1,0.6-1.1,1.3c0,0.7,0.4,1.3,1.1,1.3c0.4,0,0.8-0.3,0.9-0.8c0-0.1,0-0.2,0-0.3V1279.6z"/>
		<path class="st20" d="M965,1279.9c0,1.3-0.9,1.9-1.8,1.9c-1,0-1.7-0.7-1.7-1.8c0-1.2,0.8-1.9,1.8-1.9
			C964.3,1278.1,965,1278.9,965,1279.9 M962.2,1280c0,0.8,0.5,1.3,1.1,1.3c0.6,0,1.1-0.6,1.1-1.4c0-0.6-0.3-1.3-1.1-1.3
			S962.2,1279.3,962.2,1280"/>
		<path class="st20" d="M967.3,1280.9c0.3,0.2,0.7,0.3,1.2,0.3c0.7,0,1-0.3,1-0.8c0-0.5-0.3-0.7-0.9-1c-0.8-0.3-1.3-0.7-1.3-1.4
			c0-0.8,0.6-1.3,1.6-1.3c0.5,0,0.9,0.1,1.1,0.2l-0.2,0.5c-0.2-0.1-0.5-0.2-0.9-0.2c-0.7,0-0.9,0.4-0.9,0.7c0,0.5,0.3,0.7,1,0.9
			c0.8,0.3,1.3,0.7,1.3,1.4c0,0.7-0.6,1.4-1.7,1.4c-0.5,0-1-0.1-1.3-0.3L967.3,1280.9z"/>
		<path class="st20" d="M974.3,1279.9c0,1.3-0.9,1.9-1.8,1.9c-1,0-1.7-0.7-1.7-1.8c0-1.2,0.8-1.9,1.8-1.9
			C973.6,1278.1,974.3,1278.9,974.3,1279.9 M971.4,1280c0,0.8,0.5,1.3,1.1,1.3c0.6,0,1.1-0.6,1.1-1.4c0-0.6-0.3-1.3-1.1-1.3
			C971.8,1278.6,971.4,1279.3,971.4,1280"/>
		<rect x="975.1" y="1276.6" class="st20" width="0.6" height="5.1"/>
		<path class="st20" d="M978.8,1281.7l-0.1-0.4h0c-0.2,0.3-0.6,0.5-1.1,0.5c-0.7,0-1.1-0.5-1.1-1c0-0.8,0.8-1.3,2.1-1.3v-0.1
			c0-0.3-0.1-0.8-0.8-0.8c-0.3,0-0.7,0.1-0.9,0.3l-0.1-0.4c0.3-0.2,0.7-0.3,1.2-0.3c1.1,0,1.4,0.7,1.4,1.4v1.3c0,0.3,0,0.6,0.1,0.8
			H978.8z M978.7,1279.9c-0.7,0-1.5,0.1-1.5,0.8c0,0.4,0.3,0.6,0.6,0.6c0.5,0,0.8-0.3,0.9-0.6c0-0.1,0-0.1,0-0.2V1279.9z"/>
		<path class="st20" d="M980.4,1279.3c0-0.4,0-0.8,0-1.1h0.6l0,0.7h0c0.2-0.5,0.6-0.8,1-0.8c0.1,0,0.1,0,0.2,0v0.6
			c-0.1,0-0.1,0-0.2,0c-0.5,0-0.8,0.3-0.9,0.8c0,0.1,0,0.2,0,0.3v1.9h-0.6V1279.3z"/>
		<path class="st20" d="M983.6,1277.2c0,0.2-0.2,0.4-0.4,0.4c-0.2,0-0.4-0.2-0.4-0.4c0-0.2,0.2-0.4,0.4-0.4
			C983.4,1276.8,983.6,1277,983.6,1277.2 M982.8,1278.2h0.6v3.5h-0.6V1278.2z"/>
		<path class="st22" d="M769.8,1292.5l52.8-40c-11.8-14.4-31.3-23.9-53.3-23.9c-21.7,0-40.8,9.1-52.7,23.2L769.8,1292.5z"/>
	</g>
	<g class="st1">
		<defs>
			<path id="SVGID_21_" d="M718.6,1252.8l51.4,39.3l50.9-38.6c-11.4-13.9-30.2-23-51.5-23C748.6,1230.4,730.1,1239.2,718.6,1252.8"
				/>
		</defs>
		<clipPath id="SVGID_22_">
			<use xlink:href="#SVGID_21_"  style="overflow:visible;"/>
		</clipPath>
		
			<radialGradient id="SVGID_23_" cx="233.8115" cy="1077.4929" r="1.7324" gradientTransform="matrix(-0.6256 23.6593 -24.2409 -0.6106 27039.3906 -3632.4429)" gradientUnits="userSpaceOnUse">
			<stop  offset="0" style="stop-color:#CDD74E"/>
			<stop  offset="0.158" style="stop-color:#CDD74E"/>
			<stop  offset="1" style="stop-color:#769034"/>
		</radialGradient>
		<polygon class="st23" points="718.7,1227.8 717,1292 820.9,1294.6 822.6,1230.4 		"/>
	</g>
	<g class="st1">
		<defs>
			<path id="SVGID_24_" d="M759.1,1211l-0.3,0.8l-34.4,0.2l0.1,0.1h-0.1l25.3,19.1c0,0,0,0,0.1,0l0.3,0.2l-9.5,32.8l28.2-18.5
				l29.9,18.4l-11.2-33l26-19h-0.1l0.1,0l-35.3-0.4l-0.4-1.1l-8.7-27.5L759.1,1211z"/>
		</defs>
		<clipPath id="SVGID_25_">
			<use xlink:href="#SVGID_24_"  style="overflow:visible;"/>
		</clipPath>
		
			<linearGradient id="SVGID_26_" gradientUnits="userSpaceOnUse" x1="228.8121" y1="1079.7107" x2="230.5446" y2="1079.7107" gradientTransform="matrix(-0.2783 43.7312 -44.8061 -0.2716 49210.6094 -8527.7939)">
			<stop  offset="0" style="stop-color:#5F7DBB"/>
			<stop  offset="0.3417" style="stop-color:#5F7DBB"/>
			<stop  offset="0.6324" style="stop-color:#4E619F"/>
			<stop  offset="0.9532" style="stop-color:#3C395E"/>
			<stop  offset="1" style="stop-color:#3C395E"/>
		</linearGradient>
		<polygon class="st24" points="724.4,1182.5 723.9,1264.2 813.7,1264.7 814.2,1183 		"/>
	</g>
	<polygon class="st7" points="773.7,1295.1 771.6,1293.7 818.9,1256.9 776,1295.1 	"/>
	<polygon class="st8" points="712.5,1258.6 715.7,1253.2 763.5,1289.3 	"/>
	<g class="st1">
		<defs>
			<rect id="SVGID_27_" x="708.8" y="1183" width="278.9" height="112.1"/>
		</defs>
		<clipPath id="SVGID_28_">
			<use xlink:href="#SVGID_27_"  style="overflow:visible;"/>
		</clipPath>
		<path class="st25" d="M789.9,1230.4c0,0,20.4,5.7,33.7,20.4l3.9-2.6c0,0-11.7-12.7-34.9-19.6L789.9,1230.4z"/>
		<path class="st26" d="M745.4,1228.8c0,0-26.3,7.7-36.6,27.1l2.4,1.6c0,0,10.3-19.8,36.6-27L745.4,1228.8z"/>
	</g>
	<g class="st1">
		<text transform="matrix(1 0 0 1 101.6816 403.9619)" class="st15 st27 st28">LA CIENCIA </text>
	</g>
	<line class="st29" x1="101.9" y1="546.9" x2="715.8" y2="546.9"/>
	<g class="st1">
		<text transform="matrix(1 0 0 1 98.2168 616.8193)" class="st15 st18 st30">01 de marzo de 2019</text>
	</g>
	<g class="st1">
		<text transform="matrix(1 0 0 1 100.21 1209.9619)"><tspan x="0" y="0" class="st15 st18 st31">D</tspan><tspan x="20.4" y="0" class="st15 st18 st31">ocumen</tspan><tspan x="124.8" y="0" class="st15 st18 st31">t</tspan><tspan x="134.3" y="0" class="st15 st18 st31">o o</tspan><tspan x="174.3" y="0" class="st15 st18 st31">r</tspan><tspan x="183.7" y="0" class="st15 st18 st31">i</tspan><tspan x="190.2" y="0" class="st15 st18 st31">g</tspan><tspan x="207" y="0" class="st15 st18 st31">inal de </tspan></text>
	</g>
	<g class="st1">
		<text transform="matrix(1 0 0 1 98.2178 498.6133)" class="st32 st27 st33">DEL APRENDIZAJE </text>
	</g>
	<g class="st1">
		<defs>
			<rect id="SVGID_29_" x="100.2" y="1239" width="355.7" height="55.8"/>
		</defs>
		<clipPath id="SVGID_30_">
			<use xlink:href="#SVGID_29_"  style="overflow:visible;"/>
		</clipPath>
		<path class="st34" d="M121.9,1287.7v-14h-3.2v11.7c-1-0.6-2-1.2-3-1.7v-24.9c0.8,0.9,2.3,1.2,3.4,1.3c1.8,0.2,3.7,0.3,5.6,0.2
			c1.8,0,3.7-0.1,5.6-0.4c1.1-0.2,2.6-0.4,3.4-1.3v0.6v0v24.5c-1.1,0.5-2.1,1.1-3,1.7v-19.3h-3.2v21.6c-0.4,0.3-0.8,0.7-1.2,1v-18.8
			h-3.2v18.8C122.7,1288.4,122.3,1288,121.9,1287.7"/>
		<path class="st34" d="M146.2,1284.1c-7.3-0.1-14.9,2.7-21.5,10.6c-6.6-8-14.3-10.8-21.5-10.6v-2.1c8.3-0.1,15.6,3.4,21.5,9.7
			c5.9-6.3,13.2-9.8,21.5-9.7V1284.1z"/>
		<path class="st35" d="M102.2,1284.2c-0.7,0-1.3,0.1-1.9,0.2l0-29c3.2-0.1,10.2,1.5,14.4,2.9v2.6c-4-1.4-9.8-3-12.5-3l0,21.8h0v1.3
			l0,1.2h0V1284.2z"/>
		<path class="st35" d="M134.7,1258.3c4.3-1.4,11.2-3,14.4-2.9l0,29c-0.6-0.1-1.3-0.1-1.9-0.2v-2.1l0,0l0-2.5v-0.1l0-21.7
			c-2.7,0-8.5,1.6-12.5,3V1258.3z"/>
		<path class="st35" d="M119.1,1257.5l-3.6-4l8.5-14.4l0.2,10.2c-0.6,0.2-1,0.7-1,1.3c0,0.8,0.6,1.4,1.4,1.4c0.8,0,1.4-0.6,1.4-1.4
			c0-0.6-0.4-1.2-1-1.3l-0.2-10.2l9.2,14.2l-3.4,4.1c1.5,0.2,2.5,0.5,2.5,0.8c0,0.6-3.6,1.2-8.2,1.2c-4.5,0.1-8.2-0.4-8.2-1
			C116.6,1258,117.6,1257.7,119.1,1257.5"/>
		<path class="st34" d="M172.2,1275.9h2.5c3.9,0,4.5-3.2,4.5-5.1c0-1.3-0.4-4.9-5-4.9h-2V1275.9z M165.9,1260.7h10.4
			c6.8,0,9.2,5.1,9.2,10.2c0,6.3-3.3,10.3-10.5,10.3h-9.1V1260.7z"/>
	</g>
	<polygon class="st36" points="189.3,1260.7 206.2,1260.7 206.2,1266 195.6,1266 195.6,1268.5 205.2,1268.5 205.2,1273.4 
		195.6,1273.4 195.6,1275.9 206.5,1275.9 206.5,1281.2 189.3,1281.2 	"/>
	<path class="st36" d="M221.1,1273.9l-1.8-6.3h-0.1l-2,6.3H221.1z M216.1,1260.7h6.2l7.5,20.5h-6.5l-0.9-2.9h-6.5l-0.9,2.9h-6.3
		L216.1,1260.7z"/>
	<polygon class="st36" points="232.2,1260.7 238.7,1260.7 244.6,1271.7 244.7,1271.7 244.7,1260.7 250.7,1260.7 250.7,1281.2 
		244.5,1281.2 238.2,1270 238.2,1270 238.2,1281.2 232.2,1281.2 	"/>
	<g class="st1">
		<defs>
			<rect id="SVGID_31_" x="100.2" y="1239" width="355.7" height="55.8"/>
		</defs>
		<clipPath id="SVGID_32_">
			<use xlink:href="#SVGID_31_"  style="overflow:visible;"/>
		</clipPath>
		<path class="st37" d="M260,1274.3c0,0.5,0.1,1,0.2,1.3c0.5,1.2,1.8,1.5,3,1.5c1,0,2.6-0.3,2.6-1.9c0-1.1-0.9-1.3-4.4-2.4
			c-3.2-0.9-6.9-1.8-6.9-5.9c0-4.7,4-6.8,8.3-6.8c4.4,0,8.4,1.7,8.6,6.7h-6c0.1-0.8-0.2-1.3-0.7-1.6c-0.5-0.4-1.2-0.5-1.9-0.5
			c-0.9,0-2.3,0.2-2.3,1.4c0.1,1.5,3,1.8,5.9,2.6c2.9,0.8,5.8,2.2,5.8,5.9c0,5.3-4.9,7.1-9.5,7.1c-2.3,0-9-0.8-9-7.4H260z"/>
	</g>
	<polygon class="st36" points="285.1,1260.4 294.8,1260.4 294.8,1263.7 289,1263.7 289,1265.2 294,1265.2 294,1268.2 289,1268.2 
		289,1273 285.1,1273 	"/>
	<g class="st1">
		<defs>
			<rect id="SVGID_33_" x="100.2" y="1239" width="355.7" height="55.8"/>
		</defs>
		<clipPath id="SVGID_34_">
			<use xlink:href="#SVGID_33_"  style="overflow:visible;"/>
		</clipPath>
		<path class="st38" d="M302.8,1270.2c1,0,2.5-0.7,2.5-3.4c0-2.8-1.5-3.4-2.5-3.4s-2.5,0.6-2.5,3.4
			C300.3,1269.5,301.8,1270.2,302.8,1270.2 M302.8,1260.1c3.8,0,6.4,2.7,6.4,6.6c0,3.8-2.5,6.6-6.4,6.6c-3.8,0-6.4-2.7-6.4-6.6
			C296.4,1262.9,299,1260.1,302.8,1260.1"/>
		<path class="st38" d="M315.2,1265.9h2c0.7,0,1.7-0.1,1.7-1.2c0-0.8-0.4-1.2-1.9-1.2h-1.8V1265.9z M311.4,1260.4h7.4
			c2.2,0,4.1,1.2,4.1,3.6c0,1.3-0.6,2.7-1.9,3.1c1.1,0.4,1.7,1.6,1.8,3.1c0.1,0.6,0.1,2.1,0.4,2.7h-3.9c-0.2-0.6-0.3-1.3-0.3-1.9
			c-0.1-1.2-0.2-2.4-1.7-2.4h-2.1v4.4h-3.9V1260.4z"/>
	</g>
	<rect x="336.2" y="1260.7" class="st36" width="6.3" height="20.5"/>
	<polygon class="st36" points="347.4,1260.7 356.3,1260.7 359.3,1272.8 359.3,1272.8 362.2,1260.7 371.2,1260.7 371.2,1281.2 
		365.3,1281.2 365.3,1268 365.2,1268 361.6,1281.2 356.9,1281.2 353.4,1268 353.3,1268 353.3,1281.2 347.4,1281.2 	"/>
	<g class="st1">
		<defs>
			<rect id="SVGID_35_" x="100.2" y="1239" width="355.7" height="55.8"/>
		</defs>
		<clipPath id="SVGID_36_">
			<use xlink:href="#SVGID_35_"  style="overflow:visible;"/>
		</clipPath>
		<path class="st39" d="M382.4,1270.1h2.4c1.6,0,3.4-0.1,3.4-2.2c0-1.9-1.4-2-3-2h-2.8V1270.1z M376.1,1260.7h10.6
			c5.6,0,7.5,4.1,7.5,7c0,5-3.3,7.3-8,7.3h-3.7v6.2h-6.3V1260.7z"/>
	</g>
	<path class="st36" d="M406.2,1273.9l-1.8-6.3h-0.1l-2,6.3H406.2z M401.2,1260.7h6.2l7.5,20.5h-6.5l-0.9-2.9h-6.5l-0.9,2.9h-6.3
		L401.2,1260.7z"/>
	<g class="st1">
		<defs>
			<rect id="SVGID_37_" x="100.2" y="1239" width="355.7" height="55.8"/>
		</defs>
		<clipPath id="SVGID_38_">
			<use xlink:href="#SVGID_37_"  style="overflow:visible;"/>
		</clipPath>
		<path class="st40" d="M429.6,1268.3c-0.1-0.7-0.7-3-3.3-3c-3,0-3.9,2.9-3.9,5.6c0,2.8,0.9,5.6,3.9,5.6c2.1,0,3-1.5,3.3-3.4h6.2
			c0,4.1-3.4,8.5-9.4,8.5c-6.6,0-10.4-4.7-10.4-10.7c0-6.5,4.1-10.7,10.4-10.7c5.6,0,8.7,3,9.3,8.1H429.6z"/>
	</g>
	<polygon class="st36" points="438.1,1260.7 438.1,1266 443.8,1266 443.8,1281.2 450.2,1281.2 450.2,1266 455.9,1266 455.9,1260.7 	
		"/>
	<rect x="285.1" y="1277.4" class="st36" width="38.1" height="3.8"/>
	<g class="st1">
		<text transform="matrix(1 0 0 1 103.1689 303.7334)"><tspan x="0" y="0" class="st15 st41 st19">Seri</tspan><tspan x="60.3" y="0" class="st15 st41 st19">e</tspan><tspan x="78.8" y="0" class="st15 st41 st19">: ¿Cómo Aprenden los Niños?</tspan></text>
	</g>
</g>
</svg>
