<?xml version="1.0" encoding="utf-8"?>
<!-- Generator: Adobe Illustrator 21.0.0, SVG Export Plug-In . SVG Version: 6.00 Build 0)  -->
<svg version="1.1" id="Capa_1" xmlns="http://www.w3.org/2000/svg" xmlns:xlink="http://www.w3.org/1999/xlink" x="0px" y="0px"
	 viewBox="0 0 1057.5 1372.1" style="enable-background:new 0 0 1057.5 1372.1;" xml:space="preserve">
<style type="text/css">
	.st0{clip-path:url(#SVGID_2_);}
	.st1{clip-path:url(#SVGID_4_);fill:#1A1413;}
	.st2{clip-path:url(#SVGID_4_);fill:#0080BA;}
	.st3{clip-path:url(#SVGID_4_);fill-rule:evenodd;clip-rule:evenodd;fill:#CBD74B;}
	.st4{clip-path:url(#SVGID_6_);fill:url(#SVGID_7_);}
	.st5{clip-path:url(#SVGID_9_);fill:url(#SVGID_10_);}
	.st6{clip-path:url(#SVGID_2_);fill:#26B7CF;}
	.st7{clip-path:url(#SVGID_2_);fill:#E3D06B;}
	.st8{clip-path:url(#SVGID_12_);fill:#E18924;}
	.st9{clip-path:url(#SVGID_12_);fill:#993A8B;}
	.st10{opacity:0.1;clip-path:url(#SVGID_14_);}
	.st11{clip-path:url(#SVGID_16_);fill:#191413;}
	.st12{clip-path:url(#SVGID_16_);}
	.st13{clip-path:url(#SVGID_18_);fill-rule:evenodd;clip-rule:evenodd;fill:#191413;}
	.st14{fill:#1D1D1B;}
	.st15{clip-path:url(#SVGID_20_);fill:#1A1413;}
	.st16{clip-path:url(#SVGID_20_);fill:#0080BA;}
	.st17{clip-path:url(#SVGID_20_);fill-rule:evenodd;clip-rule:evenodd;fill:#CBD74B;}
	.st18{clip-path:url(#SVGID_22_);fill:url(#SVGID_23_);}
	.st19{clip-path:url(#SVGID_25_);fill:url(#SVGID_26_);}
	.st20{clip-path:url(#SVGID_28_);fill:#E18924;}
	.st21{clip-path:url(#SVGID_28_);fill:#993A8B;}
	.st22{fill:#00B4EC;}
	.st23{clip-path:url(#SVGID_30_);fill:#1B3660;}
	.st24{clip-path:url(#SVGID_30_);fill:#99999E;}
	.st25{clip-path:url(#SVGID_2_);fill:#1B3660;}
	.st26{clip-path:url(#SVGID_32_);fill:#1B3660;}
	.st27{clip-path:url(#SVGID_34_);fill:#1B3660;}
	.st28{clip-path:url(#SVGID_36_);fill:#1B3660;}
	.st29{clip-path:url(#SVGID_38_);fill:#1B3660;}
</style>
<g>
	<defs>
		<rect id="SVGID_1_" width="1057.5" height="1368.5"/>
	</defs>
	<clipPath id="SVGID_2_">
		<use xlink:href="#SVGID_1_"  style="overflow:visible;"/>
	</clipPath>
	<g class="st0">
		<defs>
			<rect id="SVGID_3_" x="706.9" y="1179.9" width="278.2" height="111.8"/>
		</defs>
		<clipPath id="SVGID_4_">
			<use xlink:href="#SVGID_3_"  style="overflow:visible;"/>
		</clipPath>
		<path class="st1" d="M848.9,1229.6l-4.1,12h-5.2l13.3-38.1h6.1l13.3,38.1h-5.4l-4.2-12H848.9z M861.7,1225.8l-3.8-11
			c-0.9-2.5-1.4-4.7-2-7h-0.1c-0.6,2.3-1.2,4.6-2,6.9l-3.8,11H861.7z"/>
		<path class="st1" d="M877.6,1223.2c0-3.5-0.1-6.3-0.2-8.9h4.6l0.2,4.7h0.1c2.1-3.3,5.4-5.3,10-5.3c6.8,0,11.9,5.6,11.9,13.9
			c0,9.8-6.1,14.7-12.7,14.7c-3.7,0-7-1.6-8.6-4.3h-0.1v14.9h-5V1223.2z M882.7,1230.4c0,0.7,0.1,1.4,0.2,2c0.9,3.4,4,5.8,7.6,5.8
			c5.4,0,8.5-4.3,8.5-10.6c0-5.5-3-10.2-8.3-10.2c-3.5,0-6.7,2.4-7.7,6.2c-0.2,0.6-0.3,1.4-0.3,2V1230.4z"/>
		<path class="st1" d="M916.7,1206.4v7.9h7.3v3.8h-7.3v14.8c0,3.4,1,5.3,3.8,5.3c1.3,0,2.3-0.2,3-0.3l0.2,3.7
			c-1,0.4-2.5,0.7-4.5,0.7c-2.4,0-4.3-0.7-5.5-2.1c-1.4-1.5-2-3.9-2-7.1V1218h-4.3v-3.8h4.3v-6.6L916.7,1206.4z"/>
		<path class="st1" d="M953.2,1234.1c0,2.8,0.1,5.3,0.2,7.5h-4.5l-0.3-4.5h-0.1c-1.3,2.2-4.3,5.1-9.3,5.1c-4.4,0-9.7-2.4-9.7-12v-16
			h5.1v15.2c0,5.2,1.6,8.7,6.3,8.7c3.4,0,5.8-2.3,6.7-4.5c0.3-0.7,0.5-1.6,0.5-2.5v-16.8h5.1V1234.1z"/>
		<path class="st1" d="M961,1236.5c1.5,1,4.2,2,6.7,2c3.7,0,5.4-1.8,5.4-4.1c0-2.4-1.4-3.7-5.2-5c-5-1.8-7.4-4.5-7.4-7.7
			c0-4.4,3.6-8,9.7-8c2.8,0,5.3,0.8,6.9,1.7l-1.3,3.6c-1.1-0.7-3.1-1.6-5.7-1.6c-3,0-4.7,1.7-4.7,3.7c0,2.3,1.7,3.3,5.3,4.6
			c4.9,1.8,7.4,4.2,7.4,8.3c0,4.8-3.8,8.2-10.5,8.2c-3.1,0-5.9-0.7-7.9-1.9L961,1236.5z"/>
		<path class="st1" d="M837.5,1255.5c0.5-0.1,1.1-0.1,1.8-0.1c0.9,0,1.6,0.2,2.1,0.6c0.4,0.3,0.6,0.9,0.6,1.5c0,0.7-0.2,1.2-0.6,1.5
			c-0.5,0.5-1.3,0.8-2.3,0.8c-0.3,0-0.5,0-0.8-0.1v2.9h-1V1255.5z M838.4,1259c0.2,0.1,0.5,0.1,0.8,0.1c1.2,0,1.9-0.5,1.9-1.5
			c0-1-0.7-1.4-1.7-1.4c-0.4,0-0.7,0-0.9,0.1V1259z"/>
		<path class="st1" d="M849.6,1258.9c0,2.5-1.5,3.8-3.4,3.8c-2,0-3.3-1.5-3.3-3.7c0-2.3,1.5-3.8,3.4-3.8
			C848.3,1255.3,849.6,1256.8,849.6,1258.9 M843.9,1259c0,1.5,0.9,2.9,2.4,2.9c1.5,0,2.4-1.4,2.4-3c0-1.4-0.8-2.9-2.4-2.9
			C844.7,1256,843.9,1257.5,843.9,1259"/>
		<polygon class="st1" points="852,1256.2 849.7,1256.2 849.7,1255.4 855.2,1255.4 855.2,1256.2 853,1256.2 853,1262.6 852,1262.6 
					"/>
		<polygon class="st1" points="859.9,1259.2 857,1259.2 857,1261.8 860.2,1261.8 860.2,1262.6 856,1262.6 856,1255.4 860,1255.4 
			860,1256.2 857,1256.2 857,1258.5 859.9,1258.5 		"/>
		<path class="st1" d="M861.4,1262.6v-7.2h1l2.4,3.7c0.5,0.8,1,1.6,1.3,2.3l0,0c-0.1-1-0.1-1.8-0.1-3v-3h0.9v7.2h-1l-2.3-3.7
			c-0.5-0.8-1-1.6-1.4-2.4l0,0c0.1,0.9,0.1,1.8,0.1,3v3.1H861.4z"/>
		<path class="st1" d="M873.8,1262.4c-0.4,0.2-1.1,0.3-2,0.3c-2.1,0-3.7-1.3-3.7-3.7c0-2.3,1.6-3.8,3.9-3.8c0.9,0,1.5,0.2,1.8,0.3
			l-0.2,0.8c-0.4-0.2-0.9-0.3-1.5-0.3c-1.7,0-2.9,1.1-2.9,3c0,1.8,1,2.9,2.8,2.9c0.6,0,1.2-0.1,1.6-0.3L873.8,1262.4z"/>
		<rect x="875" y="1255.4" class="st1" width="1" height="7.2"/>
		<path class="st1" d="M878.9,1260.3l-0.8,2.3h-1l2.5-7.2h1.2l2.5,7.2h-1l-0.8-2.3H878.9z M881.3,1259.6l-0.7-2.1
			c-0.2-0.5-0.3-0.9-0.4-1.3h0c-0.1,0.4-0.2,0.9-0.4,1.3l-0.7,2.1H881.3z"/>
		<path class="st1" d="M884.4,1255.5c0.6-0.1,1.3-0.2,2-0.2c1.4,0,2.3,0.3,3,0.9c0.7,0.6,1,1.4,1,2.6c0,1.2-0.4,2.1-1.1,2.8
			c-0.7,0.7-1.8,1-3.3,1c-0.7,0-1.3,0-1.7-0.1V1255.5z M885.3,1261.9c0.2,0,0.6,0.1,1,0.1c2,0,3.2-1.1,3.2-3.1c0-1.7-1-2.8-3-2.8
			c-0.5,0-0.9,0-1.1,0.1V1261.9z"/>
		<path class="st1" d="M898,1258.9c0,2.5-1.5,3.8-3.4,3.8c-2,0-3.3-1.5-3.3-3.7c0-2.3,1.5-3.8,3.4-3.8
			C896.7,1255.3,898,1256.8,898,1258.9 M892.3,1259c0,1.5,0.9,2.9,2.4,2.9c1.5,0,2.4-1.4,2.4-3c0-1.4-0.8-2.9-2.4-2.9
			C893.1,1256,892.3,1257.5,892.3,1259"/>
		<path class="st1" d="M899.3,1255.5c0.5-0.1,1.2-0.2,1.8-0.2c1,0,1.7,0.2,2.1,0.6c0.4,0.3,0.6,0.8,0.6,1.4c0,1-0.6,1.6-1.4,1.8v0
			c0.6,0.2,0.9,0.7,1.1,1.5c0.2,1,0.4,1.7,0.6,2h-1c-0.1-0.2-0.3-0.8-0.5-1.7c-0.2-1-0.6-1.4-1.5-1.4h-0.9v3.1h-1V1255.5z
			 M900.2,1258.8h1c1,0,1.7-0.5,1.7-1.4c0-0.9-0.7-1.3-1.7-1.3c-0.5,0-0.8,0-0.9,0.1V1258.8z"/>
		<path class="st1" d="M906.4,1260.3l-0.8,2.3h-1l2.5-7.2h1.2l2.5,7.2h-1l-0.8-2.3H906.4z M908.8,1259.6l-0.7-2.1
			c-0.2-0.5-0.3-0.9-0.4-1.3h0c-0.1,0.4-0.2,0.9-0.4,1.3l-0.7,2.1H908.8z"/>
		<polygon class="st1" points="918.1,1259.2 915.2,1259.2 915.2,1261.8 918.4,1261.8 918.4,1262.6 914.3,1262.6 914.3,1255.4 
			918.3,1255.4 918.3,1256.2 915.2,1256.2 915.2,1258.5 918.1,1258.5 		"/>
		<path class="st1" d="M919.7,1255.5c0.6-0.1,1.3-0.2,2-0.2c1.4,0,2.3,0.3,3,0.9c0.7,0.6,1,1.4,1,2.6c0,1.2-0.4,2.1-1.1,2.8
			c-0.7,0.7-1.8,1-3.3,1c-0.7,0-1.3,0-1.7-0.1V1255.5z M920.6,1261.9c0.2,0,0.6,0.1,1,0.1c2,0,3.2-1.1,3.2-3.1c0-1.7-1-2.8-3-2.8
			c-0.5,0-0.9,0-1.1,0.1V1261.9z"/>
		<path class="st1" d="M927.9,1255.4v4.3c0,1.6,0.7,2.3,1.7,2.3c1.1,0,1.8-0.7,1.8-2.3v-4.3h1v4.2c0,2.2-1.2,3.1-2.8,3.1
			c-1.5,0-2.7-0.8-2.7-3.1v-4.3H927.9z"/>
		<path class="st1" d="M939.3,1262.4c-0.4,0.2-1.1,0.3-2,0.3c-2.1,0-3.7-1.3-3.7-3.7c0-2.3,1.6-3.8,3.9-3.8c0.9,0,1.5,0.2,1.8,0.3
			l-0.2,0.8c-0.4-0.2-0.9-0.3-1.5-0.3c-1.7,0-2.9,1.1-2.9,3c0,1.8,1,2.9,2.8,2.9c0.6,0,1.2-0.1,1.6-0.3L939.3,1262.4z"/>
		<path class="st1" d="M941.7,1260.3l-0.8,2.3h-1l2.5-7.2h1.2l2.5,7.2h-1l-0.8-2.3H941.7z M944.1,1259.6l-0.7-2.1
			c-0.2-0.5-0.3-0.9-0.4-1.3h0c-0.1,0.4-0.2,0.9-0.4,1.3l-0.7,2.1H944.1z"/>
		<path class="st1" d="M952.2,1262.4c-0.4,0.2-1.1,0.3-2,0.3c-2.1,0-3.7-1.3-3.7-3.7c0-2.3,1.6-3.8,3.9-3.8c0.9,0,1.5,0.2,1.8,0.3
			l-0.2,0.8c-0.4-0.2-0.9-0.3-1.5-0.3c-1.7,0-2.9,1.1-2.9,3c0,1.8,1,2.9,2.8,2.9c0.6,0,1.2-0.1,1.6-0.3L952.2,1262.4z"/>
		<rect x="953.4" y="1255.4" class="st1" width="1" height="7.2"/>
		<path class="st1" d="M962.4,1258.9c0,2.5-1.5,3.8-3.4,3.8c-2,0-3.3-1.5-3.3-3.7c0-2.3,1.5-3.8,3.4-3.8
			C961.1,1255.3,962.4,1256.8,962.4,1258.9 M956.6,1259c0,1.5,0.9,2.9,2.4,2.9c1.5,0,2.4-1.4,2.4-3c0-1.4-0.8-2.9-2.4-2.9
			C957.4,1256,956.6,1257.5,956.6,1259"/>
		<path class="st1" d="M963.6,1262.6v-7.2h1l2.4,3.7c0.5,0.8,1,1.6,1.3,2.3l0,0c-0.1-1-0.1-1.8-0.1-3v-3h0.9v7.2h-1l-2.3-3.7
			c-0.5-0.8-1-1.6-1.4-2.4l0,0c0.1,0.9,0.1,1.8,0.1,3v3.1H963.6z"/>
		<path class="st1" d="M972,1260.3l-0.8,2.3h-1l2.5-7.2h1.2l2.5,7.2h-1l-0.8-2.3H972z M974.5,1259.6l-0.7-2.1
			c-0.2-0.5-0.3-0.9-0.4-1.3h0c-0.1,0.4-0.2,0.9-0.4,1.3l-0.7,2.1H974.5z"/>
		<polygon class="st1" points="977.6,1255.4 978.5,1255.4 978.5,1261.8 981.7,1261.8 981.7,1262.6 977.6,1262.6 		"/>
		<rect x="832.5" y="1266.5" class="st2" width="153.4" height="0.5"/>
		<path class="st1" d="M837.6,1277.6c0.3,0.2,0.7,0.3,1.1,0.3c0.7,0,1-0.3,1-0.8c0-0.5-0.3-0.7-0.9-1c-0.8-0.3-1.3-0.7-1.3-1.4
			c0-0.8,0.6-1.3,1.6-1.3c0.5,0,0.9,0.1,1.1,0.2l-0.2,0.5c-0.2-0.1-0.5-0.2-0.9-0.2c-0.7,0-0.9,0.4-0.9,0.7c0,0.5,0.3,0.7,1,0.9
			c0.8,0.3,1.3,0.7,1.3,1.4c0,0.7-0.6,1.4-1.7,1.4c-0.5,0-1-0.1-1.3-0.3L837.6,1277.6z"/>
		<rect x="841.3" y="1273.5" class="st1" width="0.6" height="4.8"/>
		<path class="st1" d="M843,1273.6c0.3,0,0.7-0.1,1.2-0.1c0.6,0,1.1,0.1,1.4,0.4c0.3,0.2,0.4,0.6,0.4,1c0,0.4-0.1,0.8-0.4,1
			c-0.3,0.4-0.9,0.5-1.5,0.5c-0.2,0-0.4,0-0.5,0v1.9H843V1273.6z M843.7,1275.9c0.1,0,0.3,0.1,0.5,0.1c0.8,0,1.2-0.4,1.2-1
			c0-0.6-0.5-0.9-1.2-0.9c-0.3,0-0.5,0-0.6,0.1V1275.9z"/>
		<path class="st1" d="M848.5,1273.6c0.3-0.1,0.8-0.1,1.2-0.1c0.7,0,1.1,0.1,1.4,0.4c0.2,0.2,0.4,0.5,0.4,0.9c0,0.6-0.4,1.1-0.9,1.2
			v0c0.4,0.1,0.6,0.5,0.7,1c0.2,0.7,0.3,1.1,0.4,1.3h-0.7c-0.1-0.1-0.2-0.6-0.3-1.2c-0.1-0.7-0.4-0.9-1-0.9h-0.6v2.1h-0.6V1273.6z
			 M849.1,1275.8h0.7c0.7,0,1.1-0.4,1.1-0.9c0-0.6-0.5-0.9-1.1-0.9c-0.3,0-0.5,0-0.6,0.1V1275.8z"/>
		<path class="st1" d="M852.8,1276.7c0,0.9,0.6,1.2,1.2,1.2c0.5,0,0.7-0.1,1-0.2l0.1,0.5c-0.2,0.1-0.6,0.2-1.2,0.2
			c-1.1,0-1.8-0.7-1.8-1.8s0.6-1.9,1.7-1.9c1.2,0,1.5,1,1.5,1.6c0,0.1,0,0.2,0,0.3H852.8z M854.7,1276.3c0-0.4-0.2-1-0.9-1
			c-0.7,0-0.9,0.6-1,1H854.7z"/>
		<path class="st1" d="M859.2,1273.3v4.2c0,0.3,0,0.7,0,0.9h-0.6l0-0.6h0c-0.2,0.4-0.6,0.7-1.2,0.7c-0.9,0-1.5-0.7-1.5-1.8
			c0-1.2,0.7-1.9,1.6-1.9c0.5,0,0.9,0.3,1.1,0.5h0v-2.1H859.2z M858.6,1276.3c0-0.1,0-0.2,0-0.3c-0.1-0.4-0.4-0.7-0.9-0.7
			c-0.7,0-1.1,0.6-1.1,1.3c0,0.7,0.4,1.3,1.1,1.3c0.4,0,0.8-0.3,0.9-0.8c0-0.1,0-0.2,0-0.3V1276.3z"/>
		<path class="st1" d="M864.9,1273.3v4.2c0,0.3,0,0.7,0,0.9h-0.6l0-0.6h0c-0.2,0.4-0.6,0.7-1.2,0.7c-0.9,0-1.5-0.7-1.5-1.8
			c0-1.2,0.7-1.9,1.6-1.9c0.5,0,0.9,0.3,1.1,0.5h0v-2.1H864.9z M864.3,1276.3c0-0.1,0-0.2,0-0.3c-0.1-0.4-0.4-0.7-0.9-0.7
			c-0.7,0-1.1,0.6-1.1,1.3c0,0.7,0.4,1.3,1.1,1.3c0.4,0,0.8-0.3,0.9-0.8c0-0.1,0-0.2,0-0.3V1276.3z"/>
		<path class="st1" d="M866.4,1276.7c0,0.9,0.6,1.2,1.2,1.2c0.5,0,0.7-0.1,1-0.2l0.1,0.5c-0.2,0.1-0.6,0.2-1.2,0.2
			c-1.1,0-1.8-0.7-1.8-1.8s0.6-1.9,1.7-1.9c1.2,0,1.5,1,1.5,1.6c0,0.1,0,0.2,0,0.3H866.4z M868.3,1276.3c0-0.4-0.2-1-0.9-1
			c-0.7,0-0.9,0.6-1,1H868.3z"/>
		<path class="st1" d="M874.7,1278.2c-0.2,0.1-0.7,0.2-1.3,0.2c-1.4,0-2.5-0.9-2.5-2.5c0-1.5,1.1-2.5,2.6-2.5c0.6,0,1,0.1,1.2,0.2
			l-0.2,0.5c-0.2-0.1-0.6-0.2-1-0.2c-1.2,0-1.9,0.7-1.9,2c0,1.2,0.7,1.9,1.9,1.9c0.4,0,0.8-0.1,1-0.2L874.7,1278.2z"/>
		<path class="st1" d="M878.7,1276.6c0,1.3-0.9,1.8-1.8,1.8c-1,0-1.7-0.7-1.7-1.8c0-1.2,0.8-1.8,1.8-1.8
			C878,1274.8,878.7,1275.5,878.7,1276.6 M875.8,1276.6c0,0.8,0.4,1.3,1.1,1.3c0.6,0,1.1-0.6,1.1-1.3c0-0.6-0.3-1.3-1.1-1.3
			C876.2,1275.3,875.8,1276,875.8,1276.6"/>
		<rect x="879.5" y="1273.3" class="st1" width="0.6" height="5.1"/>
		<path class="st1" d="M881.6,1276.7c0,0.9,0.6,1.2,1.2,1.2c0.5,0,0.7-0.1,1-0.2l0.1,0.5c-0.2,0.1-0.6,0.2-1.2,0.2
			c-1.1,0-1.8-0.7-1.8-1.8s0.6-1.9,1.7-1.9c1.2,0,1.5,1,1.5,1.6c0,0.1,0,0.2,0,0.3H881.6z M883.5,1276.3c0-0.4-0.2-1-0.9-1
			c-0.7,0-0.9,0.6-1,1H883.5z"/>
		<path class="st1" d="M888,1274.9c0,0.3,0,0.5,0,1v2c0,0.8-0.2,1.3-0.5,1.6c-0.3,0.3-0.8,0.4-1.3,0.4c-0.4,0-0.9-0.1-1.2-0.3
			l0.2-0.5c0.2,0.1,0.6,0.3,1,0.3c0.7,0,1.1-0.3,1.1-1.2v-0.4h0c-0.2,0.3-0.6,0.6-1.1,0.6c-0.9,0-1.5-0.7-1.5-1.7
			c0-1.2,0.8-1.8,1.6-1.8c0.6,0,1,0.3,1.1,0.6h0l0-0.5H888z M887.3,1276.3c0-0.1,0-0.2,0-0.3c-0.1-0.4-0.4-0.7-0.9-0.7
			c-0.6,0-1.1,0.5-1.1,1.3c0,0.7,0.4,1.2,1.1,1.2c0.4,0,0.8-0.2,0.9-0.6c0-0.1,0.1-0.2,0.1-0.3V1276.3z"/>
		<path class="st1" d="M889.7,1273.9c0,0.2-0.2,0.4-0.4,0.4c-0.2,0-0.4-0.2-0.4-0.4c0-0.2,0.2-0.4,0.4-0.4
			C889.5,1273.5,889.7,1273.7,889.7,1273.9 M889,1274.9h0.6v3.5H889V1274.9z"/>
		<path class="st1" d="M893.9,1276.6c0,1.3-0.9,1.8-1.8,1.8c-1,0-1.7-0.7-1.7-1.8c0-1.2,0.8-1.8,1.8-1.8
			C893.2,1274.8,893.9,1275.5,893.9,1276.6 M891.1,1276.6c0,0.8,0.4,1.3,1.1,1.3c0.6,0,1.1-0.6,1.1-1.3c0-0.6-0.3-1.3-1.1-1.3
			C891.4,1275.3,891.1,1276,891.1,1276.6"/>
		<path class="st1" d="M894.6,1277.7c0.2,0.1,0.5,0.3,0.9,0.3c0.5,0,0.7-0.2,0.7-0.5c0-0.3-0.2-0.5-0.7-0.6c-0.6-0.2-0.9-0.6-0.9-1
			c0-0.6,0.5-1,1.2-1c0.4,0,0.7,0.1,0.9,0.2l-0.2,0.5c-0.1-0.1-0.4-0.2-0.7-0.2c-0.4,0-0.6,0.2-0.6,0.5c0,0.3,0.2,0.4,0.7,0.6
			c0.6,0.2,0.9,0.5,0.9,1c0,0.6-0.5,1-1.3,1c-0.4,0-0.7-0.1-1-0.2L894.6,1277.7z"/>
		<rect x="899.3" y="1273" class="st1" width="0.5" height="7.2"/>
		<polygon class="st1" points="902.5,1273.5 905.2,1273.5 905.2,1274.1 903.2,1274.1 903.2,1275.7 905,1275.7 905,1276.2 
			903.2,1276.2 903.2,1278.4 902.5,1278.4 		"/>
		<path class="st1" d="M908.8,1277.4c0,0.4,0,0.7,0,0.9h-0.6l0-0.6h0c-0.2,0.3-0.5,0.6-1.2,0.6c-0.6,0-1.2-0.3-1.2-1.5v-2h0.6v1.9
			c0,0.7,0.2,1.1,0.8,1.1c0.4,0,0.7-0.3,0.9-0.6c0-0.1,0.1-0.2,0.1-0.3v-2.1h0.6V1277.4z"/>
		<path class="st1" d="M909.9,1275.8c0-0.4,0-0.7,0-0.9h0.6l0,0.6h0c0.2-0.3,0.6-0.7,1.2-0.7c0.5,0,1.3,0.3,1.3,1.5v2.1h-0.6v-2
			c0-0.6-0.2-1-0.8-1c-0.4,0-0.8,0.3-0.9,0.6c0,0.1,0,0.2,0,0.3v2.1h-0.6V1275.8z"/>
		<path class="st1" d="M917,1273.3v4.2c0,0.3,0,0.7,0,0.9h-0.6l0-0.6h0c-0.2,0.4-0.6,0.7-1.2,0.7c-0.9,0-1.5-0.7-1.5-1.8
			c0-1.2,0.7-1.9,1.6-1.9c0.5,0,0.9,0.3,1.1,0.5h0v-2.1H917z M916.4,1276.3c0-0.1,0-0.2,0-0.3c-0.1-0.4-0.4-0.7-0.9-0.7
			c-0.7,0-1.1,0.6-1.1,1.3c0,0.7,0.4,1.3,1.1,1.3c0.4,0,0.8-0.3,0.9-0.8c0-0.1,0-0.2,0-0.3V1276.3z"/>
		<path class="st1" d="M920.1,1278.4l-0.1-0.4h0c-0.2,0.3-0.6,0.5-1.1,0.5c-0.7,0-1.1-0.5-1.1-1c0-0.8,0.8-1.3,2.1-1.3v-0.1
			c0-0.3-0.1-0.8-0.8-0.8c-0.3,0-0.7,0.1-0.9,0.3l-0.1-0.4c0.3-0.2,0.7-0.3,1.2-0.3c1.1,0,1.4,0.7,1.4,1.4v1.3c0,0.3,0,0.6,0.1,0.8
			H920.1z M920,1276.6c-0.7,0-1.5,0.1-1.5,0.8c0,0.4,0.3,0.6,0.6,0.6c0.5,0,0.8-0.3,0.9-0.6c0-0.1,0-0.1,0-0.2V1276.6z"/>
		<path class="st1" d="M924.2,1278.2c-0.2,0.1-0.5,0.2-1,0.2c-1.1,0-1.8-0.7-1.8-1.8c0-1.1,0.7-1.8,1.9-1.8c0.4,0,0.7,0.1,0.9,0.2
			l-0.1,0.5c-0.2-0.1-0.4-0.2-0.7-0.2c-0.8,0-1.3,0.6-1.3,1.3c0,0.8,0.5,1.3,1.2,1.3c0.4,0,0.6-0.1,0.8-0.2L924.2,1278.2z"/>
		<path class="st1" d="M925.7,1273.9c0,0.2-0.2,0.4-0.4,0.4c-0.2,0-0.4-0.2-0.4-0.4c0-0.2,0.2-0.4,0.4-0.4
			C925.5,1273.5,925.7,1273.7,925.7,1273.9 M925,1274.9h0.6v3.5H925V1274.9z"/>
		<path class="st1" d="M929.9,1276.6c0,1.3-0.9,1.8-1.8,1.8c-1,0-1.7-0.7-1.7-1.8c0-1.2,0.8-1.8,1.8-1.8
			C929.2,1274.8,929.9,1275.5,929.9,1276.6 M927.1,1276.6c0,0.8,0.4,1.3,1.1,1.3c0.6,0,1.1-0.6,1.1-1.3c0-0.6-0.3-1.3-1.1-1.3
			C927.4,1275.3,927.1,1276,927.1,1276.6 M929.1,1273.4l-0.9,1h-0.5l0.6-1H929.1z"/>
		<path class="st1" d="M930.7,1275.8c0-0.4,0-0.7,0-0.9h0.6l0,0.6h0c0.2-0.3,0.6-0.7,1.2-0.7c0.5,0,1.3,0.3,1.3,1.5v2.1h-0.6v-2
			c0-0.6-0.2-1-0.8-1c-0.4,0-0.8,0.3-0.9,0.6c0,0.1,0,0.2,0,0.3v2.1h-0.6V1275.8z"/>
		<path class="st1" d="M936.4,1273.6c0.3-0.1,0.8-0.1,1.2-0.1c0.7,0,1.1,0.1,1.4,0.4c0.2,0.2,0.4,0.5,0.4,0.9c0,0.6-0.4,1.1-0.9,1.2
			v0c0.4,0.1,0.6,0.5,0.7,1c0.2,0.7,0.3,1.1,0.4,1.3h-0.7c-0.1-0.1-0.2-0.6-0.3-1.2c-0.1-0.7-0.4-0.9-1-0.9H937v2.1h-0.6V1273.6z
			 M937,1275.8h0.7c0.7,0,1.1-0.4,1.1-0.9c0-0.6-0.5-0.9-1.1-0.9c-0.3,0-0.5,0-0.6,0.1V1275.8z"/>
		<path class="st1" d="M940.7,1276.7c0,0.9,0.6,1.2,1.2,1.2c0.5,0,0.7-0.1,1-0.2l0.1,0.5c-0.2,0.1-0.6,0.2-1.2,0.2
			c-1.1,0-1.8-0.7-1.8-1.8s0.6-1.9,1.7-1.9c1.2,0,1.5,1,1.5,1.6c0,0.1,0,0.2,0,0.3H940.7z M942.6,1276.3c0-0.4-0.2-1-0.9-1
			c-0.7,0-0.9,0.6-1,1H942.6z"/>
		<path class="st1" d="M944.7,1273.9c0,0.2-0.2,0.4-0.4,0.4c-0.2,0-0.4-0.2-0.4-0.4c0-0.2,0.2-0.4,0.4-0.4
			C944.6,1273.5,944.7,1273.7,944.7,1273.9 M944,1274.9h0.6v3.5H944V1274.9z"/>
		<path class="st1" d="M945.7,1275.8c0-0.4,0-0.7,0-0.9h0.6l0,0.6h0c0.2-0.3,0.6-0.7,1.2-0.7c0.5,0,1.3,0.3,1.3,1.5v2.1h-0.6v-2
			c0-0.6-0.2-1-0.8-1c-0.4,0-0.8,0.3-0.9,0.6c0,0.1,0,0.2,0,0.3v2.1h-0.6V1275.8z"/>
		<path class="st1" d="M951.8,1278.4l-0.1-0.4h0c-0.2,0.3-0.6,0.5-1.1,0.5c-0.7,0-1.1-0.5-1.1-1c0-0.8,0.8-1.3,2.1-1.3v-0.1
			c0-0.3-0.1-0.8-0.8-0.8c-0.3,0-0.7,0.1-0.9,0.3l-0.1-0.4c0.3-0.2,0.7-0.3,1.2-0.3c1.1,0,1.4,0.7,1.4,1.4v1.3c0,0.3,0,0.6,0.1,0.8
			H951.8z M951.7,1276.6c-0.7,0-1.5,0.1-1.5,0.8c0,0.4,0.3,0.6,0.6,0.6c0.5,0,0.8-0.3,0.9-0.6c0-0.1,0-0.1,0-0.2V1276.6z"/>
		<rect x="953.4" y="1273.3" class="st1" width="0.6" height="5.1"/>
		<path class="st1" d="M958.2,1273.3v4.2c0,0.3,0,0.7,0,0.9h-0.6l0-0.6h0c-0.2,0.4-0.6,0.7-1.2,0.7c-0.9,0-1.5-0.7-1.5-1.8
			c0-1.2,0.7-1.9,1.6-1.9c0.5,0,0.9,0.3,1.1,0.5h0v-2.1H958.2z M957.5,1276.3c0-0.1,0-0.2,0-0.3c-0.1-0.4-0.4-0.7-0.9-0.7
			c-0.7,0-1.1,0.6-1.1,1.3c0,0.7,0.4,1.3,1.1,1.3c0.4,0,0.8-0.3,0.9-0.8c0-0.1,0-0.2,0-0.3V1276.3z"/>
		<path class="st1" d="M962.5,1276.6c0,1.3-0.9,1.8-1.8,1.8c-1,0-1.7-0.7-1.7-1.8c0-1.2,0.8-1.8,1.8-1.8
			C961.8,1274.8,962.5,1275.5,962.5,1276.6 M959.7,1276.6c0,0.8,0.4,1.3,1.1,1.3c0.6,0,1.1-0.6,1.1-1.3c0-0.6-0.3-1.3-1.1-1.3
			C960,1275.3,959.7,1276,959.7,1276.6"/>
		<path class="st1" d="M964.8,1277.6c0.3,0.2,0.7,0.3,1.1,0.3c0.7,0,1-0.3,1-0.8c0-0.5-0.3-0.7-0.9-1c-0.8-0.3-1.3-0.7-1.3-1.4
			c0-0.8,0.6-1.3,1.6-1.3c0.5,0,0.9,0.1,1.1,0.2l-0.2,0.5c-0.2-0.1-0.5-0.2-0.9-0.2c-0.7,0-0.9,0.4-0.9,0.7c0,0.5,0.3,0.7,1,0.9
			c0.8,0.3,1.3,0.7,1.3,1.4c0,0.7-0.6,1.4-1.7,1.4c-0.5,0-1-0.1-1.3-0.3L964.8,1277.6z"/>
		<path class="st1" d="M971.7,1276.6c0,1.3-0.9,1.8-1.8,1.8c-1,0-1.7-0.7-1.7-1.8c0-1.2,0.8-1.8,1.8-1.8
			C971,1274.8,971.7,1275.5,971.7,1276.6 M968.9,1276.6c0,0.8,0.4,1.3,1.1,1.3c0.6,0,1.1-0.6,1.1-1.3c0-0.6-0.3-1.3-1.1-1.3
			C969.2,1275.3,968.9,1276,968.9,1276.6"/>
		<rect x="972.6" y="1273.3" class="st1" width="0.6" height="5.1"/>
		<path class="st1" d="M976.3,1278.4l-0.1-0.4h0c-0.2,0.3-0.6,0.5-1.1,0.5c-0.7,0-1.1-0.5-1.1-1c0-0.8,0.8-1.3,2.1-1.3v-0.1
			c0-0.3-0.1-0.8-0.8-0.8c-0.3,0-0.7,0.1-0.9,0.3l-0.1-0.4c0.3-0.2,0.7-0.3,1.2-0.3c1.1,0,1.4,0.7,1.4,1.4v1.3c0,0.3,0,0.6,0.1,0.8
			H976.3z M976.2,1276.6c-0.7,0-1.5,0.1-1.5,0.8c0,0.4,0.3,0.6,0.6,0.6c0.5,0,0.8-0.3,0.9-0.6c0-0.1,0-0.1,0-0.2V1276.6z"/>
		<path class="st1" d="M977.8,1276c0-0.4,0-0.8,0-1.1h0.6l0,0.7h0c0.2-0.5,0.6-0.8,1-0.8c0.1,0,0.1,0,0.2,0v0.6c-0.1,0-0.1,0-0.2,0
			c-0.5,0-0.8,0.3-0.9,0.8c0,0.1,0,0.2,0,0.3v1.9h-0.6V1276z"/>
		<path class="st1" d="M981,1273.9c0,0.2-0.2,0.4-0.4,0.4c-0.2,0-0.4-0.2-0.4-0.4c0-0.2,0.2-0.4,0.4-0.4
			C980.8,1273.5,981,1273.7,981,1273.9 M980.3,1274.9h0.6v3.5h-0.6V1274.9z"/>
		<path class="st3" d="M767.8,1289.1l52.6-39.9c-11.8-14.4-31.2-23.8-53.2-23.8c-21.6,0-40.7,9.1-52.6,23.1L767.8,1289.1z"/>
	</g>
	<g class="st0">
		<defs>
			<path id="SVGID_5_" d="M716.7,1249.5l51.3,39.2l50.8-38.5c-11.4-13.9-30.1-23-51.3-23C746.7,1227.2,728.2,1236,716.7,1249.5"/>
		</defs>
		<clipPath id="SVGID_6_">
			<use xlink:href="#SVGID_5_"  style="overflow:visible;"/>
		</clipPath>
		
			<radialGradient id="SVGID_7_" cx="233.6772" cy="1077.5795" r="1.7279" gradientTransform="matrix(-0.6256 23.6593 -24.2409 -0.6106 27039.3906 -3632.4429)" gradientUnits="userSpaceOnUse">
			<stop  offset="0" style="stop-color:#CDD74E"/>
			<stop  offset="0.158" style="stop-color:#CDD74E"/>
			<stop  offset="1" style="stop-color:#769034"/>
		</radialGradient>
		<polygon class="st4" points="716.8,1224.6 715.1,1288.7 818.8,1291.3 820.5,1227.2 		"/>
	</g>
	<g class="st0">
		<defs>
			<path id="SVGID_8_" d="M757.1,1207.9l-0.3,0.8l-34.3,0.2l0.1,0.1h-0.1l25.3,19c0,0,0,0,0.1,0l0.3,0.2l-9.4,32.7l28.1-18.5
				l29.9,18.3l-11.2-32.9l26-18.9h-0.1l0.1,0l-35.2-0.4l-0.4-1.1l-8.6-27.5L757.1,1207.9z"/>
		</defs>
		<clipPath id="SVGID_9_">
			<use xlink:href="#SVGID_8_"  style="overflow:visible;"/>
		</clipPath>
		
			<linearGradient id="SVGID_10_" gradientUnits="userSpaceOnUse" x1="228.7419" y1="1079.7557" x2="230.4698" y2="1079.7557" gradientTransform="matrix(-0.2783 43.7312 -44.8061 -0.2716 49210.6094 -8527.7939)">
			<stop  offset="0" style="stop-color:#5F7DBB"/>
			<stop  offset="0.3417" style="stop-color:#5F7DBB"/>
			<stop  offset="0.6324" style="stop-color:#4E619F"/>
			<stop  offset="0.9532" style="stop-color:#3C395E"/>
			<stop  offset="1" style="stop-color:#3C395E"/>
		</linearGradient>
		<polygon class="st5" points="722.5,1179.4 722,1260.9 811.5,1261.4 812.1,1179.9 		"/>
	</g>
	<polygon class="st6" points="771.7,1291.7 769.6,1290.3 816.8,1253.6 773.9,1291.7 	"/>
	<polygon class="st7" points="710.7,1255.3 713.8,1250 761.5,1286 	"/>
	<g class="st0">
		<defs>
			<rect id="SVGID_11_" x="706.9" y="1179.9" width="278.2" height="111.8"/>
		</defs>
		<clipPath id="SVGID_12_">
			<use xlink:href="#SVGID_11_"  style="overflow:visible;"/>
		</clipPath>
		<path class="st8" d="M787.9,1227.2c0,0,20.3,5.6,33.6,20.4l3.9-2.5c0,0-11.7-12.6-34.8-19.5L787.9,1227.2z"/>
		<path class="st9" d="M743.4,1225.6c0,0-26.2,7.7-36.5,27l2.4,1.6c0,0,10.3-19.8,36.5-27L743.4,1225.6z"/>
	</g>
	<g class="st0">
		<defs>
			<rect id="SVGID_13_" width="1057.5" height="1366.6"/>
		</defs>
		<clipPath id="SVGID_14_">
			<use xlink:href="#SVGID_13_"  style="overflow:visible;"/>
		</clipPath>
		<g class="st10">
			<g>
				<defs>
					<rect id="SVGID_15_" x="-183" y="-0.9" width="2337.8" height="2023.8"/>
				</defs>
				<clipPath id="SVGID_16_">
					<use xlink:href="#SVGID_15_"  style="overflow:visible;"/>
				</clipPath>
				<polygon class="st11" points="942.7,0 828.2,317.3 816.8,347.3 189,351.2 190.6,352.4 189.4,352.4 628.9,686.1 629.6,685.9 
					644.7,697 656.4,705.8 482.5,1314.3 1000.4,970.7 1058,1006.4 1058,0 				"/>
				<g class="st12">
					<defs>
						<rect id="SVGID_17_" x="0.1" y="1.7" width="1057.9" height="1365.7"/>
					</defs>
					<clipPath id="SVGID_18_">
						<use xlink:href="#SVGID_17_"  style="overflow:visible;"/>
					</clipPath>
					<path class="st13" d="M-29.7,1125.9l1048.9,821.3L2058.5,1140c-159.5-199.4-389.3-351.3-657.4-427.4l-6.2,4.6l234.3,696.7
						l-628.1-389.2l-592.4,393l197.7-691.8l-9.8-7.4C343.3,794.4,125.3,938.3-29.7,1125.9"/>
					<path class="st13" d="M807.9,1829.2l-860.6-673.9l-0.8-0.6c-19.2,25.5-42.4,59.4-65.3,100.6L807.9,1829.2z"/>
					<path class="st13" d="M-34.5,1074.1c75.5-85.9,163.7-162,262.8-226.5c102-66.3,213.4-119,331.7-156.9l-34.1-25.9
						C347,727.5,80.2,853.7-105,1086.9c-51.9,65.4-78,128.7-78,128.7l32.4,20.1C-96.8,1138.7-42.1,1081.8-34.5,1074.1"/>
				</g>
			</g>
		</g>
	</g>
	<g class="st0">
		<path class="st14" d="M104.7,136.5l-2.5,7.7h-3.3l8.3-24.5h3.8l8.3,24.5H116l-2.6-7.7H104.7z M112.7,134.1l-2.4-7
			c-0.5-1.6-0.9-3-1.3-4.5H109c-0.4,1.5-0.8,2.9-1.2,4.4l-2.4,7.1H112.7z"/>
		<path class="st14" d="M122.8,132.4c0-2.2-0.1-4.1-0.1-5.7h2.9l0.1,3h0.1c1.3-2.1,3.4-3.4,6.2-3.4c4.2,0,7.4,3.6,7.4,8.9
			c0,6.3-3.8,9.4-8,9.4c-2.3,0-4.4-1-5.4-2.8H126v9.5h-3.2V132.4z M126,137.1c0,0.5,0.1,0.9,0.1,1.3c0.6,2.2,2.5,3.7,4.8,3.7
			c3.4,0,5.3-2.8,5.3-6.8c0-3.5-1.9-6.5-5.2-6.5c-2.2,0-4.2,1.6-4.8,4c-0.1,0.4-0.2,0.9-0.2,1.3V137.1z"/>
		<path class="st14" d="M147.3,121.6v5h4.6v2.4h-4.6v9.5c0,2.2,0.6,3.4,2.4,3.4c0.8,0,1.5-0.1,1.9-0.2l0.1,2.4
			c-0.6,0.3-1.6,0.4-2.8,0.4c-1.5,0-2.7-0.5-3.4-1.3c-0.9-0.9-1.2-2.5-1.2-4.6v-9.6h-2.7v-2.4h2.7v-4.2L147.3,121.6z"/>
		<path class="st14" d="M170.2,139.4c0,1.8,0,3.4,0.1,4.8h-2.8l-0.2-2.9h-0.1c-0.8,1.4-2.7,3.3-5.8,3.3c-2.8,0-6.1-1.5-6.1-7.7
			v-10.3h3.2v9.7c0,3.3,1,5.6,3.9,5.6c2.1,0,3.6-1.5,4.2-2.9c0.2-0.5,0.3-1.1,0.3-1.6v-10.8h3.2V139.4z"/>
		<path class="st14" d="M175,140.9c0.9,0.6,2.6,1.3,4.2,1.3c2.3,0,3.4-1.2,3.4-2.6c0-1.5-0.9-2.4-3.3-3.2c-3.2-1.1-4.6-2.9-4.6-5
			c0-2.8,2.3-5.2,6.1-5.2c1.8,0,3.3,0.5,4.3,1.1l-0.8,2.3c-0.7-0.4-2-1-3.6-1c-1.9,0-2.9,1.1-2.9,2.4c0,1.5,1.1,2.1,3.3,3
			c3,1.2,4.6,2.7,4.6,5.3c0,3.1-2.4,5.3-6.6,5.3c-1.9,0-3.7-0.5-4.9-1.2L175,140.9z"/>
		<path class="st14" d="M210.3,132.7h-9.5v8.8h10.6v2.6h-13.8v-24.5h13.2v2.6h-10.1v7.7h9.5V132.7z"/>
		<path class="st14" d="M214.9,140.9c0.9,0.6,2.6,1.3,4.2,1.3c2.3,0,3.4-1.2,3.4-2.6c0-1.5-0.9-2.4-3.3-3.2c-3.2-1.1-4.6-2.9-4.6-5
			c0-2.8,2.3-5.2,6.1-5.2c1.8,0,3.3,0.5,4.3,1.1l-0.8,2.3c-0.7-0.4-2-1-3.6-1c-1.9,0-2.9,1.1-2.9,2.4c0,1.5,1.1,2.1,3.3,3
			c3,1.2,4.6,2.7,4.6,5.3c0,3.1-2.4,5.3-6.6,5.3c-1.9,0-3.7-0.5-4.9-1.2L214.9,140.9z"/>
		<path class="st14" d="M233.6,121.6v5h4.6v2.4h-4.6v9.5c0,2.2,0.6,3.4,2.4,3.4c0.8,0,1.5-0.1,1.9-0.2l0.1,2.4
			c-0.6,0.3-1.6,0.4-2.8,0.4c-1.5,0-2.7-0.5-3.4-1.3c-0.9-0.9-1.2-2.5-1.2-4.6v-9.6h-2.7v-2.4h2.7v-4.2L233.6,121.6z"/>
		<path class="st14" d="M256.5,139.4c0,1.8,0,3.4,0.1,4.8h-2.8l-0.2-2.9h-0.1c-0.8,1.4-2.7,3.3-5.8,3.3c-2.8,0-6.1-1.5-6.1-7.7
			v-10.3h3.2v9.7c0,3.3,1,5.6,3.9,5.6c2.1,0,3.6-1.5,4.2-2.9c0.2-0.5,0.3-1.1,0.3-1.6v-10.8h3.2V139.4z"/>
		<path class="st14" d="M276.9,118.4v21.2c0,1.6,0,3.3,0.1,4.5h-2.9l-0.1-3H274c-1,2-3.1,3.4-6,3.4c-4.2,0-7.5-3.6-7.5-8.9
			c0-5.8,3.6-9.4,7.9-9.4c2.7,0,4.5,1.3,5.3,2.7h0.1v-10.5H276.9z M273.7,133.8c0-0.4,0-0.9-0.1-1.3c-0.5-2-2.2-3.7-4.6-3.7
			c-3.3,0-5.3,2.9-5.3,6.8c0,3.6,1.7,6.5,5.2,6.5c2.1,0,4.1-1.4,4.7-3.8c0.1-0.4,0.1-0.9,0.1-1.4V133.8z"/>
		<path class="st14" d="M285.8,121.7c0,1.1-0.8,2-2,2c-1.1,0-1.9-0.9-1.9-2c0-1.1,0.8-2,2-2C285,119.7,285.8,120.6,285.8,121.7z
			 M282.2,144.2v-17.6h3.2v17.6H282.2z"/>
		<path class="st14" d="M306.6,135.3c0,6.5-4.5,9.3-8.7,9.3c-4.8,0-8.4-3.5-8.4-9c0-5.9,3.8-9.3,8.7-9.3
			C303.2,126.3,306.6,129.9,306.6,135.3z M292.7,135.5c0,3.8,2.2,6.7,5.3,6.7c3,0,5.3-2.9,5.3-6.8c0-3-1.5-6.7-5.3-6.7
			C294.3,128.6,292.7,132.1,292.7,135.5z"/>
		<path class="st14" d="M310.2,140.9c0.9,0.6,2.6,1.3,4.2,1.3c2.3,0,3.4-1.2,3.4-2.6c0-1.5-0.9-2.4-3.3-3.2c-3.2-1.1-4.6-2.9-4.6-5
			c0-2.8,2.3-5.2,6.1-5.2c1.8,0,3.3,0.5,4.3,1.1l-0.8,2.3c-0.7-0.4-2-1-3.6-1c-1.9,0-2.9,1.1-2.9,2.4c0,1.5,1.1,2.1,3.3,3
			c3,1.2,4.6,2.7,4.6,5.3c0,3.1-2.4,5.3-6.6,5.3c-1.9,0-3.7-0.5-4.9-1.2L310.2,140.9z"/>
	</g>
	<g class="st0">
		<path class="st14" d="M98.5,168.9c1.8-0.3,3.8-0.5,6-0.5c4.3,0,7.5,1.1,9.4,3.2c1.9,1.9,2.9,4.6,2.9,8.1c0,3.4-0.9,6.5-3,8.8
			c-2,2.2-5.6,3.6-10.1,3.6c-1.8,0-3.5,0-5.2-0.2V168.9z M100.2,190.5c0.9,0.1,2.3,0.2,3.8,0.2c7.5,0,11.2-4.2,11.2-10.9
			c0.1-5.9-3.2-10-10.7-10c-1.8,0-3.2,0.2-4.2,0.4V190.5z"/>
		<path class="st14" d="M121.3,183.4c0,5.3,2.9,7.4,6.3,7.4c2.4,0,3.7-0.5,4.6-0.9l0.4,1.3c-0.6,0.3-2.3,1.1-5.2,1.1
			c-4.8,0-7.7-3.5-7.7-8.3c0-5.5,3.2-9,7.5-9c5.4,0,6.5,5.1,6.5,7.5c0,0.4,0,0.7-0.1,1H121.3z M131.9,182.1c0-2.3-0.9-5.8-4.9-5.8
			c-3.7,0-5.2,3.2-5.5,5.8H131.9z"/>
		<path class="st14" d="M145.4,167.3h1.7v24.6h-1.7V167.3z"/>
		<path class="st14" d="M163.1,188c0,1.3,0,2.7,0.2,3.9h-1.5l-0.2-2.4h-0.1c-0.8,1.3-2.7,2.8-5.3,2.8c-3.4,0-4.9-2.4-4.9-4.6
			c0-3.8,3.4-6.2,10.1-6.1v-0.4c0-1.6-0.3-4.9-4.3-4.9c-1.5,0-3,0.4-4.2,1.2l-0.5-1.2c1.5-1,3.4-1.4,4.9-1.4c4.8,0,5.7,3.6,5.7,6.5
			V188z M161.4,183c-3.6-0.1-8.4,0.4-8.4,4.4c0,2.4,1.6,3.5,3.3,3.5c2.8,0,4.4-1.7,4.9-3.3c0.1-0.3,0.2-0.7,0.2-1V183z"/>
		<path class="st14" d="M176.3,183.4c0,5.3,2.9,7.4,6.3,7.4c2.4,0,3.7-0.5,4.6-0.9l0.4,1.3c-0.6,0.3-2.3,1.1-5.2,1.1
			c-4.8,0-7.7-3.5-7.7-8.3c0-5.5,3.2-9,7.5-9c5.4,0,6.5,5.1,6.5,7.5c0,0.4,0,0.7-0.1,1H176.3z M186.8,182.1c0-2.3-0.9-5.8-4.9-5.8
			c-3.7,0-5.2,3.2-5.5,5.8H186.8z"/>
		<path class="st14" d="M192.4,175.3l3.9,10.3c0.7,1.6,1.2,3,1.6,4.4h0.1c0.4-1.4,1.1-2.8,1.7-4.4l3.9-10.3h1.7l-6.7,16.6h-1.5
			l-6.5-16.6H192.4z"/>
		<path class="st14" d="M209.3,172c-0.8,0-1.3-0.7-1.3-1.4s0.6-1.5,1.3-1.5s1.3,0.7,1.3,1.5C210.6,171.3,210.1,172,209.3,172
			L209.3,172z M208.5,191.9v-16.6h1.7v16.6H208.5z"/>
		<path class="st14" d="M229,167.3v20.7c0,1.2,0,2.7,0.1,3.8h-1.5l-0.1-3.1h-0.1c-0.9,1.8-2.8,3.5-5.9,3.5c-4.1,0-7.2-3.4-7.2-8.4
			c0-5.5,3.4-9,7.5-9c2.9,0,4.7,1.5,5.4,2.9h0.1v-10.5H229z M227.3,181.9c0-0.4,0-1-0.2-1.5c-0.6-2.2-2.5-4-5.2-4
			c-3.6,0-5.9,3.1-5.9,7.4c0,3.7,1.9,7.2,5.8,7.2c2.4,0,4.6-1.6,5.3-4.3c0.1-0.4,0.2-0.9,0.2-1.4V181.9z"/>
		<path class="st14" d="M234.8,183.4c0,5.3,2.9,7.4,6.3,7.4c2.4,0,3.7-0.5,4.6-0.9l0.4,1.3c-0.6,0.3-2.3,1.1-5.2,1.1
			c-4.8,0-7.7-3.5-7.7-8.3c0-5.5,3.2-9,7.5-9c5.4,0,6.5,5.1,6.5,7.5c0,0.4,0,0.7-0.1,1H234.8z M245.3,182.1c0-2.3-0.9-5.8-4.9-5.8
			c-3.7,0-5.2,3.2-5.5,5.8H245.3z"/>
		<path class="st14" d="M251.3,179.3c0-1.5,0-2.7-0.1-4h1.6l0.1,3h0.1c0.9-1.9,3-3.4,5.7-3.4c1.6,0,5.8,0.8,5.8,7v10h-1.7v-9.8
			c0-3-1.2-5.8-4.6-5.8c-2.3,0-4.3,1.7-5,3.8c-0.1,0.4-0.2,0.9-0.2,1.5v10.3h-1.7V179.3z"/>
		<path class="st14" d="M281.2,191.2c-0.7,0.3-2.5,1.1-4.9,1.1c-4.8,0-7.9-3.5-7.9-8.5c0-5.3,3.6-8.8,8.5-8.8c2,0,3.7,0.6,4.4,1
			l-0.6,1.3c-0.8-0.5-2.1-1-3.9-1c-4.5,0-6.7,3.4-6.7,7.3c0,4.4,2.7,7.2,6.6,7.2c2,0,3.2-0.6,4.1-1L281.2,191.2z"/>
		<path class="st14" d="M286,172c-0.8,0-1.3-0.7-1.3-1.4s0.6-1.5,1.3-1.5s1.3,0.7,1.3,1.5C287.4,171.3,286.8,172,286,172L286,172z
			 M285.2,191.9v-16.6h1.7v16.6H285.2z"/>
		<path class="st14" d="M302.8,188c0,1.3,0,2.7,0.2,3.9h-1.5l-0.2-2.4h-0.1c-0.8,1.3-2.7,2.8-5.3,2.8c-3.4,0-4.9-2.4-4.9-4.6
			c0-3.8,3.4-6.2,10.1-6.1v-0.4c0-1.6-0.3-4.9-4.3-4.9c-1.5,0-3,0.4-4.2,1.2l-0.5-1.2c1.5-1,3.4-1.4,4.9-1.4c4.8,0,5.7,3.6,5.7,6.5
			V188z M301.1,183c-3.6-0.1-8.4,0.4-8.4,4.4c0,2.4,1.6,3.5,3.3,3.5c2.8,0,4.4-1.7,4.9-3.3c0.1-0.3,0.2-0.7,0.2-1V183z"/>
		<path class="st14" d="M326,188c0,1.3,0,2.7,0.2,3.9h-1.5l-0.2-2.4h-0.1c-0.8,1.3-2.7,2.8-5.3,2.8c-3.4,0-4.9-2.4-4.9-4.6
			c0-3.8,3.4-6.2,10.1-6.1v-0.4c0-1.6-0.3-4.9-4.3-4.9c-1.5,0-3,0.4-4.2,1.2l-0.5-1.2c1.5-1,3.4-1.4,4.9-1.4c4.8,0,5.7,3.6,5.7,6.5
			V188z M324.4,183c-3.6-0.1-8.4,0.4-8.4,4.4c0,2.4,1.6,3.5,3.3,3.5c2.8,0,4.4-1.7,4.9-3.3c0.1-0.3,0.2-0.7,0.2-1V183z"/>
		<path class="st14" d="M339,167.3h1.7v24.6H339V167.3z"/>
		<path class="st14" d="M356.6,188c0,1.3,0,2.7,0.2,3.9h-1.5l-0.2-2.4H355c-0.8,1.3-2.7,2.8-5.3,2.8c-3.4,0-4.9-2.4-4.9-4.6
			c0-3.8,3.4-6.2,10.1-6.1v-0.4c0-1.6-0.3-4.9-4.3-4.9c-1.5,0-3,0.4-4.2,1.2l-0.5-1.2c1.5-1,3.4-1.4,4.9-1.4c4.8,0,5.7,3.6,5.7,6.5
			V188z M355,183c-3.6-0.1-8.4,0.4-8.4,4.4c0,2.4,1.6,3.5,3.3,3.5c2.8,0,4.4-1.7,4.9-3.3c0.1-0.3,0.2-0.7,0.2-1V183z"/>
		<path class="st14" d="M369.5,180.6c0-2.1,0-3.7-0.1-5.3h1.6l0.1,3.1h0.1c1.2-2.2,3.2-3.5,6.2-3.5c4.3,0,7.1,3.5,7.1,8.4
			c0,5.9-3.5,9-7.5,9c-2.4,0-4.5-1.1-5.6-3.1h-0.1v9.5h-1.7V180.6z M371.2,185.4c0,0.4,0,0.9,0.1,1.3c0.7,2.6,2.9,4.2,5.5,4.2
			c3.8,0,6-3.1,6-7.5c0-3.7-2.1-7.1-5.8-7.1c-2.4,0-4.8,1.7-5.5,4.4c-0.1,0.4-0.2,1-0.2,1.4V185.4z"/>
		<path class="st14" d="M388.6,180.3c0-1.7,0-3.4-0.1-5h1.5l0.1,3.4h0.1c0.7-2.1,2.5-3.7,4.7-3.7c0.2,0,0.5,0,0.7,0.1v1.6
			c-0.2,0-0.5,0-0.8,0c-2.3,0-3.9,2-4.4,4.6c-0.1,0.5-0.1,1-0.1,1.6v9.2h-1.7V180.3z"/>
		<path class="st14" d="M409.1,188c0,1.3,0,2.7,0.2,3.9h-1.5l-0.2-2.4h-0.1c-0.8,1.3-2.7,2.8-5.3,2.8c-3.4,0-4.9-2.4-4.9-4.6
			c0-3.8,3.4-6.2,10.1-6.1v-0.4c0-1.6-0.3-4.9-4.3-4.9c-1.5,0-3,0.4-4.2,1.2l-0.5-1.2c1.5-1,3.4-1.4,4.9-1.4c4.8,0,5.7,3.6,5.7,6.5
			V188z M407.5,183c-3.6-0.1-8.4,0.4-8.4,4.4c0,2.4,1.6,3.5,3.3,3.5c2.8,0,4.4-1.7,4.9-3.3c0.1-0.3,0.2-0.7,0.2-1V183z M407.8,168.1
			l-4.2,4.8h-1.3l3.1-4.8H407.8z"/>
		<path class="st14" d="M425.9,191.2c-0.7,0.3-2.5,1.1-4.9,1.1c-4.8,0-7.9-3.5-7.9-8.5c0-5.3,3.6-8.8,8.5-8.8c2,0,3.7,0.6,4.4,1
			l-0.6,1.3c-0.8-0.5-2.1-1-3.9-1c-4.5,0-6.7,3.4-6.7,7.3c0,4.4,2.7,7.2,6.6,7.2c2,0,3.2-0.6,4.1-1L425.9,191.2z"/>
		<path class="st14" d="M432.5,171.6v3.7h4.7v1.3h-4.7v10.8c0,2.1,0.7,3.4,2.4,3.4c0.9,0,1.5-0.1,1.9-0.2l0.2,1.2
			c-0.6,0.2-1.3,0.4-2.3,0.4c-1.2,0-2.2-0.4-2.8-1.1c-0.8-0.9-1-2.3-1-4v-10.5h-2.8v-1.3h2.8v-3L432.5,171.6z"/>
		<path class="st14" d="M441.7,172c-0.8,0-1.3-0.7-1.3-1.4s0.6-1.5,1.3-1.5s1.3,0.7,1.3,1.5C443.1,171.3,442.6,172,441.7,172
			L441.7,172z M440.9,191.9v-16.6h1.7v16.6H440.9z"/>
		<path class="st14" d="M459.6,191.2c-0.7,0.3-2.5,1.1-4.9,1.1c-4.8,0-7.9-3.5-7.9-8.5c0-5.3,3.6-8.8,8.5-8.8c2,0,3.7,0.6,4.4,1
			l-0.6,1.3c-0.8-0.5-2.1-1-3.9-1c-4.5,0-6.7,3.4-6.7,7.3c0,4.4,2.7,7.2,6.6,7.2c2,0,3.2-0.6,4.1-1L459.6,191.2z"/>
		<path class="st14" d="M473.9,188c0,1.3,0,2.7,0.2,3.9h-1.5l-0.2-2.4h-0.1c-0.8,1.3-2.7,2.8-5.3,2.8c-3.4,0-4.9-2.4-4.9-4.6
			c0-3.8,3.4-6.2,10.1-6.1v-0.4c0-1.6-0.3-4.9-4.3-4.9c-1.5,0-3,0.4-4.2,1.2l-0.5-1.2c1.5-1,3.4-1.4,4.9-1.4c4.8,0,5.7,3.6,5.7,6.5
			V188z M472.2,183c-3.6-0.1-8.4,0.4-8.4,4.4c0,2.4,1.6,3.5,3.3,3.5c2.8,0,4.4-1.7,4.9-3.3c0.1-0.3,0.2-0.7,0.2-1V183z"/>
	</g>
	<g class="st0">
		<defs>
			<rect id="SVGID_19_" x="706.9" y="1179.9" width="278.2" height="111.8"/>
		</defs>
		<clipPath id="SVGID_20_">
			<use xlink:href="#SVGID_19_"  style="overflow:visible;"/>
		</clipPath>
		<path class="st15" d="M848.9,1229.6l-4.1,12h-5.2l13.3-38.1h6.1l13.3,38.1h-5.4l-4.2-12H848.9z M861.7,1225.8l-3.8-11
			c-0.9-2.5-1.4-4.7-2-7h-0.1c-0.6,2.3-1.2,4.6-2,6.9l-3.8,11H861.7z"/>
		<path class="st15" d="M877.6,1223.2c0-3.5-0.1-6.3-0.2-8.9h4.6l0.2,4.7h0.1c2.1-3.3,5.4-5.3,10-5.3c6.8,0,11.9,5.6,11.9,13.9
			c0,9.8-6.1,14.7-12.7,14.7c-3.7,0-7-1.6-8.6-4.3h-0.1v14.9h-5V1223.2z M882.7,1230.4c0,0.7,0.1,1.4,0.2,2c0.9,3.4,4,5.8,7.6,5.8
			c5.4,0,8.5-4.3,8.5-10.6c0-5.5-3-10.2-8.3-10.2c-3.5,0-6.7,2.4-7.7,6.2c-0.2,0.6-0.3,1.4-0.3,2V1230.4z"/>
		<path class="st15" d="M916.7,1206.4v7.9h7.3v3.8h-7.3v14.8c0,3.4,1,5.3,3.8,5.3c1.3,0,2.3-0.2,3-0.3l0.2,3.7
			c-1,0.4-2.5,0.7-4.5,0.7c-2.4,0-4.3-0.7-5.5-2.1c-1.4-1.5-2-3.9-2-7.1V1218h-4.3v-3.8h4.3v-6.6L916.7,1206.4z"/>
		<path class="st15" d="M953.2,1234.1c0,2.8,0.1,5.3,0.2,7.5h-4.5l-0.3-4.5h-0.1c-1.3,2.2-4.3,5.1-9.3,5.1c-4.4,0-9.7-2.4-9.7-12
			v-16h5.1v15.2c0,5.2,1.6,8.7,6.3,8.7c3.4,0,5.8-2.3,6.7-4.5c0.3-0.7,0.5-1.6,0.5-2.5v-16.8h5.1V1234.1z"/>
		<path class="st15" d="M961,1236.5c1.5,1,4.2,2,6.7,2c3.7,0,5.4-1.8,5.4-4.1c0-2.4-1.4-3.7-5.2-5c-5-1.8-7.4-4.5-7.4-7.7
			c0-4.4,3.6-8,9.7-8c2.8,0,5.3,0.8,6.9,1.7l-1.3,3.6c-1.1-0.7-3.1-1.6-5.7-1.6c-3,0-4.7,1.7-4.7,3.7c0,2.3,1.7,3.3,5.3,4.6
			c4.9,1.8,7.4,4.2,7.4,8.3c0,4.8-3.8,8.2-10.5,8.2c-3.1,0-5.9-0.7-7.9-1.9L961,1236.5z"/>
		<path class="st15" d="M837.5,1255.5c0.5-0.1,1.1-0.1,1.8-0.1c0.9,0,1.6,0.2,2.1,0.6c0.4,0.3,0.6,0.9,0.6,1.5
			c0,0.7-0.2,1.2-0.6,1.5c-0.5,0.5-1.3,0.8-2.3,0.8c-0.3,0-0.5,0-0.8-0.1v2.9h-1V1255.5z M838.4,1259c0.2,0.1,0.5,0.1,0.8,0.1
			c1.2,0,1.9-0.5,1.9-1.5c0-1-0.7-1.4-1.7-1.4c-0.4,0-0.7,0-0.9,0.1V1259z"/>
		<path class="st15" d="M849.6,1258.9c0,2.5-1.5,3.8-3.4,3.8c-2,0-3.3-1.5-3.3-3.7c0-2.3,1.5-3.8,3.4-3.8
			C848.3,1255.3,849.6,1256.8,849.6,1258.9 M843.9,1259c0,1.5,0.9,2.9,2.4,2.9c1.5,0,2.4-1.4,2.4-3c0-1.4-0.8-2.9-2.4-2.9
			C844.7,1256,843.9,1257.5,843.9,1259"/>
		<polygon class="st15" points="852,1256.2 849.7,1256.2 849.7,1255.4 855.2,1255.4 855.2,1256.2 853,1256.2 853,1262.6 852,1262.6 
					"/>
		<polygon class="st15" points="859.9,1259.2 857,1259.2 857,1261.8 860.2,1261.8 860.2,1262.6 856,1262.6 856,1255.4 860,1255.4 
			860,1256.2 857,1256.2 857,1258.5 859.9,1258.5 		"/>
		<path class="st15" d="M861.4,1262.6v-7.2h1l2.4,3.7c0.5,0.8,1,1.6,1.3,2.3l0,0c-0.1-1-0.1-1.8-0.1-3v-3h0.9v7.2h-1l-2.3-3.7
			c-0.5-0.8-1-1.6-1.4-2.4l0,0c0.1,0.9,0.1,1.8,0.1,3v3.1H861.4z"/>
		<path class="st15" d="M873.8,1262.4c-0.4,0.2-1.1,0.3-2,0.3c-2.1,0-3.7-1.3-3.7-3.7c0-2.3,1.6-3.8,3.9-3.8c0.9,0,1.5,0.2,1.8,0.3
			l-0.2,0.8c-0.4-0.2-0.9-0.3-1.5-0.3c-1.7,0-2.9,1.1-2.9,3c0,1.8,1,2.9,2.8,2.9c0.6,0,1.2-0.1,1.6-0.3L873.8,1262.4z"/>
		<rect x="875" y="1255.4" class="st15" width="1" height="7.2"/>
		<path class="st15" d="M878.9,1260.3l-0.8,2.3h-1l2.5-7.2h1.2l2.5,7.2h-1l-0.8-2.3H878.9z M881.3,1259.6l-0.7-2.1
			c-0.2-0.5-0.3-0.9-0.4-1.3h0c-0.1,0.4-0.2,0.9-0.4,1.3l-0.7,2.1H881.3z"/>
		<path class="st15" d="M884.4,1255.5c0.6-0.1,1.3-0.2,2-0.2c1.4,0,2.3,0.3,3,0.9c0.7,0.6,1,1.4,1,2.6c0,1.2-0.4,2.1-1.1,2.8
			c-0.7,0.7-1.8,1-3.3,1c-0.7,0-1.3,0-1.7-0.1V1255.5z M885.3,1261.9c0.2,0,0.6,0.1,1,0.1c2,0,3.2-1.1,3.2-3.1c0-1.7-1-2.8-3-2.8
			c-0.5,0-0.9,0-1.1,0.1V1261.9z"/>
		<path class="st15" d="M898,1258.9c0,2.5-1.5,3.8-3.4,3.8c-2,0-3.3-1.5-3.3-3.7c0-2.3,1.5-3.8,3.4-3.8
			C896.7,1255.3,898,1256.8,898,1258.9 M892.3,1259c0,1.5,0.9,2.9,2.4,2.9c1.5,0,2.4-1.4,2.4-3c0-1.4-0.8-2.9-2.4-2.9
			C893.1,1256,892.3,1257.5,892.3,1259"/>
		<path class="st15" d="M899.3,1255.5c0.5-0.1,1.2-0.2,1.8-0.2c1,0,1.7,0.2,2.1,0.6c0.4,0.3,0.6,0.8,0.6,1.4c0,1-0.6,1.6-1.4,1.8v0
			c0.6,0.2,0.9,0.7,1.1,1.5c0.2,1,0.4,1.7,0.6,2h-1c-0.1-0.2-0.3-0.8-0.5-1.7c-0.2-1-0.6-1.4-1.5-1.4h-0.9v3.1h-1V1255.5z
			 M900.2,1258.8h1c1,0,1.7-0.5,1.7-1.4c0-0.9-0.7-1.3-1.7-1.3c-0.5,0-0.8,0-0.9,0.1V1258.8z"/>
		<path class="st15" d="M906.4,1260.3l-0.8,2.3h-1l2.5-7.2h1.2l2.5,7.2h-1l-0.8-2.3H906.4z M908.8,1259.6l-0.7-2.1
			c-0.2-0.5-0.3-0.9-0.4-1.3h0c-0.1,0.4-0.2,0.9-0.4,1.3l-0.7,2.1H908.8z"/>
		<polygon class="st15" points="918.1,1259.2 915.2,1259.2 915.2,1261.8 918.4,1261.8 918.4,1262.6 914.3,1262.6 914.3,1255.4 
			918.3,1255.4 918.3,1256.2 915.2,1256.2 915.2,1258.5 918.1,1258.5 		"/>
		<path class="st15" d="M919.7,1255.5c0.6-0.1,1.3-0.2,2-0.2c1.4,0,2.3,0.3,3,0.9c0.7,0.6,1,1.4,1,2.6c0,1.2-0.4,2.1-1.1,2.8
			c-0.7,0.7-1.8,1-3.3,1c-0.7,0-1.3,0-1.7-0.1V1255.5z M920.6,1261.9c0.2,0,0.6,0.1,1,0.1c2,0,3.2-1.1,3.2-3.1c0-1.7-1-2.8-3-2.8
			c-0.5,0-0.9,0-1.1,0.1V1261.9z"/>
		<path class="st15" d="M927.9,1255.4v4.3c0,1.6,0.7,2.3,1.7,2.3c1.1,0,1.8-0.7,1.8-2.3v-4.3h1v4.2c0,2.2-1.2,3.1-2.8,3.1
			c-1.5,0-2.7-0.8-2.7-3.1v-4.3H927.9z"/>
		<path class="st15" d="M939.3,1262.4c-0.4,0.2-1.1,0.3-2,0.3c-2.1,0-3.7-1.3-3.7-3.7c0-2.3,1.6-3.8,3.9-3.8c0.9,0,1.5,0.2,1.8,0.3
			l-0.2,0.8c-0.4-0.2-0.9-0.3-1.5-0.3c-1.7,0-2.9,1.1-2.9,3c0,1.8,1,2.9,2.8,2.9c0.6,0,1.2-0.1,1.6-0.3L939.3,1262.4z"/>
		<path class="st15" d="M941.7,1260.3l-0.8,2.3h-1l2.5-7.2h1.2l2.5,7.2h-1l-0.8-2.3H941.7z M944.1,1259.6l-0.7-2.1
			c-0.2-0.5-0.3-0.9-0.4-1.3h0c-0.1,0.4-0.2,0.9-0.4,1.3l-0.7,2.1H944.1z"/>
		<path class="st15" d="M952.2,1262.4c-0.4,0.2-1.1,0.3-2,0.3c-2.1,0-3.7-1.3-3.7-3.7c0-2.3,1.6-3.8,3.9-3.8c0.9,0,1.5,0.2,1.8,0.3
			l-0.2,0.8c-0.4-0.2-0.9-0.3-1.5-0.3c-1.7,0-2.9,1.1-2.9,3c0,1.8,1,2.9,2.8,2.9c0.6,0,1.2-0.1,1.6-0.3L952.2,1262.4z"/>
		<rect x="953.4" y="1255.4" class="st15" width="1" height="7.2"/>
		<path class="st15" d="M962.4,1258.9c0,2.5-1.5,3.8-3.4,3.8c-2,0-3.3-1.5-3.3-3.7c0-2.3,1.5-3.8,3.4-3.8
			C961.1,1255.3,962.4,1256.8,962.4,1258.9 M956.6,1259c0,1.5,0.9,2.9,2.4,2.9c1.5,0,2.4-1.4,2.4-3c0-1.4-0.8-2.9-2.4-2.9
			C957.4,1256,956.6,1257.5,956.6,1259"/>
		<path class="st15" d="M963.6,1262.6v-7.2h1l2.4,3.7c0.5,0.8,1,1.6,1.3,2.3l0,0c-0.1-1-0.1-1.8-0.1-3v-3h0.9v7.2h-1l-2.3-3.7
			c-0.5-0.8-1-1.6-1.4-2.4l0,0c0.1,0.9,0.1,1.8,0.1,3v3.1H963.6z"/>
		<path class="st15" d="M972,1260.3l-0.8,2.3h-1l2.5-7.2h1.2l2.5,7.2h-1l-0.8-2.3H972z M974.5,1259.6l-0.7-2.1
			c-0.2-0.5-0.3-0.9-0.4-1.3h0c-0.1,0.4-0.2,0.9-0.4,1.3l-0.7,2.1H974.5z"/>
		<polygon class="st15" points="977.6,1255.4 978.5,1255.4 978.5,1261.8 981.7,1261.8 981.7,1262.6 977.6,1262.6 		"/>
		<rect x="832.5" y="1266.5" class="st16" width="153.4" height="0.5"/>
		<path class="st15" d="M837.6,1277.6c0.3,0.2,0.7,0.3,1.1,0.3c0.7,0,1-0.3,1-0.8c0-0.5-0.3-0.7-0.9-1c-0.8-0.3-1.3-0.7-1.3-1.4
			c0-0.8,0.6-1.3,1.6-1.3c0.5,0,0.9,0.1,1.1,0.2l-0.2,0.5c-0.2-0.1-0.5-0.2-0.9-0.2c-0.7,0-0.9,0.4-0.9,0.7c0,0.5,0.3,0.7,1,0.9
			c0.8,0.3,1.3,0.7,1.3,1.4c0,0.7-0.6,1.4-1.7,1.4c-0.5,0-1-0.1-1.3-0.3L837.6,1277.6z"/>
		<rect x="841.3" y="1273.5" class="st15" width="0.6" height="4.8"/>
		<path class="st15" d="M843,1273.6c0.3,0,0.7-0.1,1.2-0.1c0.6,0,1.1,0.1,1.4,0.4c0.3,0.2,0.4,0.6,0.4,1c0,0.4-0.1,0.8-0.4,1
			c-0.3,0.4-0.9,0.5-1.5,0.5c-0.2,0-0.4,0-0.5,0v1.9H843V1273.6z M843.7,1275.9c0.1,0,0.3,0.1,0.5,0.1c0.8,0,1.2-0.4,1.2-1
			c0-0.6-0.5-0.9-1.2-0.9c-0.3,0-0.5,0-0.6,0.1V1275.9z"/>
		<path class="st15" d="M848.5,1273.6c0.3-0.1,0.8-0.1,1.2-0.1c0.7,0,1.1,0.1,1.4,0.4c0.2,0.2,0.4,0.5,0.4,0.9
			c0,0.6-0.4,1.1-0.9,1.2v0c0.4,0.1,0.6,0.5,0.7,1c0.2,0.7,0.3,1.1,0.4,1.3h-0.7c-0.1-0.1-0.2-0.6-0.3-1.2c-0.1-0.7-0.4-0.9-1-0.9
			h-0.6v2.1h-0.6V1273.6z M849.1,1275.8h0.7c0.7,0,1.1-0.4,1.1-0.9c0-0.6-0.5-0.9-1.1-0.9c-0.3,0-0.5,0-0.6,0.1V1275.8z"/>
		<path class="st15" d="M852.8,1276.7c0,0.9,0.6,1.2,1.2,1.2c0.5,0,0.7-0.1,1-0.2l0.1,0.5c-0.2,0.1-0.6,0.2-1.2,0.2
			c-1.1,0-1.8-0.7-1.8-1.8s0.6-1.9,1.7-1.9c1.2,0,1.5,1,1.5,1.6c0,0.1,0,0.2,0,0.3H852.8z M854.7,1276.3c0-0.4-0.2-1-0.9-1
			c-0.7,0-0.9,0.6-1,1H854.7z"/>
		<path class="st15" d="M859.2,1273.3v4.2c0,0.3,0,0.7,0,0.9h-0.6l0-0.6h0c-0.2,0.4-0.6,0.7-1.2,0.7c-0.9,0-1.5-0.7-1.5-1.8
			c0-1.2,0.7-1.9,1.6-1.9c0.5,0,0.9,0.3,1.1,0.5h0v-2.1H859.2z M858.6,1276.3c0-0.1,0-0.2,0-0.3c-0.1-0.4-0.4-0.7-0.9-0.7
			c-0.7,0-1.1,0.6-1.1,1.3c0,0.7,0.4,1.3,1.1,1.3c0.4,0,0.8-0.3,0.9-0.8c0-0.1,0-0.2,0-0.3V1276.3z"/>
		<path class="st15" d="M864.9,1273.3v4.2c0,0.3,0,0.7,0,0.9h-0.6l0-0.6h0c-0.2,0.4-0.6,0.7-1.2,0.7c-0.9,0-1.5-0.7-1.5-1.8
			c0-1.2,0.7-1.9,1.6-1.9c0.5,0,0.9,0.3,1.1,0.5h0v-2.1H864.9z M864.3,1276.3c0-0.1,0-0.2,0-0.3c-0.1-0.4-0.4-0.7-0.9-0.7
			c-0.7,0-1.1,0.6-1.1,1.3c0,0.7,0.4,1.3,1.1,1.3c0.4,0,0.8-0.3,0.9-0.8c0-0.1,0-0.2,0-0.3V1276.3z"/>
		<path class="st15" d="M866.4,1276.7c0,0.9,0.6,1.2,1.2,1.2c0.5,0,0.7-0.1,1-0.2l0.1,0.5c-0.2,0.1-0.6,0.2-1.2,0.2
			c-1.1,0-1.8-0.7-1.8-1.8s0.6-1.9,1.7-1.9c1.2,0,1.5,1,1.5,1.6c0,0.1,0,0.2,0,0.3H866.4z M868.3,1276.3c0-0.4-0.2-1-0.9-1
			c-0.7,0-0.9,0.6-1,1H868.3z"/>
		<path class="st15" d="M874.7,1278.2c-0.2,0.1-0.7,0.2-1.3,0.2c-1.4,0-2.5-0.9-2.5-2.5c0-1.5,1.1-2.5,2.6-2.5c0.6,0,1,0.1,1.2,0.2
			l-0.2,0.5c-0.2-0.1-0.6-0.2-1-0.2c-1.2,0-1.9,0.7-1.9,2c0,1.2,0.7,1.9,1.9,1.9c0.4,0,0.8-0.1,1-0.2L874.7,1278.2z"/>
		<path class="st15" d="M878.7,1276.6c0,1.3-0.9,1.8-1.8,1.8c-1,0-1.7-0.7-1.7-1.8c0-1.2,0.8-1.8,1.8-1.8
			C878,1274.8,878.7,1275.5,878.7,1276.6 M875.8,1276.6c0,0.8,0.4,1.3,1.1,1.3c0.6,0,1.1-0.6,1.1-1.3c0-0.6-0.3-1.3-1.1-1.3
			C876.2,1275.3,875.8,1276,875.8,1276.6"/>
		<rect x="879.5" y="1273.3" class="st15" width="0.6" height="5.1"/>
		<path class="st15" d="M881.6,1276.7c0,0.9,0.6,1.2,1.2,1.2c0.5,0,0.7-0.1,1-0.2l0.1,0.5c-0.2,0.1-0.6,0.2-1.2,0.2
			c-1.1,0-1.8-0.7-1.8-1.8s0.6-1.9,1.7-1.9c1.2,0,1.5,1,1.5,1.6c0,0.1,0,0.2,0,0.3H881.6z M883.5,1276.3c0-0.4-0.2-1-0.9-1
			c-0.7,0-0.9,0.6-1,1H883.5z"/>
		<path class="st15" d="M888,1274.9c0,0.3,0,0.5,0,1v2c0,0.8-0.2,1.3-0.5,1.6c-0.3,0.3-0.8,0.4-1.3,0.4c-0.4,0-0.9-0.1-1.2-0.3
			l0.2-0.5c0.2,0.1,0.6,0.3,1,0.3c0.7,0,1.1-0.3,1.1-1.2v-0.4h0c-0.2,0.3-0.6,0.6-1.1,0.6c-0.9,0-1.5-0.7-1.5-1.7
			c0-1.2,0.8-1.8,1.6-1.8c0.6,0,1,0.3,1.1,0.6h0l0-0.5H888z M887.3,1276.3c0-0.1,0-0.2,0-0.3c-0.1-0.4-0.4-0.7-0.9-0.7
			c-0.6,0-1.1,0.5-1.1,1.3c0,0.7,0.4,1.2,1.1,1.2c0.4,0,0.8-0.2,0.9-0.6c0-0.1,0.1-0.2,0.1-0.3V1276.3z"/>
		<path class="st15" d="M889.7,1273.9c0,0.2-0.2,0.4-0.4,0.4c-0.2,0-0.4-0.2-0.4-0.4c0-0.2,0.2-0.4,0.4-0.4
			C889.5,1273.5,889.7,1273.7,889.7,1273.9 M889,1274.9h0.6v3.5H889V1274.9z"/>
		<path class="st15" d="M893.9,1276.6c0,1.3-0.9,1.8-1.8,1.8c-1,0-1.7-0.7-1.7-1.8c0-1.2,0.8-1.8,1.8-1.8
			C893.2,1274.8,893.9,1275.5,893.9,1276.6 M891.1,1276.6c0,0.8,0.4,1.3,1.1,1.3c0.6,0,1.1-0.6,1.1-1.3c0-0.6-0.3-1.3-1.1-1.3
			C891.4,1275.3,891.1,1276,891.1,1276.6"/>
		<path class="st15" d="M894.6,1277.7c0.2,0.1,0.5,0.3,0.9,0.3c0.5,0,0.7-0.2,0.7-0.5c0-0.3-0.2-0.5-0.7-0.6c-0.6-0.2-0.9-0.6-0.9-1
			c0-0.6,0.5-1,1.2-1c0.4,0,0.7,0.1,0.9,0.2l-0.2,0.5c-0.1-0.1-0.4-0.2-0.7-0.2c-0.4,0-0.6,0.2-0.6,0.5c0,0.3,0.2,0.4,0.7,0.6
			c0.6,0.2,0.9,0.5,0.9,1c0,0.6-0.5,1-1.3,1c-0.4,0-0.7-0.1-1-0.2L894.6,1277.7z"/>
		<rect x="899.3" y="1273" class="st15" width="0.5" height="7.2"/>
		<polygon class="st15" points="902.5,1273.5 905.2,1273.5 905.2,1274.1 903.2,1274.1 903.2,1275.7 905,1275.7 905,1276.2 
			903.2,1276.2 903.2,1278.4 902.5,1278.4 		"/>
		<path class="st15" d="M908.8,1277.4c0,0.4,0,0.7,0,0.9h-0.6l0-0.6h0c-0.2,0.3-0.5,0.6-1.2,0.6c-0.6,0-1.2-0.3-1.2-1.5v-2h0.6v1.9
			c0,0.7,0.2,1.1,0.8,1.1c0.4,0,0.7-0.3,0.9-0.6c0-0.1,0.1-0.2,0.1-0.3v-2.1h0.6V1277.4z"/>
		<path class="st15" d="M909.9,1275.8c0-0.4,0-0.7,0-0.9h0.6l0,0.6h0c0.2-0.3,0.6-0.7,1.2-0.7c0.5,0,1.3,0.3,1.3,1.5v2.1h-0.6v-2
			c0-0.6-0.2-1-0.8-1c-0.4,0-0.8,0.3-0.9,0.6c0,0.1,0,0.2,0,0.3v2.1h-0.6V1275.8z"/>
		<path class="st15" d="M917,1273.3v4.2c0,0.3,0,0.7,0,0.9h-0.6l0-0.6h0c-0.2,0.4-0.6,0.7-1.2,0.7c-0.9,0-1.5-0.7-1.5-1.8
			c0-1.2,0.7-1.9,1.6-1.9c0.5,0,0.9,0.3,1.1,0.5h0v-2.1H917z M916.4,1276.3c0-0.1,0-0.2,0-0.3c-0.1-0.4-0.4-0.7-0.9-0.7
			c-0.7,0-1.1,0.6-1.1,1.3c0,0.7,0.4,1.3,1.1,1.3c0.4,0,0.8-0.3,0.9-0.8c0-0.1,0-0.2,0-0.3V1276.3z"/>
		<path class="st15" d="M920.1,1278.4l-0.1-0.4h0c-0.2,0.3-0.6,0.5-1.1,0.5c-0.7,0-1.1-0.5-1.1-1c0-0.8,0.8-1.3,2.1-1.3v-0.1
			c0-0.3-0.1-0.8-0.8-0.8c-0.3,0-0.7,0.1-0.9,0.3l-0.1-0.4c0.3-0.2,0.7-0.3,1.2-0.3c1.1,0,1.4,0.7,1.4,1.4v1.3c0,0.3,0,0.6,0.1,0.8
			H920.1z M920,1276.6c-0.7,0-1.5,0.1-1.5,0.8c0,0.4,0.3,0.6,0.6,0.6c0.5,0,0.8-0.3,0.9-0.6c0-0.1,0-0.1,0-0.2V1276.6z"/>
		<path class="st15" d="M924.2,1278.2c-0.2,0.1-0.5,0.2-1,0.2c-1.1,0-1.8-0.7-1.8-1.8c0-1.1,0.7-1.8,1.9-1.8c0.4,0,0.7,0.1,0.9,0.2
			l-0.1,0.5c-0.2-0.1-0.4-0.2-0.7-0.2c-0.8,0-1.3,0.6-1.3,1.3c0,0.8,0.5,1.3,1.2,1.3c0.4,0,0.6-0.1,0.8-0.2L924.2,1278.2z"/>
		<path class="st15" d="M925.7,1273.9c0,0.2-0.2,0.4-0.4,0.4c-0.2,0-0.4-0.2-0.4-0.4c0-0.2,0.2-0.4,0.4-0.4
			C925.5,1273.5,925.7,1273.7,925.7,1273.9 M925,1274.9h0.6v3.5H925V1274.9z"/>
		<path class="st15" d="M929.9,1276.6c0,1.3-0.9,1.8-1.8,1.8c-1,0-1.7-0.7-1.7-1.8c0-1.2,0.8-1.8,1.8-1.8
			C929.2,1274.8,929.9,1275.5,929.9,1276.6 M927.1,1276.6c0,0.8,0.4,1.3,1.1,1.3c0.6,0,1.1-0.6,1.1-1.3c0-0.6-0.3-1.3-1.1-1.3
			C927.4,1275.3,927.1,1276,927.1,1276.6 M929.1,1273.4l-0.9,1h-0.5l0.6-1H929.1z"/>
		<path class="st15" d="M930.7,1275.8c0-0.4,0-0.7,0-0.9h0.6l0,0.6h0c0.2-0.3,0.6-0.7,1.2-0.7c0.5,0,1.3,0.3,1.3,1.5v2.1h-0.6v-2
			c0-0.6-0.2-1-0.8-1c-0.4,0-0.8,0.3-0.9,0.6c0,0.1,0,0.2,0,0.3v2.1h-0.6V1275.8z"/>
		<path class="st15" d="M936.4,1273.6c0.3-0.1,0.8-0.1,1.2-0.1c0.7,0,1.1,0.1,1.4,0.4c0.2,0.2,0.4,0.5,0.4,0.9
			c0,0.6-0.4,1.1-0.9,1.2v0c0.4,0.1,0.6,0.5,0.7,1c0.2,0.7,0.3,1.1,0.4,1.3h-0.7c-0.1-0.1-0.2-0.6-0.3-1.2c-0.1-0.7-0.4-0.9-1-0.9
			H937v2.1h-0.6V1273.6z M937,1275.8h0.7c0.7,0,1.1-0.4,1.1-0.9c0-0.6-0.5-0.9-1.1-0.9c-0.3,0-0.5,0-0.6,0.1V1275.8z"/>
		<path class="st15" d="M940.7,1276.7c0,0.9,0.6,1.2,1.2,1.2c0.5,0,0.7-0.1,1-0.2l0.1,0.5c-0.2,0.1-0.6,0.2-1.2,0.2
			c-1.1,0-1.8-0.7-1.8-1.8s0.6-1.9,1.7-1.9c1.2,0,1.5,1,1.5,1.6c0,0.1,0,0.2,0,0.3H940.7z M942.6,1276.3c0-0.4-0.2-1-0.9-1
			c-0.7,0-0.9,0.6-1,1H942.6z"/>
		<path class="st15" d="M944.7,1273.9c0,0.2-0.2,0.4-0.4,0.4c-0.2,0-0.4-0.2-0.4-0.4c0-0.2,0.2-0.4,0.4-0.4
			C944.6,1273.5,944.7,1273.7,944.7,1273.9 M944,1274.9h0.6v3.5H944V1274.9z"/>
		<path class="st15" d="M945.7,1275.8c0-0.4,0-0.7,0-0.9h0.6l0,0.6h0c0.2-0.3,0.6-0.7,1.2-0.7c0.5,0,1.3,0.3,1.3,1.5v2.1h-0.6v-2
			c0-0.6-0.2-1-0.8-1c-0.4,0-0.8,0.3-0.9,0.6c0,0.1,0,0.2,0,0.3v2.1h-0.6V1275.8z"/>
		<path class="st15" d="M951.8,1278.4l-0.1-0.4h0c-0.2,0.3-0.6,0.5-1.1,0.5c-0.7,0-1.1-0.5-1.1-1c0-0.8,0.8-1.3,2.1-1.3v-0.1
			c0-0.3-0.1-0.8-0.8-0.8c-0.3,0-0.7,0.1-0.9,0.3l-0.1-0.4c0.3-0.2,0.7-0.3,1.2-0.3c1.1,0,1.4,0.7,1.4,1.4v1.3c0,0.3,0,0.6,0.1,0.8
			H951.8z M951.7,1276.6c-0.7,0-1.5,0.1-1.5,0.8c0,0.4,0.3,0.6,0.6,0.6c0.5,0,0.8-0.3,0.9-0.6c0-0.1,0-0.1,0-0.2V1276.6z"/>
		<rect x="953.4" y="1273.3" class="st15" width="0.6" height="5.1"/>
		<path class="st15" d="M958.2,1273.3v4.2c0,0.3,0,0.7,0,0.9h-0.6l0-0.6h0c-0.2,0.4-0.6,0.7-1.2,0.7c-0.9,0-1.5-0.7-1.5-1.8
			c0-1.2,0.7-1.9,1.6-1.9c0.5,0,0.9,0.3,1.1,0.5h0v-2.1H958.2z M957.5,1276.3c0-0.1,0-0.2,0-0.3c-0.1-0.4-0.4-0.7-0.9-0.7
			c-0.7,0-1.1,0.6-1.1,1.3c0,0.7,0.4,1.3,1.1,1.3c0.4,0,0.8-0.3,0.9-0.8c0-0.1,0-0.2,0-0.3V1276.3z"/>
		<path class="st15" d="M962.5,1276.6c0,1.3-0.9,1.8-1.8,1.8c-1,0-1.7-0.7-1.7-1.8c0-1.2,0.8-1.8,1.8-1.8
			C961.8,1274.8,962.5,1275.5,962.5,1276.6 M959.7,1276.6c0,0.8,0.4,1.3,1.1,1.3c0.6,0,1.1-0.6,1.1-1.3c0-0.6-0.3-1.3-1.1-1.3
			C960,1275.3,959.7,1276,959.7,1276.6"/>
		<path class="st15" d="M964.8,1277.6c0.3,0.2,0.7,0.3,1.1,0.3c0.7,0,1-0.3,1-0.8c0-0.5-0.3-0.7-0.9-1c-0.8-0.3-1.3-0.7-1.3-1.4
			c0-0.8,0.6-1.3,1.6-1.3c0.5,0,0.9,0.1,1.1,0.2l-0.2,0.5c-0.2-0.1-0.5-0.2-0.9-0.2c-0.7,0-0.9,0.4-0.9,0.7c0,0.5,0.3,0.7,1,0.9
			c0.8,0.3,1.3,0.7,1.3,1.4c0,0.7-0.6,1.4-1.7,1.4c-0.5,0-1-0.1-1.3-0.3L964.8,1277.6z"/>
		<path class="st15" d="M971.7,1276.6c0,1.3-0.9,1.8-1.8,1.8c-1,0-1.7-0.7-1.7-1.8c0-1.2,0.8-1.8,1.8-1.8
			C971,1274.8,971.7,1275.5,971.7,1276.6 M968.9,1276.6c0,0.8,0.4,1.3,1.1,1.3c0.6,0,1.1-0.6,1.1-1.3c0-0.6-0.3-1.3-1.1-1.3
			C969.2,1275.3,968.9,1276,968.9,1276.6"/>
		<rect x="972.6" y="1273.3" class="st15" width="0.6" height="5.1"/>
		<path class="st15" d="M976.3,1278.4l-0.1-0.4h0c-0.2,0.3-0.6,0.5-1.1,0.5c-0.7,0-1.1-0.5-1.1-1c0-0.8,0.8-1.3,2.1-1.3v-0.1
			c0-0.3-0.1-0.8-0.8-0.8c-0.3,0-0.7,0.1-0.9,0.3l-0.1-0.4c0.3-0.2,0.7-0.3,1.2-0.3c1.1,0,1.4,0.7,1.4,1.4v1.3c0,0.3,0,0.6,0.1,0.8
			H976.3z M976.2,1276.6c-0.7,0-1.5,0.1-1.5,0.8c0,0.4,0.3,0.6,0.6,0.6c0.5,0,0.8-0.3,0.9-0.6c0-0.1,0-0.1,0-0.2V1276.6z"/>
		<path class="st15" d="M977.8,1276c0-0.4,0-0.8,0-1.1h0.6l0,0.7h0c0.2-0.5,0.6-0.8,1-0.8c0.1,0,0.1,0,0.2,0v0.6c-0.1,0-0.1,0-0.2,0
			c-0.5,0-0.8,0.3-0.9,0.8c0,0.1,0,0.2,0,0.3v1.9h-0.6V1276z"/>
		<path class="st15" d="M981,1273.9c0,0.2-0.2,0.4-0.4,0.4c-0.2,0-0.4-0.2-0.4-0.4c0-0.2,0.2-0.4,0.4-0.4
			C980.8,1273.5,981,1273.7,981,1273.9 M980.3,1274.9h0.6v3.5h-0.6V1274.9z"/>
		<path class="st17" d="M767.8,1289.1l52.6-39.9c-11.8-14.4-31.2-23.8-53.2-23.8c-21.6,0-40.7,9.1-52.6,23.1L767.8,1289.1z"/>
	</g>
	<g class="st0">
		<defs>
			<path id="SVGID_21_" d="M716.7,1249.5l51.3,39.2l50.8-38.5c-11.4-13.9-30.1-23-51.3-23C746.7,1227.2,728.2,1236,716.7,1249.5"/>
		</defs>
		<clipPath id="SVGID_22_">
			<use xlink:href="#SVGID_21_"  style="overflow:visible;"/>
		</clipPath>
		
			<radialGradient id="SVGID_23_" cx="233.6772" cy="1077.5795" r="1.7279" gradientTransform="matrix(-0.6256 23.6593 -24.2409 -0.6106 27039.3906 -3632.4429)" gradientUnits="userSpaceOnUse">
			<stop  offset="0" style="stop-color:#CDD74E"/>
			<stop  offset="0.158" style="stop-color:#CDD74E"/>
			<stop  offset="1" style="stop-color:#769034"/>
		</radialGradient>
		<polygon class="st18" points="716.8,1224.6 715.1,1288.7 818.8,1291.3 820.5,1227.2 		"/>
	</g>
	<g class="st0">
		<defs>
			<path id="SVGID_24_" d="M757.1,1207.9l-0.3,0.8l-34.3,0.2l0.1,0.1h-0.1l25.3,19c0,0,0,0,0.1,0l0.3,0.2l-9.4,32.7l28.1-18.5
				l29.9,18.3l-11.2-32.9l26-18.9h-0.1l0.1,0l-35.2-0.4l-0.4-1.1l-8.6-27.5L757.1,1207.9z"/>
		</defs>
		<clipPath id="SVGID_25_">
			<use xlink:href="#SVGID_24_"  style="overflow:visible;"/>
		</clipPath>
		
			<linearGradient id="SVGID_26_" gradientUnits="userSpaceOnUse" x1="228.7419" y1="1079.7557" x2="230.4698" y2="1079.7557" gradientTransform="matrix(-0.2783 43.7312 -44.8061 -0.2716 49210.6094 -8527.7939)">
			<stop  offset="0" style="stop-color:#5F7DBB"/>
			<stop  offset="0.3417" style="stop-color:#5F7DBB"/>
			<stop  offset="0.6324" style="stop-color:#4E619F"/>
			<stop  offset="0.9532" style="stop-color:#3C395E"/>
			<stop  offset="1" style="stop-color:#3C395E"/>
		</linearGradient>
		<polygon class="st19" points="722.5,1179.4 722,1260.9 811.5,1261.4 812.1,1179.9 		"/>
	</g>
	<polygon class="st6" points="771.7,1291.7 769.6,1290.3 816.8,1253.6 773.9,1291.7 	"/>
	<polygon class="st7" points="710.7,1255.3 713.8,1250 761.5,1286 	"/>
	<g class="st0">
		<defs>
			<rect id="SVGID_27_" x="706.9" y="1179.9" width="278.2" height="111.8"/>
		</defs>
		<clipPath id="SVGID_28_">
			<use xlink:href="#SVGID_27_"  style="overflow:visible;"/>
		</clipPath>
		<path class="st20" d="M787.9,1227.2c0,0,20.3,5.6,33.6,20.4l3.9-2.5c0,0-11.7-12.6-34.8-19.5L787.9,1227.2z"/>
		<path class="st21" d="M743.4,1225.6c0,0-26.2,7.7-36.5,27l2.4,1.6c0,0,10.3-19.8,36.5-27L743.4,1225.6z"/>
	</g>
	<g class="st0">
		<path class="st14" d="M107.9,336.9h15v53.5h26.2v12.5h-41.2V336.9z"/>
		<path class="st14" d="M173.3,386l-4.7,16.9h-15.5l20.2-66h19.6l20.5,66h-16.1l-5.1-16.9H173.3z M190,374.8l-4.1-14
			c-1.2-3.9-2.3-8.8-3.3-12.7h-0.2c-1,3.9-2,8.9-3,12.7l-3.9,14H190z"/>
		<path class="st14" d="M290.4,401.1c-2.7,1.4-8.9,2.8-16.9,2.8c-22.8,0-34.6-14.2-34.6-33c0-22.5,16.1-35,36-35
			c7.7,0,13.6,1.6,16.3,2.9l-3,11.8c-3-1.3-7.2-2.4-12.5-2.4c-11.8,0-21,7.1-21,21.8c0,13.2,7.8,21.5,21.1,21.5
			c4.5,0,9.5-1,12.4-2.2L290.4,401.1z"/>
		<path class="st14" d="M315.1,336.9v66h-15v-66H315.1z"/>
		<path class="st14" d="M367.3,375H343v15.7h27.1v12.2h-42.1v-66h40.7v12.2H343v13.7h24.3V375z"/>
		<path class="st14" d="M380.4,402.9v-66h17.4l13.7,24.2c3.9,7,7.8,15.2,10.8,22.6h0.3c-1-8.7-1.3-17.6-1.3-27.5v-19.3H435v66h-15.7
			l-14.1-25.5c-3.9-7-8.2-15.6-11.5-23.3l-0.3,0.1c0.4,8.7,0.6,18,0.6,28.8v19.9H380.4z"/>
		<path class="st14" d="M496.4,401.1c-2.7,1.4-8.9,2.8-16.9,2.8c-22.8,0-34.6-14.2-34.6-33c0-22.5,16.1-35,36-35
			c7.7,0,13.6,1.6,16.3,2.9l-3,11.8c-3-1.3-7.2-2.4-12.5-2.4c-11.8,0-21,7.1-21,21.8c0,13.2,7.8,21.5,21.1,21.5
			c4.5,0,9.5-1,12.4-2.2L496.4,401.1z"/>
		<path class="st14" d="M521.1,336.9v66h-15v-66H521.1z"/>
		<path class="st14" d="M549.4,386l-4.7,16.9h-15.5l20.2-66H569l20.5,66h-16.1l-5.1-16.9H549.4z M566.2,374.8l-4.1-14
			c-1.2-3.9-2.3-8.8-3.3-12.7h-0.2c-1,3.9-2,8.9-3,12.7l-3.9,14H566.2z"/>
	</g>
	<g class="st0">
		<rect x="99.6" y="543.5" width="616.3" height="4"/>
	</g>
	<g class="st0">
		<path class="st14" d="M104.5,615.5c-2.8,0-5.4-2.8-5.5-9.2c0-6.5,2.9-9.4,5.9-9.4c3.2,0,5.5,2.8,5.5,9
			C110.4,612.4,108.1,615.5,104.5,615.5L104.5,615.5z M104.7,614.4c3,0,4.3-3.4,4.3-8.3c0-4.7-1.3-8.1-4.3-8.1
			c-2.6,0-4.3,3.3-4.3,8.1C100.3,611.1,102,614.4,104.7,614.4L104.7,614.4z"/>
		<path class="st14" d="M118,598.6L118,598.6l-3,1.7l-0.3-1.1l3.4-2h1.2v18H118V598.6z"/>
		<path class="st14" d="M143.8,595.6v16.6c0,1,0,2.1,0.1,3.1h-1.2l-0.1-2.5h-0.1c-0.7,1.5-2.3,2.8-4.7,2.8c-3.3,0-5.7-2.7-5.7-6.7
			c0-4.4,2.7-7.2,6-7.2c2.3,0,3.8,1.2,4.3,2.4h0.1v-8.4H143.8z M142.5,607.2c0-0.4,0-0.8-0.1-1.2c-0.4-1.8-2-3.2-4.2-3.2
			c-2.9,0-4.7,2.5-4.7,5.9c0,3,1.5,5.7,4.6,5.7c1.9,0,3.7-1.3,4.3-3.5c0.1-0.3,0.1-0.7,0.1-1.1V607.2z"/>
		<path class="st14" d="M148.5,608.4c0,4.2,2.3,5.9,5.1,5.9c1.9,0,2.9-0.4,3.7-0.7l0.3,1c-0.5,0.3-1.9,0.9-4.2,0.9
			c-3.8,0-6.2-2.8-6.2-6.7c0-4.4,2.5-7.2,6-7.2c4.3,0,5.2,4.1,5.2,6c0,0.4,0,0.6-0.1,0.8H148.5z M156.9,607.4c0-1.9-0.7-4.6-4-4.6
			c-2.9,0-4.2,2.6-4.4,4.6H156.9z"/>
		<path class="st14" d="M167.7,605.1c0-1.2,0-2.1-0.1-3.2h1.2l0.1,2.3h0.1c0.9-1.5,2.1-2.6,4.3-2.6c1.8,0,3.2,1.2,3.8,2.9h0.1
			c0.4-0.8,0.9-1.4,1.4-1.8c0.9-0.7,1.7-1.1,3.2-1.1c1.3,0,4.3,0.7,4.3,5.8v7.8h-1.3v-7.7c0-3-1.2-4.8-3.5-4.8c-1.7,0-3,1.2-3.5,2.6
			c-0.1,0.4-0.2,0.8-0.2,1.3v8.5h-1.3v-8.3c0-2.4-1.1-4.1-3.3-4.1c-1.8,0-3.2,1.4-3.7,3c-0.1,0.4-0.2,0.8-0.2,1.3v8.2h-1.3V605.1z"
			/>
		<path class="st14" d="M198.7,612.1c0,1.1,0,2.1,0.2,3.2h-1.2l-0.2-1.9h-0.1c-0.7,1-2.1,2.2-4.3,2.2c-2.7,0-3.9-1.9-3.9-3.6
			c0-3.1,2.7-4.9,8.1-4.9v-0.4c0-1.3-0.2-3.9-3.4-3.9c-1.2,0-2.4,0.3-3.3,1l-0.4-1c1.2-0.8,2.7-1.1,3.9-1.1c3.8,0,4.6,2.9,4.6,5.2
			V612.1z M197.3,608.1c-2.9-0.1-6.7,0.4-6.7,3.5c0,1.9,1.3,2.8,2.7,2.8c2.2,0,3.5-1.4,3.9-2.7c0.1-0.3,0.1-0.6,0.1-0.8V608.1z"/>
		<path class="st14" d="M202.9,605.9c0-1.3,0-2.7-0.1-4h1.2l0.1,2.7h0.1c0.6-1.7,2-3,3.8-3c0.2,0,0.4,0,0.6,0.1v1.2
			c-0.2,0-0.4,0-0.6,0c-1.8,0-3.1,1.6-3.5,3.7c-0.1,0.4-0.1,0.8-0.1,1.3v7.3h-1.3V605.9z"/>
		<path class="st14" d="M209.3,614.4l7.2-9.4c0.5-0.6,1-1.3,1.5-1.9V603h-8.1v-1.1h9.7l0,0.9l-7.2,9.4c-0.5,0.6-0.9,1.2-1.4,1.8v0.1
			h8.6v1.1h-10.3V614.4z"/>
		<path class="st14" d="M227.2,615.5c-3.4,0-6.1-2.7-6.1-6.8c0-4.5,3-7.1,6.3-7.1c3.7,0,6.2,2.8,6.2,6.8
			C233.6,613.4,230.2,615.5,227.2,615.5L227.2,615.5z M227.3,614.4c2.8,0,4.9-2.5,4.9-5.9c0-2.4-1.4-5.8-4.9-5.8
			c-3.4,0-4.9,3-4.9,5.9C222.5,611.9,224.6,614.4,227.3,614.4L227.3,614.4z"/>
		<path class="st14" d="M253.6,595.6v16.6c0,1,0,2.1,0.1,3.1h-1.2l-0.1-2.5h-0.1c-0.7,1.5-2.3,2.8-4.7,2.8c-3.3,0-5.7-2.7-5.7-6.7
			c0-4.4,2.7-7.2,6-7.2c2.3,0,3.8,1.2,4.3,2.4h0.1v-8.4H253.6z M252.3,607.2c0-0.4,0-0.8-0.1-1.2c-0.4-1.8-2-3.2-4.2-3.2
			c-2.9,0-4.7,2.5-4.7,5.9c0,3,1.5,5.7,4.6,5.7c1.9,0,3.7-1.3,4.3-3.5c0.1-0.3,0.1-0.7,0.1-1.1V607.2z"/>
		<path class="st14" d="M258.2,608.4c0,4.2,2.3,5.9,5.1,5.9c1.9,0,2.9-0.4,3.7-0.7l0.3,1c-0.5,0.3-1.9,0.9-4.2,0.9
			c-3.8,0-6.2-2.8-6.2-6.7c0-4.4,2.5-7.2,6-7.2c4.3,0,5.2,4.1,5.2,6c0,0.4,0,0.6-0.1,0.8H258.2z M266.7,607.4c0-1.9-0.7-4.6-4-4.6
			c-2.9,0-4.2,2.6-4.4,4.6H266.7z"/>
		<path class="st14" d="M276.5,615.2v-0.8l1.7-1.7c5-4.9,7.2-7.4,7.2-10.5c0-2-0.9-4.1-3.9-4.1c-1.7,0-3,0.9-3.8,1.5l-0.5-0.9
			c1.2-1.1,2.7-1.8,4.6-1.8c3.7,0,5,2.8,5,4.9c0,3.5-2.6,6.4-7.1,10.8l-1.3,1.3v0.1h8.8v1.1H276.5z"/>
		<path class="st14" d="M295.3,615.5c-2.8,0-5.4-2.8-5.5-9.2c0-6.5,2.9-9.4,5.9-9.4c3.2,0,5.5,2.8,5.5,9
			C301.2,612.4,298.9,615.5,295.3,615.5L295.3,615.5z M295.5,614.4c3,0,4.3-3.4,4.3-8.3c0-4.7-1.3-8.1-4.3-8.1
			c-2.6,0-4.3,3.3-4.3,8.1C291.1,611.1,292.8,614.4,295.5,614.4L295.5,614.4z"/>
		<path class="st14" d="M308.8,598.6L308.8,598.6l-3,1.7l-0.3-1.1l3.4-2h1.2v18h-1.3V598.6z"/>
		<path class="st14" d="M318.5,614.3c0.5,0.1,1.2,0,2-0.1c1.5-0.2,2.8-0.9,3.9-2.1c1.2-1.3,2.1-3.1,2.4-5.7l-0.1,0
			c-1.1,1.5-2.7,2.3-4.6,2.3c-3.3,0-5.1-2.6-5.1-5.4c0-3.3,2.3-6.3,5.8-6.3c3.1,0,5.4,2.6,5.4,7.5c0,4.1-1.4,6.9-3.1,8.5
			c-1.2,1.2-2.8,2-4.2,2.3c-1,0.2-1.8,0.3-2.4,0.2V614.3z M322.5,598c-2.5,0-4.2,2.2-4.2,5.1c0,2.7,1.7,4.4,4,4.4
			c1.9,0,3.5-1,4.3-2.3c0.1-0.2,0.2-0.5,0.2-0.8C326.9,600.7,325.5,598,322.5,598L322.5,598z"/>
	</g>
	<g class="st0">
		<path class="st14" d="M102.5,1186.2c1.6-0.3,3.4-0.5,5.4-0.5c3.8,0,6.7,1,8.5,2.9c1.7,1.7,2.6,4.1,2.6,7.3c0,3.1-0.8,5.8-2.7,7.9
			c-1.8,2-5,3.2-9,3.2c-1.6,0-3.1,0-4.7-0.2V1186.2z M104,1205.6c0.8,0.1,2.1,0.2,3.4,0.2c6.7,0,10-3.8,10-9.8c0.1-5.3-2.9-9-9.6-9
			c-1.6,0-2.9,0.2-3.8,0.3V1205.6z"/>
		<path class="st14" d="M128.4,1207.2c-3.9,0-6.8-3-6.8-7.7c0-5.1,3.4-7.9,7.1-7.9c4.1,0,6.9,3.1,6.9,7.7
			C135.5,1204.8,131.7,1207.2,128.4,1207.2L128.4,1207.2z M128.5,1205.9c3.1,0,5.6-2.8,5.6-6.6c0-2.7-1.5-6.5-5.5-6.5
			c-3.8,0-5.5,3.4-5.5,6.6C123,1203.1,125.4,1205.9,128.5,1205.9L128.5,1205.9z"/>
		<path class="st14" d="M149.6,1206.2c-0.7,0.3-2.2,1-4.4,1c-4.3,0-7.2-3.1-7.2-7.6c0-4.8,3.2-8,7.7-8c1.8,0,3.4,0.5,3.9,0.9
			l-0.5,1.2c-0.7-0.4-1.9-0.9-3.5-0.9c-4,0-6.1,3-6.1,6.6c0,3.9,2.5,6.5,5.9,6.5c1.8,0,2.9-0.5,3.7-0.9L149.6,1206.2z"/>
		<path class="st14" d="M164.7,1203.2c0,1.3,0,2.5,0.1,3.6h-1.4l-0.1-2.7h-0.1c-0.7,1.4-2.5,3-5.1,3c-1.9,0-5.1-1-5.1-6.6v-8.7h1.5
			v8.4c0,3.2,1,5.6,3.9,5.6c2.2,0,3.8-1.5,4.4-3c0.2-0.5,0.3-1.1,0.3-1.6v-9.3h1.5V1203.2z"/>
		<path class="st14" d="M169.7,1195.5c0-1.4,0-2.4-0.1-3.6h1.4l0.1,2.6h0.1c1-1.7,2.4-3,4.9-3c2.1,0,3.6,1.4,4.3,3.2h0.1
			c0.4-0.9,1-1.6,1.5-2c1-0.8,2-1.2,3.5-1.2c1.5,0,4.9,0.8,4.9,6.5v8.8h-1.5v-8.7c0-3.4-1.3-5.3-3.9-5.3c-1.9,0-3.3,1.4-3.9,3
			c-0.1,0.4-0.2,0.9-0.2,1.5v9.6h-1.5v-9.4c0-2.7-1.3-4.7-3.7-4.7c-2,0-3.6,1.6-4.1,3.4c-0.1,0.4-0.2,0.9-0.2,1.5v9.2h-1.5V1195.5z"
			/>
		<path class="st14" d="M195.4,1199.2c0,4.8,2.6,6.7,5.7,6.7c2.2,0,3.3-0.4,4.1-0.8l0.4,1.2c-0.6,0.3-2.1,1-4.7,1
			c-4.3,0-7-3.1-7-7.5c0-5,2.9-8.1,6.7-8.1c4.9,0,5.8,4.6,5.8,6.7c0,0.4,0,0.6-0.1,0.9H195.4z M204.9,1198c0-2.1-0.8-5.2-4.4-5.2
			c-3.3,0-4.7,2.9-5,5.2H204.9z"/>
		<path class="st14" d="M210.3,1195.5c0-1.4,0-2.4-0.1-3.6h1.4l0.1,2.7h0.1c0.8-1.7,2.7-3,5.1-3c1.4,0,5.2,0.7,5.2,6.3v9h-1.5v-8.8
			c0-2.7-1.1-5.2-4.1-5.2c-2.1,0-3.9,1.5-4.5,3.5c-0.1,0.3-0.2,0.8-0.2,1.3v9.3h-1.5V1195.5z"/>
		<path class="st14" d="M229,1188.6v3.3h4.3v1.2H229v9.7c0,1.9,0.6,3.1,2.2,3.1c0.8,0,1.3-0.1,1.7-0.2l0.2,1.1
			c-0.5,0.2-1.2,0.3-2.1,0.3c-1.1,0-2-0.3-2.5-1c-0.7-0.8-0.9-2.1-0.9-3.6v-9.4H225v-1.2h2.5v-2.7L229,1188.6z"/>
		<path class="st14" d="M242,1207.2c-3.9,0-6.8-3-6.8-7.7c0-5.1,3.4-7.9,7.1-7.9c4.1,0,6.9,3.1,6.9,7.7
			C249.2,1204.8,245.4,1207.2,242,1207.2L242,1207.2z M242.1,1205.9c3.1,0,5.6-2.8,5.6-6.6c0-2.7-1.5-6.5-5.5-6.5
			c-3.8,0-5.5,3.4-5.5,6.6C236.7,1203.1,239,1205.9,242.1,1205.9L242.1,1205.9z"/>
		<path class="st14" d="M265.4,1207.2c-3.9,0-6.8-3-6.8-7.7c0-5.1,3.4-7.9,7.1-7.9c4.1,0,6.9,3.1,6.9,7.7
			C272.5,1204.8,268.7,1207.2,265.4,1207.2L265.4,1207.2z M265.5,1205.9c3.1,0,5.6-2.8,5.6-6.6c0-2.7-1.5-6.5-5.5-6.5
			c-3.8,0-5.5,3.4-5.5,6.6C260,1203.1,262.4,1205.9,265.5,1205.9L265.5,1205.9z"/>
		<path class="st14" d="M276.3,1196.4c0-1.5,0-3-0.1-4.5h1.4l0.1,3h0.1c0.7-1.9,2.2-3.4,4.2-3.4c0.2,0,0.4,0,0.6,0.1v1.4
			c-0.2,0-0.4,0-0.7,0c-2.1,0-3.5,1.8-3.9,4.2c-0.1,0.4-0.1,0.9-0.1,1.4v8.2h-1.5V1196.4z"/>
		<path class="st14" d="M286.4,1188.9c-0.7,0-1.2-0.6-1.2-1.3c0-0.7,0.5-1.3,1.2-1.3s1.2,0.6,1.2,1.3
			C287.6,1188.3,287.2,1188.9,286.4,1188.9L286.4,1188.9z M285.7,1206.8v-14.9h1.5v14.9H285.7z"/>
		<path class="st14" d="M304.1,1204.6c0,3.8-0.8,5.7-2.1,6.9c-1.4,1.3-3.4,1.8-5.1,1.8c-1.7,0-3.6-0.4-4.8-1.3l0.5-1.2
			c1.1,0.7,2.5,1.2,4.4,1.2c3.1,0,5.4-1.6,5.4-6v-2.1h-0.1c-0.8,1.5-2.5,2.9-5.2,2.9c-3.8,0-6.4-3.3-6.4-7.3c0-5.2,3.4-7.9,6.7-7.9
			c3,0,4.4,1.6,5,2.9h0.1l0.1-2.5h1.4c-0.1,1.1-0.1,2.3-0.1,3.9V1204.6z M302.6,1197.6c0-0.6,0-1-0.2-1.5c-0.6-1.8-2.2-3.4-4.6-3.4
			c-3.2,0-5.3,2.6-5.3,6.5c0,3.4,1.8,6.2,5.3,6.2c2,0,3.9-1.2,4.6-3.4c0.2-0.5,0.2-1.1,0.2-1.6V1197.6z"/>
		<path class="st14" d="M309.6,1188.9c-0.7,0-1.2-0.6-1.2-1.3c0-0.7,0.5-1.3,1.2-1.3s1.2,0.6,1.2,1.3
			C310.9,1188.3,310.4,1188.9,309.6,1188.9L309.6,1188.9z M309,1206.8v-14.9h1.5v14.9H309z"/>
		<path class="st14" d="M315.5,1195.5c0-1.4,0-2.4-0.1-3.6h1.4l0.1,2.7h0.1c0.8-1.7,2.7-3,5.1-3c1.4,0,5.2,0.7,5.2,6.3v9h-1.5v-8.8
			c0-2.7-1.1-5.2-4.1-5.2c-2.1,0-3.9,1.5-4.5,3.5c-0.1,0.3-0.2,0.8-0.2,1.3v9.3h-1.5V1195.5z"/>
		<path class="st14" d="M341.4,1203.3c0,1.2,0,2.4,0.2,3.5h-1.4l-0.2-2.1H340c-0.7,1.2-2.4,2.5-4.8,2.5c-3,0-4.4-2.1-4.4-4.1
			c0-3.5,3-5.5,9.1-5.5v-0.4c0-1.5-0.3-4.4-3.8-4.4c-1.3,0-2.7,0.3-3.8,1.1l-0.5-1.1c1.4-0.9,3-1.3,4.4-1.3c4.3,0,5.2,3.2,5.2,5.9
			V1203.3z M339.9,1198.8c-3.3-0.1-7.6,0.4-7.6,4c0,2.1,1.4,3.1,3,3.1c2.5,0,3.9-1.5,4.4-3c0.1-0.3,0.2-0.7,0.2-0.9V1198.8z"/>
		<path class="st14" d="M346.3,1184.7h1.5v22.1h-1.5V1184.7z"/>
		<path class="st14" d="M371.6,1184.7v18.7c0,1.1,0,2.4,0.1,3.5h-1.3l-0.1-2.8h-0.1c-0.8,1.6-2.5,3.2-5.3,3.2
			c-3.7,0-6.4-3.1-6.4-7.5c0-5,3-8.1,6.7-8.1c2.6,0,4.2,1.3,4.9,2.6h0.1v-9.5H371.6z M370.1,1197.8c0-0.4,0-0.9-0.2-1.4
			c-0.5-2-2.3-3.6-4.7-3.6c-3.3,0-5.3,2.8-5.3,6.7c0,3.4,1.7,6.4,5.2,6.4c2.1,0,4.2-1.4,4.8-3.9c0.1-0.4,0.2-0.8,0.2-1.2V1197.8z"/>
		<path class="st14" d="M376.8,1199.2c0,4.8,2.6,6.7,5.7,6.7c2.2,0,3.3-0.4,4.1-0.8l0.4,1.2c-0.6,0.3-2.1,1-4.7,1
			c-4.3,0-7-3.1-7-7.5c0-5,2.9-8.1,6.7-8.1c4.9,0,5.8,4.6,5.8,6.7c0,0.4,0,0.6-0.1,0.9H376.8z M386.3,1198c0-2.1-0.8-5.2-4.4-5.2
			c-3.3,0-4.7,2.9-5,5.2H386.3z"/>
	</g>
	<g class="st0">
		<path class="st22" d="M104,436.9c5.1-0.8,11.7-1.3,18.7-1.3c11.6,0,19.2,2.1,25.1,6.5c6.4,4.7,10.4,12.3,10.4,23.1
			c0,11.7-4.3,19.8-10.2,24.8c-6.4,5.4-16.3,7.9-28.2,7.9c-7.2,0-12.3-0.5-15.7-0.9V436.9z M117.9,486.9c1.2,0.3,3.1,0.3,4.8,0.3
			c12.5,0.1,20.7-6.8,20.7-21.4c0.1-12.7-7.4-19.4-19.3-19.4c-3.1,0-5.1,0.3-6.3,0.5V486.9z"/>
		<path class="st22" d="M203.6,471.4h-22.5V486h25.2v11.4h-39.1v-61.2h37.8v11.4h-23.9v12.7h22.5V471.4z"/>
		<path class="st22" d="M215.7,436.1h13.9v49.6h24.3v11.6h-38.2V436.1z"/>
		<path class="st22" d="M294.7,481.6l-4.4,15.7H276l18.7-61.2h18.2l19,61.2h-14.9l-4.7-15.7H294.7z M310.2,471.3l-3.8-13
			c-1.1-3.6-2.2-8.2-3.1-11.8h-0.2c-0.9,3.6-1.8,8.3-2.8,11.8l-3.6,13H310.2z"/>
		<path class="st22" d="M340,436.9c4.3-0.7,10.3-1.3,18.7-1.3c8.5,0,14.6,1.6,18.7,4.9c3.9,3.1,6.5,8.2,6.5,14.2s-2,11.1-5.6,14.5
			c-4.7,4.5-11.7,6.4-19.9,6.4c-1.8,0-3.5-0.1-4.7-0.3v21.9H340V436.9z M353.7,464.7c1.2,0.3,2.6,0.4,4.6,0.4
			c7.4,0,11.9-3.7,11.9-10c0-5.6-3.9-9-10.8-9c-2.8,0-4.7,0.3-5.7,0.5V464.7z"/>
		<path class="st22" d="M392.8,436.9c4.5-0.7,11.1-1.3,18.4-1.3c9.1,0,15.4,1.4,19.8,4.8c3.6,2.9,5.6,7.2,5.6,12.8
			c0,7.8-5.5,13.2-10.8,15.1v0.3c4.3,1.7,6.6,5.8,8.2,11.4c1.9,6.9,3.8,14.9,5,17.3h-14.2c-1-1.7-2.5-6.7-4.3-14.3
			c-1.6-7.6-4.3-9.7-9.9-9.8h-4.2v24.1h-13.7V436.9z M406.5,463.3h5.4c6.9,0,11-3.5,11-8.8c0-5.6-3.8-8.4-10.2-8.5
			c-3.4,0-5.3,0.3-6.3,0.5V463.3z"/>
		<path class="st22" d="M483,471.4h-22.5V486h25.2v11.4h-39.1v-61.2h37.8v11.4h-23.9v12.7H483V471.4z"/>
		<path class="st22" d="M495.1,497.3v-61.2h16.2l12.7,22.4c3.6,6.4,7.3,14.1,10,21h0.3c-0.9-8.1-1.2-16.3-1.2-25.5v-17.9h12.7v61.2
			h-14.5l-13.1-23.6c-3.6-6.5-7.6-14.4-10.6-21.6l-0.3,0.1c0.4,8.1,0.5,16.7,0.5,26.7v18.4H495.1z"/>
		<path class="st22" d="M557.8,436.9c5.1-0.8,11.7-1.3,18.7-1.3c11.6,0,19.2,2.1,25.1,6.5c6.4,4.7,10.4,12.3,10.4,23.1
			c0,11.7-4.3,19.8-10.2,24.8c-6.4,5.4-16.3,7.9-28.2,7.9c-7.2,0-12.3-0.5-15.7-0.9V436.9z M571.7,486.9c1.2,0.3,3.1,0.3,4.8,0.3
			c12.5,0.1,20.7-6.8,20.7-21.4c0.1-12.7-7.4-19.4-19.3-19.4c-3.1,0-5.1,0.3-6.3,0.5V486.9z"/>
		<path class="st22" d="M634.9,436.1v61.2H621v-61.2H634.9z"/>
		<path class="st22" d="M643,489.9l29.2-42v-0.4h-26.4v-11.4h44.4v8l-28.5,41.4v0.4h29v11.4H643V489.9z"/>
		<path class="st22" d="M713.5,481.6l-4.4,15.7h-14.3l18.7-61.2h18.2l19,61.2h-14.9l-4.7-15.7H713.5z M729.1,471.3l-3.8-13
			c-1.1-3.6-2.2-8.2-3.1-11.8H722c-0.9,3.6-1.8,8.3-2.8,11.8l-3.6,13H729.1z"/>
		<path class="st22" d="M770.8,436.1h13.8v38.7c0,17.4-8.4,23.5-21.8,23.5c-3.2,0-7.4-0.5-10.1-1.5l1.5-11.2
			c1.9,0.6,4.4,1.1,7.1,1.1c5.8,0,9.4-2.6,9.4-12.2V436.1z"/>
		<path class="st22" d="M832.6,471.4h-22.5V486h25.2v11.4h-39.1v-61.2H834v11.4h-23.9v12.7h22.5V471.4z"/>
	</g>
	<g class="st0">
		<defs>
			<rect id="SVGID_29_" x="99.9" y="1235.8" width="354.8" height="55.6"/>
		</defs>
		<clipPath id="SVGID_30_">
			<use xlink:href="#SVGID_29_"  style="overflow:visible;"/>
		</clipPath>
		<path class="st23" d="M121.6,1284.4v-14h-3.2v11.7c-1-0.6-2-1.2-3-1.7v-24.8c0.7,0.9,2.3,1.2,3.4,1.3c1.8,0.2,3.7,0.3,5.6,0.2
			c1.8,0,3.7-0.1,5.5-0.4c1.1-0.2,2.6-0.4,3.3-1.3v0.6v0v24.5c-1.1,0.5-2.1,1.1-3,1.7v-19.2h-3.2v21.5c-0.4,0.3-0.8,0.7-1.2,1v-18.7
			h-3.2v18.7C122.4,1285,122,1284.7,121.6,1284.4"/>
		<path class="st23" d="M145.9,1280.8c-7.2-0.1-14.9,2.7-21.5,10.6c-6.6-8-14.2-10.8-21.5-10.6v-2.1c8.3-0.1,15.6,3.3,21.5,9.7
			c5.9-6.3,13.2-9.8,21.5-9.7V1280.8z"/>
		<path class="st24" d="M101.9,1280.8c-0.6,0-1.3,0.1-1.9,0.2l0-28.9c3.2-0.1,10.1,1.5,14.4,2.9v2.6c-4-1.4-9.8-3-12.5-3l0,21.7h0
			v1.3l0,1.2h0V1280.8z"/>
		<path class="st24" d="M134.4,1255c4.2-1.4,11.2-3,14.4-2.9l0,28.9c-0.6-0.1-1.3-0.1-1.9-0.2v-2.1l0,0l0-2.5v-0.1l0-21.6
			c-2.7,0-8.5,1.6-12.5,3V1255z"/>
		<path class="st24" d="M118.8,1254.2l-3.6-4l8.4-14.4l0.2,10.2c-0.6,0.2-1,0.7-1,1.3c0,0.8,0.6,1.4,1.4,1.4c0.8,0,1.4-0.6,1.4-1.4
			c0-0.6-0.4-1.2-1-1.3l-0.2-10.2l9.2,14.1l-3.4,4.1c1.5,0.2,2.5,0.5,2.5,0.8c0,0.6-3.6,1.2-8.1,1.2c-4.5,0.1-8.2-0.4-8.2-1
			C116.3,1254.8,117.3,1254.5,118.8,1254.2"/>
		<path class="st23" d="M171.8,1272.6h2.5c3.9,0,4.5-3.2,4.5-5.1c0-1.3-0.4-4.9-5-4.9h-2V1272.6z M165.5,1257.4h10.3
			c6.8,0,9.2,5,9.2,10.2c0,6.3-3.3,10.2-10.4,10.2h-9.1V1257.4z"/>
	</g>
	<polygon class="st25" points="188.8,1257.4 205.7,1257.4 205.7,1262.7 195.1,1262.7 195.1,1265.2 204.7,1265.2 204.7,1270.1 
		195.1,1270.1 195.1,1272.6 206,1272.6 206,1277.9 188.8,1277.9 	"/>
	<path class="st25" d="M220.5,1270.6l-1.8-6.3h-0.1l-2,6.3H220.5z M215.6,1257.4h6.2l7.4,20.4h-6.5l-0.9-2.9h-6.5l-0.9,2.9h-6.3
		L215.6,1257.4z"/>
	<polygon class="st25" points="231.6,1257.4 238.1,1257.4 244,1268.4 244.1,1268.4 244.1,1257.4 250,1257.4 250,1277.9 
		243.9,1277.9 237.6,1266.7 237.6,1266.7 237.6,1277.9 231.6,1277.9 	"/>
	<g class="st0">
		<defs>
			<rect id="SVGID_31_" x="99.9" y="1235.8" width="354.8" height="55.6"/>
		</defs>
		<clipPath id="SVGID_32_">
			<use xlink:href="#SVGID_31_"  style="overflow:visible;"/>
		</clipPath>
		<path class="st26" d="M259.3,1271c0,0.5,0.1,1,0.2,1.3c0.5,1.2,1.8,1.5,3,1.5c1,0,2.6-0.3,2.6-1.9c0-1.1-0.9-1.3-4.4-2.3
			c-3.2-0.9-6.9-1.8-6.9-5.9c0-4.7,4-6.8,8.2-6.8c4.4,0,8.4,1.7,8.5,6.7h-6c0.1-0.8-0.2-1.3-0.7-1.6c-0.5-0.4-1.2-0.5-1.9-0.5
			c-0.9,0-2.3,0.2-2.3,1.4c0.1,1.5,3,1.8,5.9,2.6c2.9,0.8,5.8,2.1,5.8,5.9c0,5.3-4.9,7-9.4,7c-2.3,0-8.9-0.8-9-7.4H259.3z"/>
	</g>
	<polygon class="st25" points="284.3,1257.2 294,1257.2 294,1260.4 288.2,1260.4 288.2,1261.9 293.2,1261.9 293.2,1264.9 
		288.2,1264.9 288.2,1269.7 284.3,1269.7 	"/>
	<g class="st0">
		<defs>
			<rect id="SVGID_33_" x="99.9" y="1235.8" width="354.8" height="55.6"/>
		</defs>
		<clipPath id="SVGID_34_">
			<use xlink:href="#SVGID_33_"  style="overflow:visible;"/>
		</clipPath>
		<path class="st27" d="M302,1266.9c1,0,2.5-0.6,2.5-3.4c0-2.8-1.5-3.4-2.5-3.4c-1,0-2.5,0.6-2.5,3.4
			C299.5,1266.2,301,1266.9,302,1266.9 M302,1256.9c3.8,0,6.3,2.7,6.3,6.6c0,3.8-2.5,6.6-6.3,6.6c-3.8,0-6.3-2.7-6.3-6.6
			C295.6,1259.6,298.2,1256.9,302,1256.9"/>
		<path class="st27" d="M314.4,1262.6h2c0.7,0,1.7-0.1,1.7-1.2c0-0.8-0.4-1.2-1.9-1.2h-1.8V1262.6z M310.6,1257.2h7.3
			c2.2,0,4.1,1.2,4.1,3.6c0,1.3-0.6,2.7-1.9,3.1c1.1,0.4,1.7,1.6,1.8,3.1c0.1,0.6,0.1,2.1,0.4,2.7h-3.9c-0.2-0.6-0.3-1.3-0.3-1.9
			c-0.1-1.2-0.2-2.4-1.7-2.4h-2.1v4.4h-3.9V1257.2z"/>
	</g>
	<rect x="335.4" y="1257.4" class="st25" width="6.3" height="20.4"/>
	<polygon class="st25" points="346.4,1257.4 355.4,1257.4 358.3,1269.4 358.4,1269.4 361.3,1257.4 370.3,1257.4 370.3,1277.9 
		364.3,1277.9 364.3,1264.7 364.3,1264.7 360.7,1277.9 356,1277.9 352.5,1264.7 352.4,1264.7 352.4,1277.9 346.4,1277.9 	"/>
	<g class="st0">
		<defs>
			<rect id="SVGID_35_" x="99.9" y="1235.8" width="354.8" height="55.6"/>
		</defs>
		<clipPath id="SVGID_36_">
			<use xlink:href="#SVGID_35_"  style="overflow:visible;"/>
		</clipPath>
		<path class="st28" d="M381.4,1266.8h2.4c1.6,0,3.3-0.1,3.3-2.2c0-1.9-1.4-2-3-2h-2.8V1266.8z M375.1,1257.4h10.5
			c5.6,0,7.5,4.1,7.5,7c0,5-3.3,7.3-8,7.3h-3.7v6.2h-6.3V1257.4z"/>
	</g>
	<path class="st25" d="M405.1,1270.6l-1.8-6.3h-0.1l-2,6.3H405.1z M400.2,1257.4h6.2l7.4,20.4h-6.5l-0.9-2.9h-6.5l-0.9,2.9h-6.3
		L400.2,1257.4z"/>
	<g class="st0">
		<defs>
			<rect id="SVGID_37_" x="99.9" y="1235.8" width="354.8" height="55.6"/>
		</defs>
		<clipPath id="SVGID_38_">
			<use xlink:href="#SVGID_37_"  style="overflow:visible;"/>
		</clipPath>
		<path class="st29" d="M428.5,1265c-0.1-0.7-0.7-3-3.3-3c-2.9,0-3.9,2.9-3.9,5.6c0,2.7,0.9,5.6,3.9,5.6c2.1,0,2.9-1.5,3.3-3.4h6.2
			c0,4.1-3.4,8.5-9.3,8.5c-6.6,0-10.4-4.7-10.4-10.7c0-6.4,4.1-10.7,10.4-10.7c5.6,0,8.7,3,9.2,8.1H428.5z"/>
	</g>
	<polygon class="st25" points="437,1257.4 437,1262.7 442.7,1262.7 442.7,1277.9 449,1277.9 449,1262.7 454.7,1262.7 454.7,1257.4 	
		"/>
	<rect x="284.4" y="1274.1" class="st25" width="38" height="3.7"/>
	<g class="st0">
		<path class="st14" d="M104.4,302.1l1-3.2c0.5,0.4,1.2,0.7,2.2,1s1.9,0.4,2.8,0.4c1.3,0,2.4-0.3,3.2-1c0.8-0.7,1.2-1.6,1.2-2.7
			c0-1-0.3-1.8-0.9-2.5s-1.7-1.6-3.1-2.7c-1.5-1.1-2.6-2.1-3.2-3c-0.7-0.9-1-2.1-1-3.5c0-2.2,0.7-4,2.1-5.2c1.4-1.3,3.2-1.9,5.5-1.9
			c2.5,0,4.2,0.2,5,0.7l-1,3.3c-0.3-0.3-0.8-0.5-1.6-0.7c-0.7-0.2-1.4-0.3-2.1-0.3c-1.4,0-2.6,0.3-3.4,1s-1.2,1.6-1.2,2.8
			c0,0.5,0.1,1,0.4,1.5c0.3,0.5,0.6,0.9,1.1,1.3c0.4,0.4,1.4,1.1,2.8,2.2c1.4,1,2.4,2.1,3.1,3.2c0.7,1.1,1,2.3,1,3.8
			c0,2.2-0.8,4-2.3,5.2c-1.5,1.2-3.5,1.8-5.9,1.8c-0.9,0-1.9-0.1-3-0.4C105.9,302.7,105,302.5,104.4,302.1z"/>
		<path class="st14" d="M124.8,294.4c-0.1,0.5-0.2,1.1-0.2,1.6c0,1.5,0.4,2.6,1.2,3.4s2,1.2,3.5,1.2c1.3,0,2.7-0.5,4-1.5l-0.3,3.3
			c-1.8,0.6-3.4,0.9-4.8,0.9c-4.7,0-7-2.6-7-7.8c0-3.1,1-5.7,2.9-7.8c2-2.1,4.4-3.2,7.4-3.2c1.8,0,3.2,0.4,4.3,1.1
			c1.1,0.8,1.6,1.9,1.6,3.3c0,2-0.8,3.5-2.5,4.7s-3.7,1.7-6.1,1.7C127.3,295.3,125.9,295,124.8,294.4z M125.3,292.1
			c0.9,0.4,1.9,0.6,3,0.6c1.8,0,3.2-0.3,4.3-0.9c1.1-0.6,1.7-1.4,1.7-2.5c0-1.4-1-2.1-2.9-2.1C128.5,287.2,126.5,288.8,125.3,292.1z
			"/>
		<path class="st14" d="M152.2,288c-0.7-0.5-1.5-0.8-2.4-0.8c-1.1,0-2.2,0.5-3.3,1.6c-1,1.1-1.7,2.3-1.9,3.8l-1.8,10.4h-3.2
			l3.2-18.1h3.2l-0.5,2.9c1.6-2.1,3.5-3.2,5.8-3.2c0.4,0,1,0.1,1.8,0.2L152.2,288z"/>
		<path class="st14" d="M154.8,302.9l2.7-15.4h-2.4l0.6-2.6h5.5l-3.2,18H154.8z M160,277.8c0.6,0,1.1,0.2,1.6,0.6
			c0.4,0.4,0.7,1,0.7,1.6c0,0.6-0.2,1.1-0.7,1.6c-0.4,0.4-1,0.6-1.6,0.6c-0.6,0-1.1-0.2-1.6-0.6c-0.4-0.4-0.7-1-0.7-1.6
			c0-0.6,0.2-1.2,0.7-1.6C158.8,278,159.4,277.8,160,277.8z"/>
		<path class="st14" d="M168.3,294.4c-0.1,0.5-0.2,1.1-0.2,1.6c0,1.5,0.4,2.6,1.2,3.4s2,1.2,3.5,1.2c1.3,0,2.7-0.5,4-1.5l-0.3,3.3
			c-1.8,0.6-3.4,0.9-4.8,0.9c-4.7,0-7-2.6-7-7.8c0-3.1,1-5.7,2.9-7.8c2-2.1,4.4-3.2,7.4-3.2c1.8,0,3.2,0.4,4.3,1.1
			c1.1,0.8,1.6,1.9,1.6,3.3c0,2-0.8,3.5-2.5,4.7s-3.7,1.7-6.1,1.7C170.8,295.3,169.4,295,168.3,294.4z M168.9,292.1
			c0.9,0.4,1.9,0.6,3,0.6c1.8,0,3.2-0.3,4.3-0.9c1.1-0.6,1.7-1.4,1.7-2.5c0-1.4-1-2.1-2.9-2.1C172.1,287.2,170,288.8,168.9,292.1z"
			/>
		<path class="st14" d="M187.5,298.2c0.7,0,1.3,0.2,1.8,0.7s0.7,1.1,0.7,1.8c0,0.7-0.2,1.3-0.7,1.8s-1.1,0.8-1.8,0.8
			c-0.7,0-1.3-0.3-1.8-0.8c-0.5-0.5-0.7-1.1-0.7-1.8c0-0.7,0.2-1.3,0.7-1.8C186.2,298.4,186.8,298.2,187.5,298.2z M189,284.9
			c0.7,0,1.3,0.2,1.8,0.7c0.5,0.5,0.7,1.1,0.7,1.8c0,0.7-0.2,1.3-0.7,1.8s-1.1,0.8-1.8,0.8c-0.7,0-1.3-0.3-1.8-0.8
			c-0.5-0.5-0.7-1.1-0.7-1.8c0-0.7,0.2-1.3,0.7-1.8C187.7,285.1,188.3,284.9,189,284.9z"/>
		<path class="st14" d="M214.4,308.6c-1,0.9-2.8,1.4-5.3,1.4c-1.5,0-2.8-0.4-3.7-1.3s-1.4-2-1.4-3.5c0-1.1,0.2-2.1,0.6-3.1
			c0.4-1,1.1-1.9,2.1-2.7l3.5-3.1c1.4-1.4,2.1-2.8,2.1-4.3h1.7c0,0.1,0.1,0.4,0.1,0.8c0.1,0.4,0.1,0.7,0.1,0.9
			c0,0.8-0.2,1.6-0.5,2.4c-0.4,0.8-0.9,1.5-1.5,2.1l-3.1,3c-1.2,1.3-1.8,2.5-1.8,3.8c0,1.6,0.9,2.3,2.8,2.3c1.4,0,2.4-0.3,3.3-1
			L214.4,308.6z M213.3,289.3c-0.7,0-1.2-0.2-1.7-0.7c-0.5-0.5-0.7-1-0.7-1.7c0-0.7,0.2-1.2,0.7-1.7c0.5-0.5,1-0.7,1.7-0.7
			c0.7,0,1.2,0.2,1.7,0.7c0.5,0.5,0.7,1,0.7,1.7c0,0.7-0.2,1.2-0.7,1.7C214.6,289.1,214,289.3,213.3,289.3z"/>
		<path class="st14" d="M237.6,278.6l-0.9,3.3c-0.9-0.7-2.3-1.1-4-1.1c-2.7,0-4.9,1.3-6.7,4c-1.8,2.6-2.7,5.5-2.7,8.6
			c0,4.6,1.9,7,5.8,7c2,0,3.9-0.8,5.8-2.4l-0.3,3.6c-1.4,1.3-3.5,1.9-6.4,1.9c-2.7,0-4.8-0.8-6.3-2.5c-1.5-1.7-2.2-4-2.2-6.9
			c0-4.5,1.2-8.3,3.7-11.5c2.5-3.1,5.6-4.7,9.5-4.7C234.9,277.8,236.4,278.1,237.6,278.6z"/>
		<path class="st14" d="M239.2,296.3c0-3.2,0.9-6,2.8-8.3c1.9-2.3,4.3-3.5,7.2-3.5c2.2,0,3.9,0.6,5,1.8c1.2,1.2,1.7,2.9,1.7,5.1
			c0,1.7-0.3,3.5-1,5.4c-0.7,1.9-1.8,3.4-3.4,4.7s-3.5,1.9-5.6,1.9c-2.2,0-3.8-0.6-5-1.8S239.2,298.5,239.2,296.3z M242.6,296.1
			c0,3,1.3,4.6,3.8,4.6c1.9,0,3.4-0.9,4.5-2.8c1.1-1.8,1.7-4,1.7-6.4c0-2.9-1.3-4.4-3.8-4.4c-1.3,0-2.4,0.5-3.4,1.4
			s-1.7,2.1-2.1,3.5C242.8,293.5,242.6,294.9,242.6,296.1z M253.5,276.7l-3.8,5.6h-2.4l2.9-5.6H253.5z"/>
		<path class="st14" d="M278.5,302.9l2-11.4c0.1-0.4,0.1-0.9,0.1-1.3c0-2-1-3-3-3c-0.7,0-1.5,0.2-2.2,0.7s-1.3,1-1.7,1.7l-2.4,13.4
			H268l2.3-12.8c0-0.2,0.1-0.4,0.1-0.5c0-1.6-1.1-2.3-3.2-2.3c-0.6,0-1.4,0.2-2.1,0.7c-0.8,0.5-1.4,1-1.8,1.6l-2.4,13.3h-3.3
			l2.3-13.2c0.1-0.4,0.1-0.9,0.1-1.6c0-1.2-0.1-2.3-0.3-3l3.1-0.6c0.2,0.9,0.3,1.7,0.4,2.4c0.4-0.7,1.2-1.3,2.2-1.7
			c1-0.4,2.1-0.6,3.2-0.6c2.6,0,4.2,0.8,5,2.4c0.5-0.7,1.3-1.3,2.3-1.7s2.1-0.7,3.1-0.7c3.3,0,4.9,1.6,4.9,4.7
			c0,0.5-0.1,1.1-0.2,1.6l-2.1,12.1H278.5z"/>
		<path class="st14" d="M286.5,296.3c0-3.2,0.9-6,2.8-8.3c1.9-2.3,4.3-3.5,7.2-3.5c2.2,0,3.9,0.6,5,1.8c1.2,1.2,1.7,2.9,1.7,5.1
			c0,1.7-0.3,3.5-1,5.4c-0.7,1.9-1.8,3.4-3.4,4.7s-3.5,1.9-5.6,1.9c-2.2,0-3.8-0.6-5-1.8S286.5,298.5,286.5,296.3z M289.8,296.1
			c0,3,1.3,4.6,3.8,4.6c1.9,0,3.4-0.9,4.5-2.8c1.1-1.8,1.7-4,1.7-6.4c0-2.9-1.3-4.4-3.8-4.4c-1.3,0-2.4,0.5-3.4,1.4
			s-1.7,2.1-2.1,3.5C290.1,293.5,289.8,294.9,289.8,296.1z"/>
		<path class="st14" d="M330,302.9l-0.8-5.2h-8.9l-2.9,5.2h-3.8l14.5-25.1h0.9l4.9,25.1H330z M327.3,284.7l-5.7,10.6h7.2
			L327.3,284.7z"/>
		<path class="st14" d="M339.7,302l-1.4,8.1H335l3.5-19.8c0.2-0.9,0.2-1.7,0.2-2.5c0-0.9-0.1-1.7-0.3-2.5l3.2-0.6
			c0.1,0.1,0.2,0.9,0.3,2.3c0.5-0.7,1.3-1.2,2.3-1.6c1-0.4,1.9-0.7,2.8-0.7c2.2,0,3.9,0.6,5.1,1.7c1.1,1.1,1.7,2.8,1.7,5
			c0,3.4-0.9,6.3-2.8,8.6c-1.9,2.3-4.4,3.5-7.5,3.5c-0.7,0-1.4-0.1-2.3-0.4C340.4,302.7,339.9,302.4,339.7,302z M340.1,299.4
			c0.2,0.4,0.6,0.7,1.2,0.9c0.6,0.2,1.2,0.4,1.7,0.4c2.4,0,4.2-0.8,5.4-2.4c1.3-1.6,1.9-3.8,1.9-6.5c0-1.5-0.4-2.6-1.1-3.3
			s-1.9-1.1-3.4-1.1c-0.7,0-1.4,0.2-2.3,0.7c-0.9,0.5-1.5,0.9-1.8,1.4L340.1,299.4z"/>
		<path class="st14" d="M368.6,288c-0.7-0.5-1.5-0.8-2.4-0.8c-1.1,0-2.2,0.5-3.3,1.6c-1,1.1-1.7,2.3-1.9,3.8l-1.8,10.4H356l3.2-18.1
			h3.2l-0.5,2.9c1.6-2.1,3.5-3.2,5.8-3.2c0.4,0,1,0.1,1.8,0.2L368.6,288z"/>
		<path class="st14" d="M374.2,294.4c-0.1,0.5-0.2,1.1-0.2,1.6c0,1.5,0.4,2.6,1.2,3.4s2,1.2,3.5,1.2c1.3,0,2.7-0.5,4-1.5l-0.3,3.3
			c-1.8,0.6-3.4,0.9-4.8,0.9c-4.7,0-7-2.6-7-7.8c0-3.1,1-5.7,2.9-7.8c2-2.1,4.4-3.2,7.4-3.2c1.8,0,3.2,0.4,4.3,1.1
			c1.1,0.8,1.6,1.9,1.6,3.3c0,2-0.8,3.5-2.5,4.7s-3.7,1.7-6.1,1.7C376.7,295.3,375.3,295,374.2,294.4z M374.7,292.1
			c0.9,0.4,1.9,0.6,3,0.6c1.8,0,3.2-0.3,4.3-0.9c1.1-0.6,1.7-1.4,1.7-2.5c0-1.4-1-2.1-2.9-2.1C378,287.2,375.9,288.8,374.7,292.1z"
			/>
		<path class="st14" d="M399.8,302.9l1.9-10.5c0.2-0.9,0.3-1.7,0.3-2.3c0-1.9-1-2.9-3-2.9c-0.8,0-1.6,0.2-2.5,0.7
			c-0.9,0.5-1.6,1-2.1,1.6l-2.3,13.4h-3.2l2.4-13.7c0.1-0.3,0.1-0.7,0.1-1.1c0-1.1-0.1-2.1-0.4-3l3.1-0.6c0.3,1.6,0.4,2.5,0.4,2.7
			c1.4-1.8,3.4-2.7,5.9-2.7c3.3,0,4.9,1.7,4.9,5c0,0.7-0.1,1.4-0.2,2.2l-1.9,11.2H399.8z"/>
		<path class="st14" d="M419,302.9l0.4-2.1c-1.3,1.6-3.1,2.4-5.3,2.4c-2,0-3.5-0.6-4.6-1.8c-1.1-1.2-1.7-2.8-1.7-4.9
			c0-3.5,0.9-6.4,2.8-8.6c1.9-2.2,4.3-3.4,7.3-3.4c1.7,0,3,0.7,3.9,2.1l1.7-9.2h3.1l-4.4,25.5H419z M421.2,289.9
			c0-0.1-0.1-0.4-0.4-0.9c-0.3-0.5-0.7-0.9-1.2-1.2c-0.5-0.3-0.9-0.4-1.4-0.4c-2,0-3.6,0.8-5,2.4s-2,3.7-2,6.2
			c0,3.2,1.3,4.8,3.9,4.8c1.2,0,2.3-0.6,3.3-1.7c1-1.2,1.7-2.7,2-4.5L421.2,289.9z"/>
		<path class="st14" d="M430.9,294.4c-0.1,0.5-0.2,1.1-0.2,1.6c0,1.5,0.4,2.6,1.2,3.4s2,1.2,3.5,1.2c1.3,0,2.7-0.5,4-1.5l-0.3,3.3
			c-1.8,0.6-3.4,0.9-4.8,0.9c-4.7,0-7-2.6-7-7.8c0-3.1,1-5.7,2.9-7.8c2-2.1,4.4-3.2,7.4-3.2c1.8,0,3.2,0.4,4.3,1.1
			c1.1,0.8,1.6,1.9,1.6,3.3c0,2-0.8,3.5-2.5,4.7s-3.7,1.7-6.1,1.7C433.4,295.3,432,295,430.9,294.4z M431.4,292.1
			c0.9,0.4,1.9,0.6,3,0.6c1.8,0,3.2-0.3,4.3-0.9c1.1-0.6,1.7-1.4,1.7-2.5c0-1.4-1-2.1-2.9-2.1C434.7,287.2,432.6,288.8,431.4,292.1z
			"/>
		<path class="st14" d="M456.5,302.9l1.9-10.5c0.2-0.9,0.3-1.7,0.3-2.3c0-1.9-1-2.9-3-2.9c-0.8,0-1.6,0.2-2.5,0.7
			c-0.9,0.5-1.6,1-2.1,1.6l-2.3,13.4h-3.2l2.4-13.7c0.1-0.3,0.1-0.7,0.1-1.1c0-1.1-0.1-2.1-0.4-3l3.1-0.6c0.3,1.6,0.4,2.5,0.4,2.7
			c1.4-1.8,3.4-2.7,5.9-2.7c3.3,0,4.9,1.7,4.9,5c0,0.7-0.1,1.4-0.2,2.2l-1.9,11.2H456.5z"/>
		<path class="st14" d="M481.7,300.9l-0.4,2.4c-3.6,0-5.4-1.3-5.4-4c0-0.8,0.3-2.6,0.8-5.4l3.2-16.4h3.3l-3.1,15.4
			c-0.6,3.2-1,5.2-1,6C479.3,300.2,480.1,300.9,481.7,300.9z"/>
		<path class="st14" d="M485.8,296.3c0-3.2,0.9-6,2.8-8.3c1.9-2.3,4.3-3.5,7.2-3.5c2.2,0,3.9,0.6,5,1.8c1.2,1.2,1.7,2.9,1.7,5.1
			c0,1.7-0.3,3.5-1,5.4c-0.7,1.9-1.8,3.4-3.4,4.7s-3.5,1.9-5.6,1.9c-2.2,0-3.8-0.6-5-1.8S485.8,298.5,485.8,296.3z M489.2,296.1
			c0,3,1.3,4.6,3.8,4.6c1.9,0,3.4-0.9,4.5-2.8c1.1-1.8,1.7-4,1.7-6.4c0-2.9-1.3-4.4-3.8-4.4c-1.3,0-2.4,0.5-3.4,1.4
			s-1.7,2.1-2.1,3.5C489.4,293.5,489.2,294.9,489.2,296.1z"/>
		<path class="st14" d="M503.3,301.9l1.7-3c0.4,0.4,1.1,0.8,1.9,1.2c0.8,0.4,1.5,0.5,2.1,0.5c1,0,1.8-0.3,2.5-0.8
			c0.7-0.5,1-1.3,1-2.2c0-0.5-0.2-0.9-0.5-1.3c-0.3-0.4-0.9-0.8-1.8-1.3l-2.4-1.3c-0.7-0.4-1.3-0.9-1.6-1.6c-0.4-0.6-0.5-1.3-0.5-2
			c0-1.7,0.7-3,2-4c1.3-1,2.9-1.5,4.8-1.5c1.3,0,2.9,0.4,4.8,1.2l-1.4,3c-1.1-1-2.3-1.5-3.6-1.5c-0.8,0-1.6,0.2-2.2,0.6
			c-0.6,0.4-0.9,1-0.9,1.7c0,0.5,0.2,1,0.5,1.3c0.3,0.4,1,0.8,1.8,1.2l2.4,1.3c0.7,0.4,1.3,0.9,1.6,1.5c0.4,0.6,0.5,1.3,0.5,2
			c0,1.9-0.7,3.5-2.1,4.6c-1.4,1.1-3.2,1.7-5.3,1.7C506.5,303.3,504.8,302.8,503.3,301.9z"/>
		<path class="st14" d="M544.4,303.3l-9.7-17.5l-2.9,17.2h-3.4l4.4-24.7h1.3l9.5,16.8l2.9-16.8h3.3l-4.4,25.1H544.4z"/>
		<path class="st14" d="M551.9,302.9l2.7-15.4h-2.4l0.6-2.6h5.5l-3.2,18H551.9z M557.1,277.8c0.6,0,1.1,0.2,1.6,0.6
			c0.4,0.4,0.7,1,0.7,1.6c0,0.6-0.2,1.1-0.7,1.6c-0.4,0.4-1,0.6-1.6,0.6c-0.6,0-1.1-0.2-1.6-0.6c-0.4-0.4-0.7-1-0.7-1.6
			c0-0.6,0.2-1.2,0.7-1.6C555.9,278,556.5,277.8,557.1,277.8z"/>
		<path class="st14" d="M572.4,302.9l1.9-10.5c0.2-0.9,0.3-1.7,0.3-2.3c0-1.9-1-2.9-3-2.9c-0.8,0-1.6,0.2-2.5,0.7
			c-0.9,0.5-1.6,1-2.1,1.6l-2.3,13.4h-3.2l2.4-13.7c0.1-0.3,0.1-0.7,0.1-1.1c0-1.1-0.1-2.1-0.4-3l3.1-0.6c0.3,1.6,0.5,2.5,0.4,2.7
			c1.4-1.8,3.4-2.7,5.9-2.7c3.3,0,4.9,1.7,4.9,5c0,0.7-0.1,1.4-0.2,2.2l-1.9,11.2H572.4z M577.7,278.8c-1,2.3-2.3,3.5-3.9,3.5
			c-0.7,0-1.4-0.2-2.2-0.6c-0.8-0.4-1.4-0.6-1.7-0.6c-0.8,0-1.5,0.4-2.1,1.3h-1.5c0.3-0.9,0.9-1.8,1.5-2.5c0.7-0.7,1.4-1,2.2-1
			c0.9,0,1.7,0.2,2.4,0.6c0.8,0.4,1.3,0.6,1.7,0.6c0.9,0,1.6-0.4,2.1-1.3H577.7z"/>
		<path class="st14" d="M580.3,296.3c0-3.2,0.9-6,2.8-8.3c1.9-2.3,4.3-3.5,7.2-3.5c2.2,0,3.9,0.6,5,1.8c1.2,1.2,1.7,2.9,1.7,5.1
			c0,1.7-0.3,3.5-1,5.4c-0.7,1.9-1.8,3.4-3.4,4.7s-3.5,1.9-5.6,1.9c-2.2,0-3.8-0.6-5-1.8C580.9,300.2,580.3,298.5,580.3,296.3z
			 M583.7,296.1c0,3,1.3,4.6,3.8,4.6c1.9,0,3.4-0.9,4.5-2.8c1.1-1.8,1.7-4,1.7-6.4c0-2.9-1.3-4.4-3.8-4.4c-1.3,0-2.4,0.5-3.4,1.4
			s-1.7,2.1-2.1,3.5S583.7,294.9,583.7,296.1z"/>
		<path class="st14" d="M597.7,301.9l1.7-3c0.4,0.4,1.1,0.8,1.9,1.2s1.5,0.5,2.1,0.5c1,0,1.8-0.3,2.5-0.8s1-1.3,1-2.2
			c0-0.5-0.2-0.9-0.5-1.3c-0.3-0.4-0.9-0.8-1.8-1.3l-2.4-1.3c-0.7-0.4-1.3-0.9-1.6-1.6c-0.4-0.6-0.5-1.3-0.5-2c0-1.7,0.7-3,2-4
			c1.3-1,2.9-1.5,4.8-1.5c1.3,0,2.9,0.4,4.8,1.2l-1.4,3c-1.1-1-2.3-1.5-3.6-1.5c-0.8,0-1.6,0.2-2.2,0.6c-0.6,0.4-0.9,1-0.9,1.7
			c0,0.5,0.2,1,0.5,1.3s1,0.8,1.8,1.2l2.4,1.3c0.7,0.4,1.3,0.9,1.6,1.5c0.4,0.6,0.5,1.3,0.5,2c0,1.9-0.7,3.5-2.1,4.6
			c-1.4,1.1-3.2,1.7-5.3,1.7C601,303.3,599.2,302.8,597.7,301.9z"/>
		<path class="st14" d="M616.4,298.5c0.7,0,1.2,0.2,1.7,0.7c0.5,0.5,0.7,1,0.7,1.7c0,0.7-0.2,1.2-0.7,1.7c-0.5,0.5-1,0.7-1.7,0.7
			c-0.7,0-1.2-0.2-1.7-0.7s-0.7-1-0.7-1.7c0-0.7,0.2-1.2,0.7-1.7C615.2,298.7,615.8,298.5,616.4,298.5z M617.4,295.7h-1.7
			c0-0.1-0.1-0.4-0.1-0.8s-0.1-0.7-0.1-0.9c0-1.5,0.6-2.9,1.8-4.3l3.3-3.2c0.6-0.6,1.1-1.2,1.4-1.9s0.5-1.3,0.5-2
			c0-1.6-0.9-2.3-2.8-2.3c-1.4,0-2.4,0.3-3.3,1l-1.1-2.2c1-0.9,2.8-1.4,5.3-1.4c1.5,0,2.8,0.4,3.7,1.3s1.4,2,1.4,3.5
			c0,2-0.7,3.8-2.2,5.3l-3.9,3.4c-0.7,0.7-1.3,1.3-1.7,2.1C617.5,294.1,617.3,294.9,617.4,295.7z"/>
	</g>
</g>
</svg>
