<?xml version="1.0" encoding="utf-8"?>
<!-- Generator: Adobe Illustrator 21.0.0, SVG Export Plug-In . SVG Version: 6.00 Build 0)  -->
<svg version="1.1" id="Capa_1" xmlns="http://www.w3.org/2000/svg" xmlns:xlink="http://www.w3.org/1999/xlink" x="0px" y="0px"
	 viewBox="0 0 1057.5 829.1" style="enable-background:new 0 0 1057.5 829.1;" xml:space="preserve">
<style type="text/css">
	.st0{clip-path:url(#SVGID_2_);}
	.st1{fill:#E7E7E7;}
	.st2{fill-rule:evenodd;clip-rule:evenodd;fill:#E7E7E7;}
	.st3{fill:#1D1D1B;}
	.st4{fill:none;stroke:#000000;stroke-width:4;stroke-linecap:square;}
	.st5{fill:#00B4EC;}
</style>
<g>
	<defs>
		<rect id="SVGID_1_" width="1057.5" height="829.1"/>
	</defs>
	<clipPath id="SVGID_2_">
		<use xlink:href="#SVGID_1_"  style="overflow:visible;"/>
	</clipPath>
	<g class="st0">
		<g>
			<polygon class="st1" points="942.9,0 828.4,317.4 817,347.4 189.1,351.3 190.7,352.5 189.4,352.5 629.1,686.2 629.8,686 
				644.9,697.2 656.5,706 482.6,1314.6 1000.6,970.9 1058.3,1006.7 1058.3,0 			"/>
			<g>
				<path class="st2" d="M-29.7,1126.2l1049.2,821.5L2059,1140.3c-159.5-199.4-389.4-351.4-657.6-427.5l-6.2,4.6l234.3,696.9
					l-628.2-389.3L408.8,1418l197.7-691.9l-9.8-7.4C343.4,794.6,125.3,938.6-29.7,1126.2"/>
				<path class="st2" d="M808.1,1829.6l-860.8-674l-0.8-0.6c-19.2,25.5-42.4,59.4-65.3,100.7L808.1,1829.6z"/>
				<path class="st2" d="M-34.5,1074.4c75.5-86,163.8-162.1,262.9-226.6c102-66.4,213.5-119.1,331.8-157L526,664.9
					c-178.9,62.8-445.8,189-631,422.2c-52,65.4-78.1,128.7-78.1,128.7l32.4,20.1C-96.8,1139-42.1,1082-34.5,1074.4"/>
			</g>
		</g>
	</g>
</g>
<title>portada-desktop_1</title>
<g>
	<path class="st3" d="M104.7,136.6l-2.5,7.7h-3.3l8.3-24.5h3.8l8.3,24.5H116l-2.6-7.7H104.7z M112.7,134.1l-2.4-7
		c-0.5-1.6-0.9-3-1.3-4.5H109c-0.4,1.5-0.8,2.9-1.2,4.4l-2.4,7.1H112.7z"/>
	<path class="st3" d="M122.8,132.4c0-2.3-0.1-4.1-0.1-5.7h2.9l0.1,3h0.1c1.3-2.1,3.4-3.4,6.2-3.4c4.2,0,7.4,3.6,7.4,8.9
		c0,6.3-3.8,9.4-8,9.4c-2.3,0-4.4-1-5.4-2.8H126v9.5h-3.2V132.4z M126,137.1c0,0.5,0.1,0.9,0.1,1.3c0.6,2.2,2.5,3.7,4.8,3.7
		c3.4,0,5.3-2.8,5.3-6.8c0-3.5-1.9-6.5-5.2-6.5c-2.2,0-4.2,1.6-4.8,4c-0.1,0.4-0.2,0.9-0.2,1.3V137.1z"/>
	<path class="st3" d="M147.3,121.6v5h4.6v2.4h-4.6v9.5c0,2.2,0.6,3.4,2.4,3.4c0.8,0,1.5-0.1,1.9-0.2l0.1,2.4
		c-0.6,0.3-1.6,0.4-2.8,0.4c-1.5,0-2.7-0.5-3.4-1.3c-0.9-0.9-1.2-2.5-1.2-4.6v-9.6h-2.7v-2.4h2.7v-4.2L147.3,121.6z"/>
	<path class="st3" d="M170.2,139.5c0,1.8,0,3.4,0.1,4.8h-2.8l-0.2-2.9h-0.1c-0.8,1.4-2.7,3.3-5.8,3.3c-2.8,0-6.1-1.5-6.1-7.7v-10.3
		h3.2v9.7c0,3.3,1,5.6,3.9,5.6c2.1,0,3.6-1.5,4.2-2.9c0.2-0.5,0.3-1.1,0.3-1.6v-10.8h3.2V139.5z"/>
	<path class="st3" d="M175.1,141c0.9,0.6,2.6,1.3,4.2,1.3c2.3,0,3.4-1.2,3.4-2.6c0-1.5-0.9-2.4-3.3-3.2c-3.2-1.1-4.6-2.9-4.6-5
		c0-2.8,2.3-5.2,6.1-5.2c1.8,0,3.3,0.5,4.3,1.1l-0.8,2.3c-0.7-0.4-2-1-3.6-1c-1.9,0-2.9,1.1-2.9,2.4c0,1.5,1.1,2.1,3.3,3
		c3,1.2,4.6,2.7,4.6,5.3c0,3.1-2.4,5.3-6.6,5.3c-1.9,0-3.7-0.5-4.9-1.2L175.1,141z"/>
	<path class="st3" d="M210.4,132.8h-9.5v8.8h10.6v2.6h-13.8v-24.5h13.2v2.6h-10.1v7.7h9.5V132.8z"/>
	<path class="st3" d="M215,141c0.9,0.6,2.6,1.3,4.2,1.3c2.3,0,3.4-1.2,3.4-2.6c0-1.5-0.9-2.4-3.3-3.2c-3.2-1.1-4.6-2.9-4.6-5
		c0-2.8,2.3-5.2,6.1-5.2c1.8,0,3.3,0.5,4.3,1.1l-0.8,2.3c-0.7-0.4-2-1-3.6-1c-1.9,0-2.9,1.1-2.9,2.4c0,1.5,1.1,2.1,3.3,3
		c3,1.2,4.6,2.7,4.6,5.3c0,3.1-2.4,5.3-6.6,5.3c-1.9,0-3.7-0.5-4.9-1.2L215,141z"/>
	<path class="st3" d="M233.7,121.6v5h4.6v2.4h-4.6v9.5c0,2.2,0.6,3.4,2.4,3.4c0.8,0,1.5-0.1,1.9-0.2l0.1,2.4
		c-0.6,0.3-1.6,0.4-2.8,0.4c-1.5,0-2.7-0.5-3.4-1.3c-0.9-0.9-1.2-2.5-1.2-4.6v-9.6h-2.7v-2.4h2.7v-4.2L233.7,121.6z"/>
	<path class="st3" d="M256.5,139.5c0,1.8,0,3.4,0.1,4.8h-2.8l-0.2-2.9h-0.1c-0.8,1.4-2.7,3.3-5.8,3.3c-2.8,0-6.1-1.5-6.1-7.7v-10.3
		h3.2v9.7c0,3.3,1,5.6,3.9,5.6c2.1,0,3.6-1.5,4.2-2.9c0.2-0.5,0.3-1.1,0.3-1.6v-10.8h3.2V139.5z"/>
	<path class="st3" d="M277,118.5v21.2c0,1.6,0,3.3,0.1,4.5h-2.9l-0.1-3h-0.1c-1,2-3.1,3.4-6,3.4c-4.2,0-7.5-3.6-7.5-8.9
		c0-5.8,3.6-9.4,7.9-9.4c2.7,0,4.5,1.3,5.3,2.7h0.1v-10.5H277z M273.8,133.8c0-0.4,0-0.9-0.1-1.3c-0.5-2-2.2-3.7-4.6-3.7
		c-3.3,0-5.3,2.9-5.3,6.8c0,3.6,1.7,6.5,5.2,6.5c2.1,0,4.1-1.4,4.7-3.8c0.1-0.4,0.1-0.9,0.1-1.4V133.8z"/>
	<path class="st3" d="M285.9,121.7c0,1.1-0.8,2-2,2c-1.1,0-1.9-0.9-1.9-2c0-1.1,0.8-2,2-2C285.1,119.7,285.9,120.6,285.9,121.7z
		 M282.3,144.2v-17.6h3.2v17.6H282.3z"/>
	<path class="st3" d="M306.7,135.3c0,6.5-4.5,9.3-8.7,9.3c-4.8,0-8.4-3.5-8.4-9c0-5.9,3.8-9.3,8.7-9.3
		C303.3,126.3,306.7,129.9,306.7,135.3z M292.7,135.5c0,3.8,2.2,6.8,5.3,6.8c3,0,5.3-2.9,5.3-6.8c0-3-1.5-6.8-5.3-6.8
		S292.7,132.2,292.7,135.5z"/>
	<path class="st3" d="M310.3,141c0.9,0.6,2.6,1.3,4.2,1.3c2.3,0,3.4-1.2,3.4-2.6c0-1.5-0.9-2.4-3.3-3.2c-3.2-1.1-4.6-2.9-4.6-5
		c0-2.8,2.3-5.2,6.1-5.2c1.8,0,3.3,0.5,4.3,1.1l-0.8,2.3c-0.7-0.4-2-1-3.6-1c-1.9,0-2.9,1.1-2.9,2.4c0,1.5,1.1,2.1,3.3,3
		c3,1.2,4.6,2.7,4.6,5.3c0,3.1-2.4,5.3-6.6,5.3c-1.9,0-3.7-0.5-4.9-1.2L310.3,141z"/>
</g>
<g>
	<path class="st3" d="M98.6,169c1.8-0.3,3.8-0.5,6-0.5c4.3,0,7.5,1.1,9.4,3.2c1.9,1.9,2.9,4.6,2.9,8.1c0,3.4-0.9,6.5-3,8.8
		c-2,2.2-5.6,3.6-10.1,3.6c-1.8,0-3.5,0-5.2-0.2V169z M100.2,190.6c0.9,0.1,2.3,0.2,3.8,0.2c7.5,0,11.2-4.2,11.2-10.9
		c0.1-5.9-3.2-10-10.7-10c-1.8,0-3.2,0.2-4.2,0.4V190.6z"/>
	<path class="st3" d="M121.4,183.5c0,5.3,2.9,7.4,6.3,7.4c2.4,0,3.7-0.5,4.6-0.9l0.4,1.3c-0.6,0.3-2.3,1.1-5.2,1.1
		c-4.8,0-7.7-3.5-7.7-8.3c0-5.5,3.2-9,7.5-9c5.4,0,6.5,5.1,6.5,7.5c0,0.4,0,0.7-0.1,1H121.4z M131.9,182.2c0-2.3-0.9-5.8-4.9-5.8
		c-3.7,0-5.2,3.2-5.5,5.8H131.9z"/>
	<path class="st3" d="M145.5,167.4h1.7v24.6h-1.7V167.4z"/>
	<path class="st3" d="M163.1,188c0,1.3,0,2.7,0.2,3.9h-1.5l-0.2-2.4h-0.1c-0.8,1.3-2.7,2.8-5.3,2.8c-3.4,0-4.9-2.4-4.9-4.6
		c0-3.8,3.4-6.2,10.1-6.1v-0.4c0-1.6-0.3-4.9-4.3-4.9c-1.5,0-3,0.4-4.2,1.2l-0.5-1.2c1.5-1,3.4-1.4,4.9-1.4c4.8,0,5.7,3.6,5.7,6.5
		V188z M161.5,183.1c-3.6-0.1-8.4,0.4-8.4,4.4c0,2.4,1.6,3.5,3.3,3.5c2.8,0,4.4-1.7,4.9-3.3c0.1-0.3,0.2-0.7,0.2-1V183.1z"/>
	<path class="st3" d="M176.3,183.5c0,5.3,2.9,7.4,6.3,7.4c2.4,0,3.7-0.5,4.6-0.9l0.4,1.3c-0.6,0.3-2.3,1.1-5.2,1.1
		c-4.8,0-7.7-3.5-7.7-8.3c0-5.5,3.2-9,7.5-9c5.4,0,6.5,5.1,6.5,7.5c0,0.4,0,0.7-0.1,1H176.3z M186.9,182.2c0-2.3-0.9-5.8-4.9-5.8
		c-3.7,0-5.2,3.2-5.5,5.8H186.9z"/>
	<path class="st3" d="M192.4,175.4l3.9,10.3c0.7,1.6,1.2,3,1.6,4.4h0.1c0.4-1.4,1.1-2.8,1.7-4.4l3.9-10.3h1.7l-6.7,16.6h-1.5
		l-6.5-16.6H192.4z"/>
	<path class="st3" d="M209.3,172c-0.8,0-1.3-0.7-1.3-1.4s0.6-1.5,1.3-1.5s1.3,0.7,1.3,1.5C210.7,171.4,210.2,172,209.3,172
		L209.3,172z M208.5,191.9v-16.6h1.7v16.6H208.5z"/>
	<path class="st3" d="M229,167.4v20.7c0,1.2,0,2.7,0.1,3.8h-1.5l-0.1-3.1h-0.1c-0.9,1.8-2.8,3.5-5.9,3.5c-4.1,0-7.2-3.4-7.2-8.4
		c0-5.5,3.4-9,7.5-9c2.9,0,4.7,1.5,5.4,2.9h0.1v-10.5H229z M227.3,181.9c0-0.4,0-1-0.2-1.5c-0.6-2.2-2.5-4-5.2-4
		c-3.6,0-5.9,3.1-5.9,7.4c0,3.7,1.9,7.2,5.8,7.2c2.4,0,4.6-1.6,5.3-4.3c0.1-0.4,0.2-0.9,0.2-1.4V181.9z"/>
	<path class="st3" d="M234.8,183.5c0,5.3,2.9,7.4,6.3,7.4c2.4,0,3.7-0.5,4.6-0.9l0.4,1.3c-0.6,0.3-2.3,1.1-5.2,1.1
		c-4.8,0-7.7-3.5-7.7-8.3c0-5.5,3.2-9,7.5-9c5.4,0,6.5,5.1,6.5,7.5c0,0.4,0,0.7-0.1,1H234.8z M245.4,182.2c0-2.3-0.9-5.8-4.9-5.8
		c-3.7,0-5.2,3.2-5.5,5.8H245.4z"/>
	<path class="st3" d="M251.3,179.3c0-1.5,0-2.7-0.1-4h1.6l0.1,3h0.1c0.9-1.9,3-3.4,5.7-3.4c1.6,0,5.8,0.8,5.8,7v10h-1.7v-9.8
		c0-3-1.2-5.8-4.6-5.8c-2.3,0-4.3,1.7-5,3.8c-0.1,0.4-0.2,0.9-0.2,1.5v10.3h-1.7V179.3z"/>
	<path class="st3" d="M281.3,191.2c-0.7,0.3-2.5,1.1-4.9,1.1c-4.8,0-7.9-3.5-7.9-8.5c0-5.3,3.6-8.8,8.5-8.8c2,0,3.7,0.6,4.4,1
		l-0.6,1.3c-0.8-0.5-2.1-1-3.9-1c-4.5,0-6.7,3.4-6.7,7.3c0,4.4,2.7,7.2,6.6,7.2c2,0,3.2-0.6,4.1-1L281.3,191.2z"/>
	<path class="st3" d="M286,172c-0.8,0-1.3-0.7-1.3-1.4s0.6-1.5,1.3-1.5s1.3,0.7,1.3,1.5C287.4,171.4,286.9,172,286,172L286,172z
		 M285.3,191.9v-16.6h1.7v16.6H285.3z"/>
	<path class="st3" d="M302.8,188c0,1.3,0,2.7,0.2,3.9h-1.5l-0.2-2.4h-0.1c-0.8,1.3-2.7,2.8-5.3,2.8c-3.4,0-4.9-2.4-4.9-4.6
		c0-3.8,3.4-6.2,10.1-6.1v-0.4c0-1.6-0.3-4.9-4.3-4.9c-1.5,0-3,0.4-4.2,1.2l-0.5-1.2c1.5-1,3.4-1.4,4.9-1.4c4.8,0,5.7,3.6,5.7,6.5
		V188z M301.2,183.1c-3.6-0.1-8.4,0.4-8.4,4.4c0,2.4,1.6,3.5,3.3,3.5c2.8,0,4.4-1.7,4.9-3.3c0.1-0.3,0.2-0.7,0.2-1V183.1z"/>
	<path class="st3" d="M326.1,188c0,1.3,0,2.7,0.2,3.9h-1.5l-0.2-2.4h-0.1c-0.8,1.3-2.7,2.8-5.3,2.8c-3.4,0-4.9-2.4-4.9-4.6
		c0-3.8,3.4-6.2,10.1-6.1v-0.4c0-1.6-0.3-4.9-4.3-4.9c-1.5,0-3,0.4-4.2,1.2l-0.5-1.2c1.5-1,3.4-1.4,4.9-1.4c4.8,0,5.7,3.6,5.7,6.5
		V188z M324.4,183.1c-3.6-0.1-8.4,0.4-8.4,4.4c0,2.4,1.6,3.5,3.3,3.5c2.8,0,4.4-1.7,4.9-3.3c0.1-0.3,0.2-0.7,0.2-1V183.1z"/>
	<path class="st3" d="M339,167.4h1.7v24.6H339V167.4z"/>
	<path class="st3" d="M356.7,188c0,1.3,0,2.7,0.2,3.9h-1.5l-0.2-2.4h-0.1c-0.8,1.3-2.7,2.8-5.3,2.8c-3.4,0-4.9-2.4-4.9-4.6
		c0-3.8,3.4-6.2,10.1-6.1v-0.4c0-1.6-0.3-4.9-4.3-4.9c-1.5,0-3,0.4-4.2,1.2l-0.5-1.2c1.5-1,3.4-1.4,4.9-1.4c4.8,0,5.7,3.6,5.7,6.5
		V188z M355,183.1c-3.6-0.1-8.4,0.4-8.4,4.4c0,2.4,1.6,3.5,3.3,3.5c2.8,0,4.4-1.7,4.9-3.3c0.1-0.3,0.2-0.7,0.2-1V183.1z"/>
	<path class="st3" d="M369.6,180.6c0-2.1,0-3.7-0.1-5.3h1.6l0.1,3.1h0.1c1.2-2.2,3.2-3.5,6.2-3.5c4.3,0,7.1,3.5,7.1,8.4
		c0,5.9-3.5,9-7.5,9c-2.4,0-4.5-1.1-5.6-3.1h-0.1v9.5h-1.7V180.6z M371.3,185.4c0,0.4,0,0.9,0.1,1.3c0.7,2.6,2.9,4.2,5.5,4.2
		c3.8,0,6-3.1,6-7.5c0-3.7-2.1-7.1-5.8-7.1c-2.4,0-4.8,1.7-5.5,4.4c-0.1,0.4-0.2,1-0.2,1.4V185.4z"/>
	<path class="st3" d="M388.7,180.3c0-1.7,0-3.4-0.1-5h1.5l0.1,3.4h0.1c0.7-2.1,2.5-3.7,4.7-3.7c0.2,0,0.5,0,0.7,0.1v1.6
		c-0.2,0-0.5,0-0.8,0c-2.3,0-3.9,2-4.4,4.6c-0.1,0.5-0.1,1-0.1,1.6v9.2h-1.7V180.3z"/>
	<path class="st3" d="M409.2,188c0,1.3,0,2.7,0.2,3.9H408l-0.2-2.4h-0.1c-0.8,1.3-2.7,2.8-5.3,2.8c-3.4,0-4.9-2.4-4.9-4.6
		c0-3.8,3.4-6.2,10.1-6.1v-0.4c0-1.6-0.3-4.9-4.3-4.9c-1.5,0-3,0.4-4.2,1.2l-0.5-1.2c1.5-1,3.4-1.4,4.9-1.4c4.8,0,5.7,3.6,5.7,6.5
		V188z M407.6,183.1c-3.6-0.1-8.4,0.4-8.4,4.4c0,2.4,1.6,3.5,3.3,3.5c2.8,0,4.4-1.7,4.9-3.3c0.1-0.3,0.2-0.7,0.2-1V183.1z
		 M407.9,168.2l-4.2,4.8h-1.3l3.1-4.8H407.9z"/>
	<path class="st3" d="M426,191.2c-0.7,0.3-2.5,1.1-4.9,1.1c-4.8,0-7.9-3.5-7.9-8.5c0-5.3,3.6-8.8,8.5-8.8c2,0,3.7,0.6,4.4,1
		l-0.6,1.3c-0.8-0.5-2.1-1-3.9-1c-4.5,0-6.7,3.4-6.7,7.3c0,4.4,2.7,7.2,6.6,7.2c2,0,3.2-0.6,4.1-1L426,191.2z"/>
	<path class="st3" d="M432.6,171.7v3.7h4.7v1.3h-4.7v10.8c0,2.1,0.7,3.4,2.4,3.4c0.9,0,1.5-0.1,1.9-0.2l0.2,1.2
		c-0.6,0.2-1.3,0.4-2.3,0.4c-1.2,0-2.2-0.4-2.8-1.1c-0.8-0.9-1-2.3-1-4v-10.5h-2.8v-1.3h2.8v-3L432.6,171.7z"/>
	<path class="st3" d="M441.8,172c-0.8,0-1.3-0.7-1.3-1.4s0.6-1.5,1.3-1.5s1.3,0.7,1.3,1.5C443.2,171.4,442.7,172,441.8,172
		L441.8,172z M441,191.9v-16.6h1.7v16.6H441z"/>
	<path class="st3" d="M459.7,191.2c-0.7,0.3-2.5,1.1-4.9,1.1c-4.8,0-7.9-3.5-7.9-8.5c0-5.3,3.6-8.8,8.5-8.8c2,0,3.7,0.6,4.4,1
		l-0.6,1.3c-0.8-0.5-2.1-1-3.9-1c-4.5,0-6.7,3.4-6.7,7.3c0,4.4,2.7,7.2,6.6,7.2c2,0,3.2-0.6,4.1-1L459.7,191.2z"/>
	<path class="st3" d="M474,188c0,1.3,0,2.7,0.2,3.9h-1.5l-0.2-2.4h-0.1c-0.8,1.3-2.7,2.8-5.3,2.8c-3.4,0-4.9-2.4-4.9-4.6
		c0-3.8,3.4-6.2,10.1-6.1v-0.4c0-1.6-0.3-4.9-4.3-4.9c-1.5,0-3,0.4-4.2,1.2l-0.5-1.2c1.5-1,3.4-1.4,4.9-1.4c4.8,0,5.7,3.6,5.7,6.5
		V188z M472.4,183.1c-3.6-0.1-8.4,0.4-8.4,4.4c0,2.4,1.6,3.5,3.3,3.5c2.8,0,4.4-1.7,4.9-3.3c0.1-0.3,0.2-0.7,0.2-1V183.1z"/>
</g>
<g>
	<path class="st3" d="M107.9,337h15v53.5h26.2V403h-41.2V337z"/>
	<path class="st3" d="M173.3,386.1l-4.7,16.9h-15.5l20.2-66h19.6l20.5,66h-16.1l-5.1-16.9H173.3z M190.1,374.9l-4.1-14
		c-1.2-3.9-2.4-8.8-3.3-12.7h-0.2c-1,3.9-2,8.9-3,12.7l-3.9,14H190.1z"/>
	<path class="st3" d="M290.4,401.1c-2.7,1.4-8.9,2.8-16.9,2.8c-22.8,0-34.6-14.2-34.6-33c0-22.5,16.1-35.1,36-35.1
		c7.7,0,13.6,1.6,16.3,2.9l-3,11.8c-3-1.3-7.2-2.4-12.5-2.4c-11.8,0-21.1,7.1-21.1,21.8c0,13.2,7.8,21.5,21.2,21.5
		c4.5,0,9.5-1,12.4-2.2L290.4,401.1z"/>
	<path class="st3" d="M315.2,337v66h-15v-66H315.2z"/>
	<path class="st3" d="M367.4,375.1h-24.3v15.7h27.1V403h-42.1v-66h40.7v12.2h-25.8V363h24.3V375.1z"/>
	<path class="st3" d="M380.4,403v-66h17.4l13.7,24.2c3.9,7,7.8,15.2,10.8,22.6h0.3c-1-8.7-1.3-17.6-1.3-27.5V337h13.7v66h-15.7
		l-14.1-25.5c-3.9-7.1-8.2-15.6-11.5-23.3l-0.3,0.1c0.4,8.7,0.6,18,0.6,28.8V403H380.4z"/>
	<path class="st3" d="M496.5,401.1c-2.7,1.4-8.9,2.8-16.9,2.8c-22.8,0-34.6-14.2-34.6-33c0-22.5,16.1-35.1,36-35.1
		c7.7,0,13.6,1.6,16.3,2.9l-3,11.8c-3-1.3-7.2-2.4-12.5-2.4c-11.8,0-21.1,7.1-21.1,21.8c0,13.2,7.8,21.5,21.2,21.5
		c4.5,0,9.5-1,12.4-2.2L496.5,401.1z"/>
	<path class="st3" d="M521.3,337v66h-15v-66H521.3z"/>
	<path class="st3" d="M549.6,386.1l-4.7,16.9h-15.5l20.2-66h19.6l20.5,66h-16.1l-5.1-16.9H549.6z M566.3,374.9l-4.1-14
		c-1.2-3.9-2.4-8.8-3.3-12.7h-0.2c-1,3.9-2,8.9-3,12.7l-3.9,14H566.3z"/>
</g>
<line class="st4" x1="101.7" y1="545.6" x2="714.1" y2="545.6"/>
<g>
	<path class="st5" d="M104,437c5.1-0.8,11.7-1.3,18.7-1.3c11.6,0,19.2,2.1,25.1,6.5c6.4,4.7,10.4,12.3,10.4,23.1
		c0,11.7-4.3,19.8-10.2,24.8c-6.5,5.4-16.3,7.9-28.3,7.9c-7.2,0-12.3-0.5-15.7-0.9V437z M117.9,487c1.2,0.3,3.1,0.3,4.8,0.3
		c12.5,0.1,20.7-6.8,20.7-21.4c0.1-12.7-7.4-19.4-19.3-19.4c-3.1,0-5.1,0.3-6.3,0.5V487z"/>
	<path class="st5" d="M203.6,471.5h-22.5v14.5h25.2v11.4h-39.1v-61.2H205v11.4h-23.9v12.7h22.5V471.5z"/>
	<path class="st5" d="M215.7,436.2h13.9v49.6H254v11.6h-38.2V436.2z"/>
	<path class="st5" d="M294.8,481.7l-4.4,15.7H276l18.7-61.2h18.2l19,61.2H317l-4.7-15.7H294.8z M310.3,471.4l-3.8-13
		c-1.1-3.6-2.2-8.2-3.1-11.8h-0.2c-0.9,3.6-1.8,8.3-2.8,11.8l-3.6,13H310.3z"/>
	<path class="st5" d="M340.1,437c4.3-0.7,10.3-1.3,18.7-1.3c8.5,0,14.6,1.6,18.7,4.9c3.9,3.1,6.5,8.2,6.5,14.2s-2,11.1-5.6,14.5
		c-4.7,4.5-11.7,6.5-19.9,6.5c-1.8,0-3.5-0.1-4.7-0.3v21.9h-13.7V437z M353.8,464.8c1.2,0.3,2.6,0.4,4.6,0.4c7.4,0,11.9-3.7,11.9-10
		c0-5.6-3.9-9-10.8-9c-2.8,0-4.7,0.3-5.7,0.5V464.8z"/>
	<path class="st5" d="M392.9,437c4.5-0.7,11.1-1.3,18.4-1.3c9.1,0,15.4,1.4,19.8,4.8c3.6,2.9,5.6,7.2,5.6,12.8
		c0,7.8-5.5,13.2-10.8,15.1v0.3c4.3,1.7,6.6,5.8,8.2,11.4c1.9,6.9,3.8,14.9,5,17.3h-14.2c-1-1.7-2.5-6.7-4.3-14.3
		c-1.6-7.6-4.3-9.7-9.9-9.8h-4.2v24.1h-13.7V437z M406.6,463.4h5.5c6.9,0,11-3.5,11-8.8c0-5.6-3.8-8.4-10.2-8.5
		c-3.4,0-5.3,0.3-6.3,0.5V463.4z"/>
	<path class="st5" d="M483.2,471.5h-22.5v14.5h25.2v11.4h-39.1v-61.2h37.8v11.4h-23.9v12.7h22.5V471.5z"/>
	<path class="st5" d="M495.2,497.4v-61.2h16.2l12.7,22.4c3.6,6.5,7.3,14.1,10,21h0.3c-0.9-8.1-1.2-16.4-1.2-25.5v-17.9h12.7v61.2
		h-14.5l-13.1-23.6c-3.6-6.5-7.6-14.4-10.6-21.6l-0.3,0.1c0.4,8.1,0.5,16.7,0.5,26.7v18.4H495.2z"/>
	<path class="st5" d="M557.9,437c5.1-0.8,11.7-1.3,18.7-1.3c11.6,0,19.2,2.1,25.1,6.5c6.4,4.7,10.4,12.3,10.4,23.1
		c0,11.7-4.3,19.8-10.2,24.8c-6.5,5.4-16.3,7.9-28.3,7.9c-7.2,0-12.3-0.5-15.7-0.9V437z M571.8,487c1.2,0.3,3.1,0.3,4.8,0.3
		c12.5,0.1,20.7-6.8,20.7-21.4c0.1-12.7-7.4-19.4-19.3-19.4c-3.1,0-5.1,0.3-6.3,0.5V487z"/>
	<path class="st5" d="M635.1,436.2v61.2h-13.9v-61.2H635.1z"/>
	<path class="st5" d="M643.1,490l29.2-42v-0.4h-26.4v-11.4h44.4v8l-28.5,41.4v0.4h29v11.4h-47.6V490z"/>
	<path class="st5" d="M713.7,481.7l-4.4,15.7H695l18.7-61.2h18.2l19,61.2H736l-4.7-15.7H713.7z M729.3,471.4l-3.8-13
		c-1.1-3.6-2.2-8.2-3.1-11.8h-0.2c-0.9,3.6-1.8,8.3-2.8,11.8l-3.6,13H729.3z"/>
	<path class="st5" d="M771,436.2h13.8v38.7c0,17.4-8.4,23.5-21.8,23.5c-3.2,0-7.4-0.5-10.1-1.5l1.5-11.2c1.9,0.6,4.4,1.1,7.1,1.1
		c5.8,0,9.4-2.6,9.4-12.2V436.2z"/>
	<path class="st5" d="M832.8,471.5h-22.5v14.5h25.2v11.4h-39.1v-61.2h37.8v11.4h-23.9v12.7h22.5V471.5z"/>
</g>
<g>
	<path class="st3" d="M104.4,302.2l1-3.2c0.5,0.4,1.2,0.7,2.2,1c1,0.3,1.9,0.4,2.8,0.4c1.3,0,2.4-0.3,3.2-1c0.8-0.7,1.2-1.6,1.2-2.7
		c0-1-0.3-1.8-0.9-2.5s-1.7-1.6-3.1-2.7c-1.5-1.1-2.6-2.1-3.2-3c-0.7-0.9-1-2.1-1-3.5c0-2.2,0.7-4,2.1-5.2c1.4-1.3,3.2-1.9,5.5-1.9
		c2.5,0,4.2,0.2,5,0.7l-1,3.3c-0.3-0.3-0.8-0.5-1.6-0.7c-0.7-0.2-1.4-0.3-2.1-0.3c-1.4,0-2.6,0.3-3.4,1c-0.8,0.7-1.2,1.6-1.2,2.8
		c0,0.5,0.1,1,0.4,1.5c0.3,0.5,0.6,0.9,1.1,1.3c0.4,0.4,1.4,1.1,2.8,2.2c1.4,1,2.4,2.1,3.1,3.2s1,2.3,1,3.8c0,2.2-0.8,4-2.3,5.2
		c-1.5,1.2-3.5,1.8-5.9,1.8c-0.9,0-1.9-0.1-3-0.4C105.9,302.8,105,302.5,104.4,302.2z"/>
	<path class="st3" d="M124.8,294.5c-0.1,0.5-0.2,1.1-0.2,1.6c0,1.5,0.4,2.6,1.2,3.4c0.8,0.8,2,1.2,3.5,1.2c1.3,0,2.7-0.5,4-1.5
		l-0.3,3.3c-1.8,0.6-3.4,0.9-4.8,0.9c-4.7,0-7-2.6-7-7.8c0-3.1,1-5.7,2.9-7.8c2-2.1,4.4-3.2,7.4-3.2c1.8,0,3.2,0.4,4.3,1.1
		s1.6,1.9,1.6,3.3c0,2-0.8,3.5-2.5,4.7c-1.7,1.1-3.7,1.7-6.1,1.7C127.3,295.4,125.9,295.1,124.8,294.5z M125.4,292.1
		c0.9,0.4,1.9,0.6,3,0.6c1.8,0,3.2-0.3,4.3-0.9c1.1-0.6,1.7-1.4,1.7-2.5c0-1.4-1-2.1-2.9-2.1C128.6,287.3,126.5,288.9,125.4,292.1z"
		/>
	<path class="st3" d="M152.2,288.1c-0.7-0.5-1.5-0.8-2.4-0.8c-1.1,0-2.2,0.5-3.3,1.6c-1,1.1-1.7,2.3-1.9,3.8l-1.8,10.4h-3.2
		l3.2-18.1h3.2l-0.5,2.9c1.6-2.1,3.5-3.2,5.8-3.2c0.4,0,1,0.1,1.8,0.2L152.2,288.1z"/>
	<path class="st3" d="M154.8,303l2.7-15.4h-2.4l0.6-2.6h5.5l-3.2,18H154.8z M160,277.9c0.6,0,1.1,0.2,1.6,0.6s0.7,1,0.7,1.6
		c0,0.6-0.2,1.1-0.7,1.6s-1,0.6-1.6,0.6c-0.6,0-1.1-0.2-1.6-0.6s-0.7-1-0.7-1.6c0-0.6,0.2-1.2,0.7-1.6S159.4,277.9,160,277.9z"/>
	<path class="st3" d="M168.4,294.5c-0.1,0.5-0.2,1.1-0.2,1.6c0,1.5,0.4,2.6,1.2,3.4c0.8,0.8,2,1.2,3.5,1.2c1.3,0,2.7-0.5,4-1.5
		l-0.3,3.3c-1.8,0.6-3.4,0.9-4.8,0.9c-4.7,0-7-2.6-7-7.8c0-3.1,1-5.7,2.9-7.8c2-2.1,4.4-3.2,7.4-3.2c1.8,0,3.2,0.4,4.3,1.1
		s1.6,1.9,1.6,3.3c0,2-0.8,3.5-2.5,4.7c-1.7,1.1-3.7,1.7-6.1,1.7C170.8,295.4,169.5,295.1,168.4,294.5z M168.9,292.1
		c0.9,0.4,1.9,0.6,3,0.6c1.8,0,3.2-0.3,4.3-0.9c1.1-0.6,1.7-1.4,1.7-2.5c0-1.4-1-2.1-2.9-2.1C172.1,287.3,170.1,288.9,168.9,292.1z"
		/>
	<path class="st3" d="M187.6,298.3c0.7,0,1.3,0.2,1.8,0.7s0.7,1.1,0.7,1.8s-0.2,1.3-0.7,1.8s-1.1,0.8-1.8,0.8
		c-0.7,0-1.3-0.3-1.8-0.8c-0.5-0.5-0.7-1.1-0.7-1.8s0.2-1.3,0.7-1.8C186.3,298.5,186.9,298.3,187.6,298.3z M189,284.9
		c0.7,0,1.3,0.2,1.8,0.7c0.5,0.5,0.7,1.1,0.7,1.8c0,0.7-0.2,1.3-0.7,1.8c-0.5,0.5-1.1,0.8-1.8,0.8c-0.7,0-1.3-0.2-1.8-0.8
		c-0.5-0.5-0.7-1.1-0.7-1.8c0-0.7,0.2-1.3,0.7-1.8C187.7,285.2,188.3,284.9,189,284.9z"/>
	<path class="st3" d="M214.5,308.7c-1,0.9-2.8,1.4-5.3,1.4c-1.5,0-2.8-0.4-3.7-1.3c-0.9-0.8-1.4-2-1.4-3.5c0-1.1,0.2-2.1,0.6-3.1
		c0.4-1,1.1-1.9,2.1-2.7l3.5-3.1c1.4-1.4,2.1-2.8,2.1-4.3h1.7c0,0.1,0.1,0.4,0.1,0.8c0.1,0.4,0.1,0.7,0.1,0.9c0,0.8-0.2,1.6-0.5,2.4
		c-0.4,0.8-0.9,1.5-1.5,2.1l-3.1,3c-1.2,1.3-1.8,2.5-1.8,3.8c0,1.6,0.9,2.3,2.8,2.3c1.4,0,2.4-0.3,3.3-1L214.5,308.7z M213.4,289.4
		c-0.7,0-1.2-0.2-1.7-0.7s-0.7-1-0.7-1.7c0-0.7,0.2-1.2,0.7-1.7s1-0.7,1.7-0.7c0.7,0,1.2,0.2,1.7,0.7c0.5,0.5,0.7,1,0.7,1.7
		c0,0.7-0.2,1.2-0.7,1.7C214.6,289.1,214.1,289.4,213.4,289.4z"/>
	<path class="st3" d="M237.7,278.7l-0.9,3.3c-0.9-0.7-2.3-1.1-4-1.1c-2.7,0-4.9,1.3-6.7,4c-1.8,2.6-2.7,5.5-2.7,8.6
		c0,4.6,1.9,7,5.8,7c2,0,3.9-0.8,5.8-2.4l-0.3,3.6c-1.4,1.3-3.5,1.9-6.4,1.9c-2.7,0-4.8-0.8-6.3-2.5c-1.5-1.7-2.2-4-2.2-6.9
		c0-4.5,1.2-8.4,3.7-11.5c2.5-3.1,5.6-4.7,9.5-4.7C234.9,277.9,236.5,278.1,237.7,278.7z"/>
	<path class="st3" d="M239.3,296.4c0-3.2,0.9-6,2.8-8.3c1.9-2.3,4.3-3.5,7.2-3.5c2.2,0,3.9,0.6,5,1.8c1.2,1.2,1.7,2.9,1.7,5.1
		c0,1.7-0.3,3.5-1,5.4c-0.7,1.9-1.8,3.4-3.4,4.7c-1.6,1.2-3.5,1.9-5.6,1.9c-2.2,0-3.8-0.6-5-1.8
		C239.9,300.3,239.3,298.6,239.3,296.4z M242.7,296.2c0,3,1.3,4.6,3.8,4.6c1.9,0,3.4-0.9,4.5-2.8c1.1-1.8,1.7-4,1.7-6.4
		c0-2.9-1.3-4.4-3.8-4.4c-1.3,0-2.4,0.5-3.4,1.4c-1,0.9-1.7,2.1-2.1,3.5S242.7,294.9,242.7,296.2z M253.5,276.7l-3.8,5.6h-2.4
		l2.9-5.6H253.5z"/>
	<path class="st3" d="M278.5,303l2-11.4c0.1-0.4,0.1-0.9,0.1-1.3c0-2-1-3-3-3c-0.7,0-1.5,0.2-2.2,0.7c-0.7,0.5-1.3,1-1.7,1.7
		l-2.4,13.4h-3.3l2.3-12.8c0-0.2,0.1-0.4,0.1-0.5c0-1.6-1.1-2.3-3.2-2.3c-0.6,0-1.4,0.2-2.1,0.7s-1.4,1-1.8,1.6L261,303h-3.3
		l2.3-13.2c0.1-0.4,0.1-0.9,0.1-1.6c0-1.2-0.1-2.3-0.3-3l3.1-0.6c0.2,0.9,0.3,1.7,0.4,2.4c0.4-0.7,1.2-1.3,2.2-1.7
		c1-0.4,2.1-0.6,3.2-0.6c2.6,0,4.2,0.8,5,2.4c0.5-0.7,1.3-1.3,2.3-1.7s2.1-0.7,3.1-0.7c3.3,0,4.9,1.6,4.9,4.7c0,0.5-0.1,1.1-0.2,1.6
		l-2.1,12.1H278.5z"/>
	<path class="st3" d="M286.5,296.4c0-3.2,0.9-6,2.8-8.3c1.9-2.3,4.3-3.5,7.2-3.5c2.2,0,3.9,0.6,5,1.8c1.2,1.2,1.7,2.9,1.7,5.1
		c0,1.7-0.3,3.5-1,5.4c-0.7,1.9-1.8,3.4-3.4,4.7c-1.6,1.2-3.5,1.9-5.6,1.9c-2.2,0-3.8-0.6-5-1.8
		C287.1,300.3,286.5,298.6,286.5,296.4z M289.9,296.2c0,3,1.3,4.6,3.8,4.6c1.9,0,3.4-0.9,4.5-2.8c1.1-1.8,1.7-4,1.7-6.4
		c0-2.9-1.3-4.4-3.8-4.4c-1.3,0-2.4,0.5-3.4,1.4c-1,0.9-1.7,2.1-2.1,3.5S289.9,294.9,289.9,296.2z"/>
	<path class="st3" d="M330.1,303l-0.8-5.2h-8.9l-2.9,5.2h-3.8l14.5-25.1h0.9L334,303H330.1z M327.4,284.8l-5.7,10.6h7.2L327.4,284.8
		z"/>
	<path class="st3" d="M339.7,302.1l-1.4,8.1h-3.2l3.5-19.8c0.2-0.9,0.2-1.7,0.2-2.5c0-0.9-0.1-1.7-0.3-2.5l3.2-0.6
		c0.1,0.1,0.2,0.9,0.3,2.3c0.5-0.7,1.3-1.2,2.3-1.6c1-0.4,1.9-0.7,2.8-0.7c2.3,0,3.9,0.6,5.1,1.7s1.7,2.8,1.7,5
		c0,3.4-0.9,6.3-2.8,8.6s-4.4,3.5-7.5,3.5c-0.7,0-1.4-0.1-2.3-0.4S340,302.5,339.7,302.1z M340.2,299.5c0.2,0.4,0.6,0.7,1.2,0.9
		s1.2,0.4,1.7,0.4c2.4,0,4.2-0.8,5.4-2.4c1.3-1.6,1.9-3.8,1.9-6.5c0-1.5-0.4-2.6-1.1-3.3s-1.9-1.1-3.4-1.1c-0.7,0-1.4,0.2-2.3,0.7
		c-0.9,0.5-1.5,0.9-1.8,1.4L340.2,299.5z"/>
	<path class="st3" d="M368.7,288.1c-0.7-0.5-1.5-0.8-2.4-0.8c-1.1,0-2.2,0.5-3.3,1.6c-1,1.1-1.7,2.3-1.9,3.8l-1.8,10.4h-3.2
		l3.2-18.1h3.2l-0.5,2.9c1.6-2.1,3.5-3.2,5.8-3.2c0.4,0,1,0.1,1.8,0.2L368.7,288.1z"/>
	<path class="st3" d="M374.3,294.5c-0.1,0.5-0.2,1.1-0.2,1.6c0,1.5,0.4,2.6,1.2,3.4c0.8,0.8,2,1.2,3.5,1.2c1.3,0,2.7-0.5,4-1.5
		l-0.3,3.3c-1.8,0.6-3.4,0.9-4.8,0.9c-4.7,0-7-2.6-7-7.8c0-3.1,1-5.7,2.9-7.8c2-2.1,4.4-3.2,7.4-3.2c1.8,0,3.2,0.4,4.3,1.1
		s1.6,1.9,1.6,3.3c0,2-0.8,3.5-2.5,4.7c-1.7,1.1-3.7,1.7-6.1,1.7C376.8,295.4,375.4,295.1,374.3,294.5z M374.8,292.1
		c0.9,0.4,1.9,0.6,3,0.6c1.8,0,3.2-0.3,4.3-0.9c1.1-0.6,1.7-1.4,1.7-2.5c0-1.4-1-2.1-2.9-2.1C378.1,287.3,376,288.9,374.8,292.1z"/>
	<path class="st3" d="M399.9,303l1.9-10.5c0.2-0.9,0.3-1.7,0.3-2.3c0-1.9-1-2.9-3-2.9c-0.8,0-1.6,0.2-2.5,0.7
		c-0.9,0.5-1.6,1-2.1,1.6l-2.3,13.4h-3.2l2.4-13.7c0.1-0.3,0.1-0.7,0.1-1.1c0-1.1-0.1-2.1-0.4-3l3.1-0.6c0.3,1.6,0.5,2.5,0.4,2.7
		c1.4-1.8,3.4-2.7,5.9-2.7c3.3,0,4.9,1.7,4.9,5c0,0.7-0.1,1.4-0.2,2.2l-1.9,11.2H399.9z"/>
	<path class="st3" d="M419.1,303l0.4-2.1c-1.3,1.6-3.1,2.4-5.4,2.4c-2,0-3.5-0.6-4.6-1.8c-1.1-1.2-1.7-2.8-1.7-4.9
		c0-3.5,0.9-6.4,2.8-8.7c1.9-2.2,4.3-3.4,7.3-3.4c1.7,0,3,0.7,3.9,2.1l1.7-9.2h3.1l-4.4,25.5H419.1z M421.3,290
		c0-0.1-0.1-0.4-0.4-0.9c-0.3-0.5-0.7-0.9-1.2-1.2c-0.5-0.3-0.9-0.4-1.4-0.4c-2,0-3.6,0.8-5,2.4c-1.3,1.6-2,3.7-2,6.2
		c0,3.2,1.3,4.8,3.9,4.8c1.2,0,2.3-0.6,3.3-1.7s1.7-2.7,2-4.5L421.3,290z"/>
	<path class="st3" d="M431,294.5c-0.1,0.5-0.2,1.1-0.2,1.6c0,1.5,0.4,2.6,1.2,3.4c0.8,0.8,2,1.2,3.5,1.2c1.3,0,2.7-0.5,4-1.5
		l-0.3,3.3c-1.8,0.6-3.4,0.9-4.8,0.9c-4.7,0-7-2.6-7-7.8c0-3.1,1-5.7,2.9-7.8c2-2.1,4.4-3.2,7.4-3.2c1.8,0,3.2,0.4,4.3,1.1
		s1.6,1.9,1.6,3.3c0,2-0.8,3.5-2.5,4.7c-1.7,1.1-3.7,1.7-6.1,1.7C433.5,295.4,432.1,295.1,431,294.5z M431.6,292.1
		c0.9,0.4,1.9,0.6,3,0.6c1.8,0,3.2-0.3,4.3-0.9c1.1-0.6,1.7-1.4,1.7-2.5c0-1.4-1-2.1-2.9-2.1C434.8,287.3,432.7,288.9,431.6,292.1z"
		/>
	<path class="st3" d="M456.6,303l1.9-10.5c0.2-0.9,0.3-1.7,0.3-2.3c0-1.9-1-2.9-3-2.9c-0.8,0-1.6,0.2-2.5,0.7
		c-0.9,0.5-1.6,1-2.1,1.6l-2.3,13.4h-3.2l2.4-13.7c0.1-0.3,0.1-0.7,0.1-1.1c0-1.1-0.1-2.1-0.4-3l3.1-0.6c0.3,1.6,0.5,2.5,0.4,2.7
		c1.4-1.8,3.4-2.7,5.9-2.7c3.3,0,4.9,1.7,4.9,5c0,0.7-0.1,1.4-0.2,2.2L460,303H456.6z"/>
	<path class="st3" d="M481.9,301l-0.4,2.4c-3.6,0-5.4-1.3-5.4-4c0-0.8,0.3-2.6,0.8-5.4l3.2-16.4h3.3l-3.1,15.4c-0.6,3.2-1,5.2-1,6
		C479.5,300.3,480.3,301,481.9,301z"/>
	<path class="st3" d="M485.9,296.4c0-3.2,0.9-6,2.8-8.3c1.9-2.3,4.3-3.5,7.2-3.5c2.2,0,3.9,0.6,5,1.8c1.2,1.2,1.7,2.9,1.7,5.1
		c0,1.7-0.3,3.5-1,5.4c-0.7,1.9-1.8,3.4-3.4,4.7c-1.6,1.2-3.5,1.9-5.6,1.9c-2.2,0-3.8-0.6-5-1.8
		C486.5,300.3,485.9,298.6,485.9,296.4z M489.3,296.2c0,3,1.3,4.6,3.8,4.6c1.9,0,3.4-0.9,4.5-2.8c1.1-1.8,1.7-4,1.7-6.4
		c0-2.9-1.3-4.4-3.8-4.4c-1.3,0-2.4,0.5-3.4,1.4c-1,0.9-1.7,2.1-2.1,3.5S489.3,294.9,489.3,296.2z"/>
	<path class="st3" d="M503.4,301.9l1.7-3c0.4,0.4,1.1,0.8,1.9,1.2c0.8,0.4,1.5,0.5,2.1,0.5c1,0,1.8-0.3,2.5-0.8c0.7-0.5,1-1.3,1-2.2
		c0-0.5-0.2-0.9-0.5-1.3c-0.3-0.4-0.9-0.8-1.8-1.3l-2.4-1.3c-0.7-0.4-1.3-0.9-1.6-1.6c-0.4-0.6-0.5-1.3-0.5-2c0-1.7,0.7-3,2-4
		c1.3-1,2.9-1.5,4.8-1.5c1.3,0,2.9,0.4,4.8,1.2l-1.4,3c-1.1-1-2.3-1.5-3.6-1.5c-0.8,0-1.6,0.2-2.2,0.6s-0.9,1-0.9,1.7
		c0,0.5,0.2,1,0.5,1.3c0.3,0.4,1,0.8,1.8,1.2l2.4,1.3c0.7,0.4,1.3,0.9,1.6,1.5c0.4,0.6,0.5,1.3,0.5,2c0,1.9-0.7,3.5-2.1,4.6
		c-1.4,1.1-3.2,1.7-5.3,1.7C506.6,303.4,504.9,302.9,503.4,301.9z"/>
	<path class="st3" d="M544.6,303.4l-9.7-17.6L532,303h-3.4l4.4-24.7h1.4l9.5,16.8l2.9-16.8h3.3l-4.4,25.1H544.6z"/>
	<path class="st3" d="M552,303l2.7-15.4h-2.4l0.6-2.6h5.5l-3.2,18H552z M557.2,277.9c0.6,0,1.1,0.2,1.6,0.6s0.7,1,0.7,1.6
		c0,0.6-0.2,1.1-0.7,1.6s-1,0.6-1.6,0.6s-1.1-0.2-1.6-0.6c-0.4-0.4-0.7-1-0.7-1.6c0-0.6,0.2-1.2,0.7-1.6
		C556.1,278.1,556.6,277.9,557.2,277.9z"/>
	<path class="st3" d="M572.6,303l1.9-10.5c0.2-0.9,0.3-1.7,0.3-2.3c0-1.9-1-2.9-3-2.9c-0.8,0-1.6,0.2-2.5,0.7
		c-0.9,0.5-1.6,1-2.1,1.6l-2.3,13.4h-3.2l2.4-13.7c0.1-0.3,0.1-0.7,0.1-1.1c0-1.1-0.1-2.1-0.4-3l3.1-0.6c0.3,1.6,0.4,2.5,0.4,2.7
		c1.4-1.8,3.4-2.7,5.9-2.7c3.3,0,4.9,1.7,4.9,5c0,0.7-0.1,1.4-0.2,2.2L576,303H572.6z M577.9,278.8c-1,2.3-2.3,3.5-3.9,3.5
		c-0.7,0-1.4-0.2-2.2-0.6c-0.8-0.4-1.4-0.6-1.7-0.6c-0.8,0-1.5,0.4-2.1,1.3h-1.5c0.3-0.9,0.9-1.8,1.5-2.5c0.7-0.7,1.4-1,2.2-1
		c0.9,0,1.7,0.2,2.4,0.6c0.8,0.4,1.3,0.6,1.7,0.6c0.9,0,1.6-0.4,2.1-1.3H577.9z"/>
	<path class="st3" d="M580.4,296.4c0-3.2,0.9-6,2.8-8.3c1.9-2.3,4.3-3.5,7.2-3.5c2.2,0,3.9,0.6,5,1.8s1.7,2.9,1.7,5.1
		c0,1.7-0.3,3.5-1,5.4c-0.7,1.9-1.8,3.4-3.4,4.7c-1.6,1.2-3.5,1.9-5.6,1.9c-2.2,0-3.8-0.6-5-1.8C581,300.3,580.4,298.6,580.4,296.4z
		 M583.8,296.2c0,3,1.3,4.6,3.8,4.6c1.9,0,3.4-0.9,4.5-2.8c1.1-1.8,1.7-4,1.7-6.4c0-2.9-1.3-4.4-3.8-4.4c-1.3,0-2.4,0.5-3.4,1.4
		c-1,0.9-1.7,2.1-2.1,3.5C584,293.6,583.8,294.9,583.8,296.2z"/>
	<path class="st3" d="M597.9,301.9l1.7-3c0.4,0.4,1.1,0.8,1.9,1.2c0.8,0.4,1.5,0.5,2.1,0.5c1,0,1.8-0.3,2.5-0.8c0.7-0.5,1-1.3,1-2.2
		c0-0.5-0.2-0.9-0.5-1.3c-0.3-0.4-0.9-0.8-1.8-1.3l-2.4-1.3c-0.7-0.4-1.3-0.9-1.6-1.6c-0.4-0.6-0.5-1.3-0.5-2c0-1.7,0.7-3,2-4
		c1.3-1,2.9-1.5,4.8-1.5c1.3,0,2.9,0.4,4.8,1.2l-1.4,3c-1.1-1-2.3-1.5-3.6-1.5c-0.8,0-1.6,0.2-2.2,0.6s-0.9,1-0.9,1.7
		c0,0.5,0.2,1,0.5,1.3c0.3,0.4,1,0.8,1.8,1.2l2.4,1.3c0.7,0.4,1.3,0.9,1.6,1.5c0.4,0.6,0.5,1.3,0.5,2c0,1.9-0.7,3.5-2.1,4.6
		c-1.4,1.1-3.2,1.7-5.3,1.7C601.1,303.4,599.4,302.9,597.9,301.9z"/>
	<path class="st3" d="M616.6,298.6c0.7,0,1.2,0.2,1.7,0.7c0.5,0.5,0.7,1,0.7,1.7c0,0.7-0.2,1.2-0.7,1.7s-1,0.7-1.7,0.7
		c-0.7,0-1.2-0.2-1.7-0.7c-0.5-0.5-0.7-1-0.7-1.7c0-0.7,0.2-1.2,0.7-1.7C615.4,298.8,615.9,298.6,616.6,298.6z M617.5,295.8h-1.7
		c0-0.1-0.1-0.4-0.1-0.8c-0.1-0.4-0.1-0.7-0.1-0.9c0-1.5,0.6-2.9,1.8-4.3l3.3-3.2c0.6-0.6,1.1-1.2,1.4-1.9c0.3-0.7,0.5-1.3,0.5-2
		c0-1.6-0.9-2.3-2.8-2.3c-1.4,0-2.4,0.3-3.3,1l-1.1-2.2c1-0.9,2.8-1.4,5.3-1.4c1.5,0,2.8,0.4,3.7,1.3c0.9,0.8,1.4,2,1.4,3.5
		c0,2-0.7,3.8-2.2,5.3l-3.9,3.4c-0.7,0.7-1.3,1.3-1.7,2.1C617.7,294.2,617.5,295,617.5,295.8z"/>
</g>
<g>
	<polygon points="525.5,760.7 494.1,729.9 495.5,728.4 525.5,757.9 554.7,728.5 556.1,729.9 	"/>
</g>
<g>
	<polygon points="525.1,773.4 504.8,753.6 506.2,752.1 525.1,770.6 544.6,752.1 546,753.6 	"/>
</g>
<g>
	<path d="M464.1,703.4c-1.1-0.9-1.7-2-1.7-3.4v-0.9c0-0.2,0.1-0.3,0.3-0.3h0.8c0.2,0,0.3,0.1,0.3,0.3v0.8c0,1.1,0.4,1.9,1.3,2.6
		c0.9,0.7,2.1,1,3.6,1c1.4,0,2.5-0.3,3.3-0.9s1.1-1.4,1.1-2.5c0-0.6-0.2-1.2-0.5-1.7c-0.3-0.5-0.9-0.9-1.6-1.3s-1.7-0.9-3-1.4
		c-1.4-0.6-2.4-1-3.1-1.4c-0.7-0.4-1.2-0.9-1.7-1.4s-0.6-1.3-0.6-2.2c0-1.4,0.5-2.5,1.5-3.3c1-0.8,2.3-1.2,4.1-1.2
		c1.9,0,3.4,0.4,4.4,1.3c1.1,0.9,1.6,2,1.6,3.5v0.6c0,0.2-0.1,0.3-0.3,0.3h-0.9c-0.2,0-0.3-0.1-0.3-0.3V691c0-1.1-0.4-2-1.2-2.6
		c-0.8-0.7-2-1-3.5-1c-1.3,0-2.3,0.3-3,0.8s-1.1,1.3-1.1,2.4c0,0.7,0.2,1.3,0.5,1.7c0.3,0.4,0.8,0.8,1.4,1.1
		c0.6,0.3,1.6,0.7,2.8,1.3c1.3,0.5,2.3,1,3.1,1.5c0.8,0.5,1.4,1,1.9,1.7c0.5,0.6,0.7,1.4,0.7,2.3c0,1.4-0.5,2.5-1.6,3.4
		c-1,0.8-2.5,1.3-4.4,1.3C466.7,704.7,465.2,704.3,464.1,703.4z"/>
	<path d="M480,703.8c-0.9-0.6-1.4-1.5-1.7-2.6c-0.2-0.8-0.3-1.9-0.3-3.2c0-1.3,0.1-2.4,0.3-3.2c0.3-1.1,0.8-1.9,1.7-2.5
		c0.9-0.6,1.9-1,3.1-1c1.2,0,2.3,0.3,3.2,0.9s1.5,1.4,1.7,2.3c0.1,0.2,0.1,0.5,0.2,0.7v0.1c0,0.1-0.1,0.2-0.2,0.2l-0.8,0.1H487
		c-0.1,0-0.2-0.1-0.2-0.2l-0.1-0.4c-0.2-0.7-0.6-1.3-1.2-1.8c-0.7-0.5-1.5-0.7-2.4-0.7c-1,0-1.7,0.3-2.4,0.8s-1,1.2-1.2,2
		c-0.2,0.7-0.2,1.6-0.2,2.8c0,1.2,0.1,2.1,0.2,2.8c0.2,0.8,0.6,1.5,1.2,2s1.4,0.8,2.4,0.8c0.9,0,1.7-0.2,2.4-0.7s1.1-1.1,1.2-1.9
		l0-0.1c0-0.2,0.1-0.3,0.3-0.2l0.8,0.1c0.2,0,0.3,0.1,0.2,0.3l-0.1,0.5c-0.2,1-0.8,1.8-1.7,2.4s-2,0.9-3.2,0.9
		C481.9,704.7,480.8,704.4,480,703.8z"/>
	<path d="M498.2,691.6c0.1,0.1,0.2,0.2,0.2,0.3l-0.2,0.8c-0.1,0.2-0.2,0.2-0.3,0.2c-0.3-0.1-0.8-0.2-1.3-0.2c-1,0-1.8,0.4-2.4,1.1
		c-0.6,0.7-0.9,1.6-0.9,2.6v7.7c0,0.2-0.1,0.3-0.3,0.3H492c-0.2,0-0.3-0.1-0.3-0.3v-12.6c0-0.2,0.1-0.3,0.3-0.3h0.9
		c0.2,0,0.3,0.1,0.3,0.3v1.8c0,0.1,0,0.1,0,0.1c0,0,0,0,0.1-0.1c0.4-0.7,0.8-1.2,1.4-1.6c0.6-0.4,1.3-0.6,2-0.6
		C497.3,691.3,497.8,691.4,498.2,691.6z"/>
	<path d="M502.6,703.8c-0.9-0.6-1.5-1.5-1.8-2.6c-0.2-0.7-0.3-1.8-0.3-3.2c0-1.5,0.1-2.5,0.3-3.2c0.3-1.1,0.9-1.9,1.8-2.6
		c0.9-0.6,1.9-0.9,3.2-0.9c1.2,0,2.3,0.3,3.1,1c0.9,0.6,1.5,1.5,1.8,2.5c0.1,0.4,0.2,0.8,0.2,1.3c0,0.5,0.1,1.1,0.1,1.9
		c0,0.8,0,1.4-0.1,1.9c0,0.5-0.1,0.9-0.2,1.3c-0.3,1.1-0.9,1.9-1.8,2.6c-0.9,0.6-1.9,1-3.2,1C504.5,704.7,503.5,704.4,502.6,703.8z
		 M508.1,702.7c0.7-0.5,1.1-1.2,1.3-2c0.1-0.5,0.2-1.4,0.2-2.8c0-1.4-0.1-2.3-0.2-2.8c-0.2-0.8-0.6-1.5-1.3-2s-1.4-0.8-2.4-0.8
		c-0.9,0-1.7,0.3-2.4,0.8s-1.1,1.2-1.2,2c-0.1,0.5-0.2,1.5-0.2,2.8s0.1,2.2,0.2,2.8c0.2,0.8,0.6,1.5,1.2,2s1.4,0.8,2.4,0.8
		C506.7,703.5,507.4,703.3,508.1,702.7z"/>
	<path d="M515,704.3v-17.7c0-0.2,0.1-0.3,0.3-0.3h0.9c0.2,0,0.3,0.1,0.3,0.3v17.7c0,0.2-0.1,0.3-0.3,0.3h-0.9
		C515.1,704.5,515,704.4,515,704.3z"/>
	<path d="M520.9,704.3v-17.7c0-0.2,0.1-0.3,0.3-0.3h0.9c0.2,0,0.3,0.1,0.3,0.3v17.7c0,0.2-0.1,0.3-0.3,0.3h-0.9
		C521,704.5,520.9,704.4,520.9,704.3z"/>
	<path d="M540.4,686.3h0.9c0.2,0,0.3,0.1,0.3,0.3v17.7c0,0.2-0.1,0.3-0.3,0.3h-0.9c-0.2,0-0.3-0.1-0.3-0.3V703c0-0.1,0-0.1,0-0.1
		c0,0-0.1,0-0.1,0c-0.4,0.6-0.8,1-1.5,1.3c-0.6,0.3-1.3,0.5-2.1,0.5c-1.2,0-2.2-0.3-3-0.9s-1.4-1.5-1.7-2.5
		c-0.1-0.4-0.2-0.8-0.2-1.3c0-0.5-0.1-1.1-0.1-1.9c0-0.8,0-1.4,0.1-1.9c0-0.5,0.1-1,0.2-1.4c0.3-1.1,0.8-1.9,1.6-2.6
		c0.8-0.6,1.8-0.9,3.1-0.9c0.8,0,1.4,0.2,2.1,0.5c0.6,0.3,1.1,0.8,1.5,1.3c0,0.1,0,0.1,0.1,0.1c0,0,0.1,0,0.1-0.1v-6.4
		C540.1,686.4,540.2,686.3,540.4,686.3z M540,699.9c0-0.4,0.1-1.1,0.1-2c0-0.9,0-1.6-0.1-2c-0.1-0.4-0.1-0.8-0.3-1.2
		c-0.2-0.7-0.6-1.3-1.1-1.7c-0.5-0.4-1.2-0.7-2-0.7c-0.8,0-1.5,0.2-2.1,0.7c-0.6,0.4-1,1-1.2,1.7c-0.2,0.3-0.3,0.7-0.3,1.1
		c-0.1,0.4-0.1,1.1-0.1,2c0,0.9,0,1.6,0.1,2s0.1,0.8,0.3,1.1c0.2,0.7,0.6,1.3,1.2,1.8c0.6,0.5,1.3,0.7,2.2,0.7c0.8,0,1.5-0.2,2-0.7
		c0.5-0.5,0.9-1,1.1-1.8C539.9,700.7,540,700.4,540,699.9z"/>
	<path d="M547.6,703.8c-0.9-0.6-1.5-1.5-1.8-2.6c-0.2-0.7-0.3-1.8-0.3-3.2c0-1.5,0.1-2.5,0.3-3.2c0.3-1.1,0.9-1.9,1.8-2.6
		c0.9-0.6,1.9-0.9,3.2-0.9c1.2,0,2.3,0.3,3.1,1c0.9,0.6,1.5,1.5,1.8,2.5c0.1,0.4,0.2,0.8,0.2,1.3c0,0.5,0.1,1.1,0.1,1.9
		c0,0.8,0,1.4-0.1,1.9c0,0.5-0.1,0.9-0.2,1.3c-0.3,1.1-0.9,1.9-1.8,2.6c-0.9,0.6-1.9,1-3.2,1C549.6,704.7,548.5,704.4,547.6,703.8z
		 M553.1,702.7c0.7-0.5,1.1-1.2,1.3-2c0.1-0.5,0.2-1.4,0.2-2.8c0-1.4-0.1-2.3-0.2-2.8c-0.2-0.8-0.6-1.5-1.3-2s-1.4-0.8-2.4-0.8
		c-0.9,0-1.7,0.3-2.4,0.8s-1.1,1.2-1.2,2c-0.1,0.5-0.2,1.5-0.2,2.8s0.1,2.2,0.2,2.8c0.2,0.8,0.6,1.5,1.2,2s1.4,0.8,2.4,0.8
		C551.7,703.5,552.5,703.3,553.1,702.7z"/>
	<path d="M561.9,704.3l-3.7-12.6l0-0.1c0-0.1,0.1-0.2,0.3-0.2h0.9c0.2,0,0.3,0.1,0.3,0.2l3,10.8c0,0,0,0.1,0.1,0.1c0,0,0,0,0.1-0.1
		l3-10.9c0-0.1,0.1-0.2,0.3-0.2h0.8c0.1,0,0.2,0.1,0.3,0.2l3.1,10.8c0,0,0,0.1,0.1,0.1c0,0,0,0,0.1-0.1l3-10.8
		c0-0.2,0.1-0.2,0.3-0.2l0.9,0c0.1,0,0.2,0,0.2,0.1c0.1,0.1,0.1,0.1,0,0.2l-3.7,12.6c-0.1,0.1-0.1,0.2-0.3,0.2h-0.9
		c-0.1,0-0.2-0.1-0.3-0.2l-3.1-10.4c0,0,0-0.1-0.1-0.1c0,0,0,0-0.1,0.1l-3,10.4c-0.1,0.1-0.1,0.2-0.3,0.2h-0.9
		C562,704.5,561.9,704.5,561.9,704.3z"/>
	<path d="M586.3,692.5c0.8,0.8,1.2,1.9,1.2,3.2v8.6c0,0.2-0.1,0.3-0.3,0.3h-0.9c-0.2,0-0.3-0.1-0.3-0.3v-8.3c0-1-0.3-1.9-0.9-2.5
		c-0.6-0.7-1.4-1-2.4-1c-1,0-1.9,0.3-2.5,0.9c-0.6,0.6-1,1.5-1,2.5v8.4c0,0.2-0.1,0.3-0.3,0.3h-0.9c-0.2,0-0.3-0.1-0.3-0.3v-12.6
		c0-0.2,0.1-0.3,0.3-0.3h0.9c0.2,0,0.3,0.1,0.3,0.3v1.3c0,0.1,0,0.1,0,0.1c0,0,0,0,0.1,0c0.4-0.6,0.9-1,1.5-1.3
		c0.6-0.3,1.3-0.5,2.2-0.5C584.4,691.2,585.5,691.6,586.3,692.5z"/>
</g>
</svg>
