<svg xmlns="http://www.w3.org/2000/svg" xmlns:xlink="http://www.w3.org/1999/xlink" viewBox="0 0 1057.54 829.08"><defs><style>.cls-1,.cls-3,.cls-5{fill:none;}.cls-2{fill:#d1468b;}.cls-3,.cls-5{stroke:#fff;}.cls-3{stroke-linecap:square;stroke-width:4px;}.cls-4{fill:#fff;}.cls-5{stroke-miterlimit:10;stroke-width:2px;}.cls-6{fill:#cbd84c;fill-rule:evenodd;}.cls-7{clip-path:url(#clip-path);}.cls-8{fill:url(#Degradado_sin_nombre_3);}.cls-9{clip-path:url(#clip-path-2);}.cls-10{fill:url(#Degradado_sin_nombre_2);}.cls-11{fill:#25b8d0;}.cls-12{fill:#e3d16b;}.cls-13{fill:#e28925;}.cls-14{fill:#993b8d;}.cls-15{fill:url(#Degradado_sin_nombre_3-2);}.cls-16{fill:url(#Degradado_sin_nombre_2-2);}</style><clipPath id="clip-path"><path class="cls-1" d="M126.76,437.75l31.91,24.38,31.61-24c-7.09-8.66-18.75-14.3-31.94-14.3-13,0-24.46,5.46-31.58,13.88"/></clipPath><radialGradient id="Degradado_sin_nombre_3" cx="3146.45" cy="1223.25" r="1.08" gradientTransform="matrix(-0.63, 23.66, -24.24, -0.61, 31781.9, -73265.36)" gradientUnits="userSpaceOnUse"><stop offset="0" stop-color="#cdd74f"/><stop offset="0.16" stop-color="#cdd74f"/><stop offset="1" stop-color="#779134"/></radialGradient><clipPath id="clip-path-2"><path class="cls-1" d="M151.88,411.85l-.19.51-21.33.13,0,0h0l15.72,11.82h0l.2.16-5.86,20.33L158,433.31l18.57,11.4-6.94-20.46,16.14-11.76h0l.05,0-21.92-.24-.23-.68-5.37-17.1Z"/></clipPath><linearGradient id="Degradado_sin_nombre_2" x1="3154.34" y1="1157.43" x2="3155.41" y2="1157.43" gradientTransform="matrix(-43.73, 0, -0.01, -44.81, 138143.14, 52280.46)" gradientUnits="userSpaceOnUse"><stop offset="0" stop-color="#607dbc"/><stop offset="0.34" stop-color="#607dbc"/><stop offset="0.63" stop-color="#4f61a0"/><stop offset="0.95" stop-color="#3d395e"/><stop offset="1" stop-color="#3d395e"/></linearGradient><radialGradient id="Degradado_sin_nombre_3-2" cx="3146.45" cy="1223.25" r="1.08" xlink:href="#Degradado_sin_nombre_3"/><linearGradient id="Degradado_sin_nombre_2-2" x1="3154.34" y1="1157.43" x2="3155.41" y2="1157.43" xlink:href="#Degradado_sin_nombre_2"/></defs><title>portada-desktop_1</title><g id="Capa_2" data-name="Capa 2"><g id="Capa_1-2" data-name="Capa 1"><polygon class="cls-2" points="793.15 0 528.77 0 264.38 0 0 0 0 634.29 0 829.08 264.38 829.08 528.77 829.08 793.15 829.08 1057.54 829.08 1057.54 634.29 1057.54 0 793.15 0"/><line class="cls-3" x1="120.66" y1="369.42" x2="732.94" y2="369.42"/><path class="cls-4" d="M124.25,306.89a1.09,1.09,0,0,1-.33-.8V241.84a1.1,1.1,0,0,1,.33-.81,1.13,1.13,0,0,1,.81-.33h23.19a27.9,27.9,0,0,1,11.88,2.38,18.14,18.14,0,0,1,7.94,6.79,18.82,18.82,0,0,1,2.8,10.31v27.56a18.86,18.86,0,0,1-2.8,10.32,18.2,18.2,0,0,1-7.94,6.79,27.9,27.9,0,0,1-11.88,2.38H125.06A1.1,1.1,0,0,1,124.25,306.89Zm11.17-9.17h13.31a10.52,10.52,0,0,0,8-3.18,12.31,12.31,0,0,0,3.09-8.51V262a12,12,0,0,0-3-8.6,10.77,10.77,0,0,0-8.18-3.19H135.42a.42.42,0,0,0-.47.48v46.57A.41.41,0,0,0,135.42,297.72Z"/><path class="cls-4" d="M227.37,249.87a1.1,1.1,0,0,1-.81.33h-32.4a.42.42,0,0,0-.48.48v17.77a.42.42,0,0,0,.48.48h21.76a1.13,1.13,0,0,1,1.14,1.14v7.22a1.13,1.13,0,0,1-1.14,1.14H194.16a.42.42,0,0,0-.48.48v18.34a.42.42,0,0,0,.48.47h32.4a1.07,1.07,0,0,1,.81.34,1.1,1.1,0,0,1,.34.8v7.23a1.1,1.1,0,0,1-.34.8,1.07,1.07,0,0,1-.81.34H183.8a1.07,1.07,0,0,1-.81-.34,1.09,1.09,0,0,1-.33-.8V241.84a1.13,1.13,0,0,1,1.14-1.14h42.76a1.14,1.14,0,0,1,1.15,1.14v7.22A1.11,1.11,0,0,1,227.37,249.87Z"/><path class="cls-4" d="M239.25,306.89a1.09,1.09,0,0,1-.33-.8V241.84a1.13,1.13,0,0,1,1.14-1.14h8.74a1.13,1.13,0,0,1,1.14,1.14v55.41a.42.42,0,0,0,.48.47h31.84a1.14,1.14,0,0,1,1.14,1.14v7.23a1.14,1.14,0,0,1-1.14,1.14h-42.2A1.07,1.07,0,0,1,239.25,306.89Z"/><path class="cls-4" d="M352.21,306.28l-3.14-10.17c-.13-.26-.28-.38-.47-.38H323.5c-.19,0-.34.12-.47.38l-3.14,10.17a1.19,1.19,0,0,1-1.23,1h-9.51a1,1,0,0,1-.85-.34,1,1,0,0,1-.1-1l20.63-64.25a1.19,1.19,0,0,1,1.23-1h11.88a1.2,1.2,0,0,1,1.24,1L363.9,305.9a1.06,1.06,0,0,1,.09.47c0,.57-.35.86-1,.86h-9.51A1.19,1.19,0,0,1,352.21,306.28Zm-25.85-19.2h19.29c.38,0,.51-.19.38-.57l-9.79-31.84c-.06-.25-.16-.38-.28-.38s-.23.13-.29.38L326,286.51C325.91,286.89,326,287.08,326.36,287.08Z"/><path class="cls-4" d="M411,243.08a17.43,17.43,0,0,1,7.08,7,21.1,21.1,0,0,1,2.51,10.41,20.24,20.24,0,0,1-2.56,10.26,17.33,17.33,0,0,1-7.27,6.89,23.41,23.41,0,0,1-10.88,2.43H384.71a.42.42,0,0,0-.48.47v25.57a1.09,1.09,0,0,1-.33.8,1.07,1.07,0,0,1-.81.34h-8.74a1.07,1.07,0,0,1-.81-.34,1.09,1.09,0,0,1-.33-.8V241.74a1.09,1.09,0,0,1,.33-.8,1.11,1.11,0,0,1,.81-.34h26.14A21.78,21.78,0,0,1,411,243.08Zm-4.38,25.18a10,10,0,0,0,2.95-7.51,10.4,10.4,0,0,0-2.95-7.7,10.54,10.54,0,0,0-7.79-2.94H384.71a.42.42,0,0,0-.48.47v20.06a.42.42,0,0,0,.48.47h14.16A10.72,10.72,0,0,0,406.66,268.26Z"/><path class="cls-4" d="M466.35,306.37,453.8,279a.61.61,0,0,0-.57-.38h-11.4a.42.42,0,0,0-.48.48v27a1.09,1.09,0,0,1-.33.8,1.07,1.07,0,0,1-.81.34h-8.74a1.07,1.07,0,0,1-.81-.34,1.09,1.09,0,0,1-.33-.8V241.84a1.13,1.13,0,0,1,1.14-1.14H457.6a21.26,21.26,0,0,1,10.27,2.42,17.2,17.2,0,0,1,6.94,6.85,20.44,20.44,0,0,1,2.47,10.12,18.36,18.36,0,0,1-3.38,11.16,17.41,17.41,0,0,1-9.36,6.42.29.29,0,0,0-.28.19.37.37,0,0,0,0,.38l13.4,27.66a1.54,1.54,0,0,1,.19.57c0,.5-.35.76-1.05.76h-9.12A1.34,1.34,0,0,1,466.35,306.37Zm-25-55.69v18.91a.42.42,0,0,0,.48.48h14.25a10.18,10.18,0,0,0,7.37-2.71,9.53,9.53,0,0,0,2.8-7.18,9.67,9.67,0,0,0-2.8-7.22,10,10,0,0,0-7.37-2.76H441.83A.42.42,0,0,0,441.35,250.68Z"/><path class="cls-4" d="M533.3,249.87a1.09,1.09,0,0,1-.8.33H500.09a.42.42,0,0,0-.48.48v17.77a.42.42,0,0,0,.48.48h21.76a1.13,1.13,0,0,1,1.14,1.14v7.22a1.13,1.13,0,0,1-1.14,1.14H500.09a.42.42,0,0,0-.48.48v18.34a.42.42,0,0,0,.48.47H532.5a1.07,1.07,0,0,1,.8.34,1.1,1.1,0,0,1,.34.8v7.23a1.1,1.1,0,0,1-.34.8,1.07,1.07,0,0,1-.8.34H489.73a1.07,1.07,0,0,1-.81-.34,1.09,1.09,0,0,1-.33-.8V241.84a1.13,1.13,0,0,1,1.14-1.14H532.5a1.09,1.09,0,0,1,.8.33,1.11,1.11,0,0,1,.34.81v7.22A1.11,1.11,0,0,1,533.3,249.87Z"/><path class="cls-4" d="M583.86,241a1.1,1.1,0,0,1,.81-.33h8.75a1.09,1.09,0,0,1,.8.33,1.11,1.11,0,0,1,.34.81v64.25a1.1,1.1,0,0,1-.34.8,1.07,1.07,0,0,1-.8.34H585a1.36,1.36,0,0,1-1.33-.76l-27.38-44.86c-.12-.19-.25-.27-.38-.24s-.19.18-.19.43l.19,44.29a1.09,1.09,0,0,1-.33.8,1.07,1.07,0,0,1-.81.34H546a1.07,1.07,0,0,1-.81-.34,1.09,1.09,0,0,1-.33-.8V241.84A1.13,1.13,0,0,1,546,240.7h8.46a1.36,1.36,0,0,1,1.33.76l27.28,44.86c.12.19.25.27.38.24s.19-.18.19-.43l-.1-44.29A1.1,1.1,0,0,1,583.86,241Z"/><path class="cls-4" d="M608.76,306.89a1.09,1.09,0,0,1-.33-.8V241.84a1.13,1.13,0,0,1,1.14-1.14h23.19a27.9,27.9,0,0,1,11.88,2.38,18.14,18.14,0,0,1,7.94,6.79,18.82,18.82,0,0,1,2.8,10.31v27.56a18.86,18.86,0,0,1-2.8,10.32,18.2,18.2,0,0,1-7.94,6.79,27.9,27.9,0,0,1-11.88,2.38H609.57A1.07,1.07,0,0,1,608.76,306.89Zm11.17-9.17h13.31a10.52,10.52,0,0,0,8-3.18,12.31,12.31,0,0,0,3.09-8.51V262a11.92,11.92,0,0,0-3.05-8.6,10.73,10.73,0,0,0-8.17-3.19H619.93a.42.42,0,0,0-.47.48v46.57A.41.41,0,0,0,619.93,297.72Z"/><path class="cls-4" d="M667.5,306.89a1.09,1.09,0,0,1-.33-.8V241.84a1.13,1.13,0,0,1,1.14-1.14h8.74a1.12,1.12,0,0,1,.81.33,1.1,1.1,0,0,1,.33.81v64.25a1.14,1.14,0,0,1-1.14,1.14h-8.74A1.07,1.07,0,0,1,667.5,306.89Z"/><path class="cls-4" d="M689,306.89a1.09,1.09,0,0,1-.33-.8V298a2.8,2.8,0,0,1,.47-1.43l32-45.81a.31.31,0,0,0,.1-.38.4.4,0,0,0-.38-.19H689.79a1.13,1.13,0,0,1-1.14-1.14v-7.22a1.13,1.13,0,0,1,1.14-1.14h42.77a1.13,1.13,0,0,1,.81.33,1.1,1.1,0,0,1,.33.81v8.08a2.67,2.67,0,0,1-.48,1.42l-32,45.81a.32.32,0,0,0-.09.38.37.37,0,0,0,.38.19h31.08a1.14,1.14,0,0,1,1.14,1.14v7.23a1.14,1.14,0,0,1-1.14,1.14H689.79A1.07,1.07,0,0,1,689,306.89Z"/><path class="cls-4" d="M785.49,306.28l-3.13-10.17c-.13-.26-.29-.38-.48-.38H756.79c-.19,0-.35.12-.47.38l-3.14,10.17a1.19,1.19,0,0,1-1.23,1h-9.51a1,1,0,0,1-.85-.34,1,1,0,0,1-.1-1l20.62-64.25a1.2,1.2,0,0,1,1.24-1h11.88a1.2,1.2,0,0,1,1.24,1l20.71,64.25a.94.94,0,0,1,.1.47c0,.57-.35.86-1,.86h-9.5A1.2,1.2,0,0,1,785.49,306.28Zm-25.85-19.2h19.3c.38,0,.5-.19.38-.57l-9.79-31.84c-.07-.25-.16-.38-.29-.38s-.22.13-.28.38l-9.7,31.84C759.2,286.89,759.33,287.08,759.64,287.08Z"/><path class="cls-4" d="M814.58,305.37A19.11,19.11,0,0,1,806.5,298a21,21,0,0,1-2.85-11v-6.36a1.13,1.13,0,0,1,1.14-1.14h8.74a1.13,1.13,0,0,1,1.14,1.14V287A11.06,11.06,0,0,0,818,295.3a12.1,12.1,0,0,0,8.79,3.18,12.35,12.35,0,0,0,8.75-3.18,10.84,10.84,0,0,0,3.42-8.32V241.84a1.13,1.13,0,0,1,1.14-1.14h8.65a1.09,1.09,0,0,1,.8.33,1.07,1.07,0,0,1,.34.81V287a20.77,20.77,0,0,1-2.9,11,19.43,19.43,0,0,1-8.18,7.36,29.2,29.2,0,0,1-24.18,0Z"/><path class="cls-4" d="M908.43,249.87a1.1,1.1,0,0,1-.81.33H875.21a.42.42,0,0,0-.47.48v17.77a.42.42,0,0,0,.47.48H897a1.09,1.09,0,0,1,.8.33,1.11,1.11,0,0,1,.34.81v7.22a1.11,1.11,0,0,1-.34.81,1.09,1.09,0,0,1-.8.33H875.21a.42.42,0,0,0-.47.48v18.34a.41.41,0,0,0,.47.47h32.41a1.07,1.07,0,0,1,.81.34,1.09,1.09,0,0,1,.33.8v7.23a1.09,1.09,0,0,1-.33.8,1.07,1.07,0,0,1-.81.34H864.85a1.14,1.14,0,0,1-1.14-1.14V241.84A1.1,1.1,0,0,1,864,241a1.13,1.13,0,0,1,.81-.33h42.77a1.13,1.13,0,0,1,1.14,1.14v7.22A1.1,1.1,0,0,1,908.43,249.87Z"/><path class="cls-4" d="M126.68,205.86V141.24a.83.83,0,0,1,.95-1h3.13a.84.84,0,0,1,1,1V202a.33.33,0,0,0,.38.38h34.11a.84.84,0,0,1,1,1v2.56a.84.84,0,0,1-1,.95H127.63A.83.83,0,0,1,126.68,205.86Z"/><path class="cls-4" d="M218.77,206.05l-4.09-12.64a.37.37,0,0,0-.38-.28H184.65a.37.37,0,0,0-.38.28l-4,12.64a1.1,1.1,0,0,1-1.14.76h-3.33c-.69,0-.95-.34-.76-1l21.1-64.72a1.1,1.1,0,0,1,1.14-.76h4.28a1.1,1.1,0,0,1,1.14.76l21.19,64.72.1.38c0,.44-.29.66-.86.66h-3.23A1.1,1.1,0,0,1,218.77,206.05ZM185.84,188.8a.43.43,0,0,0,.33.15h26.61a.46.46,0,0,0,.34-.15.26.26,0,0,0,0-.33l-13.4-41.34a.3.3,0,0,0-.28-.19.3.3,0,0,0-.29.19l-13.4,41.34A.27.27,0,0,0,185.84,188.8Z"/><path class="cls-4" d="M264.39,205.1a18.32,18.32,0,0,1-7.65-7.27A21.17,21.17,0,0,1,254,187V160a20.64,20.64,0,0,1,2.71-10.69,18.49,18.49,0,0,1,7.65-7.18,24.4,24.4,0,0,1,11.4-2.57A24.65,24.65,0,0,1,287.1,142a18.33,18.33,0,0,1,7.65,7.08,20.23,20.23,0,0,1,2.71,10.55v.1a1,1,0,0,1-.28.76.91.91,0,0,1-.67.28l-3.13.19a.83.83,0,0,1-.95-.95v-.28q0-7.12-4.57-11.45T275.79,144q-7.6,0-12.16,4.33t-4.56,11.45v27.56a15.09,15.09,0,0,0,4.61,11.5q4.6,4.36,12.11,4.37t12.07-4.37a15.17,15.17,0,0,0,4.57-11.5v-.19c0-.57.31-.86.95-.86l3.13.19c.64,0,.95.29.95.86a20.52,20.52,0,0,1-2.71,10.6,18.53,18.53,0,0,1-7.65,7.17,26.37,26.37,0,0,1-22.71,0Z"/><path class="cls-4" d="M313.9,205.86V141.24a.84.84,0,0,1,1-1H318a.84.84,0,0,1,.95,1v64.62a.84.84,0,0,1-.95.95h-3.13A.84.84,0,0,1,313.9,205.86Z"/><path class="cls-4" d="M379.86,144.75h-36a.34.34,0,0,0-.38.38v25.66a.33.33,0,0,0,.38.38h25.57a.84.84,0,0,1,.95,1v2.57a.84.84,0,0,1-.95.95H343.84a.34.34,0,0,0-.38.38V202a.34.34,0,0,0,.38.38h36a.83.83,0,0,1,.95,1v2.56a.83.83,0,0,1-.95.95H339.38a.84.84,0,0,1-1-.95V141.24a.84.84,0,0,1,1-1h40.48a.83.83,0,0,1,.95,1v2.56A.83.83,0,0,1,379.86,144.75Z"/><path class="cls-4" d="M437.55,140.29h3.14a.84.84,0,0,1,.95,1v64.62a.84.84,0,0,1-.95.95h-3.14a1.39,1.39,0,0,1-1.14-.66L402,150.36c-.07-.19-.16-.27-.29-.24s-.19.14-.19.33v55.41a.84.84,0,0,1-.95.95h-3.14a.84.84,0,0,1-.95-.95V141.24a.84.84,0,0,1,.95-1h3.24a1.39,1.39,0,0,1,1.14.66l34.31,55.79c.06.19.15.27.28.24s.19-.15.19-.34v-55.4A.84.84,0,0,1,437.55,140.29Z"/><path class="cls-4" d="M469.2,205.1a18.32,18.32,0,0,1-7.65-7.27A21.17,21.17,0,0,1,458.84,187V160a20.64,20.64,0,0,1,2.71-10.69,18.49,18.49,0,0,1,7.65-7.18,24.37,24.37,0,0,1,11.4-2.57A24.65,24.65,0,0,1,491.91,142a18.33,18.33,0,0,1,7.65,7.08,20.23,20.23,0,0,1,2.71,10.55v.1a1,1,0,0,1-.28.76.92.92,0,0,1-.67.28l-3.14.19a.84.84,0,0,1-.95-.95v-.28q0-7.12-4.56-11.45T480.6,144q-7.61,0-12.16,4.33t-4.56,11.45v27.56a15.09,15.09,0,0,0,4.61,11.5q4.61,4.36,12.11,4.37t12.07-4.37a15.2,15.2,0,0,0,4.56-11.5v-.19c0-.57.32-.86.95-.86l3.14.19c.63,0,.95.29.95.86a20.52,20.52,0,0,1-2.71,10.6,18.53,18.53,0,0,1-7.65,7.17,26.37,26.37,0,0,1-22.71,0Z"/><path class="cls-4" d="M518.71,205.86V141.24a.84.84,0,0,1,.95-1h3.14a.84.84,0,0,1,1,1v64.62a.84.84,0,0,1-1,.95h-3.14A.84.84,0,0,1,518.71,205.86Z"/><path class="cls-4" d="M580.87,206.05l-4.09-12.64a.37.37,0,0,0-.38-.28H546.75a.37.37,0,0,0-.38.28l-4,12.64a1.1,1.1,0,0,1-1.14.76h-3.33c-.7,0-.95-.34-.76-1l21.1-64.72a1.1,1.1,0,0,1,1.14-.76h4.28a1.1,1.1,0,0,1,1.14.76L586,205.77l.1.38c0,.44-.29.66-.86.66H582A1.1,1.1,0,0,1,580.87,206.05ZM547.94,188.8a.43.43,0,0,0,.33.15h26.61a.43.43,0,0,0,.33-.15.26.26,0,0,0,0-.33l-13.4-41.34a.3.3,0,0,0-.28-.19.3.3,0,0,0-.29.19l-13.4,41.34A.26.26,0,0,0,547.94,188.8Z"/><path class="cls-4" d="M121.17,103.71A5.48,5.48,0,0,1,119,99.13V98a.31.31,0,0,1,.35-.34h1.07a.31.31,0,0,1,.35.34v1a4.1,4.1,0,0,0,1.76,3.46,8,8,0,0,0,4.84,1.31,7,7,0,0,0,4.39-1.19,4,4,0,0,0,1.52-3.3,3.73,3.73,0,0,0-.68-2.23,6.54,6.54,0,0,0-2.07-1.78,31.3,31.3,0,0,0-4-1.9c-1.79-.76-3.15-1.4-4.06-1.9a6.61,6.61,0,0,1-2.19-1.92,5,5,0,0,1-.83-3,5.23,5.23,0,0,1,2-4.37,8.51,8.51,0,0,1,5.41-1.54,9.13,9.13,0,0,1,5.91,1.73A5.63,5.63,0,0,1,134.85,87v.79a.31.31,0,0,1-.34.35h-1.14a.31.31,0,0,1-.35-.35v-.69a4.28,4.28,0,0,0-1.66-3.51,7.32,7.32,0,0,0-4.66-1.33,6.57,6.57,0,0,0-4,1.09,3.72,3.72,0,0,0-1.41,3.13,3.62,3.62,0,0,0,.65,2.25,5.65,5.65,0,0,0,1.89,1.5c.81.43,2.07,1,3.78,1.67a31.69,31.69,0,0,1,4.13,2,8.14,8.14,0,0,1,2.47,2.23,5.21,5.21,0,0,1,.9,3.08,5.52,5.52,0,0,1-2.07,4.49,9,9,0,0,1-5.81,1.69A9.56,9.56,0,0,1,121.17,103.71Z"/><path class="cls-4" d="M149.38,103.06A5.07,5.07,0,0,0,151.2,101a.31.31,0,0,1,.45-.17l.9.45a.31.31,0,0,1,.17.45,6.05,6.05,0,0,1-2.4,2.69,7.25,7.25,0,0,1-3.86,1,7.06,7.06,0,0,1-4.11-1.17A5.84,5.84,0,0,1,140,101a8.36,8.36,0,0,1-.38-1.93c-.07-.71-.11-1.61-.11-2.7s0-2,0-2.55a9.2,9.2,0,0,1,.23-1.59,6.14,6.14,0,0,1,2.26-3.49,7.53,7.53,0,0,1,8.73.15A6.54,6.54,0,0,1,152.93,93a12.7,12.7,0,0,1,.13,1.54c0,.59,0,1.32,0,2.19a.31.31,0,0,1-.35.35H141.49a.12.12,0,0,0-.14.14,16.34,16.34,0,0,0,.17,2.94,4.35,4.35,0,0,0,1.71,2.67,5.5,5.5,0,0,0,3.37,1A5.08,5.08,0,0,0,149.38,103.06Zm-8-7.69c0,.09,0,.13.14.13h9.64c.09,0,.14,0,.14-.13a13.82,13.82,0,0,0-.18-2.6,4.63,4.63,0,0,0-1.65-2.67,4.92,4.92,0,0,0-3.15-1,4.84,4.84,0,0,0-3.11,1,4.4,4.4,0,0,0-1.59,2.61A14.27,14.27,0,0,0,141.35,95.37Z"/><path class="cls-4" d="M167,88c.19.06.26.21.21.44l-.31,1.11a.3.3,0,0,1-.45.21,4.09,4.09,0,0,0-1.73-.24,4.19,4.19,0,0,0-3.2,1.46,5.14,5.14,0,0,0-1.26,3.51v10.3a.31.31,0,0,1-.34.35h-1.14a.31.31,0,0,1-.35-.35V88.07a.31.31,0,0,1,.35-.34h1.14a.3.3,0,0,1,.34.34v2.35a.14.14,0,0,0,.05.13s.07,0,.09-.09a5.77,5.77,0,0,1,1.88-2.11,4.84,4.84,0,0,1,2.72-.76A4.38,4.38,0,0,1,167,88Z"/><path class="cls-4" d="M171,83.75a1.83,1.83,0,1,1,1.25.49A1.67,1.67,0,0,1,171,83.75Zm.24,21V88a.31.31,0,0,1,.35-.35h1.14a.31.31,0,0,1,.34.35v16.73a.3.3,0,0,1-.34.34h-1.14A.31.31,0,0,1,171.24,104.77Z"/><path class="cls-4" d="M189,103.06a5.07,5.07,0,0,0,1.82-2.06.31.31,0,0,1,.45-.17l.9.45a.31.31,0,0,1,.17.45,6.05,6.05,0,0,1-2.4,2.69,7.25,7.25,0,0,1-3.86,1,7.06,7.06,0,0,1-4.11-1.17,5.84,5.84,0,0,1-2.31-3.22,8.36,8.36,0,0,1-.38-1.93c-.07-.71-.11-1.61-.11-2.7s0-2,0-2.55a9.2,9.2,0,0,1,.23-1.59,6.14,6.14,0,0,1,2.26-3.49,7.53,7.53,0,0,1,8.73.15A6.54,6.54,0,0,1,192.5,93a12.7,12.7,0,0,1,.13,1.54c0,.59,0,1.32,0,2.19a.31.31,0,0,1-.35.35H181.06a.12.12,0,0,0-.14.14,16.34,16.34,0,0,0,.17,2.94,4.39,4.39,0,0,0,1.71,2.67,5.5,5.5,0,0,0,3.37,1A5.08,5.08,0,0,0,189,103.06Zm-8-7.69c0,.09,0,.13.14.13h9.64c.09,0,.14,0,.14-.13a15,15,0,0,0-.17-2.6A4.69,4.69,0,0,0,189,90.1a4.9,4.9,0,0,0-3.15-1,4.84,4.84,0,0,0-3.11,1,4.4,4.4,0,0,0-1.59,2.61A15.21,15.21,0,0,0,180.92,95.37Z"/><path class="cls-4" d="M199.51,104.2a1.43,1.43,0,0,1-.41-1.06,2,2,0,0,1,.55-1.43,1.85,1.85,0,0,1,1.38-.57,1.43,1.43,0,0,1,1.06.41,1.57,1.57,0,0,1,.4,1.11,1.88,1.88,0,0,1-.56,1.38,1.83,1.83,0,0,1-1.35.55A1.52,1.52,0,0,1,199.51,104.2ZM201,92.48a1.41,1.41,0,0,1-.41-1A2,2,0,0,1,201.1,90a1.85,1.85,0,0,1,1.39-.57,1.39,1.39,0,0,1,1,.42,1.53,1.53,0,0,1,.4,1.1,1.88,1.88,0,0,1-.56,1.39,1.85,1.85,0,0,1-1.34.55A1.49,1.49,0,0,1,201,92.48Z"/><path class="cls-4" d="M223,94.71a.29.29,0,0,1,.05.24l-.28,2.25a4.22,4.22,0,0,1-1,2.33,15.24,15.24,0,0,1-2.31,2.06,15.94,15.94,0,0,0-2.47,2.24,5,5,0,0,0-1.06,2.66,5.74,5.74,0,0,0,0,.66,3.46,3.46,0,0,0,1,2.58,3.72,3.72,0,0,0,2.68,1,4.72,4.72,0,0,0,3.22-1.16,4.6,4.6,0,0,0,1.52-3.06l.17-1.17a.33.33,0,0,1,.1-.25.37.37,0,0,1,.28-.1L226,105a.31.31,0,0,1,.26.1.26.26,0,0,1,0,.24l-.14,1.11a6.6,6.6,0,0,1-2.21,4.29,6.7,6.7,0,0,1-4.56,1.62,5.39,5.39,0,0,1-3.84-1.33,4.78,4.78,0,0,1-1.41-3.65,8.26,8.26,0,0,1,.07-.93,6.78,6.78,0,0,1,.79-2.61,8,8,0,0,1,1.37-1.8,23.72,23.72,0,0,1,1.91-1.6,14.83,14.83,0,0,0,2-1.66,2.91,2.91,0,0,0,.74-1.7l.24-2.14a.49.49,0,0,1,.14-.24.33.33,0,0,1,.24-.1h1.18A.33.33,0,0,1,223,94.71Zm1.07-6.32a1.52,1.52,0,0,1,.39,1.1,1.9,1.9,0,0,1-1.9,1.94,1.52,1.52,0,0,1-1.07-.4,1.42,1.42,0,0,1-.41-1,2,2,0,0,1,.55-1.44A1.81,1.81,0,0,1,223,88,1.44,1.44,0,0,1,224.07,88.39Z"/><path class="cls-4" d="M233,103.73a6,6,0,0,1-1.84-4.63c0-.25,0-.63.07-1.14l1.21-9.85a8.58,8.58,0,0,1,1.44-3.89,7.89,7.89,0,0,1,3-2.61,9.08,9.08,0,0,1,4.13-.93,7,7,0,0,1,5,1.69,5.82,5.82,0,0,1,1.85,4.53c0,.23,0,.6-.07,1.11v0a.39.39,0,0,1-.1.26.35.35,0,0,1-.28.12l-1.1.07c-.23,0-.33-.12-.28-.35V88a6.74,6.74,0,0,0,.07-.86,4.63,4.63,0,0,0-1.42-3.55,5.35,5.35,0,0,0-3.8-1.33,6.61,6.61,0,0,0-4.48,1.58A6.37,6.37,0,0,0,234.25,88l-1.21,10a8.32,8.32,0,0,0-.07.87,4.67,4.67,0,0,0,1.41,3.57,5.39,5.39,0,0,0,3.84,1.33,6.5,6.5,0,0,0,4.44-1.59,6.36,6.36,0,0,0,2.13-4.18l0-.07a.27.27,0,0,1,.1-.22.37.37,0,0,1,.25-.09l1.1.07a.27.27,0,0,1,.31.31,8.49,8.49,0,0,1-1.45,3.86,8.09,8.09,0,0,1-3,2.6,8.9,8.9,0,0,1-4.1.94A7,7,0,0,1,233,103.73Z"/><path class="cls-4" d="M253.17,104.16a5.39,5.39,0,0,1-1.85-3.44,7.62,7.62,0,0,1-.07-1.28,21.42,21.42,0,0,1,.24-3,19,19,0,0,1,.86-4.28,7.48,7.48,0,0,1,2.7-3.41,7.27,7.27,0,0,1,4.22-1.26,6,6,0,0,1,3.9,1.28A5,5,0,0,1,265,92.12a6.38,6.38,0,0,1,.07,1.17,29.63,29.63,0,0,1-.24,3.11c-.14,1.06-.27,1.92-.4,2.56a12.47,12.47,0,0,1-.46,1.76,7.42,7.42,0,0,1-2.72,3.42,7.14,7.14,0,0,1-4.2,1.28A5.82,5.82,0,0,1,253.17,104.16Zm7.24-1.38a5.34,5.34,0,0,0,1.93-2.68,16.84,16.84,0,0,0,.69-3.66,26.44,26.44,0,0,0,.28-3.15,4,4,0,0,0-4.25-4.21,5.18,5.18,0,0,0-3.16,1,5.52,5.52,0,0,0-2,2.69,18.15,18.15,0,0,0-.69,3.67q-.24,2.1-.24,2.94a5.86,5.86,0,0,0,0,.72,3.93,3.93,0,0,0,1.27,2.7,4.21,4.21,0,0,0,2.92,1A5.25,5.25,0,0,0,260.41,102.78Zm-2.16-17.49c0-.08,0-.18.08-.29l2.49-3.8a.55.55,0,0,1,.45-.25h1a.26.26,0,0,1,.26.13c0,.08,0,.17-.09.29l-2.69,3.8a.71.71,0,0,1-.45.24h-.76C258.37,85.41,258.28,85.37,258.25,85.29Z"/><path class="cls-4" d="M291.27,88.75a4.67,4.67,0,0,1,1.28,3.47c0,.19,0,.51-.07,1L291,104.8a.34.34,0,0,1-.11.24.37.37,0,0,1-.27.11h-1.07a.28.28,0,0,1-.23-.11.26.26,0,0,1-.05-.24l1.38-11.27a6.23,6.23,0,0,0,0-.76,3.57,3.57,0,0,0-1-2.67,3.62,3.62,0,0,0-2.66-1,4.7,4.7,0,0,0-3.26,1.18,4.86,4.86,0,0,0-1.58,3.18l-1.38,11.33a.49.49,0,0,1-.14.24.34.34,0,0,1-.24.11h-1.07a.32.32,0,0,1-.26-.11.26.26,0,0,1-.05-.24l1.38-11.27a6.79,6.79,0,0,0,0-.76,3.66,3.66,0,0,0-1-2.67,3.51,3.51,0,0,0-2.63-1,4.7,4.7,0,0,0-3.28,1.18,4.84,4.84,0,0,0-1.56,3.18l-1.38,11.33c-.05.23-.17.35-.38.35h-1.11a.3.3,0,0,1-.25-.11.26.26,0,0,1-.06-.24L271,88.07a.33.33,0,0,1,.1-.24.37.37,0,0,1,.28-.1h1.1a.28.28,0,0,1,.23.1.29.29,0,0,1,0,.24l-.17,1.56a.06.06,0,0,0,0,.1c.05,0,.08,0,.1,0A5.47,5.47,0,0,1,274.8,88a6.75,6.75,0,0,1,2.75-.55,5.2,5.2,0,0,1,2.9.77,4,4,0,0,1,1.63,2.2c0,.09.06.1.13,0a5.91,5.91,0,0,1,2.34-2.24,6.73,6.73,0,0,1,3.23-.76A4.76,4.76,0,0,1,291.27,88.75Z"/><path class="cls-4" d="M298.75,104.16a5.43,5.43,0,0,1-1.85-3.44,7.62,7.62,0,0,1-.07-1.28,21.42,21.42,0,0,1,.24-3,18.35,18.35,0,0,1,.87-4.28,7.39,7.39,0,0,1,2.69-3.41,7.27,7.27,0,0,1,4.22-1.26,6,6,0,0,1,3.91,1.28,5.11,5.11,0,0,1,1.83,3.39,7.45,7.45,0,0,1,.07,1.17,27.64,27.64,0,0,1-.25,3.11c-.13,1.06-.27,1.92-.39,2.56a13.94,13.94,0,0,1-.47,1.76,7.46,7.46,0,0,1-2.71,3.42,7.17,7.17,0,0,1-4.2,1.28A5.85,5.85,0,0,1,298.75,104.16Zm7.24-1.38a5.36,5.36,0,0,0,1.94-2.68,18.18,18.18,0,0,0,.69-3.66,28.16,28.16,0,0,0,.27-3.15,4,4,0,0,0-4.25-4.21,5.18,5.18,0,0,0-3.16,1,5.5,5.5,0,0,0-2,2.69,16.83,16.83,0,0,0-.69,3.67,28.18,28.18,0,0,0-.25,2.94,5.35,5.35,0,0,0,0,.72,3.88,3.88,0,0,0,1.26,2.7,4.21,4.21,0,0,0,2.92,1A5.21,5.21,0,0,0,306,102.78Z"/><path class="cls-4" d="M335.12,104.87l-.89-4.6c0-.07,0-.1-.11-.1H323.65a.13.13,0,0,0-.14.1l-2,4.6a.5.5,0,0,1-.45.28h-1.17c-.26,0-.33-.13-.21-.38L330,81.23a.34.34,0,0,1,.18-.21.64.64,0,0,1,.24-.07H332a.39.39,0,0,1,.38.28l4.56,23.54v.07a.28.28,0,0,1-.31.31h-1.14A.33.33,0,0,1,335.12,104.87ZM324.27,98.6a.13.13,0,0,0,.11.05h9.4a.21.21,0,0,0,.12-.05.09.09,0,0,0,0-.12l-2.86-15a.14.14,0,0,0-.11-.07.12.12,0,0,0-.1.07l-6.57,15A.13.13,0,0,0,324.27,98.6Z"/><path class="cls-4" d="M355.51,93.33a23.44,23.44,0,0,1-.27,3.07c-.12,1-.24,1.86-.36,2.53a11.59,11.59,0,0,1-.51,1.83,6.9,6.9,0,0,1-2.5,3.4,6.83,6.83,0,0,1-4.1,1.26,5.18,5.18,0,0,1-2.54-.6,4.09,4.09,0,0,1-1.67-1.75s-.06-.06-.09,0-.06,0-.09.12l-1,8.44a.34.34,0,0,1-.11.24.36.36,0,0,1-.27.1h-1.11a.26.26,0,0,1-.22-.1.26.26,0,0,1-.06-.24l2.87-23.51a.58.58,0,0,1,.14-.24.33.33,0,0,1,.24-.1h1.11a.33.33,0,0,1,.26.1.29.29,0,0,1,.05.24L345,89.73c0,.07,0,.11,0,.12s.07,0,.12,0a5.79,5.79,0,0,1,2.11-1.74,6,6,0,0,1,2.69-.61,5.49,5.49,0,0,1,3.72,1.25,5.1,5.1,0,0,1,1.71,3.35A7.63,7.63,0,0,1,355.51,93.33Zm-3,7.15A8,8,0,0,0,353,99a18.82,18.82,0,0,0,.43-2.57,20,20,0,0,0,.21-2.7,5.53,5.53,0,0,0-.14-1.41A3.46,3.46,0,0,0,352.3,90a4,4,0,0,0-2.7-.9,4.27,4.27,0,0,0-2.74.91,5.29,5.29,0,0,0-1.71,2.34,7.76,7.76,0,0,0-.52,1.48,22.33,22.33,0,0,0-.42,2.63,23.22,23.22,0,0,0-.24,2.8,5.92,5.92,0,0,0,.17,1.38,3.65,3.65,0,0,0,1.14,2.3,3.61,3.61,0,0,0,2.53.88,4.81,4.81,0,0,0,2.73-.81,4.94,4.94,0,0,0,1.79-2.13Z"/><path class="cls-4" d="M369.89,88c.16,0,.22.19.17.44l-.45,1.11c-.11.23-.26.3-.44.21a3.91,3.91,0,0,0-1.66-.24A4.55,4.55,0,0,0,364.24,91a6.1,6.1,0,0,0-1.68,3.51l-1.24,10.3c-.05.23-.17.35-.38.35h-1.11a.3.3,0,0,1-.25-.11.26.26,0,0,1-.06-.24l2.08-16.73a.33.33,0,0,1,.1-.24.37.37,0,0,1,.28-.1h1.1a.27.27,0,0,1,.28.34l-.28,2.35c0,.07,0,.11,0,.13s.08,0,.1-.09a6.84,6.84,0,0,1,2.07-2.11,5,5,0,0,1,2.73-.76A3.67,3.67,0,0,1,369.89,88Z"/><path class="cls-4" d="M380.81,103.06a5.68,5.68,0,0,0,2-2.06c.14-.21.28-.26.45-.17l.82.45a.29.29,0,0,1,.11.45,7.31,7.31,0,0,1-6.5,3.69,6.07,6.07,0,0,1-3.87-1.17A5,5,0,0,1,372,101a7.67,7.67,0,0,1-.14-1.55,28.82,28.82,0,0,1,.24-3.08c.14-1.13.26-2,.35-2.55a8,8,0,0,1,.41-1.59,7.48,7.48,0,0,1,2.65-3.49,7,7,0,0,1,4.2-1.32A5.53,5.53,0,0,1,384,89a6.29,6.29,0,0,1,1.44,4.39c0,.62-.1,1.72-.28,3.28-.05.23-.17.35-.38.35H373.9a.16.16,0,0,0-.17.14,17.83,17.83,0,0,0-.21,2.38,4.08,4.08,0,0,0,1.19,3.08,4.6,4.6,0,0,0,3.3,1.14A5.4,5.4,0,0,0,380.81,103.06ZM374,95.37c0,.09,0,.13.1.13h9.37c.09,0,.14,0,.14-.13a17.82,17.82,0,0,0,.13-2.15,4.12,4.12,0,0,0-1.12-3,4.07,4.07,0,0,0-3.06-1.15,5.07,5.07,0,0,0-5,3.59A16.33,16.33,0,0,0,374,95.37Z"/><path class="cls-4" d="M401.86,88.85a4.91,4.91,0,0,1,1.38,3.65,8.35,8.35,0,0,1-.07.9l-1.42,11.4a.36.36,0,0,1-.37.35h-1.11c-.23,0-.32-.12-.28-.35l1.35-11.06a5.85,5.85,0,0,0,0-.72,3.93,3.93,0,0,0-1-2.84,3.74,3.74,0,0,0-2.8-1.07,4.84,4.84,0,0,0-3.39,1.26,5.3,5.3,0,0,0-1.66,3.3l-1.34,11.13a.38.38,0,0,1-.39.35h-1.1a.32.32,0,0,1-.26-.11.26.26,0,0,1,0-.24l2.07-16.73a.34.34,0,0,1,.11-.24.35.35,0,0,1,.27-.1h1.11a.27.27,0,0,1,.22.1.23.23,0,0,1,.05.24l-.2,1.7c0,.14,0,.16.14.07a5.77,5.77,0,0,1,2.14-1.75,6.67,6.67,0,0,1,2.87-.6A5.08,5.08,0,0,1,401.86,88.85Z"/><path class="cls-4" d="M421.14,81h1.11c.21,0,.31.12.31.35l-2.9,23.5a.38.38,0,0,1-.38.35h-1.11c-.23,0-.32-.12-.28-.35l.21-1.69c0-.16-.06-.19-.17-.07a6,6,0,0,1-2.11,1.76,5.88,5.88,0,0,1-2.69.62,5.46,5.46,0,0,1-3.72-1.24,5.3,5.3,0,0,1-1.75-3.35,8.43,8.43,0,0,1-.06-1.18q0-1,.24-3.18c.14-1.06.27-1.92.39-2.57a13.84,13.84,0,0,1,.47-1.78,7.23,7.23,0,0,1,2.54-3.41,6.81,6.81,0,0,1,4.1-1.26,5.11,5.11,0,0,1,2.54.62,4.26,4.26,0,0,1,1.67,1.77c0,.07.06.09.11.08s.07,0,.07-.12l1-8.5A.38.38,0,0,1,421.14,81ZM418.46,99.1a26,26,0,0,0,.4-2.63,24.79,24.79,0,0,0,.24-2.83,8.73,8.73,0,0,0-.13-1.38,3.63,3.63,0,0,0-1.14-2.3,3.56,3.56,0,0,0-2.49-.88,4.84,4.84,0,0,0-2.85.88,4.94,4.94,0,0,0-1.82,2.26,7.05,7.05,0,0,0-.6,1.54,20.4,20.4,0,0,0-.44,2.68,23.13,23.13,0,0,0-.24,2.73,5.45,5.45,0,0,0,.18,1.38,3.49,3.49,0,0,0,1.21,2.35,3.94,3.94,0,0,0,2.69.9,4.35,4.35,0,0,0,2.75-.9,5.52,5.52,0,0,0,1.74-2.35A6,6,0,0,0,418.46,99.1Z"/><path class="cls-4" d="M434.72,103.06a5.68,5.68,0,0,0,2-2.06c.14-.21.29-.26.45-.17l.83.45a.29.29,0,0,1,.1.45,7.3,7.3,0,0,1-2.66,2.69,7.38,7.38,0,0,1-3.84,1,6.07,6.07,0,0,1-3.87-1.17,5,5,0,0,1-1.83-3.22,7.67,7.67,0,0,1-.14-1.55A26.89,26.89,0,0,1,426,96.4c.13-1.13.25-2,.34-2.55a7.81,7.81,0,0,1,3.06-5.08,7,7,0,0,1,4.2-1.32A5.57,5.57,0,0,1,438,89a6.34,6.34,0,0,1,1.43,4.39,31.5,31.5,0,0,1-.28,3.28.37.37,0,0,1-.38.35H427.81a.16.16,0,0,0-.17.14,17.83,17.83,0,0,0-.21,2.38,4.05,4.05,0,0,0,1.2,3.08,4.56,4.56,0,0,0,3.3,1.14A5.36,5.36,0,0,0,434.72,103.06Zm-6.84-7.69c0,.09,0,.13.11.13h9.36c.09,0,.14,0,.14-.13a17.89,17.89,0,0,0,.14-2.15,4.13,4.13,0,0,0-1.13-3,4,4,0,0,0-3.05-1.15,5,5,0,0,0-5,3.59A15,15,0,0,0,427.88,95.37Z"/><path class="cls-4" d="M455.77,88.85a4.91,4.91,0,0,1,1.38,3.65,8.35,8.35,0,0,1-.07.9l-1.41,11.4c-.05.23-.17.35-.38.35h-1.11c-.23,0-.32-.12-.27-.35l1.34-11.06a4.35,4.35,0,0,0,0-.72,3.93,3.93,0,0,0-1-2.84,3.72,3.72,0,0,0-2.8-1.07,4.88,4.88,0,0,0-3.39,1.26,5.24,5.24,0,0,0-1.65,3.3l-1.35,11.13a.38.38,0,0,1-.38.35h-1.11a.33.33,0,0,1-.26-.11.26.26,0,0,1-.05-.24l2.07-16.73a.34.34,0,0,1,.11-.24.36.36,0,0,1,.27-.1h1.11a.26.26,0,0,1,.22.1.26.26,0,0,1,.06.24l-.21,1.7c0,.14.05.16.14.07a5.77,5.77,0,0,1,2.14-1.75,6.67,6.67,0,0,1,2.87-.6A5.06,5.06,0,0,1,455.77,88.85Z"/><path class="cls-4" d="M468,105a.26.26,0,0,1,0-.24l2.9-23.5a.34.34,0,0,1,.11-.24.37.37,0,0,1,.27-.11h1.11a.27.27,0,0,1,.22.11.26.26,0,0,1,.06.24l-2.87,23.5a.38.38,0,0,1-.38.35h-1.11A.33.33,0,0,1,468,105Z"/><path class="cls-4" d="M477.73,104.16a5.43,5.43,0,0,1-1.85-3.44,9.32,9.32,0,0,1-.06-1.28,21.42,21.42,0,0,1,.24-3,17.92,17.92,0,0,1,.86-4.28,7.48,7.48,0,0,1,2.7-3.41,7.24,7.24,0,0,1,4.21-1.26,6,6,0,0,1,3.91,1.28,5,5,0,0,1,1.83,3.39,6.38,6.38,0,0,1,.07,1.17,29.63,29.63,0,0,1-.24,3.11c-.14,1.06-.27,1.92-.4,2.56a12.43,12.43,0,0,1-.47,1.76,7.4,7.4,0,0,1-2.71,3.42,7.14,7.14,0,0,1-4.2,1.28A5.87,5.87,0,0,1,477.73,104.16Zm7.24-1.38a5.36,5.36,0,0,0,1.94-2.68,18.18,18.18,0,0,0,.69-3.66,28.79,28.79,0,0,0,.28-3.15,4,4,0,0,0-4.25-4.21,5.21,5.21,0,0,0-3.17,1,5.5,5.5,0,0,0-1.95,2.69,16.83,16.83,0,0,0-.69,3.67q-.24,2.1-.24,2.94a5.86,5.86,0,0,0,0,.72,3.92,3.92,0,0,0,1.26,2.7,4.23,4.23,0,0,0,2.92,1A5.21,5.21,0,0,0,485,102.78Z"/><path class="cls-4" d="M494.74,104.16a3.5,3.5,0,0,1-1.54-2.92,2.81,2.81,0,0,1,0-.45l.07-.45c.05-.23.17-.34.38-.34h1c.23,0,.32.11.28.34l0,.38a2.21,2.21,0,0,0,.36,1.54,3.3,3.3,0,0,0,1.42,1.14,5.31,5.31,0,0,0,2.23.43,5.23,5.23,0,0,0,3.33-1,3.1,3.1,0,0,0,1.34-2.53,1.91,1.91,0,0,0-.56-1.41,3.86,3.86,0,0,0-1.29-.85c-.5-.2-1.25-.47-2.27-.81a27,27,0,0,1-2.71-1,4.85,4.85,0,0,1-1.73-1.3,3.08,3.08,0,0,1-.71-2.07A4.6,4.6,0,0,1,496.19,89a7.36,7.36,0,0,1,4.68-1.43,6.4,6.4,0,0,1,4,1.14,3.54,3.54,0,0,1,1.48,2.94,3.36,3.36,0,0,1,0,.52v.1a.38.38,0,0,1-.38.35h-1a.32.32,0,0,1-.26-.11.26.26,0,0,1-.05-.24l0-.1a2.3,2.3,0,0,0-.91-2.2,4.74,4.74,0,0,0-3.06-.88,5.58,5.58,0,0,0-3.11.81,3,3,0,0,0-1.42,2.2,2,2,0,0,0,.85,2,13,13,0,0,0,3.13,1.35,28.68,28.68,0,0,1,2.83,1,5.07,5.07,0,0,1,1.76,1.3,3.08,3.08,0,0,1,.76,2.16,4,4,0,0,1,0,.55,5,5,0,0,1-2.08,3.51,7.29,7.29,0,0,1-4.49,1.33A6.64,6.64,0,0,1,494.74,104.16Z"/><path class="cls-4" d="M534,81.06a.38.38,0,0,1,.28-.11h1.1a.3.3,0,0,1,.23.11.29.29,0,0,1,0,.24l-2.87,23.5a.49.49,0,0,1-.14.24.34.34,0,0,1-.24.11h-1.11a.43.43,0,0,1-.38-.24l-9.64-20.29c0-.07-.06-.1-.1-.09s-.07,0-.07.12L518.6,104.8c-.05.23-.17.35-.38.35h-1.11c-.23,0-.32-.12-.27-.35l2.87-23.5a.37.37,0,0,1,.38-.35h1.14a.39.39,0,0,1,.38.25l9.6,20.28c0,.07.06.1.11.09s.07,0,.07-.12l2.49-20.15A.33.33,0,0,1,534,81.06Z"/><path class="cls-4" d="M539.56,105a.26.26,0,0,1,0-.24l2-16.73a.49.49,0,0,1,.14-.24.3.3,0,0,1,.24-.11H543a.3.3,0,0,1,.26.11.23.23,0,0,1,.05.24l-2.07,16.73a.33.33,0,0,1-.1.24.37.37,0,0,1-.28.1h-1.1A.28.28,0,0,1,539.56,105Zm2.37-21.17a1.38,1.38,0,0,1-.42-1,2,2,0,0,1,.56-1.44,1.78,1.78,0,0,1,1.34-.57,1.46,1.46,0,0,1,1.08.42,1.49,1.49,0,0,1,.41,1.1,1.88,1.88,0,0,1-.55,1.38,1.84,1.84,0,0,1-1.35.56A1.45,1.45,0,0,1,541.93,83.84Z"/><path class="cls-4" d="M560.17,88.85a4.88,4.88,0,0,1,1.39,3.65c0,.18,0,.48-.07.9l-1.42,11.4c-.05.23-.17.35-.38.35h-1.11c-.23,0-.32-.12-.27-.35l1.35-11.06a6.32,6.32,0,0,0,0-.72,3.88,3.88,0,0,0-1-2.84,3.72,3.72,0,0,0-2.8-1.07,4.84,4.84,0,0,0-3.38,1.26,5.25,5.25,0,0,0-1.66,3.3l-1.35,11.13a.37.37,0,0,1-.38.35H548a.3.3,0,0,1-.25-.11.26.26,0,0,1-.06-.24l2.08-16.73a.33.33,0,0,1,.1-.24.37.37,0,0,1,.28-.1h1.1a.28.28,0,0,1,.23.1.26.26,0,0,1,0,.24l-.21,1.7c0,.14.05.16.14.07a5.85,5.85,0,0,1,2.14-1.75,6.7,6.7,0,0,1,2.87-.6A5.06,5.06,0,0,1,560.17,88.85Zm-2.73-5a6.51,6.51,0,0,1-.93-.57,6.94,6.94,0,0,0-.84-.57,1.58,1.58,0,0,0-.71-.16,2.41,2.41,0,0,0-1,.21,2.76,2.76,0,0,0-.9.73c-.18.23-.35.25-.48.07l-.42-.38a.41.41,0,0,1,0-.49,3.66,3.66,0,0,1,2.94-1.59,2.22,2.22,0,0,1,.92.18,4.44,4.44,0,0,1,.69.36c.19.13.33.21.39.26q.6.4.9.57a1.58,1.58,0,0,0,.69.15,2.5,2.5,0,0,0,1.94-1,.28.28,0,0,1,.48-.07l.31.34a.39.39,0,0,1,.11.28.43.43,0,0,1-.14.31A3.56,3.56,0,0,1,560,83.63a3.4,3.4,0,0,1-1.55.4A2.37,2.37,0,0,1,557.44,83.84Z"/><path class="cls-4" d="M567.83,104.16a5.43,5.43,0,0,1-1.85-3.44,7.62,7.62,0,0,1-.07-1.28,21.42,21.42,0,0,1,.24-3,18.35,18.35,0,0,1,.87-4.28,7.39,7.39,0,0,1,2.69-3.41,7.27,7.27,0,0,1,4.22-1.26,5.93,5.93,0,0,1,3.9,1.28,5.08,5.08,0,0,1,1.84,3.39,7.45,7.45,0,0,1,.07,1.17,30.28,30.28,0,0,1-.25,3.11c-.13,1.06-.27,1.92-.39,2.56a13.94,13.94,0,0,1-.47,1.76,7.46,7.46,0,0,1-2.71,3.42,7.19,7.19,0,0,1-4.2,1.28A5.85,5.85,0,0,1,567.83,104.16Zm7.24-1.38A5.28,5.28,0,0,0,577,100.1a17.31,17.31,0,0,0,.7-3.66,28.16,28.16,0,0,0,.27-3.15,4,4,0,0,0-4.25-4.21,5.18,5.18,0,0,0-3.16,1,5.5,5.5,0,0,0-1.95,2.69,16.83,16.83,0,0,0-.69,3.67,28.18,28.18,0,0,0-.25,2.94,5.35,5.35,0,0,0,0,.72,3.88,3.88,0,0,0,1.26,2.7,4.21,4.21,0,0,0,2.92,1A5.21,5.21,0,0,0,575.07,102.78Z"/><path class="cls-4" d="M584.83,104.16a3.53,3.53,0,0,1-1.54-2.92,2.68,2.68,0,0,1,0-.45l.07-.45a.36.36,0,0,1,.38-.34h1c.22,0,.32.11.27.34l0,.38a2.21,2.21,0,0,0,.36,1.54,3.24,3.24,0,0,0,1.42,1.14,5.94,5.94,0,0,0,5.56-.6,3.09,3.09,0,0,0,1.33-2.53,1.91,1.91,0,0,0-.55-1.41,3.81,3.81,0,0,0-1.3-.85c-.49-.2-1.25-.47-2.26-.81a27,27,0,0,1-2.71-1,4.85,4.85,0,0,1-1.73-1.3,3.08,3.08,0,0,1-.71-2.07A4.59,4.59,0,0,1,586.28,89,7.37,7.37,0,0,1,591,87.59a6.35,6.35,0,0,1,4,1.14,3.55,3.55,0,0,1,1.49,2.94,2.32,2.32,0,0,1,0,.52v.1a.37.37,0,0,1-.38.35h-1a.3.3,0,0,1-.26-.11.23.23,0,0,1-.05-.24l0-.1a2.3,2.3,0,0,0-.92-2.2,4.7,4.7,0,0,0-3-.88,5.61,5.61,0,0,0-3.12.81,3,3,0,0,0-1.41,2.2,2,2,0,0,0,.84,2,13.24,13.24,0,0,0,3.13,1.35,29,29,0,0,1,2.84,1,5.27,5.27,0,0,1,1.76,1.3,3.08,3.08,0,0,1,.76,2.16,2.75,2.75,0,0,1,0,.55,5,5,0,0,1-2.07,3.51,7.31,7.31,0,0,1-4.49,1.33A6.67,6.67,0,0,1,584.83,104.16Z"/><path class="cls-4" d="M603.55,98.06l.27-2.24a4.29,4.29,0,0,1,1-2.34,14.92,14.92,0,0,1,2.32-2,16.37,16.37,0,0,0,2.47-2.25,5.05,5.05,0,0,0,1-2.66,5.26,5.26,0,0,0,0-.66,3.39,3.39,0,0,0-1-2.57,3.68,3.68,0,0,0-2.68-1,4.58,4.58,0,0,0-3.19,1.16,4.71,4.71,0,0,0-1.54,3l-.14,1.18A.49.49,0,0,1,602,88a.33.33,0,0,1-.24.1L600.64,88c-.2,0-.31-.12-.31-.35l.14-1.11a6.6,6.6,0,0,1,2.21-4.28,6.74,6.74,0,0,1,4.56-1.63A5.32,5.32,0,0,1,611.08,82a4.81,4.81,0,0,1,1.42,3.67c0,.18,0,.48-.07.89a7.42,7.42,0,0,1-.81,2.61A8.28,8.28,0,0,1,610.27,91a20.27,20.27,0,0,1-1.92,1.59,15.27,15.27,0,0,0-1.92,1.66,3.12,3.12,0,0,0-.78,1.69l-.24,2.14a.37.37,0,0,1-.38.35h-1.17C603.65,98.41,603.55,98.29,603.55,98.06Zm-1,6.57a1.53,1.53,0,0,1-.41-1.11,1.87,1.87,0,0,1,.55-1.38,1.83,1.83,0,0,1,1.35-.55,1.48,1.48,0,0,1,1.07.39,1.4,1.4,0,0,1,.42,1.06,2,2,0,0,1-.56,1.43,1.79,1.79,0,0,1-1.34.57A1.45,1.45,0,0,1,602.54,104.63Z"/><path class="cls-4" d="M468.84,687.23a4.11,4.11,0,0,1-1.65-3.42V683a.23.23,0,0,1,.26-.26h.8a.23.23,0,0,1,.26.26v.77a3.07,3.07,0,0,0,1.31,2.58,6,6,0,0,0,3.62,1,5.22,5.22,0,0,0,3.27-.89,2.94,2.94,0,0,0,1.14-2.46,2.86,2.86,0,0,0-.5-1.67,5.24,5.24,0,0,0-1.55-1.33,26.43,26.43,0,0,0-3-1.42c-1.34-.56-2.35-1-3-1.41a5,5,0,0,1-1.64-1.44,3.75,3.75,0,0,1-.62-2.23,3.91,3.91,0,0,1,1.46-3.26,6.35,6.35,0,0,1,4-1.15,6.85,6.85,0,0,1,4.41,1.29,4.2,4.2,0,0,1,1.6,3.46v.59a.23.23,0,0,1-.26.26H478a.23.23,0,0,1-.26-.26v-.52a3.19,3.19,0,0,0-1.23-2.61,5.41,5.41,0,0,0-3.49-1,4.89,4.89,0,0,0-3,.81,2.79,2.79,0,0,0-1.05,2.34,2.68,2.68,0,0,0,.49,1.68,4,4,0,0,0,1.4,1.12c.61.32,1.55.73,2.83,1.25a23.08,23.08,0,0,1,3.08,1.48,6,6,0,0,1,1.84,1.67,3.87,3.87,0,0,1,.68,2.29,4.12,4.12,0,0,1-1.55,3.36,6.7,6.7,0,0,1-4.34,1.26A7.17,7.17,0,0,1,468.84,687.23Z"/><path class="cls-4" d="M484.59,687.55a4.62,4.62,0,0,1-1.71-2.56,12.78,12.78,0,0,1-.34-3.22,13.11,13.11,0,0,1,.34-3.2,4.45,4.45,0,0,1,1.7-2.53,5.14,5.14,0,0,1,3.12-.95,5.36,5.36,0,0,1,3.16.93,4,4,0,0,1,1.69,2.32,6.2,6.2,0,0,1,.16.72v.05c0,.12-.08.2-.23.23l-.83.11h0c-.12,0-.2-.08-.23-.24l-.08-.36a3,3,0,0,0-1.21-1.81,3.81,3.81,0,0,0-2.38-.74,3.68,3.68,0,0,0-2.36.75,3.3,3.3,0,0,0-1.2,2,13.06,13.06,0,0,0-.23,2.76,12.4,12.4,0,0,0,.23,2.74,3.31,3.31,0,0,0,1.2,2,3.68,3.68,0,0,0,2.36.75,3.9,3.9,0,0,0,2.39-.73,2.94,2.94,0,0,0,1.2-1.85l0-.13c0-.19.13-.26.31-.23l.8.13a.24.24,0,0,1,.23.28l-.11.47a4,4,0,0,1-1.69,2.36,5.42,5.42,0,0,1-3.16.91A5,5,0,0,1,484.59,687.55Z"/><path class="cls-4" d="M502.69,675.5c.14,0,.19.16.16.33l-.23.83a.23.23,0,0,1-.34.16,3.25,3.25,0,0,0-1.29-.19,3.16,3.16,0,0,0-2.39,1.1,3.88,3.88,0,0,0-.94,2.62V688a.23.23,0,0,1-.26.26h-.85c-.17,0-.25-.09-.25-.26V675.55c0-.17.08-.26.25-.26h.85a.23.23,0,0,1,.26.26v1.76a.1.1,0,0,0,0,.09s.05,0,.07-.07a4.28,4.28,0,0,1,1.4-1.57,3.6,3.6,0,0,1,2-.57A3.25,3.25,0,0,1,502.69,675.5Z"/><path class="cls-4" d="M507.16,687.55A4.75,4.75,0,0,1,505.4,685a13.19,13.19,0,0,1-.28-3.22,12.94,12.94,0,0,1,.28-3.2,4.68,4.68,0,0,1,1.74-2.54,5.64,5.64,0,0,1,6.25,0,4.56,4.56,0,0,1,1.74,2.53,8.24,8.24,0,0,1,.21,1.33c0,.49,0,1.11,0,1.87s0,1.43,0,1.91a8,8,0,0,1-.21,1.31,4.56,4.56,0,0,1-1.74,2.56,5.15,5.15,0,0,1-3.14,1A5,5,0,0,1,507.16,687.55Zm5.43-1a3.47,3.47,0,0,0,1.25-2,13.27,13.27,0,0,0,.18-2.74,15.57,15.57,0,0,0-.15-2.73,3.4,3.4,0,0,0-1.26-2,3.72,3.72,0,0,0-2.36-.75,3.65,3.65,0,0,0-2.34.75,3.42,3.42,0,0,0-1.24,2,20.87,20.87,0,0,0,0,5.47,3.42,3.42,0,0,0,1.24,2,4,4,0,0,0,4.68,0Z"/><path class="cls-4" d="M519.46,688V670.49c0-.17.09-.25.26-.25h.85c.18,0,.26.08.26.25V688a.23.23,0,0,1-.26.26h-.85A.23.23,0,0,1,519.46,688Z"/><path class="cls-4" d="M525.29,688V670.49c0-.17.09-.25.26-.25h.85c.18,0,.26.08.26.25V688a.23.23,0,0,1-.26.26h-.85A.23.23,0,0,1,525.29,688Z"/><path class="cls-4" d="M544.65,670.24h.85c.17,0,.26.08.26.25V688a.23.23,0,0,1-.26.26h-.85a.23.23,0,0,1-.26-.26v-1.27s0-.08,0-.09a.12.12,0,0,0-.09,0,3.62,3.62,0,0,1-1.45,1.32,4.36,4.36,0,0,1-2,.46,4.74,4.74,0,0,1-3-.93,4.58,4.58,0,0,1-1.65-2.5,6.31,6.31,0,0,1-.24-1.33c0-.49,0-1.13,0-1.92s0-1.41,0-1.91a8.2,8.2,0,0,1,.21-1.34,4.44,4.44,0,0,1,1.61-2.54,4.83,4.83,0,0,1,3-.94,4.36,4.36,0,0,1,2,.46,3.62,3.62,0,0,1,1.45,1.32s0,.07.08.06,0,0,0-.09v-6.35C544.39,670.32,544.47,670.24,544.65,670.24Zm-.35,13.52c0-.42.06-1.06.06-1.94a16.25,16.25,0,0,0-.08-2,5.55,5.55,0,0,0-.25-1.15,3.25,3.25,0,0,0-1.1-1.71,3.07,3.07,0,0,0-2-.66,3.36,3.36,0,0,0-2.09.66,3.27,3.27,0,0,0-1.19,1.69,4,4,0,0,0-.32,1.12,16,16,0,0,0-.09,2,17.38,17.38,0,0,0,.08,2,5.5,5.5,0,0,0,.26,1.13,2.94,2.94,0,0,0,1.16,1.75,3.49,3.49,0,0,0,2.16.67,3.07,3.07,0,0,0,2-.67,3.41,3.41,0,0,0,1.12-1.75A5,5,0,0,0,544.3,683.76Z"/><path class="cls-4" d="M551.84,687.55a4.73,4.73,0,0,1-1.75-2.56,13.19,13.19,0,0,1-.28-3.22,12.94,12.94,0,0,1,.28-3.2,4.68,4.68,0,0,1,1.74-2.54,5.62,5.62,0,0,1,6.24,0,4.62,4.62,0,0,1,1.75,2.53,7.3,7.3,0,0,1,.2,1.33c0,.49.05,1.11.05,1.87s0,1.43-.05,1.91a7.07,7.07,0,0,1-.2,1.31,4.63,4.63,0,0,1-1.75,2.56,5.58,5.58,0,0,1-6.23,0Zm5.43-1a3.43,3.43,0,0,0,1.26-2,13.27,13.27,0,0,0,.18-2.74,15.24,15.24,0,0,0-.16-2.73,3.38,3.38,0,0,0-1.25-2,4.07,4.07,0,0,0-4.71,0,3.46,3.46,0,0,0-1.24,2,20.87,20.87,0,0,0,0,5.47,3.46,3.46,0,0,0,1.24,2,3.69,3.69,0,0,0,2.35.75A3.62,3.62,0,0,0,557.27,686.53Z"/><path class="cls-4" d="M566.45,688.09l-3.67-12.51,0-.08c0-.14.08-.21.26-.21h.87a.27.27,0,0,1,.29.24l3,10.75s0,.06.07.06,0,0,.06-.06l3-10.78a.25.25,0,0,1,.28-.21h.8a.28.28,0,0,1,.28.21l3,10.76a.07.07,0,0,0,.06,0s0,0,.07,0l3-10.73a.26.26,0,0,1,.28-.24l.85,0a.25.25,0,0,1,.21.08.16.16,0,0,1,0,.2l-3.69,12.49a.28.28,0,0,1-.28.21h-.88a.28.28,0,0,1-.28-.21l-3-10.32a.07.07,0,0,0-.06,0s-.05,0-.07,0l-3,10.32a.29.29,0,0,1-.29.21h-.9A.28.28,0,0,1,566.45,688.09Z"/><path class="cls-4" d="M590.66,676.33a4.26,4.26,0,0,1,1.23,3.19V688a.23.23,0,0,1-.26.26h-.85a.23.23,0,0,1-.26-.26v-8.26a3.46,3.46,0,0,0-.93-2.49,3.23,3.23,0,0,0-2.43-1,3.4,3.4,0,0,0-2.5.94,3.29,3.29,0,0,0-.95,2.46V688a.23.23,0,0,1-.26.26h-.85a.23.23,0,0,1-.26-.26V675.55a.23.23,0,0,1,.26-.26h.85a.23.23,0,0,1,.26.26v1.27s0,.08,0,.09a.07.07,0,0,0,.06,0,3.8,3.8,0,0,1,1.5-1.31,4.85,4.85,0,0,1,2.14-.45A4.37,4.37,0,0,1,590.66,676.33Z"/><polyline class="cls-5" points="559.53 713.13 529.84 742.83 500.14 713.13"/><polyline class="cls-5" points="549.35 736.44 529.84 755.95 510.33 736.44"/><path class="cls-4" d="M134.93,499.45,133.82,496a.11.11,0,0,0-.11-.07h-8.05a.1.1,0,0,0-.1.07l-1.08,3.44a.32.32,0,0,1-.31.2h-.91c-.19,0-.26-.09-.2-.28l5.72-17.57a.31.31,0,0,1,.31-.21h1.16a.3.3,0,0,1,.31.21l5.76,17.57,0,.1c0,.12-.07.18-.23.18h-.88A.3.3,0,0,1,134.93,499.45Zm-9-4.69a.13.13,0,0,0,.1,0h7.22a.12.12,0,0,0,.09,0s0-.05,0-.09l-3.64-11.22a.06.06,0,0,0-.07-.05.07.07,0,0,0-.08.05L126,494.67A.07.07,0,0,0,126,494.76Z"/><path class="cls-4" d="M149.55,491.2q.06.74.06,1.92c0,.79,0,1.44-.06,1.93a7.3,7.3,0,0,1-.2,1.33,4.47,4.47,0,0,1-1.61,2.54,4.89,4.89,0,0,1-3,.94,4.41,4.41,0,0,1-2-.45,3.54,3.54,0,0,1-1.43-1.31s-.07,0-.09,0,0,0,0,.09v6.29a.23.23,0,0,1-.26.26H140a.23.23,0,0,1-.26-.26V486.91a.23.23,0,0,1,.26-.26h.85a.23.23,0,0,1,.26.26v1.24c0,.05,0,.08,0,.09a.16.16,0,0,0,.09,0,3.54,3.54,0,0,1,1.43-1.31,4.41,4.41,0,0,1,2-.45,4.74,4.74,0,0,1,3,.93,4.62,4.62,0,0,1,1.65,2.5A5.85,5.85,0,0,1,149.55,491.2Zm-1.67,5a4,4,0,0,0,.28-1.09,23.56,23.56,0,0,0,0-3.88,5.4,5.4,0,0,0-.26-1.12,3,3,0,0,0-1.16-1.75,3.5,3.5,0,0,0-2.17-.67,3,3,0,0,0-2,.68,3.33,3.33,0,0,0-1.1,1.74,5,5,0,0,0-.26,1.08,28.32,28.32,0,0,0,0,4,6,6,0,0,0,.26,1.13,3.24,3.24,0,0,0,1.1,1.72,3.11,3.11,0,0,0,2,.66,3.42,3.42,0,0,0,2-.61,2.94,2.94,0,0,0,1.16-1.59Z"/><path class="cls-4" d="M158.84,487.81h-3c-.07,0-.1,0-.1.1v8.16a2.4,2.4,0,0,0,.59,1.84,2.87,2.87,0,0,0,1.91.53h.6c.17,0,.25.09.25.26v.69c0,.18-.08.26-.25.26l-.78,0a4.42,4.42,0,0,1-2.72-.7,3.1,3.1,0,0,1-.94-2.55v-8.52a.09.09,0,0,0-.1-.1h-1.55a.23.23,0,0,1-.26-.26v-.64a.23.23,0,0,1,.26-.26h1.55a.09.09,0,0,0,.1-.1V483.6a.23.23,0,0,1,.26-.26h.82a.23.23,0,0,1,.26.26v2.95a.09.09,0,0,0,.1.1h3a.23.23,0,0,1,.26.26v.64A.23.23,0,0,1,158.84,487.81Z"/><path class="cls-4" d="M171.17,486.65H172a.23.23,0,0,1,.26.26v12.48a.23.23,0,0,1-.26.26h-.83c-.17,0-.25-.08-.25-.26v-1.26c0-.05,0-.08,0-.09s-.07,0-.08.06a3.44,3.44,0,0,1-1.46,1.29,4.83,4.83,0,0,1-2.15.44A4.6,4.6,0,0,1,164,498.7a4,4,0,0,1-1.26-3.12v-8.67a.23.23,0,0,1,.26-.26h.82a.23.23,0,0,1,.26.26v8.3a3.34,3.34,0,0,0,.92,2.48,3.26,3.26,0,0,0,2.43.93,3.43,3.43,0,0,0,2.53-.94,3.31,3.31,0,0,0,1-2.47v-8.3C170.92,486.74,171,486.65,171.17,486.65Z"/><path class="cls-4" d="M178.33,499.33a4,4,0,0,1-1.66-1.23,2.68,2.68,0,0,1-.59-1.7v-.33c0-.18.08-.26.25-.26h.8c.18,0,.26.08.26.26v.28a2,2,0,0,0,1,1.64,4.07,4.07,0,0,0,2.42.68,3.75,3.75,0,0,0,2.35-.69,2.13,2.13,0,0,0,.9-1.73,1.6,1.6,0,0,0-.46-1.19,3.11,3.11,0,0,0-1.1-.71q-.63-.24-1.89-.63a22.43,22.43,0,0,1-2.33-.83,4.13,4.13,0,0,1-1.48-1.09,2.7,2.7,0,0,1-.61-1.8,3,3,0,0,1,1.26-2.51,5.31,5.31,0,0,1,3.29-.94,6.06,6.06,0,0,1,2.41.45,3.93,3.93,0,0,1,1.62,1.22,2.84,2.84,0,0,1,.58,1.76v.07c0,.18-.08.26-.25.26h-.8c-.18,0-.26-.08-.26-.26V490a2,2,0,0,0-.92-1.64,4,4,0,0,0-2.41-.66,4,4,0,0,0-2.32.61,1.88,1.88,0,0,0-.88,1.63,1.62,1.62,0,0,0,.81,1.48,11.86,11.86,0,0,0,2.54,1,19.84,19.84,0,0,1,2.39.83,4.55,4.55,0,0,1,1.54,1.09,2.65,2.65,0,0,1,.64,1.85,3.19,3.19,0,0,1-1.25,2.62,5.23,5.23,0,0,1-3.34,1A6.36,6.36,0,0,1,178.33,499.33Z"/><path class="cls-4" d="M205.85,482.8h-9.78c-.07,0-.1,0-.1.11v7c0,.07,0,.11.1.11H203a.23.23,0,0,1,.26.26v.69a.23.23,0,0,1-.26.26h-6.94c-.07,0-.1,0-.1.1v7c0,.07,0,.1.1.1h9.78a.23.23,0,0,1,.26.26v.69a.23.23,0,0,1-.26.26h-11a.23.23,0,0,1-.26-.26V481.85a.23.23,0,0,1,.26-.26h11a.23.23,0,0,1,.26.26v.7C206.11,482.72,206,482.8,205.85,482.8Z"/><path class="cls-4" d="M211.57,499.33a4,4,0,0,1-1.67-1.23,2.74,2.74,0,0,1-.59-1.7v-.33c0-.18.08-.26.26-.26h.8c.17,0,.25.08.25.26v.28a2,2,0,0,0,1,1.64,4.07,4.07,0,0,0,2.42.68,3.75,3.75,0,0,0,2.35-.69,2.13,2.13,0,0,0,.9-1.73,1.6,1.6,0,0,0-.46-1.19,3.11,3.11,0,0,0-1.1-.71q-.63-.24-1.89-.63a21.32,21.32,0,0,1-2.32-.83A4.17,4.17,0,0,1,210,491.8a2.7,2.7,0,0,1-.6-1.8,3,3,0,0,1,1.25-2.51,5.31,5.31,0,0,1,3.29-.94,6.06,6.06,0,0,1,2.41.45,3.86,3.86,0,0,1,1.62,1.22,2.84,2.84,0,0,1,.58,1.76v.07c0,.18-.08.26-.25.26h-.8c-.18,0-.26-.08-.26-.26V490a2,2,0,0,0-.92-1.64,4,4,0,0,0-2.41-.66,4,4,0,0,0-2.32.61,1.88,1.88,0,0,0-.88,1.63,1.62,1.62,0,0,0,.81,1.48,12,12,0,0,0,2.55,1,20.23,20.23,0,0,1,2.38.83,4.45,4.45,0,0,1,1.54,1.09,2.65,2.65,0,0,1,.64,1.85,3.19,3.19,0,0,1-1.25,2.62,5.23,5.23,0,0,1-3.34,1A6.28,6.28,0,0,1,211.57,499.33Z"/><path class="cls-4" d="M227.45,487.81h-3c-.07,0-.11,0-.11.1v8.16a2.36,2.36,0,0,0,.6,1.84,2.83,2.83,0,0,0,1.91.53h.59a.23.23,0,0,1,.26.26v.69a.23.23,0,0,1-.26.26l-.77,0a4.43,4.43,0,0,1-2.73-.7,3.1,3.1,0,0,1-.94-2.55v-8.52c0-.07,0-.1-.1-.1h-1.55a.23.23,0,0,1-.26-.26v-.64a.23.23,0,0,1,.26-.26h1.55a.09.09,0,0,0,.1-.1V483.6a.23.23,0,0,1,.26-.26h.83c.17,0,.25.09.25.26v2.95a.1.1,0,0,0,.11.1h3c.17,0,.25.09.25.26v.64C227.7,487.72,227.62,487.81,227.45,487.81Z"/><path class="cls-4" d="M239.78,486.65h.82a.23.23,0,0,1,.26.26v12.48c0,.18-.08.26-.26.26h-.82a.23.23,0,0,1-.26-.26v-1.26c0-.05,0-.08-.05-.09s-.06,0-.08.06a3.44,3.44,0,0,1-1.46,1.29,4.8,4.8,0,0,1-2.15.44,4.59,4.59,0,0,1-3.17-1.13,4,4,0,0,1-1.27-3.12v-8.67a.23.23,0,0,1,.26-.26h.83c.17,0,.25.09.25.26v8.3a3.38,3.38,0,0,0,.92,2.48,3.26,3.26,0,0,0,2.44.93,3.44,3.44,0,0,0,2.53-.94,3.34,3.34,0,0,0,1-2.47v-8.3A.23.23,0,0,1,239.78,486.65Z"/><path class="cls-4" d="M253.71,481.59h.85a.23.23,0,0,1,.26.26v17.54a.23.23,0,0,1-.26.26h-.85a.23.23,0,0,1-.26-.26v-1.26c0-.05,0-.08,0-.09s0,0-.09,0a3.64,3.64,0,0,1-1.44,1.31,4.38,4.38,0,0,1-2,.47,4.74,4.74,0,0,1-3-.93,4.58,4.58,0,0,1-1.65-2.5,5.85,5.85,0,0,1-.23-1.33c0-.49-.05-1.13-.05-1.92s0-1.42.05-1.91a6.59,6.59,0,0,1,.21-1.35,4.37,4.37,0,0,1,1.61-2.54,4.82,4.82,0,0,1,3-.94,4.38,4.38,0,0,1,2,.47,3.71,3.71,0,0,1,1.44,1.31s.05.08.08.07,0,0,0-.09v-6.35A.23.23,0,0,1,253.71,481.59Zm-.35,13.52a18.08,18.08,0,0,0,.07-1.93,18.44,18.44,0,0,0-.08-2,5.26,5.26,0,0,0-.26-1.15,3.22,3.22,0,0,0-1.09-1.72,3.08,3.08,0,0,0-2-.65,3.36,3.36,0,0,0-2.09.65,3.2,3.2,0,0,0-1.19,1.69,3.76,3.76,0,0,0-.32,1.12,16.22,16.22,0,0,0-.09,2,18.27,18.27,0,0,0,.07,2,5.4,5.4,0,0,0,.26,1.12A3,3,0,0,0,247.8,498a3.59,3.59,0,0,0,2.17.67,3.14,3.14,0,0,0,2-.67,3.5,3.5,0,0,0,1.12-1.76A4.53,4.53,0,0,0,253.36,495.11Z"/><path class="cls-4" d="M259.44,483.68a1.26,1.26,0,0,1-.36-.93,1.27,1.27,0,0,1,.36-.93,1.26,1.26,0,0,1,.93-.36,1.23,1.23,0,0,1,1.29,1.29,1.26,1.26,0,0,1-.36.93,1.27,1.27,0,0,1-.93.36A1.26,1.26,0,0,1,259.44,483.68Zm.18,15.69V486.88a.23.23,0,0,1,.26-.26h.85a.23.23,0,0,1,.26.26v12.49a.23.23,0,0,1-.26.26h-.85A.23.23,0,0,1,259.62,499.37Z"/><path class="cls-4" d="M267.51,498.9a4.67,4.67,0,0,1-1.75-2.55,13.28,13.28,0,0,1-.28-3.23,13,13,0,0,1,.28-3.2,4.72,4.72,0,0,1,1.74-2.54,5.13,5.13,0,0,1,3.14-.94,5.06,5.06,0,0,1,3.1,1,4.6,4.6,0,0,1,1.75,2.52,7.3,7.3,0,0,1,.2,1.33c0,.49.05,1.12.05,1.87s0,1.43-.05,1.91a7.32,7.32,0,0,1-.2,1.32,4.57,4.57,0,0,1-1.75,2.55,5.53,5.53,0,0,1-6.23,0Zm5.43-1a3.41,3.41,0,0,0,1.26-2,13.33,13.33,0,0,0,.18-2.74,14.37,14.37,0,0,0-.16-2.74,3.38,3.38,0,0,0-1.25-2,4.12,4.12,0,0,0-4.71,0,3.46,3.46,0,0,0-1.24,2,20.94,20.94,0,0,0,0,5.48,3.46,3.46,0,0,0,1.24,2,3.69,3.69,0,0,0,2.35.75A3.63,3.63,0,0,0,272.94,497.88Z"/><path class="cls-4" d="M281.41,499.33a4,4,0,0,1-1.67-1.23,2.74,2.74,0,0,1-.59-1.7v-.33a.23.23,0,0,1,.26-.26h.8a.23.23,0,0,1,.26.26v.28a2,2,0,0,0,.95,1.64,4.11,4.11,0,0,0,2.43.68,3.74,3.74,0,0,0,2.34-.69,2.14,2.14,0,0,0,.91-1.73,1.6,1.6,0,0,0-.47-1.19,3.07,3.07,0,0,0-1.09-.71c-.43-.16-1.06-.37-1.9-.63a22.13,22.13,0,0,1-2.32-.83,4.17,4.17,0,0,1-1.49-1.09,2.7,2.7,0,0,1-.6-1.8,3,3,0,0,1,1.25-2.51,5.31,5.31,0,0,1,3.29-.94,6.06,6.06,0,0,1,2.41.45,4,4,0,0,1,1.63,1.22,2.9,2.9,0,0,1,.58,1.76v.07a.23.23,0,0,1-.26.26h-.8a.23.23,0,0,1-.26-.26V490a2,2,0,0,0-.92-1.64,4,4,0,0,0-2.41-.66,4,4,0,0,0-2.32.61,1.88,1.88,0,0,0-.88,1.63,1.61,1.61,0,0,0,.82,1.48,11.65,11.65,0,0,0,2.54,1,20.23,20.23,0,0,1,2.38.83,4.45,4.45,0,0,1,1.54,1.09,2.65,2.65,0,0,1,.64,1.85,3.17,3.17,0,0,1-1.25,2.62,5.23,5.23,0,0,1-3.34,1A6.28,6.28,0,0,1,281.41,499.33Z"/><path class="cls-4" d="M124.05,534.85a.29.29,0,0,1-.09-.22V517.19a.31.31,0,0,1,.31-.31h6.29a7.6,7.6,0,0,1,3.23.64,4.88,4.88,0,0,1,2.15,1.85,5.09,5.09,0,0,1,.77,2.8v7.48a5.09,5.09,0,0,1-.77,2.8,4.86,4.86,0,0,1-2.15,1.84,7.6,7.6,0,0,1-3.23.65h-6.29A.29.29,0,0,1,124.05,534.85Zm3-2.49h3.61a2.85,2.85,0,0,0,2.18-.86,3.28,3.28,0,0,0,.84-2.32v-6.52a3.26,3.26,0,0,0-.82-2.34,2.94,2.94,0,0,0-2.22-.86h-3.59a.12.12,0,0,0-.13.13v12.64A.12.12,0,0,0,127.08,532.36Z"/><path class="cls-4" d="M150.84,528.31l0,.8a.28.28,0,0,1-.31.31h-8.08a.12.12,0,0,0-.13.13,3.75,3.75,0,0,0,.24,1.16c.41,1.24,1.42,1.86,3,1.88a3.26,3.26,0,0,0,2.79-1.44.3.3,0,0,1,.26-.16.25.25,0,0,1,.18.08l1.6,1.31a.29.29,0,0,1,.08.42,5.38,5.38,0,0,1-2.13,1.75,7,7,0,0,1-3,.62,6.17,6.17,0,0,1-3.41-.9,5.21,5.21,0,0,1-2.06-2.53,10.27,10.27,0,0,1-.59-3.87,7.76,7.76,0,0,1,.31-2.43,5.15,5.15,0,0,1,1.95-2.85,5.7,5.7,0,0,1,3.44-1q5.09,0,5.73,5.31A9.09,9.09,0,0,1,150.84,528.31Zm-7.41-3.7a2.44,2.44,0,0,0-.89,1.32,4.07,4.07,0,0,0-.21,1.14c0,.09,0,.13.1.13h5.24c.09,0,.13,0,.13-.13a4.39,4.39,0,0,0-.16-1,2.53,2.53,0,0,0-.91-1.45,2.81,2.81,0,0,0-1.72-.51A2.54,2.54,0,0,0,143.43,524.61Z"/><path class="cls-4" d="M158.83,534.85a.29.29,0,0,1-.09-.22V517.19a.31.31,0,0,1,.31-.31h2.37a.31.31,0,0,1,.31.31v17.44a.31.31,0,0,1-.31.31h-2.37A.29.29,0,0,1,158.83,534.85Z"/><path class="cls-4" d="M172.8,522.12a4.44,4.44,0,0,1,1.91,1.56,3.9,3.9,0,0,1,.67,2.25v8.7a.31.31,0,0,1-.31.31H172.7a.31.31,0,0,1-.31-.31v-.83s0-.08,0-.09-.07,0-.11,0a4.68,4.68,0,0,1-3.66,1.4,5,5,0,0,1-3.19-1,3.47,3.47,0,0,1-1.25-2.91,3.8,3.8,0,0,1,1.41-3.14,6.22,6.22,0,0,1,4-1.12h2.76a.12.12,0,0,0,.13-.13v-.62a2,2,0,0,0-.6-1.56,2.51,2.51,0,0,0-1.78-.55,3.16,3.16,0,0,0-1.58.35,1.47,1.47,0,0,0-.76,1c-.06.21-.18.3-.37.26l-2.5-.31a.54.54,0,0,1-.22-.09.14.14,0,0,1-.06-.17,3.64,3.64,0,0,1,1.69-2.58,6.5,6.5,0,0,1,3.73-1A6.79,6.79,0,0,1,172.8,522.12Zm-1.32,10a2,2,0,0,0,.91-1.7v-1.22c0-.08,0-.12-.13-.12h-2.17a3.91,3.91,0,0,0-2.15.51,1.66,1.66,0,0,0-.79,1.47,1.49,1.49,0,0,0,.61,1.28,2.53,2.53,0,0,0,1.56.45A3.49,3.49,0,0,0,171.48,532.1Z"/><path class="cls-4" d="M194.76,528.31l0,.8a.28.28,0,0,1-.31.31h-8.07c-.09,0-.13,0-.13.13a3.83,3.83,0,0,0,.23,1.16c.41,1.24,1.42,1.86,3,1.88a3.23,3.23,0,0,0,2.78-1.44.3.3,0,0,1,.26-.16.25.25,0,0,1,.18.08l1.6,1.31a.28.28,0,0,1,.08.42,5.25,5.25,0,0,1-2.13,1.75,6.92,6.92,0,0,1-3,.62,6.23,6.23,0,0,1-3.42-.9,5.19,5.19,0,0,1-2.05-2.53,10.05,10.05,0,0,1-.6-3.87,8.07,8.07,0,0,1,.31-2.43,5.26,5.26,0,0,1,1.95-2.85,5.74,5.74,0,0,1,3.45-1q5.07,0,5.72,5.31A9,9,0,0,1,194.76,528.31Zm-7.42-3.7a2.5,2.5,0,0,0-.89,1.32,5,5,0,0,0-.21,1.14c0,.09,0,.13.11.13h5.23c.09,0,.13,0,.13-.13a4.5,4.5,0,0,0-.15-1,2.54,2.54,0,0,0-.92-1.45,2.78,2.78,0,0,0-1.71-.51A2.55,2.55,0,0,0,187.34,524.61Z"/><path class="cls-4" d="M200.72,534.68l-4.16-12.59a.25.25,0,0,1,0-.13c0-.15.09-.23.28-.23h2.63a.34.34,0,0,1,.36.26l2.51,8.61c0,.06,0,.08.07.08s.06,0,.08-.08L205,522a.35.35,0,0,1,.36-.26l2.64,0a.29.29,0,0,1,.23.09.27.27,0,0,1,0,.27l-4.12,12.54a.34.34,0,0,1-.34.26h-2.71A.32.32,0,0,1,200.72,534.68Z"/><path class="cls-4" d="M210.88,519.43a1.78,1.78,0,0,1-.51-1.31,1.85,1.85,0,0,1,3.14-1.32,1.77,1.77,0,0,1,.52,1.32A1.78,1.78,0,0,1,212.2,520,1.77,1.77,0,0,1,210.88,519.43Zm-.14,15.42a.29.29,0,0,1-.09-.22V522a.31.31,0,0,1,.31-.31h2.37a.31.31,0,0,1,.31.31v12.59a.31.31,0,0,1-.31.31H211A.29.29,0,0,1,210.74,534.85Z"/><path class="cls-4" d="M225.34,517a.31.31,0,0,1,.22-.09h2.38a.33.33,0,0,1,.22.09.29.29,0,0,1,.09.22v17.44a.29.29,0,0,1-.09.22.33.33,0,0,1-.22.09h-2.38a.31.31,0,0,1-.22-.09.29.29,0,0,1-.09-.22v-.78c0-.05,0-.08-.05-.1a.09.09,0,0,0-.1,0,3.7,3.7,0,0,1-3,1.35,5,5,0,0,1-3.1-1,5.36,5.36,0,0,1-1.83-2.66,10.44,10.44,0,0,1-.46-3.22,9.82,9.82,0,0,1,.44-3.15A5.36,5.36,0,0,1,219,522.5a5.15,5.15,0,0,1,3.17-1,3.72,3.72,0,0,1,2.92,1.29.11.11,0,0,0,.1,0s.05,0,.05-.09v-5.6A.29.29,0,0,1,225.34,517Zm-.11,11.36a6,6,0,0,0-.65-3.07,2.19,2.19,0,0,0-2-1.13,2.37,2.37,0,0,0-2.06,1.08,5.52,5.52,0,0,0-.78,3.15,6.35,6.35,0,0,0,.62,3,2.38,2.38,0,0,0,2.2,1.24,2.26,2.26,0,0,0,2-1.24A6.17,6.17,0,0,0,225.23,528.33Z"/><path class="cls-4" d="M242.72,528.31l0,.8a.28.28,0,0,1-.31.31h-8.07c-.09,0-.13,0-.13.13a3.83,3.83,0,0,0,.23,1.16c.41,1.24,1.42,1.86,3,1.88a3.26,3.26,0,0,0,2.79-1.44.27.27,0,0,1,.44-.08l1.6,1.31a.28.28,0,0,1,.07.42,5.25,5.25,0,0,1-2.13,1.75,6.92,6.92,0,0,1-2.95.62,6.23,6.23,0,0,1-3.42-.9,5.19,5.19,0,0,1-2.05-2.53,10.08,10.08,0,0,1-.59-3.87,7.76,7.76,0,0,1,.31-2.43,5.19,5.19,0,0,1,1.94-2.85,5.76,5.76,0,0,1,3.45-1q5.09,0,5.73,5.31A9.09,9.09,0,0,1,242.72,528.31Zm-7.42-3.7a2.5,2.5,0,0,0-.89,1.32,4.51,4.51,0,0,0-.2,1.14c0,.09,0,.13.1.13h5.24a.12.12,0,0,0,.13-.13,5.07,5.07,0,0,0-.16-1,2.49,2.49,0,0,0-.92-1.45,2.76,2.76,0,0,0-1.71-.51A2.55,2.55,0,0,0,235.3,524.61Z"/><path class="cls-4" d="M255.12,522.79a4.54,4.54,0,0,1,1.25,3.38v8.46a.29.29,0,0,1-.09.22.31.31,0,0,1-.22.09h-2.38a.29.29,0,0,1-.21-.09.26.26,0,0,1-.09-.22v-7.84a2.76,2.76,0,0,0-.68-1.93,2.28,2.28,0,0,0-1.78-.73,2.36,2.36,0,0,0-1.79.72,2.64,2.64,0,0,0-.68,1.91v7.87a.29.29,0,0,1-.09.22.31.31,0,0,1-.22.09h-2.38a.31.31,0,0,1-.22-.09.29.29,0,0,1-.09-.22V522.06a.33.33,0,0,1,.09-.22.31.31,0,0,1,.22-.09h2.38a.31.31,0,0,1,.22.09.33.33,0,0,1,.09.22v.83c0,.05,0,.09.05.1s.06,0,.08,0a3.75,3.75,0,0,1,3.2-1.39A4.54,4.54,0,0,1,255.12,522.79Z"/><path class="cls-4" d="M261.55,534.13a5.33,5.33,0,0,1-2-2.75,9.68,9.68,0,0,1-.41-3.1,9.54,9.54,0,0,1,.41-3,5,5,0,0,1,2-2.7,6,6,0,0,1,3.44-1,6.11,6.11,0,0,1,3.51,1,4.86,4.86,0,0,1,2,2.53,4.11,4.11,0,0,1,.18.83V526a.29.29,0,0,1-.28.31l-2.32.33H268a.31.31,0,0,1-.31-.25.62.62,0,0,0,0-.21c0-.14-.07-.26-.11-.36a2.22,2.22,0,0,0-.92-1.19,2.94,2.94,0,0,0-1.66-.46,2.77,2.77,0,0,0-1.66.5,2.47,2.47,0,0,0-.92,1.38,8.18,8.18,0,0,0-.25,2.3,9,9,0,0,0,.23,2.29,2.71,2.71,0,0,0,.93,1.44,2.61,2.61,0,0,0,1.67.53,2.8,2.8,0,0,0,1.69-.51,2.24,2.24,0,0,0,.92-1.35.28.28,0,0,0,0-.13.15.15,0,0,0,0-.08.29.29,0,0,1,.36-.26l2.33.36a.45.45,0,0,1,.21.12.24.24,0,0,1,.07.25c-.05.27-.1.47-.13.59a4.63,4.63,0,0,1-2,2.62,6.33,6.33,0,0,1-3.51,1A5.82,5.82,0,0,1,261.55,534.13Z"/><path class="cls-4" d="M273.58,519.43a1.75,1.75,0,0,1-.52-1.31,1.78,1.78,0,0,1,1.83-1.84,1.76,1.76,0,0,1,1.83,1.84,1.76,1.76,0,0,1-1.83,1.83A1.75,1.75,0,0,1,273.58,519.43Zm-.15,15.42a.29.29,0,0,1-.09-.22V522a.29.29,0,0,1,.09-.22.31.31,0,0,1,.22-.09H276a.31.31,0,0,1,.22.09.29.29,0,0,1,.09.22v12.59a.29.29,0,0,1-.09.22.31.31,0,0,1-.22.09h-2.38A.31.31,0,0,1,273.43,534.85Z"/><path class="cls-4" d="M287.66,522.12a4.38,4.38,0,0,1,1.91,1.56,3.9,3.9,0,0,1,.67,2.25v8.7a.31.31,0,0,1-.31.31h-2.37a.31.31,0,0,1-.31-.31v-.83s0-.08-.05-.09a.1.1,0,0,0-.1,0,4.72,4.72,0,0,1-3.67,1.4,5,5,0,0,1-3.18-1,3.45,3.45,0,0,1-1.26-2.91,3.8,3.8,0,0,1,1.41-3.14,6.26,6.26,0,0,1,4-1.12h2.76c.09,0,.13,0,.13-.13v-.62a2,2,0,0,0-.59-1.56,2.53,2.53,0,0,0-1.78-.55,3.18,3.18,0,0,0-1.59.35,1.5,1.5,0,0,0-.76,1c0,.21-.17.3-.36.26l-2.5-.31a.49.49,0,0,1-.22-.09.15.15,0,0,1-.07-.17,3.64,3.64,0,0,1,1.69-2.58,6.5,6.5,0,0,1,3.73-1A6.76,6.76,0,0,1,287.66,522.12Zm-1.31,10a2,2,0,0,0,.9-1.7v-1.22c0-.08,0-.12-.13-.12H285a3.91,3.91,0,0,0-2.15.51A1.68,1.68,0,0,0,282,531a1.52,1.52,0,0,0,.61,1.28,2.53,2.53,0,0,0,1.56.45A3.52,3.52,0,0,0,286.35,532.1Z"/><path class="cls-4" d="M306.29,522.12a4.44,4.44,0,0,1,1.91,1.56,3.9,3.9,0,0,1,.67,2.25v8.7a.31.31,0,0,1-.31.31h-2.37a.31.31,0,0,1-.31-.31v-.83s0-.08-.05-.09-.07,0-.11,0a4.68,4.68,0,0,1-3.66,1.4,5,5,0,0,1-3.19-1,3.47,3.47,0,0,1-1.25-2.91,3.8,3.8,0,0,1,1.41-3.14,6.26,6.26,0,0,1,4-1.12h2.76c.09,0,.13,0,.13-.13v-.62a2,2,0,0,0-.59-1.56,2.53,2.53,0,0,0-1.78-.55,3.18,3.18,0,0,0-1.59.35,1.47,1.47,0,0,0-.76,1c-.05.21-.18.3-.36.26l-2.51-.31a.54.54,0,0,1-.22-.09.14.14,0,0,1-.06-.17,3.64,3.64,0,0,1,1.69-2.58,6.5,6.5,0,0,1,3.73-1A6.76,6.76,0,0,1,306.29,522.12Zm-1.31,10a2,2,0,0,0,.9-1.7v-1.22c0-.08,0-.12-.13-.12h-2.17a3.91,3.91,0,0,0-2.15.51,1.66,1.66,0,0,0-.79,1.47,1.49,1.49,0,0,0,.61,1.28,2.53,2.53,0,0,0,1.56.45A3.54,3.54,0,0,0,305,532.1Z"/><path class="cls-4" d="M317.11,534.85a.29.29,0,0,1-.09-.22V517.19a.29.29,0,0,1,.09-.22.31.31,0,0,1,.22-.09h2.38a.31.31,0,0,1,.22.09.29.29,0,0,1,.09.22v17.44a.29.29,0,0,1-.09.22.31.31,0,0,1-.22.09h-2.38A.31.31,0,0,1,317.11,534.85Z"/><path class="cls-4" d="M331.09,522.12a4.5,4.5,0,0,1,1.91,1.56,4,4,0,0,1,.67,2.25v8.7a.29.29,0,0,1-.09.22.31.31,0,0,1-.22.09H331a.31.31,0,0,1-.22-.09.29.29,0,0,1-.09-.22v-.83s0-.08-.05-.09a.11.11,0,0,0-.1,0,4.7,4.7,0,0,1-3.67,1.4,5,5,0,0,1-3.18-1,3.45,3.45,0,0,1-1.25-2.91,3.82,3.82,0,0,1,1.4-3.14,6.26,6.26,0,0,1,4-1.12h2.76c.09,0,.13,0,.13-.13v-.62a2,2,0,0,0-.59-1.56,2.53,2.53,0,0,0-1.78-.55,3.23,3.23,0,0,0-1.59.35,1.5,1.5,0,0,0-.76,1c-.05.21-.17.3-.36.26l-2.5-.31a.49.49,0,0,1-.22-.09.16.16,0,0,1-.07-.17,3.64,3.64,0,0,1,1.69-2.58,6.52,6.52,0,0,1,3.73-1A6.81,6.81,0,0,1,331.09,522.12Zm-1.32,10a2,2,0,0,0,.9-1.7v-1.22c0-.08,0-.12-.13-.12h-2.16a3.94,3.94,0,0,0-2.16.51,1.67,1.67,0,0,0-.78,1.47,1.51,1.51,0,0,0,.6,1.28,2.57,2.57,0,0,0,1.56.45A3.5,3.5,0,0,0,329.77,532.1Z"/><path class="cls-4" d="M353.45,528.39a10,10,0,0,1-.43,3.14,5.41,5.41,0,0,1-1.82,2.66,5.06,5.06,0,0,1-3.16,1,3.62,3.62,0,0,1-2.94-1.32.12.12,0,0,0-.11,0,.12.12,0,0,0-.05.11v5.59a.33.33,0,0,1-.09.23.34.34,0,0,1-.22.09h-2.37a.34.34,0,0,1-.22-.09.33.33,0,0,1-.09-.23V522.06a.33.33,0,0,1,.09-.22.29.29,0,0,1,.22-.09h2.37a.29.29,0,0,1,.22.09.33.33,0,0,1,.09.22v.78a.11.11,0,0,0,.05.1s.07,0,.11-.05a3.69,3.69,0,0,1,3-1.34,5,5,0,0,1,3.1,1,5.36,5.36,0,0,1,1.83,2.66A9.77,9.77,0,0,1,353.45,528.39Zm-3-.06a6,6,0,0,0-.62-3,2.35,2.35,0,0,0-2.19-1.27,2.14,2.14,0,0,0-2,1.24,6,6,0,0,0-.6,3,6,6,0,0,0,.65,3.1,2.11,2.11,0,0,0,1.93,1.14,2.32,2.32,0,0,0,2.07-1.09A5.74,5.74,0,0,0,350.41,528.33Z"/><path class="cls-4" d="M363.93,521.93a.31.31,0,0,1,.15.39l-.43,2.32c0,.21-.14.27-.37.19a2.67,2.67,0,0,0-.9-.13,3.56,3.56,0,0,0-.51,0,2.7,2.7,0,0,0-1.81.76,2.49,2.49,0,0,0-.72,1.85v7.3a.29.29,0,0,1-.09.22.31.31,0,0,1-.22.09h-2.38a.31.31,0,0,1-.22-.09.29.29,0,0,1-.09-.22V522.06a.33.33,0,0,1,.09-.22.31.31,0,0,1,.22-.09H359a.31.31,0,0,1,.22.09.33.33,0,0,1,.09.22v1.17c0,.06,0,.1,0,.11s.05,0,.09-.06a3.39,3.39,0,0,1,3-1.68A3,3,0,0,1,363.93,521.93Z"/><path class="cls-4" d="M373.94,522.12a4.44,4.44,0,0,1,1.91,1.56,3.9,3.9,0,0,1,.67,2.25v8.7a.31.31,0,0,1-.31.31h-2.37a.31.31,0,0,1-.31-.31v-.83s0-.08,0-.09-.07,0-.11,0a4.68,4.68,0,0,1-3.66,1.4,5,5,0,0,1-3.19-1,3.47,3.47,0,0,1-1.25-2.91,3.8,3.8,0,0,1,1.41-3.14,6.24,6.24,0,0,1,4-1.12h2.76a.12.12,0,0,0,.13-.13v-.62a2,2,0,0,0-.6-1.56,2.51,2.51,0,0,0-1.78-.55,3.16,3.16,0,0,0-1.58.35,1.47,1.47,0,0,0-.76,1c-.06.21-.18.3-.37.26l-2.5-.31a.54.54,0,0,1-.22-.09.14.14,0,0,1-.06-.17,3.64,3.64,0,0,1,1.69-2.58,6.5,6.5,0,0,1,3.73-1A6.79,6.79,0,0,1,373.94,522.12Zm-1.32,10a2,2,0,0,0,.91-1.7v-1.22c0-.08,0-.12-.13-.12h-2.17a3.91,3.91,0,0,0-2.15.51,1.66,1.66,0,0,0-.79,1.47,1.49,1.49,0,0,0,.61,1.28,2.53,2.53,0,0,0,1.56.45A3.49,3.49,0,0,0,372.62,532.1ZM369.73,520a.31.31,0,0,1,0-.26l1.42-2.66a.41.41,0,0,1,.39-.2h2a.24.24,0,0,1,.24.12.24.24,0,0,1,0,.26L372,519.9a.42.42,0,0,1-.36.2H370A.25.25,0,0,1,369.73,520Z"/><path class="cls-4" d="M381.58,534.13a5.29,5.29,0,0,1-2-2.75,9.68,9.68,0,0,1-.41-3.1,9.54,9.54,0,0,1,.41-3,5,5,0,0,1,2-2.7,6,6,0,0,1,3.45-1,6.15,6.15,0,0,1,3.51,1,4.79,4.79,0,0,1,2,2.53,5,5,0,0,1,.19.83V526a.3.3,0,0,1-.29.31l-2.32.33H388a.3.3,0,0,1-.31-.25.58.58,0,0,0,0-.21c0-.14-.07-.26-.1-.36a2.29,2.29,0,0,0-.93-1.19,2.88,2.88,0,0,0-1.65-.46,2.8,2.8,0,0,0-1.67.5,2.45,2.45,0,0,0-.91,1.38,8.12,8.12,0,0,0-.26,2.3,9.45,9.45,0,0,0,.23,2.29,2.71,2.71,0,0,0,.93,1.44,2.66,2.66,0,0,0,1.68.53,2.82,2.82,0,0,0,1.69-.51,2.23,2.23,0,0,0,.91-1.35.28.28,0,0,0,0-.13.1.1,0,0,0,0-.08.29.29,0,0,1,.36-.26l2.32.36a.43.43,0,0,1,.22.12.26.26,0,0,1,.06.25,5.23,5.23,0,0,1-.13.59,4.57,4.57,0,0,1-2,2.62,6.37,6.37,0,0,1-3.51,1A5.77,5.77,0,0,1,381.58,534.13Z"/><path class="cls-4" d="M400.11,524.09a.29.29,0,0,1-.21.09h-2.64a.12.12,0,0,0-.13.13v6.22a2,2,0,0,0,.43,1.42,1.83,1.83,0,0,0,1.36.43h.77a.28.28,0,0,1,.22.1.29.29,0,0,1,.09.21v1.94a.31.31,0,0,1-.31.33l-1.34,0a5.35,5.35,0,0,1-3.05-.7,3,3,0,0,1-1-2.63v-7.35c0-.09,0-.13-.13-.13h-1.47a.31.31,0,0,1-.31-.31v-1.81a.33.33,0,0,1,.09-.22.29.29,0,0,1,.22-.09h1.47c.09,0,.13,0,.13-.12v-3a.31.31,0,0,1,.31-.31h2.25a.29.29,0,0,1,.21.09.29.29,0,0,1,.09.22v3c0,.08.05.12.13.12h2.64a.29.29,0,0,1,.21.09.34.34,0,0,1,.1.22v1.81A.3.3,0,0,1,400.11,524.09Z"/><path class="cls-4" d="M403.25,519.43a1.79,1.79,0,0,1-.52-1.31,1.78,1.78,0,0,1,1.84-1.84,1.78,1.78,0,0,1,1.83,1.84,1.86,1.86,0,0,1-3.15,1.31Zm-.14,15.42a.29.29,0,0,1-.09-.22V522a.31.31,0,0,1,.31-.31h2.37a.31.31,0,0,1,.31.31v12.59a.31.31,0,0,1-.31.31h-2.37A.29.29,0,0,1,403.11,534.85Z"/><path class="cls-4" d="M411.51,534.13a5.29,5.29,0,0,1-2-2.75,9.68,9.68,0,0,1-.41-3.1,9.54,9.54,0,0,1,.41-3,5,5,0,0,1,2-2.7,6,6,0,0,1,3.45-1,6.15,6.15,0,0,1,3.51,1,4.84,4.84,0,0,1,2,2.53,4.11,4.11,0,0,1,.18.83V526a.29.29,0,0,1-.28.31l-2.32.33H418a.3.3,0,0,1-.31-.25.58.58,0,0,0,0-.21c0-.14-.07-.26-.1-.36a2.29,2.29,0,0,0-.93-1.19,2.92,2.92,0,0,0-1.65-.46,2.78,2.78,0,0,0-1.67.5,2.45,2.45,0,0,0-.91,1.38,8.12,8.12,0,0,0-.26,2.3,9.45,9.45,0,0,0,.23,2.29,2.71,2.71,0,0,0,.93,1.44,2.66,2.66,0,0,0,1.68.53,2.84,2.84,0,0,0,1.69-.51,2.23,2.23,0,0,0,.91-1.35.28.28,0,0,0,0-.13s0,0,0-.08c.06-.21.18-.29.37-.26l2.32.36a.48.48,0,0,1,.22.12.26.26,0,0,1,.06.25,5.23,5.23,0,0,1-.13.59,4.61,4.61,0,0,1-2,2.62,6.37,6.37,0,0,1-3.51,1A5.77,5.77,0,0,1,411.51,534.13Z"/><path class="cls-4" d="M431,522.12a4.5,4.5,0,0,1,1.91,1.56,4,4,0,0,1,.67,2.25v8.7a.29.29,0,0,1-.09.22.31.31,0,0,1-.22.09h-2.38a.31.31,0,0,1-.22-.09.29.29,0,0,1-.09-.22v-.83s0-.08-.05-.09a.11.11,0,0,0-.1,0,4.68,4.68,0,0,1-3.66,1.4,5,5,0,0,1-3.19-1,3.45,3.45,0,0,1-1.25-2.91,3.82,3.82,0,0,1,1.4-3.14,6.26,6.26,0,0,1,4-1.12h2.77c.08,0,.12,0,.12-.13v-.62a2,2,0,0,0-.59-1.56,2.53,2.53,0,0,0-1.78-.55,3.23,3.23,0,0,0-1.59.35,1.54,1.54,0,0,0-.76,1c0,.21-.17.3-.36.26l-2.5-.31a.49.49,0,0,1-.22-.09.16.16,0,0,1-.07-.17,3.67,3.67,0,0,1,1.69-2.58,6.52,6.52,0,0,1,3.73-1A6.81,6.81,0,0,1,431,522.12Zm-1.32,10a2,2,0,0,0,.9-1.7v-1.22a.11.11,0,0,0-.12-.12h-2.17a4,4,0,0,0-2.16.51,1.67,1.67,0,0,0-.78,1.47,1.51,1.51,0,0,0,.6,1.28,2.57,2.57,0,0,0,1.56.45A3.5,3.5,0,0,0,429.72,532.1Z"/><path class="cls-4" d="M209,425.36l-2.52,7.45h-3.24l8.25-23.7h3.78l8.29,23.7h-3.35l-2.59-7.45Zm8-2.4-2.38-6.82c-.54-1.55-.9-2.95-1.26-4.33h-.07c-.36,1.41-.76,2.85-1.23,4.3L209.6,423Z"/><path class="cls-4" d="M226.86,421.35c0-2.18-.07-3.94-.14-5.56h2.85l.14,2.92h.07a6.89,6.89,0,0,1,6.2-3.31c4.22,0,7.39,3.48,7.39,8.66,0,6.11-3.82,9.14-7.93,9.14a6.18,6.18,0,0,1-5.37-2.67H230v9.25h-3.14Zm3.14,4.53a7,7,0,0,0,.14,1.27,4.88,4.88,0,0,0,4.76,3.62c3.35,0,5.3-2.67,5.3-6.58,0-3.41-1.84-6.33-5.19-6.33a5,5,0,0,0-4.79,3.84A4.75,4.75,0,0,0,230,423Z"/><path class="cls-4" d="M251.19,410.9v4.89h4.54v2.35h-4.54v9.18c0,2.12.61,3.31,2.38,3.31a7,7,0,0,0,1.83-.21l.15,2.32a7.86,7.86,0,0,1-2.81.42,4.45,4.45,0,0,1-3.43-1.3c-.9-.91-1.22-2.42-1.22-4.43v-9.29h-2.7v-2.35h2.7v-4.08Z"/><path class="cls-4" d="M273.89,428.17c0,1.76,0,3.3.14,4.64h-2.81L271,430H271a6.58,6.58,0,0,1-5.76,3.17c-2.74,0-6-1.48-6-7.46v-9.95h3.17v9.42c0,3.24,1,5.42,3.89,5.42a4.58,4.58,0,0,0,4.18-2.81,4.44,4.44,0,0,0,.29-1.58V415.79h3.17Z"/><path class="cls-4" d="M278.72,429.65a8.43,8.43,0,0,0,4.18,1.23c2.3,0,3.39-1.13,3.39-2.53s-.9-2.29-3.25-3.14c-3.13-1.09-4.61-2.77-4.61-4.81,0-2.75,2.27-5,6-5a8.84,8.84,0,0,1,4.29,1.06l-.8,2.25a6.88,6.88,0,0,0-3.56-1c-1.88,0-2.92,1.06-2.92,2.32s1,2,3.31,2.89c3,1.13,4.58,2.6,4.58,5.13,0,3-2.38,5.1-6.52,5.1a10,10,0,0,1-4.9-1.16Z"/><path class="cls-4" d="M201.86,441.45a8.07,8.07,0,0,1,1.14-.08,1.91,1.91,0,0,1,1.29.37,1.2,1.2,0,0,1,.4.94,1.3,1.3,0,0,1-.35,1,1.92,1.92,0,0,1-1.41.49,1.79,1.79,0,0,1-.48,0v1.8h-.59Zm.59,2.17a2.27,2.27,0,0,0,.5.05c.71,0,1.15-.34,1.15-1s-.43-.88-1.09-.88a3.3,3.3,0,0,0-.56,0Z"/><path class="cls-4" d="M209.43,443.6a2.13,2.13,0,0,1-2.14,2.37,2.08,2.08,0,0,1-2.07-2.28,2.15,2.15,0,0,1,2.14-2.36,2.06,2.06,0,0,1,2.07,2.27m-3.57.07c0,1,.53,1.82,1.46,1.82s1.48-.84,1.48-1.86-.48-1.83-1.47-1.83-1.47.89-1.47,1.87"/><polygon class="cls-4" points="210.9 441.89 209.5 441.89 209.5 441.4 212.91 441.4 212.91 441.89 211.51 441.89 211.51 445.89 210.9 445.89 210.9 441.89"/><polygon class="cls-4" points="215.81 443.79 214.02 443.79 214.02 445.41 216.01 445.41 216.01 445.89 213.43 445.89 213.43 441.4 215.91 441.4 215.91 441.89 214.02 441.89 214.02 443.31 215.81 443.31 215.81 443.79"/><path class="cls-4" d="M216.79,445.89V441.4h.65l1.47,2.27a13.46,13.46,0,0,1,.83,1.46h0c-.05-.6-.07-1.15-.07-1.85V441.4h.56v4.49h-.6l-1.46-2.28a13.64,13.64,0,0,1-.86-1.5h0c0,.57,0,1.11,0,1.85v1.92Z"/><path class="cls-4" d="M224.5,445.75a3.18,3.18,0,0,1-1.22.21,2.12,2.12,0,0,1-2.27-2.27,2.26,2.26,0,0,1,2.4-2.36,2.55,2.55,0,0,1,1.1.2l-.15.47a2.12,2.12,0,0,0-.93-.19,1.69,1.69,0,0,0-1.79,1.86,1.65,1.65,0,0,0,1.77,1.8,2.51,2.51,0,0,0,1-.18Z"/><rect class="cls-4" x="225.24" y="441.4" width="0.59" height="4.49"/><path class="cls-4" d="M227.62,444.48l-.48,1.41h-.61l1.56-4.49h.72l1.57,4.49h-.63l-.5-1.41Zm1.51-.45-.45-1.3c-.1-.29-.17-.56-.24-.82h0c-.07.27-.15.54-.23.82l-.46,1.3Z"/><path class="cls-4" d="M231.06,441.46a9.19,9.19,0,0,1,1.26-.09,2.68,2.68,0,0,1,1.87.56,2,2,0,0,1,.65,1.61,2.37,2.37,0,0,1-.67,1.75,2.87,2.87,0,0,1-2,.64,10.75,10.75,0,0,1-1.08-.05Zm.59,4a3.39,3.39,0,0,0,.6,0,1.75,1.75,0,0,0,2-1.91c0-1.06-.6-1.73-1.86-1.73a3.06,3.06,0,0,0-.7.06Z"/><path class="cls-4" d="M239.54,443.6A2.13,2.13,0,0,1,237.4,446a2.08,2.08,0,0,1-2.07-2.28,2.15,2.15,0,0,1,2.14-2.36,2.06,2.06,0,0,1,2.07,2.27m-3.57.07c0,1,.53,1.82,1.47,1.82s1.47-.84,1.47-1.86-.47-1.83-1.47-1.83-1.47.89-1.47,1.87"/><path class="cls-4" d="M240.32,441.46a6.35,6.35,0,0,1,1.14-.09,1.94,1.94,0,0,1,1.33.36,1.12,1.12,0,0,1,.36.86,1.18,1.18,0,0,1-.87,1.14v0a1.12,1.12,0,0,1,.68.91,8,8,0,0,0,.35,1.24h-.61a5.49,5.49,0,0,1-.31-1.08c-.13-.62-.38-.85-.92-.87h-.56v1.95h-.59Zm.59,2.05h.61c.63,0,1-.34,1-.86s-.43-.83-1.06-.84a2.27,2.27,0,0,0-.59.06Z"/><path class="cls-4" d="M244.77,444.48l-.48,1.41h-.61l1.56-4.49H246l1.57,4.49h-.64l-.49-1.41Zm1.51-.45-.45-1.3a8.12,8.12,0,0,1-.24-.82h0c-.07.27-.15.54-.24.82l-.45,1.3Z"/><polygon class="cls-4" points="252.04 443.79 250.25 443.79 250.25 445.41 252.24 445.41 252.24 445.89 249.65 445.89 249.65 441.4 252.14 441.4 252.14 441.89 250.25 441.89 250.25 443.31 252.04 443.31 252.04 443.79"/><path class="cls-4" d="M253,441.46a9.47,9.47,0,0,1,1.27-.09,2.65,2.65,0,0,1,1.86.56,2,2,0,0,1,.65,1.61,2.37,2.37,0,0,1-.66,1.75,2.88,2.88,0,0,1-2,.64c-.42,0-.77,0-1.08-.05Zm.6,4a3.39,3.39,0,0,0,.6,0,1.75,1.75,0,0,0,2-1.91c0-1.06-.61-1.73-1.86-1.73a3.06,3.06,0,0,0-.7.06Z"/><path class="cls-4" d="M258.16,441.4v2.66c0,1,.46,1.43,1.07,1.43s1.12-.44,1.12-1.43V441.4h.6V444c0,1.38-.74,2-1.74,2s-1.65-.53-1.65-1.92V441.4Z"/><path class="cls-4" d="M265.2,445.75A3.12,3.12,0,0,1,264,446a2.13,2.13,0,0,1-2.28-2.27,2.27,2.27,0,0,1,2.41-2.36,2.53,2.53,0,0,1,1.09.2l-.14.47a2.18,2.18,0,0,0-.93-.19,1.7,1.7,0,0,0-1.8,1.86,1.65,1.65,0,0,0,1.77,1.8,2.51,2.51,0,0,0,1-.18Z"/><path class="cls-4" d="M266.72,444.48l-.48,1.41h-.61l1.56-4.49h.72l1.57,4.49h-.64l-.49-1.41Zm1.51-.45-.45-1.3c-.1-.29-.17-.56-.24-.82h0c-.07.27-.15.54-.24.82l-.45,1.3Z"/><path class="cls-4" d="M273.27,445.75a3.14,3.14,0,0,1-1.22.21,2.13,2.13,0,0,1-2.27-2.27,2.26,2.26,0,0,1,2.4-2.36,2.55,2.55,0,0,1,1.1.2l-.15.47a2.1,2.1,0,0,0-.92-.19,1.7,1.7,0,0,0-1.8,1.86,1.65,1.65,0,0,0,1.77,1.8,2.51,2.51,0,0,0,1-.18Z"/><rect class="cls-4" x="274.02" y="441.4" width="0.59" height="4.49"/><path class="cls-4" d="M279.58,443.6a2.12,2.12,0,0,1-2.13,2.37,2.09,2.09,0,0,1-2.08-2.28,2.15,2.15,0,0,1,2.14-2.36,2.06,2.06,0,0,1,2.07,2.27m-3.57.07c0,1,.53,1.82,1.47,1.82s1.47-.84,1.47-1.86-.47-1.83-1.46-1.83-1.48.89-1.48,1.87"/><path class="cls-4" d="M280.36,445.89V441.4H281l1.48,2.27a13.46,13.46,0,0,1,.83,1.46h0c-.05-.6-.07-1.15-.07-1.85V441.4h.56v4.49h-.6l-1.46-2.28a13.64,13.64,0,0,1-.86-1.5h0c0,.57.05,1.11.05,1.85v1.92Z"/><path class="cls-4" d="M285.6,444.48l-.48,1.41h-.62l1.57-4.49h.71l1.58,4.49h-.64l-.49-1.41Zm1.5-.45-.45-1.3c-.1-.29-.17-.56-.24-.82h0c-.07.27-.14.54-.23.82l-.45,1.3Z"/><polygon class="cls-4" points="289.03 441.4 289.63 441.4 289.63 445.41 291.59 445.41 291.59 445.89 289.03 445.89 289.03 441.4"/><rect class="cls-4" x="198.81" y="448.31" width="95.46" height="0.33"/><path class="cls-4" d="M201.93,455.22a1.41,1.41,0,0,0,.71.2c.41,0,.65-.21.65-.51s-.17-.45-.58-.6-.82-.43-.82-.85.4-.82,1-.82a1.54,1.54,0,0,1,.68.14l-.11.32a1.32,1.32,0,0,0-.59-.14c-.42,0-.58.24-.58.45s.19.42.62.58.79.44.79.89-.36.86-1.09.86a1.57,1.57,0,0,1-.78-.19Z"/><rect class="cls-4" x="204.24" y="452.69" width="0.4" height="3.01"/><path class="cls-4" d="M205.33,452.72a5.2,5.2,0,0,1,.77-.05,1.28,1.28,0,0,1,.86.24.82.82,0,0,1,.27.63.87.87,0,0,1-.24.65,1.28,1.28,0,0,1-.94.33,1.51,1.51,0,0,1-.32,0v1.21h-.4Zm.4,1.45a1.06,1.06,0,0,0,.33,0c.48,0,.77-.23.77-.65s-.28-.59-.72-.59a2.48,2.48,0,0,0-.38,0Z"/><path class="cls-4" d="M208.74,452.73a4.26,4.26,0,0,1,.76-.06,1.27,1.27,0,0,1,.89.24.73.73,0,0,1,.25.57.8.8,0,0,1-.59.77h0a.78.78,0,0,1,.46.61,4.27,4.27,0,0,0,.24.83h-.42a3.74,3.74,0,0,1-.2-.72c-.09-.42-.26-.57-.62-.59h-.38v1.31h-.39Zm.39,1.37h.41c.43,0,.7-.23.7-.57s-.29-.56-.71-.57a1.62,1.62,0,0,0-.4,0Z"/><path class="cls-4" d="M211.43,454.69a.7.7,0,0,0,.76.75,1.54,1.54,0,0,0,.61-.11l.07.28a1.92,1.92,0,0,1-.74.13,1,1,0,0,1-1.09-1.09,1.06,1.06,0,0,1,1-1.16.93.93,0,0,1,.92,1,.74.74,0,0,1,0,.18Zm1.18-.28a.57.57,0,0,0-.56-.64.65.65,0,0,0-.62.64Z"/><path class="cls-4" d="M215.41,452.53v2.61a4.88,4.88,0,0,0,0,.56h-.37v-.38h0a.85.85,0,0,1-.76.43,1,1,0,0,1-.95-1.1,1,1,0,0,1,1-1.16.73.73,0,0,1,.67.33h0v-1.29Zm-.41,1.89a1,1,0,0,0,0-.17.6.6,0,0,0-.59-.46c-.41,0-.66.36-.66.84s.22.8.66.8A.61.61,0,0,0,215,455a.91.91,0,0,0,0-.17Z"/><path class="cls-4" d="M219,452.53v2.61a4.88,4.88,0,0,0,0,.56h-.36l0-.38h0a.85.85,0,0,1-.76.43,1,1,0,0,1-1-1.1,1,1,0,0,1,1-1.16.73.73,0,0,1,.67.33h0v-1.29Zm-.4,1.89a1,1,0,0,0,0-.17.59.59,0,0,0-.58-.46c-.42,0-.67.36-.67.84s.22.8.66.8a.61.61,0,0,0,.59-.47.88.88,0,0,0,0-.17Z"/><path class="cls-4" d="M219.85,454.69a.7.7,0,0,0,.76.75,1.51,1.51,0,0,0,.61-.11l.07.28a1.86,1.86,0,0,1-.73.13,1,1,0,0,1-1.09-1.09,1.05,1.05,0,0,1,1-1.16.92.92,0,0,1,.91,1c0,.08,0,.14,0,.18Zm1.18-.28a.56.56,0,0,0-.56-.64.67.67,0,0,0-.62.64Z"/><path class="cls-4" d="M225.06,455.6a2.08,2.08,0,0,1-.82.14,1.42,1.42,0,0,1-1.52-1.52,1.51,1.51,0,0,1,1.61-1.58,1.71,1.71,0,0,1,.73.13l-.09.32a1.56,1.56,0,0,0-.63-.13,1.14,1.14,0,0,0-1.2,1.25,1.11,1.11,0,0,0,1.18,1.21,1.62,1.62,0,0,0,.66-.13Z"/><path class="cls-4" d="M227.5,454.6a1.07,1.07,0,0,1-1.11,1.15,1,1,0,0,1-1.06-1.12,1.07,1.07,0,0,1,1.1-1.14,1,1,0,0,1,1.07,1.11m-1.76,0a.74.74,0,0,0,.67.83c.39,0,.67-.35.67-.84s-.18-.83-.66-.83-.68.43-.68.84"/><rect class="cls-4" x="228" y="452.53" width="0.4" height="3.17"/><path class="cls-4" d="M229.31,454.69a.7.7,0,0,0,.76.75,1.51,1.51,0,0,0,.61-.11l.07.28a1.87,1.87,0,0,1-.74.13,1,1,0,0,1-1.09-1.09,1.06,1.06,0,0,1,1-1.16.92.92,0,0,1,.92,1,.74.74,0,0,1,0,.18Zm1.18-.28a.57.57,0,0,0-.56-.64.65.65,0,0,0-.62.64Z"/><path class="cls-4" d="M233.28,453.54c0,.15,0,.33,0,.59v1.26a1.24,1.24,0,0,1-.32,1,1.18,1.18,0,0,1-.81.26,1.41,1.41,0,0,1-.73-.18l.1-.3a1.26,1.26,0,0,0,.65.17.65.65,0,0,0,.71-.75v-.24h0a.79.79,0,0,1-.7.36,1,1,0,0,1-.94-1.05,1,1,0,0,1,1-1.15.72.72,0,0,1,.69.37h0l0-.32Zm-.41.85a.9.9,0,0,0,0-.18.59.59,0,0,0-.57-.42c-.38,0-.66.32-.66.82s.22.78.66.78a.6.6,0,0,0,.56-.4.82.82,0,0,0,0-.21Z"/><path class="cls-4" d="M234.35,452.93a.23.23,0,0,1-.25.24.24.24,0,0,1-.24-.24.24.24,0,0,1,.25-.25.23.23,0,0,1,.24.25m-.44.61h.4v2.16h-.4Z"/><path class="cls-4" d="M237,454.6a1.07,1.07,0,0,1-1.1,1.15,1,1,0,0,1-1.06-1.12,1.06,1.06,0,0,1,1.1-1.14A1,1,0,0,1,237,454.6m-1.76,0a.74.74,0,0,0,.68.83c.38,0,.67-.35.67-.84s-.19-.83-.66-.83-.69.43-.69.84"/><path class="cls-4" d="M237.43,455.3a1.14,1.14,0,0,0,.53.15c.3,0,.44-.14.44-.32s-.12-.29-.42-.4-.58-.35-.58-.61a.67.67,0,0,1,.76-.63,1.17,1.17,0,0,1,.55.13l-.1.29a.84.84,0,0,0-.46-.13c-.24,0-.37.14-.37.3s.13.26.42.36.58.33.58.65-.3.65-.82.65a1.3,1.3,0,0,1-.63-.15Z"/><rect class="cls-4" x="240.33" y="452.35" width="0.31" height="4.47"/><polygon class="cls-4" points="242.35 452.69 244.01 452.69 244.01 453.01 242.75 453.01 242.75 454.01 243.91 454.01 243.91 454.33 242.75 454.33 242.75 455.7 242.35 455.7 242.35 452.69"/><path class="cls-4" d="M246.26,455.11c0,.22,0,.42,0,.59h-.35l0-.36h0a.81.81,0,0,1-.73.41c-.34,0-.76-.19-.76-.95v-1.26h.4v1.19c0,.41.13.69.5.69a.58.58,0,0,0,.53-.36.6.6,0,0,0,0-.2v-1.32h.41Z"/><path class="cls-4" d="M246.92,454.12a5.15,5.15,0,0,0,0-.58h.36l0,.35h0a.8.8,0,0,1,.73-.4c.3,0,.78.17.78.92v1.29h-.4v-1.25c0-.35-.14-.64-.52-.64a.59.59,0,0,0-.54.4,1,1,0,0,0,0,.19v1.3h-.41Z"/><path class="cls-4" d="M251.38,452.53v2.61c0,.19,0,.41,0,.56H251l0-.38h0a.82.82,0,0,1-.75.43,1,1,0,0,1-.95-1.1,1,1,0,0,1,1-1.16.73.73,0,0,1,.66.33h0v-1.29Zm-.41,1.89a.5.5,0,0,0,0-.17.58.58,0,0,0-.58-.46c-.41,0-.66.36-.66.84s.22.8.65.8A.61.61,0,0,0,251,455a.47.47,0,0,0,0-.17Z"/><path class="cls-4" d="M253.27,455.7l0-.28h0a.82.82,0,0,1-.67.33.63.63,0,0,1-.68-.62c0-.53.48-.81,1.33-.81v0a.45.45,0,0,0-.5-.5,1.12,1.12,0,0,0-.58.16l-.09-.26a1.36,1.36,0,0,1,.73-.19.77.77,0,0,1,.84.88v.81a2.75,2.75,0,0,0,0,.52Zm-.06-1.11c-.44,0-.94.07-.94.49a.36.36,0,0,0,.38.38.56.56,0,0,0,.54-.37.5.5,0,0,0,0-.12Z"/><path class="cls-4" d="M255.83,455.62a1.63,1.63,0,0,1-.64.12,1,1,0,0,1-1.1-1.1,1.11,1.11,0,0,1,1.19-1.15,1.44,1.44,0,0,1,.56.11l-.09.31a.9.9,0,0,0-.47-.11.76.76,0,0,0-.78.82.75.75,0,0,0,.77.81,1.18,1.18,0,0,0,.49-.11Z"/><path class="cls-4" d="M256.75,452.93a.24.24,0,0,1-.26.24.24.24,0,0,1-.24-.24.25.25,0,0,1,.5,0m-.45.61h.4v2.16h-.4Z"/><path class="cls-4" d="M259.37,454.6a1.07,1.07,0,0,1-1.1,1.15,1,1,0,0,1-1.06-1.11,1.06,1.06,0,0,1,1.1-1.15,1,1,0,0,1,1.06,1.11m-1.75,0c0,.47.27.83.67.83s.67-.35.67-.84-.19-.83-.66-.83-.68.43-.68.84m1.27-2-.56.64h-.28l.4-.64Z"/><path class="cls-4" d="M259.88,454.12a5.15,5.15,0,0,0,0-.58h.36l0,.35h0a.83.83,0,0,1,.73-.4c.31,0,.79.17.79.92v1.29h-.41v-1.25c0-.35-.13-.64-.51-.64a.59.59,0,0,0-.54.4.54.54,0,0,0,0,.19v1.3h-.4Z"/><path class="cls-4" d="M263.4,452.73a4.3,4.3,0,0,1,.77-.06,1.28,1.28,0,0,1,.89.24.72.72,0,0,1,.24.57.79.79,0,0,1-.58.77h0a.78.78,0,0,1,.46.61,5.55,5.55,0,0,0,.23.83H265a4.33,4.33,0,0,1-.21-.72c-.09-.42-.25-.57-.61-.59h-.38v1.31h-.4Zm.4,1.37h.41c.42,0,.69-.23.69-.57s-.28-.56-.7-.57a1.55,1.55,0,0,0-.4,0Z"/><path class="cls-4" d="M266.09,454.69a.7.7,0,0,0,.76.75,1.56,1.56,0,0,0,.62-.11l.07.28a2,2,0,0,1-.74.13,1,1,0,0,1-1.09-1.09,1.05,1.05,0,0,1,1-1.16.92.92,0,0,1,.91,1c0,.08,0,.14,0,.18Zm1.19-.28a.57.57,0,0,0-.56-.64.65.65,0,0,0-.62.64Z"/><path class="cls-4" d="M268.61,452.93a.23.23,0,0,1-.26.24.24.24,0,0,1-.24-.24.25.25,0,0,1,.25-.25.24.24,0,0,1,.25.25m-.45.61h.41v2.16h-.41Z"/><path class="cls-4" d="M269.23,454.12a5.15,5.15,0,0,0,0-.58h.36l0,.35h0a.83.83,0,0,1,.74-.4c.3,0,.78.17.78.92v1.29h-.4v-1.25c0-.35-.14-.64-.52-.64a.59.59,0,0,0-.54.4,1,1,0,0,0,0,.19v1.3h-.41Z"/><path class="cls-4" d="M273,455.7l0-.28h0a.82.82,0,0,1-.67.33.63.63,0,0,1-.68-.62c0-.53.47-.81,1.33-.81v0a.45.45,0,0,0-.5-.5,1.12,1.12,0,0,0-.58.16l-.09-.26a1.36,1.36,0,0,1,.73-.19.77.77,0,0,1,.84.88v.81a2.75,2.75,0,0,0,0,.52Zm-.06-1.11c-.44,0-.94.07-.94.49a.35.35,0,0,0,.38.38.56.56,0,0,0,.54-.37.5.5,0,0,0,0-.12Z"/><rect class="cls-4" x="273.98" y="452.53" width="0.4" height="3.17"/><path class="cls-4" d="M277,452.53v2.61a4.88,4.88,0,0,0,0,.56h-.36l0-.38h0a.82.82,0,0,1-.75.43,1,1,0,0,1-1-1.1,1,1,0,0,1,1-1.16.73.73,0,0,1,.67.33h0v-1.29Zm-.4,1.89a1,1,0,0,0,0-.17.59.59,0,0,0-.58-.46c-.42,0-.67.36-.67.84s.22.8.66.8a.61.61,0,0,0,.59-.47.88.88,0,0,0,0-.17Z"/><path class="cls-4" d="M279.64,454.6a1.07,1.07,0,0,1-1.1,1.15,1,1,0,0,1-1.06-1.12,1.06,1.06,0,0,1,1.1-1.14,1,1,0,0,1,1.06,1.11m-1.75,0c0,.47.27.83.67.83s.67-.35.67-.84-.19-.83-.66-.83-.68.43-.68.84"/><path class="cls-4" d="M281.08,455.22a1.41,1.41,0,0,0,.71.2c.41,0,.65-.21.65-.51s-.17-.45-.58-.6-.82-.43-.82-.85.4-.82,1-.82a1.54,1.54,0,0,1,.68.14l-.11.32A1.27,1.27,0,0,0,282,453c-.42,0-.58.24-.58.45s.18.42.61.58.79.44.79.89-.36.86-1.08.86a1.59,1.59,0,0,1-.79-.19Z"/><path class="cls-4" d="M285.41,454.6a1.07,1.07,0,0,1-1.11,1.15,1,1,0,0,1-1.06-1.12,1.07,1.07,0,0,1,1.1-1.14,1,1,0,0,1,1.07,1.11m-1.76,0a.69.69,0,1,0,1.35,0c0-.37-.19-.83-.67-.83s-.68.43-.68.84"/><rect class="cls-4" x="285.92" y="452.53" width="0.4" height="3.17"/><path class="cls-4" d="M288.22,455.7l0-.28h0a.86.86,0,0,1-.68.33.63.63,0,0,1-.68-.62c0-.53.48-.81,1.33-.81v0a.45.45,0,0,0-.5-.5,1.12,1.12,0,0,0-.58.16l-.09-.26a1.36,1.36,0,0,1,.73-.19.77.77,0,0,1,.84.88v.81a2.75,2.75,0,0,0,0,.52Zm-.06-1.11c-.44,0-.94.07-.94.49a.36.36,0,0,0,.38.38.56.56,0,0,0,.54-.37.5.5,0,0,0,0-.12Z"/><path class="cls-4" d="M289.2,454.21c0-.25,0-.47,0-.67h.36V454h0a.65.65,0,0,1,.61-.47h.11v.37h-.13a.55.55,0,0,0-.54.5,1,1,0,0,0,0,.19v1.15h-.4Z"/><path class="cls-4" d="M291.16,452.93a.23.23,0,0,1-.25.24.24.24,0,0,1-.25-.24.25.25,0,0,1,.26-.25.23.23,0,0,1,.24.25m-.44.61h.4v2.16h-.4Z"/><path class="cls-6" d="M158.54,462.37l32.75-24.83c-7.35-9-19.43-14.81-33.08-14.81-13.44,0-25.34,5.66-32.72,14.38Z"/><g class="cls-7"><polygon class="cls-8" points="126.8 422.27 125.75 462.11 190.24 463.73 191.29 423.89 126.8 422.27"/></g><g class="cls-9"><rect class="cls-10" x="132.69" y="391.78" width="50.71" height="55.7" transform="translate(-262.58 575.01) rotate(-89.64)"/></g><polygon class="cls-11" points="160.95 464 159.65 463.11 188.99 440.32 162.35 464 160.95 464"/><polygon class="cls-12" points="122.98 441.36 124.94 438.02 154.59 460.43 122.98 441.36"/><path class="cls-13" d="M171,423.86s12.65,3.51,20.89,12.69l2.44-1.59s-7.28-7.85-21.67-12.15Z"/><path class="cls-14" d="M143.37,422.89s-16.29,4.79-22.71,16.81l1.51,1s6.4-12.29,22.68-16.77Z"/><path class="cls-4" d="M209,425.36l-2.52,7.45h-3.24l8.25-23.7h3.78l8.29,23.7h-3.35l-2.59-7.45Zm8-2.4-2.38-6.82c-.54-1.55-.9-2.95-1.26-4.33h-.07c-.36,1.41-.76,2.85-1.23,4.3L209.6,423Z"/><path class="cls-4" d="M226.86,421.35c0-2.18-.07-3.94-.14-5.56h2.85l.14,2.92h.07a6.89,6.89,0,0,1,6.2-3.31c4.22,0,7.39,3.48,7.39,8.66,0,6.11-3.82,9.14-7.93,9.14a6.18,6.18,0,0,1-5.37-2.67H230v9.25h-3.14Zm3.14,4.53a7,7,0,0,0,.14,1.27,4.88,4.88,0,0,0,4.76,3.62c3.35,0,5.3-2.67,5.3-6.58,0-3.41-1.84-6.33-5.19-6.33a5,5,0,0,0-4.79,3.84A4.75,4.75,0,0,0,230,423Z"/><path class="cls-4" d="M251.19,410.9v4.89h4.54v2.35h-4.54v9.18c0,2.12.61,3.31,2.38,3.31a7,7,0,0,0,1.83-.21l.15,2.32a7.86,7.86,0,0,1-2.81.42,4.45,4.45,0,0,1-3.43-1.3c-.9-.91-1.22-2.42-1.22-4.43v-9.29h-2.7v-2.35h2.7v-4.08Z"/><path class="cls-4" d="M273.89,428.17c0,1.76,0,3.3.14,4.64h-2.81L271,430H271a6.58,6.58,0,0,1-5.76,3.17c-2.74,0-6-1.48-6-7.46v-9.95h3.17v9.42c0,3.24,1,5.42,3.89,5.42a4.58,4.58,0,0,0,4.18-2.81,4.44,4.44,0,0,0,.29-1.58V415.79h3.17Z"/><path class="cls-4" d="M278.72,429.65a8.43,8.43,0,0,0,4.18,1.23c2.3,0,3.39-1.13,3.39-2.53s-.9-2.29-3.25-3.14c-3.13-1.09-4.61-2.77-4.61-4.81,0-2.75,2.27-5,6-5a8.84,8.84,0,0,1,4.29,1.06l-.8,2.25a6.88,6.88,0,0,0-3.56-1c-1.88,0-2.92,1.06-2.92,2.32s1,2,3.31,2.89c3,1.13,4.58,2.6,4.58,5.13,0,3-2.38,5.1-6.52,5.1a10,10,0,0,1-4.9-1.16Z"/><path class="cls-4" d="M201.86,441.45a8.07,8.07,0,0,1,1.14-.08,1.91,1.91,0,0,1,1.29.37,1.2,1.2,0,0,1,.4.94,1.3,1.3,0,0,1-.35,1,1.92,1.92,0,0,1-1.41.49,1.79,1.79,0,0,1-.48,0v1.8h-.59Zm.59,2.17a2.27,2.27,0,0,0,.5.05c.71,0,1.15-.34,1.15-1s-.43-.88-1.09-.88a3.3,3.3,0,0,0-.56,0Z"/><path class="cls-4" d="M209.43,443.6a2.13,2.13,0,0,1-2.14,2.37,2.08,2.08,0,0,1-2.07-2.28,2.15,2.15,0,0,1,2.14-2.36,2.07,2.07,0,0,1,2.07,2.27m-3.57.07c0,1,.53,1.82,1.46,1.82s1.48-.84,1.48-1.86-.48-1.83-1.47-1.83-1.47.89-1.47,1.87"/><polygon class="cls-4" points="210.9 441.89 209.5 441.89 209.5 441.4 212.91 441.4 212.91 441.89 211.51 441.89 211.51 445.89 210.9 445.89 210.9 441.89"/><polygon class="cls-4" points="215.81 443.79 214.02 443.79 214.02 445.41 216.01 445.41 216.01 445.89 213.43 445.89 213.43 441.4 215.91 441.4 215.91 441.89 214.02 441.89 214.02 443.31 215.81 443.31 215.81 443.79"/><path class="cls-4" d="M216.79,445.89V441.4h.65l1.47,2.27a13.46,13.46,0,0,1,.83,1.46h0c-.05-.6-.07-1.15-.07-1.85V441.4h.56v4.49h-.6l-1.46-2.28a13.64,13.64,0,0,1-.86-1.5h0c0,.57,0,1.11,0,1.85v1.92Z"/><path class="cls-4" d="M224.5,445.75a3.18,3.18,0,0,1-1.22.21,2.12,2.12,0,0,1-2.27-2.27,2.26,2.26,0,0,1,2.4-2.36,2.55,2.55,0,0,1,1.1.2l-.15.47a2.12,2.12,0,0,0-.93-.19,1.69,1.69,0,0,0-1.79,1.86,1.65,1.65,0,0,0,1.77,1.8,2.51,2.51,0,0,0,1-.18Z"/><rect class="cls-4" x="225.24" y="441.4" width="0.59" height="4.49"/><path class="cls-4" d="M227.62,444.48l-.48,1.41h-.61l1.56-4.49h.72l1.57,4.49h-.63l-.5-1.41Zm1.51-.45-.45-1.3c-.1-.29-.17-.56-.24-.82h0c-.07.27-.15.54-.23.82l-.46,1.3Z"/><path class="cls-4" d="M231.06,441.46a9.19,9.19,0,0,1,1.26-.09,2.68,2.68,0,0,1,1.87.56,2,2,0,0,1,.65,1.61,2.37,2.37,0,0,1-.67,1.75,2.87,2.87,0,0,1-2,.64,10.75,10.75,0,0,1-1.08-.05Zm.59,4a3.39,3.39,0,0,0,.6,0,1.75,1.75,0,0,0,2-1.91c0-1.06-.6-1.73-1.86-1.73a3.06,3.06,0,0,0-.7.06Z"/><path class="cls-4" d="M239.54,443.6A2.13,2.13,0,0,1,237.4,446a2.08,2.08,0,0,1-2.07-2.28,2.15,2.15,0,0,1,2.14-2.36,2.06,2.06,0,0,1,2.07,2.27m-3.57.07c0,1,.53,1.82,1.47,1.82s1.47-.84,1.47-1.86-.47-1.83-1.47-1.83-1.47.89-1.47,1.87"/><path class="cls-4" d="M240.32,441.46a6.35,6.35,0,0,1,1.14-.09,1.94,1.94,0,0,1,1.33.36,1.12,1.12,0,0,1,.36.86,1.18,1.18,0,0,1-.87,1.14v0a1.12,1.12,0,0,1,.68.91,8,8,0,0,0,.35,1.24h-.61a5.49,5.49,0,0,1-.31-1.08c-.13-.62-.38-.85-.92-.87h-.56v1.95h-.59Zm.59,2.05h.61c.63,0,1-.34,1-.86s-.43-.83-1.06-.84a2.27,2.27,0,0,0-.59.06Z"/><path class="cls-4" d="M244.77,444.48l-.48,1.41h-.61l1.56-4.49H246l1.57,4.49h-.64l-.49-1.41Zm1.51-.45-.45-1.3a8.12,8.12,0,0,1-.24-.82h0c-.07.27-.15.54-.24.82l-.45,1.3Z"/><polygon class="cls-4" points="252.04 443.79 250.25 443.79 250.25 445.41 252.24 445.41 252.24 445.89 249.65 445.89 249.65 441.4 252.14 441.4 252.14 441.89 250.25 441.89 250.25 443.31 252.04 443.31 252.04 443.79"/><path class="cls-4" d="M253,441.46a9.47,9.47,0,0,1,1.27-.09,2.65,2.65,0,0,1,1.86.56,2,2,0,0,1,.65,1.61,2.37,2.37,0,0,1-.66,1.75,2.88,2.88,0,0,1-2,.64c-.42,0-.77,0-1.08-.05Zm.6,4a3.39,3.39,0,0,0,.6,0,1.75,1.75,0,0,0,2-1.91c0-1.06-.61-1.73-1.86-1.73a3.06,3.06,0,0,0-.7.06Z"/><path class="cls-4" d="M258.16,441.4v2.66c0,1,.46,1.43,1.07,1.43s1.12-.44,1.12-1.43V441.4h.6V444c0,1.38-.74,2-1.74,2s-1.65-.53-1.65-1.92V441.4Z"/><path class="cls-4" d="M265.2,445.75A3.12,3.12,0,0,1,264,446a2.13,2.13,0,0,1-2.28-2.27,2.27,2.27,0,0,1,2.41-2.36,2.53,2.53,0,0,1,1.09.2l-.14.47a2.18,2.18,0,0,0-.93-.19,1.7,1.7,0,0,0-1.8,1.86,1.65,1.65,0,0,0,1.77,1.8,2.51,2.51,0,0,0,1-.18Z"/><path class="cls-4" d="M266.72,444.48l-.48,1.41h-.61l1.56-4.49h.72l1.57,4.49h-.64l-.49-1.41Zm1.51-.45-.45-1.3c-.1-.29-.17-.56-.24-.82h0c-.07.27-.15.54-.24.82l-.45,1.3Z"/><path class="cls-4" d="M273.27,445.75a3.14,3.14,0,0,1-1.22.21,2.13,2.13,0,0,1-2.27-2.27,2.26,2.26,0,0,1,2.4-2.36,2.55,2.55,0,0,1,1.1.2l-.15.47a2.12,2.12,0,0,0-.93-.19,1.69,1.69,0,0,0-1.79,1.86,1.65,1.65,0,0,0,1.77,1.8,2.51,2.51,0,0,0,1-.18Z"/><rect class="cls-4" x="274.02" y="441.4" width="0.59" height="4.49"/><path class="cls-4" d="M279.58,443.6a2.12,2.12,0,0,1-2.13,2.37,2.09,2.09,0,0,1-2.08-2.28,2.15,2.15,0,0,1,2.14-2.36,2.06,2.06,0,0,1,2.07,2.27m-3.57.07c0,1,.53,1.82,1.47,1.82s1.47-.84,1.47-1.86-.47-1.83-1.46-1.83-1.48.89-1.48,1.87"/><path class="cls-4" d="M280.36,445.89V441.4H281l1.48,2.27a13.46,13.46,0,0,1,.83,1.46h0c-.05-.6-.07-1.15-.07-1.85V441.4h.56v4.49h-.6l-1.46-2.28a13.64,13.64,0,0,1-.86-1.5h0c0,.57.05,1.11.05,1.85v1.92Z"/><path class="cls-4" d="M285.6,444.48l-.48,1.41h-.62l1.57-4.49h.71l1.58,4.49h-.64l-.49-1.41Zm1.5-.45-.45-1.3c-.1-.29-.17-.56-.24-.82h0c-.07.27-.14.54-.23.82l-.45,1.3Z"/><polygon class="cls-4" points="289.03 441.4 289.63 441.4 289.63 445.41 291.59 445.41 291.59 445.89 289.03 445.89 289.03 441.4"/><rect class="cls-4" x="198.81" y="448.31" width="95.46" height="0.33"/><path class="cls-4" d="M201.93,455.22a1.41,1.41,0,0,0,.71.2c.41,0,.65-.21.65-.51s-.17-.45-.58-.6-.82-.43-.82-.85.4-.82,1-.82a1.54,1.54,0,0,1,.68.14l-.11.32a1.32,1.32,0,0,0-.59-.14c-.42,0-.58.24-.58.45s.19.42.62.58.79.44.79.89-.36.86-1.09.86a1.57,1.57,0,0,1-.78-.19Z"/><rect class="cls-4" x="204.24" y="452.69" width="0.4" height="3.01"/><path class="cls-4" d="M205.33,452.72a5.2,5.2,0,0,1,.77-.05,1.28,1.28,0,0,1,.86.24.82.82,0,0,1,.27.63.87.87,0,0,1-.24.65,1.28,1.28,0,0,1-.94.33,1.51,1.51,0,0,1-.32,0v1.21h-.4Zm.4,1.45a1.06,1.06,0,0,0,.33,0c.48,0,.77-.23.77-.65s-.28-.59-.72-.59a2.48,2.48,0,0,0-.38,0Z"/><path class="cls-4" d="M208.74,452.73a4.26,4.26,0,0,1,.76-.06,1.27,1.27,0,0,1,.89.24.73.73,0,0,1,.25.57.8.8,0,0,1-.59.77h0a.78.78,0,0,1,.46.61,4.27,4.27,0,0,0,.24.83h-.42a3.74,3.74,0,0,1-.2-.72c-.09-.42-.26-.57-.62-.59h-.38v1.31h-.39Zm.39,1.37h.41c.43,0,.7-.23.7-.57s-.29-.56-.71-.57a1.62,1.62,0,0,0-.4,0Z"/><path class="cls-4" d="M211.43,454.69a.7.7,0,0,0,.76.75,1.54,1.54,0,0,0,.61-.11l.07.28a1.92,1.92,0,0,1-.74.13,1,1,0,0,1-1.09-1.09,1.06,1.06,0,0,1,1-1.16.93.93,0,0,1,.92,1,.74.74,0,0,1,0,.18Zm1.18-.28a.57.57,0,0,0-.56-.64.65.65,0,0,0-.62.64Z"/><path class="cls-4" d="M215.41,452.53v2.61a4.88,4.88,0,0,0,0,.56h-.37v-.38h0a.85.85,0,0,1-.76.43,1,1,0,0,1-.95-1.1,1,1,0,0,1,1-1.16.75.75,0,0,1,.67.33h0v-1.29Zm-.41,1.89a1,1,0,0,0,0-.17.6.6,0,0,0-.59-.46c-.41,0-.66.36-.66.84s.22.8.66.8A.61.61,0,0,0,215,455a.91.91,0,0,0,0-.17Z"/><path class="cls-4" d="M219,452.53v2.61a4.88,4.88,0,0,0,0,.56h-.36l0-.38h0a.85.85,0,0,1-.76.43,1,1,0,0,1-1-1.1,1,1,0,0,1,1-1.16.73.73,0,0,1,.67.33h0v-1.29Zm-.4,1.89a1,1,0,0,0,0-.17.59.59,0,0,0-.58-.46c-.42,0-.67.36-.67.84s.22.8.66.8a.61.61,0,0,0,.59-.47.88.88,0,0,0,0-.17Z"/><path class="cls-4" d="M219.85,454.69a.7.7,0,0,0,.76.75,1.51,1.51,0,0,0,.61-.11l.07.28a1.86,1.86,0,0,1-.73.13,1,1,0,0,1-1.09-1.09,1.05,1.05,0,0,1,1-1.16.92.92,0,0,1,.91,1c0,.08,0,.14,0,.18Zm1.18-.28a.56.56,0,0,0-.56-.64.67.67,0,0,0-.62.64Z"/><path class="cls-4" d="M225.06,455.6a2.08,2.08,0,0,1-.82.14,1.42,1.42,0,0,1-1.52-1.52,1.51,1.51,0,0,1,1.61-1.58,1.71,1.71,0,0,1,.73.13l-.09.32a1.56,1.56,0,0,0-.63-.13,1.14,1.14,0,0,0-1.2,1.25,1.11,1.11,0,0,0,1.18,1.21,1.62,1.62,0,0,0,.66-.13Z"/><path class="cls-4" d="M227.5,454.6a1.07,1.07,0,0,1-1.11,1.15,1,1,0,0,1-1.06-1.12,1.07,1.07,0,0,1,1.1-1.14,1,1,0,0,1,1.07,1.11m-1.76,0a.74.74,0,0,0,.67.83c.39,0,.67-.35.67-.84s-.18-.83-.66-.83-.68.43-.68.84"/><rect class="cls-4" x="228" y="452.53" width="0.4" height="3.17"/><path class="cls-4" d="M229.31,454.69a.7.7,0,0,0,.76.75,1.51,1.51,0,0,0,.61-.11l.07.28a1.87,1.87,0,0,1-.74.13,1,1,0,0,1-1.09-1.09,1.06,1.06,0,0,1,1-1.16.92.92,0,0,1,.92,1,.74.74,0,0,1,0,.18Zm1.18-.28a.57.57,0,0,0-.56-.64.65.65,0,0,0-.62.64Z"/><path class="cls-4" d="M233.28,453.54c0,.15,0,.33,0,.59v1.26a1.24,1.24,0,0,1-.32,1,1.18,1.18,0,0,1-.81.26,1.41,1.41,0,0,1-.73-.18l.1-.3a1.26,1.26,0,0,0,.65.17.65.65,0,0,0,.71-.75v-.24h0a.79.79,0,0,1-.7.36,1,1,0,0,1-.94-1.05,1,1,0,0,1,1-1.15.72.72,0,0,1,.69.37h0l0-.32Zm-.41.85a.9.9,0,0,0,0-.18.59.59,0,0,0-.57-.42c-.38,0-.66.32-.66.82s.22.78.66.78a.6.6,0,0,0,.56-.4.82.82,0,0,0,0-.21Z"/><path class="cls-4" d="M234.35,452.93a.23.23,0,0,1-.25.24.24.24,0,0,1-.24-.24.24.24,0,0,1,.25-.25.23.23,0,0,1,.24.25m-.44.61h.4v2.16h-.4Z"/><path class="cls-4" d="M237,454.6a1.07,1.07,0,0,1-1.1,1.15,1,1,0,0,1-1.06-1.12,1.06,1.06,0,0,1,1.1-1.14A1,1,0,0,1,237,454.6m-1.76,0a.74.74,0,0,0,.68.83c.38,0,.67-.35.67-.84s-.19-.83-.66-.83-.69.43-.69.84"/><path class="cls-4" d="M237.43,455.3a1.14,1.14,0,0,0,.53.15c.3,0,.44-.14.44-.32s-.12-.29-.42-.4-.58-.35-.58-.61a.67.67,0,0,1,.76-.63,1.17,1.17,0,0,1,.55.13l-.1.29a.84.84,0,0,0-.46-.13c-.24,0-.37.14-.37.3s.13.26.42.36.58.33.58.65-.3.65-.82.65a1.3,1.3,0,0,1-.63-.15Z"/><rect class="cls-4" x="240.33" y="452.35" width="0.31" height="4.47"/><polygon class="cls-4" points="242.35 452.69 244.01 452.69 244.01 453.01 242.75 453.01 242.75 454.01 243.91 454.01 243.91 454.33 242.75 454.33 242.75 455.7 242.35 455.7 242.35 452.69"/><path class="cls-4" d="M246.26,455.11c0,.22,0,.42,0,.59h-.35l0-.36h0a.81.81,0,0,1-.73.41c-.34,0-.76-.19-.76-.95v-1.26h.4v1.19c0,.41.13.69.5.69a.58.58,0,0,0,.53-.36.6.6,0,0,0,0-.2v-1.32h.41Z"/><path class="cls-4" d="M246.92,454.12a5.15,5.15,0,0,0,0-.58h.36l0,.35h0a.83.83,0,0,1,.74-.4c.3,0,.78.17.78.92v1.29h-.4v-1.25c0-.35-.14-.64-.52-.64a.59.59,0,0,0-.54.4,1,1,0,0,0,0,.19v1.3h-.41Z"/><path class="cls-4" d="M251.38,452.53v2.61c0,.19,0,.41,0,.56H251l0-.38h0a.82.82,0,0,1-.75.43,1,1,0,0,1-.95-1.1,1,1,0,0,1,1-1.16.73.73,0,0,1,.66.33h0v-1.29Zm-.41,1.89a.5.5,0,0,0,0-.17.58.58,0,0,0-.58-.46c-.41,0-.66.36-.66.84s.22.8.65.8A.61.61,0,0,0,251,455a.47.47,0,0,0,0-.17Z"/><path class="cls-4" d="M253.27,455.7l0-.28h0a.82.82,0,0,1-.67.33.63.63,0,0,1-.68-.62c0-.53.48-.81,1.33-.81v0a.45.45,0,0,0-.5-.5,1.12,1.12,0,0,0-.58.16l-.09-.26a1.36,1.36,0,0,1,.73-.19.77.77,0,0,1,.84.88v.81a2.75,2.75,0,0,0,0,.52Zm-.06-1.11c-.44,0-.94.07-.94.49a.36.36,0,0,0,.38.38.56.56,0,0,0,.54-.37.5.5,0,0,0,0-.12Z"/><path class="cls-4" d="M255.83,455.62a1.63,1.63,0,0,1-.64.12,1,1,0,0,1-1.1-1.1,1.11,1.11,0,0,1,1.19-1.15,1.44,1.44,0,0,1,.56.11l-.09.31a.9.9,0,0,0-.47-.11.76.76,0,0,0-.78.82.74.74,0,0,0,.76.81,1.2,1.2,0,0,0,.5-.11Z"/><path class="cls-4" d="M256.75,452.93a.24.24,0,0,1-.26.24.24.24,0,0,1-.24-.24.25.25,0,0,1,.5,0m-.45.61h.4v2.16h-.4Z"/><path class="cls-4" d="M259.37,454.6a1.07,1.07,0,0,1-1.1,1.15,1,1,0,0,1-1.06-1.11,1.06,1.06,0,0,1,1.1-1.15,1,1,0,0,1,1.06,1.11m-1.75,0c0,.47.27.83.67.83s.67-.35.67-.84-.19-.83-.66-.83-.68.43-.68.84m1.27-2-.56.64h-.28l.4-.64Z"/><path class="cls-4" d="M259.88,454.12a5.15,5.15,0,0,0,0-.58h.36l0,.35h0a.83.83,0,0,1,.73-.4c.31,0,.79.17.79.92v1.29h-.41v-1.25c0-.35-.13-.64-.51-.64a.59.59,0,0,0-.54.4.54.54,0,0,0,0,.19v1.3h-.4Z"/><path class="cls-4" d="M263.4,452.73a4.3,4.3,0,0,1,.77-.06,1.28,1.28,0,0,1,.89.24.72.72,0,0,1,.24.57.79.79,0,0,1-.58.77h0a.78.78,0,0,1,.46.61,5.55,5.55,0,0,0,.23.83H265a4.33,4.33,0,0,1-.21-.72c-.09-.42-.25-.57-.61-.59h-.38v1.31h-.4Zm.4,1.37h.41c.42,0,.69-.23.69-.57s-.28-.56-.7-.57a1.55,1.55,0,0,0-.4,0Z"/><path class="cls-4" d="M266.09,454.69a.7.7,0,0,0,.76.75,1.56,1.56,0,0,0,.62-.11l.07.28a2,2,0,0,1-.74.13,1,1,0,0,1-1.09-1.09,1.05,1.05,0,0,1,1-1.16.92.92,0,0,1,.91,1c0,.08,0,.14,0,.18Zm1.19-.28a.57.57,0,0,0-.56-.64.65.65,0,0,0-.62.64Z"/><path class="cls-4" d="M268.61,452.93a.23.23,0,0,1-.26.24.24.24,0,0,1-.24-.24.25.25,0,0,1,.25-.25.24.24,0,0,1,.25.25m-.45.61h.41v2.16h-.41Z"/><path class="cls-4" d="M269.23,454.12a5.15,5.15,0,0,0,0-.58h.36l0,.35h0a.83.83,0,0,1,.74-.4c.3,0,.78.17.78.92v1.29h-.4v-1.25c0-.35-.14-.64-.52-.64a.59.59,0,0,0-.54.4,1,1,0,0,0,0,.19v1.3h-.41Z"/><path class="cls-4" d="M273,455.7l0-.28h0a.82.82,0,0,1-.67.33.63.63,0,0,1-.68-.62c0-.53.47-.81,1.33-.81v0a.45.45,0,0,0-.5-.5,1.12,1.12,0,0,0-.58.16l-.09-.26a1.36,1.36,0,0,1,.73-.19.77.77,0,0,1,.84.88v.81a2.75,2.75,0,0,0,0,.52Zm-.06-1.11c-.44,0-.94.07-.94.49a.35.35,0,0,0,.38.38.56.56,0,0,0,.54-.37.5.5,0,0,0,0-.12Z"/><rect class="cls-4" x="273.98" y="452.53" width="0.4" height="3.17"/><path class="cls-4" d="M277,452.53v2.61a4.88,4.88,0,0,0,0,.56h-.36l0-.38h0a.82.82,0,0,1-.75.43,1,1,0,0,1-1-1.1,1,1,0,0,1,1-1.16.73.73,0,0,1,.67.33h0v-1.29Zm-.4,1.89a1,1,0,0,0,0-.17.59.59,0,0,0-.58-.46c-.42,0-.67.36-.67.84s.22.8.66.8a.61.61,0,0,0,.59-.47.88.88,0,0,0,0-.17Z"/><path class="cls-4" d="M279.64,454.6a1.07,1.07,0,0,1-1.1,1.15,1,1,0,0,1-1.06-1.12,1.06,1.06,0,0,1,1.1-1.14,1,1,0,0,1,1.06,1.11m-1.75,0c0,.47.27.83.67.83s.67-.35.67-.84-.19-.83-.66-.83-.68.43-.68.84"/><path class="cls-4" d="M281.08,455.22a1.41,1.41,0,0,0,.71.2c.41,0,.65-.21.65-.51s-.17-.45-.58-.6-.82-.43-.82-.85.4-.82,1-.82a1.54,1.54,0,0,1,.68.14l-.11.32A1.27,1.27,0,0,0,282,453c-.42,0-.58.24-.58.45s.18.42.61.58.79.44.79.89-.36.86-1.08.86a1.59,1.59,0,0,1-.79-.19Z"/><path class="cls-4" d="M285.41,454.6a1.07,1.07,0,0,1-1.11,1.15,1,1,0,0,1-1.06-1.12,1.07,1.07,0,0,1,1.1-1.14,1,1,0,0,1,1.07,1.11m-1.76,0a.69.69,0,1,0,1.35,0c0-.37-.19-.83-.67-.83s-.68.43-.68.84"/><rect class="cls-4" x="285.92" y="452.53" width="0.4" height="3.17"/><path class="cls-4" d="M288.22,455.7l0-.28h0a.86.86,0,0,1-.68.33.63.63,0,0,1-.68-.62c0-.53.48-.81,1.33-.81v0a.45.45,0,0,0-.5-.5,1.12,1.12,0,0,0-.58.16l-.09-.26a1.36,1.36,0,0,1,.73-.19.77.77,0,0,1,.84.88v.81a2.75,2.75,0,0,0,0,.52Zm-.06-1.11c-.44,0-.94.07-.94.49a.36.36,0,0,0,.38.38.56.56,0,0,0,.54-.37.5.5,0,0,0,0-.12Z"/><path class="cls-4" d="M289.2,454.21c0-.25,0-.47,0-.67h.36V454h0a.65.65,0,0,1,.61-.47h.11v.37h-.13a.55.55,0,0,0-.54.5,1,1,0,0,0,0,.19v1.15h-.4Z"/><path class="cls-4" d="M291.16,452.93a.23.23,0,0,1-.25.24.24.24,0,0,1-.25-.24.25.25,0,0,1,.26-.25.23.23,0,0,1,.24.25m-.44.61h.4v2.16h-.4Z"/><path class="cls-6" d="M158.54,462.37l32.75-24.83c-7.35-9-19.43-14.81-33.08-14.81-13.44,0-25.34,5.66-32.72,14.38Z"/><g class="cls-7"><polygon class="cls-15" points="126.8 422.27 125.75 462.11 190.24 463.73 191.29 423.89 126.8 422.27"/></g><g class="cls-9"><rect class="cls-16" x="132.69" y="391.78" width="50.71" height="55.7" transform="translate(-262.58 575.01) rotate(-89.64)"/></g><polygon class="cls-11" points="160.95 464 159.65 463.11 188.99 440.32 162.35 464 160.95 464"/><polygon class="cls-12" points="122.98 441.36 124.94 438.02 154.59 460.43 122.98 441.36"/><path class="cls-13" d="M171,423.86s12.65,3.51,20.89,12.69l2.44-1.59s-7.28-7.85-21.67-12.15Z"/><path class="cls-14" d="M143.37,422.89s-16.29,4.79-22.71,16.81l1.51,1s6.4-12.29,22.68-16.77Z"/></g></g></svg>