<?xml version="1.0" encoding="utf-8"?>
<!-- Generator: Adobe Illustrator 21.0.0, SVG Export Plug-In . SVG Version: 6.00 Build 0)  -->
<svg version="1.1" id="Capa_1" xmlns="http://www.w3.org/2000/svg" xmlns:xlink="http://www.w3.org/1999/xlink" x="0px" y="0px"
	 viewBox="0 0 306 198" style="enable-background:new 0 0 306 198;" xml:space="preserve">
<style type="text/css">
	.st0{fill:#00B6ED;}
	.st1{fill:#FFFFFF;}
</style>
<title>Recurso 1</title>
<rect class="st0" width="306" height="198"/>
<path class="st1" d="M24.9,67.1h2.7c0.1,0,0.1,0,0.2,0.1s0.1,0.1,0.1,0.2v14.9c0,0.1,0,0.1-0.1,0.2s-0.1,0.1-0.2,0.1H25
	c-0.1,0-0.1,0-0.2-0.1s-0.1-0.1-0.1-0.2V70.1V70h-0.1l-2.2,0.6h-0.1c-0.1,0-0.2-0.1-0.2-0.2L22,68.5c0-0.1,0.1-0.2,0.2-0.3l2.3-1.1
	C24.6,67.1,24.7,67.1,24.9,67.1z"/>
<path class="st1" d="M30.7,82.1c-0.3-0.3-0.5-0.7-0.5-1.2s0.2-0.9,0.5-1.3c0.3-0.3,0.7-0.5,1.3-0.5s0.9,0.2,1.3,0.5
	c0.3,0.3,0.5,0.7,0.5,1.3c0,0.5-0.2,0.9-0.5,1.2s-0.7,0.5-1.2,0.5S31,82.4,30.7,82.1z"/>
<g>
	<path class="st1" d="M55.5,75.9c0,0,0.1,0.1,0.1,0.2v0.6c0,0.7-0.2,1.2-0.5,1.6c-0.3,0.4-0.8,0.8-1.3,1.3c-0.5,0.4-0.8,0.7-1.1,1
		c-0.2,0.3-0.3,0.6-0.3,1c0,0.4,0.1,0.8,0.4,1c0.3,0.3,0.6,0.4,1,0.4c0.5,0,0.9-0.1,1.1-0.4c0.3-0.3,0.4-0.6,0.4-1.1v-0.3
		c0-0.1,0.1-0.2,0.2-0.2l2.3,0.1c0.1,0,0.1,0,0.2,0.1s0.1,0.1,0.1,0.2v0.2c0,0.8-0.2,1.5-0.6,2.1c-0.4,0.6-0.9,1.1-1.6,1.4
		c-0.7,0.3-1.4,0.5-2.3,0.5c-1.3,0-2.3-0.4-3.1-1.1s-1.1-1.7-1.1-2.8c0-0.6,0.1-1.1,0.3-1.5c0.2-0.4,0.4-0.8,0.7-1
		c0.3-0.3,0.6-0.6,1-0.9c0.4-0.3,0.8-0.6,1-0.9c0.2-0.2,0.3-0.5,0.3-0.9V76c0-0.1,0-0.1,0.1-0.2c0,0,0.1-0.1,0.2-0.1h2.3
		C55.3,75.8,55.4,75.8,55.5,75.9z M55.3,71.7c0.3,0.3,0.4,0.7,0.4,1.1c0,0.5-0.1,0.8-0.4,1.1s-0.7,0.4-1.1,0.4
		c-0.5,0-0.8-0.1-1.1-0.4c-0.3-0.3-0.4-0.7-0.4-1.1s0.1-0.8,0.4-1.1c0.3-0.3,0.7-0.5,1.1-0.5C54.6,71.3,55,71.4,55.3,71.7z"/>
	<path class="st1" d="M61.1,81c-0.7-0.4-1.2-0.9-1.6-1.5c-0.4-0.7-0.6-1.4-0.6-2.3v-5.6c0-0.9,0.2-1.6,0.6-2.3
		c0.4-0.7,0.9-1.2,1.6-1.5s1.5-0.5,2.4-0.5s1.7,0.2,2.4,0.5s1.2,0.8,1.6,1.5c0.4,0.6,0.6,1.4,0.6,2.2v0.1c0,0.1,0,0.1-0.1,0.2
		c0,0.1-0.1,0.1-0.2,0.1l-2.3,0.1c-0.2,0-0.2-0.1-0.2-0.2v-0.3c0-0.5-0.2-1-0.5-1.3c-0.3-0.3-0.7-0.5-1.3-0.5s-1,0.2-1.3,0.5
		c-0.3,0.3-0.5,0.8-0.5,1.3v5.9c0,0.5,0.2,1,0.5,1.3c0.3,0.3,0.7,0.5,1.3,0.5s1-0.2,1.3-0.5c0.3-0.3,0.5-0.8,0.5-1.3V77
		c0-0.1,0.1-0.2,0.2-0.2l2.3,0.1c0.1,0,0.1,0,0.2,0.1c0,0,0.1,0.1,0.1,0.2v0.1c0,0.9-0.2,1.6-0.6,2.3c-0.4,0.7-0.9,1.2-1.6,1.5
		c-0.7,0.4-1.5,0.5-2.4,0.5S61.8,81.3,61.1,81z"/>
	<path class="st1" d="M70.9,80.6c-0.7-0.6-1.2-1.4-1.3-2.4c-0.1-0.6-0.2-1.3-0.2-2.1c0-0.8,0.1-1.5,0.2-2.1c0.1-1,0.6-1.8,1.3-2.4
		c0.7-0.6,1.7-0.9,2.9-0.9c1.1,0,2.1,0.3,2.8,0.9c0.7,0.6,1.2,1.4,1.3,2.4c0.1,0.6,0.2,1.3,0.2,2.1c0,0.7-0.1,1.4-0.2,2
		c-0.1,1-0.6,1.8-1.3,2.4c-0.7,0.6-1.7,0.9-2.8,0.9S71.7,81.2,70.9,80.6z M74.7,78.7c0.2-0.2,0.4-0.5,0.5-0.9
		c0.1-0.6,0.1-1.1,0.1-1.6c0-0.5,0-1.1-0.1-1.6c-0.1-0.4-0.2-0.7-0.5-0.9c-0.2-0.2-0.6-0.3-0.9-0.3c-0.4,0-0.7,0.1-0.9,0.3
		c-0.2,0.2-0.4,0.5-0.5,0.9c-0.1,0.4-0.1,0.9-0.1,1.6c0,0.7,0,1.2,0.1,1.6c0.1,0.4,0.2,0.7,0.5,0.9c0.3,0.2,0.6,0.3,0.9,0.3
		C74.1,79.1,74.4,79,74.7,78.7z M72.4,69.7c0-0.1,0-0.1,0-0.2l1.1-2c0.1-0.1,0.2-0.2,0.3-0.2h1.9c0.1,0,0.2,0,0.2,0.1
		c0,0.1,0,0.1,0,0.2l-1.5,2c-0.1,0.1-0.2,0.1-0.3,0.1h-1.6C72.5,69.8,72.4,69.8,72.4,69.7z"/>
	<path class="st1" d="M92.2,71.8c0.5,0.6,0.8,1.5,0.8,2.6v6.7c0,0.1,0,0.1-0.1,0.2c0,0-0.1,0.1-0.2,0.1h-2.3c-0.1,0-0.1,0-0.2-0.1
		c0,0-0.1-0.1-0.1-0.2v-6.3c0-0.5-0.1-0.8-0.3-1.1c-0.2-0.3-0.5-0.4-0.9-0.4c-0.4,0-0.7,0.1-0.9,0.4c-0.2,0.3-0.3,0.6-0.3,1.1v6.3
		c0,0.1,0,0.1-0.1,0.2c0,0-0.1,0.1-0.2,0.1h-2.3c-0.1,0-0.1,0-0.2-0.1c0,0-0.1-0.1-0.1-0.2v-6.3c0-0.5-0.1-0.8-0.3-1.1
		c-0.2-0.3-0.5-0.4-0.9-0.4c-0.4,0-0.7,0.1-0.9,0.4c-0.2,0.3-0.3,0.6-0.3,1.1v6.3c0,0.1,0,0.1-0.1,0.2c0,0-0.1,0.1-0.2,0.1h-2.3
		c-0.1,0-0.1,0-0.2-0.1c0,0-0.1-0.1-0.1-0.2v-9.8c0-0.1,0-0.1,0.1-0.2c0,0,0.1-0.1,0.2-0.1h2.3c0.1,0,0.1,0,0.2,0.1s0.1,0.1,0.1,0.2
		v0.5c0,0,0,0.1,0,0.1c0,0,0.1,0,0.1,0c0.3-0.3,0.6-0.6,1-0.7c0.4-0.2,0.8-0.2,1.2-0.2c0.6,0,1.1,0.1,1.5,0.4c0.4,0.2,0.8,0.6,1,1.1
		c0,0,0,0,0.1,0c0,0,0.1,0,0.1-0.1c0.3-0.5,0.7-0.8,1.1-1.1c0.5-0.2,0.9-0.3,1.5-0.3C90.9,70.9,91.7,71.2,92.2,71.8z"/>
	<path class="st1" d="M95.9,80.6c-0.7-0.6-1.2-1.4-1.3-2.4c-0.1-0.6-0.2-1.3-0.2-2.1c0-0.8,0.1-1.5,0.2-2.1c0.1-1,0.6-1.8,1.3-2.4
		c0.7-0.6,1.7-0.9,2.9-0.9c1.1,0,2.1,0.3,2.8,0.9c0.7,0.6,1.2,1.4,1.3,2.4c0.1,0.6,0.2,1.3,0.2,2.1c0,0.7-0.1,1.4-0.2,2
		c-0.1,1-0.6,1.8-1.3,2.4c-0.7,0.6-1.7,0.9-2.8,0.9S96.7,81.2,95.9,80.6z M99.7,78.7c0.2-0.2,0.4-0.5,0.5-0.9
		c0.1-0.6,0.1-1.1,0.1-1.6c0-0.5,0-1.1-0.1-1.6c-0.1-0.4-0.2-0.7-0.5-0.9c-0.2-0.2-0.6-0.3-0.9-0.3c-0.4,0-0.7,0.1-0.9,0.3
		c-0.2,0.2-0.4,0.5-0.5,0.9c-0.1,0.4-0.1,0.9-0.1,1.6c0,0.7,0,1.2,0.1,1.6c0.1,0.4,0.2,0.7,0.5,0.9c0.3,0.2,0.6,0.3,0.9,0.3
		C99.1,79.1,99.4,79,99.7,78.7z"/>
	<path class="st1" d="M117,76.1l0,0.8c0,0.2-0.1,0.2-0.2,0.2h-5.3c-0.1,0-0.1,0-0.1,0.1c0,0.3,0.1,0.5,0.1,0.7
		c0.1,0.4,0.2,0.7,0.5,0.9c0.3,0.2,0.6,0.3,1,0.3c0.7,0,1.1-0.3,1.4-0.9c0.1-0.1,0.2-0.2,0.3-0.2l2.1,0.4c0.2,0,0.2,0.1,0.2,0.3
		c-0.3,0.9-0.8,1.6-1.5,2s-1.5,0.7-2.5,0.7c-1.2,0-2.1-0.3-2.8-0.8s-1.2-1.3-1.4-2.3c-0.1-0.5-0.2-1.4-0.2-2.5c0-0.6,0-1.2,0.1-1.6
		c0.1-1,0.6-1.8,1.3-2.4c0.7-0.6,1.7-0.9,2.8-0.9c1.2,0,2.2,0.3,3,1c0.8,0.7,1.2,1.6,1.3,2.7C117,75.1,117,75.6,117,76.1z
		 M111.9,73.6c-0.2,0.2-0.4,0.5-0.4,0.9c0,0.2-0.1,0.5-0.1,0.8c0,0.1,0,0.1,0.1,0.1h2.6c0.1,0,0.1,0,0.1-0.1c0-0.3,0-0.5-0.1-0.8
		c-0.1-0.4-0.2-0.6-0.4-0.9c-0.2-0.2-0.5-0.3-0.9-0.3S112.1,73.4,111.9,73.6z"/>
	<path class="st1" d="M125.9,71.8c0.6,0.6,0.8,1.5,0.8,2.6v6.7c0,0.1,0,0.1-0.1,0.2c0,0-0.1,0.1-0.2,0.1h-2.3c-0.1,0-0.1,0-0.2-0.1
		c0,0-0.1-0.1-0.1-0.2v-6.3c0-0.5-0.1-0.8-0.3-1.1c-0.2-0.3-0.5-0.4-0.9-0.4c-0.4,0-0.7,0.1-1,0.4c-0.2,0.3-0.3,0.6-0.3,1.1v6.3
		c0,0.1,0,0.1-0.1,0.2c0,0-0.1,0.1-0.2,0.1h-2.3c-0.1,0-0.1,0-0.2-0.1c0,0-0.1-0.1-0.1-0.2v-9.8c0-0.1,0-0.1,0.1-0.2
		c0,0,0.1-0.1,0.2-0.1h2.3c0.1,0,0.1,0,0.2,0.1s0.1,0.1,0.1,0.2v0.6c0,0,0,0.1,0,0.1s0.1,0,0.1-0.1c0.5-0.6,1.2-1,2.1-1
		C124.6,70.9,125.4,71.2,125.9,71.8z"/>
	<path class="st1" d="M133.7,73.1c0,0-0.1,0.1-0.2,0.1H132c-0.1,0-0.1,0-0.1,0.1v4.5c0,0.4,0.1,0.7,0.2,0.9s0.4,0.3,0.8,0.2h0.4
		c0.1,0,0.1,0,0.2,0.1c0,0,0.1,0.1,0.1,0.2v1.9c0,0.2-0.1,0.2-0.2,0.2c-0.2,0-0.6,0-1,0c-1.1,0-1.8-0.2-2.4-0.5
		c-0.5-0.3-0.8-1-0.8-2v-5.6c0-0.1,0-0.1-0.1-0.1h-0.9c-0.1,0-0.1,0-0.2-0.1c0,0-0.1-0.1-0.1-0.2v-1.6c0-0.1,0-0.1,0.1-0.2
		c0,0,0.1-0.1,0.2-0.1h0.9c0.1,0,0.1,0,0.1-0.1v-2.3c0-0.1,0-0.1,0.1-0.2c0,0,0.1-0.1,0.2-0.1h2.2c0.1,0,0.1,0,0.2,0.1
		c0,0,0.1,0.1,0.1,0.2V71c0,0.1,0,0.1,0.1,0.1h1.5c0.1,0,0.1,0,0.2,0.1s0.1,0.1,0.1,0.2v1.6C133.8,73,133.8,73.1,133.7,73.1z"/>
	<path class="st1" d="M135.5,69.5c-0.3-0.3-0.4-0.7-0.4-1.1c0-0.5,0.1-0.8,0.4-1.1c0.3-0.3,0.7-0.4,1.1-0.4s0.8,0.1,1.1,0.4
		c0.3,0.3,0.4,0.7,0.4,1.1c0,0.5-0.1,0.8-0.4,1.1c-0.3,0.3-0.7,0.4-1.1,0.4S135.8,69.8,135.5,69.5z M135.3,81.3c0,0-0.1-0.1-0.1-0.2
		v-9.8c0-0.1,0-0.1,0.1-0.2s0.1-0.1,0.2-0.1h2.3c0.1,0,0.1,0,0.2,0.1c0,0,0.1,0.1,0.1,0.2v9.8c0,0.1,0,0.1-0.1,0.2
		c0,0-0.1,0.1-0.2,0.1h-2.3C135.4,81.3,135.4,81.3,135.3,81.3z"/>
	<path class="st1" d="M148.2,76.1l0,0.8c0,0.2-0.1,0.2-0.2,0.2h-5.3c-0.1,0-0.1,0-0.1,0.1c0,0.3,0.1,0.5,0.1,0.7
		c0.1,0.4,0.2,0.7,0.5,0.9c0.3,0.2,0.6,0.3,1,0.3c0.7,0,1.1-0.3,1.4-0.9c0.1-0.1,0.2-0.2,0.3-0.2l2.1,0.4c0.2,0,0.2,0.1,0.2,0.3
		c-0.3,0.9-0.8,1.6-1.5,2s-1.5,0.7-2.5,0.7c-1.2,0-2.1-0.3-2.8-0.8s-1.2-1.3-1.4-2.3c-0.1-0.5-0.2-1.4-0.2-2.5c0-0.6,0-1.2,0.1-1.6
		c0.1-1,0.6-1.8,1.3-2.4c0.7-0.6,1.7-0.9,2.8-0.9c1.2,0,2.2,0.3,3,1c0.8,0.7,1.2,1.6,1.3,2.7C148.2,75.1,148.2,75.6,148.2,76.1z
		 M143.1,73.6c-0.2,0.2-0.4,0.5-0.4,0.9c0,0.2-0.1,0.5-0.1,0.8c0,0.1,0,0.1,0.1,0.1h2.6c0.1,0,0.1,0,0.1-0.1c0-0.3,0-0.5-0.1-0.8
		c-0.1-0.4-0.2-0.6-0.4-0.9c-0.2-0.2-0.5-0.3-0.9-0.3S143.3,73.4,143.1,73.6z"/>
	<path class="st1" d="M157.1,71.8c0.6,0.6,0.8,1.5,0.8,2.6v6.7c0,0.1,0,0.1-0.1,0.2c0,0-0.1,0.1-0.2,0.1h-2.3c-0.1,0-0.1,0-0.2-0.1
		c0,0-0.1-0.1-0.1-0.2v-6.3c0-0.5-0.1-0.8-0.3-1.1c-0.2-0.3-0.5-0.4-0.9-0.4c-0.4,0-0.7,0.1-1,0.4c-0.2,0.3-0.3,0.6-0.3,1.1v6.3
		c0,0.1,0,0.1-0.1,0.2c0,0-0.1,0.1-0.2,0.1H150c-0.1,0-0.1,0-0.2-0.1c0,0-0.1-0.1-0.1-0.2v-9.8c0-0.1,0-0.1,0.1-0.2
		c0,0,0.1-0.1,0.2-0.1h2.3c0.1,0,0.1,0,0.2,0.1s0.1,0.1,0.1,0.2v0.6c0,0,0,0.1,0,0.1s0.1,0,0.1-0.1c0.5-0.6,1.2-1,2.1-1
		C155.8,70.9,156.6,71.2,157.1,71.8z"/>
	<path class="st1" d="M165.2,67.4c0,0,0.1-0.1,0.2-0.1h2.3c0.1,0,0.1,0,0.2,0.1s0.1,0.1,0.1,0.2v13.5c0,0.1,0,0.1-0.1,0.2
		c0,0-0.1,0.1-0.2,0.1h-2.3c-0.1,0-0.1,0-0.2-0.1c0,0-0.1-0.1-0.1-0.2v-0.4c0,0,0-0.1,0-0.1s-0.1,0-0.1,0c-0.5,0.6-1.2,0.9-2.1,0.9
		c-1.6,0-2.7-1.1-3.1-3.2c-0.1-0.7-0.2-1.4-0.2-2.2c0-0.7,0.1-1.4,0.2-2.1c0.4-2.1,1.5-3.1,3.2-3.1c0.5,0,0.9,0.1,1.2,0.2
		s0.6,0.3,0.9,0.7c0,0,0.1,0.1,0.1,0c0,0,0,0,0-0.1v-4.1C165.2,67.5,165.2,67.5,165.2,67.4z M165.1,76.2c0-0.7-0.1-1.3-0.2-1.8
		c-0.2-0.7-0.6-1.1-1.2-1.1c-0.3,0-0.6,0.1-0.8,0.3c-0.2,0.2-0.3,0.5-0.4,0.8c-0.1,0.4-0.2,1-0.2,1.8c0,0.8,0,1.3,0.1,1.7
		c0.2,0.8,0.6,1.2,1.2,1.2c0.6,0,1-0.4,1.2-1.2C165.1,77.5,165.1,77,165.1,76.2z"/>
	<path class="st1" d="M178.1,76.1l0,0.8c0,0.2-0.1,0.2-0.2,0.2h-5.3c-0.1,0-0.1,0-0.1,0.1c0,0.3,0.1,0.5,0.1,0.7
		c0.1,0.4,0.2,0.7,0.5,0.9c0.3,0.2,0.6,0.3,1,0.3c0.7,0,1.1-0.3,1.4-0.9c0.1-0.1,0.2-0.2,0.3-0.2l2.1,0.4c0.2,0,0.2,0.1,0.2,0.3
		c-0.3,0.9-0.8,1.6-1.5,2s-1.5,0.7-2.5,0.7c-1.2,0-2.1-0.3-2.8-0.8c-0.7-0.5-1.2-1.3-1.4-2.3c-0.1-0.5-0.2-1.4-0.2-2.5
		c0-0.6,0-1.2,0.1-1.6c0.1-1,0.6-1.8,1.3-2.4c0.7-0.6,1.7-0.9,2.8-0.9c1.2,0,2.2,0.3,3,1c0.8,0.7,1.2,1.6,1.3,2.7
		C178.1,75.1,178.1,75.6,178.1,76.1z M172.9,73.6c-0.2,0.2-0.4,0.5-0.5,0.9c0,0.2-0.1,0.5-0.1,0.8c0,0.1,0,0.1,0.1,0.1h2.6
		c0.1,0,0.1,0,0.1-0.1c0-0.3,0-0.5-0.1-0.8c-0.1-0.4-0.2-0.6-0.4-0.9c-0.2-0.2-0.5-0.3-0.9-0.3S173.2,73.4,172.9,73.6z"/>
	<path class="st1" d="M187,71.8c0.6,0.6,0.8,1.5,0.8,2.6v6.7c0,0.1,0,0.1-0.1,0.2c0,0-0.1,0.1-0.2,0.1h-2.3c-0.1,0-0.1,0-0.2-0.1
		c0,0-0.1-0.1-0.1-0.2v-6.3c0-0.5-0.1-0.8-0.3-1.1c-0.2-0.3-0.5-0.4-0.9-0.4c-0.4,0-0.7,0.1-0.9,0.4c-0.2,0.3-0.4,0.6-0.4,1.1v6.3
		c0,0.1,0,0.1-0.1,0.2c0,0-0.1,0.1-0.2,0.1h-2.3c-0.1,0-0.1,0-0.2-0.1c0,0-0.1-0.1-0.1-0.2v-9.8c0-0.1,0-0.1,0.1-0.2
		s0.1-0.1,0.2-0.1h2.3c0.1,0,0.1,0,0.2,0.1c0,0,0.1,0.1,0.1,0.2v0.6c0,0,0,0.1,0,0.1s0.1,0,0.1-0.1c0.5-0.6,1.2-1,2.1-1
		C185.7,70.9,186.4,71.2,187,71.8z"/>
	<path class="st1" d="M198.9,71.1c0,0,0.1-0.1,0.2-0.1h2.3c0.1,0,0.1,0,0.2,0.1c0,0,0.1,0.1,0.1,0.2v9.8c0,0.1,0,0.1-0.1,0.2
		c0,0-0.1,0.1-0.2,0.1h-2.3c-0.1,0-0.1,0-0.2-0.1c0,0-0.1-0.1-0.1-0.2v-0.5c0,0,0-0.1,0-0.1c0,0-0.1,0-0.1,0
		c-0.5,0.6-1.2,0.9-2.1,0.9c-0.9,0-1.7-0.3-2.2-0.8c-0.6-0.5-0.9-1.4-0.9-2.4v-6.9c0-0.1,0-0.1,0.1-0.2s0.1-0.1,0.2-0.1h2.3
		c0.1,0,0.1,0,0.2,0.1c0,0,0.1,0.1,0.1,0.2v6.3c0,0.5,0.1,0.8,0.3,1.1c0.2,0.3,0.5,0.4,0.9,0.4c0.4,0,0.7-0.1,0.9-0.4
		c0.2-0.3,0.4-0.7,0.4-1.1v-6.2C198.9,71.2,198.9,71.2,198.9,71.1z"/>
	<path class="st1" d="M210.8,71.8c0.6,0.6,0.8,1.5,0.8,2.6v6.7c0,0.1,0,0.1-0.1,0.2c0,0-0.1,0.1-0.2,0.1h-2.3c-0.1,0-0.1,0-0.2-0.1
		c0,0-0.1-0.1-0.1-0.2v-6.3c0-0.5-0.1-0.8-0.3-1.1c-0.2-0.3-0.5-0.4-0.9-0.4c-0.4,0-0.7,0.1-0.9,0.4c-0.2,0.3-0.4,0.6-0.4,1.1v6.3
		c0,0.1,0,0.1-0.1,0.2c0,0-0.1,0.1-0.2,0.1h-2.3c-0.1,0-0.1,0-0.2-0.1c0,0-0.1-0.1-0.1-0.2v-9.8c0-0.1,0-0.1,0.1-0.2
		s0.1-0.1,0.2-0.1h2.3c0.1,0,0.1,0,0.2,0.1c0,0,0.1,0.1,0.1,0.2v0.6c0,0,0,0.1,0,0.1s0.1,0,0.1-0.1c0.5-0.6,1.2-1,2.1-1
		C209.5,70.9,210.3,71.2,210.8,71.8z"/>
	<path class="st1" d="M51.2,104.7c-0.7-0.6-1.2-1.3-1.4-2.3c-0.1-0.5-0.2-1.3-0.2-2.2c0-0.7,0.1-1.4,0.2-2.1c0.2-1,0.6-1.7,1.4-2.3
		c0.7-0.6,1.7-0.9,2.8-0.9c1.1,0,2,0.3,2.7,0.8c0.7,0.5,1.2,1.3,1.4,2.2c0,0.1,0.1,0.3,0.1,0.6c0,0.1-0.1,0.2-0.2,0.3l-2.3,0.2h0
		c-0.1,0-0.2-0.1-0.2-0.2c0-0.1,0-0.2,0-0.2c0-0.1-0.1-0.2-0.1-0.3c-0.1-0.3-0.2-0.5-0.5-0.7c-0.2-0.2-0.5-0.3-0.8-0.3
		c-0.4,0-0.7,0.1-0.9,0.3c-0.2,0.2-0.4,0.5-0.4,0.9c-0.1,0.4-0.1,1-0.1,1.7c0,0.7,0,1.3,0.1,1.7c0.1,0.4,0.2,0.6,0.4,0.9
		c0.2,0.2,0.5,0.3,0.9,0.3c0.4,0,0.7-0.1,0.9-0.3c0.2-0.2,0.4-0.5,0.4-0.8l0-0.2c0-0.1,0-0.1,0.1-0.2c0,0,0.1-0.1,0.2,0l2.3,0.2
		c0.1,0,0.2,0.1,0.2,0.3c0,0.1,0,0.2,0,0.4c-0.1,1-0.6,1.7-1.3,2.3c-0.7,0.6-1.7,0.8-2.8,0.8C52.9,105.5,51.9,105.2,51.2,104.7z"/>
	<path class="st1" d="M60.8,104.6c-0.7-0.6-1.2-1.4-1.3-2.4c-0.1-0.6-0.2-1.3-0.2-2.1c0-0.8,0.1-1.5,0.2-2.1c0.1-1,0.6-1.8,1.3-2.4
		c0.7-0.6,1.7-0.9,2.9-0.9c1.1,0,2.1,0.3,2.8,0.9c0.7,0.6,1.2,1.4,1.3,2.4c0.1,0.6,0.2,1.3,0.2,2.1c0,0.7-0.1,1.4-0.2,2
		c-0.1,1-0.6,1.8-1.3,2.4c-0.7,0.6-1.7,0.9-2.8,0.9S61.6,105.2,60.8,104.6z M64.6,102.7c0.2-0.2,0.4-0.5,0.5-0.9
		c0.1-0.6,0.1-1.1,0.1-1.6c0-0.5,0-1.1-0.1-1.6c-0.1-0.4-0.2-0.7-0.5-0.9c-0.2-0.2-0.6-0.3-0.9-0.3c-0.4,0-0.7,0.1-0.9,0.3
		c-0.2,0.2-0.4,0.5-0.5,0.9c-0.1,0.4-0.1,0.9-0.1,1.6c0,0.7,0,1.2,0.1,1.6c0.1,0.4,0.2,0.7,0.5,0.9c0.3,0.2,0.6,0.3,0.9,0.3
		C64,103.1,64.3,103,64.6,102.7z"/>
	<path class="st1" d="M77,95.8c0.6,0.6,0.8,1.5,0.8,2.6v6.7c0,0.1,0,0.1-0.1,0.2c0,0-0.1,0.1-0.2,0.1h-2.3c-0.1,0-0.1,0-0.2-0.1
		c0,0-0.1-0.1-0.1-0.2v-6.3c0-0.5-0.1-0.8-0.3-1.1c-0.2-0.3-0.5-0.4-0.9-0.4c-0.4,0-0.7,0.1-1,0.4c-0.2,0.3-0.3,0.6-0.3,1.1v6.3
		c0,0.1,0,0.1-0.1,0.2c0,0-0.1,0.1-0.2,0.1h-2.3c-0.1,0-0.1,0-0.2-0.1c0,0-0.1-0.1-0.1-0.2v-9.8c0-0.1,0-0.1,0.1-0.2
		c0,0,0.1-0.1,0.2-0.1h2.3c0.1,0,0.1,0,0.2,0.1s0.1,0.1,0.1,0.2v0.6c0,0,0,0.1,0,0.1s0.1,0,0.1-0.1c0.5-0.6,1.2-1,2.1-1
		C75.7,94.9,76.4,95.2,77,95.8z"/>
	<path class="st1" d="M80.9,104.7c-0.7-0.6-1.2-1.3-1.4-2.3c-0.1-0.5-0.2-1.3-0.2-2.2c0-0.7,0.1-1.4,0.2-2.1c0.2-1,0.6-1.7,1.4-2.3
		c0.7-0.6,1.7-0.9,2.8-0.9c1.1,0,2,0.3,2.7,0.8c0.7,0.5,1.2,1.3,1.4,2.2c0,0.1,0.1,0.3,0.1,0.6c0,0.1-0.1,0.2-0.2,0.3l-2.3,0.2h0
		c-0.1,0-0.2-0.1-0.2-0.2c0-0.1,0-0.2,0-0.2c0-0.1-0.1-0.2-0.1-0.3c-0.1-0.3-0.2-0.5-0.5-0.7c-0.2-0.2-0.5-0.3-0.8-0.3
		c-0.4,0-0.7,0.1-0.9,0.3c-0.2,0.2-0.4,0.5-0.4,0.9c-0.1,0.4-0.1,1-0.1,1.7c0,0.7,0,1.3,0.1,1.7c0.1,0.4,0.2,0.6,0.4,0.9
		c0.2,0.2,0.5,0.3,0.9,0.3c0.4,0,0.7-0.1,0.9-0.3c0.2-0.2,0.4-0.5,0.4-0.8l0-0.2c0-0.1,0-0.1,0.1-0.2c0,0,0.1-0.1,0.2,0l2.3,0.2
		c0.1,0,0.2,0.1,0.2,0.3c0,0.1,0,0.2,0,0.4c-0.1,1-0.6,1.7-1.3,2.3c-0.7,0.6-1.7,0.8-2.8,0.8C82.5,105.5,81.6,105.2,80.9,104.7z"/>
	<path class="st1" d="M97.5,100.1l0,0.8c0,0.2-0.1,0.2-0.2,0.2H92c-0.1,0-0.1,0-0.1,0.1c0,0.3,0.1,0.5,0.1,0.7
		c0.1,0.4,0.2,0.7,0.5,0.9c0.3,0.2,0.6,0.3,1,0.3c0.7,0,1.1-0.3,1.4-0.9c0.1-0.1,0.2-0.2,0.3-0.2l2.1,0.4c0.2,0,0.2,0.1,0.2,0.3
		c-0.3,0.9-0.8,1.6-1.5,2s-1.5,0.7-2.5,0.7c-1.2,0-2.1-0.3-2.8-0.8s-1.2-1.3-1.4-2.3c-0.1-0.5-0.2-1.4-0.2-2.5c0-0.6,0-1.2,0.1-1.6
		c0.1-1,0.6-1.8,1.3-2.4c0.7-0.6,1.7-0.9,2.8-0.9c1.2,0,2.2,0.3,3,1c0.8,0.7,1.2,1.6,1.3,2.7C97.5,99.1,97.5,99.6,97.5,100.1z
		 M92.4,97.6c-0.2,0.2-0.4,0.5-0.4,0.9c0,0.2-0.1,0.5-0.1,0.8c0,0.1,0,0.1,0.1,0.1h2.6c0.1,0,0.1,0,0.1-0.1c0-0.3,0-0.5-0.1-0.8
		c-0.1-0.4-0.2-0.6-0.4-0.9c-0.2-0.2-0.5-0.3-0.9-0.3S92.6,97.4,92.4,97.6z"/>
	<path class="st1" d="M107.5,100.3c0,0.8-0.1,1.5-0.2,2.1c-0.2,1-0.6,1.8-1.1,2.3s-1.2,0.8-2.1,0.8c-0.5,0-0.8-0.1-1.2-0.2
		c-0.3-0.1-0.6-0.3-0.9-0.6c0,0-0.1-0.1-0.1,0c0,0,0,0,0,0.1v4.1c0,0.1,0,0.1-0.1,0.2c0,0-0.1,0.1-0.2,0.1h-2.3
		c-0.1,0-0.1,0-0.2-0.1c0,0-0.1-0.1-0.1-0.2V95.3c0-0.1,0-0.1,0.1-0.2s0.1-0.1,0.2-0.1h2.3c0.1,0,0.1,0,0.2,0.1c0,0,0.1,0.1,0.1,0.2
		v0.4c0,0,0,0.1,0,0.1c0,0,0.1,0,0.1,0c0.5-0.6,1.2-0.9,2.1-0.9c1.6,0,2.7,1.1,3.1,3.2C107.4,98.7,107.5,99.4,107.5,100.3z
		 M104.7,100.2c0-0.7-0.1-1.3-0.2-1.7c-0.1-0.4-0.2-0.6-0.4-0.8c-0.2-0.2-0.5-0.3-0.8-0.3c-0.6,0-1,0.4-1.2,1.2
		c-0.1,0.4-0.2,1-0.2,1.7c0,0.7,0.1,1.3,0.2,1.8c0.2,0.7,0.6,1.1,1.2,1.1c0.6,0,1-0.4,1.2-1.1C104.6,101.6,104.7,101,104.7,100.2z"
		/>
	<path class="st1" d="M114.4,97.1c0,0-0.1,0.1-0.2,0.1h-1.5c-0.1,0-0.1,0-0.1,0.1v4.5c0,0.4,0.1,0.7,0.2,0.9s0.4,0.3,0.8,0.2h0.4
		c0.1,0,0.1,0,0.2,0.1c0,0,0.1,0.1,0.1,0.2v1.9c0,0.2-0.1,0.2-0.2,0.2c-0.2,0-0.6,0-1,0c-1.1,0-1.8-0.2-2.4-0.5
		c-0.5-0.3-0.8-1-0.8-2v-5.6c0-0.1,0-0.1-0.1-0.1h-0.9c-0.1,0-0.1,0-0.2-0.1c0,0-0.1-0.1-0.1-0.2v-1.6c0-0.1,0-0.1,0.1-0.2
		c0,0,0.1-0.1,0.2-0.1h0.9c0.1,0,0.1,0,0.1-0.1v-2.3c0-0.1,0-0.1,0.1-0.2c0,0,0.1-0.1,0.2-0.1h2.2c0.1,0,0.1,0,0.2,0.1
		c0,0,0.1,0.1,0.1,0.2V95c0,0.1,0,0.1,0.1,0.1h1.5c0.1,0,0.1,0,0.2,0.1s0.1,0.1,0.1,0.2v1.6C114.5,97,114.5,97.1,114.4,97.1z"/>
	<path class="st1" d="M117.1,104.6c-0.7-0.6-1.2-1.4-1.3-2.4c-0.1-0.6-0.2-1.3-0.2-2.1c0-0.8,0.1-1.5,0.2-2.1c0.1-1,0.6-1.8,1.3-2.4
		c0.7-0.6,1.7-0.9,2.9-0.9c1.1,0,2.1,0.3,2.8,0.9c0.7,0.6,1.2,1.4,1.3,2.4c0.1,0.6,0.2,1.3,0.2,2.1c0,0.7-0.1,1.4-0.2,2
		c-0.1,1-0.6,1.8-1.3,2.4c-0.7,0.6-1.7,0.9-2.8,0.9S117.8,105.2,117.1,104.6z M120.8,102.7c0.2-0.2,0.4-0.5,0.5-0.9
		c0.1-0.6,0.1-1.1,0.1-1.6c0-0.5,0-1.1-0.1-1.6c-0.1-0.4-0.2-0.7-0.5-0.9c-0.2-0.2-0.6-0.3-0.9-0.3c-0.4,0-0.7,0.1-0.9,0.3
		c-0.2,0.2-0.4,0.5-0.5,0.9c-0.1,0.4-0.1,0.9-0.1,1.6c0,0.7,0,1.2,0.1,1.6c0.1,0.4,0.2,0.7,0.5,0.9c0.3,0.2,0.6,0.3,0.9,0.3
		C120.3,103.1,120.6,103,120.8,102.7z"/>
	<path class="st1" d="M137.2,95.8c0.6,0.6,0.8,1.5,0.8,2.6v6.7c0,0.1,0,0.1-0.1,0.2c0,0-0.1,0.1-0.2,0.1h-2.3c-0.1,0-0.1,0-0.2-0.1
		c0,0-0.1-0.1-0.1-0.2v-6.3c0-0.5-0.1-0.8-0.3-1.1c-0.2-0.3-0.5-0.4-0.9-0.4c-0.4,0-0.7,0.1-1,0.4c-0.2,0.3-0.3,0.6-0.3,1.1v6.3
		c0,0.1,0,0.1-0.1,0.2c0,0-0.1,0.1-0.2,0.1h-2.3c-0.1,0-0.1,0-0.2-0.1c0,0-0.1-0.1-0.1-0.2v-9.8c0-0.1,0-0.1,0.1-0.2
		c0,0,0.1-0.1,0.2-0.1h2.3c0.1,0,0.1,0,0.2,0.1s0.1,0.1,0.1,0.2v0.6c0,0,0,0.1,0,0.1s0.1,0,0.1-0.1c0.5-0.6,1.2-1,2.1-1
		C135.9,94.9,136.7,95.2,137.2,95.8z"/>
	<path class="st1" d="M145.2,95.1c0,0,0.1-0.1,0.2-0.1h2.3c0.1,0,0.1,0,0.2,0.1c0,0,0.1,0.1,0.1,0.2v9.8c0,0.1,0,0.1-0.1,0.2
		c0,0-0.1,0.1-0.2,0.1h-2.3c-0.1,0-0.1,0-0.2-0.1c0,0-0.1-0.1-0.1-0.2v-0.5c0,0,0-0.1,0-0.1c0,0-0.1,0-0.1,0
		c-0.5,0.6-1.2,0.9-2.1,0.9c-0.9,0-1.7-0.3-2.2-0.8c-0.6-0.5-0.9-1.4-0.9-2.4v-6.9c0-0.1,0-0.1,0.1-0.2c0,0,0.1-0.1,0.2-0.1h2.3
		c0.1,0,0.1,0,0.2,0.1s0.1,0.1,0.1,0.2v6.3c0,0.5,0.1,0.8,0.3,1.1c0.2,0.3,0.5,0.4,0.9,0.4s0.7-0.1,1-0.4c0.2-0.3,0.4-0.7,0.4-1.1
		v-6.2C145.1,95.2,145.1,95.2,145.2,95.1z"/>
	<path class="st1" d="M158.1,100.1l0,0.8c0,0.2-0.1,0.2-0.2,0.2h-5.3c-0.1,0-0.1,0-0.1,0.1c0,0.3,0.1,0.5,0.1,0.7
		c0.1,0.4,0.2,0.7,0.5,0.9c0.3,0.2,0.6,0.3,1,0.3c0.7,0,1.1-0.3,1.4-0.9c0.1-0.1,0.2-0.2,0.3-0.2l2.1,0.4c0.2,0,0.2,0.1,0.2,0.3
		c-0.3,0.9-0.8,1.6-1.5,2c-0.7,0.5-1.5,0.7-2.5,0.7c-1.2,0-2.1-0.3-2.8-0.8s-1.2-1.3-1.4-2.3c-0.1-0.5-0.2-1.4-0.2-2.5
		c0-0.6,0-1.2,0.1-1.6c0.1-1,0.6-1.8,1.3-2.4c0.7-0.6,1.7-0.9,2.8-0.9c1.2,0,2.2,0.3,3,1c0.8,0.7,1.2,1.6,1.3,2.7
		C158,99.1,158.1,99.6,158.1,100.1z M152.9,97.6c-0.2,0.2-0.4,0.5-0.4,0.9c0,0.2-0.1,0.5-0.1,0.8c0,0.1,0,0.1,0.1,0.1h2.6
		c0.1,0,0.1,0,0.1-0.1c0-0.3,0-0.5-0.1-0.8c-0.1-0.4-0.2-0.6-0.4-0.9c-0.2-0.2-0.5-0.3-0.9-0.3S153.1,97.4,152.9,97.6z"/>
	<path class="st1" d="M161.5,105.1l-2.8-9.8l0-0.1c0-0.1,0.1-0.2,0.2-0.2h2.6c0.1,0,0.2,0.1,0.3,0.2l1.3,6c0,0.1,0,0.1,0.1,0.1
		c0,0,0,0,0.1-0.1l1.3-6c0-0.1,0.1-0.2,0.3-0.2l2.6,0c0.2,0,0.2,0.1,0.2,0.3l-2.8,9.8c0,0.1-0.1,0.2-0.3,0.2h-2.6
		C161.6,105.3,161.5,105.3,161.5,105.1z"/>
	<path class="st1" d="M169.5,104.6c-0.7-0.6-1.2-1.4-1.3-2.4c-0.1-0.6-0.2-1.3-0.2-2.1c0-0.8,0.1-1.5,0.2-2.1c0.1-1,0.6-1.8,1.3-2.4
		c0.7-0.6,1.7-0.9,2.8-0.9c1.1,0,2.1,0.3,2.8,0.9s1.2,1.4,1.3,2.4c0.1,0.6,0.2,1.3,0.2,2.1c0,0.7-0.1,1.4-0.2,2
		c-0.1,1-0.6,1.8-1.3,2.4s-1.7,0.9-2.8,0.9S170.2,105.2,169.5,104.6z M173.2,102.7c0.2-0.2,0.4-0.5,0.5-0.9c0.1-0.6,0.1-1.1,0.1-1.6
		c0-0.5,0-1.1-0.1-1.6c-0.1-0.4-0.2-0.7-0.5-0.9c-0.2-0.2-0.6-0.3-0.9-0.3c-0.4,0-0.7,0.1-0.9,0.3c-0.2,0.2-0.4,0.5-0.5,0.9
		c-0.1,0.4-0.1,0.9-0.1,1.6c0,0.7,0,1.2,0.1,1.6c0.1,0.4,0.2,0.7,0.5,0.9c0.3,0.2,0.6,0.3,0.9,0.3C172.7,103.1,173,103,173.2,102.7z
		"/>
	<path class="st1" d="M182.3,105.3c0,0-0.1-0.1-0.1-0.2V91.6c0-0.1,0-0.1,0.1-0.2s0.1-0.1,0.2-0.1h2.3c0.1,0,0.1,0,0.2,0.1
		c0,0,0.1,0.1,0.1,0.2v13.5c0,0.1,0,0.1-0.1,0.2c0,0-0.1,0.1-0.2,0.1h-2.3C182.4,105.3,182.4,105.3,182.3,105.3z"/>
	<path class="st1" d="M188.1,104.6c-0.7-0.6-1.2-1.4-1.3-2.4c-0.1-0.6-0.2-1.3-0.2-2.1c0-0.8,0.1-1.5,0.2-2.1c0.1-1,0.6-1.8,1.3-2.4
		c0.7-0.6,1.7-0.9,2.8-0.9c1.1,0,2.1,0.3,2.8,0.9s1.2,1.4,1.3,2.4c0.1,0.6,0.2,1.3,0.2,2.1c0,0.7-0.1,1.4-0.2,2
		c-0.1,1-0.6,1.8-1.3,2.4s-1.7,0.9-2.8,0.9S188.8,105.2,188.1,104.6z M191.8,102.7c0.2-0.2,0.4-0.5,0.5-0.9c0.1-0.6,0.1-1.1,0.1-1.6
		c0-0.5,0-1.1-0.1-1.6c-0.1-0.4-0.2-0.7-0.5-0.9c-0.2-0.2-0.6-0.3-0.9-0.3c-0.4,0-0.7,0.1-0.9,0.3c-0.2,0.2-0.4,0.5-0.5,0.9
		c-0.1,0.4-0.1,0.9-0.1,1.6c0,0.7,0,1.2,0.1,1.6c0.1,0.4,0.2,0.7,0.5,0.9c0.3,0.2,0.6,0.3,0.9,0.3
		C191.3,103.1,191.6,103,191.8,102.7z"/>
	<path class="st1" d="M197.7,104.7c-0.7-0.5-1.1-1.3-1.1-2.2v-0.2c0-0.1,0-0.1,0.1-0.2s0.1-0.1,0.2-0.1h2.2c0.1,0,0.1,0,0.2,0.1
		s0.1,0.1,0.1,0.2v0c0,0.3,0.1,0.5,0.4,0.7c0.3,0.2,0.6,0.3,1,0.3c0.4,0,0.6-0.1,0.9-0.2c0.2-0.2,0.3-0.4,0.3-0.6s-0.1-0.4-0.3-0.6
		c-0.2-0.1-0.6-0.3-1.1-0.5c-0.2-0.1-0.5-0.2-1-0.3c-0.8-0.3-1.5-0.6-2-1.1c-0.5-0.5-0.8-1.1-0.8-2c0-1,0.4-1.7,1.1-2.3
		s1.6-0.9,2.8-0.9c1.2,0,2.2,0.3,2.9,0.9c0.7,0.6,1.1,1.4,1.1,2.4c0,0.1-0.1,0.2-0.2,0.2h-2.2c-0.1,0-0.1,0-0.2-0.1
		s-0.1-0.1-0.1-0.2v-0.1c0-0.3-0.1-0.5-0.3-0.7c-0.2-0.2-0.5-0.3-0.9-0.3c-0.4,0-0.6,0.1-0.9,0.3c-0.2,0.2-0.3,0.4-0.3,0.6
		c0,0.3,0.1,0.5,0.4,0.7s0.7,0.3,1.2,0.5c0.1,0,0.2,0.1,0.4,0.1s0.2,0.1,0.3,0.1c0.9,0.3,1.6,0.7,2.2,1.1c0.5,0.4,0.8,1.1,0.8,1.9
		c0,1-0.4,1.7-1.1,2.3s-1.7,0.8-2.9,0.8C199.4,105.5,198.4,105.2,197.7,104.7z"/>
	<path class="st1" d="M58.2,124.1l0,0.8c0,0.2-0.1,0.2-0.2,0.2h-5.3c-0.1,0-0.1,0-0.1,0.1c0,0.3,0.1,0.5,0.1,0.7
		c0.1,0.4,0.2,0.7,0.5,0.9c0.3,0.2,0.6,0.3,1,0.3c0.7,0,1.1-0.3,1.4-0.9c0.1-0.1,0.2-0.2,0.3-0.2l2.1,0.4c0.2,0,0.2,0.1,0.2,0.3
		c-0.3,0.9-0.8,1.6-1.5,2s-1.5,0.7-2.5,0.7c-1.2,0-2.1-0.3-2.8-0.8s-1.2-1.3-1.4-2.3c-0.1-0.5-0.2-1.4-0.2-2.5c0-0.6,0-1.2,0.1-1.6
		c0.1-1,0.6-1.8,1.3-2.4c0.7-0.6,1.7-0.9,2.8-0.9c1.2,0,2.2,0.3,3,1c0.8,0.7,1.2,1.6,1.3,2.7C58.2,123.1,58.2,123.6,58.2,124.1z
		 M53.1,121.6c-0.2,0.2-0.4,0.5-0.4,0.9c0,0.2-0.1,0.5-0.1,0.8c0,0.1,0,0.1,0.1,0.1h2.6c0.1,0,0.1,0,0.1-0.1c0-0.3,0-0.5-0.1-0.8
		c-0.1-0.4-0.2-0.6-0.4-0.9c-0.2-0.2-0.5-0.3-0.9-0.3S53.3,121.4,53.1,121.6z"/>
	<path class="st1" d="M60.5,128.7c-0.7-0.5-1.1-1.3-1.1-2.2v-0.2c0-0.1,0-0.1,0.1-0.2s0.1-0.1,0.2-0.1h2.2c0.1,0,0.1,0,0.2,0.1
		c0,0,0.1,0.1,0.1,0.2v0c0,0.3,0.1,0.5,0.4,0.7c0.3,0.2,0.6,0.3,1,0.3c0.4,0,0.6-0.1,0.9-0.2c0.2-0.2,0.3-0.4,0.3-0.6
		s-0.1-0.4-0.3-0.6c-0.2-0.1-0.6-0.3-1.1-0.5c-0.2-0.1-0.5-0.2-1-0.3c-0.8-0.3-1.4-0.6-1.9-1.1c-0.5-0.5-0.8-1.1-0.8-2
		c0-1,0.4-1.7,1.1-2.3c0.7-0.6,1.6-0.9,2.8-0.9c1.2,0,2.2,0.3,2.9,0.9c0.7,0.6,1.1,1.4,1.1,2.4c0,0.1-0.1,0.2-0.2,0.2h-2.2
		c-0.1,0-0.1,0-0.2-0.1c0,0-0.1-0.1-0.1-0.2v-0.1c0-0.3-0.1-0.5-0.3-0.7c-0.2-0.2-0.5-0.3-0.9-0.3c-0.4,0-0.6,0.1-0.9,0.3
		c-0.2,0.2-0.3,0.4-0.3,0.6c0,0.3,0.1,0.5,0.4,0.7s0.7,0.3,1.2,0.5c0.1,0,0.2,0.1,0.4,0.1c0.1,0,0.2,0.1,0.3,0.1
		c0.9,0.3,1.6,0.7,2.2,1.1c0.5,0.4,0.8,1.1,0.8,1.9c0,1-0.4,1.7-1.1,2.3s-1.7,0.8-2.9,0.8C62.2,129.5,61.2,129.2,60.5,128.7z"/>
	<path class="st1" d="M74,121.1c0,0-0.1,0.1-0.2,0.1h-1.5c-0.1,0-0.1,0-0.1,0.1v4.5c0,0.4,0.1,0.7,0.2,0.9s0.4,0.3,0.8,0.2h0.4
		c0.1,0,0.1,0,0.2,0.1c0,0,0.1,0.1,0.1,0.2v1.9c0,0.2-0.1,0.2-0.2,0.2c-0.2,0-0.6,0-1,0c-1.1,0-1.8-0.2-2.4-0.5
		c-0.5-0.3-0.8-1-0.8-2v-5.6c0-0.1,0-0.1-0.1-0.1h-0.9c-0.1,0-0.1,0-0.2-0.1c0,0-0.1-0.1-0.1-0.2v-1.6c0-0.1,0-0.1,0.1-0.2
		c0,0,0.1-0.1,0.2-0.1h0.9c0.1,0,0.1,0,0.1-0.1v-2.3c0-0.1,0-0.1,0.1-0.2c0,0,0.1-0.1,0.2-0.1H72c0.1,0,0.1,0,0.2,0.1
		c0,0,0.1,0.1,0.1,0.2v2.3c0,0.1,0,0.1,0.1,0.1h1.5c0.1,0,0.1,0,0.2,0.1s0.1,0.1,0.1,0.2v1.6C74.1,121,74.1,121.1,74,121.1z"/>
	<path class="st1" d="M80.8,119.1c0,0,0.1-0.1,0.2-0.1h2.3c0.1,0,0.1,0,0.2,0.1c0,0,0.1,0.1,0.1,0.2v9.8c0,0.1,0,0.1-0.1,0.2
		c0,0-0.1,0.1-0.2,0.1H81c-0.1,0-0.1,0-0.2-0.1c0,0-0.1-0.1-0.1-0.2v-0.5c0,0,0-0.1,0-0.1c0,0-0.1,0-0.1,0c-0.5,0.6-1.2,0.9-2.1,0.9
		c-0.9,0-1.7-0.3-2.2-0.8c-0.6-0.5-0.9-1.4-0.9-2.4v-6.9c0-0.1,0-0.1,0.1-0.2c0,0,0.1-0.1,0.2-0.1H78c0.1,0,0.1,0,0.2,0.1
		s0.1,0.1,0.1,0.2v6.3c0,0.5,0.1,0.8,0.3,1.1c0.2,0.3,0.5,0.4,0.9,0.4s0.7-0.1,1-0.4c0.2-0.3,0.4-0.7,0.4-1.1v-6.2
		C80.8,119.2,80.8,119.2,80.8,119.1z"/>
	<path class="st1" d="M90.9,115.4c0,0,0.1-0.1,0.2-0.1h2.3c0.1,0,0.1,0,0.2,0.1s0.1,0.1,0.1,0.2v13.5c0,0.1,0,0.1-0.1,0.2
		c0,0-0.1,0.1-0.2,0.1h-2.3c-0.1,0-0.1,0-0.2-0.1c0,0-0.1-0.1-0.1-0.2v-0.4c0,0,0-0.1,0-0.1s-0.1,0-0.1,0c-0.5,0.6-1.2,0.9-2.1,0.9
		c-1.6,0-2.7-1.1-3.1-3.2c-0.1-0.7-0.2-1.4-0.2-2.2c0-0.7,0.1-1.4,0.2-2.1c0.4-2.1,1.5-3.1,3.2-3.1c0.5,0,0.9,0.1,1.2,0.2
		c0.3,0.1,0.6,0.3,0.9,0.7c0,0,0.1,0.1,0.1,0c0,0,0,0,0-0.1v-4.1C90.9,115.5,90.9,115.5,90.9,115.4z M90.9,124.2
		c0-0.7-0.1-1.3-0.2-1.8c-0.2-0.7-0.6-1.1-1.2-1.1c-0.3,0-0.6,0.1-0.8,0.3c-0.2,0.2-0.3,0.5-0.4,0.8c-0.1,0.4-0.2,1-0.2,1.8
		c0,0.8,0,1.3,0.1,1.7c0.2,0.8,0.6,1.2,1.2,1.2c0.6,0,1-0.4,1.2-1.2C90.8,125.5,90.9,125,90.9,124.2z"/>
	<path class="st1" d="M95.8,117.5c-0.3-0.3-0.4-0.7-0.4-1.1c0-0.5,0.1-0.8,0.4-1.1c0.3-0.3,0.7-0.4,1.1-0.4s0.8,0.1,1.1,0.4
		c0.3,0.3,0.4,0.7,0.4,1.1c0,0.5-0.1,0.8-0.4,1.1c-0.3,0.3-0.7,0.4-1.1,0.4S96.1,117.8,95.8,117.5z M95.6,129.3c0,0-0.1-0.1-0.1-0.2
		v-9.8c0-0.1,0-0.1,0.1-0.2s0.1-0.1,0.2-0.1h2.3c0.1,0,0.1,0,0.2,0.1c0,0,0.1,0.1,0.1,0.2v9.8c0,0.1,0,0.1-0.1,0.2
		c0,0-0.1,0.1-0.2,0.1h-2.3C95.7,129.3,95.7,129.3,95.6,129.3z"/>
	<path class="st1" d="M106.3,119.3c0.6,0.3,1.1,0.7,1.5,1.2c0.4,0.5,0.5,1.1,0.5,1.8v6.8c0,0.1,0,0.1-0.1,0.2c0,0-0.1,0.1-0.2,0.1
		h-2.3c-0.1,0-0.1,0-0.2-0.1c0,0-0.1-0.1-0.1-0.2v-0.6c0,0,0-0.1,0-0.1c0,0-0.1,0-0.1,0c-0.5,0.7-1.3,1-2.4,1
		c-0.9,0-1.7-0.2-2.3-0.7c-0.6-0.5-0.9-1.2-0.9-2.3c0-2.2,1.4-3.3,4.1-3.3h1.5c0.1,0,0.1,0,0.1-0.1v-0.5c0-0.4-0.1-0.7-0.4-1
		c-0.2-0.2-0.5-0.4-1-0.4c-0.3,0-0.6,0.1-0.8,0.2c-0.2,0.1-0.3,0.3-0.4,0.6c0,0.1-0.1,0.2-0.3,0.2l-2.4-0.1c-0.1,0-0.1,0-0.2-0.1
		c0,0-0.1-0.1,0-0.2c0.1-0.9,0.5-1.7,1.2-2.2c0.8-0.6,1.7-0.9,2.8-0.9C105,118.9,105.7,119,106.3,119.3z M105,127
		c0.3-0.3,0.5-0.6,0.5-1v-0.8c0-0.1,0-0.1-0.1-0.1h-1.1c-0.5,0-0.9,0.1-1.2,0.3c-0.3,0.2-0.4,0.5-0.4,0.9c0,0.3,0.1,0.6,0.3,0.8
		c0.2,0.2,0.5,0.3,0.8,0.3C104.3,127.4,104.7,127.2,105,127z"/>
	<path class="st1" d="M117.3,119.8c0.6,0.6,0.8,1.5,0.8,2.6v6.7c0,0.1,0,0.1-0.1,0.2c0,0-0.1,0.1-0.2,0.1h-2.3c-0.1,0-0.1,0-0.2-0.1
		c0,0-0.1-0.1-0.1-0.2v-6.3c0-0.5-0.1-0.8-0.3-1.1c-0.2-0.3-0.5-0.4-0.9-0.4c-0.4,0-0.7,0.1-1,0.4c-0.2,0.3-0.3,0.6-0.3,1.1v6.3
		c0,0.1,0,0.1-0.1,0.2c0,0-0.1,0.1-0.2,0.1h-2.3c-0.1,0-0.1,0-0.2-0.1c0,0-0.1-0.1-0.1-0.2v-9.8c0-0.1,0-0.1,0.1-0.2
		c0,0,0.1-0.1,0.2-0.1h2.3c0.1,0,0.1,0,0.2,0.1s0.1,0.1,0.1,0.2v0.6c0,0,0,0.1,0,0.1s0.1,0,0.1-0.1c0.5-0.6,1.2-1,2.1-1
		C116,118.9,116.8,119.2,117.3,119.8z"/>
	<path class="st1" d="M125.1,121.1c0,0-0.1,0.1-0.2,0.1h-1.5c-0.1,0-0.1,0-0.1,0.1v4.5c0,0.4,0.1,0.7,0.2,0.9s0.4,0.3,0.8,0.2h0.4
		c0.1,0,0.1,0,0.2,0.1c0,0,0.1,0.1,0.1,0.2v1.9c0,0.2-0.1,0.2-0.2,0.2c-0.2,0-0.6,0-1,0c-1.1,0-1.8-0.2-2.4-0.5
		c-0.5-0.3-0.8-1-0.8-2v-5.6c0-0.1,0-0.1-0.1-0.1h-0.9c-0.1,0-0.1,0-0.2-0.1c0,0-0.1-0.1-0.1-0.2v-1.6c0-0.1,0-0.1,0.1-0.2
		c0,0,0.1-0.1,0.2-0.1h0.9c0.1,0,0.1,0,0.1-0.1v-2.3c0-0.1,0-0.1,0.1-0.2c0,0,0.1-0.1,0.2-0.1h2.2c0.1,0,0.1,0,0.2,0.1
		c0,0,0.1,0.1,0.1,0.2v2.3c0,0.1,0,0.1,0.1,0.1h1.5c0.1,0,0.1,0,0.2,0.1s0.1,0.1,0.1,0.2v1.6C125.2,121,125.2,121.1,125.1,121.1z"/>
	<path class="st1" d="M134.9,124.1l0,0.8c0,0.2-0.1,0.2-0.2,0.2h-5.3c-0.1,0-0.1,0-0.1,0.1c0,0.3,0.1,0.5,0.1,0.7
		c0.1,0.4,0.2,0.7,0.5,0.9c0.3,0.2,0.6,0.3,1,0.3c0.7,0,1.1-0.3,1.4-0.9c0.1-0.1,0.2-0.2,0.3-0.2l2.1,0.4c0.2,0,0.2,0.1,0.2,0.3
		c-0.3,0.9-0.8,1.6-1.5,2s-1.5,0.7-2.5,0.7c-1.2,0-2.1-0.3-2.8-0.8s-1.2-1.3-1.4-2.3c-0.1-0.5-0.2-1.4-0.2-2.5c0-0.6,0-1.2,0.1-1.6
		c0.1-1,0.6-1.8,1.3-2.4c0.7-0.6,1.7-0.9,2.8-0.9c1.2,0,2.2,0.3,3,1c0.8,0.7,1.2,1.6,1.3,2.7C134.8,123.1,134.9,123.6,134.9,124.1z
		 M129.7,121.6c-0.2,0.2-0.4,0.5-0.4,0.9c0,0.2-0.1,0.5-0.1,0.8c0,0.1,0,0.1,0.1,0.1h2.6c0.1,0,0.1,0,0.1-0.1c0-0.3,0-0.5-0.1-0.8
		c-0.1-0.4-0.2-0.6-0.4-0.9c-0.2-0.2-0.5-0.3-0.9-0.3S129.9,121.4,129.7,121.6z"/>
	<path class="st1" d="M137.1,128.7c-0.7-0.5-1.1-1.3-1.1-2.2v-0.2c0-0.1,0-0.1,0.1-0.2s0.1-0.1,0.2-0.1h2.2c0.1,0,0.1,0,0.2,0.1
		c0,0,0.1,0.1,0.1,0.2v0c0,0.3,0.1,0.5,0.4,0.7c0.3,0.2,0.6,0.3,1,0.3c0.4,0,0.6-0.1,0.9-0.2c0.2-0.2,0.3-0.4,0.3-0.6
		s-0.1-0.4-0.3-0.6c-0.2-0.1-0.6-0.3-1.1-0.5c-0.2-0.1-0.5-0.2-1-0.3c-0.8-0.3-1.4-0.6-1.9-1.1c-0.5-0.5-0.8-1.1-0.8-2
		c0-1,0.4-1.7,1.1-2.3c0.7-0.6,1.6-0.9,2.8-0.9c1.2,0,2.2,0.3,2.9,0.9c0.7,0.6,1.1,1.4,1.1,2.4c0,0.1-0.1,0.2-0.2,0.2h-2.2
		c-0.1,0-0.1,0-0.2-0.1c0,0-0.1-0.1-0.1-0.2v-0.1c0-0.3-0.1-0.5-0.3-0.7c-0.2-0.2-0.5-0.3-0.9-0.3c-0.4,0-0.6,0.1-0.9,0.3
		c-0.2,0.2-0.3,0.4-0.3,0.6c0,0.3,0.1,0.5,0.4,0.7s0.7,0.3,1.2,0.5c0.1,0,0.2,0.1,0.4,0.1c0.1,0,0.2,0.1,0.3,0.1
		c0.9,0.3,1.6,0.7,2.2,1.1c0.5,0.4,0.8,1.1,0.8,1.9c0,1-0.4,1.7-1.1,2.3s-1.7,0.8-2.9,0.8C138.8,129.5,137.8,129.2,137.1,128.7z"/>
	<path class="st1" d="M147.7,124.8c0,0-0.1-0.1-0.1-0.2V124c0-0.7,0.2-1.2,0.5-1.6c0.3-0.4,0.8-0.8,1.3-1.3c0.5-0.4,0.8-0.7,1-1
		c0.2-0.3,0.3-0.6,0.3-1c0-0.4-0.1-0.8-0.4-1c-0.3-0.3-0.6-0.4-1.1-0.4c-0.5,0-0.8,0.1-1.1,0.4c-0.3,0.3-0.4,0.6-0.4,1.1v0.3
		c0,0.1-0.1,0.2-0.2,0.2l-2.3-0.1c-0.1,0-0.1,0-0.2-0.1s-0.1-0.1-0.1-0.2v-0.2c0-0.8,0.2-1.5,0.6-2.1c0.4-0.6,0.9-1.1,1.6-1.4
		c0.7-0.3,1.4-0.5,2.3-0.5c1.3,0,2.3,0.4,3.1,1.1c0.8,0.7,1.1,1.7,1.1,2.8c0,0.6-0.1,1.1-0.3,1.5s-0.4,0.8-0.7,1
		c-0.3,0.3-0.6,0.6-1,0.9c-0.4,0.3-0.8,0.6-1,0.9c-0.2,0.2-0.3,0.5-0.3,0.9v0.5c0,0.1,0,0.1-0.1,0.2c0,0-0.1,0.1-0.2,0.1h-2.3
		C147.8,124.9,147.7,124.9,147.7,124.8z M147.8,128.9c-0.3-0.3-0.5-0.7-0.5-1.1s0.1-0.8,0.4-1.1c0.3-0.3,0.7-0.4,1.1-0.4
		s0.8,0.1,1.1,0.4c0.3,0.3,0.4,0.7,0.4,1.1s-0.1,0.8-0.5,1.1c-0.3,0.3-0.7,0.5-1.1,0.5C148.5,129.4,148.1,129.2,147.8,128.9z"/>
</g>
</svg>
