<?xml version="1.0" encoding="utf-8"?>
<!-- Generator: Adobe Illustrator 22.1.0, SVG Export Plug-In . SVG Version: 6.00 Build 0)  -->
<svg version="1.1" id="Capa_1" xmlns="http://www.w3.org/2000/svg" xmlns:xlink="http://www.w3.org/1999/xlink" x="0px" y="0px"
	 viewBox="0 0 306 198" style="enable-background:new 0 0 306 198;" xml:space="preserve">
<style type="text/css">
	.st0{fill:#00B6ED;}
	.st1{enable-background:new    ;}
	.st2{fill:#FFFFFF;}
</style>
<title>Recurso 1</title>
<g id="Capa_2_1_">
	<g id="Capa_1-2">
		<rect class="st0" width="306" height="198"/>
		<g class="st1">
			<path class="st2" d="M55.1,76c0,0,0.1,0.1,0.1,0.2v0.6c0,0.7-0.2,1.2-0.5,1.6s-0.8,0.8-1.5,1.3c-0.5,0.4-0.9,0.7-1.2,1
				c-0.3,0.3-0.4,0.6-0.4,1c0,0.4,0.2,0.8,0.5,1c0.3,0.3,0.7,0.4,1.3,0.4c0.6,0,1-0.1,1.3-0.4c0.3-0.3,0.5-0.6,0.5-1.1v-0.3
				c0-0.1,0.1-0.2,0.2-0.2l2.3,0.1c0.1,0,0.1,0,0.2,0.1c0,0,0.1,0.1,0.1,0.2v0.2c0,0.8-0.2,1.5-0.6,2.1c-0.4,0.6-1,1.1-1.7,1.4
				c-0.7,0.3-1.5,0.5-2.5,0.5c-0.9,0-1.7-0.2-2.4-0.5c-0.7-0.3-1.2-0.8-1.6-1.4c-0.4-0.6-0.6-1.3-0.6-2c0-0.6,0.1-1.1,0.3-1.5
				c0.2-0.4,0.5-0.8,0.8-1c0.3-0.3,0.7-0.6,1.1-0.9c0.5-0.3,0.8-0.6,1.1-0.9c0.2-0.2,0.3-0.5,0.3-0.9v-0.5c0-0.1,0-0.1,0.1-0.2
				c0,0,0.1-0.1,0.2-0.1H55C55,75.9,55.1,75.9,55.1,76z M55,71.9c0.3,0.3,0.4,0.7,0.4,1.1c0,0.5-0.1,0.8-0.4,1.1
				c-0.3,0.3-0.7,0.4-1.1,0.4c-0.5,0-0.8-0.1-1.1-0.4c-0.3-0.3-0.4-0.7-0.4-1.1c0-0.5,0.1-0.8,0.4-1.1c0.3-0.3,0.7-0.4,1.1-0.4
				C54.3,71.4,54.7,71.6,55,71.9z"/>
		</g>
		<g class="st1">
			<path class="st2" d="M60.7,81c-0.8-0.4-1.4-1-1.8-1.7c-0.4-0.7-0.6-1.6-0.6-2.5v-4.6c0-1,0.2-1.8,0.6-2.5c0.4-0.7,1-1.3,1.8-1.7
				c0.8-0.4,1.7-0.6,2.7-0.6c1,0,1.9,0.2,2.7,0.6c0.8,0.4,1.4,0.9,1.8,1.6c0.4,0.7,0.6,1.5,0.6,2.4c0,0.1-0.1,0.2-0.2,0.2L66,72.3h0
				c-0.1,0-0.2-0.1-0.2-0.2c0-0.7-0.2-1.3-0.6-1.7c-0.4-0.4-1-0.6-1.7-0.6c-0.7,0-1.3,0.2-1.7,0.6c-0.4,0.4-0.7,1-0.7,1.7v4.8
				c0,0.7,0.2,1.3,0.7,1.7c0.4,0.4,1,0.6,1.7,0.6c0.7,0,1.3-0.2,1.7-0.6c0.4-0.4,0.6-1,0.6-1.7c0-0.1,0.1-0.2,0.2-0.2l2.3,0.1
				c0.1,0,0.1,0,0.2,0.1c0,0,0.1,0.1,0.1,0.1c0,0.9-0.2,1.7-0.6,2.4c-0.4,0.7-1,1.3-1.8,1.6c-0.8,0.4-1.7,0.6-2.7,0.6
				C62.4,81.6,61.5,81.4,60.7,81z"/>
		</g>
		<g class="st1">
			<path class="st2" d="M70.7,80.8c-0.8-0.6-1.3-1.4-1.6-2.4c-0.2-0.6-0.3-1.3-0.3-2c0-0.8,0.1-1.5,0.3-2.1c0.3-1,0.9-1.8,1.7-2.3
				c0.8-0.6,1.8-0.8,2.9-0.8c1.1,0,2,0.3,2.8,0.8c0.8,0.6,1.3,1.3,1.6,2.3c0.2,0.7,0.3,1.4,0.3,2.1c0,0.7-0.1,1.4-0.3,2
				c-0.3,1-0.8,1.9-1.6,2.4c-0.8,0.6-1.8,0.9-2.9,0.9S71.5,81.3,70.7,80.8z M74.7,78.8c0.3-0.3,0.5-0.6,0.7-1.1
				c0.1-0.4,0.2-0.9,0.2-1.4c0-0.6-0.1-1-0.2-1.4c-0.1-0.5-0.4-0.8-0.7-1.1c-0.3-0.3-0.7-0.4-1.1-0.4c-0.5,0-0.8,0.1-1.1,0.4
				c-0.3,0.3-0.5,0.6-0.7,1.1c-0.1,0.3-0.2,0.8-0.2,1.4c0,0.6,0,1.1,0.1,1.4c0.1,0.5,0.4,0.8,0.7,1.1c0.3,0.3,0.7,0.4,1.1,0.4
				C74,79.2,74.3,79.1,74.7,78.8z M72.2,69.9c0-0.1,0-0.1,0-0.2l1.1-2c0.1-0.1,0.2-0.2,0.3-0.2h2c0.1,0,0.2,0,0.2,0.1
				c0,0.1,0,0.1,0,0.2l-1.4,2C74.2,69.9,74.1,70,74,70h-1.7C72.2,70,72.2,69.9,72.2,69.9z"/>
		</g>
		<g class="st1">
			<path class="st2" d="M92.8,72c0.6,0.6,0.9,1.5,0.9,2.6v6.6c0,0.1,0,0.1-0.1,0.2c0,0-0.1,0.1-0.2,0.1h-2.3c-0.1,0-0.1,0-0.2-0.1
				c0,0-0.1-0.1-0.1-0.2v-6c0-0.5-0.1-1-0.4-1.3s-0.7-0.5-1.1-0.5s-0.8,0.2-1.1,0.5c-0.3,0.3-0.4,0.7-0.4,1.3v6c0,0.1,0,0.1-0.1,0.2
				c0,0-0.1,0.1-0.2,0.1h-2.3c-0.1,0-0.1,0-0.2-0.1c0,0-0.1-0.1-0.1-0.2v-6c0-0.5-0.1-1-0.4-1.3c-0.3-0.3-0.7-0.5-1.1-0.5
				c-0.4,0-0.8,0.1-1.1,0.4c-0.3,0.3-0.5,0.6-0.5,1.1v6.3c0,0.1,0,0.1-0.1,0.2c0,0-0.1,0.1-0.2,0.1h-2.3c-0.1,0-0.1,0-0.2-0.1
				c0,0-0.1-0.1-0.1-0.2v-9.8c0-0.1,0-0.1,0.1-0.2s0.1-0.1,0.2-0.1h2.3c0.1,0,0.1,0,0.2,0.1c0,0,0.1,0.1,0.1,0.2v0.8
				c0,0,0,0.1,0,0.1c0,0,0.1,0,0.1,0c0.5-0.8,1.4-1.2,2.5-1.2c0.7,0,1.2,0.1,1.8,0.4c0.5,0.3,0.9,0.7,1.1,1.2c0,0.1,0.1,0.1,0.1,0
				c0.3-0.5,0.7-1,1.2-1.2s1.1-0.4,1.7-0.4C91.4,71,92.2,71.3,92.8,72z"/>
		</g>
		<g class="st1">
			<path class="st2" d="M95.7,80.8c-0.8-0.6-1.3-1.4-1.6-2.4c-0.2-0.6-0.3-1.3-0.3-2c0-0.8,0.1-1.5,0.3-2.1c0.3-1,0.9-1.8,1.7-2.3
				c0.8-0.6,1.8-0.8,2.9-0.8c1.1,0,2,0.3,2.8,0.8c0.8,0.6,1.3,1.3,1.6,2.3c0.2,0.7,0.3,1.4,0.3,2.1c0,0.7-0.1,1.4-0.3,2
				c-0.3,1-0.8,1.9-1.6,2.4c-0.8,0.6-1.8,0.9-2.9,0.9S96.5,81.3,95.7,80.8z M99.7,78.8c0.3-0.3,0.5-0.6,0.7-1.1
				c0.1-0.4,0.2-0.9,0.2-1.4c0-0.6-0.1-1-0.2-1.4c-0.1-0.5-0.4-0.8-0.7-1.1c-0.3-0.3-0.7-0.4-1.1-0.4c-0.5,0-0.8,0.1-1.1,0.4
				c-0.3,0.3-0.5,0.6-0.7,1.1c-0.1,0.3-0.2,0.8-0.2,1.4c0,0.6,0,1.1,0.1,1.4c0.1,0.5,0.4,0.8,0.7,1.1c0.3,0.3,0.7,0.4,1.1,0.4
				C99,79.2,99.3,79.1,99.7,78.8z"/>
			<path class="st2" d="M118.3,77c0,0.2-0.1,0.2-0.3,0.2h-6.2c-0.1,0-0.1,0-0.1,0.1c0,0.3,0.1,0.5,0.2,0.8c0.3,0.7,1.1,1.1,2.1,1.1
				c0.9,0,1.5-0.4,2-1c0.1-0.1,0.1-0.1,0.2-0.1c0,0,0.1,0,0.1,0.1l1.4,1.4c0.1,0.1,0.1,0.1,0.1,0.2c0,0,0,0.1-0.1,0.2
				c-0.4,0.5-1,1-1.7,1.3c-0.7,0.3-1.5,0.5-2.3,0.5c-1.1,0-2.1-0.3-2.9-0.8c-0.8-0.5-1.4-1.2-1.7-2.2c-0.3-0.7-0.4-1.5-0.4-2.6
				c0-0.7,0.1-1.4,0.3-1.9c0.3-0.9,0.8-1.7,1.6-2.3c0.8-0.6,1.7-0.8,2.7-0.8c1.3,0,2.4,0.4,3.2,1.2s1.3,1.8,1.5,3.1
				C118.3,75.8,118.3,76.3,118.3,77z M111.9,74.6c-0.1,0.2-0.1,0.4-0.1,0.6c0,0.1,0,0.1,0.1,0.1h3.5c0.1,0,0.1,0,0.1-0.1
				c-0.1-0.4-0.1-0.6-0.1-0.6c-0.1-0.4-0.3-0.7-0.6-0.9c-0.3-0.2-0.7-0.3-1.1-0.3C112.7,73.5,112.2,73.8,111.9,74.6z"/>
			<path class="st2" d="M128,72c0.7,0.7,1,1.5,1,2.7v6.6c0,0.1,0,0.1-0.1,0.2c0,0-0.1,0.1-0.2,0.1h-2.3c-0.1,0-0.1,0-0.2-0.1
				c0,0-0.1-0.1-0.1-0.2v-6c0-0.5-0.1-1-0.5-1.3c-0.3-0.3-0.7-0.5-1.2-0.5c-0.5,0-0.9,0.2-1.2,0.5c-0.3,0.3-0.5,0.8-0.5,1.3v6
				c0,0.1,0,0.1-0.1,0.2c0,0-0.1,0.1-0.2,0.1h-2.3c-0.1,0-0.1,0-0.2-0.1c0,0-0.1-0.1-0.1-0.2v-9.8c0-0.1,0-0.1,0.1-0.2
				s0.1-0.1,0.2-0.1h2.3c0.1,0,0.1,0,0.2,0.1c0,0,0.1,0.1,0.1,0.2v0.7c0,0,0,0.1,0,0.1s0,0,0.1,0c0.5-0.8,1.4-1.2,2.4-1.2
				C126.5,71,127.3,71.4,128,72z"/>
			<path class="st2" d="M136.8,73.4c0,0-0.1,0.1-0.2,0.1h-1.9c-0.1,0-0.1,0-0.1,0.1v4.2c0,0.4,0.1,0.8,0.3,1
				c0.2,0.2,0.5,0.3,0.9,0.3h0.7c0.1,0,0.1,0,0.2,0.1s0.1,0.1,0.1,0.2v1.9c0,0.1-0.1,0.2-0.2,0.3c-0.6,0-1,0-1.2,0
				c-1.1,0-1.9-0.2-2.5-0.5c-0.5-0.4-0.8-1.1-0.8-2.1v-5.4c0-0.1,0-0.1-0.1-0.1h-1.1c-0.1,0-0.1,0-0.2-0.1s-0.1-0.1-0.1-0.2v-1.8
				c0-0.1,0-0.1,0.1-0.2s0.1-0.1,0.2-0.1h1.1c0.1,0,0.1,0,0.1-0.1v-2.4c0-0.1,0-0.1,0.1-0.2s0.1-0.1,0.2-0.1h2.2
				c0.1,0,0.1,0,0.2,0.1s0.1,0.1,0.1,0.2v2.4c0,0.1,0,0.1,0.1,0.1h1.9c0.1,0,0.1,0,0.2,0.1c0,0,0.1,0.1,0.1,0.2v1.8
				C136.9,73.3,136.9,73.3,136.8,73.4z"/>
			<path class="st2" d="M139,69.6c-0.3-0.3-0.5-0.7-0.5-1.1c0-0.5,0.1-0.8,0.4-1.1c0.3-0.3,0.7-0.4,1.1-0.4c0.5,0,0.8,0.1,1.1,0.4
				c0.3,0.3,0.4,0.7,0.4,1.1c0,0.5-0.1,0.8-0.5,1.1c-0.3,0.3-0.7,0.4-1.1,0.4C139.7,70,139.3,69.9,139,69.6z M138.7,81.4
				c0,0-0.1-0.1-0.1-0.2v-9.8c0-0.1,0-0.1,0.1-0.2c0,0,0.1-0.1,0.2-0.1h2.3c0.1,0,0.1,0,0.2,0.1c0,0,0.1,0.1,0.1,0.2v9.8
				c0,0.1,0,0.1-0.1,0.2c0,0-0.1,0.1-0.2,0.1h-2.3C138.8,81.5,138.8,81.4,138.7,81.4z"/>
			<path class="st2" d="M152.9,77c0,0.2-0.1,0.2-0.3,0.2h-6.2c-0.1,0-0.1,0-0.1,0.1c0,0.3,0.1,0.5,0.2,0.8c0.3,0.7,1.1,1.1,2.1,1.1
				c0.9,0,1.5-0.4,2-1c0.1-0.1,0.1-0.1,0.2-0.1c0,0,0.1,0,0.1,0.1l1.4,1.4c0.1,0.1,0.1,0.1,0.1,0.2c0,0,0,0.1-0.1,0.2
				c-0.4,0.5-1,1-1.7,1.3c-0.7,0.3-1.5,0.5-2.3,0.5c-1.1,0-2.1-0.3-2.9-0.8c-0.8-0.5-1.4-1.2-1.7-2.2c-0.3-0.7-0.4-1.5-0.4-2.6
				c0-0.7,0.1-1.4,0.3-1.9c0.3-0.9,0.8-1.7,1.6-2.3c0.8-0.6,1.7-0.8,2.7-0.8c1.3,0,2.4,0.4,3.2,1.2s1.3,1.8,1.5,3.1
				C152.9,75.8,152.9,76.3,152.9,77z M146.5,74.6c-0.1,0.2-0.1,0.4-0.1,0.6c0,0.1,0,0.1,0.1,0.1h3.5c0.1,0,0.1,0,0.1-0.1
				c-0.1-0.4-0.1-0.6-0.1-0.6c-0.1-0.4-0.3-0.7-0.6-0.9c-0.3-0.2-0.7-0.3-1.1-0.3C147.3,73.5,146.7,73.8,146.5,74.6z"/>
		</g>
		<g class="st1">
			<path class="st2" d="M162,72c0.7,0.7,1,1.5,1,2.7v6.6c0,0.1,0,0.1-0.1,0.2c0,0-0.1,0.1-0.2,0.1h-2.3c-0.1,0-0.1,0-0.2-0.1
				c0,0-0.1-0.1-0.1-0.2v-6c0-0.5-0.1-1-0.5-1.3c-0.3-0.3-0.7-0.5-1.2-0.5s-0.9,0.2-1.2,0.5c-0.3,0.3-0.5,0.8-0.5,1.3v6
				c0,0.1,0,0.1-0.1,0.2c0,0-0.1,0.1-0.2,0.1h-2.3c-0.1,0-0.1,0-0.2-0.1c0,0-0.1-0.1-0.1-0.2v-9.8c0-0.1,0-0.1,0.1-0.2
				s0.1-0.1,0.2-0.1h2.3c0.1,0,0.1,0,0.2,0.1c0,0,0.1,0.1,0.1,0.2v0.7c0,0,0,0.1,0,0.1s0,0,0.1,0c0.5-0.8,1.4-1.2,2.4-1.2
				C160.5,71,161.4,71.4,162,72z"/>
		</g>
		<g class="st1">
			<path class="st2" d="M170.5,67.5c0,0,0.1-0.1,0.2-0.1h2.3c0.1,0,0.1,0,0.2,0.1s0.1,0.1,0.1,0.2v13.5c0,0.1,0,0.1-0.1,0.2
				c0,0-0.1,0.1-0.2,0.1h-2.3c-0.1,0-0.1,0-0.2-0.1c0,0-0.1-0.1-0.1-0.2v-0.7c0,0,0-0.1,0-0.1c0,0-0.1,0-0.1,0
				c-0.6,0.7-1.3,1.1-2.3,1.1c-0.9,0-1.7-0.3-2.4-0.8c-0.7-0.5-1.2-1.2-1.5-2.1c-0.2-0.7-0.3-1.5-0.3-2.4c0-0.9,0.1-1.8,0.4-2.5
				c0.3-0.9,0.8-1.5,1.4-2c0.7-0.5,1.5-0.8,2.5-0.8c1,0,1.7,0.3,2.2,1c0,0,0.1,0.1,0.1,0c0,0,0,0,0-0.1v-4.3
				C170.4,67.6,170.4,67.6,170.5,67.5z M170.4,76.3c0-0.9-0.1-1.6-0.4-2.1c-0.3-0.5-0.8-0.8-1.3-0.8c-0.6,0-1.1,0.3-1.4,0.8
				c-0.3,0.5-0.5,1.2-0.5,2.1c0,0.8,0.1,1.5,0.4,2c0.3,0.6,0.8,0.9,1.5,0.9c0.6,0,1.1-0.3,1.4-0.9C170.3,77.9,170.4,77.2,170.4,76.3
				z"/>
			<path class="st2" d="M184.5,77c0,0.2-0.1,0.2-0.3,0.2h-6.2c-0.1,0-0.1,0-0.1,0.1c0,0.3,0.1,0.5,0.2,0.8c0.3,0.7,1.1,1.1,2.1,1.1
				c0.9,0,1.5-0.4,2-1c0.1-0.1,0.1-0.1,0.2-0.1c0,0,0.1,0,0.1,0.1l1.4,1.4c0.1,0.1,0.1,0.1,0.1,0.2c0,0,0,0.1-0.1,0.2
				c-0.4,0.5-1,1-1.7,1.3c-0.7,0.3-1.5,0.5-2.3,0.5c-1.1,0-2.1-0.3-2.9-0.8c-0.8-0.5-1.4-1.2-1.7-2.2c-0.3-0.7-0.4-1.5-0.4-2.6
				c0-0.7,0.1-1.4,0.3-1.9c0.3-0.9,0.8-1.7,1.6-2.3c0.8-0.6,1.7-0.8,2.7-0.8c1.3,0,2.4,0.4,3.2,1.2s1.3,1.8,1.5,3.1
				C184.5,75.8,184.6,76.3,184.5,77z M178.1,74.6c-0.1,0.2-0.1,0.4-0.1,0.6c0,0.1,0,0.1,0.1,0.1h3.5c0.1,0,0.1,0,0.1-0.1
				c-0.1-0.4-0.1-0.6-0.1-0.6c-0.1-0.4-0.3-0.7-0.6-0.9c-0.3-0.2-0.7-0.3-1.1-0.3C179,73.5,178.4,73.8,178.1,74.6z"/>
			<path class="st2" d="M194.2,72c0.7,0.7,1,1.5,1,2.7v6.6c0,0.1,0,0.1-0.1,0.2c0,0-0.1,0.1-0.2,0.1h-2.3c-0.1,0-0.1,0-0.2-0.1
				c0,0-0.1-0.1-0.1-0.2v-6c0-0.5-0.2-1-0.5-1.3c-0.3-0.3-0.7-0.5-1.2-0.5s-0.9,0.2-1.2,0.5c-0.3,0.3-0.5,0.8-0.5,1.3v6
				c0,0.1,0,0.1-0.1,0.2c0,0-0.1,0.1-0.2,0.1h-2.3c-0.1,0-0.1,0-0.2-0.1c0,0-0.1-0.1-0.1-0.2v-9.8c0-0.1,0-0.1,0.1-0.2
				s0.1-0.1,0.2-0.1h2.3c0.1,0,0.1,0,0.2,0.1s0.1,0.1,0.1,0.2v0.7c0,0,0,0.1,0,0.1c0,0,0,0,0.1,0c0.5-0.8,1.4-1.2,2.4-1.2
				C192.7,71,193.6,71.4,194.2,72z"/>
			<path class="st2" d="M207.3,71.3c0,0,0.1-0.1,0.2-0.1h2.3c0.1,0,0.1,0,0.2,0.1c0,0,0.1,0.1,0.1,0.2v9.8c0,0.1,0,0.1-0.1,0.2
				c0,0-0.1,0.1-0.2,0.1h-2.3c-0.1,0-0.1,0-0.2-0.1c0,0-0.1-0.1-0.1-0.2v-0.7c0,0,0-0.1,0-0.1c0,0-0.1,0-0.1,0
				c-0.5,0.7-1.4,1.1-2.5,1.1c-1,0-1.8-0.3-2.5-0.9s-1-1.5-1-2.6v-6.7c0-0.1,0-0.1,0.1-0.2s0.1-0.1,0.2-0.1h2.3c0.1,0,0.1,0,0.2,0.1
				s0.1,0.1,0.1,0.2v6c0,0.5,0.1,1,0.4,1.3c0.3,0.3,0.7,0.5,1.2,0.5c0.5,0,0.8-0.1,1.1-0.4c0.3-0.3,0.5-0.6,0.5-1.1v-6.3
				C207.2,71.4,207.2,71.3,207.3,71.3z"/>
			<path class="st2" d="M220,72c0.7,0.7,1,1.5,1,2.7v6.6c0,0.1,0,0.1-0.1,0.2c0,0-0.1,0.1-0.2,0.1h-2.3c-0.1,0-0.1,0-0.2-0.1
				c0,0-0.1-0.1-0.1-0.2v-6c0-0.5-0.2-1-0.5-1.3c-0.3-0.3-0.7-0.5-1.2-0.5s-0.9,0.2-1.2,0.5c-0.3,0.3-0.5,0.8-0.5,1.3v6
				c0,0.1,0,0.1-0.1,0.2c0,0-0.1,0.1-0.2,0.1h-2.3c-0.1,0-0.1,0-0.2-0.1c0,0-0.1-0.1-0.1-0.2v-9.8c0-0.1,0-0.1,0.1-0.2
				s0.1-0.1,0.2-0.1h2.3c0.1,0,0.1,0,0.2,0.1s0.1,0.1,0.1,0.2v0.7c0,0,0,0.1,0,0.1c0,0,0,0,0.1,0c0.5-0.8,1.4-1.2,2.4-1.2
				C218.5,71,219.4,71.4,220,72z"/>
		</g>
		<g class="st1">
			<path class="st2" d="M51,104.8c-0.8-0.5-1.3-1.3-1.7-2.2c-0.2-0.7-0.3-1.5-0.3-2.4c0-0.9,0.1-1.7,0.3-2.3
				c0.3-0.9,0.9-1.6,1.7-2.1c0.8-0.5,1.7-0.8,2.8-0.8c1.1,0,2,0.3,2.8,0.8c0.8,0.5,1.3,1.2,1.6,2c0.1,0.3,0.2,0.6,0.2,0.7v0
				c0,0.1-0.1,0.2-0.2,0.2l-2.3,0.3h0c-0.1,0-0.2-0.1-0.2-0.2l-0.1-0.3c-0.1-0.3-0.3-0.6-0.6-0.9c-0.3-0.2-0.7-0.3-1.1-0.3
				c-0.4,0-0.8,0.1-1.1,0.3c-0.3,0.2-0.5,0.5-0.6,0.9c-0.1,0.4-0.2,0.9-0.2,1.6s0.1,1.2,0.2,1.6c0.1,0.4,0.3,0.7,0.6,0.9
				c0.3,0.2,0.7,0.3,1.1,0.3c0.4,0,0.8-0.1,1.1-0.3s0.5-0.5,0.6-0.9c0,0,0-0.1,0-0.1c0,0,0,0,0-0.1c0-0.2,0.1-0.2,0.3-0.2l2.3,0.4
				c0.1,0,0.2,0.1,0.2,0.2c0,0.1,0,0.3-0.1,0.6c-0.3,0.9-0.8,1.6-1.6,2.1c-0.8,0.5-1.7,0.8-2.8,0.8C52.7,105.6,51.8,105.4,51,104.8z
				"/>
		</g>
		<g class="st1">
			<path class="st2" d="M60.6,104.8c-0.8-0.6-1.3-1.4-1.6-2.4c-0.2-0.6-0.3-1.3-0.3-2c0-0.8,0.1-1.5,0.3-2.1c0.3-1,0.9-1.8,1.7-2.3
				c0.8-0.6,1.8-0.8,2.9-0.8c1.1,0,2,0.3,2.8,0.8c0.8,0.6,1.3,1.3,1.6,2.3c0.2,0.7,0.3,1.4,0.3,2.1c0,0.7-0.1,1.4-0.3,2
				c-0.3,1-0.8,1.9-1.6,2.4c-0.8,0.6-1.8,0.9-2.9,0.9S61.4,105.3,60.6,104.8z M64.6,102.8c0.3-0.3,0.5-0.6,0.7-1.1
				c0.1-0.4,0.2-0.9,0.2-1.4c0-0.6-0.1-1-0.2-1.4c-0.1-0.5-0.4-0.8-0.7-1.1c-0.3-0.3-0.7-0.4-1.1-0.4c-0.5,0-0.8,0.1-1.1,0.4
				c-0.3,0.3-0.5,0.6-0.7,1.1c-0.1,0.3-0.2,0.8-0.2,1.4c0,0.6,0,1.1,0.1,1.4c0.1,0.5,0.4,0.8,0.7,1.1c0.3,0.3,0.7,0.4,1.1,0.4
				C63.9,103.2,64.3,103.1,64.6,102.8z"/>
		</g>
		<g class="st1">
			<path class="st2" d="M76.9,96c0.7,0.7,1,1.5,1,2.7v6.6c0,0.1,0,0.1-0.1,0.2c0,0-0.1,0.1-0.2,0.1h-2.3c-0.1,0-0.1,0-0.2-0.1
				c0,0-0.1-0.1-0.1-0.2v-6c0-0.5-0.1-1-0.5-1.3c-0.3-0.3-0.7-0.5-1.2-0.5c-0.5,0-0.9,0.2-1.2,0.5c-0.3,0.3-0.5,0.8-0.5,1.3v6
				c0,0.1,0,0.1-0.1,0.2c0,0-0.1,0.1-0.2,0.1h-2.3c-0.1,0-0.1,0-0.2-0.1c0,0-0.1-0.1-0.1-0.2v-9.8c0-0.1,0-0.1,0.1-0.2
				s0.1-0.1,0.2-0.1h2.3c0.1,0,0.1,0,0.2,0.1c0,0,0.1,0.1,0.1,0.2v0.7c0,0,0,0.1,0,0.1s0,0,0.1,0c0.5-0.8,1.4-1.2,2.4-1.2
				C75.4,95,76.3,95.4,76.9,96z"/>
		</g>
		<g class="st1">
			<path class="st2" d="M80.6,104.8c-0.8-0.5-1.3-1.3-1.7-2.2c-0.2-0.7-0.3-1.5-0.3-2.4c0-0.9,0.1-1.7,0.3-2.3
				c0.3-0.9,0.9-1.6,1.7-2.1c0.8-0.5,1.7-0.8,2.8-0.8c1.1,0,2,0.3,2.8,0.8c0.8,0.5,1.3,1.2,1.6,2c0.1,0.3,0.2,0.6,0.2,0.7v0
				c0,0.1-0.1,0.2-0.2,0.2l-2.3,0.3h0c-0.1,0-0.2-0.1-0.2-0.2l-0.1-0.3c-0.1-0.3-0.3-0.6-0.6-0.9c-0.3-0.2-0.7-0.3-1.1-0.3
				c-0.4,0-0.8,0.1-1.1,0.3c-0.3,0.2-0.5,0.5-0.6,0.9c-0.1,0.4-0.2,0.9-0.2,1.6s0.1,1.2,0.2,1.6c0.1,0.4,0.3,0.7,0.6,0.9
				c0.3,0.2,0.7,0.3,1.1,0.3c0.4,0,0.8-0.1,1.1-0.3s0.5-0.5,0.6-0.9c0,0,0-0.1,0-0.1c0,0,0,0,0-0.1c0-0.2,0.1-0.2,0.3-0.2l2.3,0.4
				c0.1,0,0.2,0.1,0.2,0.2c0,0.1,0,0.3-0.1,0.6c-0.3,0.9-0.8,1.6-1.6,2.1c-0.8,0.5-1.7,0.8-2.8,0.8
				C82.3,105.6,81.4,105.4,80.6,104.8z"/>
		</g>
		<g class="st1">
			<path class="st2" d="M97.7,101c0,0.2-0.1,0.2-0.3,0.2h-6.2c-0.1,0-0.1,0-0.1,0.1c0,0.3,0.1,0.5,0.2,0.8c0.3,0.7,1.1,1.1,2.1,1.1
				c0.9,0,1.5-0.4,2-1c0.1-0.1,0.1-0.1,0.2-0.1c0,0,0.1,0,0.1,0.1l1.4,1.4c0.1,0.1,0.1,0.1,0.1,0.2c0,0,0,0.1-0.1,0.2
				c-0.4,0.5-1,1-1.7,1.3c-0.7,0.3-1.5,0.5-2.3,0.5c-1.1,0-2.1-0.3-2.9-0.8c-0.8-0.5-1.4-1.2-1.7-2.2c-0.3-0.7-0.4-1.5-0.4-2.6
				c0-0.7,0.1-1.4,0.3-1.9c0.3-0.9,0.8-1.7,1.6-2.3C91,95.3,91.9,95,93,95c1.3,0,2.4,0.4,3.2,1.2s1.3,1.8,1.5,3.1
				C97.7,99.8,97.8,100.3,97.7,101z M91.3,98.6c-0.1,0.2-0.1,0.4-0.1,0.6c0,0.1,0,0.1,0.1,0.1h3.5c0.1,0,0.1,0,0.1-0.1
				c-0.1-0.4-0.1-0.6-0.1-0.6c-0.1-0.4-0.3-0.7-0.6-0.9c-0.3-0.2-0.7-0.3-1.1-0.3C92.1,97.5,91.6,97.8,91.3,98.6z"/>
			<path class="st2" d="M109,100.3c0,0.9-0.1,1.8-0.4,2.5c-0.3,0.9-0.8,1.5-1.5,2s-1.5,0.8-2.5,0.8c-1,0-1.7-0.3-2.2-1
				c0,0-0.1-0.1-0.1,0c0,0,0,0,0,0.1v4.3c0,0.1,0,0.1-0.1,0.2c0,0-0.1,0.1-0.2,0.1h-2.3c-0.1,0-0.1,0-0.2-0.1c0,0-0.1-0.1-0.1-0.2
				V95.4c0-0.1,0-0.1,0.1-0.2c0,0,0.1-0.1,0.2-0.1h2.3c0.1,0,0.1,0,0.2,0.1c0,0,0.1,0.1,0.1,0.2v0.7c0,0,0,0.1,0,0.1
				c0,0,0.1,0,0.1,0c0.6-0.7,1.3-1.1,2.3-1.1c0.9,0,1.7,0.3,2.4,0.8s1.2,1.2,1.5,2.2C108.9,98.6,109,99.4,109,100.3z M106.1,100.3
				c0-0.8-0.1-1.5-0.4-2c-0.3-0.6-0.8-0.9-1.5-0.9c-0.6,0-1.1,0.3-1.4,0.9c-0.3,0.5-0.4,1.2-0.4,2c0,0.9,0.1,1.6,0.4,2.1
				c0.3,0.5,0.8,0.8,1.4,0.8c0.6,0,1.1-0.3,1.4-0.8C105.9,101.9,106.1,101.2,106.1,100.3z"/>
		</g>
		<g class="st1">
			<path class="st2" d="M114.4,97.4c0,0-0.1,0.1-0.2,0.1h-1.9c-0.1,0-0.1,0-0.1,0.1v4.2c0,0.4,0.1,0.8,0.3,1
				c0.2,0.2,0.5,0.3,0.9,0.3h0.7c0.1,0,0.1,0,0.2,0.1s0.1,0.1,0.1,0.2v1.9c0,0.1-0.1,0.2-0.2,0.3c-0.6,0-1,0-1.2,0
				c-1.1,0-1.9-0.2-2.5-0.5c-0.5-0.4-0.8-1.1-0.8-2.1v-5.4c0-0.1,0-0.1-0.1-0.1h-1.1c-0.1,0-0.1,0-0.2-0.1s-0.1-0.1-0.1-0.2v-1.8
				c0-0.1,0-0.1,0.1-0.2s0.1-0.1,0.2-0.1h1.1c0.1,0,0.1,0,0.1-0.1v-2.4c0-0.1,0-0.1,0.1-0.2s0.1-0.1,0.2-0.1h2.2
				c0.1,0,0.1,0,0.2,0.1s0.1,0.1,0.1,0.2v2.4c0,0.1,0,0.1,0.1,0.1h1.9c0.1,0,0.1,0,0.2,0.1s0.1,0.1,0.1,0.2v1.8
				C114.5,97.3,114.4,97.3,114.4,97.4z"/>
		</g>
		<g class="st1">
			<path class="st2" d="M116.8,104.8c-0.8-0.6-1.3-1.4-1.6-2.4c-0.2-0.6-0.3-1.3-0.3-2c0-0.8,0.1-1.5,0.3-2.1c0.3-1,0.9-1.8,1.7-2.3
				c0.8-0.6,1.8-0.8,2.9-0.8c1.1,0,2,0.3,2.8,0.8c0.8,0.6,1.3,1.3,1.6,2.3c0.2,0.7,0.3,1.4,0.3,2.1c0,0.7-0.1,1.4-0.3,2
				c-0.3,1-0.8,1.9-1.6,2.4c-0.8,0.6-1.8,0.9-2.9,0.9S117.6,105.3,116.8,104.8z M120.8,102.8c0.3-0.3,0.5-0.6,0.7-1.1
				c0.1-0.4,0.2-0.9,0.2-1.4c0-0.6-0.1-1-0.2-1.4c-0.1-0.5-0.4-0.8-0.7-1.1c-0.3-0.3-0.7-0.4-1.1-0.4c-0.5,0-0.8,0.1-1.1,0.4
				c-0.3,0.3-0.5,0.6-0.7,1.1c-0.1,0.3-0.2,0.8-0.2,1.4c0,0.6,0,1.1,0.1,1.4c0.1,0.5,0.4,0.8,0.7,1.1c0.3,0.3,0.7,0.4,1.1,0.4
				C120.1,103.2,120.5,103.1,120.8,102.8z"/>
			<path class="st2" d="M138.2,96c0.7,0.7,1,1.5,1,2.7v6.6c0,0.1,0,0.1-0.1,0.2c0,0-0.1,0.1-0.2,0.1h-2.3c-0.1,0-0.1,0-0.2-0.1
				c0,0-0.1-0.1-0.1-0.2v-6c0-0.5-0.1-1-0.5-1.3c-0.3-0.3-0.7-0.5-1.2-0.5c-0.5,0-0.9,0.2-1.2,0.5c-0.3,0.3-0.5,0.8-0.5,1.3v6
				c0,0.1,0,0.1-0.1,0.2c0,0-0.1,0.1-0.2,0.1h-2.3c-0.1,0-0.1,0-0.2-0.1c0,0-0.1-0.1-0.1-0.2v-9.8c0-0.1,0-0.1,0.1-0.2
				s0.1-0.1,0.2-0.1h2.3c0.1,0,0.1,0,0.2,0.1c0,0,0.1,0.1,0.1,0.2v0.7c0,0,0,0.1,0,0.1s0,0,0.1,0c0.5-0.8,1.4-1.2,2.4-1.2
				C136.7,95,137.6,95.4,138.2,96z"/>
			<path class="st2" d="M147.3,95.3c0,0,0.1-0.1,0.2-0.1h2.3c0.1,0,0.1,0,0.2,0.1c0,0,0.1,0.1,0.1,0.2v9.8c0,0.1,0,0.1-0.1,0.2
				c0,0-0.1,0.1-0.2,0.1h-2.3c-0.1,0-0.1,0-0.2-0.1c0,0-0.1-0.1-0.1-0.2v-0.7c0,0,0-0.1,0-0.1c0,0-0.1,0-0.1,0
				c-0.5,0.7-1.4,1.1-2.5,1.1c-1,0-1.8-0.3-2.5-0.9s-1-1.5-1-2.6v-6.7c0-0.1,0-0.1,0.1-0.2s0.1-0.1,0.2-0.1h2.3c0.1,0,0.1,0,0.2,0.1
				c0,0,0.1,0.1,0.1,0.2v6c0,0.5,0.1,1,0.4,1.3s0.7,0.5,1.2,0.5c0.5,0,0.8-0.1,1.1-0.4c0.3-0.3,0.5-0.6,0.5-1.1v-6.3
				C147.2,95.4,147.3,95.3,147.3,95.3z"/>
		</g>
		<g class="st1">
			<path class="st2" d="M158.3,101c0,0.2-0.1,0.2-0.3,0.2h-6.2c-0.1,0-0.1,0-0.1,0.1c0,0.3,0.1,0.5,0.2,0.8c0.3,0.7,1.1,1.1,2.1,1.1
				c0.9,0,1.5-0.4,2-1c0.1-0.1,0.1-0.1,0.2-0.1c0,0,0.1,0,0.1,0.1l1.4,1.4c0.1,0.1,0.1,0.1,0.1,0.2c0,0,0,0.1-0.1,0.2
				c-0.4,0.5-1,1-1.7,1.3c-0.7,0.3-1.5,0.5-2.3,0.5c-1.1,0-2.1-0.3-2.9-0.8c-0.8-0.5-1.4-1.2-1.7-2.2c-0.3-0.7-0.4-1.5-0.4-2.6
				c0-0.7,0.1-1.4,0.3-1.9c0.3-0.9,0.8-1.7,1.6-2.3c0.8-0.6,1.7-0.8,2.7-0.8c1.3,0,2.4,0.4,3.2,1.2s1.3,1.8,1.5,3.1
				C158.3,99.8,158.3,100.3,158.3,101z M151.9,98.6c-0.1,0.2-0.1,0.4-0.1,0.6c0,0.1,0,0.1,0.1,0.1h3.5c0.1,0,0.1,0,0.1-0.1
				c-0.1-0.4-0.1-0.6-0.1-0.6c-0.1-0.4-0.3-0.7-0.6-0.9c-0.3-0.2-0.7-0.3-1.1-0.3C152.7,97.5,152.1,97.8,151.9,98.6z"/>
		</g>
		<g class="st1">
			<path class="st2" d="M161.1,105.3l-3.2-9.8c0,0,0-0.1,0-0.1c0-0.1,0.1-0.2,0.2-0.2h2.6c0.1,0,0.2,0.1,0.3,0.2l1.6,6.1
				c0,0,0,0.1,0.1,0.1s0,0,0.1-0.1l1.6-6.1c0-0.1,0.1-0.2,0.3-0.2l2.6,0c0.1,0,0.1,0,0.2,0.1c0,0,0,0.1,0,0.2l-3.2,9.8
				c0,0.1-0.1,0.2-0.3,0.2h-2.6C161.2,105.5,161.2,105.4,161.1,105.3z"/>
		</g>
		<g class="st1">
			<path class="st2" d="M169.2,104.8c-0.8-0.6-1.3-1.4-1.6-2.4c-0.2-0.6-0.3-1.3-0.3-2c0-0.8,0.1-1.5,0.3-2.1c0.3-1,0.9-1.8,1.7-2.3
				c0.8-0.6,1.8-0.8,2.9-0.8c1.1,0,2,0.3,2.8,0.8c0.8,0.6,1.3,1.3,1.6,2.3c0.2,0.7,0.3,1.4,0.3,2.1c0,0.7-0.1,1.4-0.3,2
				c-0.3,1-0.8,1.9-1.6,2.4c-0.8,0.6-1.8,0.9-2.9,0.9S170,105.3,169.2,104.8z M173.2,102.8c0.3-0.3,0.5-0.6,0.7-1.1
				c0.1-0.4,0.2-0.9,0.2-1.4c0-0.6-0.1-1-0.2-1.4c-0.1-0.5-0.4-0.8-0.7-1.1c-0.3-0.3-0.7-0.4-1.1-0.4c-0.5,0-0.8,0.1-1.1,0.4
				c-0.3,0.3-0.5,0.6-0.7,1.1c-0.1,0.3-0.2,0.8-0.2,1.4c0,0.6,0,1.1,0.1,1.4c0.1,0.5,0.4,0.8,0.7,1.1s0.7,0.4,1.2,0.4
				C172.5,103.2,172.9,103.1,173.2,102.8z"/>
			<path class="st2" d="M182.8,105.4c0,0-0.1-0.1-0.1-0.2V91.7c0-0.1,0-0.1,0.1-0.2s0.1-0.1,0.2-0.1h2.3c0.1,0,0.1,0,0.2,0.1
				c0,0,0.1,0.1,0.1,0.2v13.5c0,0.1,0,0.1-0.1,0.2c0,0-0.1,0.1-0.2,0.1h-2.3C182.9,105.5,182.8,105.4,182.8,105.4z"/>
			<path class="st2" d="M189.2,104.8c-0.8-0.6-1.3-1.4-1.6-2.4c-0.2-0.6-0.3-1.3-0.3-2c0-0.8,0.1-1.5,0.3-2.1c0.3-1,0.9-1.8,1.7-2.3
				c0.8-0.6,1.8-0.8,2.9-0.8c1.1,0,2,0.3,2.8,0.8c0.8,0.6,1.3,1.3,1.6,2.3c0.2,0.7,0.3,1.4,0.3,2.1c0,0.7-0.1,1.4-0.3,2
				c-0.3,1-0.8,1.9-1.6,2.4c-0.8,0.6-1.8,0.9-2.9,0.9S190,105.3,189.2,104.8z M193.2,102.8c0.3-0.3,0.5-0.6,0.7-1.1
				c0.1-0.4,0.2-0.9,0.2-1.4c0-0.6-0.1-1-0.2-1.4c-0.1-0.5-0.4-0.8-0.7-1.1c-0.3-0.3-0.7-0.4-1.1-0.4c-0.5,0-0.8,0.1-1.1,0.4
				c-0.3,0.3-0.5,0.6-0.7,1.1c-0.1,0.3-0.2,0.8-0.2,1.4c0,0.6,0,1.1,0.1,1.4c0.1,0.5,0.4,0.8,0.7,1.1s0.7,0.4,1.2,0.4
				C192.6,103.2,192.9,103.1,193.2,102.8z"/>
			<path class="st2" d="M200.5,105.2c-0.7-0.3-1.2-0.6-1.5-1.1c-0.4-0.5-0.5-1-0.5-1.5v-0.2c0-0.1,0-0.1,0.1-0.2s0.1-0.1,0.2-0.1
				h2.2c0.1,0,0.1,0,0.2,0.1c0,0,0.1,0.1,0.1,0.2v0c0,0.3,0.2,0.5,0.5,0.8c0.3,0.2,0.7,0.3,1.2,0.3c0.5,0,0.8-0.1,1.1-0.3
				c0.3-0.2,0.4-0.4,0.4-0.7c0-0.2-0.1-0.4-0.4-0.5c-0.2-0.1-0.6-0.2-1.2-0.4c-0.6-0.2-1.1-0.3-1.5-0.5c-0.9-0.3-1.5-0.7-2-1.1
				c-0.5-0.4-0.8-1-0.8-1.8c0-1,0.4-1.8,1.2-2.3s1.8-0.9,3-0.9c0.9,0,1.6,0.1,2.2,0.4s1.1,0.7,1.5,1.1c0.4,0.5,0.5,1.1,0.5,1.7
				c0,0.1,0,0.1-0.1,0.2c0,0-0.1,0.1-0.2,0.1h-2.1c-0.1,0-0.1,0-0.2-0.1s-0.1-0.1-0.1-0.2c0-0.3-0.2-0.5-0.5-0.7s-0.7-0.3-1.2-0.3
				c-0.4,0-0.8,0.1-1.1,0.2c-0.3,0.2-0.4,0.4-0.4,0.7c0,0.3,0.1,0.5,0.4,0.6c0.3,0.1,0.7,0.3,1.4,0.4c0.1,0,0.3,0.1,0.5,0.1
				s0.4,0.1,0.6,0.2c0.9,0.3,1.7,0.6,2.2,1.1c0.5,0.4,0.8,1.1,0.8,1.9c0,1-0.4,1.8-1.2,2.3c-0.8,0.6-1.8,0.8-3.2,0.8
				C201.9,105.6,201.2,105.5,200.5,105.2z"/>
		</g>
		<g class="st1">
			<path class="st2" d="M58.4,125c0,0.2-0.1,0.2-0.3,0.2H52c-0.1,0-0.1,0-0.1,0.1c0,0.3,0.1,0.5,0.2,0.8c0.3,0.7,1.1,1.1,2.1,1.1
				c0.9,0,1.5-0.4,2-1c0.1-0.1,0.1-0.1,0.2-0.1c0,0,0.1,0,0.1,0.1l1.4,1.4c0.1,0.1,0.1,0.1,0.1,0.2c0,0,0,0.1-0.1,0.2
				c-0.4,0.5-1,1-1.7,1.3c-0.7,0.3-1.5,0.5-2.3,0.5c-1.1,0-2.1-0.3-2.9-0.8c-0.8-0.5-1.4-1.2-1.7-2.2c-0.3-0.7-0.4-1.5-0.4-2.6
				c0-0.7,0.1-1.4,0.3-1.9c0.3-0.9,0.8-1.7,1.6-2.3c0.8-0.6,1.7-0.8,2.7-0.8c1.3,0,2.4,0.4,3.2,1.2s1.3,1.8,1.5,3.1
				C58.4,123.8,58.5,124.3,58.4,125z M52,122.6c-0.1,0.2-0.1,0.4-0.1,0.6c0,0.1,0,0.1,0.1,0.1h3.5c0.1,0,0.1,0,0.1-0.1
				c-0.1-0.4-0.1-0.6-0.1-0.6c-0.1-0.4-0.3-0.7-0.6-0.9c-0.3-0.2-0.7-0.3-1.1-0.3C52.9,121.5,52.3,121.8,52,122.6z"/>
		</g>
		<g class="st1">
			<path class="st2" d="M60.8,129.2c-0.7-0.3-1.2-0.6-1.5-1.1s-0.5-1-0.5-1.5v-0.2c0-0.1,0-0.1,0.1-0.2c0,0,0.1-0.1,0.2-0.1h2.2
				c0.1,0,0.1,0,0.2,0.1c0,0,0.1,0.1,0.1,0.2v0c0,0.3,0.2,0.5,0.5,0.8c0.3,0.2,0.7,0.3,1.2,0.3c0.5,0,0.8-0.1,1.1-0.3
				c0.3-0.2,0.4-0.4,0.4-0.7c0-0.2-0.1-0.4-0.4-0.5c-0.2-0.1-0.6-0.2-1.2-0.4c-0.6-0.2-1.1-0.3-1.5-0.5c-0.9-0.3-1.5-0.7-2-1.1
				c-0.5-0.4-0.8-1-0.8-1.8c0-1,0.4-1.8,1.2-2.3c0.8-0.6,1.8-0.9,3-0.9c0.9,0,1.6,0.1,2.2,0.4c0.6,0.3,1.1,0.7,1.5,1.1
				c0.4,0.5,0.5,1.1,0.5,1.7c0,0.1,0,0.1-0.1,0.2c0,0-0.1,0.1-0.2,0.1h-2.1c-0.1,0-0.1,0-0.2-0.1c0,0-0.1-0.1-0.1-0.2
				c0-0.3-0.2-0.5-0.5-0.7s-0.7-0.3-1.2-0.3c-0.4,0-0.8,0.1-1.1,0.2c-0.3,0.2-0.4,0.4-0.4,0.7c0,0.3,0.1,0.5,0.4,0.6
				c0.3,0.1,0.7,0.3,1.4,0.4c0.1,0,0.3,0.1,0.5,0.1s0.4,0.1,0.6,0.2c0.9,0.3,1.7,0.6,2.2,1.1c0.5,0.4,0.8,1.1,0.8,1.9
				c0,1-0.4,1.8-1.2,2.3c-0.8,0.6-1.8,0.8-3.1,0.8C62.2,129.6,61.4,129.5,60.8,129.2z"/>
		</g>
		<g class="st1">
			<path class="st2" d="M74,121.4c0,0-0.1,0.1-0.2,0.1h-1.9c-0.1,0-0.1,0-0.1,0.1v4.2c0,0.4,0.1,0.8,0.3,1c0.2,0.2,0.5,0.3,0.9,0.3
				h0.7c0.1,0,0.1,0,0.2,0.1s0.1,0.1,0.1,0.2v1.9c0,0.1-0.1,0.2-0.2,0.3c-0.6,0-1,0-1.2,0c-1.1,0-1.9-0.2-2.5-0.5
				c-0.5-0.4-0.8-1.1-0.8-2.1v-5.4c0-0.1,0-0.1-0.1-0.1h-1.1c-0.1,0-0.1,0-0.2-0.1s-0.1-0.1-0.1-0.2v-1.8c0-0.1,0-0.1,0.1-0.2
				s0.1-0.1,0.2-0.1h1.1c0.1,0,0.1,0,0.1-0.1v-2.4c0-0.1,0-0.1,0.1-0.2s0.1-0.1,0.2-0.1h2.2c0.1,0,0.1,0,0.2,0.1s0.1,0.1,0.1,0.2
				v2.4c0,0.1,0,0.1,0.1,0.1h1.9c0.1,0,0.1,0,0.2,0.1c0,0,0.1,0.1,0.1,0.2v1.8C74,121.3,74,121.3,74,121.4z"/>
			<path class="st2" d="M81.8,119.3c0,0,0.1-0.1,0.2-0.1h2.3c0.1,0,0.1,0,0.2,0.1c0,0,0.1,0.1,0.1,0.2v9.8c0,0.1,0,0.1-0.1,0.2
				c0,0-0.1,0.1-0.2,0.1H82c-0.1,0-0.1,0-0.2-0.1c0,0-0.1-0.1-0.1-0.2v-0.7c0,0,0-0.1,0-0.1c0,0-0.1,0-0.1,0
				c-0.5,0.7-1.4,1.1-2.5,1.1c-1,0-1.8-0.3-2.5-0.9s-1-1.5-1-2.6v-6.7c0-0.1,0-0.1,0.1-0.2s0.1-0.1,0.2-0.1h2.3c0.1,0,0.1,0,0.2,0.1
				c0,0,0.1,0.1,0.1,0.2v6c0,0.5,0.1,1,0.4,1.3s0.7,0.5,1.2,0.5c0.5,0,0.8-0.1,1.1-0.4c0.3-0.3,0.5-0.6,0.5-1.1v-6.3
				C81.7,119.4,81.8,119.3,81.8,119.3z"/>
			<path class="st2" d="M93.1,115.5c0,0,0.1-0.1,0.2-0.1h2.3c0.1,0,0.1,0,0.2,0.1s0.1,0.1,0.1,0.2v13.5c0,0.1,0,0.1-0.1,0.2
				c0,0-0.1,0.1-0.2,0.1h-2.3c-0.1,0-0.1,0-0.2-0.1c0,0-0.1-0.1-0.1-0.2v-0.7c0,0,0-0.1,0-0.1s-0.1,0-0.1,0
				c-0.6,0.7-1.3,1.1-2.3,1.1c-0.9,0-1.7-0.3-2.4-0.8c-0.7-0.5-1.2-1.2-1.4-2.1c-0.2-0.7-0.3-1.5-0.3-2.4c0-0.9,0.1-1.8,0.4-2.5
				c0.3-0.9,0.8-1.5,1.4-2c0.7-0.5,1.5-0.8,2.5-0.8c1,0,1.7,0.3,2.2,1c0,0,0.1,0.1,0.1,0c0,0,0,0,0-0.1v-4.3
				C93,115.6,93,115.6,93.1,115.5z M93,124.3c0-0.9-0.1-1.6-0.4-2.1c-0.3-0.5-0.8-0.8-1.3-0.8c-0.6,0-1.1,0.3-1.4,0.8
				c-0.3,0.5-0.5,1.2-0.5,2.1c0,0.8,0.1,1.5,0.4,2c0.3,0.6,0.8,0.9,1.5,0.9c0.6,0,1.1-0.3,1.4-0.9C92.9,125.9,93,125.2,93,124.3z"/>
			<path class="st2" d="M98.3,117.6c-0.3-0.3-0.5-0.7-0.5-1.1c0-0.5,0.1-0.8,0.4-1.1c0.3-0.3,0.7-0.4,1.1-0.4c0.5,0,0.8,0.1,1.1,0.4
				c0.3,0.3,0.4,0.7,0.4,1.1c0,0.5-0.1,0.8-0.5,1.1c-0.3,0.3-0.7,0.4-1.1,0.4C99,118,98.6,117.9,98.3,117.6z M98.1,129.4
				c0,0-0.1-0.1-0.1-0.2v-9.8c0-0.1,0-0.1,0.1-0.2c0,0,0.1-0.1,0.2-0.1h2.3c0.1,0,0.1,0,0.2,0.1c0,0,0.1,0.1,0.1,0.2v9.8
				c0,0.1,0,0.1-0.1,0.2c0,0-0.1,0.1-0.2,0.1h-2.3C98.2,129.5,98.1,129.4,98.1,129.4z"/>
			<path class="st2" d="M109.5,119.5c0.7,0.3,1.2,0.7,1.6,1.2c0.4,0.5,0.6,1.1,0.6,1.7v6.8c0,0.1,0,0.1-0.1,0.2c0,0-0.1,0.1-0.2,0.1
				H109c-0.1,0-0.1,0-0.2-0.1c0,0-0.1-0.1-0.1-0.2v-0.7c0,0,0-0.1,0-0.1c0,0-0.1,0-0.1,0c-0.6,0.7-1.5,1.1-2.7,1.1
				c-1,0-1.9-0.3-2.5-0.8s-1-1.3-1-2.2c0-1,0.4-1.8,1.1-2.4c0.7-0.6,1.7-0.8,3.1-0.8h2c0.1,0,0.1,0,0.1-0.1v-0.4
				c0-0.4-0.1-0.8-0.4-1c-0.3-0.2-0.7-0.4-1.2-0.4c-0.4,0-0.8,0.1-1,0.2s-0.4,0.4-0.5,0.6c0,0.1-0.1,0.2-0.3,0.2l-2.4-0.3
				c-0.2,0-0.2-0.1-0.2-0.2c0.1-0.6,0.3-1.1,0.7-1.5c0.4-0.5,0.9-0.8,1.6-1.1c0.6-0.3,1.4-0.4,2.2-0.4
				C108,119,108.8,119.2,109.5,119.5z M108.2,127.1c0.4-0.3,0.6-0.7,0.6-1.2v-0.7c0-0.1,0-0.1-0.1-0.1h-1.4c-0.6,0-1.1,0.1-1.4,0.3
				c-0.3,0.2-0.5,0.5-0.5,1c0,0.4,0.1,0.6,0.4,0.8c0.3,0.2,0.6,0.3,1,0.3C107.3,127.5,107.8,127.4,108.2,127.1z"/>
			<path class="st2" d="M121.5,120c0.7,0.7,1,1.5,1,2.7v6.6c0,0.1,0,0.1-0.1,0.2c0,0-0.1,0.1-0.2,0.1h-2.3c-0.1,0-0.1,0-0.2-0.1
				c0,0-0.1-0.1-0.1-0.2v-6c0-0.5-0.1-1-0.5-1.3c-0.3-0.3-0.7-0.5-1.2-0.5c-0.5,0-0.9,0.2-1.2,0.5c-0.3,0.3-0.5,0.8-0.5,1.3v6
				c0,0.1,0,0.1-0.1,0.2c0,0-0.1,0.1-0.2,0.1h-2.3c-0.1,0-0.1,0-0.2-0.1c0,0-0.1-0.1-0.1-0.2v-9.8c0-0.1,0-0.1,0.1-0.2
				s0.1-0.1,0.2-0.1h2.3c0.1,0,0.1,0,0.2,0.1c0,0,0.1,0.1,0.1,0.2v0.7c0,0,0,0.1,0,0.1s0,0,0.1,0c0.5-0.8,1.4-1.2,2.4-1.2
				C120,119,120.9,119.4,121.5,120z"/>
		</g>
		<g class="st1">
			<path class="st2" d="M125.1,121.4c0,0-0.1,0.1-0.2,0.1H123c-0.1,0-0.1,0-0.1,0.1v4.2c0,0.4,0.1,0.8,0.3,1
				c0.2,0.2,0.5,0.3,0.9,0.3h0.7c0.1,0,0.1,0,0.2,0.1s0.1,0.1,0.1,0.2v1.9c0,0.1-0.1,0.2-0.2,0.3c-0.6,0-1,0-1.2,0
				c-1.1,0-1.9-0.2-2.5-0.5c-0.5-0.4-0.8-1.1-0.8-2.1v-5.4c0-0.1,0-0.1-0.1-0.1H119c-0.1,0-0.1,0-0.2-0.1s-0.1-0.1-0.1-0.2v-1.8
				c0-0.1,0-0.1,0.1-0.2s0.1-0.1,0.2-0.1h1.1c0.1,0,0.1,0,0.1-0.1v-2.4c0-0.1,0-0.1,0.1-0.2s0.1-0.1,0.2-0.1h2.2
				c0.1,0,0.1,0,0.2,0.1s0.1,0.1,0.1,0.2v2.4c0,0.1,0,0.1,0.1,0.1h1.9c0.1,0,0.1,0,0.2,0.1c0,0,0.1,0.1,0.1,0.2v1.8
				C125.2,121.3,125.1,121.3,125.1,121.4z"/>
			<path class="st2" d="M135.9,125c0,0.2-0.1,0.2-0.3,0.2h-6.2c-0.1,0-0.1,0-0.1,0.1c0,0.3,0.1,0.5,0.2,0.8c0.3,0.7,1.1,1.1,2.1,1.1
				c0.9,0,1.5-0.4,2-1c0.1-0.1,0.1-0.1,0.2-0.1c0,0,0.1,0,0.1,0.1l1.4,1.4c0.1,0.1,0.1,0.1,0.1,0.2c0,0,0,0.1-0.1,0.2
				c-0.4,0.5-1,1-1.7,1.3c-0.7,0.3-1.5,0.5-2.3,0.5c-1.1,0-2.1-0.3-2.9-0.8c-0.8-0.5-1.4-1.2-1.7-2.2c-0.3-0.7-0.4-1.5-0.4-2.6
				c0-0.7,0.1-1.4,0.3-1.9c0.3-0.9,0.8-1.7,1.6-2.3c0.8-0.6,1.7-0.8,2.7-0.8c1.3,0,2.4,0.4,3.2,1.2s1.3,1.8,1.5,3.1
				C135.9,123.8,135.9,124.3,135.9,125z M129.5,122.6c-0.1,0.2-0.1,0.4-0.1,0.6c0,0.1,0,0.1,0.1,0.1h3.5c0.1,0,0.1,0,0.1-0.1
				c-0.1-0.4-0.1-0.6-0.1-0.6c-0.1-0.4-0.3-0.7-0.6-0.9c-0.3-0.2-0.7-0.3-1.1-0.3C130.3,121.5,129.8,121.8,129.5,122.6z"/>
		</g>
		<g class="st1">
			<path class="st2" d="M137.4,129.2c-0.7-0.3-1.2-0.6-1.5-1.1s-0.5-1-0.5-1.5v-0.2c0-0.1,0-0.1,0.1-0.2c0,0,0.1-0.1,0.2-0.1h2.2
				c0.1,0,0.1,0,0.2,0.1c0,0,0.1,0.1,0.1,0.2v0c0,0.3,0.2,0.5,0.5,0.8c0.3,0.2,0.7,0.3,1.2,0.3c0.5,0,0.8-0.1,1.1-0.3
				c0.3-0.2,0.4-0.4,0.4-0.7c0-0.2-0.1-0.4-0.4-0.5c-0.2-0.1-0.6-0.2-1.2-0.4c-0.6-0.2-1.1-0.3-1.5-0.5c-0.9-0.3-1.5-0.7-2-1.1
				c-0.5-0.4-0.8-1-0.8-1.8c0-1,0.4-1.8,1.2-2.3c0.8-0.6,1.8-0.9,3-0.9c0.9,0,1.6,0.1,2.2,0.4c0.6,0.3,1.1,0.7,1.5,1.1
				c0.4,0.5,0.5,1.1,0.5,1.7c0,0.1,0,0.1-0.1,0.2c0,0-0.1,0.1-0.2,0.1h-2.1c-0.1,0-0.1,0-0.2-0.1c0,0-0.1-0.1-0.1-0.2
				c0-0.3-0.2-0.5-0.5-0.7s-0.7-0.3-1.2-0.3c-0.4,0-0.8,0.1-1.1,0.2c-0.3,0.2-0.4,0.4-0.4,0.7c0,0.3,0.1,0.5,0.4,0.6
				c0.3,0.1,0.7,0.3,1.4,0.4c0.1,0,0.3,0.1,0.5,0.1s0.4,0.1,0.6,0.2c0.9,0.3,1.7,0.6,2.2,1.1c0.5,0.4,0.8,1.1,0.8,1.9
				c0,1-0.4,1.8-1.2,2.3c-0.8,0.6-1.8,0.8-3.1,0.8C138.9,129.6,138.1,129.5,137.4,129.2z"/>
		</g>
		<g class="st1">
			<path class="st2" d="M147.3,125c0,0-0.1-0.1-0.1-0.2v-0.6c0-0.7,0.2-1.2,0.5-1.6c0.3-0.4,0.8-0.8,1.5-1.3c0.5-0.4,0.9-0.7,1.2-1
				c0.3-0.3,0.4-0.6,0.4-1c0-0.4-0.2-0.8-0.5-1c-0.3-0.3-0.7-0.4-1.3-0.4c-0.6,0-1,0.1-1.4,0.4c-0.3,0.3-0.5,0.6-0.5,1.1v0.3
				c0,0.1-0.1,0.2-0.2,0.2l-2.3-0.1c-0.1,0-0.1,0-0.2-0.1s-0.1-0.1-0.1-0.2v-0.2c0-0.8,0.2-1.5,0.6-2.1c0.4-0.6,1-1.1,1.7-1.4
				c0.7-0.3,1.5-0.5,2.5-0.5c0.9,0,1.7,0.2,2.4,0.5c0.7,0.3,1.2,0.8,1.6,1.4c0.4,0.6,0.6,1.3,0.6,2c0,0.6-0.1,1.1-0.3,1.5
				s-0.5,0.8-0.8,1s-0.7,0.6-1.1,0.9c-0.5,0.3-0.8,0.6-1.1,0.9c-0.2,0.2-0.3,0.5-0.3,0.9v0.5c0,0.1,0,0.1-0.1,0.2
				c0,0-0.1,0.1-0.2,0.1h-2.3C147.4,125,147.3,125,147.3,125z M147.4,129.1c-0.3-0.3-0.4-0.7-0.4-1.1s0.1-0.8,0.4-1.1
				c0.3-0.3,0.7-0.4,1.1-0.4s0.8,0.1,1.1,0.4c0.3,0.3,0.4,0.7,0.4,1.1c0,0.5-0.1,0.8-0.4,1.1s-0.7,0.5-1.1,0.5
				S147.7,129.4,147.4,129.1z"/>
		</g>
		<g class="st1">
			<path class="st2" d="M24.9,67.1h2.7c0.1,0,0.1,0,0.2,0.1c0.1,0.1,0.1,0.1,0.1,0.2v14.9c0,0.1,0,0.1-0.1,0.2
				c-0.1,0.1-0.1,0.1-0.2,0.1H25c-0.1,0-0.1,0-0.2-0.1c-0.1-0.1-0.1-0.1-0.1-0.2V70.1c0,0,0-0.1,0-0.1c0,0-0.1,0-0.1,0l-2.2,0.6
				l-0.1,0c-0.1,0-0.2-0.1-0.2-0.2l-0.1-1.9c0-0.1,0.1-0.2,0.2-0.3l2.3-1.1C24.6,67.1,24.7,67.1,24.9,67.1z"/>
			<path class="st2" d="M30.7,82.1c-0.3-0.3-0.5-0.7-0.5-1.2c0-0.5,0.2-0.9,0.5-1.3c0.3-0.3,0.7-0.5,1.3-0.5s0.9,0.2,1.3,0.5
				c0.3,0.3,0.5,0.7,0.5,1.3c0,0.5-0.2,0.9-0.5,1.2s-0.7,0.5-1.2,0.5S31,82.4,30.7,82.1z"/>
		</g>
	</g>
</g>
</svg>
